<?xml version='1.0' encoding='utf-8'?>
<mlt LC_NUMERIC="C" producer="main_bin" version="7.0.0" root="/home/duangsuse/Documents/咱动苏/参动之画/动态粉丝排行">
 <profile frame_rate_num="25" sample_aspect_num="1" display_aspect_den="9" colorspace="709" progressive="1" description="HD 1080p 25 fps" display_aspect_num="16" frame_rate_den="1" width="1920" height="1080" sample_aspect_den="1"/>
 <producer id="producer0" in="00:00:00.000" out="00:04:49.200">
  <property name="length">7231</property>
  <property name="eof">pause</property>
  <property name="resource">/home/duangsuse/Documents/咱动苏/参动之画/ls/a.wav</property>
  <property name="meta.media.nb_streams">1</property>
  <property name="meta.media.0.stream.type">audio</property>
  <property name="meta.media.0.codec.sample_fmt">s16</property>
  <property name="meta.media.0.codec.sample_rate">48000</property>
  <property name="meta.media.0.codec.channels">2</property>
  <property name="meta.media.0.codec.name">pcm_s16le</property>
  <property name="meta.media.0.codec.long_name">PCM signed 16-bit little-endian</property>
  <property name="meta.media.0.codec.bit_rate">1536000</property>
  <property name="seekable">1</property>
  <property name="audio_index">0</property>
  <property name="video_index">-1</property>
  <property name="mute_on_pause">1</property>
  <property name="mlt_service">avformat</property>
  <property name="kdenlive:clipname"/>
  <property name="kdenlive:folderid">-1</property>
  <property name="kdenlive:id">2</property>
  <property name="kdenlive:file_size">55530936</property>
  <property name="kdenlive:file_hash">8833cd317e672c8c4d13df991bdb0b19</property>
  <property name="kdenlive:audio_max0">208</property>
 </producer>
 <producer id="producer1" in="00:00:00.000" out="00:00:36.840">
  <property name="length">922</property>
  <property name="eof">pause</property>
  <property name="resource">/home/duangsuse/Documents/咱动苏/参动之画/ls/out.ogv</property>
  <property name="meta.media.nb_streams">3</property>
  <property name="meta.media.1.stream.type">video</property>
  <property name="meta.media.1.stream.frame_rate">15</property>
  <property name="meta.media.1.stream.sample_aspect_ratio">1</property>
  <property name="meta.media.1.codec.width">1354</property>
  <property name="meta.media.1.codec.height">768</property>
  <property name="meta.media.1.codec.rotate">0</property>
  <property name="meta.media.1.codec.frame_rate">15</property>
  <property name="meta.media.1.codec.pix_fmt">yuv420p</property>
  <property name="meta.media.1.codec.sample_aspect_ratio">1</property>
  <property name="meta.media.1.codec.colorspace">709</property>
  <property name="meta.media.1.codec.name">theora</property>
  <property name="meta.media.1.codec.long_name">Theora</property>
  <property name="meta.media.1.codec.bit_rate">0</property>
  <property name="meta.attr.1.stream.recordMyDesktop.markup">0.4.0</property>
  <property name="meta.media.2.stream.type">audio</property>
  <property name="meta.media.2.codec.sample_fmt">fltp</property>
  <property name="meta.media.2.codec.sample_rate">22050</property>
  <property name="meta.media.2.codec.channels">1</property>
  <property name="meta.media.2.codec.name">vorbis</property>
  <property name="meta.media.2.codec.long_name">Vorbis</property>
  <property name="meta.media.2.codec.bit_rate">89991</property>
  <property name="seekable">1</property>
  <property name="meta.media.sample_aspect_num">1</property>
  <property name="meta.media.sample_aspect_den">1</property>
  <property name="aspect_ratio">1</property>
  <property name="audio_index">2</property>
  <property name="video_index">1</property>
  <property name="mute_on_pause">0</property>
  <property name="mlt_service">avformat-novalidate</property>
  <property name="kdenlive:clipname"/>
  <property name="kdenlive:folderid">-1</property>
  <property name="meta.media.frame_rate_num">15</property>
  <property name="meta.media.frame_rate_den">1</property>
  <property name="meta.media.colorspace">709</property>
  <property name="meta.media.color_trc">2</property>
  <property name="meta.media.has_b_frames">0</property>
  <property name="meta.media.width">1354</property>
  <property name="meta.media.height">768</property>
  <property name="meta.media.color_range">mpeg</property>
  <property name="kdenlive:id">3</property>
  <property name="kdenlive:file_size">6157591</property>
  <property name="kdenlive:file_hash">03dd6eab422887b576f139a0f7d14110</property>
  <property name="meta.media.top_field_first">0</property>
  <property name="meta.media.progressive">1</property>
  <property name="kdenlive:audio_max2">256</property>
 </producer>
 <producer id="producer2" in="00:00:00.000" out="00:00:15.880">
  <property name="length">398</property>
  <property name="eof">pause</property>
  <property name="resource">/home/duangsuse/Documents/咱动苏/参动之画/ls/2021-09-07 01-20-03.mkv</property>
  <property name="meta.media.nb_streams">2</property>
  <property name="meta.media.0.stream.type">video</property>
  <property name="meta.media.0.stream.frame_rate">30</property>
  <property name="meta.media.0.stream.sample_aspect_ratio">0</property>
  <property name="meta.media.0.codec.width">1364</property>
  <property name="meta.media.0.codec.height">766</property>
  <property name="meta.media.0.codec.rotate">0</property>
  <property name="meta.media.0.codec.frame_rate">30</property>
  <property name="meta.media.0.codec.pix_fmt">yuv420p</property>
  <property name="meta.media.0.codec.sample_aspect_ratio">1</property>
  <property name="meta.media.0.codec.colorspace">709</property>
  <property name="meta.media.0.codec.color_trc">1</property>
  <property name="meta.media.0.codec.name">h264</property>
  <property name="meta.media.0.codec.long_name">H.264 / AVC / MPEG-4 AVC / MPEG-4 part 10</property>
  <property name="meta.media.0.codec.bit_rate">0</property>
  <property name="meta.attr.0.stream.DURATION.markup">00:00:15.933000000</property>
  <property name="meta.media.1.stream.type">audio</property>
  <property name="meta.media.1.codec.sample_fmt">fltp</property>
  <property name="meta.media.1.codec.sample_rate">48000</property>
  <property name="meta.media.1.codec.channels">2</property>
  <property name="meta.media.1.codec.name">aac</property>
  <property name="meta.media.1.codec.long_name">AAC (Advanced Audio Coding)</property>
  <property name="meta.media.1.codec.bit_rate">0</property>
  <property name="meta.attr.1.stream.title.markup">simple_aac_recording</property>
  <property name="meta.attr.1.stream.DURATION.markup">00:00:15.765000000</property>
  <property name="meta.attr.ENCODER.markup">Lavf58.76.100</property>
  <property name="seekable">1</property>
  <property name="meta.media.sample_aspect_num">1</property>
  <property name="meta.media.sample_aspect_den">1</property>
  <property name="aspect_ratio">1</property>
  <property name="audio_index">1</property>
  <property name="video_index">0</property>
  <property name="mute_on_pause">0</property>
  <property name="mlt_service">avformat-novalidate</property>
  <property name="kdenlive:clipname"/>
  <property name="kdenlive:folderid">-1</property>
  <property name="meta.media.frame_rate_num">30</property>
  <property name="meta.media.frame_rate_den">1</property>
  <property name="meta.media.colorspace">709</property>
  <property name="meta.media.color_trc">1</property>
  <property name="meta.media.has_b_frames">2</property>
  <property name="meta.media.width">1364</property>
  <property name="meta.media.height">766</property>
  <property name="meta.media.color_range">mpeg</property>
  <property name="kdenlive:file_size">774952</property>
  <property name="kdenlive:id">4</property>
  <property name="kdenlive:file_hash">e2c1e8c5e1e5ee96e5fe37b198c0b454</property>
  <property name="meta.media.top_field_first">0</property>
  <property name="meta.media.progressive">1</property>
  <property name="kdenlive:audio_max1">1</property>
 </producer>
 <producer id="producer3" in="00:00:00.000" out="00:00:12.920">
  <property name="length">324</property>
  <property name="eof">pause</property>
  <property name="resource"/>
  <property name="progressive">1</property>
  <property name="aspect_ratio">1</property>
  <property name="seekable">1</property>
  <property name="mlt_service">kdenlivetitle</property>
  <property name="kdenlive:duration">125</property>
  <property name="kdenlive:clipname">字幕剪辑</property>
  <property name="xmldata">&lt;kdenlivetitle duration="125" LC_NUMERIC="C" width="1920" height="1080" out="124">
 &lt;item type="QGraphicsTextItem" z-index="0">
  &lt;position x="131" y="275">
   &lt;transform>1,0,0,0,1,0,0,0,1&lt;/transform>
  &lt;/position>
  &lt;content line-spacing="0" shadow="0;#64000000;3;3;3" font-underline="0" box-height="635" font-outline-color="255,255,255,255" font="文泉驿等宽微米黑" letter-spacing="0" font-pixel-size="108" font-italic="0" typewriter="0;2;1;0;0" alignment="1" font-weight="50" font-outline="0" box-width="1533.58" font-color="255,255,255,255">n 前缀是个数、
w,h是宽高、x,y 是横纵位置、
k 是比率、l 是长度
d 是偏差量
&lt;/content>
 &lt;/item>
 &lt;startviewport rect="0,0,1920,1080"/>
 &lt;endviewport rect="0,0,1920,1080"/>
 &lt;background color="0,0,0,0"/>
&lt;/kdenlivetitle>
</property>
  <property name="kdenlive:file_hash">b077bb1762caae5008af6fb9695cec65</property>
  <property name="kdenlive:folderid">-1</property>
  <property name="kdenlive:id">5</property>
  <property name="force_reload">0</property>
  <property name="meta.media.width">1920</property>
  <property name="meta.media.height">1080</property>
 </producer>
 <producer id="producer4" in="00:00:00.000" out="00:00:12.920">
  <property name="length">324</property>
  <property name="eof">pause</property>
  <property name="resource"/>
  <property name="progressive">1</property>
  <property name="aspect_ratio">1</property>
  <property name="seekable">1</property>
  <property name="mlt_service">kdenlivetitle</property>
  <property name="kdenlive:duration">125</property>
  <property name="kdenlive:clipname">1天=0.3秒 365天...</property>
  <property name="xmldata">&lt;kdenlivetitle duration="125" LC_NUMERIC="C" width="1920" height="1080" out="124">
 &lt;item type="QGraphicsTextItem" z-index="0">
  &lt;position x="253" y="275">
   &lt;transform>1,0,0,0,1,0,0,0,1&lt;/transform>
  &lt;/position>
  &lt;content line-spacing="0" shadow="0;#64000000;3;3;3" font-underline="0" box-height="508" font="文泉驿等宽微米黑" letter-spacing="0" font-pixel-size="108" font-italic="0" typewriter="0;2;1;0;0" alignment="1" font-weight="50" box-width="1404" font-color="255,255,255,255">1天=0.3秒
365天约1分钟

以这种频率设置下一帧的数据&lt;/content>
 &lt;/item>
 &lt;startviewport rect="0,0,1920,1080"/>
 &lt;endviewport rect="0,0,1920,1080"/>
 &lt;background color="0,0,0,0"/>
&lt;/kdenlivetitle>
</property>
  <property name="kdenlive:folderid">-1</property>
  <property name="kdenlive:id">6</property>
  <property name="force_reload">0</property>
  <property name="kdenlive:file_hash">3d98a18a6e2252d0f6c0e99bfc6fcdf7</property>
  <property name="meta.media.width">1920</property>
  <property name="meta.media.height">1080</property>
 </producer>
 <producer id="producer5" in="00:00:00.000" out="00:00:27.920">
  <property name="length">699</property>
  <property name="eof">pause</property>
  <property name="resource">/home/duangsuse/Documents/咱动苏/参动之画/ls/df1.jpg</property>
  <property name="ttl">25</property>
  <property name="aspect_ratio">1</property>
  <property name="progressive">1</property>
  <property name="seekable">1</property>
  <property name="meta.media.width">1269</property>
  <property name="meta.media.height">631</property>
  <property name="mlt_service">qimage</property>
  <property name="kdenlive:clipname"/>
  <property name="kdenlive:duration">00:00:05.000</property>
  <property name="kdenlive:file_size">112774</property>
  <property name="kdenlive:folderid">-1</property>
  <property name="kdenlive:id">8</property>
  <property name="kdenlive:file_hash">044352fbb7988e9dcf69332e85813c24</property>
 </producer>
 <producer id="producer6" in="00:00:00.000" out="00:00:29.040">
  <property name="length">727</property>
  <property name="eof">pause</property>
  <property name="resource">/home/duangsuse/Documents/咱动苏/参动之画/ls/df.png</property>
  <property name="ttl">25</property>
  <property name="aspect_ratio">1</property>
  <property name="progressive">1</property>
  <property name="seekable">1</property>
  <property name="meta.media.width">1259</property>
  <property name="meta.media.height">599</property>
  <property name="mlt_service">qimage</property>
  <property name="kdenlive:clipname"/>
  <property name="kdenlive:duration">00:00:05.000</property>
  <property name="kdenlive:folderid">-1</property>
  <property name="kdenlive:id">9</property>
  <property name="kdenlive:file_size">224428</property>
  <property name="kdenlive:file_hash">927c97f8ee54e090ec34f5310b100775</property>
 </producer>
 <producer id="producer7" in="00:00:00.000" out="00:00:10.880">
  <property name="length">273</property>
  <property name="eof">pause</property>
  <property name="resource">/home/duangsuse/Documents/咱动苏/参动之画/ls/out-2.ogv</property>
  <property name="meta.media.nb_streams">3</property>
  <property name="meta.media.1.stream.type">video</property>
  <property name="meta.media.1.stream.frame_rate">15</property>
  <property name="meta.media.1.stream.sample_aspect_ratio">1</property>
  <property name="meta.media.1.codec.width">1354</property>
  <property name="meta.media.1.codec.height">768</property>
  <property name="meta.media.1.codec.rotate">0</property>
  <property name="meta.media.1.codec.frame_rate">15</property>
  <property name="meta.media.1.codec.pix_fmt">yuv420p</property>
  <property name="meta.media.1.codec.sample_aspect_ratio">1</property>
  <property name="meta.media.1.codec.colorspace">709</property>
  <property name="meta.media.1.codec.name">theora</property>
  <property name="meta.media.1.codec.long_name">Theora</property>
  <property name="meta.media.1.codec.bit_rate">0</property>
  <property name="meta.attr.1.stream.recordMyDesktop.markup">0.4.0</property>
  <property name="meta.media.2.stream.type">audio</property>
  <property name="meta.media.2.codec.sample_fmt">fltp</property>
  <property name="meta.media.2.codec.sample_rate">22050</property>
  <property name="meta.media.2.codec.channels">1</property>
  <property name="meta.media.2.codec.name">vorbis</property>
  <property name="meta.media.2.codec.long_name">Vorbis</property>
  <property name="meta.media.2.codec.bit_rate">89991</property>
  <property name="seekable">1</property>
  <property name="meta.media.sample_aspect_num">1</property>
  <property name="meta.media.sample_aspect_den">1</property>
  <property name="aspect_ratio">1</property>
  <property name="audio_index">2</property>
  <property name="video_index">1</property>
  <property name="mute_on_pause">0</property>
  <property name="mlt_service">avformat-novalidate</property>
  <property name="kdenlive:clipname"/>
  <property name="kdenlive:folderid">-1</property>
  <property name="meta.media.frame_rate_num">15</property>
  <property name="meta.media.frame_rate_den">1</property>
  <property name="meta.media.colorspace">709</property>
  <property name="meta.media.color_trc">2</property>
  <property name="meta.media.has_b_frames">0</property>
  <property name="meta.media.width">1354</property>
  <property name="meta.media.height">768</property>
  <property name="meta.media.color_range">mpeg</property>
  <property name="kdenlive:file_size">26612356</property>
  <property name="kdenlive:id">10</property>
  <property name="kdenlive:file_hash">31c77c33370b9d996ee54067f04b0f88</property>
  <property name="meta.media.top_field_first">0</property>
  <property name="meta.media.progressive">1</property>
  <property name="kdenlive:audio_max2">256</property>
 </producer>
 <producer id="producer8" in="00:00:00.000" out="00:00:20.400">
  <property name="length">511</property>
  <property name="eof">pause</property>
  <property name="resource"/>
  <property name="progressive">1</property>
  <property name="aspect_ratio">1</property>
  <property name="seekable">1</property>
  <property name="mlt_service">kdenlivetitle</property>
  <property name="kdenlive:duration">125</property>
  <property name="kdenlive:clipname">for(let i=0,...</property>
  <property name="xmldata">&lt;kdenlivetitle duration="125" LC_NUMERIC="C" width="1920" height="1080" out="124">
 &lt;item type="QGraphicsTextItem" z-index="0">
  &lt;position x="-11" y="151">
   &lt;transform>1,0,0,0,1,0,0,0,1&lt;/transform>
  &lt;/position>
  &lt;content line-spacing="0" shadow="0;#64000000;3;3;3" font-underline="0" box-height="508" font-outline-color="255,255,255,255" font="文泉驿等宽微米黑" letter-spacing="0" font-pixel-size="108" font-italic="0" typewriter="0;2;1;0;0" alignment="1" font-weight="50" font-outline="0" box-width="1943.91" font-color="255,255,255,255">for(let i=0,ww=dMark*k,N=ww/w,
 x=0;i&amp;lt;N;i++,x+=ww)

     text(x,y, i*dMark)&lt;/content>
 &lt;/item>
 &lt;startviewport rect="0,0,1920,1080"/>
 &lt;endviewport rect="0,0,1920,1080"/>
 &lt;background color="0,0,0,0"/>
&lt;/kdenlivetitle>
</property>
  <property name="kdenlive:folderid">-1</property>
  <property name="kdenlive:file_hash">1c3878f211f9ee54dbad2372823ef6ff</property>
  <property name="kdenlive:id">11</property>
  <property name="force_reload">0</property>
  <property name="meta.media.width">1920</property>
  <property name="meta.media.height">1080</property>
 </producer>
 <producer id="producer9" in="00:00:00.000" out="00:00:16.800">
  <property name="length">421</property>
  <property name="eof">pause</property>
  <property name="resource">/home/duangsuse/Documents/咱动苏/参动之画/ls/截图_2021-09-07_00-15-08.jpg</property>
  <property name="ttl">25</property>
  <property name="aspect_ratio">1</property>
  <property name="progressive">1</property>
  <property name="seekable">1</property>
  <property name="meta.media.width">941</property>
  <property name="meta.media.height">395</property>
  <property name="mlt_service">qimage</property>
  <property name="kdenlive:clipname"/>
  <property name="kdenlive:duration">00:00:05.000</property>
  <property name="kdenlive:file_size">50086</property>
  <property name="kdenlive:folderid">-1</property>
  <property name="kdenlive:id">12</property>
  <property name="kdenlive:file_hash">e45f634a24c6724fb91d64093c31e4db</property>
 </producer>
 <producer id="producer10" in="00:00:00.000" out="00:00:57.760">
  <property name="length">1445</property>
  <property name="eof">pause</property>
  <property name="resource">/home/duangsuse/Documents/咱动苏/ls/sand.mp3</property>
  <property name="meta.media.nb_streams">1</property>
  <property name="meta.media.0.stream.type">audio</property>
  <property name="meta.media.0.codec.sample_fmt">fltp</property>
  <property name="meta.media.0.codec.sample_rate">44100</property>
  <property name="meta.media.0.codec.channels">1</property>
  <property name="meta.media.0.codec.name">mp3float</property>
  <property name="meta.media.0.codec.long_name">MP3 (MPEG audio layer 3)</property>
  <property name="meta.media.0.codec.bit_rate">67418</property>
  <property name="meta.attr.0.stream.encoder.markup">LAME3.98r</property>
  <property name="seekable">1</property>
  <property name="audio_index">0</property>
  <property name="video_index">-1</property>
  <property name="mute_on_pause">1</property>
  <property name="mlt_service">avformat</property>
  <property name="kdenlive:clipname"/>
  <property name="kdenlive:folderid">-1</property>
  <property name="kdenlive:id">13</property>
  <property name="kdenlive:file_size">487173</property>
  <property name="kdenlive:file_hash">1cdf610f4b001e09c4c3564b302256a2</property>
  <property name="kdenlive:audio_max0">184</property>
 </producer>
 <producer id="producer11" in="00:00:00.000" out="00:00:09.040">
  <property name="length">227</property>
  <property name="eof">pause</property>
  <property name="resource"/>
  <property name="progressive">1</property>
  <property name="aspect_ratio">1</property>
  <property name="seekable">1</property>
  <property name="mlt_service">kdenlivetitle</property>
  <property name="kdenlive:duration">125</property>
  <property name="kdenlive:clipname">&lt;svg width=5...</property>
  <property name="xmldata">&lt;kdenlivetitle duration="125" LC_NUMERIC="C" width="1920" height="1080" out="124">
 &lt;item type="QGraphicsTextItem" z-index="0">
  &lt;position x="146" y="1">
   &lt;transform>1,0,0,0,1,0,0,0,1&lt;/transform>
  &lt;/position>
  &lt;content shadow="0;#64000000;3;3;3" font-underline="0" box-height="889" font="文泉驿等宽微米黑" letter-spacing="0" font-pixel-size="108" font-italic="0" typewriter="0;2;1;0;0" alignment="2" font-weight="50" box-width="1468.75" font-color="255,255,255,255">&amp;lt;svg width=50 height=2
viewBox="0 0 50 1">
&amp;lt;line x2=0 y2=1>&amp;lt;/svg>

50,1 的wid,height 不一致
是因为SVG是可随意缩放的
wid不是1是方便调比例&lt;/content>
 &lt;/item>
 &lt;startviewport rect="0,0,1920,1080"/>
 &lt;endviewport rect="0,0,1920,1080"/>
 &lt;background color="0,0,0,0"/>
&lt;/kdenlivetitle>
</property>
  <property name="kdenlive:file_hash">da7c9ac73a2a03814cab3ad966a06a69</property>
  <property name="kdenlive:folderid">-1</property>
  <property name="kdenlive:id">14</property>
  <property name="force_reload">0</property>
  <property name="meta.media.width">1920</property>
  <property name="meta.media.height">1080</property>
 </producer>
 <playlist id="main_bin">
  <property name="kdenlive:docproperties.activeTrack">0</property>
  <property name="kdenlive:docproperties.audioChannels">2</property>
  <property name="kdenlive:docproperties.audioTarget">-1</property>
  <property name="kdenlive:docproperties.disablepreview">0</property>
  <property name="kdenlive:docproperties.documentid">1630970884460</property>
  <property name="kdenlive:docproperties.enableTimelineZone">0</property>
  <property name="kdenlive:docproperties.enableexternalproxy">0</property>
  <property name="kdenlive:docproperties.enableproxy">0</property>
  <property name="kdenlive:docproperties.externalproxyparams">../Sub;;S03.MP4;../Clip;;.MXF</property>
  <property name="kdenlive:docproperties.generateimageproxy">0</property>
  <property name="kdenlive:docproperties.generateproxy">0</property>
  <property name="kdenlive:docproperties.kdenliveversion">21.08.0</property>
  <property name="kdenlive:docproperties.position">3228</property>
  <property name="kdenlive:docproperties.previewextension"/>
  <property name="kdenlive:docproperties.previewparameters"/>
  <property name="kdenlive:docproperties.profile">atsc_1080p_25</property>
  <property name="kdenlive:docproperties.proxyextension"/>
  <property name="kdenlive:docproperties.proxyimageminsize">2000</property>
  <property name="kdenlive:docproperties.proxyimagesize">800</property>
  <property name="kdenlive:docproperties.proxyminsize">1000</property>
  <property name="kdenlive:docproperties.proxyparams"/>
  <property name="kdenlive:docproperties.proxyresize">640</property>
  <property name="kdenlive:docproperties.scrollPos">4229</property>
  <property name="kdenlive:docproperties.seekOffset">30000</property>
  <property name="kdenlive:docproperties.version">1.01</property>
  <property name="kdenlive:docproperties.verticalzoom">1</property>
  <property name="kdenlive:docproperties.videoTarget">3</property>
  <property name="kdenlive:docproperties.zonein">0</property>
  <property name="kdenlive:docproperties.zoneout">75</property>
  <property name="kdenlive:docproperties.zoom">5</property>
  <property name="kdenlive:expandedFolders"/>
  <property name="kdenlive:documentnotes"/>
  <property name="kdenlive:docproperties.groups">[
    {
        "children": [
            {
                "data": "4:2567",
                "leaf": "clip",
                "type": "Leaf"
            },
            {
                "data": "1:2567",
                "leaf": "clip",
                "type": "Leaf"
            }
        ],
        "type": "AVSplit"
    },
    {
        "children": [
            {
                "data": "4:0",
                "leaf": "clip",
                "type": "Leaf"
            },
            {
                "data": "1:0",
                "leaf": "clip",
                "type": "Leaf"
            }
        ],
        "type": "AVSplit"
    },
    {
        "children": [
            {
                "data": "4:4704",
                "leaf": "clip",
                "type": "Leaf"
            },
            {
                "data": "1:4704",
                "leaf": "clip",
                "type": "Leaf"
            }
        ],
        "type": "AVSplit"
    }
]
</property>
  <property name="kdenlive:docproperties.renderaudioquality">192</property>
  <property name="kdenlive:docproperties.rendercategory">Generic (HD for web, mobile devices...)</property>
  <property name="kdenlive:docproperties.renderendguide">-1</property>
  <property name="kdenlive:docproperties.renderexportaudio">0</property>
  <property name="kdenlive:docproperties.renderfield">0</property>
  <property name="kdenlive:docproperties.renderguide">0</property>
  <property name="kdenlive:docproperties.renderplay">0</property>
  <property name="kdenlive:docproperties.renderprofile">MP4-H264/AAC</property>
  <property name="kdenlive:docproperties.renderquality">23</property>
  <property name="kdenlive:docproperties.renderratio">1</property>
  <property name="kdenlive:docproperties.renderrescale">0</property>
  <property name="kdenlive:docproperties.renderrescaleheight">540</property>
  <property name="kdenlive:docproperties.renderrescalewidth">960</property>
  <property name="kdenlive:docproperties.renderscanning">0</property>
  <property name="kdenlive:docproperties.renderspeed">2</property>
  <property name="kdenlive:docproperties.renderstartguide">-1</property>
  <property name="kdenlive:docproperties.rendertcoverlay">0</property>
  <property name="kdenlive:docproperties.rendertctype">0</property>
  <property name="kdenlive:docproperties.rendertwopass">0</property>
  <property name="kdenlive:docproperties.renderurl">/home/duangsuse/Videos/vid.mp4</property>
  <property name="kdenlive:docproperties.renderzone">0</property>
  <property name="xml_retain">1</property>
  <entry producer="producer0" in="00:00:00.000" out="00:04:49.200"/>
  <entry producer="producer1" in="00:00:00.000" out="00:00:36.840"/>
  <entry producer="producer2" in="00:00:00.000" out="00:00:15.880"/>
  <entry producer="producer3" in="00:00:00.000" out="00:00:04.960"/>
  <entry producer="producer4" in="00:00:00.000" out="00:00:12.920"/>
  <entry producer="producer5" in="00:00:00.000" out="00:00:04.960"/>
  <entry producer="producer6" in="00:00:00.000" out="00:00:04.960"/>
  <entry producer="producer7" in="00:00:00.000" out="00:00:10.880"/>
  <entry producer="producer8" in="00:00:00.000" out="00:00:04.960"/>
  <entry producer="producer9" in="00:00:00.000" out="00:00:04.960"/>
  <entry producer="producer10" in="00:00:00.000" out="00:00:57.760"/>
  <entry producer="producer11" in="00:00:00.000" out="00:00:04.960"/>
 </playlist>
 <producer id="black_track" in="00:00:00.000" out="00:24:49.240">
  <property name="length">2147483647</property>
  <property name="eof">continue</property>
  <property name="resource">black</property>
  <property name="aspect_ratio">1</property>
  <property name="mlt_service">color</property>
  <property name="mlt_image_format">rgb24a</property>
  <property name="set.test_audio">0</property>
 </producer>
 <producer id="producer12" in="00:00:00.000" out="00:00:57.760">
  <property name="length">1445</property>
  <property name="eof">pause</property>
  <property name="resource">/home/duangsuse/Documents/咱动苏/ls/sand.mp3</property>
  <property name="meta.media.nb_streams">1</property>
  <property name="meta.media.0.stream.type">audio</property>
  <property name="meta.media.0.codec.sample_fmt">fltp</property>
  <property name="meta.media.0.codec.sample_rate">44100</property>
  <property name="meta.media.0.codec.channels">1</property>
  <property name="meta.media.0.codec.name">mp3float</property>
  <property name="meta.media.0.codec.long_name">MP3 (MPEG audio layer 3)</property>
  <property name="meta.media.0.codec.bit_rate">67418</property>
  <property name="meta.attr.0.stream.encoder.markup">LAME3.98r</property>
  <property name="seekable">1</property>
  <property name="audio_index">0</property>
  <property name="video_index">-1</property>
  <property name="mute_on_pause">0</property>
  <property name="mlt_service">avformat-novalidate</property>
  <property name="kdenlive:clipname"/>
  <property name="kdenlive:folderid">-1</property>
  <property name="kdenlive:id">13</property>
  <property name="kdenlive:file_size">487173</property>
  <property name="kdenlive:file_hash">1cdf610f4b001e09c4c3564b302256a2</property>
  <property name="kdenlive:audio_max0">184</property>
  <property name="xml">was here</property>
  <property name="set.test_audio">0</property>
  <property name="set.test_image">1</property>
 </producer>
 <playlist id="playlist0">
  <blank length="00:01:26.560"/>
  <entry producer="producer12" in="00:00:20.360" out="00:00:57.760">
   <property name="kdenlive:id">13</property>
   <filter id="filter0" in="00:00:20.360" out="00:00:21.560">
    <property name="window">75</property>
    <property name="max_gain">20dB</property>
    <property name="mlt_service">volume</property>
    <property name="kdenlive_id">fadein</property>
    <property name="gain">0</property>
    <property name="end">1</property>
    <property name="kdenlive:collapsed">0</property>
   </filter>
   <filter id="filter1" in="00:00:41.560" out="00:00:57.760">
    <property name="window">75</property>
    <property name="max_gain">20dB</property>
    <property name="mlt_service">volume</property>
    <property name="kdenlive_id">fadeout</property>
    <property name="gain">1</property>
    <property name="end">0</property>
   </filter>
  </entry>
 </playlist>
 <playlist id="playlist1"/>
 <tractor id="tractor0" in="00:00:00.000" out="00:02:03.960">
  <property name="kdenlive:track_name">bgm</property>
  <property name="kdenlive:audio_track">1</property>
  <property name="kdenlive:trackheight">69</property>
  <property name="kdenlive:timeline_active">1</property>
  <track hide="video" producer="playlist0"/>
  <track hide="video" producer="playlist1"/>
  <filter id="filter2">
   <property name="window">75</property>
   <property name="max_gain">20dB</property>
   <property name="level">-5.29819</property>
   <property name="mlt_service">volume</property>
   <property name="internal_added">237</property>
   <property name="disable">0</property>
  </filter>
  <filter id="filter3">
   <property name="channel">-1</property>
   <property name="mlt_service">panner</property>
   <property name="internal_added">237</property>
   <property name="start">0.5</property>
   <property name="disable">1</property>
  </filter>
  <filter id="filter4">
   <property name="iec_scale">0</property>
   <property name="mlt_service">audiolevel</property>
   <property name="disable">1</property>
  </filter>
 </tractor>
 <producer id="producer13" in="00:00:00.000" out="00:00:15.880">
  <property name="length">398</property>
  <property name="eof">pause</property>
  <property name="resource">/home/duangsuse/Documents/咱动苏/参动之画/ls/2021-09-07 01-20-03.mkv</property>
  <property name="audio_index">1</property>
  <property name="video_index">0</property>
  <property name="mute_on_pause">0</property>
  <property name="mlt_service">avformat-novalidate</property>
  <property name="seekable">1</property>
  <property name="aspect_ratio">1</property>
  <property name="kdenlive:clipname"/>
  <property name="kdenlive:folderid">-1</property>
  <property name="kdenlive:file_size">774952</property>
  <property name="kdenlive:id">4</property>
  <property name="kdenlive:file_hash">e2c1e8c5e1e5ee96e5fe37b198c0b454</property>
  <property name="kdenlive:audio_max1">1</property>
  <property name="xml">was here</property>
  <property name="meta.media.nb_streams">2</property>
  <property name="meta.media.0.stream.type">video</property>
  <property name="meta.media.0.stream.frame_rate">30</property>
  <property name="meta.media.0.stream.sample_aspect_ratio">0</property>
  <property name="meta.media.0.codec.width">1364</property>
  <property name="meta.media.0.codec.height">766</property>
  <property name="meta.media.0.codec.rotate">0</property>
  <property name="meta.media.0.codec.frame_rate">30</property>
  <property name="meta.media.0.codec.pix_fmt">yuv420p</property>
  <property name="meta.media.0.codec.sample_aspect_ratio">1</property>
  <property name="meta.media.0.codec.colorspace">709</property>
  <property name="meta.media.0.codec.color_trc">1</property>
  <property name="meta.media.0.codec.name">h264</property>
  <property name="meta.media.0.codec.long_name">H.264 / AVC / MPEG-4 AVC / MPEG-4 part 10</property>
  <property name="meta.media.0.codec.bit_rate">0</property>
  <property name="meta.attr.0.stream.DURATION.markup">00:00:15.933000000</property>
  <property name="meta.media.1.stream.type">audio</property>
  <property name="meta.media.1.codec.sample_fmt">fltp</property>
  <property name="meta.media.1.codec.sample_rate">48000</property>
  <property name="meta.media.1.codec.channels">2</property>
  <property name="meta.media.1.codec.name">aac</property>
  <property name="meta.media.1.codec.long_name">AAC (Advanced Audio Coding)</property>
  <property name="meta.media.1.codec.bit_rate">0</property>
  <property name="meta.attr.1.stream.title.markup">simple_aac_recording</property>
  <property name="meta.attr.1.stream.DURATION.markup">00:00:15.765000000</property>
  <property name="meta.attr.ENCODER.markup">Lavf58.76.100</property>
  <property name="meta.media.sample_aspect_num">1</property>
  <property name="meta.media.sample_aspect_den">1</property>
  <property name="meta.media.frame_rate_num">30</property>
  <property name="meta.media.frame_rate_den">1</property>
  <property name="meta.media.colorspace">709</property>
  <property name="meta.media.color_trc">1</property>
  <property name="meta.media.has_b_frames">2</property>
  <property name="meta.media.width">1364</property>
  <property name="meta.media.height">766</property>
  <property name="meta.media.color_range">mpeg</property>
  <property name="meta.media.top_field_first">0</property>
  <property name="meta.media.progressive">1</property>
  <property name="set.test_audio">0</property>
  <property name="set.test_image">1</property>
 </producer>
 <producer id="producer14" in="00:00:00.000" out="00:00:22.600">
  <property name="length">566</property>
  <property name="eof">pause</property>
  <property name="resource">1.628975:/home/duangsuse/Documents/咱动苏/参动之画/ls/out.ogv</property>
  <property name="aspect_ratio">1</property>
  <property name="meta.media.nb_streams">3</property>
  <property name="meta.media.1.stream.type">video</property>
  <property name="meta.media.1.stream.frame_rate">15</property>
  <property name="meta.media.1.stream.sample_aspect_ratio">1</property>
  <property name="meta.media.1.codec.width">1354</property>
  <property name="meta.media.1.codec.height">768</property>
  <property name="meta.media.1.codec.rotate">0</property>
  <property name="meta.media.1.codec.frame_rate">15</property>
  <property name="meta.media.1.codec.pix_fmt">yuv420p</property>
  <property name="meta.media.1.codec.sample_aspect_ratio">1</property>
  <property name="meta.media.1.codec.colorspace">709</property>
  <property name="meta.media.1.codec.name">theora</property>
  <property name="meta.media.1.codec.long_name">Theora</property>
  <property name="meta.media.1.codec.bit_rate">0</property>
  <property name="meta.attr.1.stream.recordMyDesktop.markup">0.4.0</property>
  <property name="meta.media.2.stream.type">audio</property>
  <property name="meta.media.2.codec.sample_fmt">fltp</property>
  <property name="meta.media.2.codec.sample_rate">22050</property>
  <property name="meta.media.2.codec.channels">1</property>
  <property name="meta.media.2.codec.name">vorbis</property>
  <property name="meta.media.2.codec.long_name">Vorbis</property>
  <property name="meta.media.2.codec.bit_rate">89991</property>
  <property name="seekable">1</property>
  <property name="meta.media.sample_aspect_num">1</property>
  <property name="meta.media.sample_aspect_den">1</property>
  <property name="audio_index">2</property>
  <property name="video_index">1</property>
  <property name="mute_on_pause">1</property>
  <property name="warp_speed">1.62898</property>
  <property name="warp_resource">/home/duangsuse/Documents/咱动苏/参动之画/ls/out.ogv</property>
  <property name="mlt_service">timewarp</property>
  <property name="set.test_audio">0</property>
  <property name="set.test_image">1</property>
  <property name="kdenlive:id">3</property>
  <property name="warp_pitch">0</property>
  <property name="meta.media.frame_rate_num">15</property>
  <property name="meta.media.frame_rate_den">1</property>
  <property name="meta.media.colorspace">709</property>
  <property name="meta.media.color_trc">2</property>
  <property name="meta.media.has_b_frames">0</property>
  <property name="meta.media.width">1354</property>
  <property name="meta.media.height">768</property>
  <property name="meta.media.color_range">mpeg</property>
 </producer>
 <producer id="producer15" in="00:00:00.000" out="00:00:10.880">
  <property name="length">273</property>
  <property name="eof">pause</property>
  <property name="resource">/home/duangsuse/Documents/咱动苏/参动之画/ls/out-2.ogv</property>
  <property name="audio_index">2</property>
  <property name="video_index">1</property>
  <property name="mute_on_pause">0</property>
  <property name="mlt_service">avformat-novalidate</property>
  <property name="seekable">1</property>
  <property name="aspect_ratio">1</property>
  <property name="kdenlive:clipname"/>
  <property name="kdenlive:folderid">-1</property>
  <property name="kdenlive:file_size">26612356</property>
  <property name="kdenlive:id">10</property>
  <property name="kdenlive:file_hash">31c77c33370b9d996ee54067f04b0f88</property>
  <property name="kdenlive:audio_max2">256</property>
  <property name="xml">was here</property>
  <property name="meta.media.nb_streams">3</property>
  <property name="meta.media.1.stream.type">video</property>
  <property name="meta.media.1.stream.frame_rate">15</property>
  <property name="meta.media.1.stream.sample_aspect_ratio">1</property>
  <property name="meta.media.1.codec.width">1354</property>
  <property name="meta.media.1.codec.height">768</property>
  <property name="meta.media.1.codec.rotate">0</property>
  <property name="meta.media.1.codec.frame_rate">15</property>
  <property name="meta.media.1.codec.pix_fmt">yuv420p</property>
  <property name="meta.media.1.codec.sample_aspect_ratio">1</property>
  <property name="meta.media.1.codec.colorspace">709</property>
  <property name="meta.media.1.codec.name">theora</property>
  <property name="meta.media.1.codec.long_name">Theora</property>
  <property name="meta.media.1.codec.bit_rate">0</property>
  <property name="meta.attr.1.stream.recordMyDesktop.markup">0.4.0</property>
  <property name="meta.media.2.stream.type">audio</property>
  <property name="meta.media.2.codec.sample_fmt">fltp</property>
  <property name="meta.media.2.codec.sample_rate">22050</property>
  <property name="meta.media.2.codec.channels">1</property>
  <property name="meta.media.2.codec.name">vorbis</property>
  <property name="meta.media.2.codec.long_name">Vorbis</property>
  <property name="meta.media.2.codec.bit_rate">89991</property>
  <property name="meta.media.sample_aspect_num">1</property>
  <property name="meta.media.sample_aspect_den">1</property>
  <property name="meta.media.frame_rate_num">15</property>
  <property name="meta.media.frame_rate_den">1</property>
  <property name="meta.media.colorspace">709</property>
  <property name="meta.media.color_trc">2</property>
  <property name="meta.media.has_b_frames">0</property>
  <property name="meta.media.width">1354</property>
  <property name="meta.media.height">768</property>
  <property name="meta.media.color_range">mpeg</property>
  <property name="meta.media.top_field_first">0</property>
  <property name="meta.media.progressive">1</property>
  <property name="set.test_audio">0</property>
  <property name="set.test_image">1</property>
 </producer>
 <playlist id="playlist2">
  <property name="kdenlive:audio_track">1</property>
  <entry producer="producer13" in="00:00:02.040" out="00:00:13.920">
   <property name="kdenlive:id">4</property>
  </entry>
  <blank length="00:01:30.760"/>
  <entry producer="producer14" in="00:00:00.000" out="00:00:22.600">
   <property name="kdenlive:id">3</property>
  </entry>
  <blank length="00:01:02.840"/>
  <entry producer="producer15" in="00:00:00.000" out="00:00:10.880">
   <property name="kdenlive:id">10</property>
  </entry>
 </playlist>
 <playlist id="playlist3">
  <property name="kdenlive:audio_track">1</property>
 </playlist>
 <tractor id="tractor1" in="00:00:00.000" out="00:03:19.040">
  <property name="kdenlive:audio_track">1</property>
  <property name="kdenlive:trackheight">69</property>
  <property name="kdenlive:timeline_active">1</property>
  <property name="kdenlive:collapsed">0</property>
  <property name="kdenlive:thumbs_format"/>
  <property name="kdenlive:audio_rec"/>
  <track hide="both" producer="playlist2"/>
  <track hide="both" producer="playlist3"/>
  <filter id="filter5">
   <property name="window">75</property>
   <property name="max_gain">20dB</property>
   <property name="mlt_service">volume</property>
   <property name="internal_added">237</property>
   <property name="disable">1</property>
  </filter>
  <filter id="filter6">
   <property name="channel">-1</property>
   <property name="mlt_service">panner</property>
   <property name="internal_added">237</property>
   <property name="start">0.5</property>
   <property name="disable">1</property>
  </filter>
  <filter id="filter7">
   <property name="iec_scale">0</property>
   <property name="mlt_service">audiolevel</property>
   <property name="disable">1</property>
  </filter>
 </tractor>
 <producer id="producer16" in="00:00:00.000" out="00:04:49.200">
  <property name="length">7231</property>
  <property name="eof">pause</property>
  <property name="resource">/home/duangsuse/Documents/咱动苏/参动之画/ls/a.wav</property>
  <property name="meta.media.nb_streams">1</property>
  <property name="meta.media.0.stream.type">audio</property>
  <property name="meta.media.0.codec.sample_fmt">s16</property>
  <property name="meta.media.0.codec.sample_rate">48000</property>
  <property name="meta.media.0.codec.channels">2</property>
  <property name="meta.media.0.codec.name">pcm_s16le</property>
  <property name="meta.media.0.codec.long_name">PCM signed 16-bit little-endian</property>
  <property name="meta.media.0.codec.bit_rate">1536000</property>
  <property name="seekable">1</property>
  <property name="audio_index">0</property>
  <property name="video_index">-1</property>
  <property name="mute_on_pause">0</property>
  <property name="mlt_service">avformat-novalidate</property>
  <property name="kdenlive:clipname"/>
  <property name="kdenlive:folderid">-1</property>
  <property name="kdenlive:id">2</property>
  <property name="kdenlive:file_size">55530936</property>
  <property name="kdenlive:file_hash">8833cd317e672c8c4d13df991bdb0b19</property>
  <property name="xml">was here</property>
  <property name="set.test_audio">0</property>
  <property name="set.test_image">1</property>
 </producer>
 <playlist id="playlist4">
  <property name="kdenlive:audio_track">1</property>
  <entry producer="producer16" in="00:00:00.000" out="00:04:49.200">
   <property name="kdenlive:id">2</property>
  </entry>
 </playlist>
 <playlist id="playlist5">
  <property name="kdenlive:audio_track">1</property>
 </playlist>
 <tractor id="tractor2" in="00:00:00.000" out="00:04:49.200">
  <property name="kdenlive:audio_track">1</property>
  <property name="kdenlive:trackheight">69</property>
  <property name="kdenlive:timeline_active">1</property>
  <property name="kdenlive:collapsed">0</property>
  <property name="kdenlive:thumbs_format"/>
  <property name="kdenlive:audio_rec"/>
  <track hide="video" producer="playlist4"/>
  <track hide="video" producer="playlist5"/>
  <filter id="filter8">
   <property name="window">75</property>
   <property name="max_gain">20dB</property>
   <property name="mlt_service">volume</property>
   <property name="internal_added">237</property>
   <property name="disable">1</property>
  </filter>
  <filter id="filter9">
   <property name="channel">-1</property>
   <property name="mlt_service">panner</property>
   <property name="internal_added">237</property>
   <property name="start">0.5</property>
   <property name="disable">1</property>
  </filter>
  <filter id="filter10">
   <property name="iec_scale">0</property>
   <property name="mlt_service">audiolevel</property>
   <property name="disable">1</property>
  </filter>
 </tractor>
 <playlist id="playlist6">
  <blank length="00:03:20.400"/>
  <entry producer="producer11" in="00:00:00.000" out="00:00:09.040">
   <property name="kdenlive:id">14</property>
  </entry>
 </playlist>
 <playlist id="playlist7"/>
 <tractor id="tractor3" in="00:00:00.000" out="00:03:29.440">
  <property name="kdenlive:trackheight">69</property>
  <property name="kdenlive:timeline_active">1</property>
  <property name="kdenlive:collapsed">0</property>
  <property name="kdenlive:thumbs_format"/>
  <property name="kdenlive:audio_rec"/>
  <track hide="audio" producer="playlist6"/>
  <track hide="audio" producer="playlist7"/>
 </tractor>
 <producer id="producer17" in="00:00:00.000" out="00:00:15.880">
  <property name="length">398</property>
  <property name="eof">pause</property>
  <property name="resource">/home/duangsuse/Documents/咱动苏/参动之画/ls/2021-09-07 01-20-03.mkv</property>
  <property name="audio_index">1</property>
  <property name="video_index">0</property>
  <property name="mute_on_pause">0</property>
  <property name="mlt_service">avformat-novalidate</property>
  <property name="seekable">1</property>
  <property name="aspect_ratio">1</property>
  <property name="kdenlive:clipname"/>
  <property name="kdenlive:folderid">-1</property>
  <property name="kdenlive:file_size">774952</property>
  <property name="kdenlive:id">4</property>
  <property name="kdenlive:file_hash">e2c1e8c5e1e5ee96e5fe37b198c0b454</property>
  <property name="kdenlive:audio_max1">1</property>
  <property name="xml">was here</property>
  <property name="meta.media.nb_streams">2</property>
  <property name="meta.media.0.stream.type">video</property>
  <property name="meta.media.0.stream.frame_rate">30</property>
  <property name="meta.media.0.stream.sample_aspect_ratio">0</property>
  <property name="meta.media.0.codec.width">1364</property>
  <property name="meta.media.0.codec.height">766</property>
  <property name="meta.media.0.codec.rotate">0</property>
  <property name="meta.media.0.codec.frame_rate">30</property>
  <property name="meta.media.0.codec.pix_fmt">yuv420p</property>
  <property name="meta.media.0.codec.sample_aspect_ratio">1</property>
  <property name="meta.media.0.codec.colorspace">709</property>
  <property name="meta.media.0.codec.color_trc">1</property>
  <property name="meta.media.0.codec.name">h264</property>
  <property name="meta.media.0.codec.long_name">H.264 / AVC / MPEG-4 AVC / MPEG-4 part 10</property>
  <property name="meta.media.0.codec.bit_rate">0</property>
  <property name="meta.attr.0.stream.DURATION.markup">00:00:15.933000000</property>
  <property name="meta.media.1.stream.type">audio</property>
  <property name="meta.media.1.codec.sample_fmt">fltp</property>
  <property name="meta.media.1.codec.sample_rate">48000</property>
  <property name="meta.media.1.codec.channels">2</property>
  <property name="meta.media.1.codec.name">aac</property>
  <property name="meta.media.1.codec.long_name">AAC (Advanced Audio Coding)</property>
  <property name="meta.media.1.codec.bit_rate">0</property>
  <property name="meta.attr.1.stream.title.markup">simple_aac_recording</property>
  <property name="meta.attr.1.stream.DURATION.markup">00:00:15.765000000</property>
  <property name="meta.attr.ENCODER.markup">Lavf58.76.100</property>
  <property name="meta.media.sample_aspect_num">1</property>
  <property name="meta.media.sample_aspect_den">1</property>
  <property name="meta.media.frame_rate_num">30</property>
  <property name="meta.media.frame_rate_den">1</property>
  <property name="meta.media.colorspace">709</property>
  <property name="meta.media.color_trc">1</property>
  <property name="meta.media.has_b_frames">2</property>
  <property name="meta.media.width">1364</property>
  <property name="meta.media.height">766</property>
  <property name="meta.media.color_range">mpeg</property>
  <property name="meta.media.top_field_first">0</property>
  <property name="meta.media.progressive">1</property>
  <property name="set.test_audio">1</property>
  <property name="set.test_image">0</property>
 </producer>
 <producer id="producer18" in="00:00:00.000" out="00:00:22.600">
  <property name="length">566</property>
  <property name="eof">pause</property>
  <property name="resource">1.628975:/home/duangsuse/Documents/咱动苏/参动之画/ls/out.ogv</property>
  <property name="aspect_ratio">1</property>
  <property name="meta.media.nb_streams">3</property>
  <property name="meta.media.1.stream.type">video</property>
  <property name="meta.media.1.stream.frame_rate">15</property>
  <property name="meta.media.1.stream.sample_aspect_ratio">1</property>
  <property name="meta.media.1.codec.width">1354</property>
  <property name="meta.media.1.codec.height">768</property>
  <property name="meta.media.1.codec.rotate">0</property>
  <property name="meta.media.1.codec.frame_rate">15</property>
  <property name="meta.media.1.codec.pix_fmt">yuv420p</property>
  <property name="meta.media.1.codec.sample_aspect_ratio">1</property>
  <property name="meta.media.1.codec.colorspace">709</property>
  <property name="meta.media.1.codec.name">theora</property>
  <property name="meta.media.1.codec.long_name">Theora</property>
  <property name="meta.media.1.codec.bit_rate">0</property>
  <property name="meta.attr.1.stream.recordMyDesktop.markup">0.4.0</property>
  <property name="meta.media.2.stream.type">audio</property>
  <property name="meta.media.2.codec.sample_fmt">fltp</property>
  <property name="meta.media.2.codec.sample_rate">22050</property>
  <property name="meta.media.2.codec.channels">1</property>
  <property name="meta.media.2.codec.name">vorbis</property>
  <property name="meta.media.2.codec.long_name">Vorbis</property>
  <property name="meta.media.2.codec.bit_rate">89991</property>
  <property name="seekable">1</property>
  <property name="meta.media.sample_aspect_num">1</property>
  <property name="meta.media.sample_aspect_den">1</property>
  <property name="audio_index">2</property>
  <property name="video_index">1</property>
  <property name="mute_on_pause">1</property>
  <property name="warp_speed">1.62898</property>
  <property name="warp_resource">/home/duangsuse/Documents/咱动苏/参动之画/ls/out.ogv</property>
  <property name="mlt_service">timewarp</property>
  <property name="set.test_audio">1</property>
  <property name="set.test_image">0</property>
  <property name="kdenlive:id">3</property>
  <property name="warp_pitch">0</property>
  <property name="meta.media.frame_rate_num">15</property>
  <property name="meta.media.frame_rate_den">1</property>
  <property name="meta.media.colorspace">709</property>
  <property name="meta.media.color_trc">2</property>
  <property name="meta.media.has_b_frames">0</property>
  <property name="meta.media.width">1354</property>
  <property name="meta.media.height">768</property>
  <property name="meta.media.color_range">mpeg</property>
  <property name="meta.media.top_field_first">0</property>
  <property name="meta.media.progressive">1</property>
 </producer>
 <producer id="producer19" in="00:00:00.000" out="00:00:10.880">
  <property name="length">273</property>
  <property name="eof">pause</property>
  <property name="resource">/home/duangsuse/Documents/咱动苏/参动之画/ls/out-2.ogv</property>
  <property name="audio_index">2</property>
  <property name="video_index">1</property>
  <property name="mute_on_pause">0</property>
  <property name="mlt_service">avformat-novalidate</property>
  <property name="seekable">1</property>
  <property name="aspect_ratio">1</property>
  <property name="kdenlive:clipname"/>
  <property name="kdenlive:folderid">-1</property>
  <property name="kdenlive:file_size">26612356</property>
  <property name="kdenlive:id">10</property>
  <property name="kdenlive:file_hash">31c77c33370b9d996ee54067f04b0f88</property>
  <property name="xml">was here</property>
  <property name="meta.media.nb_streams">3</property>
  <property name="meta.media.1.stream.type">video</property>
  <property name="meta.media.1.stream.frame_rate">15</property>
  <property name="meta.media.1.stream.sample_aspect_ratio">1</property>
  <property name="meta.media.1.codec.width">1354</property>
  <property name="meta.media.1.codec.height">768</property>
  <property name="meta.media.1.codec.rotate">0</property>
  <property name="meta.media.1.codec.frame_rate">15</property>
  <property name="meta.media.1.codec.pix_fmt">yuv420p</property>
  <property name="meta.media.1.codec.sample_aspect_ratio">1</property>
  <property name="meta.media.1.codec.colorspace">709</property>
  <property name="meta.media.1.codec.name">theora</property>
  <property name="meta.media.1.codec.long_name">Theora</property>
  <property name="meta.media.1.codec.bit_rate">0</property>
  <property name="meta.attr.1.stream.recordMyDesktop.markup">0.4.0</property>
  <property name="meta.media.2.stream.type">audio</property>
  <property name="meta.media.2.codec.sample_fmt">fltp</property>
  <property name="meta.media.2.codec.sample_rate">22050</property>
  <property name="meta.media.2.codec.channels">1</property>
  <property name="meta.media.2.codec.name">vorbis</property>
  <property name="meta.media.2.codec.long_name">Vorbis</property>
  <property name="meta.media.2.codec.bit_rate">89991</property>
  <property name="meta.media.sample_aspect_num">1</property>
  <property name="meta.media.sample_aspect_den">1</property>
  <property name="meta.media.frame_rate_num">15</property>
  <property name="meta.media.frame_rate_den">1</property>
  <property name="meta.media.colorspace">709</property>
  <property name="meta.media.color_trc">2</property>
  <property name="meta.media.has_b_frames">0</property>
  <property name="meta.media.width">1354</property>
  <property name="meta.media.height">768</property>
  <property name="meta.media.color_range">mpeg</property>
  <property name="meta.media.top_field_first">0</property>
  <property name="meta.media.progressive">1</property>
  <property name="set.test_audio">1</property>
  <property name="set.test_image">0</property>
 </producer>
 <playlist id="playlist8">
  <entry producer="producer17" in="00:00:02.040" out="00:00:13.920">
   <property name="kdenlive:id">4</property>
  </entry>
  <blank length="00:00:05.080"/>
  <entry producer="producer3" in="00:00:00.000" out="00:00:12.920">
   <property name="kdenlive:id">5</property>
  </entry>
  <blank length="00:00:00.240"/>
  <entry producer="producer4" in="00:00:00.000" out="00:00:04.960">
   <property name="kdenlive:id">6</property>
  </entry>
  <blank length="00:00:03.200"/>
  <entry producer="producer6" in="00:00:00.000" out="00:00:27.680">
   <property name="kdenlive:id">9</property>
  </entry>
  <blank length="00:00:03.440"/>
  <entry producer="producer5" in="00:00:00.000" out="00:00:27.920">
   <property name="kdenlive:id">8</property>
  </entry>
  <blank length="00:00:05.160"/>
  <entry producer="producer18" in="00:00:00.000" out="00:00:22.600">
   <property name="kdenlive:id">3</property>
  </entry>
  <blank length="00:00:17.320"/>
  <entry producer="producer5" in="00:00:00.000" out="00:00:26.880">
   <property name="kdenlive:id">8</property>
  </entry>
  <blank length="00:00:18.600"/>
  <entry producer="producer19" in="00:00:00.000" out="00:00:10.880">
   <property name="kdenlive:id">10</property>
  </entry>
  <blank length="00:00:21.480"/>
  <entry producer="producer8" in="00:00:00.000" out="00:00:19.760">
   <property name="kdenlive:id">11</property>
  </entry>
  <blank length="00:00:06.240"/>
  <entry producer="producer9" in="00:00:00.000" out="00:00:16.800">
   <property name="kdenlive:id">12</property>
  </entry>
  <blank length="00:00:11.440"/>
  <entry producer="producer5" in="00:00:00.000" out="00:00:10.760">
   <property name="kdenlive:id">8</property>
  </entry>
 </playlist>
 <playlist id="playlist9"/>
 <tractor id="tractor4" in="00:00:00.000" out="00:04:45.640">
  <property name="kdenlive:trackheight">69</property>
  <property name="kdenlive:timeline_active">1</property>
  <property name="kdenlive:collapsed">0</property>
  <property name="kdenlive:thumbs_format"/>
  <property name="kdenlive:audio_rec"/>
  <track hide="audio" producer="playlist8"/>
  <track hide="audio" producer="playlist9"/>
 </tractor>
 <tractor id="tractor5" in="00:00:00.000" out="00:24:49.240">
  <track producer="black_track"/>
  <track producer="tractor0"/>
  <track producer="tractor1"/>
  <track producer="tractor2"/>
  <track producer="tractor3"/>
  <track producer="tractor4"/>
  <transition id="transition0">
   <property name="a_track">0</property>
   <property name="b_track">1</property>
   <property name="mlt_service">mix</property>
   <property name="kdenlive_id">mix</property>
   <property name="internal_added">237</property>
   <property name="always_active">1</property>
   <property name="accepts_blanks">1</property>
   <property name="sum">1</property>
  </transition>
  <transition id="transition1">
   <property name="a_track">0</property>
   <property name="b_track">2</property>
   <property name="mlt_service">mix</property>
   <property name="kdenlive_id">mix</property>
   <property name="internal_added">237</property>
   <property name="always_active">1</property>
   <property name="accepts_blanks">1</property>
   <property name="sum">1</property>
  </transition>
  <transition id="transition2">
   <property name="a_track">0</property>
   <property name="b_track">3</property>
   <property name="mlt_service">mix</property>
   <property name="kdenlive_id">mix</property>
   <property name="internal_added">237</property>
   <property name="always_active">1</property>
   <property name="accepts_blanks">1</property>
   <property name="sum">1</property>
  </transition>
  <transition id="transition3">
   <property name="a_track">0</property>
   <property name="b_track">4</property>
   <property name="compositing">0</property>
   <property name="distort">0</property>
   <property name="rotate_center">0</property>
   <property name="mlt_service">qtblend</property>
   <property name="kdenlive_id">qtblend</property>
   <property name="internal_added">237</property>
   <property name="always_active">1</property>
  </transition>
  <transition id="transition4">
   <property name="a_track">0</property>
   <property name="b_track">5</property>
   <property name="compositing">0</property>
   <property name="distort">0</property>
   <property name="rotate_center">0</property>
   <property name="mlt_service">qtblend</property>
   <property name="kdenlive_id">qtblend</property>
   <property name="internal_added">237</property>
   <property name="always_active">1</property>
  </transition>
  <filter id="filter11">
   <property name="window">75</property>
   <property name="max_gain">20dB</property>
   <property name="mlt_service">volume</property>
   <property name="internal_added">237</property>
   <property name="disable">1</property>
  </filter>
  <filter id="filter12">
   <property name="channel">-1</property>
   <property name="mlt_service">panner</property>
   <property name="internal_added">237</property>
   <property name="start">0.5</property>
   <property name="disable">1</property>
  </filter>
  <filter id="filter13">
   <property name="iec_scale">0</property>
   <property name="mlt_service">audiolevel</property>
   <property name="disable">1</property>
  </filter>
  <filter id="filter14">
   <property name="mlt_service">avfilter.subtitles</property>
   <property name="internal_added">237</property>
   <property name="av.filename">/tmp/1630970884460.srt</property>
   <property name="disable">1</property>
  </filter>
 </tractor>
</mlt>
