<?xml version='1.0' encoding='utf-8'?>
<mlt LC_NUMERIC="C" producer="main_bin" version="6.26.1" root="/home/duangsuse/Documents/咱动苏/排序1">
 <profile frame_rate_num="25" sample_aspect_num="1" display_aspect_den="9" colorspace="709" progressive="1" description="HD 1080p 25 fps" display_aspect_num="16" frame_rate_den="1" width="1920" height="1080" sample_aspect_den="1"/>
 <producer id="producer0" in="00:00:00.000" out="00:00:23.200">
  <property name="length">581</property>
  <property name="eof">pause</property>
  <property name="resource">lifo.mkv</property>
  <property name="audio_index">1</property>
  <property name="video_index">0</property>
  <property name="mute_on_pause">0</property>
  <property name="mlt_service">avformat-novalidate</property>
  <property name="meta.media.nb_streams">2</property>
  <property name="meta.media.0.stream.type">video</property>
  <property name="meta.media.0.stream.frame_rate">30</property>
  <property name="meta.media.0.stream.sample_aspect_ratio">0</property>
  <property name="meta.media.0.codec.width">988</property>
  <property name="meta.media.0.codec.height">268</property>
  <property name="meta.media.0.codec.rotate">0</property>
  <property name="meta.media.0.codec.frame_rate">30</property>
  <property name="meta.media.0.codec.pix_fmt">yuv420p</property>
  <property name="meta.media.0.codec.sample_aspect_ratio">1</property>
  <property name="meta.media.0.codec.colorspace">709</property>
  <property name="meta.media.0.codec.color_trc">1</property>
  <property name="meta.media.0.codec.name">h264</property>
  <property name="meta.media.0.codec.long_name">H.264 / AVC / MPEG-4 AVC / MPEG-4 part 10</property>
  <property name="meta.media.0.codec.bit_rate">0</property>
  <property name="meta.attr.0.stream.DURATION.markup">00:00:23.233000000</property>
  <property name="meta.media.1.stream.type">audio</property>
  <property name="meta.media.1.codec.sample_fmt">fltp</property>
  <property name="meta.media.1.codec.sample_rate">48000</property>
  <property name="meta.media.1.codec.channels">2</property>
  <property name="meta.media.1.codec.name">aac</property>
  <property name="meta.media.1.codec.long_name">AAC (Advanced Audio Coding)</property>
  <property name="meta.media.1.codec.bit_rate">0</property>
  <property name="meta.attr.1.stream.title.markup">simple_aac_recording</property>
  <property name="meta.attr.1.stream.DURATION.markup">00:00:23.125000000</property>
  <property name="meta.attr.ENCODER.markup">Lavf58.76.100</property>
  <property name="seekable">1</property>
  <property name="meta.media.sample_aspect_num">1</property>
  <property name="meta.media.sample_aspect_den">1</property>
  <property name="aspect_ratio">1</property>
  <property name="kdenlive:clipname"/>
  <property name="meta.media.frame_rate_num">30</property>
  <property name="meta.media.frame_rate_den">1</property>
  <property name="meta.media.colorspace">709</property>
  <property name="meta.media.color_trc">1</property>
  <property name="meta.media.width">988</property>
  <property name="meta.media.height">268</property>
  <property name="meta.media.color_range">mpeg</property>
  <property name="meta.media.top_field_first">0</property>
  <property name="meta.media.progressive">1</property>
  <property name="kdenlive:folderid">-1</property>
  <property name="kdenlive:id">2</property>
  <property name="kdenlive:file_size">681107</property>
  <property name="kdenlive:file_hash">3a4310f12abda2d3a71f2f1f2b3c0f65</property>
  <property name="kdenlive:audio_max">1</property>
  <property name="global_feed">1</property>
 </producer>
 <producer id="producer1" in="00:00:00.000" out="00:00:25.400">
  <property name="length">636</property>
  <property name="eof">pause</property>
  <property name="resource">fifo.mkv</property>
  <property name="audio_index">1</property>
  <property name="video_index">0</property>
  <property name="mute_on_pause">0</property>
  <property name="mlt_service">avformat-novalidate</property>
  <property name="meta.media.nb_streams">2</property>
  <property name="meta.media.0.stream.type">video</property>
  <property name="meta.media.0.stream.frame_rate">30</property>
  <property name="meta.media.0.stream.sample_aspect_ratio">0</property>
  <property name="meta.media.0.codec.width">988</property>
  <property name="meta.media.0.codec.height">268</property>
  <property name="meta.media.0.codec.rotate">0</property>
  <property name="meta.media.0.codec.frame_rate">30</property>
  <property name="meta.media.0.codec.pix_fmt">yuv420p</property>
  <property name="meta.media.0.codec.sample_aspect_ratio">1</property>
  <property name="meta.media.0.codec.colorspace">709</property>
  <property name="meta.media.0.codec.color_trc">1</property>
  <property name="meta.media.0.codec.name">h264</property>
  <property name="meta.media.0.codec.long_name">H.264 / AVC / MPEG-4 AVC / MPEG-4 part 10</property>
  <property name="meta.media.0.codec.bit_rate">0</property>
  <property name="meta.attr.0.stream.DURATION.markup">00:00:25.433000000</property>
  <property name="meta.media.1.stream.type">audio</property>
  <property name="meta.media.1.codec.sample_fmt">fltp</property>
  <property name="meta.media.1.codec.sample_rate">48000</property>
  <property name="meta.media.1.codec.channels">2</property>
  <property name="meta.media.1.codec.name">aac</property>
  <property name="meta.media.1.codec.long_name">AAC (Advanced Audio Coding)</property>
  <property name="meta.media.1.codec.bit_rate">0</property>
  <property name="meta.attr.1.stream.title.markup">simple_aac_recording</property>
  <property name="meta.attr.1.stream.DURATION.markup">00:00:25.323000000</property>
  <property name="meta.attr.ENCODER.markup">Lavf58.76.100</property>
  <property name="seekable">1</property>
  <property name="meta.media.sample_aspect_num">1</property>
  <property name="meta.media.sample_aspect_den">1</property>
  <property name="aspect_ratio">1</property>
  <property name="kdenlive:clipname"/>
  <property name="kdenlive:folderid">-1</property>
  <property name="meta.media.frame_rate_num">30</property>
  <property name="meta.media.frame_rate_den">1</property>
  <property name="meta.media.colorspace">709</property>
  <property name="meta.media.color_trc">1</property>
  <property name="meta.media.width">988</property>
  <property name="meta.media.height">268</property>
  <property name="meta.media.color_range">mpeg</property>
  <property name="kdenlive:id">3</property>
  <property name="kdenlive:file_size">736169</property>
  <property name="kdenlive:file_hash">58b6e30d8be07020e996a58074feb632</property>
  <property name="kdenlive:audio_max">1</property>
  <property name="meta.media.top_field_first">0</property>
  <property name="meta.media.progressive">1</property>
  <property name="global_feed">1</property>
 </producer>
 <producer id="producer2" in="00:00:00.000" out="00:00:12.680">
  <property name="length">318</property>
  <property name="eof">pause</property>
  <property name="resource">添.mkv</property>
  <property name="audio_index">1</property>
  <property name="video_index">0</property>
  <property name="mute_on_pause">0</property>
  <property name="mlt_service">avformat-novalidate</property>
  <property name="meta.media.nb_streams">2</property>
  <property name="meta.media.0.stream.type">video</property>
  <property name="meta.media.0.stream.frame_rate">30</property>
  <property name="meta.media.0.stream.sample_aspect_ratio">0</property>
  <property name="meta.media.0.codec.width">620</property>
  <property name="meta.media.0.codec.height">268</property>
  <property name="meta.media.0.codec.rotate">0</property>
  <property name="meta.media.0.codec.frame_rate">30</property>
  <property name="meta.media.0.codec.pix_fmt">yuv420p</property>
  <property name="meta.media.0.codec.sample_aspect_ratio">1</property>
  <property name="meta.media.0.codec.colorspace">709</property>
  <property name="meta.media.0.codec.color_trc">1</property>
  <property name="meta.media.0.codec.name">h264</property>
  <property name="meta.media.0.codec.long_name">H.264 / AVC / MPEG-4 AVC / MPEG-4 part 10</property>
  <property name="meta.media.0.codec.bit_rate">0</property>
  <property name="meta.attr.0.stream.DURATION.markup">00:00:12.700000000</property>
  <property name="meta.media.1.stream.type">audio</property>
  <property name="meta.media.1.codec.sample_fmt">fltp</property>
  <property name="meta.media.1.codec.sample_rate">48000</property>
  <property name="meta.media.1.codec.channels">2</property>
  <property name="meta.media.1.codec.name">aac</property>
  <property name="meta.media.1.codec.long_name">AAC (Advanced Audio Coding)</property>
  <property name="meta.media.1.codec.bit_rate">0</property>
  <property name="meta.attr.1.stream.title.markup">simple_aac_recording</property>
  <property name="meta.attr.1.stream.DURATION.markup">00:00:12.629000000</property>
  <property name="meta.attr.ENCODER.markup">Lavf58.76.100</property>
  <property name="seekable">1</property>
  <property name="meta.media.sample_aspect_num">1</property>
  <property name="meta.media.sample_aspect_den">1</property>
  <property name="aspect_ratio">1</property>
  <property name="kdenlive:clipname"/>
  <property name="kdenlive:folderid">-1</property>
  <property name="meta.media.frame_rate_num">30</property>
  <property name="meta.media.frame_rate_den">1</property>
  <property name="meta.media.colorspace">709</property>
  <property name="meta.media.color_trc">1</property>
  <property name="meta.media.width">620</property>
  <property name="meta.media.height">268</property>
  <property name="meta.media.color_range">mpeg</property>
  <property name="kdenlive:id">4</property>
  <property name="kdenlive:file_size">338986</property>
  <property name="kdenlive:file_hash">2ae99f09bdfe4bd2932bdbf896e1c143</property>
  <property name="kdenlive:audio_max">1</property>
  <property name="meta.media.top_field_first">0</property>
  <property name="meta.media.progressive">1</property>
  <property name="global_feed">1</property>
 </producer>
 <producer id="producer3" in="00:00:00.000" out="00:00:07.000">
  <property name="length">176</property>
  <property name="eof">pause</property>
  <property name="resource">左添.mkv</property>
  <property name="audio_index">1</property>
  <property name="video_index">0</property>
  <property name="mute_on_pause">0</property>
  <property name="mlt_service">avformat-novalidate</property>
  <property name="meta.media.nb_streams">2</property>
  <property name="meta.media.0.stream.type">video</property>
  <property name="meta.media.0.stream.frame_rate">30</property>
  <property name="meta.media.0.stream.sample_aspect_ratio">0</property>
  <property name="meta.media.0.codec.width">620</property>
  <property name="meta.media.0.codec.height">268</property>
  <property name="meta.media.0.codec.rotate">0</property>
  <property name="meta.media.0.codec.frame_rate">30</property>
  <property name="meta.media.0.codec.pix_fmt">yuv420p</property>
  <property name="meta.media.0.codec.sample_aspect_ratio">1</property>
  <property name="meta.media.0.codec.colorspace">709</property>
  <property name="meta.media.0.codec.color_trc">1</property>
  <property name="meta.media.0.codec.name">h264</property>
  <property name="meta.media.0.codec.long_name">H.264 / AVC / MPEG-4 AVC / MPEG-4 part 10</property>
  <property name="meta.media.0.codec.bit_rate">0</property>
  <property name="meta.attr.0.stream.DURATION.markup">00:00:07.033000000</property>
  <property name="meta.media.1.stream.type">audio</property>
  <property name="meta.media.1.codec.sample_fmt">fltp</property>
  <property name="meta.media.1.codec.sample_rate">48000</property>
  <property name="meta.media.1.codec.channels">2</property>
  <property name="meta.media.1.codec.name">aac</property>
  <property name="meta.media.1.codec.long_name">AAC (Advanced Audio Coding)</property>
  <property name="meta.media.1.codec.bit_rate">0</property>
  <property name="meta.attr.1.stream.title.markup">simple_aac_recording</property>
  <property name="meta.attr.1.stream.DURATION.markup">00:00:06.912000000</property>
  <property name="meta.attr.ENCODER.markup">Lavf58.76.100</property>
  <property name="seekable">1</property>
  <property name="meta.media.sample_aspect_num">1</property>
  <property name="meta.media.sample_aspect_den">1</property>
  <property name="aspect_ratio">1</property>
  <property name="kdenlive:clipname"/>
  <property name="kdenlive:folderid">-1</property>
  <property name="meta.media.frame_rate_num">30</property>
  <property name="meta.media.frame_rate_den">1</property>
  <property name="meta.media.colorspace">709</property>
  <property name="meta.media.color_trc">1</property>
  <property name="meta.media.width">620</property>
  <property name="meta.media.height">268</property>
  <property name="meta.media.color_range">mpeg</property>
  <property name="kdenlive:id">5</property>
  <property name="kdenlive:file_size">195429</property>
  <property name="kdenlive:file_hash">5996fc037d348faa0ad3897dc92aa0c4</property>
  <property name="kdenlive:audio_max">1</property>
  <property name="meta.media.top_field_first">0</property>
  <property name="meta.media.progressive">1</property>
  <property name="global_feed">1</property>
 </producer>
 <producer id="producer4" in="00:00:00.000" out="00:00:41.640">
  <property name="length">1042</property>
  <property name="eof">pause</property>
  <property name="resource">合并.mkv</property>
  <property name="audio_index">1</property>
  <property name="video_index">0</property>
  <property name="mute_on_pause">0</property>
  <property name="mlt_service">avformat-novalidate</property>
  <property name="meta.media.nb_streams">2</property>
  <property name="meta.media.0.stream.type">video</property>
  <property name="meta.media.0.stream.frame_rate">30</property>
  <property name="meta.media.0.stream.sample_aspect_ratio">0</property>
  <property name="meta.media.0.codec.width">620</property>
  <property name="meta.media.0.codec.height">268</property>
  <property name="meta.media.0.codec.rotate">0</property>
  <property name="meta.media.0.codec.frame_rate">30</property>
  <property name="meta.media.0.codec.pix_fmt">yuv420p</property>
  <property name="meta.media.0.codec.sample_aspect_ratio">1</property>
  <property name="meta.media.0.codec.colorspace">709</property>
  <property name="meta.media.0.codec.color_trc">1</property>
  <property name="meta.media.0.codec.name">h264</property>
  <property name="meta.media.0.codec.long_name">H.264 / AVC / MPEG-4 AVC / MPEG-4 part 10</property>
  <property name="meta.media.0.codec.bit_rate">0</property>
  <property name="meta.attr.0.stream.DURATION.markup">00:00:41.666000000</property>
  <property name="meta.media.1.stream.type">audio</property>
  <property name="meta.media.1.codec.sample_fmt">fltp</property>
  <property name="meta.media.1.codec.sample_rate">48000</property>
  <property name="meta.media.1.codec.channels">2</property>
  <property name="meta.media.1.codec.name">aac</property>
  <property name="meta.media.1.codec.long_name">AAC (Advanced Audio Coding)</property>
  <property name="meta.media.1.codec.bit_rate">0</property>
  <property name="meta.attr.1.stream.title.markup">simple_aac_recording</property>
  <property name="meta.attr.1.stream.DURATION.markup">00:00:41.579000000</property>
  <property name="meta.attr.ENCODER.markup">Lavf58.76.100</property>
  <property name="seekable">1</property>
  <property name="meta.media.sample_aspect_num">1</property>
  <property name="meta.media.sample_aspect_den">1</property>
  <property name="aspect_ratio">1</property>
  <property name="kdenlive:clipname"/>
  <property name="kdenlive:folderid">-1</property>
  <property name="meta.media.frame_rate_num">30</property>
  <property name="meta.media.frame_rate_den">1</property>
  <property name="meta.media.colorspace">709</property>
  <property name="meta.media.color_trc">1</property>
  <property name="meta.media.width">620</property>
  <property name="meta.media.height">268</property>
  <property name="meta.media.color_range">mpeg</property>
  <property name="kdenlive:id">6</property>
  <property name="kdenlive:file_size">1137415</property>
  <property name="kdenlive:file_hash">ebd29cf9218847bcf326e3b95f2fad38</property>
  <property name="kdenlive:audio_max">1</property>
  <property name="meta.media.top_field_first">0</property>
  <property name="meta.media.progressive">1</property>
  <property name="global_feed">1</property>
 </producer>
 <producer id="producer5" in="00:00:00.000" out="00:00:58.000">
  <property name="length">1451</property>
  <property name="eof">pause</property>
  <property name="resource">快排.mkv</property>
  <property name="audio_index">1</property>
  <property name="video_index">0</property>
  <property name="mute_on_pause">0</property>
  <property name="mlt_service">avformat-novalidate</property>
  <property name="meta.media.nb_streams">2</property>
  <property name="meta.media.0.stream.type">video</property>
  <property name="meta.media.0.stream.frame_rate">30</property>
  <property name="meta.media.0.stream.sample_aspect_ratio">0</property>
  <property name="meta.media.0.codec.width">620</property>
  <property name="meta.media.0.codec.height">268</property>
  <property name="meta.media.0.codec.rotate">0</property>
  <property name="meta.media.0.codec.frame_rate">30</property>
  <property name="meta.media.0.codec.pix_fmt">yuv420p</property>
  <property name="meta.media.0.codec.sample_aspect_ratio">1</property>
  <property name="meta.media.0.codec.colorspace">709</property>
  <property name="meta.media.0.codec.color_trc">1</property>
  <property name="meta.media.0.codec.name">h264</property>
  <property name="meta.media.0.codec.long_name">H.264 / AVC / MPEG-4 AVC / MPEG-4 part 10</property>
  <property name="meta.media.0.codec.bit_rate">0</property>
  <property name="meta.attr.0.stream.DURATION.markup">00:00:58.033000000</property>
  <property name="meta.media.1.stream.type">audio</property>
  <property name="meta.media.1.codec.sample_fmt">fltp</property>
  <property name="meta.media.1.codec.sample_rate">48000</property>
  <property name="meta.media.1.codec.channels">2</property>
  <property name="meta.media.1.codec.name">aac</property>
  <property name="meta.media.1.codec.long_name">AAC (Advanced Audio Coding)</property>
  <property name="meta.media.1.codec.bit_rate">0</property>
  <property name="meta.attr.1.stream.title.markup">simple_aac_recording</property>
  <property name="meta.attr.1.stream.DURATION.markup">00:00:57.899000000</property>
  <property name="meta.attr.ENCODER.markup">Lavf58.76.100</property>
  <property name="seekable">1</property>
  <property name="meta.media.sample_aspect_num">1</property>
  <property name="meta.media.sample_aspect_den">1</property>
  <property name="aspect_ratio">1</property>
  <property name="kdenlive:clipname"/>
  <property name="kdenlive:folderid">-1</property>
  <property name="meta.media.frame_rate_num">30</property>
  <property name="meta.media.frame_rate_den">1</property>
  <property name="meta.media.colorspace">709</property>
  <property name="meta.media.color_trc">1</property>
  <property name="meta.media.width">620</property>
  <property name="meta.media.height">268</property>
  <property name="meta.media.color_range">mpeg</property>
  <property name="kdenlive:id">7</property>
  <property name="kdenlive:file_size">1525168</property>
  <property name="kdenlive:file_hash">69e72448e95b8f9fb0007a8b921e6d3b</property>
  <property name="kdenlive:audio_max">1</property>
  <property name="meta.media.top_field_first">0</property>
  <property name="meta.media.progressive">1</property>
  <property name="global_feed">1</property>
 </producer>
 <producer id="producer6" in="00:00:00.000" out="00:00:40.920">
  <property name="length">1024</property>
  <property name="eof">pause</property>
  <property name="resource">冒泡.mkv</property>
  <property name="audio_index">1</property>
  <property name="video_index">0</property>
  <property name="mute_on_pause">0</property>
  <property name="mlt_service">avformat-novalidate</property>
  <property name="meta.media.nb_streams">2</property>
  <property name="meta.media.0.stream.type">video</property>
  <property name="meta.media.0.stream.frame_rate">30</property>
  <property name="meta.media.0.stream.sample_aspect_ratio">0</property>
  <property name="meta.media.0.codec.width">620</property>
  <property name="meta.media.0.codec.height">268</property>
  <property name="meta.media.0.codec.rotate">0</property>
  <property name="meta.media.0.codec.frame_rate">30</property>
  <property name="meta.media.0.codec.pix_fmt">yuv420p</property>
  <property name="meta.media.0.codec.sample_aspect_ratio">1</property>
  <property name="meta.media.0.codec.colorspace">709</property>
  <property name="meta.media.0.codec.color_trc">1</property>
  <property name="meta.media.0.codec.name">h264</property>
  <property name="meta.media.0.codec.long_name">H.264 / AVC / MPEG-4 AVC / MPEG-4 part 10</property>
  <property name="meta.media.0.codec.bit_rate">0</property>
  <property name="meta.attr.0.stream.DURATION.markup">00:00:40.966000000</property>
  <property name="meta.media.1.stream.type">audio</property>
  <property name="meta.media.1.codec.sample_fmt">fltp</property>
  <property name="meta.media.1.codec.sample_rate">48000</property>
  <property name="meta.media.1.codec.channels">2</property>
  <property name="meta.media.1.codec.name">aac</property>
  <property name="meta.media.1.codec.long_name">AAC (Advanced Audio Coding)</property>
  <property name="meta.media.1.codec.bit_rate">0</property>
  <property name="meta.attr.1.stream.title.markup">simple_aac_recording</property>
  <property name="meta.attr.1.stream.DURATION.markup">00:00:40.832000000</property>
  <property name="meta.attr.ENCODER.markup">Lavf58.76.100</property>
  <property name="seekable">1</property>
  <property name="meta.media.sample_aspect_num">1</property>
  <property name="meta.media.sample_aspect_den">1</property>
  <property name="aspect_ratio">1</property>
  <property name="kdenlive:clipname"/>
  <property name="kdenlive:folderid">-1</property>
  <property name="meta.media.frame_rate_num">30</property>
  <property name="meta.media.frame_rate_den">1</property>
  <property name="meta.media.colorspace">709</property>
  <property name="meta.media.color_trc">1</property>
  <property name="meta.media.width">620</property>
  <property name="meta.media.height">268</property>
  <property name="meta.media.color_range">mpeg</property>
  <property name="kdenlive:id">8</property>
  <property name="kdenlive:file_size">1080518</property>
  <property name="kdenlive:file_hash">73f98feec7d3a623edaa274a50bc75ff</property>
  <property name="kdenlive:audio_max">1</property>
  <property name="meta.media.top_field_first">0</property>
  <property name="meta.media.progressive">1</property>
  <property name="global_feed">1</property>
 </producer>
 <producer id="producer7" in="00:00:00.000" out="00:00:42.440">
  <property name="length">1062</property>
  <property name="eof">pause</property>
  <property name="resource">插入.mkv</property>
  <property name="audio_index">1</property>
  <property name="video_index">0</property>
  <property name="mute_on_pause">0</property>
  <property name="mlt_service">avformat-novalidate</property>
  <property name="meta.media.nb_streams">2</property>
  <property name="meta.media.0.stream.type">video</property>
  <property name="meta.media.0.stream.frame_rate">30</property>
  <property name="meta.media.0.stream.sample_aspect_ratio">0</property>
  <property name="meta.media.0.codec.width">620</property>
  <property name="meta.media.0.codec.height">268</property>
  <property name="meta.media.0.codec.rotate">0</property>
  <property name="meta.media.0.codec.frame_rate">30</property>
  <property name="meta.media.0.codec.pix_fmt">yuv420p</property>
  <property name="meta.media.0.codec.sample_aspect_ratio">1</property>
  <property name="meta.media.0.codec.colorspace">709</property>
  <property name="meta.media.0.codec.color_trc">1</property>
  <property name="meta.media.0.codec.name">h264</property>
  <property name="meta.media.0.codec.long_name">H.264 / AVC / MPEG-4 AVC / MPEG-4 part 10</property>
  <property name="meta.media.0.codec.bit_rate">0</property>
  <property name="meta.attr.0.stream.DURATION.markup">00:00:42.500000000</property>
  <property name="meta.media.1.stream.type">audio</property>
  <property name="meta.media.1.codec.sample_fmt">fltp</property>
  <property name="meta.media.1.codec.sample_rate">48000</property>
  <property name="meta.media.1.codec.channels">2</property>
  <property name="meta.media.1.codec.name">aac</property>
  <property name="meta.media.1.codec.long_name">AAC (Advanced Audio Coding)</property>
  <property name="meta.media.1.codec.bit_rate">0</property>
  <property name="meta.attr.1.stream.title.markup">simple_aac_recording</property>
  <property name="meta.attr.1.stream.DURATION.markup">00:00:42.347000000</property>
  <property name="meta.attr.ENCODER.markup">Lavf58.76.100</property>
  <property name="seekable">1</property>
  <property name="meta.media.sample_aspect_num">1</property>
  <property name="meta.media.sample_aspect_den">1</property>
  <property name="aspect_ratio">1</property>
  <property name="kdenlive:clipname"/>
  <property name="kdenlive:folderid">-1</property>
  <property name="meta.media.frame_rate_num">30</property>
  <property name="meta.media.frame_rate_den">1</property>
  <property name="meta.media.colorspace">709</property>
  <property name="meta.media.color_trc">1</property>
  <property name="meta.media.width">620</property>
  <property name="meta.media.height">268</property>
  <property name="meta.media.color_range">mpeg</property>
  <property name="kdenlive:id">9</property>
  <property name="kdenlive:file_size">1101679</property>
  <property name="kdenlive:file_hash">7739b6ac5b85915fcbc06ddda92062ee</property>
  <property name="kdenlive:audio_max">1</property>
  <property name="meta.media.top_field_first">0</property>
  <property name="meta.media.progressive">1</property>
  <property name="global_feed">1</property>
 </producer>
 <producer id="producer8" in="00:00:00.000" out="00:01:26.200">
  <property name="length">2156</property>
  <property name="eof">pause</property>
  <property name="resource">下面名.ogg</property>
  <property name="meta.media.nb_streams">1</property>
  <property name="meta.media.0.stream.type">audio</property>
  <property name="meta.media.0.codec.sample_fmt">fltp</property>
  <property name="meta.media.0.codec.sample_rate">48000</property>
  <property name="meta.media.0.codec.channels">2</property>
  <property name="meta.media.0.codec.name">vorbis</property>
  <property name="meta.media.0.codec.long_name">Vorbis</property>
  <property name="meta.media.0.codec.bit_rate">160000</property>
  <property name="seekable">1</property>
  <property name="audio_index">0</property>
  <property name="video_index">-1</property>
  <property name="mute_on_pause">1</property>
  <property name="mlt_service">avformat</property>
  <property name="kdenlive:clipname"/>
  <property name="kdenlive:folderid">-1</property>
  <property name="kdenlive:id">10</property>
  <property name="kdenlive:file_size">1575941</property>
  <property name="kdenlive:file_hash">c9e09cda1f089f2bd224b62910b24bcf</property>
  <property name="kdenlive:audio_max">5</property>
  <property name="global_feed">1</property>
 </producer>
 <producer id="producer9" in="00:00:00.000" out="00:01:35.520">
  <property name="length">2389</property>
  <property name="eof">pause</property>
  <property name="resource">复杂度.ogg</property>
  <property name="meta.media.nb_streams">1</property>
  <property name="meta.media.0.stream.type">audio</property>
  <property name="meta.media.0.codec.sample_fmt">fltp</property>
  <property name="meta.media.0.codec.sample_rate">48000</property>
  <property name="meta.media.0.codec.channels">2</property>
  <property name="meta.media.0.codec.name">vorbis</property>
  <property name="meta.media.0.codec.long_name">Vorbis</property>
  <property name="meta.media.0.codec.bit_rate">160000</property>
  <property name="seekable">1</property>
  <property name="audio_index">0</property>
  <property name="video_index">-1</property>
  <property name="mute_on_pause">1</property>
  <property name="mlt_service">avformat</property>
  <property name="kdenlive:clipname"/>
  <property name="kdenlive:folderid">-1</property>
  <property name="kdenlive:id">11</property>
  <property name="kdenlive:file_size">1734157</property>
  <property name="kdenlive:file_hash">cf7ca153f07a26f7b3b734282fb60f70</property>
  <property name="kdenlive:audio_max">5</property>
  <property name="global_feed">1</property>
 </producer>
 <producer id="producer10" in="00:00:00.000" out="00:00:59.520">
  <property name="length">1489</property>
  <property name="eof">pause</property>
  <property name="resource">开头.ogg</property>
  <property name="meta.media.nb_streams">1</property>
  <property name="meta.media.0.stream.type">audio</property>
  <property name="meta.media.0.codec.sample_fmt">fltp</property>
  <property name="meta.media.0.codec.sample_rate">48000</property>
  <property name="meta.media.0.codec.channels">2</property>
  <property name="meta.media.0.codec.name">vorbis</property>
  <property name="meta.media.0.codec.long_name">Vorbis</property>
  <property name="meta.media.0.codec.bit_rate">160000</property>
  <property name="seekable">1</property>
  <property name="audio_index">0</property>
  <property name="video_index">-1</property>
  <property name="mute_on_pause">1</property>
  <property name="mlt_service">avformat</property>
  <property name="kdenlive:clipname"/>
  <property name="kdenlive:folderid">-1</property>
  <property name="kdenlive:id">12</property>
  <property name="kdenlive:file_size">1079639</property>
  <property name="kdenlive:file_hash">afeca2daaa75b41b10490de7e6938447</property>
  <property name="kdenlive:audio_max">5</property>
  <property name="global_feed">1</property>
 </producer>
 <producer id="producer11" in="00:00:00.000" out="00:00:04.440">
  <property name="length">112</property>
  <property name="eof">pause</property>
  <property name="resource">/home/duangsuse/.gnome2/cheese/media/2021-08-13-075652.webm.mov</property>
  <property name="audio_index">1</property>
  <property name="video_index">0</property>
  <property name="mute_on_pause">0</property>
  <property name="mlt_service">avformat-novalidate</property>
  <property name="meta.media.nb_streams">2</property>
  <property name="meta.media.0.stream.type">video</property>
  <property name="meta.media.0.stream.frame_rate">25</property>
  <property name="meta.media.0.stream.sample_aspect_ratio">0.75</property>
  <property name="meta.media.0.codec.width">1920</property>
  <property name="meta.media.0.codec.height">1080</property>
  <property name="meta.media.0.codec.rotate">0</property>
  <property name="meta.media.0.codec.frame_rate">12800</property>
  <property name="meta.media.0.codec.pix_fmt">yuv422p</property>
  <property name="meta.media.0.codec.sample_aspect_ratio">0</property>
  <property name="meta.media.0.codec.colorspace">601</property>
  <property name="meta.media.0.codec.color_trc">6</property>
  <property name="meta.media.0.codec.name">dnxhd</property>
  <property name="meta.media.0.codec.long_name">VC3/DNxHD</property>
  <property name="meta.media.0.codec.bit_rate">121241600</property>
  <property name="meta.attr.0.stream.language.markup">eng</property>
  <property name="meta.attr.0.stream.handler_name.markup">VideoHandler</property>
  <property name="meta.attr.0.stream.vendor_id.markup">FFMP</property>
  <property name="meta.attr.0.stream.encoder.markup">Lavc58.134.100 dnxhd</property>
  <property name="meta.media.1.stream.type">audio</property>
  <property name="meta.media.1.codec.sample_fmt">s16</property>
  <property name="meta.media.1.codec.sample_rate">48000</property>
  <property name="meta.media.1.codec.channels">1</property>
  <property name="meta.media.1.codec.name">pcm_s16le</property>
  <property name="meta.media.1.codec.long_name">PCM signed 16-bit little-endian</property>
  <property name="meta.media.1.codec.bit_rate">768000</property>
  <property name="meta.attr.1.stream.language.markup">eng</property>
  <property name="meta.attr.1.stream.handler_name.markup">SoundHandler</property>
  <property name="meta.attr.1.stream.vendor_id.markup">[0][0][0][0]</property>
  <property name="meta.attr.major_brand.markup">qt  </property>
  <property name="meta.attr.minor_version.markup">512</property>
  <property name="meta.attr.compatible_brands.markup">qt  </property>
  <property name="meta.attr.encoder.markup">Lavf58.76.100</property>
  <property name="seekable">1</property>
  <property name="meta.media.sample_aspect_num">3</property>
  <property name="meta.media.sample_aspect_den">4</property>
  <property name="aspect_ratio">0.75</property>
  <property name="kdenlive:clipname"/>
  <property name="kdenlive:folderid">-1</property>
  <property name="meta.media.frame_rate_num">25</property>
  <property name="meta.media.frame_rate_den">1</property>
  <property name="meta.media.colorspace">601</property>
  <property name="meta.media.color_trc">6</property>
  <property name="meta.media.width">1920</property>
  <property name="meta.media.height">1080</property>
  <property name="meta.media.color_range">mpeg</property>
  <property name="kdenlive:id">13</property>
  <property name="kdenlive:file_size">68325797</property>
  <property name="kdenlive:file_hash">37fe2329127ed0bbfae4bbbdaff763cd</property>
  <property name="kdenlive:audio_max">2</property>
  <property name="meta.media.top_field_first">1</property>
  <property name="meta.media.progressive">0</property>
  <property name="global_feed">1</property>
 </producer>
 <producer id="producer12" in="00:00:00.000" out="00:00:04.960">
  <property name="length">125</property>
  <property name="eof">pause</property>
  <property name="resource"/>
  <property name="progressive">1</property>
  <property name="aspect_ratio">1</property>
  <property name="seekable">1</property>
  <property name="mlt_service">kdenlivetitle</property>
  <property name="kdenlive:duration">125</property>
  <property name="kdenlive:clipname">关于编程，</property>
  <property name="xmldata">&lt;kdenlivetitle duration="125" LC_NUMERIC="C" width="1920" height="1080" out="124">
 &lt;item type="QGraphicsTextItem" z-index="5">
  &lt;position x="250" y="83">
   &lt;transform>1,0,0,0,1,0,0,0,1&lt;/transform>
  &lt;/position>
  &lt;content line-spacing="0" shadow="0;#64000000;3;3;3" font-underline="0" box-height="86" font-outline-color="97,53,131,255" font="文泉驿微米黑" letter-spacing="0" font-pixel-size="37" font-italic="0" typewriter="0;2;1;0;0" alignment="2" font-weight="50" font-outline="0" box-width="178.969" font-color="61,56,70,255">咱动苏
duangsuse&lt;/content>
 &lt;/item>
 &lt;item type="QGraphicsPixmapItem" z-index="4">
  &lt;position x="82" y="37">
   &lt;transform zoom="66">0.66,0,0,0,0.66,0,0,0,1&lt;/transform>
  &lt;/position>
  &lt;content url="/home/duangsuse/Documents/咱动苏/ava.jpeg"/>
 &lt;/item>
 &lt;item type="QGraphicsTextItem" z-index="3">
  &lt;position x="319" y="757">
   &lt;transform>1,0,0,0,1,0,0,0,1&lt;/transform>
  &lt;/position>
  &lt;content line-spacing="0" shadow="0;#64000000;3;3;3" font-underline="0" box-height="92" font="文泉驿微米黑" letter-spacing="0" font-pixel-size="77" font-italic="0" typewriter="0;2;1;0;0" alignment="2" font-weight="50" gradient="#ff613583;#ffe01b24;70;100;61" box-width="1218.8" font-color="0,0,0,255">=插入,冒泡,选择;快速,合并 排序算法&lt;/content>
 &lt;/item>
 &lt;item type="QGraphicsTextItem" z-index="2">
  &lt;position x="1275" y="530">
   &lt;transform>1,0,0,0,1,0,0,0,1&lt;/transform>
  &lt;/position>
  &lt;content line-spacing="0" shadow="0;#64000000;3;3;3" font-underline="0" box-height="92" font="文泉驿微米黑" letter-spacing="0" font-pixel-size="77" font-italic="0" typewriter="0;2;1;0;0" alignment="2" font-weight="50" box-width="243.094" font-color="0,255,74,255">[排序1]&lt;/content>
 &lt;/item>
 &lt;item type="QGraphicsTextItem" z-index="1">
  &lt;position x="429" y="437">
   &lt;transform>1,0,0,0,1,0,0,0,1&lt;/transform>
  &lt;/position>
  &lt;content line-spacing="0" shadow="1;#64000000;20;-25;28" font-underline="0" box-height="208" font="文泉驿微米黑" letter-spacing="0" font-pixel-size="177" font-italic="0" typewriter="0;2;1;0;0" alignment="2" font-weight="50" gradient="#fff8e45c;#ffe01b24;36;100;112" box-width="885" font-color="0,0,0,255">你能知道！&lt;/content>
 &lt;/item>
 &lt;item type="QGraphicsTextItem" z-index="0">
  &lt;position x="94" y="303">
   &lt;transform>1,0,0,0,1,0,0,0,1&lt;/transform>
  &lt;/position>
  &lt;content line-spacing="0" shadow="0;#64000000;0;-13;7" font-underline="0" box-height="103" font="文泉驿微米黑" letter-spacing="0" font-pixel-size="87" font-italic="0" typewriter="0;2;1;0;0" alignment="2" font-weight="50" gradient="#ff0935b7;#ffe01b24;23;100;58" box-width="435" font-color="0,0,0,255">关于编程，&lt;/content>
 &lt;/item>
 &lt;startviewport rect="0,0,1920,1080"/>
 &lt;endviewport rect="0,0,1920,1080"/>
 &lt;background color="0,0,0,0"/>
&lt;/kdenlivetitle>
</property>
  <property name="kdenlive:folderid">-1</property>
  <property name="kdenlive:id">14</property>
  <property name="kdenlive:file_hash">35f75bdc9f6e45c5eb0912f0bec77c5e</property>
  <property name="force_reload">0</property>
  <property name="meta.media.width">1920</property>
  <property name="meta.media.height">1080</property>
 </producer>
 <producer id="producer13" in="00:00:00.000" out="00:00:04.960">
  <property name="length">00:00:05.000</property>
  <property name="eof">pause</property>
  <property name="resource">/home/duangsuse/Downloads/Telegram Desktop/811AB5BAD8B0D36BBA8B416343AD3009.jpg</property>
  <property name="ttl">25</property>
  <property name="aspect_ratio">1</property>
  <property name="progressive">1</property>
  <property name="seekable">1</property>
  <property name="meta.media.width">1800</property>
  <property name="meta.media.height">1125</property>
  <property name="mlt_service">qimage</property>
  <property name="kdenlive:clipname"/>
  <property name="kdenlive:duration">00:00:05.000</property>
  <property name="kdenlive:folderid">-1</property>
  <property name="kdenlive:id">15</property>
  <property name="kdenlive:file_size">2415939</property>
  <property name="kdenlive:file_hash">114559d1ff67d743720843e11ef2600f</property>
 </producer>
 <producer id="producer14" in="00:00:00.000" out="00:00:04.960">
  <property name="length">125</property>
  <property name="eof">pause</property>
  <property name="resource"/>
  <property name="progressive">1</property>
  <property name="aspect_ratio">1</property>
  <property name="seekable">1</property>
  <property name="mlt_service">kdenlivetitle</property>
  <property name="kdenlive:duration">125</property>
  <property name="kdenlive:clipname">Have a nice ...</property>
  <property name="xmldata">&lt;kdenlivetitle duration="125" LC_NUMERIC="C" width="1920" height="1080" out="124">
 &lt;item type="QGraphicsTextItem" z-index="0">
  &lt;position x="270" y="446">
   &lt;transform>1,0,0,0,1,0,0,0,1&lt;/transform>
  &lt;/position>
  &lt;content line-spacing="0" shadow="0;#64000000;3;3;3" font-underline="0" box-height="226" font-outline-color="97,53,131,255" font="文泉驿微米黑" letter-spacing="0" font-pixel-size="192" font-italic="0" typewriter="0;2;1;0;0" alignment="2" font-weight="50" font-outline="0" box-width="1397.06" font-color="255,255,255,255">Have a nice day!&lt;/content>
 &lt;/item>
 &lt;startviewport rect="0,0,1920,1080"/>
 &lt;endviewport rect="0,0,1920,1080"/>
 &lt;background color="0,0,0,0"/>
&lt;/kdenlivetitle>
</property>
  <property name="kdenlive:folderid">-1</property>
  <property name="kdenlive:id">16</property>
  <property name="kdenlive:file_hash">91779ff2bb4e412f0631acc5b7fb9315</property>
  <property name="force_reload">0</property>
  <property name="meta.media.width">1920</property>
  <property name="meta.media.height">1080</property>
 </producer>
 <producer id="producer15" in="00:00:00.000" out="00:00:04.960">
  <property name="length">00:00:05.000</property>
  <property name="eof">pause</property>
  <property name="resource">/home/duangsuse/Documents/冒泡-f000221.png</property>
  <property name="ttl">25</property>
  <property name="aspect_ratio">1</property>
  <property name="progressive">1</property>
  <property name="seekable">1</property>
  <property name="meta.media.width">620</property>
  <property name="meta.media.height">268</property>
  <property name="mlt_service">qimage</property>
  <property name="kdenlive:clipname"/>
  <property name="kdenlive:duration">00:00:05.000</property>
  <property name="kdenlive:folderid">-1</property>
  <property name="kdenlive:id">17</property>
  <property name="kdenlive:file_size">17059</property>
  <property name="kdenlive:file_hash">7e6af12b5a1b107afb1015e154c4348b</property>
 </producer>
 <producer id="producer16" in="00:00:00.000" out="00:00:04.960">
  <property name="length">00:00:05.000</property>
  <property name="eof">pause</property>
  <property name="resource">/home/duangsuse/Documents/插入-f000586.png</property>
  <property name="ttl">25</property>
  <property name="aspect_ratio">1</property>
  <property name="progressive">1</property>
  <property name="seekable">1</property>
  <property name="meta.media.width">620</property>
  <property name="meta.media.height">268</property>
  <property name="mlt_service">qimage</property>
  <property name="kdenlive:clipname"/>
  <property name="kdenlive:duration">00:00:05.000</property>
  <property name="kdenlive:folderid">-1</property>
  <property name="kdenlive:id">18</property>
  <property name="kdenlive:file_size">16941</property>
  <property name="kdenlive:file_hash">2912e9ded540a4f95331964ee55ccd3c</property>
 </producer>
 <producer id="producer17" in="00:00:00.000" out="00:00:04.960">
  <property name="length">00:00:05.000</property>
  <property name="eof">pause</property>
  <property name="resource">/home/duangsuse/Downloads/Telegram Desktop/BlackGear_SP4.png</property>
  <property name="ttl">25</property>
  <property name="aspect_ratio">1</property>
  <property name="progressive">1</property>
  <property name="seekable">1</property>
  <property name="meta.media.width">2736</property>
  <property name="meta.media.height">1824</property>
  <property name="mlt_service">qimage</property>
  <property name="kdenlive:clipname"/>
  <property name="kdenlive:duration">00:00:05.000</property>
  <property name="kdenlive:folderid">-1</property>
  <property name="kdenlive:id">19</property>
  <property name="kdenlive:file_size">1812343</property>
  <property name="kdenlive:file_hash">50da1bc8c7ddf0072944332443ac6755</property>
 </producer>
 <producer id="producer18" in="00:00:00.000" out="00:00:04.960">
  <property name="length">00:00:05.000</property>
  <property name="eof">pause</property>
  <property name="resource">插入-f000827.png</property>
  <property name="ttl">25</property>
  <property name="aspect_ratio">1</property>
  <property name="progressive">1</property>
  <property name="seekable">1</property>
  <property name="meta.media.width">620</property>
  <property name="meta.media.height">268</property>
  <property name="mlt_service">qimage</property>
  <property name="kdenlive:clipname"/>
  <property name="kdenlive:duration">00:00:05.000</property>
  <property name="kdenlive:folderid">-1</property>
  <property name="kdenlive:id">20</property>
  <property name="kdenlive:file_size">17012</property>
  <property name="kdenlive:file_hash">d44dfa5704ff3d1e6b106027c46c4975</property>
 </producer>
 <producer id="producer19" in="00:00:00.000" out="00:00:04.960">
  <property name="length">125</property>
  <property name="eof">pause</property>
  <property name="resource"/>
  <property name="progressive">1</property>
  <property name="aspect_ratio">1</property>
  <property name="seekable">1</property>
  <property name="mlt_service">kdenlivetitle</property>
  <property name="kdenlive:duration">125</property>
  <property name="kdenlive:clipname">正序(a,b)</property>
  <property name="xmldata">&lt;kdenlivetitle duration="125" LC_NUMERIC="C" width="1920" height="1080" out="124">
 &lt;item type="QGraphicsTextItem" z-index="1">
  &lt;position x="299" y="667">
   &lt;transform>1,0,0,0,1,0,0,0,1&lt;/transform>
  &lt;/position>
  &lt;content line-spacing="0" shadow="0;#64000000;3;3;3" font-underline="0" box-height="351" font="文泉驿微米黑" letter-spacing="0" font-pixel-size="100" font-italic="0" typewriter="0;2;1;0;0" alignment="2" font-weight="50" box-width="1363.84" font-color="255,255,255,255">正序(1,2) 且(1,1)真  正序(2,1)假

若 升序=真&lt;/content>
 &lt;/item>
 &lt;item type="QGraphicsTextItem" z-index="0">
  &lt;position x="548" y="331">
   &lt;transform>1,0,0,0,1,0,0,0,1&lt;/transform>
  &lt;/position>
  &lt;content shadow="0;#64000000;3;3;3" font-underline="0" box-height="226" font="文泉驿微米黑" letter-spacing="0" font-pixel-size="192" font-italic="0" typewriter="0;2;1;0;0" alignment="2" font-weight="50" box-width="758.063" font-color="255,255,255,255">正序(a,b)&lt;/content>
 &lt;/item>
 &lt;startviewport rect="0,0,1920,1080"/>
 &lt;endviewport rect="0,0,1920,1080"/>
 &lt;background color="0,0,0,0"/>
&lt;/kdenlivetitle>
</property>
  <property name="kdenlive:folderid">21</property>
  <property name="kdenlive:id">22</property>
  <property name="kdenlive:file_hash">fe76420e443cbd24edfcd49740c63fc5</property>
  <property name="force_reload">0</property>
  <property name="meta.media.width">1920</property>
  <property name="meta.media.height">1080</property>
 </producer>
 <producer id="producer20" in="00:00:00.000" out="00:00:04.960">
  <property name="length">125</property>
  <property name="eof">pause</property>
  <property name="resource"/>
  <property name="progressive">1</property>
  <property name="aspect_ratio">1</property>
  <property name="seekable">1</property>
  <property name="mlt_service">kdenlivetitle</property>
  <property name="kdenlive:duration">125</property>
  <property name="kdenlive:clipname">有序表 [1,2,3] ...</property>
  <property name="xmldata">&lt;kdenlivetitle duration="125" LC_NUMERIC="C" width="1920" height="1080" out="124">
 &lt;item type="QGraphicsTextItem" z-index="0">
  &lt;position x="378" y="304">
   &lt;transform>1,0,0,0,1,0,0,0,1&lt;/transform>
  &lt;/position>
  &lt;content shadow="0;#64000000;3;3;3" font-underline="0" box-height="585" font="文泉驿微米黑" letter-spacing="0" font-pixel-size="100" font-italic="0" typewriter="0;2;1;0;0" alignment="2" font-weight="50" box-width="737.297" font-color="255,255,255,255">有序表 [1,2,3]
[100,240,999]
[233,666]

位置小/即先者小&lt;/content>
 &lt;/item>
 &lt;startviewport rect="0,0,1920,1080"/>
 &lt;endviewport rect="0,0,1920,1080"/>
 &lt;background color="0,0,0,0"/>
&lt;/kdenlivetitle>
</property>
  <property name="kdenlive:folderid">21</property>
  <property name="kdenlive:id">23</property>
  <property name="kdenlive:file_hash">5a02c19a3047b90e151da1de86365ef9</property>
  <property name="force_reload">0</property>
  <property name="meta.media.width">1920</property>
  <property name="meta.media.height">1080</property>
 </producer>
 <producer id="producer21" in="00:00:00.000" out="00:00:04.960">
  <property name="length">125</property>
  <property name="eof">pause</property>
  <property name="resource"/>
  <property name="progressive">1</property>
  <property name="aspect_ratio">1</property>
  <property name="seekable">1</property>
  <property name="mlt_service">kdenlivetitle</property>
  <property name="kdenlive:duration">125</property>
  <property name="kdenlive:clipname">a=[1,2,3] a[...</property>
  <property name="xmldata">&lt;kdenlivetitle duration="125" LC_NUMERIC="C" width="1920" height="1080" out="124">
 &lt;item type="QGraphicsTextItem" z-index="0">
  &lt;position x="367" y="414">
   &lt;transform>1,0,0,0,1,0,0,0,1&lt;/transform>
  &lt;/position>
  &lt;content shadow="0;#64000000;3;3;3" font-underline="0" box-height="585" font-outline-color="97,53,131,255" font="文泉驿微米黑" letter-spacing="0" font-pixel-size="100" font-italic="0" typewriter="0;2;1;0;0" alignment="2" font-weight="50" font-outline="0" box-width="1105.14" font-color="255,255,255,255">a=[1,2,3]
a[2-1]=?
a[3]=?
i&amp;lt;=n(a)-1是啥乱事?
对(0~?)里的i，a[i-1]且a[i]&lt;/content>
 &lt;/item>
 &lt;startviewport rect="0,0,1920,1080"/>
 &lt;endviewport rect="0,0,1920,1080"/>
 &lt;background color="0,0,0,0"/>
&lt;/kdenlivetitle>
</property>
  <property name="kdenlive:folderid">21</property>
  <property name="kdenlive:id">24</property>
  <property name="kdenlive:file_hash">9eb33344e89558748a5f8c8bb4dfc041</property>
  <property name="force_reload">0</property>
  <property name="meta.media.width">1920</property>
  <property name="meta.media.height">1080</property>
 </producer>
 <producer id="producer22" in="00:00:00.000" out="00:00:04.960">
  <property name="length">00:00:05.000</property>
  <property name="eof">pause</property>
  <property name="resource">截图_2021-08-13_09-06-55.jpg</property>
  <property name="ttl">25</property>
  <property name="aspect_ratio">1</property>
  <property name="progressive">1</property>
  <property name="seekable">1</property>
  <property name="meta.media.width">710</property>
  <property name="meta.media.height">616</property>
  <property name="mlt_service">qimage</property>
  <property name="kdenlive:clipname"/>
  <property name="kdenlive:duration">00:00:05.000</property>
  <property name="kdenlive:folderid">21</property>
  <property name="kdenlive:id">25</property>
  <property name="kdenlive:file_size">59569</property>
  <property name="kdenlive:file_hash">cb8572f37401aa5860f80e96216b019c</property>
 </producer>
 <producer id="producer23" in="00:00:00.000" out="00:00:04.960">
  <property name="length">00:00:05.000</property>
  <property name="eof">pause</property>
  <property name="resource">截图_2021-08-13_09-06-31.jpg</property>
  <property name="ttl">25</property>
  <property name="aspect_ratio">1</property>
  <property name="progressive">1</property>
  <property name="seekable">1</property>
  <property name="meta.media.width">844</property>
  <property name="meta.media.height">291</property>
  <property name="mlt_service">qimage</property>
  <property name="kdenlive:clipname"/>
  <property name="kdenlive:duration">00:00:05.000</property>
  <property name="kdenlive:folderid">21</property>
  <property name="kdenlive:id">26</property>
  <property name="kdenlive:file_size">31171</property>
  <property name="kdenlive:file_hash">96523efd84483596173752d95656ba6e</property>
 </producer>
 <producer id="producer24" in="00:00:00.000" out="00:00:04.960">
  <property name="length">00:00:05.000</property>
  <property name="eof">pause</property>
  <property name="resource">截图_2021-08-13_09-06-17.jpg</property>
  <property name="ttl">25</property>
  <property name="aspect_ratio">1</property>
  <property name="progressive">1</property>
  <property name="seekable">1</property>
  <property name="meta.media.width">901</property>
  <property name="meta.media.height">489</property>
  <property name="mlt_service">qimage</property>
  <property name="kdenlive:clipname"/>
  <property name="kdenlive:duration">00:00:05.000</property>
  <property name="kdenlive:folderid">21</property>
  <property name="kdenlive:id">27</property>
  <property name="kdenlive:file_size">64309</property>
  <property name="kdenlive:file_hash">2b9216ee8249b224a62a774a6970bdb7</property>
 </producer>
 <producer id="producer25" in="00:00:00.000" out="00:00:04.960">
  <property name="length">00:00:05.000</property>
  <property name="eof">pause</property>
  <property name="resource">ava.jpeg</property>
  <property name="ttl">25</property>
  <property name="aspect_ratio">1</property>
  <property name="progressive">1</property>
  <property name="seekable">1</property>
  <property name="meta.media.width">1123</property>
  <property name="meta.media.height">418</property>
  <property name="mlt_service">qimage</property>
  <property name="kdenlive:clipname"/>
  <property name="kdenlive:duration">00:00:05.000</property>
  <property name="kdenlive:folderid">21</property>
  <property name="kdenlive:id">28</property>
  <property name="kdenlive:file_size">75699</property>
  <property name="kdenlive:file_hash">6b1ca12be3c395e6f6d2d426f7c70e2c</property>
 </producer>
 <producer id="producer26" in="00:00:00.000" out="00:00:10.280">
  <property name="length">258</property>
  <property name="eof">pause</property>
  <property name="resource"/>
  <property name="progressive">1</property>
  <property name="aspect_ratio">1</property>
  <property name="seekable">1</property>
  <property name="mlt_service">kdenlivetitle</property>
  <property name="kdenlive:duration">125</property>
  <property name="kdenlive:clipname">a是列表,任何i 是 0...</property>
  <property name="xmldata">&lt;kdenlivetitle duration="125" LC_NUMERIC="C" width="1920" height="1080" out="124">
 &lt;item type="QGraphicsTextItem" z-index="0">
  &lt;position x="153" y="392">
   &lt;transform>1,0,0,0,1,0,0,0,1&lt;/transform>
  &lt;/position>
  &lt;content line-spacing="0" shadow="0;#64000000;3;3;3" font-underline="0" box-height="351" font-outline-color="97,53,131,255" font="文泉驿微米黑" letter-spacing="0" font-pixel-size="100" font-italic="0" typewriter="0;2;1;0;0" alignment="1" font-weight="50" font-outline="0" box-width="1763.34" font-color="255,255,255,255">a是列表,任何i 是 0~N(a)-1 中的索引号，
复习下0是第一项，如 [1,2] 长N=2
区间 0~1,即末引&lt;/content>
 &lt;/item>
 &lt;startviewport rect="0,0,1920,1080"/>
 &lt;endviewport rect="0,0,1920,1080"/>
 &lt;background color="0,0,0,0"/>
&lt;/kdenlivetitle>
</property>
  <property name="kdenlive:folderid">21</property>
  <property name="kdenlive:id">29</property>
  <property name="kdenlive:file_hash">5bf3f855b5994bd9e0cb0f1357611cea</property>
  <property name="force_reload">0</property>
  <property name="meta.media.width">1920</property>
  <property name="meta.media.height">1080</property>
 </producer>
 <producer id="producer27" in="00:00:00.000" out="00:00:04.960">
  <property name="length">125</property>
  <property name="eof">pause</property>
  <property name="resource"/>
  <property name="progressive">1</property>
  <property name="aspect_ratio">1</property>
  <property name="seekable">1</property>
  <property name="mlt_service">kdenlivetitle</property>
  <property name="kdenlive:duration">125</property>
  <property name="kdenlive:clipname">有点慢:/</property>
  <property name="xmldata">&lt;kdenlivetitle duration="125" LC_NUMERIC="C" width="1920" height="1080" out="124">
 &lt;item type="QGraphicsTextItem" z-index="0">
  &lt;position x="1314" y="759">
   &lt;transform>1,0,0,0,1,0,0,0,1&lt;/transform>
  &lt;/position>
  &lt;content line-spacing="0" shadow="0;#64000000;3;3;3" font-underline="0" box-height="118" font="文泉驿微米黑" letter-spacing="0" font-pixel-size="100" font-italic="0" typewriter="0;2;1;0;0" alignment="2" font-weight="50" gradient="#ff0935b7;#ffe01b24;23;100;58" box-width="364.094" font-color="0,0,0,255">有点慢:/&lt;/content>
 &lt;/item>
 &lt;startviewport rect="0,0,1920,1080"/>
 &lt;endviewport rect="0,0,1920,1080"/>
 &lt;background color="0,0,0,0"/>
&lt;/kdenlivetitle>
</property>
  <property name="kdenlive:folderid">21</property>
  <property name="kdenlive:id">30</property>
  <property name="kdenlive:file_hash">2d8772543a5b2ab2b213576cd08f771a</property>
  <property name="force_reload">0</property>
  <property name="meta.media.width">1920</property>
  <property name="meta.media.height">1080</property>
 </producer>
 <producer id="producer28" in="00:00:00.000" out="00:00:04.960">
  <property name="length">125</property>
  <property name="eof">pause</property>
  <property name="resource"/>
  <property name="progressive">1</property>
  <property name="aspect_ratio">1</property>
  <property name="seekable">1</property>
  <property name="mlt_service">kdenlivetitle</property>
  <property name="kdenlive:duration">125</property>
  <property name="kdenlive:clipname">快速排序不选中点反用左点...</property>
  <property name="xmldata">&lt;kdenlivetitle duration="125" LC_NUMERIC="C" width="1920" height="1080" out="124">
 &lt;item type="QGraphicsTextItem" z-index="0">
  &lt;position x="446" y="669">
   &lt;transform>1,0,0,0,1,0,0,0,1&lt;/transform>
  &lt;/position>
  &lt;content line-spacing="0" shadow="0;#64000000;3;3;3" font-underline="0" box-height="178" font-outline-color="97,53,131,255" font="文泉驿微米黑" letter-spacing="0" font-pixel-size="76" font-italic="0" typewriter="0;2;1;0;0" alignment="2" font-weight="50" font-outline="0" box-width="1292" font-color="0,0,0,255">快速排序不选中点反用左点肯定一样慢
不过插入排序是许多算法的子流程&lt;/content>
 &lt;/item>
 &lt;startviewport rect="0,0,1920,1080"/>
 &lt;endviewport rect="0,0,1920,1080"/>
 &lt;background color="0,0,0,0"/>
&lt;/kdenlivetitle>
</property>
  <property name="kdenlive:folderid">21</property>
  <property name="kdenlive:id">31</property>
  <property name="kdenlive:file_hash">87c77e9283118dc947cca857eb9e09d8</property>
  <property name="force_reload">0</property>
  <property name="meta.media.width">1920</property>
  <property name="meta.media.height">1080</property>
 </producer>
 <producer id="producer29" in="00:00:00.000" out="00:00:04.960">
  <property name="length">125</property>
  <property name="eof">pause</property>
  <property name="resource"/>
  <property name="progressive">1</property>
  <property name="aspect_ratio">1</property>
  <property name="seekable">1</property>
  <property name="mlt_service">kdenlivetitle</property>
  <property name="kdenlive:duration">125</property>
  <property name="kdenlive:clipname">俩指针带着局部最大值 8...</property>
  <property name="xmldata">&lt;kdenlivetitle duration="125" LC_NUMERIC="C" width="1920" height="1080" out="124">
 &lt;item type="QGraphicsTextItem" z-index="0">
  &lt;position x="815" y="607">
   &lt;transform>1,0,0,0,1,0,0,0,1&lt;/transform>
  &lt;/position>
  &lt;content line-spacing="0" shadow="0;#64000000;3;3;3" font-underline="0" box-height="294" font-outline-color="97,53,131,255" font="文泉驿微米黑" letter-spacing="0" font-pixel-size="84" font-italic="0" typewriter="0;2;1;0;0" alignment="2" font-weight="50" font-outline="0" box-width="840" font-color="0,0,0,255">俩指针带着局部最大值
8跑到右边
它俩甩掉了之前的6&lt;/content>
 &lt;/item>
 &lt;startviewport rect="0,0,1920,1080"/>
 &lt;endviewport rect="0,0,1920,1080"/>
 &lt;background color="0,0,0,0"/>
&lt;/kdenlivetitle>
</property>
  <property name="kdenlive:folderid">21</property>
  <property name="kdenlive:id">32</property>
  <property name="kdenlive:file_hash">f5c57cdbbb12dd1eca73f0f075a61ac4</property>
  <property name="force_reload">0</property>
  <property name="meta.media.width">1920</property>
  <property name="meta.media.height">1080</property>
 </producer>
 <producer id="producer30" in="00:00:00.000" out="00:00:09.200">
  <property name="length">231</property>
  <property name="eof">pause</property>
  <property name="resource"/>
  <property name="progressive">1</property>
  <property name="aspect_ratio">1</property>
  <property name="seekable">1</property>
  <property name="mlt_service">kdenlivetitle</property>
  <property name="kdenlive:duration">125</property>
  <property name="kdenlive:clipname">中间步骤很复杂但程序模式...</property>
  <property name="xmldata">&lt;kdenlivetitle duration="125" LC_NUMERIC="C" width="1920" height="1080" out="124">
 &lt;item type="QGraphicsTextItem" z-index="0">
  &lt;position x="432" y="544">
   &lt;transform>1,0,0,0,1,0,0,0,1&lt;/transform>
  &lt;/position>
  &lt;content shadow="0;#64000000;3;3;3" font-underline="0" box-height="392" font-outline-color="97,53,131,255" font="文泉驿微米黑" letter-spacing="0" font-pixel-size="84" font-italic="0" typewriter="0;2;1;0;0" alignment="2" font-weight="50" font-outline="0" box-width="1260" font-color="0,0,0,255">中间步骤很复杂但程序模式很简单

for(i=1;i&amp;lt;i1;i)令序(a,i-1,i);
没错它的变量集和插排一样&lt;/content>
 &lt;/item>
 &lt;startviewport rect="0,0,1920,1080"/>
 &lt;endviewport rect="0,0,1920,1080"/>
 &lt;background color="0,0,0,0"/>
&lt;/kdenlivetitle>
</property>
  <property name="kdenlive:folderid">21</property>
  <property name="kdenlive:id">33</property>
  <property name="kdenlive:file_hash">c2b8cdcb0854583d8f9f70a58fe6380a</property>
  <property name="force_reload">0</property>
  <property name="meta.media.width">1920</property>
  <property name="meta.media.height">1080</property>
 </producer>
 <producer id="producer31" in="00:00:00.000" out="00:00:11.120">
  <property name="length">279</property>
  <property name="eof">pause</property>
  <property name="resource"/>
  <property name="progressive">1</property>
  <property name="aspect_ratio">1</property>
  <property name="seekable">1</property>
  <property name="mlt_service">kdenlivetitle</property>
  <property name="kdenlive:duration">125</property>
  <property name="kdenlive:clipname">快排以中点(i1-i0)...</property>
  <property name="xmldata">&lt;kdenlivetitle duration="125" LC_NUMERIC="C" width="1920" height="1080" out="124">
 &lt;item type="QGraphicsTextItem" z-index="0">
  &lt;position x="48" y="149">
   &lt;transform>1,0,0,0,1,0,0,0,1&lt;/transform>
  &lt;/position>
  &lt;content line-spacing="0" shadow="0;#64000000;3;3;3" font-underline="0" box-height="784" font-outline-color="97,53,131,255" font="文泉驿微米黑" letter-spacing="0" font-pixel-size="84" font-italic="0" typewriter="0;2;1;0;0" alignment="1" font-weight="50" font-outline="0" box-width="1764" font-color="255,255,255,255">快排以中点(i1-i0)/2 把列表划分成
&amp;lt;它,>=它 的两部分，
并对其施用自身，直到&amp;lt;2项的绝对有序情况

合并以中点把列表分成两个子表，直到&amp;lt;2项，
每层开始把自己的两列项
按其[0]位小先移除的顺序输出，
直到两边清空，所以每层的左右列是各自有序的&lt;/content>
 &lt;/item>
 &lt;startviewport rect="0,0,1920,1080"/>
 &lt;endviewport rect="0,0,1920,1080"/>
 &lt;background color="0,0,0,0"/>
&lt;/kdenlivetitle>
</property>
  <property name="kdenlive:folderid">21</property>
  <property name="kdenlive:id">34</property>
  <property name="kdenlive:file_hash">99a1a2112c6bfd27362cb743393614fb</property>
  <property name="force_reload">0</property>
  <property name="meta.media.width">1920</property>
  <property name="meta.media.height">1080</property>
 </producer>
 <producer id="producer32" in="00:00:00.000" out="00:00:06.840">
  <property name="length">172</property>
  <property name="eof">pause</property>
  <property name="resource"/>
  <property name="progressive">1</property>
  <property name="aspect_ratio">1</property>
  <property name="seekable">1</property>
  <property name="mlt_service">kdenlivetitle</property>
  <property name="kdenlive:duration">125</property>
  <property name="kdenlive:clipname">这是即地快排，对左侧每项...</property>
  <property name="xmldata">&lt;kdenlivetitle duration="125" LC_NUMERIC="C" width="1920" height="1080" out="124">
 &lt;item type="QGraphicsTextItem" z-index="0">
  &lt;position x="356" y="627">
   &lt;transform>1,0,0,0,1,0,0,0,1&lt;/transform>
  &lt;/position>
  &lt;content line-spacing="0" shadow="0;#64000000;3;3;3" font-underline="0" box-height="196" font-outline-color="97,53,131,255" font="文泉驿微米黑" letter-spacing="0" font-pixel-size="84" font-italic="0" typewriter="0;2;1;0;0" alignment="2" font-weight="50" font-outline="0" box-width="1512" font-color="0,0,0,255">这是即地快排，对左侧每项试与右侧交换
正常版只会收集两个子列&lt;/content>
 &lt;/item>
 &lt;startviewport rect="0,0,1920,1080"/>
 &lt;endviewport rect="0,0,1920,1080"/>
 &lt;background color="0,0,0,0"/>
&lt;/kdenlivetitle>
</property>
  <property name="kdenlive:folderid">21</property>
  <property name="kdenlive:id">35</property>
  <property name="kdenlive:file_hash">f111e16f0114ecc0706bcbc86efdfb0a</property>
  <property name="force_reload">0</property>
  <property name="meta.media.width">1920</property>
  <property name="meta.media.height">1080</property>
 </producer>
 <producer id="producer33" in="00:00:00.000" out="00:00:07.600">
  <property name="length">191</property>
  <property name="eof">pause</property>
  <property name="resource"/>
  <property name="progressive">1</property>
  <property name="aspect_ratio">1</property>
  <property name="seekable">1</property>
  <property name="mlt_service">kdenlivetitle</property>
  <property name="kdenlive:duration">125</property>
  <property name="kdenlive:clipname">初次归并 a[iO++]...</property>
  <property name="xmldata">&lt;kdenlivetitle duration="125" LC_NUMERIC="C" width="1920" height="1080" out="124">
 &lt;item type="QGraphicsTextItem" z-index="0">
  &lt;position x="956" y="778">
   &lt;transform>1,0,0,0,1,0,0,0,1&lt;/transform>
  &lt;/position>
  &lt;content shadow="0;#64000000;3;3;3" font-underline="0" box-height="99" font="文泉驿微米黑" letter-spacing="0" font-pixel-size="84" font-italic="0" typewriter="0;2;1;0;0" alignment="2" font-weight="50" box-width="844.203" font-color="0,0,0,255">初次显眼归并 a[iO++]=&lt;/content>
 &lt;/item>
 &lt;startviewport rect="0,0,1920,1080"/>
 &lt;endviewport rect="0,0,1920,1080"/>
 &lt;background color="0,0,0,0"/>
&lt;/kdenlivetitle>
</property>
  <property name="kdenlive:folderid">21</property>
  <property name="kdenlive:id">36</property>
  <property name="kdenlive:file_hash">e6ec8920909d2c4d4e5d36e36b1892b2</property>
  <property name="force_reload">0</property>
  <property name="meta.media.width">1920</property>
  <property name="meta.media.height">1080</property>
 </producer>
 <producer id="producer34" in="00:00:00.000" out="00:00:04.960">
  <property name="length">125</property>
  <property name="eof">pause</property>
  <property name="resource"/>
  <property name="progressive">1</property>
  <property name="aspect_ratio">1</property>
  <property name="seekable">1</property>
  <property name="mlt_service">kdenlivetitle</property>
  <property name="kdenlive:duration">125</property>
  <property name="kdenlive:clipname">顶层归并如同其下层，无差...</property>
  <property name="xmldata">&lt;kdenlivetitle duration="125" LC_NUMERIC="C" width="1920" height="1080" out="124">
 &lt;item type="QGraphicsTextItem" z-index="0">
  &lt;position x="678" y="817">
   &lt;transform>1,0,0,0,1,0,0,0,1&lt;/transform>
  &lt;/position>
  &lt;content shadow="0;#64000000;3;3;3" font-underline="0" box-height="99" font="文泉驿微米黑" letter-spacing="0" font-pixel-size="84" font-italic="0" typewriter="0;2;1;0;0" alignment="2" font-weight="50" box-width="1092" font-color="0,0,0,255">顶层归并如同其下层，不特殊&lt;/content>
 &lt;/item>
 &lt;startviewport rect="0,0,1920,1080"/>
 &lt;endviewport rect="0,0,1920,1080"/>
 &lt;background color="0,0,0,0"/>
&lt;/kdenlivetitle>
</property>
  <property name="kdenlive:folderid">21</property>
  <property name="kdenlive:id">37</property>
  <property name="kdenlive:file_hash">5149fd7744e6552a1d696f54e4e0abe9</property>
  <property name="force_reload">0</property>
  <property name="meta.media.width">1920</property>
  <property name="meta.media.height">1080</property>
 </producer>
 <producer id="producer35" in="00:00:00.000" out="00:00:04.960">
  <property name="length">125</property>
  <property name="eof">pause</property>
  <property name="resource"/>
  <property name="progressive">1</property>
  <property name="aspect_ratio">1</property>
  <property name="seekable">1</property>
  <property name="mlt_service">kdenlivetitle</property>
  <property name="kdenlive:duration">125</property>
  <property name="kdenlive:clipname">杂七杂八的示例 源码可在...</property>
  <property name="xmldata">&lt;kdenlivetitle duration="125" LC_NUMERIC="C" width="1920" height="1080" out="124">
 &lt;item type="QGraphicsTextItem" z-index="0">
  &lt;position x="309" y="494">
   &lt;transform>1,0,0,0,1,0,0,0,1&lt;/transform>
  &lt;/position>
  &lt;content shadow="0;#64000000;3;3;3" font-underline="0" box-height="392" font="文泉驿微米黑" letter-spacing="0" font-pixel-size="84" font-italic="0" typewriter="0;2;1;0;0" alignment="2" font-weight="50" box-width="1494.45" font-color="0,0,0,255">杂七杂八的示例
源码可在 github1s.com:
duangsuse/mkey/making_reco/sorts3.js
访问&lt;/content>
 &lt;/item>
 &lt;startviewport rect="0,0,1920,1080"/>
 &lt;endviewport rect="0,0,1920,1080"/>
 &lt;background color="0,0,0,0"/>
&lt;/kdenlivetitle>
</property>
  <property name="kdenlive:folderid">-1</property>
  <property name="kdenlive:id">38</property>
  <property name="kdenlive:file_hash">5a229c7b39def6478ec345c469843d04</property>
  <property name="force_reload">0</property>
  <property name="meta.media.width">1920</property>
  <property name="meta.media.height">1080</property>
 </producer>
 <producer id="producer36" in="00:00:00.000" out="00:00:08.160">
  <property name="length">205</property>
  <property name="eof">pause</property>
  <property name="resource"/>
  <property name="progressive">1</property>
  <property name="aspect_ratio">1</property>
  <property name="seekable">1</property>
  <property name="mlt_service">kdenlivetitle</property>
  <property name="kdenlive:duration">125</property>
  <property name="kdenlive:clipname">选择、插入、冒泡排序复杂...</property>
  <property name="xmldata">&lt;kdenlivetitle duration="125" LC_NUMERIC="C" width="1920" height="1080" out="124">
 &lt;item type="QGraphicsTextItem" z-index="0">
  &lt;position x="354" y="520">
   &lt;transform>1,0,0,0,1,0,0,0,1&lt;/transform>
  &lt;/position>
  &lt;content shadow="0;#64000000;3;3;3" font-underline="0" box-height="294" font="文泉驿微米黑" letter-spacing="0" font-pixel-size="84" font-italic="0" typewriter="0;2;1;0;0" alignment="2" font-weight="50" box-width="1365.73" font-color="0,0,0,255">选择、插入、冒泡排序复杂度O(n*n)
第二层循环对选择是取 min&amp;amp;pop ，
对插入冒泡是i值的迭代，功能上类似&lt;/content>
 &lt;/item>
 &lt;startviewport rect="0,0,1920,1080"/>
 &lt;endviewport rect="0,0,1920,1080"/>
 &lt;background color="0,0,0,0"/>
&lt;/kdenlivetitle>
</property>
  <property name="kdenlive:folderid">21</property>
  <property name="kdenlive:id">39</property>
  <property name="kdenlive:file_hash">a32c3d760177e332254aacc849986ba1</property>
  <property name="force_reload">0</property>
  <property name="meta.media.width">1920</property>
  <property name="meta.media.height">1080</property>
 </producer>
 <producer id="producer37" in="00:00:00.000" out="00:00:08.600">
  <property name="length">216</property>
  <property name="eof">pause</property>
  <property name="resource"/>
  <property name="progressive">1</property>
  <property name="aspect_ratio">1</property>
  <property name="seekable">1</property>
  <property name="mlt_service">kdenlivetitle</property>
  <property name="kdenlive:duration">125</property>
  <property name="kdenlive:clipname">快速排序 O(n*log...</property>
  <property name="xmldata">&lt;kdenlivetitle duration="125" LC_NUMERIC="C" width="1920" height="1080" out="124">
 &lt;item type="QGraphicsTextItem" z-index="1">
  &lt;position x="356" y="641">
   &lt;transform>1,0,0,0,1,0,0,0,1&lt;/transform>
  &lt;/position>
  &lt;content line-spacing="0" shadow="0;#64000000;3;3;3" font-underline="0" box-height="99" font="文泉驿微米黑" letter-spacing="0" font-pixel-size="84" font-italic="0" typewriter="0;2;1;0;0" alignment="2" font-weight="50" box-width="817.781" font-color="0,0,0,255">快速排序 O(n*log2 n) &lt;/content>
 &lt;/item>
 &lt;item type="QGraphicsTextItem" z-index="0">
  &lt;position x="155" y="701">
   &lt;transform>1,0,0,0,1,0,0,0,1&lt;/transform>
  &lt;/position>
  &lt;content line-spacing="0" shadow="0;#64000000;3;3;3" font-underline="0" box-height="392" font="文泉驿微米黑" letter-spacing="0" font-pixel-size="84" font-italic="0" typewriter="0;2;1;0;0" alignment="1" font-weight="50" box-width="1731.53" font-color="255,255,255,255">
第一个 n 是每层级所有子表总长，
log 是乘方求底数，此处是中点二分的层深度，
 x=log2 n, x**2=n &lt;/content>
 &lt;/item>
 &lt;startviewport rect="0,0,1920,1080"/>
 &lt;endviewport rect="0,0,1920,1080"/>
 &lt;background color="0,0,0,0"/>
&lt;/kdenlivetitle>
</property>
  <property name="kdenlive:folderid">21</property>
  <property name="kdenlive:id">40</property>
  <property name="kdenlive:file_hash">92024fffc062528b99ddbcc16162c9b4</property>
  <property name="force_reload">0</property>
  <property name="meta.media.width">1920</property>
  <property name="meta.media.height">1080</property>
 </producer>
 <producer id="producer38" in="00:00:00.000" out="00:00:06.080">
  <property name="length">153</property>
  <property name="eof">pause</property>
  <property name="resource"/>
  <property name="progressive">1</property>
  <property name="aspect_ratio">1</property>
  <property name="seekable">1</property>
  <property name="mlt_service">kdenlivetitle</property>
  <property name="kdenlive:duration">125</property>
  <property name="kdenlive:clipname">希尔Shell排序、Ti...</property>
  <property name="xmldata">&lt;kdenlivetitle duration="125" LC_NUMERIC="C" width="1920" height="1080" out="124">
 &lt;item type="QGraphicsTextItem" z-index="0">
  &lt;position x="772" y="853">
   &lt;transform>1,0,0,0,1,0,0,0,1&lt;/transform>
  &lt;/position>
  &lt;content shadow="0;#64000000;3;3;3" font-underline="0" box-height="99" font="文泉驿微米黑" letter-spacing="0" font-pixel-size="84" font-italic="0" typewriter="0;2;1;0;0" alignment="2" font-weight="50" box-width="891.875" font-color="255,255,255,255">希尔Shell排序、TimSort&lt;/content>
 &lt;/item>
 &lt;startviewport rect="0,0,1920,1080"/>
 &lt;endviewport rect="0,0,1920,1080"/>
 &lt;background color="0,0,0,0"/>
&lt;/kdenlivetitle>
</property>
  <property name="kdenlive:folderid">21</property>
  <property name="kdenlive:id">41</property>
  <property name="kdenlive:file_hash">759aa6449c430eb253eb1e53218b0ba0</property>
  <property name="force_reload">0</property>
  <property name="meta.media.width">1920</property>
  <property name="meta.media.height">1080</property>
 </producer>
 <producer id="producer39" in="00:00:00.000" out="00:00:04.960">
  <property name="length">125</property>
  <property name="eof">pause</property>
  <property name="resource"/>
  <property name="progressive">1</property>
  <property name="aspect_ratio">1</property>
  <property name="seekable">1</property>
  <property name="mlt_service">kdenlivetitle</property>
  <property name="kdenlive:duration">125</property>
  <property name="kdenlive:clipname">学生成绩排行榜需排序 数...</property>
  <property name="xmldata">&lt;kdenlivetitle duration="125" LC_NUMERIC="C" width="1920" height="1080" out="124">
 &lt;item type="QGraphicsTextItem" z-index="0">
  &lt;position x="264" y="155">
   &lt;transform>1,0,0,0,1,0,0,0,1&lt;/transform>
  &lt;/position>
  &lt;content shadow="0;#64000000;3;3;3" font-underline="0" box-height="784" font-outline-color="97,53,131,255" font="文泉驿微米黑" letter-spacing="0" font-pixel-size="84" font-italic="0" typewriter="0;2;1;0;0" alignment="2" font-weight="50" font-outline="0" box-width="1571.98" font-color="255,255,255,255">学生成绩排行榜需排序
数据库 order by 子句排序结果行
推荐算法收集到结果也要按每值权重排序
文件浏览按时间名字降升序
你会期望火车候车室车次列表按开点升序

生活中没有一刻能离开排序算法
但它却遁形于一个 ([2,1]).sort() 数组上操作&lt;/content>
 &lt;/item>
 &lt;startviewport rect="0,0,1920,1080"/>
 &lt;endviewport rect="0,0,1920,1080"/>
 &lt;background color="0,0,0,0"/>
&lt;/kdenlivetitle>
</property>
  <property name="kdenlive:folderid">21</property>
  <property name="kdenlive:id">42</property>
  <property name="kdenlive:file_hash">2dc5a241ce71ea9b74878d5b3a10e611</property>
  <property name="force_reload">0</property>
  <property name="meta.media.width">1920</property>
  <property name="meta.media.height">1080</property>
  <property name="global_feed">1</property>
 </producer>
 <producer id="producer40" in="00:00:00.000" out="00:00:07.320">
  <property name="length">184</property>
  <property name="eof">pause</property>
  <property name="resource"/>
  <property name="progressive">1</property>
  <property name="aspect_ratio">1</property>
  <property name="seekable">1</property>
  <property name="mlt_service">kdenlivetitle</property>
  <property name="kdenlive:duration">125</property>
  <property name="kdenlive:clipname">《我觉得会易懂》</property>
  <property name="xmldata">&lt;kdenlivetitle duration="125" LC_NUMERIC="C" width="1920" height="1080" out="124">
 &lt;item type="QGraphicsTextItem" z-index="1">
  &lt;position x="601" y="677">
   &lt;transform>1,0,0,0,1,0,0,0,1&lt;/transform>
  &lt;/position>
  &lt;content line-spacing="0" shadow="0;#64000000;3;3;3" font-underline="0" box-height="196" font-outline-color="97,53,131,255" font="文泉驿微米黑" letter-spacing="0" font-pixel-size="84" font-italic="0" typewriter="0;2;1;0;0" alignment="4" font-weight="50" font-outline="0" box-width="596.531" font-color="255,255,255,255">1&amp;lt;2&amp;lt;15
蚂蚁&amp;lt;蜗牛&amp;lt;猴子&lt;/content>
 &lt;/item>
 &lt;item type="QGraphicsTextItem" z-index="0">
  &lt;position x="572" y="379">
   &lt;transform>1,0,0,0,1,0,0,0,1&lt;/transform>
  &lt;/position>
  &lt;content shadow="0;#64000000;3;3;3" font-underline="0" box-height="99" font="文泉驿微米黑" letter-spacing="0" font-pixel-size="84" font-italic="0" typewriter="0;2;1;0;0" alignment="2" font-weight="50" box-width="672" font-color="255,255,255,255">《我觉得会易懂》&lt;/content>
 &lt;/item>
 &lt;startviewport rect="0,0,1920,1080"/>
 &lt;endviewport rect="0,0,1920,1080"/>
 &lt;background color="0,0,0,0"/>
&lt;/kdenlivetitle>
</property>
  <property name="kdenlive:folderid">21</property>
  <property name="kdenlive:id">43</property>
  <property name="kdenlive:file_hash">34fdeb2c5788a559893444d135b39a48</property>
  <property name="force_reload">0</property>
  <property name="meta.media.width">1920</property>
  <property name="meta.media.height">1080</property>
 </producer>
 <producer id="producer41" in="00:00:00.000" out="00:00:04.960">
  <property name="length">125</property>
  <property name="eof">pause</property>
  <property name="resource"/>
  <property name="progressive">1</property>
  <property name="aspect_ratio">1</property>
  <property name="seekable">1</property>
  <property name="mlt_service">kdenlivetitle</property>
  <property name="kdenlive:duration">125</property>
  <property name="kdenlive:clipname">def 选择排序(a):...</property>
  <property name="xmldata">&lt;kdenlivetitle duration="125" LC_NUMERIC="C" width="1920" height="1080" out="124">
 &lt;item type="QGraphicsTextItem" z-index="0">
  &lt;position x="338" y="161">
   &lt;transform>1,0,0,0,1,0,0,0,1&lt;/transform>
  &lt;/position>
  &lt;content line-spacing="0" shadow="0;#64000000;3;3;3" font-underline="0" box-height="784" font-outline-color="97,53,131,255" font="文泉驿微米黑" letter-spacing="0" font-pixel-size="84" font-italic="0" typewriter="0;2;1;0;0" alignment="1" font-weight="50" font-outline="0" box-width="1326.55" font-color="255,255,255,255">def 选择排序(a):
  果=[]
  while 长(a)!=0: 添(果, 删(a,极小(a)))
  return 果

长=len;极小=min
def 添(a,x):a.append(x)
def 删(a,x):a.remove(x);return x&lt;/content>
 &lt;/item>
 &lt;startviewport rect="0,0,1920,1080"/>
 &lt;endviewport rect="0,0,1920,1080"/>
 &lt;background color="0,0,0,0"/>
&lt;/kdenlivetitle>
</property>
  <property name="kdenlive:folderid">21</property>
  <property name="kdenlive:id">44</property>
  <property name="kdenlive:file_hash">48451a5db4f5ea3555ee8dc8796a3b37</property>
  <property name="force_reload">0</property>
  <property name="meta.media.width">1920</property>
  <property name="meta.media.height">1080</property>
  <property name="global_feed">1</property>
 </producer>
 <producer id="producer42" in="00:00:00.000" out="00:00:04.960">
  <property name="length">125</property>
  <property name="eof">pause</property>
  <property name="resource"/>
  <property name="progressive">1</property>
  <property name="aspect_ratio">1</property>
  <property name="seekable">1</property>
  <property name="mlt_service">kdenlivetitle</property>
  <property name="kdenlive:duration">125</property>
  <property name="kdenlive:clipname">字幕剪辑</property>
  <property name="xmldata">&lt;kdenlivetitle duration="125" LC_NUMERIC="C" width="1920" height="1080" out="124">
 &lt;item type="QGraphicsTextItem" z-index="0">
  &lt;position x="1402" y="701">
   &lt;transform>1,0,0,0,1,0,0,0,1&lt;/transform>
  &lt;/position>
  &lt;content line-spacing="0" shadow="0;#64000000;3;3;3" font-underline="0" box-height="207" font="文泉驿微米黑" letter-spacing="0" font-pixel-size="176" font-italic="0" typewriter="0;2;1;0;0" alignment="2" font-weight="50" box-width="528" font-color="249,240,107,255">好耶！&lt;/content>
 &lt;/item>
 &lt;startviewport rect="0,0,1920,1080"/>
 &lt;endviewport rect="0,0,1920,1080"/>
 &lt;background color="0,0,0,0"/>
&lt;/kdenlivetitle>
</property>
  <property name="kdenlive:folderid">21</property>
  <property name="kdenlive:id">45</property>
  <property name="kdenlive:file_hash">cc4ccfada53a4ba9d8a57c57af2e42a9</property>
  <property name="force_reload">0</property>
  <property name="meta.media.width">1920</property>
  <property name="meta.media.height">1080</property>
 </producer>
 <producer id="producer43" in="00:00:00.000" out="00:00:04.960">
  <property name="length">00:00:05.000</property>
  <property name="eof">pause</property>
  <property name="resource">截图_2021-08-13_16-11-01.jpg</property>
  <property name="ttl">25</property>
  <property name="aspect_ratio">1</property>
  <property name="progressive">1</property>
  <property name="seekable">1</property>
  <property name="meta.media.width">624</property>
  <property name="meta.media.height">525</property>
  <property name="mlt_service">qimage</property>
  <property name="kdenlive:clipname"/>
  <property name="kdenlive:duration">00:00:05.000</property>
  <property name="kdenlive:folderid">21</property>
  <property name="kdenlive:id">46</property>
  <property name="kdenlive:file_size">46221</property>
  <property name="kdenlive:file_hash">84d0b5a0bf3be38d61b6e50191b4bd9f</property>
 </producer>
 <producer id="producer44" in="00:00:00.000" out="00:00:04.960">
  <property name="length">00:00:05.000</property>
  <property name="eof">pause</property>
  <property name="resource">截图_2021-08-13_16-09-07.jpg</property>
  <property name="ttl">25</property>
  <property name="aspect_ratio">1</property>
  <property name="progressive">1</property>
  <property name="seekable">1</property>
  <property name="meta.media.width">582</property>
  <property name="meta.media.height">500</property>
  <property name="mlt_service">qimage</property>
  <property name="kdenlive:clipname"/>
  <property name="kdenlive:duration">00:00:05.000</property>
  <property name="kdenlive:folderid">21</property>
  <property name="kdenlive:id">47</property>
  <property name="kdenlive:file_size">57948</property>
  <property name="kdenlive:file_hash">bf198c10f66e48f645d45d9e8fcaac6b</property>
 </producer>
 <producer id="producer45" in="00:00:00.000" out="00:00:04.960">
  <property name="length">125</property>
  <property name="eof">pause</property>
  <property name="resource"/>
  <property name="progressive">1</property>
  <property name="aspect_ratio">1</property>
  <property name="seekable">1</property>
  <property name="mlt_service">kdenlivetitle</property>
  <property name="kdenlive:duration">125</property>
  <property name="kdenlive:clipname">凡你所见皆是虚妄， 仅你...</property>
  <property name="xmldata">&lt;kdenlivetitle duration="125" LC_NUMERIC="C" width="1920" height="1080" out="124">
 &lt;item type="QGraphicsTextItem" z-index="0">
  &lt;position x="529" y="295">
   &lt;transform>1,0,0,0,1,0,0,0,1&lt;/transform>
  &lt;/position>
  &lt;content line-spacing="0" shadow="0;#64000000;3;3;3" font-underline="0" box-height="490" font-outline-color="97,53,131,255" font="文泉驿微米黑" letter-spacing="0" font-pixel-size="84" font-italic="0" typewriter="0;2;1;0;0" alignment="2" font-weight="50" font-outline="0" box-width="756" font-color="255,255,255,255">凡你所见皆是虚妄，
仅你所想才是真实。

面向试错才能编程
不如回家种红薯&lt;/content>
 &lt;/item>
 &lt;startviewport rect="0,0,1920,1080"/>
 &lt;endviewport rect="0,0,1920,1080"/>
 &lt;background color="0,0,0,0"/>
&lt;/kdenlivetitle>
</property>
  <property name="kdenlive:folderid">21</property>
  <property name="kdenlive:id">48</property>
  <property name="kdenlive:file_hash">bc8429afd55542767128b06cff183c11</property>
  <property name="force_reload">0</property>
  <property name="meta.media.width">1920</property>
  <property name="meta.media.height">1080</property>
 </producer>
 <producer id="producer46" in="00:00:00.000" out="00:00:04.960">
  <property name="length">125</property>
  <property name="eof">pause</property>
  <property name="resource"/>
  <property name="progressive">1</property>
  <property name="aspect_ratio">1</property>
  <property name="seekable">1</property>
  <property name="mlt_service">kdenlivetitle</property>
  <property name="kdenlive:duration">125</property>
  <property name="kdenlive:clipname">总听人说代码如诗， 可这...</property>
  <property name="xmldata">&lt;kdenlivetitle duration="125" LC_NUMERIC="C" width="1920" height="1080" out="124">
 &lt;item type="QGraphicsTextItem" z-index="0">
  &lt;position x="288" y="160">
   &lt;transform>1,0,0,0,1,0,0,0,1&lt;/transform>
  &lt;/position>
  &lt;content line-spacing="0" shadow="0;#64000000;3;3;3" font-underline="0" box-height="784" font-outline-color="97,53,131,255" font="文泉驿微米黑" letter-spacing="0" font-pixel-size="84" font-italic="0" typewriter="0;2;1;0;0" alignment="1" font-weight="50" font-outline="0" box-width="1428" font-color="255,255,255,255">总听人说代码如诗，
可这诗真正的旋律，只在它活着的时候
随输入数据而流动时产生。

而不是浮于字面一个空白一个缩进
机械都能整理的东西

每一个给自己找的借口都是完美的&lt;/content>
 &lt;/item>
 &lt;startviewport rect="0,0,1920,1080"/>
 &lt;endviewport rect="0,0,1920,1080"/>
 &lt;background color="0,0,0,0"/>
&lt;/kdenlivetitle>
</property>
  <property name="kdenlive:folderid">21</property>
  <property name="kdenlive:id">49</property>
  <property name="kdenlive:file_hash">301044457651804c67e08eb9e3e5ac51</property>
  <property name="force_reload">0</property>
  <property name="meta.media.width">1920</property>
  <property name="meta.media.height">1080</property>
 </producer>
 <producer id="producer47" in="00:00:00.000" out="00:00:04.960">
  <property name="length">125</property>
  <property name="eof">pause</property>
  <property name="resource"/>
  <property name="progressive">1</property>
  <property name="aspect_ratio">1</property>
  <property name="seekable">1</property>
  <property name="mlt_service">kdenlivetitle</property>
  <property name="kdenlive:duration">125</property>
  <property name="kdenlive:clipname">up鸽想偷懒，快用点赞砸...</property>
  <property name="xmldata">&lt;kdenlivetitle duration="125" LC_NUMERIC="C" width="1920" height="1080" out="124">
 &lt;item type="QGraphicsTextItem" z-index="0">
  &lt;position x="676" y="923">
   &lt;transform>1,0,0,0,1,0,0,0,1&lt;/transform>
  &lt;/position>
  &lt;content shadow="0;#64000000;3;3;3" font-underline="0" box-height="99" font-outline-color="97,53,131,255" font="文泉驿微米黑" letter-spacing="0" font-pixel-size="84" font-italic="0" typewriter="0;2;1;0;0" alignment="2" font-weight="50" font-outline="0" box-width="1190.67" font-color="255,255,255,255">up鸽想偷懒，快用点赞砸醒他！&lt;/content>
 &lt;/item>
 &lt;startviewport rect="0,0,1920,1080"/>
 &lt;endviewport rect="0,0,1920,1080"/>
 &lt;background color="0,0,0,0"/>
&lt;/kdenlivetitle>
</property>
  <property name="kdenlive:folderid">21</property>
  <property name="kdenlive:id">50</property>
  <property name="kdenlive:file_hash">b3dbdd5edfc4f03783ea2163591d0d92</property>
  <property name="force_reload">0</property>
  <property name="meta.media.width">1920</property>
  <property name="meta.media.height">1080</property>
 </producer>
 <producer id="producer48" in="00:00:00.000" out="00:00:04.960">
  <property name="length">125</property>
  <property name="eof">pause</property>
  <property name="resource"/>
  <property name="progressive">1</property>
  <property name="aspect_ratio">1</property>
  <property name="seekable">1</property>
  <property name="mlt_service">kdenlivetitle</property>
  <property name="kdenlive:duration">125</property>
  <property name="kdenlive:clipname">生活不易 猫猫叹气</property>
  <property name="xmldata">&lt;kdenlivetitle duration="125" LC_NUMERIC="C" width="1920" height="1080" out="124">
 &lt;item type="QGraphicsTextItem" z-index="0">
  &lt;position x="597" y="393">
   &lt;transform>1,0,0,0,1,0,0,0,1&lt;/transform>
  &lt;/position>
  &lt;content line-spacing="0" shadow="0;#64000000;3;3;3" font-underline="0" box-height="260" font="文泉驿微米黑" letter-spacing="0" font-pixel-size="111" font-italic="0" typewriter="1;9;2;0;0" alignment="2" font-weight="50" box-width="542" font-color="255,255,255,255">生	活	不易
猫	猫	叹气&lt;/content>
 &lt;/item>
 &lt;startviewport rect="0,0,1920,1080"/>
 &lt;endviewport rect="0,0,1920,1080"/>
 &lt;background color="0,0,0,0"/>
&lt;/kdenlivetitle>
</property>
  <property name="kdenlive:folderid">21</property>
  <property name="kdenlive:id">51</property>
  <property name="kdenlive:file_hash">3e0c78f058c385be068c87e5ca74f462</property>
  <property name="force_reload">0</property>
  <property name="meta.media.width">1920</property>
  <property name="meta.media.height">1080</property>
 </producer>
 <playlist id="main_bin">
  <property name="kdenlive:folder.-1.21">desc</property>
  <property name="kdenlive:docproperties.activeTrack">3</property>
  <property name="kdenlive:docproperties.audioChannels">2</property>
  <property name="kdenlive:docproperties.audioTarget">-1</property>
  <property name="kdenlive:docproperties.disablepreview">0</property>
  <property name="kdenlive:docproperties.documentid">1628812126266</property>
  <property name="kdenlive:docproperties.enableTimelineZone">0</property>
  <property name="kdenlive:docproperties.enableexternalproxy">0</property>
  <property name="kdenlive:docproperties.enableproxy">0</property>
  <property name="kdenlive:docproperties.externalproxyparams">../Sub;;S03.MP4;../Clip;;.MXF</property>
  <property name="kdenlive:docproperties.generateimageproxy">0</property>
  <property name="kdenlive:docproperties.generateproxy">0</property>
  <property name="kdenlive:docproperties.groups">[
    {
        "children": [
            {
                "data": "3:27",
                "leaf": "clip",
                "type": "Leaf"
            },
            {
                "data": "0:27",
                "leaf": "clip",
                "type": "Leaf"
            }
        ],
        "type": "AVSplit"
    },
    {
        "children": [
            {
                "data": "3:1941",
                "leaf": "clip",
                "type": "Leaf"
            },
            {
                "data": "0:1941",
                "leaf": "clip",
                "type": "Leaf"
            }
        ],
        "type": "AVSplit"
    },
    {
        "children": [
            {
                "data": "0:8351",
                "leaf": "clip",
                "type": "Leaf"
            },
            {
                "data": "3:8351",
                "leaf": "clip",
                "type": "Leaf"
            }
        ],
        "type": "AVSplit"
    },
    {
        "children": [
            {
                "data": "3:3013",
                "leaf": "clip",
                "type": "Leaf"
            },
            {
                "data": "0:3013",
                "leaf": "clip",
                "type": "Leaf"
            }
        ],
        "type": "AVSplit"
    },
    {
        "children": [
            {
                "data": "3:4296",
                "leaf": "clip",
                "type": "Leaf"
            },
            {
                "data": "0:4296",
                "leaf": "clip",
                "type": "Leaf"
            }
        ],
        "type": "AVSplit"
    },
    {
        "children": [
            {
                "data": "3:6759",
                "leaf": "clip",
                "type": "Leaf"
            },
            {
                "data": "0:6759",
                "leaf": "clip",
                "type": "Leaf"
            }
        ],
        "type": "AVSplit"
    },
    {
        "children": [
            {
                "data": "3:7300",
                "leaf": "clip",
                "type": "Leaf"
            },
            {
                "data": "0:7300",
                "leaf": "clip",
                "type": "Leaf"
            }
        ],
        "type": "AVSplit"
    },
    {
        "children": [
            {
                "data": "3:5717",
                "leaf": "clip",
                "type": "Leaf"
            },
            {
                "data": "0:5717",
                "leaf": "clip",
                "type": "Leaf"
            }
        ],
        "type": "AVSplit"
    },
    {
        "children": [
            {
                "data": "3:7099",
                "leaf": "clip",
                "type": "Leaf"
            },
            {
                "data": "0:7099",
                "leaf": "clip",
                "type": "Leaf"
            }
        ],
        "type": "AVSplit"
    },
    {
        "children": [
            {
                "data": "0:8859",
                "leaf": "clip",
                "type": "Leaf"
            },
            {
                "data": "3:8859",
                "leaf": "clip",
                "type": "Leaf"
            }
        ],
        "type": "AVSplit"
    }
]
</property>
  <property name="kdenlive:docproperties.kdenliveversion">21.04.3</property>
  <property name="kdenlive:docproperties.position">1018</property>
  <property name="kdenlive:docproperties.previewextension"/>
  <property name="kdenlive:docproperties.previewparameters"/>
  <property name="kdenlive:docproperties.profile">atsc_1080p_25</property>
  <property name="kdenlive:docproperties.proxyextension"/>
  <property name="kdenlive:docproperties.proxyimageminsize">2000</property>
  <property name="kdenlive:docproperties.proxyimagesize">800</property>
  <property name="kdenlive:docproperties.proxyminsize">1000</property>
  <property name="kdenlive:docproperties.proxyparams"/>
  <property name="kdenlive:docproperties.scrollPos">542</property>
  <property name="kdenlive:docproperties.seekOffset">30000</property>
  <property name="kdenlive:docproperties.version">1</property>
  <property name="kdenlive:docproperties.verticalzoom">1</property>
  <property name="kdenlive:docproperties.videoTarget">2</property>
  <property name="kdenlive:docproperties.zonein">0</property>
  <property name="kdenlive:docproperties.zoneout">75</property>
  <property name="kdenlive:docproperties.zoom">7</property>
  <property name="kdenlive:expandedFolders">21</property>
  <property name="kdenlive:documentnotes"/>
  <property name="xml_retain">1</property>
  <entry producer="producer0" in="00:00:00.000" out="00:00:23.200"/>
  <entry producer="producer1" in="00:00:00.000" out="00:00:25.400"/>
  <entry producer="producer2" in="00:00:00.000" out="00:00:12.680"/>
  <entry producer="producer3" in="00:00:00.000" out="00:00:07.000"/>
  <entry producer="producer4" in="00:00:00.000" out="00:00:41.640"/>
  <entry producer="producer5" in="00:00:00.000" out="00:00:58.000"/>
  <entry producer="producer6" in="00:00:00.000" out="00:00:40.920"/>
  <entry producer="producer7" in="00:00:00.000" out="00:00:42.440"/>
  <entry producer="producer8" in="00:00:00.000" out="00:01:26.200"/>
  <entry producer="producer9" in="00:00:00.000" out="00:01:35.520"/>
  <entry producer="producer10" in="00:00:00.000" out="00:00:59.520"/>
  <entry producer="producer11" in="00:00:00.000" out="00:00:04.440"/>
  <entry producer="producer12" in="00:00:00.000" out="00:00:04.960"/>
  <entry producer="producer13" in="00:00:00.000" out="00:00:04.960"/>
  <entry producer="producer14" in="00:00:00.000" out="00:00:04.960"/>
  <entry producer="producer15" in="00:00:00.000" out="00:00:04.960"/>
  <entry producer="producer16" in="00:00:00.000" out="00:00:04.960"/>
  <entry producer="producer17" in="00:00:00.000" out="00:00:04.960"/>
  <entry producer="producer18" in="00:00:00.000" out="00:00:04.960"/>
  <entry producer="producer19" in="00:00:00.000" out="00:00:04.960"/>
  <entry producer="producer20" in="00:00:00.000" out="00:00:04.960"/>
  <entry producer="producer21" in="00:00:00.000" out="00:00:04.960"/>
  <entry producer="producer22" in="00:00:00.000" out="00:00:04.960"/>
  <entry producer="producer23" in="00:00:00.000" out="00:00:04.960"/>
  <entry producer="producer24" in="00:00:00.000" out="00:00:04.960"/>
  <entry producer="producer25" in="00:00:00.000" out="00:00:04.960"/>
  <entry producer="producer26" in="00:00:00.000" out="00:00:10.280"/>
  <entry producer="producer27" in="00:00:00.000" out="00:00:04.960"/>
  <entry producer="producer28" in="00:00:00.000" out="00:00:04.960"/>
  <entry producer="producer29" in="00:00:00.000" out="00:00:04.960"/>
  <entry producer="producer30" in="00:00:00.000" out="00:00:09.200"/>
  <entry producer="producer31" in="00:00:00.000" out="00:00:11.120"/>
  <entry producer="producer32" in="00:00:00.000" out="00:00:06.840"/>
  <entry producer="producer33" in="00:00:00.000" out="00:00:07.600"/>
  <entry producer="producer34" in="00:00:00.000" out="00:00:04.960"/>
  <entry producer="producer35" in="00:00:00.000" out="00:00:04.960"/>
  <entry producer="producer36" in="00:00:00.000" out="00:00:04.960"/>
  <entry producer="producer37" in="00:00:00.000" out="00:00:04.960"/>
  <entry producer="producer38" in="00:00:00.000" out="00:00:04.960"/>
  <entry producer="producer39" in="00:00:00.000" out="00:00:04.960"/>
  <entry producer="producer40" in="00:00:00.000" out="00:00:04.960"/>
  <entry producer="producer41" in="00:00:00.000" out="00:00:04.960"/>
  <entry producer="producer42" in="00:00:00.000" out="00:00:04.960"/>
  <entry producer="producer43" in="00:00:00.000" out="00:00:04.960"/>
  <entry producer="producer44" in="00:00:00.000" out="00:00:04.960"/>
  <entry producer="producer45" in="00:00:00.000" out="00:00:04.960"/>
  <entry producer="producer46" in="00:00:00.000" out="00:00:04.960"/>
  <entry producer="producer47" in="00:00:00.000" out="00:00:04.960"/>
  <entry producer="producer48" in="00:00:00.000" out="00:00:04.960"/>
 </playlist>
 <producer id="black_track" in="00:00:00.000" out="00:26:01.160">
  <property name="length">2147483647</property>
  <property name="eof">continue</property>
  <property name="resource">black</property>
  <property name="aspect_ratio">1</property>
  <property name="mlt_service">color</property>
  <property name="mlt_image_format">rgb24a</property>
  <property name="set.test_audio">0</property>
 </producer>
 <producer id="producer49" in="00:00:00.000" out="00:00:02.240">
  <property name="length">57</property>
  <property name="eof">pause</property>
  <property name="resource">1.964908:/home/duangsuse/.gnome2/cheese/media/2021-08-13-075652.webm.mov</property>
  <property name="aspect_ratio">1</property>
  <property name="meta.media.nb_streams">2</property>
  <property name="meta.media.0.stream.type">video</property>
  <property name="meta.media.0.stream.frame_rate">25</property>
  <property name="meta.media.0.stream.sample_aspect_ratio">0.75</property>
  <property name="meta.media.0.codec.width">1920</property>
  <property name="meta.media.0.codec.height">1080</property>
  <property name="meta.media.0.codec.rotate">0</property>
  <property name="meta.media.0.codec.frame_rate">12800</property>
  <property name="meta.media.0.codec.pix_fmt">yuv422p</property>
  <property name="meta.media.0.codec.sample_aspect_ratio">0</property>
  <property name="meta.media.0.codec.colorspace">601</property>
  <property name="meta.media.0.codec.color_trc">6</property>
  <property name="meta.media.0.codec.name">dnxhd</property>
  <property name="meta.media.0.codec.long_name">VC3/DNxHD</property>
  <property name="meta.media.0.codec.bit_rate">121241600</property>
  <property name="meta.attr.0.stream.language.markup">eng</property>
  <property name="meta.attr.0.stream.handler_name.markup">VideoHandler</property>
  <property name="meta.attr.0.stream.vendor_id.markup">FFMP</property>
  <property name="meta.attr.0.stream.encoder.markup">Lavc58.134.100 dnxhd</property>
  <property name="meta.media.1.stream.type">audio</property>
  <property name="meta.media.1.codec.sample_fmt">s16</property>
  <property name="meta.media.1.codec.sample_rate">48000</property>
  <property name="meta.media.1.codec.channels">1</property>
  <property name="meta.media.1.codec.name">pcm_s16le</property>
  <property name="meta.media.1.codec.long_name">PCM signed 16-bit little-endian</property>
  <property name="meta.media.1.codec.bit_rate">768000</property>
  <property name="meta.attr.1.stream.language.markup">eng</property>
  <property name="meta.attr.1.stream.handler_name.markup">SoundHandler</property>
  <property name="meta.attr.1.stream.vendor_id.markup">[0][0][0][0]</property>
  <property name="meta.attr.major_brand.markup">qt  </property>
  <property name="meta.attr.minor_version.markup">512</property>
  <property name="meta.attr.compatible_brands.markup">qt  </property>
  <property name="meta.attr.encoder.markup">Lavf58.76.100</property>
  <property name="seekable">1</property>
  <property name="meta.media.sample_aspect_num">3</property>
  <property name="meta.media.sample_aspect_den">4</property>
  <property name="audio_index">1</property>
  <property name="video_index">0</property>
  <property name="mute_on_pause">1</property>
  <property name="warp_speed">1.96491</property>
  <property name="warp_resource">/home/duangsuse/.gnome2/cheese/media/2021-08-13-075652.webm.mov</property>
  <property name="mlt_service">timewarp</property>
  <property name="set.test_audio">0</property>
  <property name="set.test_image">1</property>
  <property name="kdenlive:id">13</property>
  <property name="warp_pitch">0</property>
  <property name="meta.media.frame_rate_num">25</property>
  <property name="meta.media.frame_rate_den">1</property>
  <property name="meta.media.colorspace">601</property>
  <property name="meta.media.color_trc">6</property>
  <property name="meta.media.width">1920</property>
  <property name="meta.media.height">1080</property>
  <property name="meta.media.color_range">mpeg</property>
 </producer>
 <producer id="producer50" in="00:00:00.000" out="00:00:42.440">
  <property name="length">1062</property>
  <property name="eof">pause</property>
  <property name="resource">插入.mkv</property>
  <property name="audio_index">1</property>
  <property name="video_index">0</property>
  <property name="mute_on_pause">0</property>
  <property name="mlt_service">avformat-novalidate</property>
  <property name="seekable">1</property>
  <property name="aspect_ratio">1</property>
  <property name="kdenlive:clipname"/>
  <property name="kdenlive:folderid">-1</property>
  <property name="kdenlive:id">9</property>
  <property name="kdenlive:file_size">1101679</property>
  <property name="kdenlive:file_hash">7739b6ac5b85915fcbc06ddda92062ee</property>
  <property name="kdenlive:audio_max">1</property>
  <property name="global_feed">1</property>
  <property name="xml">was here</property>
  <property name="meta.media.nb_streams">2</property>
  <property name="meta.media.0.stream.type">video</property>
  <property name="meta.media.0.stream.frame_rate">30</property>
  <property name="meta.media.0.stream.sample_aspect_ratio">0</property>
  <property name="meta.media.0.codec.width">620</property>
  <property name="meta.media.0.codec.height">268</property>
  <property name="meta.media.0.codec.rotate">0</property>
  <property name="meta.media.0.codec.frame_rate">30</property>
  <property name="meta.media.0.codec.pix_fmt">yuv420p</property>
  <property name="meta.media.0.codec.sample_aspect_ratio">1</property>
  <property name="meta.media.0.codec.colorspace">709</property>
  <property name="meta.media.0.codec.color_trc">1</property>
  <property name="meta.media.0.codec.name">h264</property>
  <property name="meta.media.0.codec.long_name">H.264 / AVC / MPEG-4 AVC / MPEG-4 part 10</property>
  <property name="meta.media.0.codec.bit_rate">0</property>
  <property name="meta.attr.0.stream.DURATION.markup">00:00:42.500000000</property>
  <property name="meta.media.1.stream.type">audio</property>
  <property name="meta.media.1.codec.sample_fmt">fltp</property>
  <property name="meta.media.1.codec.sample_rate">48000</property>
  <property name="meta.media.1.codec.channels">2</property>
  <property name="meta.media.1.codec.name">aac</property>
  <property name="meta.media.1.codec.long_name">AAC (Advanced Audio Coding)</property>
  <property name="meta.media.1.codec.bit_rate">0</property>
  <property name="meta.attr.1.stream.title.markup">simple_aac_recording</property>
  <property name="meta.attr.1.stream.DURATION.markup">00:00:42.347000000</property>
  <property name="meta.attr.ENCODER.markup">Lavf58.76.100</property>
  <property name="meta.media.sample_aspect_num">1</property>
  <property name="meta.media.sample_aspect_den">1</property>
  <property name="meta.media.frame_rate_num">30</property>
  <property name="meta.media.frame_rate_den">1</property>
  <property name="meta.media.colorspace">709</property>
  <property name="meta.media.color_trc">1</property>
  <property name="meta.media.width">620</property>
  <property name="meta.media.height">268</property>
  <property name="meta.media.color_range">mpeg</property>
  <property name="meta.media.top_field_first">0</property>
  <property name="meta.media.progressive">1</property>
  <property name="set.test_audio">0</property>
  <property name="set.test_image">1</property>
 </producer>
 <producer id="producer51" in="00:00:00.000" out="00:00:40.920">
  <property name="length">1024</property>
  <property name="eof">pause</property>
  <property name="resource">冒泡.mkv</property>
  <property name="audio_index">1</property>
  <property name="video_index">0</property>
  <property name="mute_on_pause">0</property>
  <property name="mlt_service">avformat-novalidate</property>
  <property name="seekable">1</property>
  <property name="aspect_ratio">1</property>
  <property name="kdenlive:clipname"/>
  <property name="kdenlive:folderid">-1</property>
  <property name="kdenlive:id">8</property>
  <property name="kdenlive:file_size">1080518</property>
  <property name="kdenlive:file_hash">73f98feec7d3a623edaa274a50bc75ff</property>
  <property name="kdenlive:audio_max">1</property>
  <property name="global_feed">1</property>
  <property name="xml">was here</property>
  <property name="meta.media.nb_streams">2</property>
  <property name="meta.media.0.stream.type">video</property>
  <property name="meta.media.0.stream.frame_rate">30</property>
  <property name="meta.media.0.stream.sample_aspect_ratio">0</property>
  <property name="meta.media.0.codec.width">620</property>
  <property name="meta.media.0.codec.height">268</property>
  <property name="meta.media.0.codec.rotate">0</property>
  <property name="meta.media.0.codec.frame_rate">30</property>
  <property name="meta.media.0.codec.pix_fmt">yuv420p</property>
  <property name="meta.media.0.codec.sample_aspect_ratio">1</property>
  <property name="meta.media.0.codec.colorspace">709</property>
  <property name="meta.media.0.codec.color_trc">1</property>
  <property name="meta.media.0.codec.name">h264</property>
  <property name="meta.media.0.codec.long_name">H.264 / AVC / MPEG-4 AVC / MPEG-4 part 10</property>
  <property name="meta.media.0.codec.bit_rate">0</property>
  <property name="meta.attr.0.stream.DURATION.markup">00:00:40.966000000</property>
  <property name="meta.media.1.stream.type">audio</property>
  <property name="meta.media.1.codec.sample_fmt">fltp</property>
  <property name="meta.media.1.codec.sample_rate">48000</property>
  <property name="meta.media.1.codec.channels">2</property>
  <property name="meta.media.1.codec.name">aac</property>
  <property name="meta.media.1.codec.long_name">AAC (Advanced Audio Coding)</property>
  <property name="meta.media.1.codec.bit_rate">0</property>
  <property name="meta.attr.1.stream.title.markup">simple_aac_recording</property>
  <property name="meta.attr.1.stream.DURATION.markup">00:00:40.832000000</property>
  <property name="meta.attr.ENCODER.markup">Lavf58.76.100</property>
  <property name="meta.media.sample_aspect_num">1</property>
  <property name="meta.media.sample_aspect_den">1</property>
  <property name="meta.media.frame_rate_num">30</property>
  <property name="meta.media.frame_rate_den">1</property>
  <property name="meta.media.colorspace">709</property>
  <property name="meta.media.color_trc">1</property>
  <property name="meta.media.width">620</property>
  <property name="meta.media.height">268</property>
  <property name="meta.media.color_range">mpeg</property>
  <property name="meta.media.top_field_first">0</property>
  <property name="meta.media.progressive">1</property>
  <property name="set.test_audio">0</property>
  <property name="set.test_image">1</property>
 </producer>
 <producer id="producer52" in="00:00:00.000" out="00:00:58.000">
  <property name="length">1451</property>
  <property name="eof">pause</property>
  <property name="resource">快排.mkv</property>
  <property name="audio_index">1</property>
  <property name="video_index">0</property>
  <property name="mute_on_pause">0</property>
  <property name="mlt_service">avformat-novalidate</property>
  <property name="seekable">1</property>
  <property name="aspect_ratio">1</property>
  <property name="kdenlive:clipname"/>
  <property name="kdenlive:folderid">-1</property>
  <property name="kdenlive:id">7</property>
  <property name="kdenlive:file_size">1525168</property>
  <property name="kdenlive:file_hash">69e72448e95b8f9fb0007a8b921e6d3b</property>
  <property name="kdenlive:audio_max">1</property>
  <property name="global_feed">1</property>
  <property name="xml">was here</property>
  <property name="meta.media.nb_streams">2</property>
  <property name="meta.media.0.stream.type">video</property>
  <property name="meta.media.0.stream.frame_rate">30</property>
  <property name="meta.media.0.stream.sample_aspect_ratio">0</property>
  <property name="meta.media.0.codec.width">620</property>
  <property name="meta.media.0.codec.height">268</property>
  <property name="meta.media.0.codec.rotate">0</property>
  <property name="meta.media.0.codec.frame_rate">30</property>
  <property name="meta.media.0.codec.pix_fmt">yuv420p</property>
  <property name="meta.media.0.codec.sample_aspect_ratio">1</property>
  <property name="meta.media.0.codec.colorspace">709</property>
  <property name="meta.media.0.codec.color_trc">1</property>
  <property name="meta.media.0.codec.name">h264</property>
  <property name="meta.media.0.codec.long_name">H.264 / AVC / MPEG-4 AVC / MPEG-4 part 10</property>
  <property name="meta.media.0.codec.bit_rate">0</property>
  <property name="meta.attr.0.stream.DURATION.markup">00:00:58.033000000</property>
  <property name="meta.media.1.stream.type">audio</property>
  <property name="meta.media.1.codec.sample_fmt">fltp</property>
  <property name="meta.media.1.codec.sample_rate">48000</property>
  <property name="meta.media.1.codec.channels">2</property>
  <property name="meta.media.1.codec.name">aac</property>
  <property name="meta.media.1.codec.long_name">AAC (Advanced Audio Coding)</property>
  <property name="meta.media.1.codec.bit_rate">0</property>
  <property name="meta.attr.1.stream.title.markup">simple_aac_recording</property>
  <property name="meta.attr.1.stream.DURATION.markup">00:00:57.899000000</property>
  <property name="meta.attr.ENCODER.markup">Lavf58.76.100</property>
  <property name="meta.media.sample_aspect_num">1</property>
  <property name="meta.media.sample_aspect_den">1</property>
  <property name="meta.media.frame_rate_num">30</property>
  <property name="meta.media.frame_rate_den">1</property>
  <property name="meta.media.colorspace">709</property>
  <property name="meta.media.color_trc">1</property>
  <property name="meta.media.width">620</property>
  <property name="meta.media.height">268</property>
  <property name="meta.media.color_range">mpeg</property>
  <property name="meta.media.top_field_first">0</property>
  <property name="meta.media.progressive">1</property>
  <property name="set.test_audio">0</property>
  <property name="set.test_image">1</property>
 </producer>
 <producer id="producer53" in="00:00:00.000" out="00:00:41.640">
  <property name="length">1042</property>
  <property name="eof">pause</property>
  <property name="resource">合并.mkv</property>
  <property name="audio_index">1</property>
  <property name="video_index">0</property>
  <property name="mute_on_pause">0</property>
  <property name="mlt_service">avformat-novalidate</property>
  <property name="seekable">1</property>
  <property name="aspect_ratio">1</property>
  <property name="kdenlive:clipname"/>
  <property name="kdenlive:folderid">-1</property>
  <property name="kdenlive:id">6</property>
  <property name="kdenlive:file_size">1137415</property>
  <property name="kdenlive:file_hash">ebd29cf9218847bcf326e3b95f2fad38</property>
  <property name="kdenlive:audio_max">1</property>
  <property name="global_feed">1</property>
  <property name="xml">was here</property>
  <property name="meta.media.nb_streams">2</property>
  <property name="meta.media.0.stream.type">video</property>
  <property name="meta.media.0.stream.frame_rate">30</property>
  <property name="meta.media.0.stream.sample_aspect_ratio">0</property>
  <property name="meta.media.0.codec.width">620</property>
  <property name="meta.media.0.codec.height">268</property>
  <property name="meta.media.0.codec.rotate">0</property>
  <property name="meta.media.0.codec.frame_rate">30</property>
  <property name="meta.media.0.codec.pix_fmt">yuv420p</property>
  <property name="meta.media.0.codec.sample_aspect_ratio">1</property>
  <property name="meta.media.0.codec.colorspace">709</property>
  <property name="meta.media.0.codec.color_trc">1</property>
  <property name="meta.media.0.codec.name">h264</property>
  <property name="meta.media.0.codec.long_name">H.264 / AVC / MPEG-4 AVC / MPEG-4 part 10</property>
  <property name="meta.media.0.codec.bit_rate">0</property>
  <property name="meta.attr.0.stream.DURATION.markup">00:00:41.666000000</property>
  <property name="meta.media.1.stream.type">audio</property>
  <property name="meta.media.1.codec.sample_fmt">fltp</property>
  <property name="meta.media.1.codec.sample_rate">48000</property>
  <property name="meta.media.1.codec.channels">2</property>
  <property name="meta.media.1.codec.name">aac</property>
  <property name="meta.media.1.codec.long_name">AAC (Advanced Audio Coding)</property>
  <property name="meta.media.1.codec.bit_rate">0</property>
  <property name="meta.attr.1.stream.title.markup">simple_aac_recording</property>
  <property name="meta.attr.1.stream.DURATION.markup">00:00:41.579000000</property>
  <property name="meta.attr.ENCODER.markup">Lavf58.76.100</property>
  <property name="meta.media.sample_aspect_num">1</property>
  <property name="meta.media.sample_aspect_den">1</property>
  <property name="meta.media.frame_rate_num">30</property>
  <property name="meta.media.frame_rate_den">1</property>
  <property name="meta.media.colorspace">709</property>
  <property name="meta.media.color_trc">1</property>
  <property name="meta.media.width">620</property>
  <property name="meta.media.height">268</property>
  <property name="meta.media.color_range">mpeg</property>
  <property name="meta.media.top_field_first">0</property>
  <property name="meta.media.progressive">1</property>
  <property name="set.test_audio">0</property>
  <property name="set.test_image">1</property>
 </producer>
 <producer id="producer54" in="00:00:00.000" out="00:00:12.680">
  <property name="length">318</property>
  <property name="eof">pause</property>
  <property name="resource">添.mkv</property>
  <property name="audio_index">1</property>
  <property name="video_index">0</property>
  <property name="mute_on_pause">0</property>
  <property name="mlt_service">avformat-novalidate</property>
  <property name="seekable">1</property>
  <property name="aspect_ratio">1</property>
  <property name="kdenlive:clipname"/>
  <property name="kdenlive:folderid">-1</property>
  <property name="kdenlive:id">4</property>
  <property name="kdenlive:file_size">338986</property>
  <property name="kdenlive:file_hash">2ae99f09bdfe4bd2932bdbf896e1c143</property>
  <property name="kdenlive:audio_max">1</property>
  <property name="global_feed">1</property>
  <property name="xml">was here</property>
  <property name="meta.media.nb_streams">2</property>
  <property name="meta.media.0.stream.type">video</property>
  <property name="meta.media.0.stream.frame_rate">30</property>
  <property name="meta.media.0.stream.sample_aspect_ratio">0</property>
  <property name="meta.media.0.codec.width">620</property>
  <property name="meta.media.0.codec.height">268</property>
  <property name="meta.media.0.codec.rotate">0</property>
  <property name="meta.media.0.codec.frame_rate">30</property>
  <property name="meta.media.0.codec.pix_fmt">yuv420p</property>
  <property name="meta.media.0.codec.sample_aspect_ratio">1</property>
  <property name="meta.media.0.codec.colorspace">709</property>
  <property name="meta.media.0.codec.color_trc">1</property>
  <property name="meta.media.0.codec.name">h264</property>
  <property name="meta.media.0.codec.long_name">H.264 / AVC / MPEG-4 AVC / MPEG-4 part 10</property>
  <property name="meta.media.0.codec.bit_rate">0</property>
  <property name="meta.attr.0.stream.DURATION.markup">00:00:12.700000000</property>
  <property name="meta.media.1.stream.type">audio</property>
  <property name="meta.media.1.codec.sample_fmt">fltp</property>
  <property name="meta.media.1.codec.sample_rate">48000</property>
  <property name="meta.media.1.codec.channels">2</property>
  <property name="meta.media.1.codec.name">aac</property>
  <property name="meta.media.1.codec.long_name">AAC (Advanced Audio Coding)</property>
  <property name="meta.media.1.codec.bit_rate">0</property>
  <property name="meta.attr.1.stream.title.markup">simple_aac_recording</property>
  <property name="meta.attr.1.stream.DURATION.markup">00:00:12.629000000</property>
  <property name="meta.attr.ENCODER.markup">Lavf58.76.100</property>
  <property name="meta.media.sample_aspect_num">1</property>
  <property name="meta.media.sample_aspect_den">1</property>
  <property name="meta.media.frame_rate_num">30</property>
  <property name="meta.media.frame_rate_den">1</property>
  <property name="meta.media.colorspace">709</property>
  <property name="meta.media.color_trc">1</property>
  <property name="meta.media.width">620</property>
  <property name="meta.media.height">268</property>
  <property name="meta.media.color_range">mpeg</property>
  <property name="meta.media.top_field_first">0</property>
  <property name="meta.media.progressive">1</property>
  <property name="set.test_audio">0</property>
  <property name="set.test_image">1</property>
 </producer>
 <producer id="producer55" in="00:00:00.000" out="00:00:07.000">
  <property name="length">176</property>
  <property name="eof">pause</property>
  <property name="resource">左添.mkv</property>
  <property name="audio_index">1</property>
  <property name="video_index">0</property>
  <property name="mute_on_pause">0</property>
  <property name="mlt_service">avformat-novalidate</property>
  <property name="seekable">1</property>
  <property name="aspect_ratio">1</property>
  <property name="kdenlive:clipname"/>
  <property name="kdenlive:folderid">-1</property>
  <property name="kdenlive:id">5</property>
  <property name="kdenlive:file_size">195429</property>
  <property name="kdenlive:file_hash">5996fc037d348faa0ad3897dc92aa0c4</property>
  <property name="kdenlive:audio_max">1</property>
  <property name="global_feed">1</property>
  <property name="xml">was here</property>
  <property name="meta.media.nb_streams">2</property>
  <property name="meta.media.0.stream.type">video</property>
  <property name="meta.media.0.stream.frame_rate">30</property>
  <property name="meta.media.0.stream.sample_aspect_ratio">0</property>
  <property name="meta.media.0.codec.width">620</property>
  <property name="meta.media.0.codec.height">268</property>
  <property name="meta.media.0.codec.rotate">0</property>
  <property name="meta.media.0.codec.frame_rate">30</property>
  <property name="meta.media.0.codec.pix_fmt">yuv420p</property>
  <property name="meta.media.0.codec.sample_aspect_ratio">1</property>
  <property name="meta.media.0.codec.colorspace">709</property>
  <property name="meta.media.0.codec.color_trc">1</property>
  <property name="meta.media.0.codec.name">h264</property>
  <property name="meta.media.0.codec.long_name">H.264 / AVC / MPEG-4 AVC / MPEG-4 part 10</property>
  <property name="meta.media.0.codec.bit_rate">0</property>
  <property name="meta.attr.0.stream.DURATION.markup">00:00:07.033000000</property>
  <property name="meta.media.1.stream.type">audio</property>
  <property name="meta.media.1.codec.sample_fmt">fltp</property>
  <property name="meta.media.1.codec.sample_rate">48000</property>
  <property name="meta.media.1.codec.channels">2</property>
  <property name="meta.media.1.codec.name">aac</property>
  <property name="meta.media.1.codec.long_name">AAC (Advanced Audio Coding)</property>
  <property name="meta.media.1.codec.bit_rate">0</property>
  <property name="meta.attr.1.stream.title.markup">simple_aac_recording</property>
  <property name="meta.attr.1.stream.DURATION.markup">00:00:06.912000000</property>
  <property name="meta.attr.ENCODER.markup">Lavf58.76.100</property>
  <property name="meta.media.sample_aspect_num">1</property>
  <property name="meta.media.sample_aspect_den">1</property>
  <property name="meta.media.frame_rate_num">30</property>
  <property name="meta.media.frame_rate_den">1</property>
  <property name="meta.media.colorspace">709</property>
  <property name="meta.media.color_trc">1</property>
  <property name="meta.media.width">620</property>
  <property name="meta.media.height">268</property>
  <property name="meta.media.color_range">mpeg</property>
  <property name="meta.media.top_field_first">0</property>
  <property name="meta.media.progressive">1</property>
  <property name="set.test_audio">0</property>
  <property name="set.test_image">1</property>
 </producer>
 <producer id="producer56" in="00:00:00.000" out="00:00:25.400">
  <property name="length">636</property>
  <property name="eof">pause</property>
  <property name="resource">fifo.mkv</property>
  <property name="audio_index">1</property>
  <property name="video_index">0</property>
  <property name="mute_on_pause">0</property>
  <property name="mlt_service">avformat-novalidate</property>
  <property name="seekable">1</property>
  <property name="aspect_ratio">1</property>
  <property name="kdenlive:clipname"/>
  <property name="kdenlive:folderid">-1</property>
  <property name="kdenlive:id">3</property>
  <property name="kdenlive:file_size">736169</property>
  <property name="kdenlive:file_hash">58b6e30d8be07020e996a58074feb632</property>
  <property name="kdenlive:audio_max">1</property>
  <property name="global_feed">1</property>
  <property name="xml">was here</property>
  <property name="meta.media.nb_streams">2</property>
  <property name="meta.media.0.stream.type">video</property>
  <property name="meta.media.0.stream.frame_rate">30</property>
  <property name="meta.media.0.stream.sample_aspect_ratio">0</property>
  <property name="meta.media.0.codec.width">988</property>
  <property name="meta.media.0.codec.height">268</property>
  <property name="meta.media.0.codec.rotate">0</property>
  <property name="meta.media.0.codec.frame_rate">30</property>
  <property name="meta.media.0.codec.pix_fmt">yuv420p</property>
  <property name="meta.media.0.codec.sample_aspect_ratio">1</property>
  <property name="meta.media.0.codec.colorspace">709</property>
  <property name="meta.media.0.codec.color_trc">1</property>
  <property name="meta.media.0.codec.name">h264</property>
  <property name="meta.media.0.codec.long_name">H.264 / AVC / MPEG-4 AVC / MPEG-4 part 10</property>
  <property name="meta.media.0.codec.bit_rate">0</property>
  <property name="meta.attr.0.stream.DURATION.markup">00:00:25.433000000</property>
  <property name="meta.media.1.stream.type">audio</property>
  <property name="meta.media.1.codec.sample_fmt">fltp</property>
  <property name="meta.media.1.codec.sample_rate">48000</property>
  <property name="meta.media.1.codec.channels">2</property>
  <property name="meta.media.1.codec.name">aac</property>
  <property name="meta.media.1.codec.long_name">AAC (Advanced Audio Coding)</property>
  <property name="meta.media.1.codec.bit_rate">0</property>
  <property name="meta.attr.1.stream.title.markup">simple_aac_recording</property>
  <property name="meta.attr.1.stream.DURATION.markup">00:00:25.323000000</property>
  <property name="meta.attr.ENCODER.markup">Lavf58.76.100</property>
  <property name="meta.media.sample_aspect_num">1</property>
  <property name="meta.media.sample_aspect_den">1</property>
  <property name="meta.media.frame_rate_num">30</property>
  <property name="meta.media.frame_rate_den">1</property>
  <property name="meta.media.colorspace">709</property>
  <property name="meta.media.color_trc">1</property>
  <property name="meta.media.width">988</property>
  <property name="meta.media.height">268</property>
  <property name="meta.media.color_range">mpeg</property>
  <property name="meta.media.top_field_first">0</property>
  <property name="meta.media.progressive">1</property>
  <property name="set.test_audio">0</property>
  <property name="set.test_image">1</property>
 </producer>
 <producer id="producer57" in="00:00:00.000" out="00:00:23.200">
  <property name="length">581</property>
  <property name="eof">pause</property>
  <property name="resource">lifo.mkv</property>
  <property name="audio_index">1</property>
  <property name="video_index">0</property>
  <property name="mute_on_pause">0</property>
  <property name="mlt_service">avformat-novalidate</property>
  <property name="seekable">1</property>
  <property name="aspect_ratio">1</property>
  <property name="kdenlive:clipname"/>
  <property name="kdenlive:folderid">-1</property>
  <property name="kdenlive:id">2</property>
  <property name="kdenlive:file_size">681107</property>
  <property name="kdenlive:file_hash">3a4310f12abda2d3a71f2f1f2b3c0f65</property>
  <property name="kdenlive:audio_max">1</property>
  <property name="global_feed">1</property>
  <property name="xml">was here</property>
  <property name="meta.media.nb_streams">2</property>
  <property name="meta.media.0.stream.type">video</property>
  <property name="meta.media.0.stream.frame_rate">30</property>
  <property name="meta.media.0.stream.sample_aspect_ratio">0</property>
  <property name="meta.media.0.codec.width">988</property>
  <property name="meta.media.0.codec.height">268</property>
  <property name="meta.media.0.codec.rotate">0</property>
  <property name="meta.media.0.codec.frame_rate">30</property>
  <property name="meta.media.0.codec.pix_fmt">yuv420p</property>
  <property name="meta.media.0.codec.sample_aspect_ratio">1</property>
  <property name="meta.media.0.codec.colorspace">709</property>
  <property name="meta.media.0.codec.color_trc">1</property>
  <property name="meta.media.0.codec.name">h264</property>
  <property name="meta.media.0.codec.long_name">H.264 / AVC / MPEG-4 AVC / MPEG-4 part 10</property>
  <property name="meta.media.0.codec.bit_rate">0</property>
  <property name="meta.attr.0.stream.DURATION.markup">00:00:23.233000000</property>
  <property name="meta.media.1.stream.type">audio</property>
  <property name="meta.media.1.codec.sample_fmt">fltp</property>
  <property name="meta.media.1.codec.sample_rate">48000</property>
  <property name="meta.media.1.codec.channels">2</property>
  <property name="meta.media.1.codec.name">aac</property>
  <property name="meta.media.1.codec.long_name">AAC (Advanced Audio Coding)</property>
  <property name="meta.media.1.codec.bit_rate">0</property>
  <property name="meta.attr.1.stream.title.markup">simple_aac_recording</property>
  <property name="meta.attr.1.stream.DURATION.markup">00:00:23.125000000</property>
  <property name="meta.attr.ENCODER.markup">Lavf58.76.100</property>
  <property name="meta.media.sample_aspect_num">1</property>
  <property name="meta.media.sample_aspect_den">1</property>
  <property name="meta.media.frame_rate_num">30</property>
  <property name="meta.media.frame_rate_den">1</property>
  <property name="meta.media.colorspace">709</property>
  <property name="meta.media.color_trc">1</property>
  <property name="meta.media.width">988</property>
  <property name="meta.media.height">268</property>
  <property name="meta.media.color_range">mpeg</property>
  <property name="meta.media.top_field_first">0</property>
  <property name="meta.media.progressive">1</property>
  <property name="set.test_audio">0</property>
  <property name="set.test_image">1</property>
 </producer>
 <producer id="producer58" in="00:00:00.000" out="00:00:49.920">
  <property name="length">1250</property>
  <property name="eof">pause</property>
  <property name="resource">0.464968:lifo.mkv</property>
  <property name="aspect_ratio">1</property>
  <property name="meta.media.nb_streams">2</property>
  <property name="meta.media.0.stream.type">video</property>
  <property name="meta.media.0.stream.frame_rate">30</property>
  <property name="meta.media.0.stream.sample_aspect_ratio">0</property>
  <property name="meta.media.0.codec.width">988</property>
  <property name="meta.media.0.codec.height">268</property>
  <property name="meta.media.0.codec.rotate">0</property>
  <property name="meta.media.0.codec.frame_rate">30</property>
  <property name="meta.media.0.codec.pix_fmt">yuv420p</property>
  <property name="meta.media.0.codec.sample_aspect_ratio">1</property>
  <property name="meta.media.0.codec.colorspace">709</property>
  <property name="meta.media.0.codec.color_trc">1</property>
  <property name="meta.media.0.codec.name">h264</property>
  <property name="meta.media.0.codec.long_name">H.264 / AVC / MPEG-4 AVC / MPEG-4 part 10</property>
  <property name="meta.media.0.codec.bit_rate">0</property>
  <property name="meta.attr.0.stream.DURATION.markup">00:00:23.233000000</property>
  <property name="meta.media.1.stream.type">audio</property>
  <property name="meta.media.1.codec.sample_fmt">fltp</property>
  <property name="meta.media.1.codec.sample_rate">48000</property>
  <property name="meta.media.1.codec.channels">2</property>
  <property name="meta.media.1.codec.name">aac</property>
  <property name="meta.media.1.codec.long_name">AAC (Advanced Audio Coding)</property>
  <property name="meta.media.1.codec.bit_rate">0</property>
  <property name="meta.attr.1.stream.title.markup">simple_aac_recording</property>
  <property name="meta.attr.1.stream.DURATION.markup">00:00:23.125000000</property>
  <property name="meta.attr.ENCODER.markup">Lavf58.76.100</property>
  <property name="seekable">1</property>
  <property name="meta.media.sample_aspect_num">1</property>
  <property name="meta.media.sample_aspect_den">1</property>
  <property name="audio_index">1</property>
  <property name="video_index">0</property>
  <property name="mute_on_pause">1</property>
  <property name="warp_speed">0.464968</property>
  <property name="warp_resource">lifo.mkv</property>
  <property name="mlt_service">timewarp</property>
  <property name="set.test_audio">0</property>
  <property name="set.test_image">1</property>
  <property name="kdenlive:id">2</property>
  <property name="warp_pitch">0</property>
  <property name="meta.media.frame_rate_num">30</property>
  <property name="meta.media.frame_rate_den">1</property>
  <property name="meta.media.colorspace">709</property>
  <property name="meta.media.color_trc">1</property>
  <property name="meta.media.width">988</property>
  <property name="meta.media.height">268</property>
  <property name="meta.media.color_range">mpeg</property>
 </producer>
 <playlist id="playlist0">
  <property name="kdenlive:audio_track">1</property>
  <blank length="00:00:01.080"/>
  <entry producer="producer49" in="00:00:00.000" out="00:00:02.240">
   <property name="kdenlive:id">13</property>
  </entry>
  <blank length="00:01:14.280"/>
  <entry producer="producer50" in="00:00:00.000" out="00:00:42.440">
   <property name="kdenlive:id">9</property>
  </entry>
  <blank length="00:00:00.400"/>
  <entry producer="producer51" in="00:00:00.000" out="00:00:40.920">
   <property name="kdenlive:id">8</property>
  </entry>
  <blank length="00:00:10.360"/>
  <entry producer="producer52" in="00:00:03.720" out="00:00:58.000">
   <property name="kdenlive:id">7</property>
  </entry>
  <blank length="00:00:02.520"/>
  <entry producer="producer53" in="00:00:00.000" out="00:00:41.640">
   <property name="kdenlive:id">6</property>
  </entry>
  <entry producer="producer54" in="00:00:00.000" out="00:00:12.680">
   <property name="kdenlive:id">4</property>
  </entry>
  <blank length="00:00:00.880"/>
  <entry producer="producer55" in="00:00:00.000" out="00:00:07.000">
   <property name="kdenlive:id">5</property>
  </entry>
  <blank length="00:00:01.000"/>
  <entry producer="producer56" in="00:00:00.000" out="00:00:25.400">
   <property name="kdenlive:id">3</property>
  </entry>
  <blank length="00:00:16.600"/>
  <entry producer="producer57" in="00:00:00.000" out="00:00:20.280">
   <property name="kdenlive:id">2</property>
  </entry>
  <entry producer="producer58" in="00:00:43.680" out="00:00:49.920">
   <property name="kdenlive:id">2</property>
  </entry>
 </playlist>
 <playlist id="playlist1"/>
 <tractor id="tractor0" in="00:00:00.000" out="00:06:00.600">
  <property name="kdenlive:audio_track">1</property>
  <property name="kdenlive:trackheight">69</property>
  <property name="kdenlive:timeline_active">1</property>
  <property name="kdenlive:collapsed">0</property>
  <property name="kdenlive:thumbs_format"/>
  <property name="kdenlive:audio_rec"/>
  <track hide="both" producer="playlist0"/>
  <track hide="video" producer="playlist1"/>
  <filter id="filter0">
   <property name="window">75</property>
   <property name="max_gain">20dB</property>
   <property name="mlt_service">volume</property>
   <property name="internal_added">237</property>
   <property name="disable">1</property>
  </filter>
  <filter id="filter1">
   <property name="channel">-1</property>
   <property name="mlt_service">panner</property>
   <property name="internal_added">237</property>
   <property name="start">0.5</property>
   <property name="disable">1</property>
  </filter>
  <filter id="filter2">
   <property name="iec_scale">0</property>
   <property name="mlt_service">audiolevel</property>
   <property name="disable">1</property>
  </filter>
 </tractor>
 <producer id="producer59" in="00:00:00.000" out="00:00:59.520">
  <property name="length">1489</property>
  <property name="eof">pause</property>
  <property name="resource">开头.ogg</property>
  <property name="audio_index">0</property>
  <property name="video_index">-1</property>
  <property name="mute_on_pause">0</property>
  <property name="mlt_service">avformat-novalidate</property>
  <property name="meta.media.nb_streams">1</property>
  <property name="meta.media.0.stream.type">audio</property>
  <property name="meta.media.0.codec.sample_fmt">fltp</property>
  <property name="meta.media.0.codec.sample_rate">48000</property>
  <property name="meta.media.0.codec.channels">2</property>
  <property name="meta.media.0.codec.name">vorbis</property>
  <property name="meta.media.0.codec.long_name">Vorbis</property>
  <property name="meta.media.0.codec.bit_rate">160000</property>
  <property name="seekable">1</property>
  <property name="kdenlive:clipname"/>
  <property name="kdenlive:folderid">-1</property>
  <property name="kdenlive:id">12</property>
  <property name="kdenlive:file_size">1079639</property>
  <property name="kdenlive:file_hash">afeca2daaa75b41b10490de7e6938447</property>
  <property name="kdenlive:audio_max">5</property>
  <property name="global_feed">1</property>
  <property name="xml">was here</property>
  <property name="set.test_audio">0</property>
  <property name="set.test_image">1</property>
 </producer>
 <producer id="producer60" in="00:00:00.000" out="00:01:26.200">
  <property name="length">2156</property>
  <property name="eof">pause</property>
  <property name="resource">下面名.ogg</property>
  <property name="audio_index">0</property>
  <property name="video_index">-1</property>
  <property name="mute_on_pause">0</property>
  <property name="mlt_service">avformat-novalidate</property>
  <property name="meta.media.nb_streams">1</property>
  <property name="meta.media.0.stream.type">audio</property>
  <property name="meta.media.0.codec.sample_fmt">fltp</property>
  <property name="meta.media.0.codec.sample_rate">48000</property>
  <property name="meta.media.0.codec.channels">2</property>
  <property name="meta.media.0.codec.name">vorbis</property>
  <property name="meta.media.0.codec.long_name">Vorbis</property>
  <property name="meta.media.0.codec.bit_rate">160000</property>
  <property name="seekable">1</property>
  <property name="kdenlive:clipname"/>
  <property name="kdenlive:folderid">-1</property>
  <property name="kdenlive:id">10</property>
  <property name="kdenlive:file_size">1575941</property>
  <property name="kdenlive:file_hash">c9e09cda1f089f2bd224b62910b24bcf</property>
  <property name="kdenlive:audio_max">5</property>
  <property name="global_feed">1</property>
  <property name="xml">was here</property>
  <property name="set.test_audio">0</property>
  <property name="set.test_image">1</property>
 </producer>
 <playlist id="playlist2">
  <property name="kdenlive:audio_track">1</property>
  <blank length="00:00:04.640"/>
  <entry producer="producer59" in="00:00:00.000" out="00:00:59.520">
   <property name="kdenlive:id">12</property>
  </entry>
  <blank length="00:00:01.920"/>
  <entry producer="producer60" in="00:00:00.000" out="00:00:28.680">
   <property name="kdenlive:id">10</property>
  </entry>
  <blank length="00:00:21.520"/>
  <entry producer="producer8" in="00:00:28.720" out="00:00:42.320">
   <property name="kdenlive:id">10</property>
  </entry>
  <blank length="00:00:21.880"/>
  <entry producer="producer8" in="00:00:42.360" out="00:01:12.440">
   <property name="kdenlive:id">10</property>
  </entry>
  <blank length="00:00:41.800"/>
  <entry producer="producer8" in="00:01:12.480" out="00:01:26.200">
   <property name="kdenlive:id">10</property>
  </entry>
  <blank length="00:00:28.040"/>
  <entry producer="producer9" in="00:00:00.000" out="00:01:35.520">
   <property name="kdenlive:id">11</property>
  </entry>
 </playlist>
 <playlist id="playlist3"/>
 <tractor id="tractor1" in="00:00:00.000" out="00:06:01.120">
  <property name="kdenlive:audio_track">1</property>
  <property name="kdenlive:trackheight">69</property>
  <property name="kdenlive:timeline_active">1</property>
  <property name="kdenlive:collapsed">0</property>
  <property name="kdenlive:thumbs_format"/>
  <property name="kdenlive:audio_rec"/>
  <track hide="video" producer="playlist2"/>
  <track hide="video" producer="playlist3"/>
  <filter id="filter3">
   <property name="window">75</property>
   <property name="max_gain">20dB</property>
   <property name="mlt_service">volume</property>
   <property name="internal_added">237</property>
   <property name="disable">1</property>
  </filter>
  <filter id="filter4">
   <property name="channel">-1</property>
   <property name="mlt_service">panner</property>
   <property name="internal_added">237</property>
   <property name="start">0.5</property>
   <property name="disable">1</property>
  </filter>
  <filter id="filter5">
   <property name="iec_scale">0</property>
   <property name="mlt_service">audiolevel</property>
   <property name="disable">1</property>
  </filter>
 </tractor>
 <playlist id="playlist4">
  <entry producer="producer13" in="00:00:00.000" out="00:00:01.040">
   <property name="kdenlive:id">15</property>
   <property name="kdenlive:activeeffect">1</property>
   <filter id="filter6">
    <property name="rotate_center">1</property>
    <property name="mlt_service">qtblend</property>
    <property name="kdenlive_id">qtblend</property>
    <property name="rect">00:00:00.000=-514 -361 3248 1827 1.000000</property>
    <property name="rotation">00:00:00.000=0</property>
    <property name="compositing">0</property>
    <property name="distort">0</property>
    <property name="kdenlive:collapsed">0</property>
   </filter>
   <filter id="filter7">
    <property name="start">2</property>
    <property name="hori">00:00:00.000~=1;00:00:00.120~=1;00:00:01.040=1</property>
    <property name="vert">00:00:00.000~=1;00:00:00.120~=1;00:00:01.040=1</property>
    <property name="blur">00:00:00.000~=38;00:00:00.120~=38;00:00:01.040=0</property>
    <property name="mlt_service">boxblur</property>
    <property name="kdenlive_id">boxblur</property>
    <property name="kdenlive:collapsed">0</property>
   </filter>
  </entry>
 </playlist>
 <playlist id="playlist5"/>
 <tractor id="tractor2" in="00:00:00.000" out="00:00:01.040">
  <property name="kdenlive:trackheight">69</property>
  <property name="kdenlive:timeline_active">1</property>
  <property name="kdenlive:collapsed">0</property>
  <property name="kdenlive:thumbs_format"/>
  <property name="kdenlive:audio_rec"/>
  <track hide="audio" producer="playlist4"/>
  <track producer="playlist5"/>
 </tractor>
 <producer id="producer61" in="00:00:00.000" out="00:00:02.240">
  <property name="length">57</property>
  <property name="eof">pause</property>
  <property name="resource">1.964908:/home/duangsuse/.gnome2/cheese/media/2021-08-13-075652.webm.mov</property>
  <property name="aspect_ratio">1</property>
  <property name="meta.media.nb_streams">2</property>
  <property name="meta.media.0.stream.type">video</property>
  <property name="meta.media.0.stream.frame_rate">25</property>
  <property name="meta.media.0.stream.sample_aspect_ratio">0.75</property>
  <property name="meta.media.0.codec.width">1920</property>
  <property name="meta.media.0.codec.height">1080</property>
  <property name="meta.media.0.codec.rotate">0</property>
  <property name="meta.media.0.codec.frame_rate">12800</property>
  <property name="meta.media.0.codec.pix_fmt">yuv422p</property>
  <property name="meta.media.0.codec.sample_aspect_ratio">0</property>
  <property name="meta.media.0.codec.colorspace">601</property>
  <property name="meta.media.0.codec.color_trc">6</property>
  <property name="meta.media.0.codec.name">dnxhd</property>
  <property name="meta.media.0.codec.long_name">VC3/DNxHD</property>
  <property name="meta.media.0.codec.bit_rate">121241600</property>
  <property name="meta.attr.0.stream.language.markup">eng</property>
  <property name="meta.attr.0.stream.handler_name.markup">VideoHandler</property>
  <property name="meta.attr.0.stream.vendor_id.markup">FFMP</property>
  <property name="meta.attr.0.stream.encoder.markup">Lavc58.134.100 dnxhd</property>
  <property name="meta.media.1.stream.type">audio</property>
  <property name="meta.media.1.codec.sample_fmt">s16</property>
  <property name="meta.media.1.codec.sample_rate">48000</property>
  <property name="meta.media.1.codec.channels">1</property>
  <property name="meta.media.1.codec.name">pcm_s16le</property>
  <property name="meta.media.1.codec.long_name">PCM signed 16-bit little-endian</property>
  <property name="meta.media.1.codec.bit_rate">768000</property>
  <property name="meta.attr.1.stream.language.markup">eng</property>
  <property name="meta.attr.1.stream.handler_name.markup">SoundHandler</property>
  <property name="meta.attr.1.stream.vendor_id.markup">[0][0][0][0]</property>
  <property name="meta.attr.major_brand.markup">qt  </property>
  <property name="meta.attr.minor_version.markup">512</property>
  <property name="meta.attr.compatible_brands.markup">qt  </property>
  <property name="meta.attr.encoder.markup">Lavf58.76.100</property>
  <property name="seekable">1</property>
  <property name="meta.media.sample_aspect_num">3</property>
  <property name="meta.media.sample_aspect_den">4</property>
  <property name="audio_index">1</property>
  <property name="video_index">0</property>
  <property name="mute_on_pause">1</property>
  <property name="warp_speed">1.96491</property>
  <property name="warp_resource">/home/duangsuse/.gnome2/cheese/media/2021-08-13-075652.webm.mov</property>
  <property name="mlt_service">timewarp</property>
  <property name="set.test_audio">1</property>
  <property name="set.test_image">0</property>
  <property name="kdenlive:id">13</property>
  <property name="warp_pitch">0</property>
  <property name="meta.media.frame_rate_num">25</property>
  <property name="meta.media.frame_rate_den">1</property>
  <property name="meta.media.colorspace">601</property>
  <property name="meta.media.color_trc">6</property>
  <property name="meta.media.width">1920</property>
  <property name="meta.media.height">1080</property>
  <property name="meta.media.color_range">mpeg</property>
  <property name="meta.media.top_field_first">1</property>
  <property name="meta.media.progressive">0</property>
 </producer>
 <producer id="producer62" in="00:00:00.000" out="00:00:42.440">
  <property name="length">1062</property>
  <property name="eof">pause</property>
  <property name="resource">插入.mkv</property>
  <property name="audio_index">1</property>
  <property name="video_index">0</property>
  <property name="mute_on_pause">0</property>
  <property name="mlt_service">avformat-novalidate</property>
  <property name="seekable">1</property>
  <property name="aspect_ratio">1</property>
  <property name="kdenlive:clipname"/>
  <property name="kdenlive:folderid">-1</property>
  <property name="kdenlive:id">9</property>
  <property name="kdenlive:file_size">1101679</property>
  <property name="kdenlive:file_hash">7739b6ac5b85915fcbc06ddda92062ee</property>
  <property name="kdenlive:audio_max">1</property>
  <property name="global_feed">1</property>
  <property name="xml">was here</property>
  <property name="meta.media.nb_streams">2</property>
  <property name="meta.media.0.stream.type">video</property>
  <property name="meta.media.0.stream.frame_rate">30</property>
  <property name="meta.media.0.stream.sample_aspect_ratio">0</property>
  <property name="meta.media.0.codec.width">620</property>
  <property name="meta.media.0.codec.height">268</property>
  <property name="meta.media.0.codec.rotate">0</property>
  <property name="meta.media.0.codec.frame_rate">30</property>
  <property name="meta.media.0.codec.pix_fmt">yuv420p</property>
  <property name="meta.media.0.codec.sample_aspect_ratio">1</property>
  <property name="meta.media.0.codec.colorspace">709</property>
  <property name="meta.media.0.codec.color_trc">1</property>
  <property name="meta.media.0.codec.name">h264</property>
  <property name="meta.media.0.codec.long_name">H.264 / AVC / MPEG-4 AVC / MPEG-4 part 10</property>
  <property name="meta.media.0.codec.bit_rate">0</property>
  <property name="meta.attr.0.stream.DURATION.markup">00:00:42.500000000</property>
  <property name="meta.media.1.stream.type">audio</property>
  <property name="meta.media.1.codec.sample_fmt">fltp</property>
  <property name="meta.media.1.codec.sample_rate">48000</property>
  <property name="meta.media.1.codec.channels">2</property>
  <property name="meta.media.1.codec.name">aac</property>
  <property name="meta.media.1.codec.long_name">AAC (Advanced Audio Coding)</property>
  <property name="meta.media.1.codec.bit_rate">0</property>
  <property name="meta.attr.1.stream.title.markup">simple_aac_recording</property>
  <property name="meta.attr.1.stream.DURATION.markup">00:00:42.347000000</property>
  <property name="meta.attr.ENCODER.markup">Lavf58.76.100</property>
  <property name="meta.media.sample_aspect_num">1</property>
  <property name="meta.media.sample_aspect_den">1</property>
  <property name="meta.media.frame_rate_num">30</property>
  <property name="meta.media.frame_rate_den">1</property>
  <property name="meta.media.colorspace">709</property>
  <property name="meta.media.color_trc">1</property>
  <property name="meta.media.width">620</property>
  <property name="meta.media.height">268</property>
  <property name="meta.media.color_range">mpeg</property>
  <property name="meta.media.top_field_first">0</property>
  <property name="meta.media.progressive">1</property>
  <property name="set.test_audio">1</property>
  <property name="set.test_image">0</property>
 </producer>
 <producer id="producer63" in="00:00:00.000" out="00:00:40.920">
  <property name="length">1024</property>
  <property name="eof">pause</property>
  <property name="resource">冒泡.mkv</property>
  <property name="audio_index">1</property>
  <property name="video_index">0</property>
  <property name="mute_on_pause">0</property>
  <property name="mlt_service">avformat-novalidate</property>
  <property name="seekable">1</property>
  <property name="aspect_ratio">1</property>
  <property name="kdenlive:clipname"/>
  <property name="kdenlive:folderid">-1</property>
  <property name="kdenlive:id">8</property>
  <property name="kdenlive:file_size">1080518</property>
  <property name="kdenlive:file_hash">73f98feec7d3a623edaa274a50bc75ff</property>
  <property name="kdenlive:audio_max">1</property>
  <property name="global_feed">1</property>
  <property name="xml">was here</property>
  <property name="meta.media.nb_streams">2</property>
  <property name="meta.media.0.stream.type">video</property>
  <property name="meta.media.0.stream.frame_rate">30</property>
  <property name="meta.media.0.stream.sample_aspect_ratio">0</property>
  <property name="meta.media.0.codec.width">620</property>
  <property name="meta.media.0.codec.height">268</property>
  <property name="meta.media.0.codec.rotate">0</property>
  <property name="meta.media.0.codec.frame_rate">30</property>
  <property name="meta.media.0.codec.pix_fmt">yuv420p</property>
  <property name="meta.media.0.codec.sample_aspect_ratio">1</property>
  <property name="meta.media.0.codec.colorspace">709</property>
  <property name="meta.media.0.codec.color_trc">1</property>
  <property name="meta.media.0.codec.name">h264</property>
  <property name="meta.media.0.codec.long_name">H.264 / AVC / MPEG-4 AVC / MPEG-4 part 10</property>
  <property name="meta.media.0.codec.bit_rate">0</property>
  <property name="meta.attr.0.stream.DURATION.markup">00:00:40.966000000</property>
  <property name="meta.media.1.stream.type">audio</property>
  <property name="meta.media.1.codec.sample_fmt">fltp</property>
  <property name="meta.media.1.codec.sample_rate">48000</property>
  <property name="meta.media.1.codec.channels">2</property>
  <property name="meta.media.1.codec.name">aac</property>
  <property name="meta.media.1.codec.long_name">AAC (Advanced Audio Coding)</property>
  <property name="meta.media.1.codec.bit_rate">0</property>
  <property name="meta.attr.1.stream.title.markup">simple_aac_recording</property>
  <property name="meta.attr.1.stream.DURATION.markup">00:00:40.832000000</property>
  <property name="meta.attr.ENCODER.markup">Lavf58.76.100</property>
  <property name="meta.media.sample_aspect_num">1</property>
  <property name="meta.media.sample_aspect_den">1</property>
  <property name="meta.media.frame_rate_num">30</property>
  <property name="meta.media.frame_rate_den">1</property>
  <property name="meta.media.colorspace">709</property>
  <property name="meta.media.color_trc">1</property>
  <property name="meta.media.width">620</property>
  <property name="meta.media.height">268</property>
  <property name="meta.media.color_range">mpeg</property>
  <property name="meta.media.top_field_first">0</property>
  <property name="meta.media.progressive">1</property>
  <property name="set.test_audio">1</property>
  <property name="set.test_image">0</property>
 </producer>
 <producer id="producer64" in="00:00:00.000" out="00:00:58.000">
  <property name="length">1451</property>
  <property name="eof">pause</property>
  <property name="resource">快排.mkv</property>
  <property name="audio_index">1</property>
  <property name="video_index">0</property>
  <property name="mute_on_pause">0</property>
  <property name="mlt_service">avformat-novalidate</property>
  <property name="seekable">1</property>
  <property name="aspect_ratio">1</property>
  <property name="kdenlive:clipname"/>
  <property name="kdenlive:folderid">-1</property>
  <property name="kdenlive:id">7</property>
  <property name="kdenlive:file_size">1525168</property>
  <property name="kdenlive:file_hash">69e72448e95b8f9fb0007a8b921e6d3b</property>
  <property name="kdenlive:audio_max">1</property>
  <property name="global_feed">1</property>
  <property name="xml">was here</property>
  <property name="meta.media.nb_streams">2</property>
  <property name="meta.media.0.stream.type">video</property>
  <property name="meta.media.0.stream.frame_rate">30</property>
  <property name="meta.media.0.stream.sample_aspect_ratio">0</property>
  <property name="meta.media.0.codec.width">620</property>
  <property name="meta.media.0.codec.height">268</property>
  <property name="meta.media.0.codec.rotate">0</property>
  <property name="meta.media.0.codec.frame_rate">30</property>
  <property name="meta.media.0.codec.pix_fmt">yuv420p</property>
  <property name="meta.media.0.codec.sample_aspect_ratio">1</property>
  <property name="meta.media.0.codec.colorspace">709</property>
  <property name="meta.media.0.codec.color_trc">1</property>
  <property name="meta.media.0.codec.name">h264</property>
  <property name="meta.media.0.codec.long_name">H.264 / AVC / MPEG-4 AVC / MPEG-4 part 10</property>
  <property name="meta.media.0.codec.bit_rate">0</property>
  <property name="meta.attr.0.stream.DURATION.markup">00:00:58.033000000</property>
  <property name="meta.media.1.stream.type">audio</property>
  <property name="meta.media.1.codec.sample_fmt">fltp</property>
  <property name="meta.media.1.codec.sample_rate">48000</property>
  <property name="meta.media.1.codec.channels">2</property>
  <property name="meta.media.1.codec.name">aac</property>
  <property name="meta.media.1.codec.long_name">AAC (Advanced Audio Coding)</property>
  <property name="meta.media.1.codec.bit_rate">0</property>
  <property name="meta.attr.1.stream.title.markup">simple_aac_recording</property>
  <property name="meta.attr.1.stream.DURATION.markup">00:00:57.899000000</property>
  <property name="meta.attr.ENCODER.markup">Lavf58.76.100</property>
  <property name="meta.media.sample_aspect_num">1</property>
  <property name="meta.media.sample_aspect_den">1</property>
  <property name="meta.media.frame_rate_num">30</property>
  <property name="meta.media.frame_rate_den">1</property>
  <property name="meta.media.colorspace">709</property>
  <property name="meta.media.color_trc">1</property>
  <property name="meta.media.width">620</property>
  <property name="meta.media.height">268</property>
  <property name="meta.media.color_range">mpeg</property>
  <property name="meta.media.top_field_first">0</property>
  <property name="meta.media.progressive">1</property>
  <property name="set.test_audio">1</property>
  <property name="set.test_image">0</property>
 </producer>
 <producer id="producer65" in="00:00:00.000" out="00:00:41.640">
  <property name="length">1042</property>
  <property name="eof">pause</property>
  <property name="resource">合并.mkv</property>
  <property name="audio_index">1</property>
  <property name="video_index">0</property>
  <property name="mute_on_pause">0</property>
  <property name="mlt_service">avformat-novalidate</property>
  <property name="seekable">1</property>
  <property name="aspect_ratio">1</property>
  <property name="kdenlive:clipname"/>
  <property name="kdenlive:folderid">-1</property>
  <property name="kdenlive:id">6</property>
  <property name="kdenlive:file_size">1137415</property>
  <property name="kdenlive:file_hash">ebd29cf9218847bcf326e3b95f2fad38</property>
  <property name="kdenlive:audio_max">1</property>
  <property name="global_feed">1</property>
  <property name="xml">was here</property>
  <property name="meta.media.nb_streams">2</property>
  <property name="meta.media.0.stream.type">video</property>
  <property name="meta.media.0.stream.frame_rate">30</property>
  <property name="meta.media.0.stream.sample_aspect_ratio">0</property>
  <property name="meta.media.0.codec.width">620</property>
  <property name="meta.media.0.codec.height">268</property>
  <property name="meta.media.0.codec.rotate">0</property>
  <property name="meta.media.0.codec.frame_rate">30</property>
  <property name="meta.media.0.codec.pix_fmt">yuv420p</property>
  <property name="meta.media.0.codec.sample_aspect_ratio">1</property>
  <property name="meta.media.0.codec.colorspace">709</property>
  <property name="meta.media.0.codec.color_trc">1</property>
  <property name="meta.media.0.codec.name">h264</property>
  <property name="meta.media.0.codec.long_name">H.264 / AVC / MPEG-4 AVC / MPEG-4 part 10</property>
  <property name="meta.media.0.codec.bit_rate">0</property>
  <property name="meta.attr.0.stream.DURATION.markup">00:00:41.666000000</property>
  <property name="meta.media.1.stream.type">audio</property>
  <property name="meta.media.1.codec.sample_fmt">fltp</property>
  <property name="meta.media.1.codec.sample_rate">48000</property>
  <property name="meta.media.1.codec.channels">2</property>
  <property name="meta.media.1.codec.name">aac</property>
  <property name="meta.media.1.codec.long_name">AAC (Advanced Audio Coding)</property>
  <property name="meta.media.1.codec.bit_rate">0</property>
  <property name="meta.attr.1.stream.title.markup">simple_aac_recording</property>
  <property name="meta.attr.1.stream.DURATION.markup">00:00:41.579000000</property>
  <property name="meta.attr.ENCODER.markup">Lavf58.76.100</property>
  <property name="meta.media.sample_aspect_num">1</property>
  <property name="meta.media.sample_aspect_den">1</property>
  <property name="meta.media.frame_rate_num">30</property>
  <property name="meta.media.frame_rate_den">1</property>
  <property name="meta.media.colorspace">709</property>
  <property name="meta.media.color_trc">1</property>
  <property name="meta.media.width">620</property>
  <property name="meta.media.height">268</property>
  <property name="meta.media.color_range">mpeg</property>
  <property name="meta.media.top_field_first">0</property>
  <property name="meta.media.progressive">1</property>
  <property name="set.test_audio">1</property>
  <property name="set.test_image">0</property>
 </producer>
 <producer id="producer66" in="00:00:00.000" out="00:00:12.680">
  <property name="length">318</property>
  <property name="eof">pause</property>
  <property name="resource">添.mkv</property>
  <property name="audio_index">1</property>
  <property name="video_index">0</property>
  <property name="mute_on_pause">0</property>
  <property name="mlt_service">avformat-novalidate</property>
  <property name="seekable">1</property>
  <property name="aspect_ratio">1</property>
  <property name="kdenlive:clipname"/>
  <property name="kdenlive:folderid">-1</property>
  <property name="kdenlive:id">4</property>
  <property name="kdenlive:file_size">338986</property>
  <property name="kdenlive:file_hash">2ae99f09bdfe4bd2932bdbf896e1c143</property>
  <property name="kdenlive:audio_max">1</property>
  <property name="global_feed">1</property>
  <property name="xml">was here</property>
  <property name="meta.media.nb_streams">2</property>
  <property name="meta.media.0.stream.type">video</property>
  <property name="meta.media.0.stream.frame_rate">30</property>
  <property name="meta.media.0.stream.sample_aspect_ratio">0</property>
  <property name="meta.media.0.codec.width">620</property>
  <property name="meta.media.0.codec.height">268</property>
  <property name="meta.media.0.codec.rotate">0</property>
  <property name="meta.media.0.codec.frame_rate">30</property>
  <property name="meta.media.0.codec.pix_fmt">yuv420p</property>
  <property name="meta.media.0.codec.sample_aspect_ratio">1</property>
  <property name="meta.media.0.codec.colorspace">709</property>
  <property name="meta.media.0.codec.color_trc">1</property>
  <property name="meta.media.0.codec.name">h264</property>
  <property name="meta.media.0.codec.long_name">H.264 / AVC / MPEG-4 AVC / MPEG-4 part 10</property>
  <property name="meta.media.0.codec.bit_rate">0</property>
  <property name="meta.attr.0.stream.DURATION.markup">00:00:12.700000000</property>
  <property name="meta.media.1.stream.type">audio</property>
  <property name="meta.media.1.codec.sample_fmt">fltp</property>
  <property name="meta.media.1.codec.sample_rate">48000</property>
  <property name="meta.media.1.codec.channels">2</property>
  <property name="meta.media.1.codec.name">aac</property>
  <property name="meta.media.1.codec.long_name">AAC (Advanced Audio Coding)</property>
  <property name="meta.media.1.codec.bit_rate">0</property>
  <property name="meta.attr.1.stream.title.markup">simple_aac_recording</property>
  <property name="meta.attr.1.stream.DURATION.markup">00:00:12.629000000</property>
  <property name="meta.attr.ENCODER.markup">Lavf58.76.100</property>
  <property name="meta.media.sample_aspect_num">1</property>
  <property name="meta.media.sample_aspect_den">1</property>
  <property name="meta.media.frame_rate_num">30</property>
  <property name="meta.media.frame_rate_den">1</property>
  <property name="meta.media.colorspace">709</property>
  <property name="meta.media.color_trc">1</property>
  <property name="meta.media.width">620</property>
  <property name="meta.media.height">268</property>
  <property name="meta.media.color_range">mpeg</property>
  <property name="meta.media.top_field_first">0</property>
  <property name="meta.media.progressive">1</property>
  <property name="set.test_audio">1</property>
  <property name="set.test_image">0</property>
 </producer>
 <producer id="producer67" in="00:00:00.000" out="00:00:07.000">
  <property name="length">176</property>
  <property name="eof">pause</property>
  <property name="resource">左添.mkv</property>
  <property name="audio_index">1</property>
  <property name="video_index">0</property>
  <property name="mute_on_pause">0</property>
  <property name="mlt_service">avformat-novalidate</property>
  <property name="seekable">1</property>
  <property name="aspect_ratio">1</property>
  <property name="kdenlive:clipname"/>
  <property name="kdenlive:folderid">-1</property>
  <property name="kdenlive:id">5</property>
  <property name="kdenlive:file_size">195429</property>
  <property name="kdenlive:file_hash">5996fc037d348faa0ad3897dc92aa0c4</property>
  <property name="kdenlive:audio_max">1</property>
  <property name="global_feed">1</property>
  <property name="xml">was here</property>
  <property name="meta.media.nb_streams">2</property>
  <property name="meta.media.0.stream.type">video</property>
  <property name="meta.media.0.stream.frame_rate">30</property>
  <property name="meta.media.0.stream.sample_aspect_ratio">0</property>
  <property name="meta.media.0.codec.width">620</property>
  <property name="meta.media.0.codec.height">268</property>
  <property name="meta.media.0.codec.rotate">0</property>
  <property name="meta.media.0.codec.frame_rate">30</property>
  <property name="meta.media.0.codec.pix_fmt">yuv420p</property>
  <property name="meta.media.0.codec.sample_aspect_ratio">1</property>
  <property name="meta.media.0.codec.colorspace">709</property>
  <property name="meta.media.0.codec.color_trc">1</property>
  <property name="meta.media.0.codec.name">h264</property>
  <property name="meta.media.0.codec.long_name">H.264 / AVC / MPEG-4 AVC / MPEG-4 part 10</property>
  <property name="meta.media.0.codec.bit_rate">0</property>
  <property name="meta.attr.0.stream.DURATION.markup">00:00:07.033000000</property>
  <property name="meta.media.1.stream.type">audio</property>
  <property name="meta.media.1.codec.sample_fmt">fltp</property>
  <property name="meta.media.1.codec.sample_rate">48000</property>
  <property name="meta.media.1.codec.channels">2</property>
  <property name="meta.media.1.codec.name">aac</property>
  <property name="meta.media.1.codec.long_name">AAC (Advanced Audio Coding)</property>
  <property name="meta.media.1.codec.bit_rate">0</property>
  <property name="meta.attr.1.stream.title.markup">simple_aac_recording</property>
  <property name="meta.attr.1.stream.DURATION.markup">00:00:06.912000000</property>
  <property name="meta.attr.ENCODER.markup">Lavf58.76.100</property>
  <property name="meta.media.sample_aspect_num">1</property>
  <property name="meta.media.sample_aspect_den">1</property>
  <property name="meta.media.frame_rate_num">30</property>
  <property name="meta.media.frame_rate_den">1</property>
  <property name="meta.media.colorspace">709</property>
  <property name="meta.media.color_trc">1</property>
  <property name="meta.media.width">620</property>
  <property name="meta.media.height">268</property>
  <property name="meta.media.color_range">mpeg</property>
  <property name="meta.media.top_field_first">0</property>
  <property name="meta.media.progressive">1</property>
  <property name="set.test_audio">1</property>
  <property name="set.test_image">0</property>
 </producer>
 <producer id="producer68" in="00:00:00.000" out="00:00:25.400">
  <property name="length">636</property>
  <property name="eof">pause</property>
  <property name="resource">fifo.mkv</property>
  <property name="audio_index">1</property>
  <property name="video_index">0</property>
  <property name="mute_on_pause">0</property>
  <property name="mlt_service">avformat-novalidate</property>
  <property name="seekable">1</property>
  <property name="aspect_ratio">1</property>
  <property name="kdenlive:clipname"/>
  <property name="kdenlive:folderid">-1</property>
  <property name="kdenlive:id">3</property>
  <property name="kdenlive:file_size">736169</property>
  <property name="kdenlive:file_hash">58b6e30d8be07020e996a58074feb632</property>
  <property name="kdenlive:audio_max">1</property>
  <property name="global_feed">1</property>
  <property name="xml">was here</property>
  <property name="meta.media.nb_streams">2</property>
  <property name="meta.media.0.stream.type">video</property>
  <property name="meta.media.0.stream.frame_rate">30</property>
  <property name="meta.media.0.stream.sample_aspect_ratio">0</property>
  <property name="meta.media.0.codec.width">988</property>
  <property name="meta.media.0.codec.height">268</property>
  <property name="meta.media.0.codec.rotate">0</property>
  <property name="meta.media.0.codec.frame_rate">30</property>
  <property name="meta.media.0.codec.pix_fmt">yuv420p</property>
  <property name="meta.media.0.codec.sample_aspect_ratio">1</property>
  <property name="meta.media.0.codec.colorspace">709</property>
  <property name="meta.media.0.codec.color_trc">1</property>
  <property name="meta.media.0.codec.name">h264</property>
  <property name="meta.media.0.codec.long_name">H.264 / AVC / MPEG-4 AVC / MPEG-4 part 10</property>
  <property name="meta.media.0.codec.bit_rate">0</property>
  <property name="meta.attr.0.stream.DURATION.markup">00:00:25.433000000</property>
  <property name="meta.media.1.stream.type">audio</property>
  <property name="meta.media.1.codec.sample_fmt">fltp</property>
  <property name="meta.media.1.codec.sample_rate">48000</property>
  <property name="meta.media.1.codec.channels">2</property>
  <property name="meta.media.1.codec.name">aac</property>
  <property name="meta.media.1.codec.long_name">AAC (Advanced Audio Coding)</property>
  <property name="meta.media.1.codec.bit_rate">0</property>
  <property name="meta.attr.1.stream.title.markup">simple_aac_recording</property>
  <property name="meta.attr.1.stream.DURATION.markup">00:00:25.323000000</property>
  <property name="meta.attr.ENCODER.markup">Lavf58.76.100</property>
  <property name="meta.media.sample_aspect_num">1</property>
  <property name="meta.media.sample_aspect_den">1</property>
  <property name="meta.media.frame_rate_num">30</property>
  <property name="meta.media.frame_rate_den">1</property>
  <property name="meta.media.colorspace">709</property>
  <property name="meta.media.color_trc">1</property>
  <property name="meta.media.width">988</property>
  <property name="meta.media.height">268</property>
  <property name="meta.media.color_range">mpeg</property>
  <property name="meta.media.top_field_first">0</property>
  <property name="meta.media.progressive">1</property>
  <property name="set.test_audio">1</property>
  <property name="set.test_image">0</property>
 </producer>
 <producer id="producer69" in="00:00:00.000" out="00:00:23.200">
  <property name="length">581</property>
  <property name="eof">pause</property>
  <property name="resource">lifo.mkv</property>
  <property name="audio_index">1</property>
  <property name="video_index">0</property>
  <property name="mute_on_pause">0</property>
  <property name="mlt_service">avformat-novalidate</property>
  <property name="seekable">1</property>
  <property name="aspect_ratio">1</property>
  <property name="kdenlive:clipname"/>
  <property name="kdenlive:folderid">-1</property>
  <property name="kdenlive:id">2</property>
  <property name="kdenlive:file_size">681107</property>
  <property name="kdenlive:file_hash">3a4310f12abda2d3a71f2f1f2b3c0f65</property>
  <property name="kdenlive:audio_max">1</property>
  <property name="global_feed">1</property>
  <property name="xml">was here</property>
  <property name="meta.media.nb_streams">2</property>
  <property name="meta.media.0.stream.type">video</property>
  <property name="meta.media.0.stream.frame_rate">30</property>
  <property name="meta.media.0.stream.sample_aspect_ratio">0</property>
  <property name="meta.media.0.codec.width">988</property>
  <property name="meta.media.0.codec.height">268</property>
  <property name="meta.media.0.codec.rotate">0</property>
  <property name="meta.media.0.codec.frame_rate">30</property>
  <property name="meta.media.0.codec.pix_fmt">yuv420p</property>
  <property name="meta.media.0.codec.sample_aspect_ratio">1</property>
  <property name="meta.media.0.codec.colorspace">709</property>
  <property name="meta.media.0.codec.color_trc">1</property>
  <property name="meta.media.0.codec.name">h264</property>
  <property name="meta.media.0.codec.long_name">H.264 / AVC / MPEG-4 AVC / MPEG-4 part 10</property>
  <property name="meta.media.0.codec.bit_rate">0</property>
  <property name="meta.attr.0.stream.DURATION.markup">00:00:23.233000000</property>
  <property name="meta.media.1.stream.type">audio</property>
  <property name="meta.media.1.codec.sample_fmt">fltp</property>
  <property name="meta.media.1.codec.sample_rate">48000</property>
  <property name="meta.media.1.codec.channels">2</property>
  <property name="meta.media.1.codec.name">aac</property>
  <property name="meta.media.1.codec.long_name">AAC (Advanced Audio Coding)</property>
  <property name="meta.media.1.codec.bit_rate">0</property>
  <property name="meta.attr.1.stream.title.markup">simple_aac_recording</property>
  <property name="meta.attr.1.stream.DURATION.markup">00:00:23.125000000</property>
  <property name="meta.attr.ENCODER.markup">Lavf58.76.100</property>
  <property name="meta.media.sample_aspect_num">1</property>
  <property name="meta.media.sample_aspect_den">1</property>
  <property name="meta.media.frame_rate_num">30</property>
  <property name="meta.media.frame_rate_den">1</property>
  <property name="meta.media.colorspace">709</property>
  <property name="meta.media.color_trc">1</property>
  <property name="meta.media.width">988</property>
  <property name="meta.media.height">268</property>
  <property name="meta.media.color_range">mpeg</property>
  <property name="meta.media.top_field_first">0</property>
  <property name="meta.media.progressive">1</property>
  <property name="set.test_audio">1</property>
  <property name="set.test_image">0</property>
 </producer>
 <producer id="producer70" in="00:00:00.000" out="00:00:49.920">
  <property name="length">1250</property>
  <property name="eof">pause</property>
  <property name="resource">0.464968:lifo.mkv</property>
  <property name="aspect_ratio">1</property>
  <property name="meta.media.nb_streams">2</property>
  <property name="meta.media.0.stream.type">video</property>
  <property name="meta.media.0.stream.frame_rate">30</property>
  <property name="meta.media.0.stream.sample_aspect_ratio">0</property>
  <property name="meta.media.0.codec.width">988</property>
  <property name="meta.media.0.codec.height">268</property>
  <property name="meta.media.0.codec.rotate">0</property>
  <property name="meta.media.0.codec.frame_rate">30</property>
  <property name="meta.media.0.codec.pix_fmt">yuv420p</property>
  <property name="meta.media.0.codec.sample_aspect_ratio">1</property>
  <property name="meta.media.0.codec.colorspace">709</property>
  <property name="meta.media.0.codec.color_trc">1</property>
  <property name="meta.media.0.codec.name">h264</property>
  <property name="meta.media.0.codec.long_name">H.264 / AVC / MPEG-4 AVC / MPEG-4 part 10</property>
  <property name="meta.media.0.codec.bit_rate">0</property>
  <property name="meta.attr.0.stream.DURATION.markup">00:00:23.233000000</property>
  <property name="meta.media.1.stream.type">audio</property>
  <property name="meta.media.1.codec.sample_fmt">fltp</property>
  <property name="meta.media.1.codec.sample_rate">48000</property>
  <property name="meta.media.1.codec.channels">2</property>
  <property name="meta.media.1.codec.name">aac</property>
  <property name="meta.media.1.codec.long_name">AAC (Advanced Audio Coding)</property>
  <property name="meta.media.1.codec.bit_rate">0</property>
  <property name="meta.attr.1.stream.title.markup">simple_aac_recording</property>
  <property name="meta.attr.1.stream.DURATION.markup">00:00:23.125000000</property>
  <property name="meta.attr.ENCODER.markup">Lavf58.76.100</property>
  <property name="seekable">1</property>
  <property name="meta.media.sample_aspect_num">1</property>
  <property name="meta.media.sample_aspect_den">1</property>
  <property name="audio_index">1</property>
  <property name="video_index">0</property>
  <property name="mute_on_pause">1</property>
  <property name="warp_speed">0.464968</property>
  <property name="warp_resource">lifo.mkv</property>
  <property name="mlt_service">timewarp</property>
  <property name="set.test_audio">1</property>
  <property name="set.test_image">0</property>
  <property name="kdenlive:id">2</property>
  <property name="warp_pitch">0</property>
  <property name="meta.media.frame_rate_num">30</property>
  <property name="meta.media.frame_rate_den">1</property>
  <property name="meta.media.colorspace">709</property>
  <property name="meta.media.color_trc">1</property>
  <property name="meta.media.width">988</property>
  <property name="meta.media.height">268</property>
  <property name="meta.media.color_range">mpeg</property>
  <property name="meta.media.top_field_first">0</property>
  <property name="meta.media.progressive">1</property>
 </producer>
 <playlist id="playlist6">
  <entry producer="producer12" in="00:00:00.000" out="00:00:01.040">
   <property name="kdenlive:id">14</property>
  </entry>
  <entry producer="producer61" in="00:00:00.000" out="00:00:02.240">
   <property name="kdenlive:id">13</property>
   <filter id="filter8">
    <property name="version">0.9</property>
    <property name="mlt_service">frei0r.softglow</property>
    <property name="kdenlive_id">frei0r.softglow</property>
    <property name="brightness">00:00:00.000=0.88</property>
    <property name="sharpness">00:00:00.000=0.23</property>
    <property name="blurblend">00:00:00.000=0</property>
    <property name="kdenlive:collapsed">0</property>
   </filter>
  </entry>
  <entry producer="producer14" in="00:00:00.000" out="00:00:00.880">
   <property name="kdenlive:id">16</property>
  </entry>
  <blank length="00:00:01.160"/>
  <entry producer="producer16" in="00:00:00.000" out="00:00:00.960">
   <property name="kdenlive:id">18</property>
  </entry>
  <entry producer="producer15" in="00:00:00.000" out="00:00:01.480">
   <property name="kdenlive:id">17</property>
  </entry>
  <entry producer="producer39" in="00:00:00.000" out="00:00:04.200">
   <property name="kdenlive:id">42</property>
  </entry>
  <entry producer="producer17" in="00:00:00.000" out="00:00:02.280">
   <property name="kdenlive:id">19</property>
  </entry>
  <entry producer="producer48" in="00:00:00.000" out="00:00:02.120">
   <property name="kdenlive:id">51</property>
  </entry>
  <entry producer="producer41" in="00:00:00.000" out="00:00:04.960">
   <property name="kdenlive:id">44</property>
  </entry>
  <blank length="00:00:00.240"/>
  <entry producer="producer16" in="00:00:00.000" out="00:00:01.120">
   <property name="kdenlive:id">18</property>
  </entry>
  <entry producer="producer18" in="00:00:00.000" out="00:00:01.520">
   <property name="kdenlive:id">20</property>
  </entry>
  <blank length="00:00:00.400"/>
  <entry producer="producer41" in="00:00:00.000" out="00:00:04.960">
   <property name="kdenlive:id">44</property>
  </entry>
  <blank length="00:00:08.640"/>
  <entry producer="producer19" in="00:00:00.000" out="00:00:04.960">
   <property name="kdenlive:id">22</property>
  </entry>
  <blank length="00:00:00.920"/>
  <entry producer="producer20" in="00:00:00.000" out="00:00:04.960">
   <property name="kdenlive:id">23</property>
  </entry>
  <blank length="00:00:00.760"/>
  <entry producer="producer21" in="00:00:00.000" out="00:00:04.960">
   <property name="kdenlive:id">24</property>
  </entry>
  <blank length="00:00:00.960"/>
  <entry producer="producer23" in="00:00:00.000" out="00:00:02.920">
   <property name="kdenlive:id">26</property>
   <property name="kdenlive:activeeffect">0</property>
   <filter id="filter9">
    <property name="rotate_center">1</property>
    <property name="mlt_service">qtblend</property>
    <property name="kdenlive_id">qtblend</property>
    <property name="rect">00:00:00.000=-218 -508 4220 2374 1.000000;00:00:02.920=-218 -834 4220 2374 1.000000</property>
    <property name="rotation">00:00:00.000=0;00:00:02.920=0</property>
    <property name="compositing">0</property>
    <property name="distort">0</property>
    <property name="kdenlive:collapsed">0</property>
   </filter>
  </entry>
  <entry producer="producer24" in="00:00:00.000" out="00:00:02.280">
   <property name="kdenlive:id">27</property>
   <property name="kdenlive:activeeffect">0</property>
   <filter id="filter10">
    <property name="rotate_center">1</property>
    <property name="mlt_service">qtblend</property>
    <property name="kdenlive_id">qtblend</property>
    <property name="rect">00:00:00.000=0 0 1920 1080 1.000000;00:00:00.520=0 0 1920 1080 1.000000;00:00:01.840=-208 -311 4233 2381 1.000000</property>
    <property name="rotation">00:00:00.000=0;00:00:00.520=0;00:00:01.840=0</property>
    <property name="compositing">0</property>
    <property name="distort">0</property>
    <property name="kdenlive:collapsed">0</property>
   </filter>
  </entry>
  <entry producer="producer25" in="00:00:00.000" out="00:00:01.120">
   <property name="kdenlive:id">28</property>
   <property name="kdenlive:activeeffect">-1</property>
  </entry>
  <entry producer="producer22" in="00:00:00.000" out="00:00:03.960">
   <property name="kdenlive:id">25</property>
   <property name="kdenlive:activeeffect">0</property>
   <filter id="filter11">
    <property name="rotate_center">1</property>
    <property name="mlt_service">qtblend</property>
    <property name="kdenlive_id">qtblend</property>
    <property name="rect">00:00:00.000=-467 -2 2848 1602 1.000000;00:00:03.960=-467 -518 2848 1602 1.000000</property>
    <property name="rotation">00:00:00.000=0;00:00:03.960=0</property>
    <property name="compositing">0</property>
    <property name="distort">0</property>
    <property name="kdenlive:collapsed">0</property>
   </filter>
  </entry>
  <blank length="00:00:00.560"/>
  <entry producer="producer26" in="00:00:00.000" out="00:00:10.280">
   <property name="kdenlive:id">29</property>
  </entry>
  <entry producer="producer62" in="00:00:00.000" out="00:00:42.440">
   <property name="kdenlive:id">9</property>
  </entry>
  <blank length="00:00:00.400"/>
  <entry producer="producer63" in="00:00:00.000" out="00:00:40.920">
   <property name="kdenlive:id">8</property>
  </entry>
  <blank length="00:00:10.360"/>
  <entry producer="producer64" in="00:00:03.720" out="00:00:58.000">
   <property name="kdenlive:id">7</property>
  </entry>
  <blank length="00:00:02.520"/>
  <entry producer="producer65" in="00:00:00.000" out="00:00:41.640">
   <property name="kdenlive:id">6</property>
  </entry>
  <entry producer="producer66" in="00:00:00.000" out="00:00:12.680">
   <property name="kdenlive:id">4</property>
  </entry>
  <blank length="00:00:00.880"/>
  <entry producer="producer67" in="00:00:00.000" out="00:00:07.000">
   <property name="kdenlive:id">5</property>
  </entry>
  <blank length="00:00:01.000"/>
  <entry producer="producer68" in="00:00:00.000" out="00:00:25.400">
   <property name="kdenlive:id">3</property>
  </entry>
  <blank length="00:00:16.600"/>
  <entry producer="producer69" in="00:00:00.000" out="00:00:20.280">
   <property name="kdenlive:id">2</property>
  </entry>
  <entry producer="producer70" in="00:00:43.680" out="00:00:49.920">
   <property name="kdenlive:id">2</property>
  </entry>
 </playlist>
 <playlist id="playlist7"/>
 <tractor id="tractor3" in="00:00:00.000" out="00:06:00.600">
  <property name="kdenlive:trackheight">69</property>
  <property name="kdenlive:timeline_active">1</property>
  <property name="kdenlive:collapsed">0</property>
  <property name="kdenlive:thumbs_format"/>
  <property name="kdenlive:audio_rec"/>
  <track hide="audio" producer="playlist6"/>
  <track producer="playlist7"/>
 </tractor>
 <playlist id="playlist8">
  <blank length="00:00:30.320"/>
  <entry producer="producer40" in="00:00:00.000" out="00:00:07.320">
   <property name="kdenlive:id">43</property>
  </entry>
  <blank length="00:00:26.440"/>
  <entry producer="producer42" in="00:00:00.000" out="00:00:01.520">
   <property name="kdenlive:id">45</property>
  </entry>
  <blank length="00:00:35.880"/>
  <entry producer="producer27" in="00:00:00.000" out="00:00:04.960">
   <property name="kdenlive:id">30</property>
  </entry>
  <blank length="00:00:04.800"/>
  <entry producer="producer28" in="00:00:00.000" out="00:00:04.960">
   <property name="kdenlive:id">31</property>
  </entry>
  <blank length="00:00:19.360"/>
  <entry producer="producer29" in="00:00:00.000" out="00:00:04.960">
   <property name="kdenlive:id">32</property>
  </entry>
  <blank length="00:00:07.000"/>
  <entry producer="producer30" in="00:00:00.000" out="00:00:09.200">
   <property name="kdenlive:id">33</property>
  </entry>
  <blank length="00:00:04.520"/>
  <entry producer="producer31" in="00:00:00.000" out="00:00:10.320">
   <property name="kdenlive:id">34</property>
  </entry>
  <blank length="00:00:14.280"/>
  <entry producer="producer32" in="00:00:00.000" out="00:00:06.840">
   <property name="kdenlive:id">35</property>
  </entry>
  <blank length="00:00:33.160"/>
  <entry producer="producer31" in="00:00:00.000" out="00:00:02.480">
   <property name="kdenlive:id">34</property>
  </entry>
  <blank length="00:00:13.480"/>
  <entry producer="producer33" in="00:00:00.000" out="00:00:06.040">
   <property name="kdenlive:id">36</property>
  </entry>
  <blank length="00:00:12.440"/>
  <entry producer="producer34" in="00:00:00.000" out="00:00:04.960">
   <property name="kdenlive:id">37</property>
  </entry>
  <blank length="00:00:05.200"/>
  <entry producer="producer35" in="00:00:00.000" out="00:00:04.960">
   <property name="kdenlive:id">38</property>
  </entry>
  <blank length="00:00:20.840"/>
  <entry producer="producer36" in="00:00:00.000" out="00:00:08.160">
   <property name="kdenlive:id">39</property>
  </entry>
  <blank length="00:00:01.440"/>
  <entry producer="producer37" in="00:00:00.000" out="00:00:07.920">
   <property name="kdenlive:id">40</property>
  </entry>
  <blank length="00:00:03.680"/>
  <entry producer="producer43" in="00:00:00.000" out="00:00:03.240">
   <property name="kdenlive:id">46</property>
  </entry>
  <entry producer="producer44" in="00:00:00.000" out="00:00:03.360">
   <property name="kdenlive:id">47</property>
  </entry>
  <entry producer="producer46" in="00:00:00.000" out="00:00:04.320">
   <property name="kdenlive:id">49</property>
  </entry>
  <entry producer="producer45" in="00:00:00.000" out="00:00:04.960">
   <property name="kdenlive:id">48</property>
  </entry>
  <blank length="00:00:16.280"/>
  <entry producer="producer38" in="00:00:00.000" out="00:00:06.080">
   <property name="kdenlive:id">41</property>
  </entry>
  <entry producer="producer47" in="00:00:00.000" out="00:00:04.160">
   <property name="kdenlive:id">50</property>
  </entry>
 </playlist>
 <playlist id="playlist9"/>
 <tractor id="tractor4" in="00:00:00.000" out="00:06:00.600">
  <property name="kdenlive:trackheight">69</property>
  <property name="kdenlive:timeline_active">1</property>
  <property name="kdenlive:collapsed">0</property>
  <property name="kdenlive:thumbs_format"/>
  <property name="kdenlive:audio_rec"/>
  <track hide="audio" producer="playlist8"/>
  <track producer="playlist9"/>
 </tractor>
 <tractor id="tractor5" global_feed="1" in="00:00:00.000" out="00:26:01.160">
  <track producer="black_track"/>
  <track producer="tractor0"/>
  <track producer="tractor1"/>
  <track producer="tractor2"/>
  <track producer="tractor3"/>
  <track producer="tractor4"/>
  <transition id="transition0">
   <property name="a_track">0</property>
   <property name="b_track">1</property>
   <property name="mlt_service">mix</property>
   <property name="kdenlive_id">mix</property>
   <property name="internal_added">237</property>
   <property name="always_active">1</property>
   <property name="accepts_blanks">1</property>
   <property name="sum">1</property>
  </transition>
  <transition id="transition1">
   <property name="a_track">0</property>
   <property name="b_track">2</property>
   <property name="mlt_service">mix</property>
   <property name="kdenlive_id">mix</property>
   <property name="internal_added">237</property>
   <property name="always_active">1</property>
   <property name="accepts_blanks">1</property>
   <property name="sum">1</property>
  </transition>
  <transition id="transition2">
   <property name="a_track">0</property>
   <property name="b_track">3</property>
   <property name="compositing">0</property>
   <property name="distort">0</property>
   <property name="rotate_center">0</property>
   <property name="mlt_service">qtblend</property>
   <property name="kdenlive_id">qtblend</property>
   <property name="internal_added">237</property>
   <property name="always_active">1</property>
  </transition>
  <transition id="transition3">
   <property name="a_track">0</property>
   <property name="b_track">4</property>
   <property name="compositing">0</property>
   <property name="distort">0</property>
   <property name="rotate_center">0</property>
   <property name="mlt_service">qtblend</property>
   <property name="kdenlive_id">qtblend</property>
   <property name="internal_added">237</property>
   <property name="always_active">1</property>
  </transition>
  <transition id="transition4">
   <property name="a_track">0</property>
   <property name="b_track">5</property>
   <property name="compositing">0</property>
   <property name="distort">0</property>
   <property name="rotate_center">0</property>
   <property name="mlt_service">qtblend</property>
   <property name="kdenlive_id">qtblend</property>
   <property name="internal_added">237</property>
   <property name="always_active">1</property>
  </transition>
  <filter id="filter12">
   <property name="window">75</property>
   <property name="max_gain">20dB</property>
   <property name="mlt_service">volume</property>
   <property name="internal_added">237</property>
   <property name="disable">1</property>
  </filter>
  <filter id="filter13">
   <property name="channel">-1</property>
   <property name="mlt_service">panner</property>
   <property name="internal_added">237</property>
   <property name="start">0.5</property>
   <property name="disable">1</property>
  </filter>
  <filter id="filter14">
   <property name="iec_scale">0</property>
   <property name="mlt_service">audiolevel</property>
   <property name="disable">1</property>
  </filter>
 </tractor>
</mlt>
