<?xml version='1.0' encoding='utf-8'?>
<mlt LC_NUMERIC="C" producer="main_bin" version="7.0.0" root="/home/duangsuse/Documents/咱动苏/苏观点/蟑螂">
 <profile frame_rate_num="25" sample_aspect_num="1" display_aspect_den="9" colorspace="709" progressive="1" description="HD 1080p 25 fps" display_aspect_num="16" frame_rate_den="1" width="1920" height="1080" sample_aspect_den="1"/>
 <producer id="producer0" in="00:00:00.000" out="00:00:04.560">
  <property name="length">115</property>
  <property name="eof">pause</property>
  <property name="resource">ls/VID_20210902_072750.mp4</property>
  <property name="audio_index">1</property>
  <property name="video_index">0</property>
  <property name="mute_on_pause">0</property>
  <property name="mlt_service">avformat-novalidate</property>
  <property name="meta.media.nb_streams">2</property>
  <property name="meta.media.0.stream.type">video</property>
  <property name="meta.media.0.stream.frame_rate">29.9463</property>
  <property name="meta.media.0.stream.sample_aspect_ratio">1</property>
  <property name="meta.media.0.codec.width">1280</property>
  <property name="meta.media.0.codec.height">720</property>
  <property name="meta.media.0.codec.rotate">180</property>
  <property name="meta.media.0.codec.frame_rate">30</property>
  <property name="meta.media.0.codec.pix_fmt">yuv420p</property>
  <property name="meta.media.0.codec.sample_aspect_ratio">0</property>
  <property name="meta.media.0.codec.colorspace">709</property>
  <property name="meta.media.0.codec.color_trc">1</property>
  <property name="meta.media.0.codec.name">h264</property>
  <property name="meta.media.0.codec.long_name">H.264 / AVC / MPEG-4 AVC / MPEG-4 part 10</property>
  <property name="meta.media.0.codec.bit_rate">12059039</property>
  <property name="meta.attr.0.stream.rotate.markup">180</property>
  <property name="meta.attr.0.stream.creation_time.markup">2021-09-01T23:27:49.000000Z</property>
  <property name="meta.attr.0.stream.language.markup">eng</property>
  <property name="meta.attr.0.stream.handler_name.markup">VideoHandle</property>
  <property name="meta.attr.0.stream.vendor_id.markup">[0][0][0][0]</property>
  <property name="meta.media.1.stream.type">audio</property>
  <property name="meta.media.1.codec.sample_fmt">fltp</property>
  <property name="meta.media.1.codec.sample_rate">48000</property>
  <property name="meta.media.1.codec.channels">2</property>
  <property name="meta.media.1.codec.name">aac</property>
  <property name="meta.media.1.codec.long_name">AAC (Advanced Audio Coding)</property>
  <property name="meta.media.1.codec.bit_rate">192432</property>
  <property name="meta.attr.1.stream.creation_time.markup">2021-09-01T23:27:49.000000Z</property>
  <property name="meta.attr.1.stream.language.markup">eng</property>
  <property name="meta.attr.1.stream.handler_name.markup">SoundHandle</property>
  <property name="meta.attr.1.stream.vendor_id.markup">[0][0][0][0]</property>
  <property name="meta.attr.major_brand.markup">mp42</property>
  <property name="meta.attr.minor_version.markup">0</property>
  <property name="meta.attr.compatible_brands.markup">isommp42</property>
  <property name="meta.attr.creation_time.markup">2021-09-01T23:27:49.000000Z</property>
  <property name="meta.attr.com.android.version.markup">8.0.0</property>
  <property name="seekable">1</property>
  <property name="meta.media.sample_aspect_num">1</property>
  <property name="meta.media.sample_aspect_den">1</property>
  <property name="aspect_ratio">1</property>
  <property name="kdenlive:clipname"/>
  <property name="kdenlive:folderid">-1</property>
  <property name="meta.media.frame_rate_num">2394000</property>
  <property name="meta.media.frame_rate_den">79943</property>
  <property name="meta.media.colorspace">709</property>
  <property name="meta.media.color_trc">1</property>
  <property name="meta.media.has_b_frames">0</property>
  <property name="meta.media.width">1280</property>
  <property name="meta.media.height">720</property>
  <property name="meta.media.color_range">mpeg</property>
  <property name="meta.media.variable_frame_rate">1</property>
  <property name="meta.media.top_field_first">0</property>
  <property name="meta.media.progressive">1</property>
  <property name="kdenlive:id">2</property>
  <property name="kdenlive:file_size">7606675</property>
  <property name="kdenlive:file_hash">33bdb4a7b33021a96d1077d9044613ec</property>
  <property name="kdenlive:audio_max1">91</property>
 </producer>
 <producer id="producer1" in="00:00:00.000" out="00:18:10.640">
  <property name="length">27267</property>
  <property name="eof">pause</property>
  <property name="resource">ls/aud.ogg</property>
  <property name="meta.media.nb_streams">1</property>
  <property name="meta.media.0.stream.type">audio</property>
  <property name="meta.media.0.codec.sample_fmt">fltp</property>
  <property name="meta.media.0.codec.sample_rate">48000</property>
  <property name="meta.media.0.codec.channels">2</property>
  <property name="meta.media.0.codec.name">vorbis</property>
  <property name="meta.media.0.codec.long_name">Vorbis</property>
  <property name="meta.media.0.codec.bit_rate">499821</property>
  <property name="seekable">1</property>
  <property name="audio_index">0</property>
  <property name="video_index">-1</property>
  <property name="mute_on_pause">1</property>
  <property name="mlt_service">avformat</property>
  <property name="kdenlive:clipname"/>
  <property name="kdenlive:folderid">-1</property>
  <property name="kdenlive:id">3</property>
  <property name="kdenlive:file_size">60415870</property>
  <property name="kdenlive:file_hash">345e8e94e642288e60277df802c7a672</property>
  <property name="kdenlive:audio_max0">229</property>
 </producer>
 <producer id="producer2" in="00:00:00.000" out="00:00:04.960">
  <property name="length">125</property>
  <property name="eof">pause</property>
  <property name="resource"/>
  <property name="progressive">1</property>
  <property name="aspect_ratio">1</property>
  <property name="seekable">1</property>
  <property name="mlt_service">kdenlivetitle</property>
  <property name="kdenlive:duration">125</property>
  <property name="kdenlive:clipname">歪叔， 你的视频很优质 ...</property>
  <property name="xmldata">&lt;kdenlivetitle duration="125" LC_NUMERIC="C" width="1920" height="1080" out="124">
 &lt;item type="QGraphicsTextItem" z-index="0">
  &lt;position x="102" y="163">
   &lt;transform>1,0,0,0,1,0,0,0,1&lt;/transform>
  &lt;/position>
  &lt;content line-spacing="0" shadow="1;#64000000;19;3;3" font-underline="0" box-height="488" font-outline-color="36,31,49,255" font="文泉驿等宽微米黑" letter-spacing="0" font-pixel-size="104" font-italic="0" typewriter="1;7;2;0;0" alignment="1" font-weight="87" gradient="#fff8e45c;#ffe01b24;36;100;112" font-outline="0" box-width="793.406" font-color="0,0,0,255">歪叔，
你的视频 很优质
 
而且 都是原创。&lt;/content>
 &lt;/item>
 &lt;startviewport rect="0,0,1920,1080"/>
 &lt;endviewport rect="0,0,1920,1080"/>
 &lt;background color="0,0,0,0"/>
&lt;/kdenlivetitle>
</property>
  <property name="kdenlive:folderid">-1</property>
  <property name="kdenlive:id">4</property>
  <property name="kdenlive:file_hash">011de2771809b0b3c5dd24e262789c37</property>
  <property name="force_reload">0</property>
  <property name="meta.media.width">1920</property>
  <property name="meta.media.height">1080</property>
 </producer>
 <producer id="producer3" in="00:00:00.000" out="00:00:04.960">
  <property name="length">00:00:05.000</property>
  <property name="eof">pause</property>
  <property name="resource">统/五介.png</property>
  <property name="ttl">25</property>
  <property name="aspect_ratio">1</property>
  <property name="progressive">1</property>
  <property name="seekable">1</property>
  <property name="meta.media.width">1920</property>
  <property name="meta.media.height">1080</property>
  <property name="mlt_service">qimage</property>
  <property name="kdenlive:clipname"/>
  <property name="kdenlive:duration">00:00:05.000</property>
  <property name="kdenlive:folderid">-1</property>
  <property name="kdenlive:id">5</property>
  <property name="kdenlive:file_size">455532</property>
  <property name="kdenlive:file_hash">bb46ae0778b2004ca7688ff71baa9ed7</property>
 </producer>
 <producer id="producer4" in="00:00:00.000" out="00:00:05.200">
  <property name="length">131</property>
  <property name="eof">pause</property>
  <property name="resource">统/五题.png</property>
  <property name="ttl">25</property>
  <property name="aspect_ratio">1</property>
  <property name="progressive">1</property>
  <property name="seekable">1</property>
  <property name="meta.media.width">1920</property>
  <property name="meta.media.height">1080</property>
  <property name="mlt_service">qimage</property>
  <property name="kdenlive:clipname"/>
  <property name="kdenlive:duration">00:00:05.000</property>
  <property name="kdenlive:folderid">-1</property>
  <property name="kdenlive:id">6</property>
  <property name="kdenlive:file_size">515701</property>
  <property name="kdenlive:file_hash">ce155d733be5809fcc24fb01777df846</property>
 </producer>
 <producer id="producer5" in="00:00:00.000" out="00:00:04.960">
  <property name="length">00:00:05.000</property>
  <property name="eof">pause</property>
  <property name="resource">统/歪介.png</property>
  <property name="ttl">25</property>
  <property name="aspect_ratio">1</property>
  <property name="progressive">1</property>
  <property name="seekable">1</property>
  <property name="meta.media.width">1920</property>
  <property name="meta.media.height">1080</property>
  <property name="mlt_service">qimage</property>
  <property name="kdenlive:clipname"/>
  <property name="kdenlive:duration">00:00:05.000</property>
  <property name="kdenlive:folderid">-1</property>
  <property name="kdenlive:id">7</property>
  <property name="kdenlive:file_size">495429</property>
  <property name="kdenlive:file_hash">d0c965ea3273b8f6a80db59a7e9329a7</property>
 </producer>
 <producer id="producer6" in="00:00:00.000" out="00:00:04.960">
  <property name="length">00:00:05.000</property>
  <property name="eof">pause</property>
  <property name="resource">统/歪题.png</property>
  <property name="ttl">25</property>
  <property name="aspect_ratio">1</property>
  <property name="progressive">1</property>
  <property name="seekable">1</property>
  <property name="meta.media.width">1920</property>
  <property name="meta.media.height">1080</property>
  <property name="mlt_service">qimage</property>
  <property name="kdenlive:clipname"/>
  <property name="kdenlive:duration">00:00:05.000</property>
  <property name="kdenlive:folderid">-1</property>
  <property name="kdenlive:id">8</property>
  <property name="kdenlive:file_size">527038</property>
  <property name="kdenlive:file_hash">d713ca4b9f9616eb003ccf26e437b189</property>
 </producer>
 <producer id="producer7" in="00:00:00.000" out="00:00:12.320">
  <property name="length">309</property>
  <property name="eof">pause</property>
  <property name="resource">统/歪日常.png</property>
  <property name="ttl">25</property>
  <property name="aspect_ratio">1</property>
  <property name="progressive">1</property>
  <property name="seekable">1</property>
  <property name="meta.media.width">1920</property>
  <property name="meta.media.height">1080</property>
  <property name="mlt_service">qimage</property>
  <property name="kdenlive:clipname"/>
  <property name="kdenlive:duration">00:00:05.000</property>
  <property name="kdenlive:folderid">-1</property>
  <property name="kdenlive:id">9</property>
  <property name="kdenlive:file_size">542829</property>
  <property name="kdenlive:file_hash">ccd528cd1f280c51abde2555aa8f635e</property>
 </producer>
 <producer id="producer8" in="00:00:00.000" out="00:00:04.960">
  <property name="length">00:00:05.000</property>
  <property name="eof">pause</property>
  <property name="resource">统/爬五.png</property>
  <property name="ttl">25</property>
  <property name="aspect_ratio">1</property>
  <property name="progressive">1</property>
  <property name="seekable">1</property>
  <property name="meta.media.width">1920</property>
  <property name="meta.media.height">1080</property>
  <property name="mlt_service">qimage</property>
  <property name="kdenlive:clipname"/>
  <property name="kdenlive:duration">00:00:05.000</property>
  <property name="kdenlive:folderid">-1</property>
  <property name="kdenlive:id">10</property>
  <property name="kdenlive:file_size">439997</property>
  <property name="kdenlive:file_hash">1f2493d155f0deb120222f9188add3d1</property>
 </producer>
 <producer id="producer9" in="00:00:00.000" out="00:00:04.960">
  <property name="length">00:00:05.000</property>
  <property name="eof">pause</property>
  <property name="resource">统/爬歪.png</property>
  <property name="ttl">25</property>
  <property name="aspect_ratio">1</property>
  <property name="progressive">1</property>
  <property name="seekable">1</property>
  <property name="meta.media.width">1920</property>
  <property name="meta.media.height">1080</property>
  <property name="mlt_service">qimage</property>
  <property name="kdenlive:clipname"/>
  <property name="kdenlive:duration">00:00:05.000</property>
  <property name="kdenlive:folderid">-1</property>
  <property name="kdenlive:id">11</property>
  <property name="kdenlive:file_size">478109</property>
  <property name="kdenlive:file_hash">e3679b73e5b4af365154874b2105aae5</property>
 </producer>
 <producer id="producer10" in="00:00:00.000" out="00:00:08.960">
  <property name="length">225</property>
  <property name="eof">pause</property>
  <property name="resource"/>
  <property name="progressive">1</property>
  <property name="aspect_ratio">1</property>
  <property name="seekable">1</property>
  <property name="mlt_service">kdenlivetitle</property>
  <property name="kdenlive:duration">125</property>
  <property name="kdenlive:clipname">蹭热度</property>
  <property name="xmldata">&lt;kdenlivetitle duration="125" LC_NUMERIC="C" width="1920" height="1080" out="124">
 &lt;item type="QGraphicsTextItem" z-index="0">
  &lt;position x="559" y="415">
   &lt;transform>1,0,0,0,1,0,0,0,1&lt;/transform>
  &lt;/position>
  &lt;content line-spacing="0" shadow="0;#64000000;3;3;3" font-underline="0" box-height="256" font-outline-color="255,255,255,255" font="文泉驿等宽微米黑" letter-spacing="0" font-pixel-size="217" font-italic="0" typewriter="0;2;1;0;0" alignment="2" font-weight="87" font-outline="0" box-width="651" font-color="255,255,255,255">蹭热度&lt;/content>
 &lt;/item>
 &lt;startviewport rect="0,0,1920,1080"/>
 &lt;endviewport rect="0,0,1920,1080"/>
 &lt;background color="0,0,0,0"/>
&lt;/kdenlivetitle>
</property>
  <property name="kdenlive:folderid">12</property>
  <property name="kdenlive:id">13</property>
  <property name="kdenlive:file_hash">cceff6c06ec5117af95e89ff1a2dac63</property>
  <property name="force_reload">0</property>
  <property name="meta.media.width">1920</property>
  <property name="meta.media.height">1080</property>
 </producer>
 <producer id="producer11" in="00:00:00.000" out="00:00:04.960">
  <property name="length">00:00:05.000</property>
  <property name="eof">pause</property>
  <property name="resource">0xff8080ff</property>
  <property name="aspect_ratio">1</property>
  <property name="mlt_service">color</property>
  <property name="kdenlive:clipname">颜色剪辑</property>
  <property name="kdenlive:duration">00:00:05.000</property>
  <property name="kdenlive:file_hash">17fc70539c5356a67cd8cc241da1f3e2</property>
  <property name="kdenlive:folderid">-1</property>
  <property name="kdenlive:id">14</property>
  <property name="mlt_image_format">rgb24</property>
 </producer>
 <producer id="producer12" in="00:00:00.000" out="00:00:04.960">
  <property name="length">00:00:05.000</property>
  <property name="eof">pause</property>
  <property name="resource">/home/duangsuse/Documents/咱动苏/苏观点/素/R-C.jpeg</property>
  <property name="ttl">25</property>
  <property name="aspect_ratio">1</property>
  <property name="progressive">1</property>
  <property name="seekable">1</property>
  <property name="meta.media.width">440</property>
  <property name="meta.media.height">440</property>
  <property name="mlt_service">qimage</property>
  <property name="kdenlive:clipname"/>
  <property name="kdenlive:duration">00:00:05.000</property>
  <property name="kdenlive:folderid">12</property>
  <property name="kdenlive:id">15</property>
  <property name="kdenlive:file_size">25201</property>
  <property name="kdenlive:file_hash">c2cfb9bb6c5815a8f29e0d44599c2e84</property>
 </producer>
 <producer id="producer13" in="00:00:00.000" out="00:00:09.400">
  <property name="length">236</property>
  <property name="eof">pause</property>
  <property name="resource"/>
  <property name="progressive">1</property>
  <property name="aspect_ratio">1</property>
  <property name="seekable">1</property>
  <property name="mlt_service">kdenlivetitle</property>
  <property name="kdenlive:duration">125</property>
  <property name="kdenlive:clipname">???</property>
  <property name="xmldata">&lt;kdenlivetitle duration="125" LC_NUMERIC="C" width="1920" height="1080" out="124">
 &lt;item type="QGraphicsTextItem" z-index="0">
  &lt;position x="762" y="386">
   &lt;transform>1,0,0,0,1,0,0,0,1&lt;/transform>
  &lt;/position>
  &lt;content shadow="0;#64000000;3;3;3" font-underline="0" box-height="256" font-outline-color="255,255,255,255" font="文泉驿等宽微米黑" letter-spacing="0" font-pixel-size="217" font-italic="0" typewriter="0;2;1;0;0" alignment="2" font-weight="87" font-outline="0" box-width="390.656" font-color="255,255,255,255">???&lt;/content>
 &lt;/item>
 &lt;startviewport rect="0,0,1920,1080"/>
 &lt;endviewport rect="0,0,1920,1080"/>
 &lt;background color="0,0,0,0"/>
&lt;/kdenlivetitle>
</property>
  <property name="kdenlive:folderid">12</property>
  <property name="kdenlive:id">16</property>
  <property name="kdenlive:file_hash">e8d62acba7ebdc80367fe815a4800394</property>
  <property name="force_reload">0</property>
  <property name="meta.media.width">1920</property>
  <property name="meta.media.height">1080</property>
 </producer>
 <producer id="producer14" in="00:00:00.000" out="00:00:05.120">
  <property name="length">129</property>
  <property name="eof">pause</property>
  <property name="resource"/>
  <property name="progressive">1</property>
  <property name="aspect_ratio">1</property>
  <property name="seekable">1</property>
  <property name="mlt_service">kdenlivetitle</property>
  <property name="kdenlive:duration">125</property>
  <property name="kdenlive:clipname">字幕剪辑</property>
  <property name="xmldata">&lt;kdenlivetitle duration="125" LC_NUMERIC="C" width="1920" height="1080" out="124">
 &lt;item type="QGraphicsTextItem" z-index="0">
  &lt;position x="675" y="416">
   &lt;transform>1,0,0,0,1,0,0,0,1&lt;/transform>
  &lt;/position>
  &lt;content shadow="0;#64000000;3;3;3" font-underline="0" box-height="256" font-outline-color="255,255,255,255" font="文泉驿等宽微米黑" letter-spacing="0" font-pixel-size="217" font-italic="0" typewriter="0;2;1;0;0" alignment="2" font-weight="87" font-outline="0" box-width="434" font-color="255,255,255,255">草！&lt;/content>
 &lt;/item>
 &lt;startviewport rect="0,0,1920,1080"/>
 &lt;endviewport rect="0,0,1920,1080"/>
 &lt;background color="0,0,0,0"/>
&lt;/kdenlivetitle>
</property>
  <property name="kdenlive:folderid">12</property>
  <property name="kdenlive:id">17</property>
  <property name="kdenlive:file_hash">22b4b4e94aa1b1f86fdef6a200ced4b9</property>
  <property name="force_reload">0</property>
  <property name="meta.media.width">1920</property>
  <property name="meta.media.height">1080</property>
 </producer>
 <producer id="producer15" in="00:00:00.000" out="00:00:05.080">
  <property name="length">128</property>
  <property name="eof">pause</property>
  <property name="resource">/home/duangsuse/Documents/咱动苏/苏观点/素/R-C (1).jpeg</property>
  <property name="ttl">25</property>
  <property name="aspect_ratio">1</property>
  <property name="progressive">1</property>
  <property name="seekable">1</property>
  <property name="meta.media.width">400</property>
  <property name="meta.media.height">265</property>
  <property name="mlt_service">qimage</property>
  <property name="kdenlive:clipname"/>
  <property name="kdenlive:duration">00:00:05.000</property>
  <property name="kdenlive:folderid">12</property>
  <property name="kdenlive:id">18</property>
  <property name="kdenlive:file_size">54908</property>
  <property name="kdenlive:file_hash">b76cd689c6a3424b9641c923981c3cc3</property>
 </producer>
 <producer id="producer16" in="00:00:00.000" out="00:00:06.440">
  <property name="length">162</property>
  <property name="eof">pause</property>
  <property name="resource"/>
  <property name="progressive">1</property>
  <property name="aspect_ratio">1</property>
  <property name="seekable">1</property>
  <property name="mlt_service">kdenlivetitle</property>
  <property name="kdenlive:duration">125</property>
  <property name="kdenlive:clipname">私？ 货</property>
  <property name="xmldata">&lt;kdenlivetitle duration="125" LC_NUMERIC="C" width="1920" height="1080" out="124">
 &lt;item type="QGraphicsTextItem" z-index="0">
  &lt;position x="418" y="335">
   &lt;transform>1,0,0,0,1,0,0,0,1&lt;/transform>
  &lt;/position>
  &lt;content shadow="1;#ffff7800;3;3;3" font-underline="0" box-height="256" font="文泉驿等宽微米黑" letter-spacing="0" font-pixel-size="217" font-italic="0" typewriter="0;2;1;0;0" alignment="2" font-weight="87" box-width="781.219" font-color="255,255,255,255">私？ 货&lt;/content>
 &lt;/item>
 &lt;startviewport rect="0,0,1920,1080"/>
 &lt;endviewport rect="0,0,1920,1080"/>
 &lt;background color="0,0,0,0"/>
&lt;/kdenlivetitle>
</property>
  <property name="kdenlive:file_hash">4cfe2d1d5330975cce8c0a982affb7a2</property>
  <property name="kdenlive:folderid">12</property>
  <property name="kdenlive:id">19</property>
  <property name="force_reload">0</property>
  <property name="meta.media.width">1920</property>
  <property name="meta.media.height">1080</property>
 </producer>
 <producer id="producer17" in="00:00:00.000" out="00:36:53.880">
  <property name="length">55348</property>
  <property name="eof">pause</property>
  <property name="resource">/home/duangsuse/RemoteProjects/extract-subtitles/歪点子实验室，山寨抄袭能不能别老是盯着我？-675175410.flv</property>
  <property name="audio_index">1</property>
  <property name="video_index">0</property>
  <property name="mute_on_pause">0</property>
  <property name="mlt_service">avformat-novalidate</property>
  <property name="meta.media.nb_streams">2</property>
  <property name="meta.media.0.stream.type">video</property>
  <property name="meta.media.0.stream.frame_rate">25</property>
  <property name="meta.media.0.stream.sample_aspect_ratio">0</property>
  <property name="meta.media.0.codec.width">1920</property>
  <property name="meta.media.0.codec.height">1080</property>
  <property name="meta.media.0.codec.rotate">0</property>
  <property name="meta.media.0.codec.frame_rate">25</property>
  <property name="meta.media.0.codec.pix_fmt">yuv420p</property>
  <property name="meta.media.0.codec.sample_aspect_ratio">1</property>
  <property name="meta.media.0.codec.colorspace">709</property>
  <property name="meta.media.0.codec.color_trc">1</property>
  <property name="meta.media.0.codec.name">h264</property>
  <property name="meta.media.0.codec.long_name">H.264 / AVC / MPEG-4 AVC / MPEG-4 part 10</property>
  <property name="meta.media.0.codec.bit_rate">1068252</property>
  <property name="meta.media.1.stream.type">audio</property>
  <property name="meta.media.1.codec.sample_fmt">fltp</property>
  <property name="meta.media.1.codec.sample_rate">48000</property>
  <property name="meta.media.1.codec.channels">2</property>
  <property name="meta.media.1.codec.name">aac</property>
  <property name="meta.media.1.codec.long_name">AAC (Advanced Audio Coding)</property>
  <property name="meta.media.1.codec.bit_rate">318110</property>
  <property name="meta.attr.description.markup">Bilibili VXCode Swarm Transcoder v0.5.7</property>
  <property name="meta.attr.metadatacreator.markup">Version 1.9</property>
  <property name="meta.attr.hasKeyframes.markup">true</property>
  <property name="meta.attr.hasVideo.markup">true</property>
  <property name="meta.attr.hasAudio.markup">true</property>
  <property name="meta.attr.hasMetadata.markup">true</property>
  <property name="meta.attr.canSeekToEnd.markup">true</property>
  <property name="meta.attr.datasize.markup">386022407</property>
  <property name="meta.attr.videosize.markup">296210313</property>
  <property name="meta.attr.audiosize.markup">89175614</property>
  <property name="meta.attr.lasttimestamp.markup">2214</property>
  <property name="meta.attr.lastkeyframetimestamp.markup">2214</property>
  <property name="meta.attr.lastkeyframelocation.markup">386031043</property>
  <property name="seekable">1</property>
  <property name="meta.media.sample_aspect_num">1</property>
  <property name="meta.media.sample_aspect_den">1</property>
  <property name="aspect_ratio">1</property>
  <property name="kdenlive:clipname"/>
  <property name="kdenlive:folderid">12</property>
  <property name="meta.media.frame_rate_num">25</property>
  <property name="meta.media.frame_rate_den">1</property>
  <property name="meta.media.colorspace">709</property>
  <property name="meta.media.color_trc">1</property>
  <property name="meta.media.has_b_frames">4</property>
  <property name="meta.media.width">1920</property>
  <property name="meta.media.height">1080</property>
  <property name="meta.media.color_range">mpeg</property>
  <property name="kdenlive:id">20</property>
  <property name="kdenlive:file_size">386031063</property>
  <property name="kdenlive:file_hash">2d13fee7da9734e535645388345c1022</property>
  <property name="meta.media.top_field_first">0</property>
  <property name="meta.media.progressive">1</property>
  <property name="kdenlive:audio_max1">227</property>
 </producer>
 <producer id="producer18" in="00:00:00.000" out="00:00:04.960">
  <property name="length">00:00:05.000</property>
  <property name="eof">pause</property>
  <property name="resource">/home/duangsuse/Downloads/61302393f176e07cd8d37fa940c5684f.jpeg</property>
  <property name="ttl">25</property>
  <property name="aspect_ratio">1</property>
  <property name="progressive">1</property>
  <property name="seekable">1</property>
  <property name="meta.media.width">1000</property>
  <property name="meta.media.height">667</property>
  <property name="mlt_service">qimage</property>
  <property name="kdenlive:clipname"/>
  <property name="kdenlive:duration">00:00:05.000</property>
  <property name="kdenlive:file_size">129633</property>
  <property name="kdenlive:folderid">12</property>
  <property name="kdenlive:id">21</property>
  <property name="kdenlive:file_hash">dfb4294952c726703349a7fff4179ad7</property>
 </producer>
 <producer id="producer19" in="00:00:00.000" out="00:00:04.960">
  <property name="length">00:00:05.000</property>
  <property name="eof">pause</property>
  <property name="resource">/home/duangsuse/Downloads/078970f23ef8b1eaf2c8ed0ba760c869.jpg</property>
  <property name="ttl">25</property>
  <property name="aspect_ratio">1</property>
  <property name="progressive">1</property>
  <property name="seekable">1</property>
  <property name="meta.media.width">1920</property>
  <property name="meta.media.height">1280</property>
  <property name="mlt_service">qimage</property>
  <property name="kdenlive:clipname"/>
  <property name="kdenlive:duration">00:00:05.000</property>
  <property name="kdenlive:folderid">12</property>
  <property name="kdenlive:id">22</property>
  <property name="kdenlive:file_size">238019</property>
  <property name="kdenlive:file_hash">29df1372def162d6eef502b1c6bc0754</property>
 </producer>
 <producer id="producer20" in="00:00:00.000" out="00:00:04.960">
  <property name="length">125</property>
  <property name="eof">pause</property>
  <property name="resource"/>
  <property name="progressive">1</property>
  <property name="aspect_ratio">1</property>
  <property name="seekable">1</property>
  <property name="mlt_service">kdenlivetitle</property>
  <property name="kdenlive:duration">125</property>
  <property name="kdenlive:clipname">跟风？ 灵感启发？ 抄袭...</property>
  <property name="xmldata">&lt;kdenlivetitle duration="125" LC_NUMERIC="C" width="1920" height="1080" out="124">
 &lt;item type="QGraphicsTextItem" z-index="0">
  &lt;position x="686" y="110">
   &lt;transform>1,0,0,0,1,0,0,0,1&lt;/transform>
  &lt;/position>
  &lt;content shadow="0;#64000000;3;3;3" font-underline="0" box-height="1016" font-outline-color="255,255,255,255" font="文泉驿等宽微米黑" letter-spacing="0" font-pixel-size="217" font-italic="0" typewriter="0;2;1;0;0" alignment="2" font-weight="87" font-outline="0" box-width="1085" font-color="255,255,255,255">跟风？
灵感启发？
抄袭？
&lt;/content>
 &lt;/item>
 &lt;startviewport rect="0,0,1920,1080"/>
 &lt;endviewport rect="0,0,1920,1080"/>
 &lt;background color="0,0,0,0"/>
&lt;/kdenlivetitle>
</property>
  <property name="kdenlive:file_hash">1dfd506b846ff43686a4bcd3f1dc4e2f</property>
  <property name="kdenlive:folderid">12</property>
  <property name="kdenlive:id">23</property>
  <property name="force_reload">0</property>
  <property name="meta.media.width">1920</property>
  <property name="meta.media.height">1080</property>
 </producer>
 <producer id="producer21" in="00:00:00.000" out="00:00:06.560">
  <property name="length">165</property>
  <property name="eof">pause</property>
  <property name="resource"/>
  <property name="progressive">1</property>
  <property name="aspect_ratio">1</property>
  <property name="seekable">1</property>
  <property name="mlt_service">kdenlivetitle</property>
  <property name="kdenlive:duration">125</property>
  <property name="kdenlive:clipname">五先生</property>
  <property name="xmldata">&lt;kdenlivetitle duration="125" LC_NUMERIC="C" width="1920" height="1080" out="124">
 &lt;item type="QGraphicsPixmapItem" z-index="3">
  &lt;position x="1533" y="839">
   &lt;transform>1,0,0,0,1,0,0,0,1&lt;/transform>
  &lt;/position>
  &lt;content url="/home/duangsuse/Documents/咱动苏/苏观点/素/歪.webp"/>
 &lt;/item>
 &lt;item type="QGraphicsPixmapItem" z-index="2">
  &lt;position x="891" y="309">
   &lt;transform>1,0,0,0,1,0,0,0,1&lt;/transform>
  &lt;/position>
  &lt;content url="/home/duangsuse/Documents/咱动苏/苏观点/素/五.jpeg"/>
 &lt;/item>
 &lt;item type="QGraphicsTextItem" z-index="1">
  &lt;position x="929" y="692">
   &lt;transform>1,0,0,0,1,0,0,0,1&lt;/transform>
  &lt;/position>
  &lt;content line-spacing="0" shadow="0;#64000000;3;3;3" font-underline="0" box-height="256" font="文泉驿等宽微米黑" letter-spacing="0" font-pixel-size="217" font-italic="0" typewriter="0;2;1;0;0" alignment="2" font-weight="87" box-width="651" font-color="28,113,216,255">歪点子&lt;/content>
 &lt;/item>
 &lt;item type="QGraphicsTextItem" z-index="0">
  &lt;position x="230" y="165">
   &lt;transform>1,0,0,0,1,0,0,0,1&lt;/transform>
  &lt;/position>
  &lt;content line-spacing="0" shadow="0;#64000000;3;3;3" font-underline="0" box-height="256" font="文泉驿等宽微米黑" letter-spacing="0" font-pixel-size="217" font-italic="0" typewriter="0;2;1;0;0" alignment="2" font-weight="87" box-width="651" font-color="224,27,36,255">五先生&lt;/content>
 &lt;/item>
 &lt;startviewport rect="0,0,1920,1080"/>
 &lt;endviewport rect="0,0,1920,1080"/>
 &lt;background color="0,0,0,0"/>
&lt;/kdenlivetitle>
</property>
  <property name="kdenlive:file_hash">8e46df5fd993957041aab3cef947c68c</property>
  <property name="kdenlive:folderid">12</property>
  <property name="kdenlive:id">24</property>
  <property name="force_reload">0</property>
  <property name="meta.media.width">1920</property>
  <property name="meta.media.height">1080</property>
 </producer>
 <producer id="producer22" in="00:00:00.000" out="00:00:04.960">
  <property name="length">125</property>
  <property name="eof">pause</property>
  <property name="resource"/>
  <property name="progressive">1</property>
  <property name="aspect_ratio">1</property>
  <property name="seekable">1</property>
  <property name="mlt_service">kdenlivetitle</property>
  <property name="kdenlive:duration">125</property>
  <property name="kdenlive:clipname">否定 视频 抄袭</property>
  <property name="xmldata">&lt;kdenlivetitle duration="125" LC_NUMERIC="C" width="1920" height="1080" out="124">
 &lt;item type="QGraphicsTextItem" z-index="0">
  &lt;position x="1385" y="65">
   &lt;transform>1,0,0,0,1,0,0,0,1&lt;/transform>
  &lt;/position>
  &lt;content line-spacing="0" shadow="0;#64000000;3;3;3" font-underline="0" box-height="762" font-outline-color="255,255,255,255" font="文泉驿等宽微米黑" letter-spacing="0" font-pixel-size="217" font-italic="0" typewriter="0;2;1;0;0" alignment="2" font-weight="87" font-outline="0" box-width="434" font-color="246,211,45,255">否定
视频
抄袭&lt;/content>
 &lt;/item>
 &lt;startviewport rect="0,0,1920,1080"/>
 &lt;endviewport rect="0,0,1920,1080"/>
 &lt;background color="0,0,0,0"/>
&lt;/kdenlivetitle>
</property>
  <property name="kdenlive:folderid">28</property>
  <property name="kdenlive:id">26</property>
  <property name="kdenlive:file_hash">0f9e84b46b97274a09a7270c90d4b813</property>
  <property name="force_reload">0</property>
  <property name="meta.media.width">1920</property>
  <property name="meta.media.height">1080</property>
 </producer>
 <producer id="producer23" in="00:00:00.000" out="00:00:05.200">
  <property name="length">131</property>
  <property name="eof">pause</property>
  <property name="resource">统/截图_2021-09-02_20-21-49.jpg</property>
  <property name="ttl">25</property>
  <property name="aspect_ratio">1</property>
  <property name="progressive">1</property>
  <property name="seekable">1</property>
  <property name="meta.media.width">664</property>
  <property name="meta.media.height">307</property>
  <property name="mlt_service">qimage</property>
  <property name="kdenlive:clipname"/>
  <property name="kdenlive:duration">00:00:05.000</property>
  <property name="kdenlive:file_size">46434</property>
  <property name="kdenlive:folderid">-1</property>
  <property name="kdenlive:id">29</property>
  <property name="kdenlive:file_hash">b80c86d783f172135ac4945f7f1adaf5</property>
 </producer>
 <producer id="producer24" in="00:00:00.000" out="00:00:05.920">
  <property name="length">149</property>
  <property name="eof">pause</property>
  <property name="resource">统/截图_2021-09-02_20-20-52.jpg</property>
  <property name="ttl">25</property>
  <property name="aspect_ratio">1</property>
  <property name="progressive">1</property>
  <property name="seekable">1</property>
  <property name="meta.media.width">710</property>
  <property name="meta.media.height">402</property>
  <property name="mlt_service">qimage</property>
  <property name="kdenlive:clipname"/>
  <property name="kdenlive:duration">00:00:05.000</property>
  <property name="kdenlive:file_size">58799</property>
  <property name="kdenlive:folderid">-1</property>
  <property name="kdenlive:id">30</property>
  <property name="kdenlive:file_hash">166c9fc3ca9a3504ec56cdb832aa715e</property>
 </producer>
 <producer id="producer25" in="00:00:00.000" out="00:00:04.960">
  <property name="length">00:00:05.000</property>
  <property name="eof">pause</property>
  <property name="resource">统/截图_2021-09-02_20-18-26.jpg</property>
  <property name="ttl">25</property>
  <property name="aspect_ratio">1</property>
  <property name="progressive">1</property>
  <property name="seekable">1</property>
  <property name="meta.media.width">620</property>
  <property name="meta.media.height">426</property>
  <property name="mlt_service">qimage</property>
  <property name="kdenlive:clipname"/>
  <property name="kdenlive:duration">00:00:05.000</property>
  <property name="kdenlive:folderid">-1</property>
  <property name="kdenlive:id">31</property>
  <property name="kdenlive:file_size">48377</property>
  <property name="kdenlive:file_hash">103f03affd7471ef871f0489e402a15d</property>
 </producer>
 <producer id="producer26" in="00:00:00.000" out="00:00:04.960">
  <property name="length">00:00:05.000</property>
  <property name="eof">pause</property>
  <property name="resource">统/截图_2021-09-02_20-16-46.jpg</property>
  <property name="ttl">25</property>
  <property name="aspect_ratio">1</property>
  <property name="progressive">1</property>
  <property name="seekable">1</property>
  <property name="meta.media.width">499</property>
  <property name="meta.media.height">359</property>
  <property name="mlt_service">qimage</property>
  <property name="kdenlive:clipname"/>
  <property name="kdenlive:duration">00:00:05.000</property>
  <property name="kdenlive:folderid">-1</property>
  <property name="kdenlive:id">32</property>
  <property name="kdenlive:file_size">43358</property>
  <property name="kdenlive:file_hash">f64ec6756bc0f8b96ce206a121ebc4a6</property>
 </producer>
 <producer id="producer27" in="00:00:00.000" out="00:00:04.960">
  <property name="length">00:00:05.000</property>
  <property name="eof">pause</property>
  <property name="resource">统/截图_2021-09-02_20-15-28.jpg</property>
  <property name="ttl">25</property>
  <property name="aspect_ratio">1</property>
  <property name="progressive">1</property>
  <property name="seekable">1</property>
  <property name="meta.media.width">884</property>
  <property name="meta.media.height">668</property>
  <property name="mlt_service">qimage</property>
  <property name="kdenlive:clipname"/>
  <property name="kdenlive:duration">00:00:05.000</property>
  <property name="kdenlive:file_size">95617</property>
  <property name="kdenlive:folderid">-1</property>
  <property name="kdenlive:id">33</property>
  <property name="kdenlive:file_hash">7094888e0fb20e2428b3fb46e6ed3b37</property>
 </producer>
 <producer id="producer28" in="00:00:00.000" out="00:00:05.000">
  <property name="length">126</property>
  <property name="eof">pause</property>
  <property name="resource">统/截图_2021-09-02_20-13-40.jpg</property>
  <property name="ttl">25</property>
  <property name="aspect_ratio">1</property>
  <property name="progressive">1</property>
  <property name="seekable">1</property>
  <property name="meta.media.width">1050</property>
  <property name="meta.media.height">657</property>
  <property name="mlt_service">qimage</property>
  <property name="kdenlive:clipname"/>
  <property name="kdenlive:duration">00:00:05.000</property>
  <property name="kdenlive:folderid">-1</property>
  <property name="kdenlive:id">34</property>
  <property name="kdenlive:file_size">87273</property>
  <property name="kdenlive:file_hash">7f409588fb7d9a0a6fd51589e7e289c8</property>
 </producer>
 <producer id="producer29" in="00:00:00.000" out="00:00:04.960">
  <property name="length">00:00:05.000</property>
  <property name="eof">pause</property>
  <property name="resource">统/截图_2021-09-02_20-10-58.jpg</property>
  <property name="ttl">25</property>
  <property name="aspect_ratio">1</property>
  <property name="progressive">1</property>
  <property name="seekable">1</property>
  <property name="meta.media.width">650</property>
  <property name="meta.media.height">670</property>
  <property name="mlt_service">qimage</property>
  <property name="kdenlive:clipname"/>
  <property name="kdenlive:duration">00:00:05.000</property>
  <property name="kdenlive:folderid">-1</property>
  <property name="kdenlive:id">35</property>
  <property name="kdenlive:file_size">66933</property>
  <property name="kdenlive:file_hash">36ca35f5df6192955eefa3a1a1bf26fb</property>
 </producer>
 <producer id="producer30" in="00:00:00.000" out="00:00:04.960">
  <property name="length">00:00:05.000</property>
  <property name="eof">pause</property>
  <property name="resource">统/截图_2021-09-02_20-10-09.jpg</property>
  <property name="ttl">25</property>
  <property name="aspect_ratio">1</property>
  <property name="progressive">1</property>
  <property name="seekable">1</property>
  <property name="meta.media.width">650</property>
  <property name="meta.media.height">670</property>
  <property name="mlt_service">qimage</property>
  <property name="kdenlive:clipname"/>
  <property name="kdenlive:duration">00:00:05.000</property>
  <property name="kdenlive:folderid">-1</property>
  <property name="kdenlive:id">36</property>
  <property name="kdenlive:file_size">63324</property>
  <property name="kdenlive:file_hash">41195691ddf47d07370c8fe9bd975a32</property>
 </producer>
 <producer id="producer31" in="00:00:00.000" out="00:00:11.560">
  <property name="length">290</property>
  <property name="eof">pause</property>
  <property name="resource">统/截图_2021-09-02_20-09-40.jpg</property>
  <property name="ttl">25</property>
  <property name="aspect_ratio">1</property>
  <property name="progressive">1</property>
  <property name="seekable">1</property>
  <property name="meta.media.width">1366</property>
  <property name="meta.media.height">768</property>
  <property name="mlt_service">qimage</property>
  <property name="kdenlive:clipname"/>
  <property name="kdenlive:duration">00:00:05.000</property>
  <property name="kdenlive:folderid">-1</property>
  <property name="kdenlive:id">37</property>
  <property name="kdenlive:file_size">112201</property>
  <property name="kdenlive:file_hash">d4a9e69a670d91f07222ca8c3ad099e5</property>
 </producer>
 <producer id="producer32" in="00:00:00.000" out="00:00:04.960">
  <property name="length">00:00:05.000</property>
  <property name="eof">pause</property>
  <property name="resource">统/截图_2021-09-02_20-08-37.jpg</property>
  <property name="ttl">25</property>
  <property name="aspect_ratio">1</property>
  <property name="progressive">1</property>
  <property name="seekable">1</property>
  <property name="meta.media.width">1294</property>
  <property name="meta.media.height">640</property>
  <property name="mlt_service">qimage</property>
  <property name="kdenlive:clipname"/>
  <property name="kdenlive:duration">00:00:05.000</property>
  <property name="kdenlive:folderid">-1</property>
  <property name="kdenlive:id">38</property>
  <property name="kdenlive:file_size">83996</property>
  <property name="kdenlive:file_hash">e69743f1bf3e9c42bd43d12a945684c9</property>
 </producer>
 <producer id="producer33" in="00:00:00.000" out="00:00:04.960">
  <property name="length">00:00:05.000</property>
  <property name="eof">pause</property>
  <property name="resource">统/截图_2021-09-02_20-07-59.jpg</property>
  <property name="ttl">25</property>
  <property name="aspect_ratio">1</property>
  <property name="progressive">1</property>
  <property name="seekable">1</property>
  <property name="meta.media.width">903</property>
  <property name="meta.media.height">712</property>
  <property name="mlt_service">qimage</property>
  <property name="kdenlive:clipname"/>
  <property name="kdenlive:duration">00:00:05.000</property>
  <property name="kdenlive:folderid">-1</property>
  <property name="kdenlive:id">39</property>
  <property name="kdenlive:file_size">67610</property>
  <property name="kdenlive:file_hash">7eb8647e29d2116baa4d1935d942be5e</property>
 </producer>
 <producer id="producer34" in="00:00:00.000" out="00:00:04.960">
  <property name="length">00:00:05.000</property>
  <property name="eof">pause</property>
  <property name="resource">统/截图_2021-09-02_20-07-37.jpg</property>
  <property name="ttl">25</property>
  <property name="aspect_ratio">1</property>
  <property name="progressive">1</property>
  <property name="seekable">1</property>
  <property name="meta.media.width">1043</property>
  <property name="meta.media.height">674</property>
  <property name="mlt_service">qimage</property>
  <property name="kdenlive:clipname"/>
  <property name="kdenlive:duration">00:00:05.000</property>
  <property name="kdenlive:folderid">-1</property>
  <property name="kdenlive:id">40</property>
  <property name="kdenlive:file_size">92649</property>
  <property name="kdenlive:file_hash">f7bb6c0410016f64051d52eff9006323</property>
 </producer>
 <producer id="producer35" in="00:00:00.000" out="00:00:04.960">
  <property name="length">00:00:05.000</property>
  <property name="eof">pause</property>
  <property name="resource">统/截图_2021-09-02_20-00-02.jpg</property>
  <property name="ttl">25</property>
  <property name="aspect_ratio">1</property>
  <property name="progressive">1</property>
  <property name="seekable">1</property>
  <property name="meta.media.width">1366</property>
  <property name="meta.media.height">768</property>
  <property name="mlt_service">qimage</property>
  <property name="kdenlive:clipname"/>
  <property name="kdenlive:duration">00:00:05.000</property>
  <property name="kdenlive:folderid">-1</property>
  <property name="kdenlive:id">41</property>
  <property name="kdenlive:file_size">113495</property>
  <property name="kdenlive:file_hash">9ed0809641f97daebcea359f2c554176</property>
 </producer>
 <producer id="producer36" in="00:00:00.000" out="00:00:04.960">
  <property name="length">00:00:05.000</property>
  <property name="eof">pause</property>
  <property name="resource">统/截图_2021-09-02_19-49-27.jpg</property>
  <property name="ttl">25</property>
  <property name="aspect_ratio">1</property>
  <property name="progressive">1</property>
  <property name="seekable">1</property>
  <property name="meta.media.width">1366</property>
  <property name="meta.media.height">728</property>
  <property name="mlt_service">qimage</property>
  <property name="kdenlive:clipname"/>
  <property name="kdenlive:duration">00:00:05.000</property>
  <property name="kdenlive:folderid">-1</property>
  <property name="kdenlive:id">42</property>
  <property name="kdenlive:file_size">108582</property>
  <property name="kdenlive:file_hash">cbf759c0cbb8a6efb35dc3bcc1291dca</property>
 </producer>
 <producer id="producer37" in="00:00:00.000" out="00:00:05.480">
  <property name="length">138</property>
  <property name="eof">pause</property>
  <property name="resource">统/截图_2021-09-02_19-48-05.jpg</property>
  <property name="ttl">25</property>
  <property name="aspect_ratio">1</property>
  <property name="progressive">1</property>
  <property name="seekable">1</property>
  <property name="meta.media.width">1365</property>
  <property name="meta.media.height">724</property>
  <property name="mlt_service">qimage</property>
  <property name="kdenlive:clipname"/>
  <property name="kdenlive:duration">00:00:05.000</property>
  <property name="kdenlive:folderid">-1</property>
  <property name="kdenlive:id">43</property>
  <property name="kdenlive:file_size">54750</property>
  <property name="kdenlive:file_hash">ccda2c029bf9a74e78c494e065e204e0</property>
 </producer>
 <producer id="producer38" in="00:00:00.000" out="00:00:04.960">
  <property name="length">00:00:05.000</property>
  <property name="eof">pause</property>
  <property name="resource">统/截图_2021-09-02_19-47-50.jpg</property>
  <property name="ttl">25</property>
  <property name="aspect_ratio">1</property>
  <property name="progressive">1</property>
  <property name="seekable">1</property>
  <property name="meta.media.width">1365</property>
  <property name="meta.media.height">723</property>
  <property name="mlt_service">qimage</property>
  <property name="kdenlive:clipname"/>
  <property name="kdenlive:duration">00:00:05.000</property>
  <property name="kdenlive:folderid">-1</property>
  <property name="kdenlive:id">44</property>
  <property name="kdenlive:file_size">98346</property>
  <property name="kdenlive:file_hash">59859e293f5a634ac7826ce263e7740c</property>
 </producer>
 <producer id="producer39" in="00:00:00.000" out="00:00:04.960">
  <property name="length">00:00:05.000</property>
  <property name="eof">pause</property>
  <property name="resource">统/space.bilibili.com_410018076_dynamic (1).png</property>
  <property name="ttl">25</property>
  <property name="aspect_ratio">1</property>
  <property name="progressive">1</property>
  <property name="seekable">1</property>
  <property name="meta.media.width">740</property>
  <property name="meta.media.height">207</property>
  <property name="mlt_service">qimage</property>
  <property name="kdenlive:clipname"/>
  <property name="kdenlive:duration">00:00:05.000</property>
  <property name="kdenlive:folderid">-1</property>
  <property name="kdenlive:id">45</property>
  <property name="kdenlive:file_size">36054</property>
  <property name="kdenlive:file_hash">f07e2dbf2ba0351d8255b66dfdf5355e</property>
 </producer>
 <producer id="producer40" in="00:00:00.000" out="00:00:04.960">
  <property name="length">00:00:05.000</property>
  <property name="eof">pause</property>
  <property name="resource">统/space.bilibili.com_410018076_dynamic.png</property>
  <property name="ttl">25</property>
  <property name="aspect_ratio">1</property>
  <property name="progressive">1</property>
  <property name="seekable">1</property>
  <property name="meta.media.width">534</property>
  <property name="meta.media.height">551</property>
  <property name="mlt_service">qimage</property>
  <property name="kdenlive:clipname"/>
  <property name="kdenlive:duration">00:00:05.000</property>
  <property name="kdenlive:folderid">-1</property>
  <property name="kdenlive:id">46</property>
  <property name="kdenlive:file_size">98203</property>
  <property name="kdenlive:file_hash">0513a7d16186a0d6c8ae9850e8060721</property>
 </producer>
 <producer id="producer41" in="00:00:00.000" out="00:00:04.960">
  <property name="length">00:00:05.000</property>
  <property name="eof">pause</property>
  <property name="resource">统/www.bilibili.com_video_BV11x411H7UY (1).png</property>
  <property name="ttl">25</property>
  <property name="aspect_ratio">1</property>
  <property name="progressive">1</property>
  <property name="seekable">1</property>
  <property name="meta.media.width">638</property>
  <property name="meta.media.height">928</property>
  <property name="mlt_service">qimage</property>
  <property name="kdenlive:clipname"/>
  <property name="kdenlive:duration">00:00:05.000</property>
  <property name="kdenlive:folderid">-1</property>
  <property name="kdenlive:id">47</property>
  <property name="kdenlive:file_size">468398</property>
  <property name="kdenlive:file_hash">5657f83ee24c2d903d7af299961671cb</property>
 </producer>
 <producer id="producer42" in="00:00:00.000" out="00:00:10.080">
  <property name="length">253</property>
  <property name="eof">pause</property>
  <property name="resource">统/截图_2021-09-02_19-23-16.jpg</property>
  <property name="ttl">25</property>
  <property name="aspect_ratio">1</property>
  <property name="progressive">1</property>
  <property name="seekable">1</property>
  <property name="meta.media.width">1006</property>
  <property name="meta.media.height">585</property>
  <property name="mlt_service">qimage</property>
  <property name="kdenlive:clipname"/>
  <property name="kdenlive:duration">00:00:05.000</property>
  <property name="kdenlive:folderid">-1</property>
  <property name="kdenlive:id">48</property>
  <property name="kdenlive:file_size">77720</property>
  <property name="kdenlive:file_hash">4dd97debdc6507efb2e989f8a55e523e</property>
 </producer>
 <producer id="producer43" in="00:00:00.000" out="00:00:04.960">
  <property name="length">00:00:05.000</property>
  <property name="eof">pause</property>
  <property name="resource">统/截图_2021-09-02_19-21-26.jpg</property>
  <property name="ttl">25</property>
  <property name="aspect_ratio">1</property>
  <property name="progressive">1</property>
  <property name="seekable">1</property>
  <property name="meta.media.width">995</property>
  <property name="meta.media.height">578</property>
  <property name="mlt_service">qimage</property>
  <property name="kdenlive:clipname"/>
  <property name="kdenlive:duration">00:00:05.000</property>
  <property name="kdenlive:folderid">-1</property>
  <property name="kdenlive:id">49</property>
  <property name="kdenlive:file_size">93972</property>
  <property name="kdenlive:file_hash">b9f9c8d6bed77f9dceb52d67bf607525</property>
 </producer>
 <producer id="producer44" in="00:00:00.000" out="00:00:19.720">
  <property name="length">494</property>
  <property name="eof">pause</property>
  <property name="resource">统/space.bilibili.com_11264229_spm_id_from=333.788.b_765f7570696e666f.1.png</property>
  <property name="ttl">25</property>
  <property name="aspect_ratio">1</property>
  <property name="progressive">1</property>
  <property name="seekable">1</property>
  <property name="meta.media.width">1342</property>
  <property name="meta.media.height">4334</property>
  <property name="mlt_service">qimage</property>
  <property name="kdenlive:clipname"/>
  <property name="kdenlive:duration">00:00:05.000</property>
  <property name="kdenlive:folderid">-1</property>
  <property name="kdenlive:id">50</property>
  <property name="kdenlive:file_size">2508457</property>
  <property name="kdenlive:file_hash">4632eab3d5508f9f25992a84446a771b</property>
 </producer>
 <producer id="producer45" in="00:00:00.000" out="00:00:08.360">
  <property name="length">210</property>
  <property name="eof">pause</property>
  <property name="resource">统/www.bilibili.com_video_BV1Sv411Y7K7 (1).png</property>
  <property name="ttl">25</property>
  <property name="aspect_ratio">1</property>
  <property name="progressive">1</property>
  <property name="seekable">1</property>
  <property name="meta.media.width">638</property>
  <property name="meta.media.height">844</property>
  <property name="mlt_service">qimage</property>
  <property name="kdenlive:clipname"/>
  <property name="kdenlive:duration">00:00:05.000</property>
  <property name="kdenlive:folderid">-1</property>
  <property name="kdenlive:id">51</property>
  <property name="kdenlive:file_size">429142</property>
  <property name="kdenlive:file_hash">8420565b5f8f8d3ac5c0dee2e2b51a95</property>
 </producer>
 <producer id="producer46" in="00:00:00.000" out="00:00:04.960">
  <property name="length">00:00:05.000</property>
  <property name="eof">pause</property>
  <property name="resource">统/www.bilibili.com_video_BV1qE411i7Sa_from=search&amp;seid=3921385131266922900 (1).png</property>
  <property name="ttl">25</property>
  <property name="aspect_ratio">1</property>
  <property name="progressive">1</property>
  <property name="seekable">1</property>
  <property name="meta.media.width">638</property>
  <property name="meta.media.height">916</property>
  <property name="mlt_service">qimage</property>
  <property name="kdenlive:clipname"/>
  <property name="kdenlive:duration">00:00:05.000</property>
  <property name="kdenlive:folderid">-1</property>
  <property name="kdenlive:id">52</property>
  <property name="kdenlive:file_size">353355</property>
  <property name="kdenlive:file_hash">cefecc49af3db2ae1d2c69abaa93ece9</property>
 </producer>
 <producer id="producer47" in="00:00:00.000" out="00:00:04.960">
  <property name="length">00:00:05.000</property>
  <property name="eof">pause</property>
  <property name="resource">统/www.bilibili.com_video_BV16y4y1C73h (1).png</property>
  <property name="ttl">25</property>
  <property name="aspect_ratio">1</property>
  <property name="progressive">1</property>
  <property name="seekable">1</property>
  <property name="meta.media.width">638</property>
  <property name="meta.media.height">844</property>
  <property name="mlt_service">qimage</property>
  <property name="kdenlive:clipname"/>
  <property name="kdenlive:duration">00:00:05.000</property>
  <property name="kdenlive:folderid">-1</property>
  <property name="kdenlive:id">53</property>
  <property name="kdenlive:file_size">431959</property>
  <property name="kdenlive:file_hash">c301ecfadbb532506d5587e77919744f</property>
  <property name="kdenlive:activeeffect">0</property>
  <filter id="filter0">
   <property name="rotate_center">1</property>
   <property name="mlt_service">qtblend</property>
   <property name="kdenlive_id">qtblend</property>
   <property name="rect">00:00:00.000=-1144 28 4204 2364 1.000000;00:00:00.360=-1144 28 4204 2364 1.000000;00:00:01.600=-1144 -1372 4204 2364 1.000000</property>
   <property name="rotation">00:00:00.000=0;00:00:00.360=0;00:00:01.600=0</property>
   <property name="compositing">0</property>
   <property name="distort">0</property>
   <property name="kdenlive:collapsed">0</property>
  </filter>
 </producer>
 <producer id="producer48" in="00:00:00.000" out="00:00:06.200">
  <property name="length">156</property>
  <property name="eof">pause</property>
  <property name="resource">杂/截图_2021-09-02_20-24-46.jpg</property>
  <property name="ttl">25</property>
  <property name="aspect_ratio">1</property>
  <property name="progressive">1</property>
  <property name="seekable">1</property>
  <property name="meta.media.width">689</property>
  <property name="meta.media.height">520</property>
  <property name="mlt_service">qimage</property>
  <property name="kdenlive:clipname"/>
  <property name="kdenlive:duration">00:00:05.000</property>
  <property name="kdenlive:file_size">57797</property>
  <property name="kdenlive:folderid">25</property>
  <property name="kdenlive:id">54</property>
  <property name="kdenlive:file_hash">a5653fbe77f3da483bb46f74e87a72b0</property>
 </producer>
 <producer id="producer49" in="00:00:00.000" out="00:00:05.240">
  <property name="length">132</property>
  <property name="eof">pause</property>
  <property name="resource">杂/截图_2021-09-02_20-24-31.jpg</property>
  <property name="ttl">25</property>
  <property name="aspect_ratio">1</property>
  <property name="progressive">1</property>
  <property name="seekable">1</property>
  <property name="meta.media.width">728</property>
  <property name="meta.media.height">521</property>
  <property name="mlt_service">qimage</property>
  <property name="kdenlive:clipname"/>
  <property name="kdenlive:duration">00:00:05.000</property>
  <property name="kdenlive:folderid">25</property>
  <property name="kdenlive:id">55</property>
  <property name="kdenlive:file_size">64822</property>
  <property name="kdenlive:file_hash">1c02c7f0b33fbca1098d5d7e86ad4755</property>
 </producer>
 <producer id="producer50" in="00:00:00.000" out="00:00:05.240">
  <property name="length">132</property>
  <property name="eof">pause</property>
  <property name="resource">杂/截图_2021-09-02_20-24-07.jpg</property>
  <property name="ttl">25</property>
  <property name="aspect_ratio">1</property>
  <property name="progressive">1</property>
  <property name="seekable">1</property>
  <property name="meta.media.width">731</property>
  <property name="meta.media.height">516</property>
  <property name="mlt_service">qimage</property>
  <property name="kdenlive:clipname"/>
  <property name="kdenlive:duration">00:00:05.000</property>
  <property name="kdenlive:file_size">64508</property>
  <property name="kdenlive:folderid">25</property>
  <property name="kdenlive:id">56</property>
  <property name="kdenlive:file_hash">104526ad7d84028e24e226ee7fa9ccc1</property>
 </producer>
 <producer id="producer51" in="00:00:00.000" out="00:00:04.960">
  <property name="length">00:00:05.000</property>
  <property name="eof">pause</property>
  <property name="resource">杂/截图_2021-09-01_07-57-36.jpg</property>
  <property name="ttl">25</property>
  <property name="aspect_ratio">1</property>
  <property name="progressive">1</property>
  <property name="seekable">1</property>
  <property name="meta.media.width">1366</property>
  <property name="meta.media.height">768</property>
  <property name="mlt_service">qimage</property>
  <property name="kdenlive:clipname"/>
  <property name="kdenlive:duration">00:00:05.000</property>
  <property name="kdenlive:folderid">25</property>
  <property name="kdenlive:id">57</property>
  <property name="kdenlive:file_size">197348</property>
  <property name="kdenlive:file_hash">825c993bcbfa67fe9c56b2aef04dcf31</property>
 </producer>
 <producer id="producer52" in="00:00:00.000" out="00:00:04.960">
  <property name="length">00:00:05.000</property>
  <property name="eof">pause</property>
  <property name="resource">杂/截图_2021-09-01_07-56-58.jpg</property>
  <property name="ttl">25</property>
  <property name="aspect_ratio">1</property>
  <property name="progressive">1</property>
  <property name="seekable">1</property>
  <property name="meta.media.width">1366</property>
  <property name="meta.media.height">768</property>
  <property name="mlt_service">qimage</property>
  <property name="kdenlive:clipname"/>
  <property name="kdenlive:duration">00:00:05.000</property>
  <property name="kdenlive:folderid">25</property>
  <property name="kdenlive:id">58</property>
  <property name="kdenlive:file_size">215113</property>
  <property name="kdenlive:file_hash">c26ca8e911af6e02bd3e202f9cb646b6</property>
 </producer>
 <producer id="producer53" in="00:00:00.000" out="00:00:04.960">
  <property name="length">00:00:05.000</property>
  <property name="eof">pause</property>
  <property name="resource">杂/截图_2021-08-31_18-33-03.jpg</property>
  <property name="ttl">25</property>
  <property name="aspect_ratio">1</property>
  <property name="progressive">1</property>
  <property name="seekable">1</property>
  <property name="meta.media.width">677</property>
  <property name="meta.media.height">369</property>
  <property name="mlt_service">qimage</property>
  <property name="kdenlive:clipname"/>
  <property name="kdenlive:duration">00:00:05.000</property>
  <property name="kdenlive:folderid">25</property>
  <property name="kdenlive:id">59</property>
  <property name="kdenlive:file_size">30133</property>
  <property name="kdenlive:file_hash">431d7ee42d3db014eda7526168a1cdba</property>
 </producer>
 <producer id="producer54" in="00:00:00.000" out="00:00:04.960">
  <property name="length">00:00:05.000</property>
  <property name="eof">pause</property>
  <property name="resource">/home/duangsuse/Documents/咱动苏/苏观点/素/6c3dd2aebd80f39ebb313fd7d0c73847.jpeg</property>
  <property name="ttl">25</property>
  <property name="aspect_ratio">1</property>
  <property name="progressive">1</property>
  <property name="seekable">1</property>
  <property name="meta.media.width">439</property>
  <property name="meta.media.height">478</property>
  <property name="mlt_service">qimage</property>
  <property name="kdenlive:clipname"/>
  <property name="kdenlive:duration">00:00:05.000</property>
  <property name="kdenlive:file_size">41218</property>
  <property name="kdenlive:folderid">28</property>
  <property name="kdenlive:id">60</property>
  <property name="kdenlive:file_hash">563d028600001de04d8414c5b81643da</property>
 </producer>
 <producer id="producer55" in="00:00:00.000" out="00:00:04.960">
  <property name="length">00:00:05.000</property>
  <property name="eof">pause</property>
  <property name="resource">/home/duangsuse/Documents/咱动苏/苏观点/素/3b1162ecf991ed41704580172f496647.jpeg</property>
  <property name="ttl">25</property>
  <property name="aspect_ratio">1</property>
  <property name="progressive">1</property>
  <property name="seekable">1</property>
  <property name="meta.media.width">320</property>
  <property name="meta.media.height">320</property>
  <property name="mlt_service">qimage</property>
  <property name="kdenlive:clipname"/>
  <property name="kdenlive:duration">00:00:05.000</property>
  <property name="kdenlive:file_size">14061</property>
  <property name="kdenlive:folderid">28</property>
  <property name="kdenlive:id">61</property>
  <property name="kdenlive:file_hash">1f191ed13ca4c5abf468122101da4865</property>
 </producer>
 <producer id="producer56" in="00:00:00.000" out="00:00:05.280">
  <property name="length">133</property>
  <property name="eof">pause</property>
  <property name="resource">/home/duangsuse/Documents/咱动苏/苏观点/素/1e7fe4175fa9e27a6cfa3bbda1c27aa3.jpeg</property>
  <property name="ttl">25</property>
  <property name="aspect_ratio">1</property>
  <property name="progressive">1</property>
  <property name="seekable">1</property>
  <property name="meta.media.width">4288</property>
  <property name="meta.media.height">2848</property>
  <property name="mlt_service">qimage</property>
  <property name="kdenlive:clipname"/>
  <property name="kdenlive:duration">00:00:05.000</property>
  <property name="kdenlive:folderid">28</property>
  <property name="kdenlive:id">62</property>
  <property name="kdenlive:file_size">318650</property>
  <property name="kdenlive:file_hash">64d458cce01d03eb587e6eef90de173c</property>
 </producer>
 <producer id="producer57" in="00:00:00.000" out="00:00:04.960">
  <property name="length">00:00:05.000</property>
  <property name="eof">pause</property>
  <property name="resource">/home/duangsuse/Documents/咱动苏/苏观点/素/9742d7eb96acd7df8bdcb522a373bbde.jpeg</property>
  <property name="ttl">25</property>
  <property name="aspect_ratio">1</property>
  <property name="progressive">1</property>
  <property name="seekable">1</property>
  <property name="meta.media.width">750</property>
  <property name="meta.media.height">904</property>
  <property name="mlt_service">qimage</property>
  <property name="kdenlive:clipname"/>
  <property name="kdenlive:duration">00:00:05.000</property>
  <property name="kdenlive:folderid">28</property>
  <property name="kdenlive:id">63</property>
  <property name="kdenlive:file_size">49464</property>
  <property name="kdenlive:file_hash">0a5ec2281862c463d96daadb64e16b6d</property>
 </producer>
 <producer id="producer58" in="00:00:00.000" out="00:00:06.840">
  <property name="length">172</property>
  <property name="eof">pause</property>
  <property name="resource">/home/duangsuse/Documents/咱动苏/苏观点/素/38feb45a9d9bc6c7cfa6c652c0461439.jpeg</property>
  <property name="ttl">25</property>
  <property name="aspect_ratio">1</property>
  <property name="progressive">1</property>
  <property name="seekable">1</property>
  <property name="meta.media.width">690</property>
  <property name="meta.media.height">690</property>
  <property name="mlt_service">qimage</property>
  <property name="kdenlive:clipname"/>
  <property name="kdenlive:duration">00:00:05.000</property>
  <property name="kdenlive:folderid">28</property>
  <property name="kdenlive:id">64</property>
  <property name="kdenlive:file_size">89190</property>
  <property name="kdenlive:file_hash">a2ca656a6c799c796e9ac84829dac448</property>
 </producer>
 <producer id="producer59" in="00:00:00.000" out="00:00:04.960">
  <property name="length">00:00:05.000</property>
  <property name="eof">pause</property>
  <property name="resource">/home/duangsuse/Documents/咱动苏/苏观点/素/b55c31082c3b247f1b55ab171875b55d.jpeg</property>
  <property name="ttl">25</property>
  <property name="aspect_ratio">1</property>
  <property name="progressive">1</property>
  <property name="seekable">1</property>
  <property name="meta.media.width">1080</property>
  <property name="meta.media.height">602</property>
  <property name="mlt_service">qimage</property>
  <property name="kdenlive:clipname"/>
  <property name="kdenlive:duration">00:00:05.000</property>
  <property name="kdenlive:folderid">28</property>
  <property name="kdenlive:id">65</property>
  <property name="kdenlive:file_size">57001</property>
  <property name="kdenlive:file_hash">5c8a5fcf5a188821cc8820449c0b89d4</property>
 </producer>
 <producer id="producer60" in="00:00:00.000" out="00:00:05.960">
  <property name="length">150</property>
  <property name="eof">pause</property>
  <property name="resource">/home/duangsuse/Documents/咱动苏/苏观点/素/423dda1d3851b16478a9c0bc1ea3298c.jpeg</property>
  <property name="ttl">25</property>
  <property name="aspect_ratio">1</property>
  <property name="progressive">1</property>
  <property name="seekable">1</property>
  <property name="meta.media.width">650</property>
  <property name="meta.media.height">509</property>
  <property name="mlt_service">qimage</property>
  <property name="kdenlive:clipname"/>
  <property name="kdenlive:duration">00:00:05.000</property>
  <property name="kdenlive:folderid">28</property>
  <property name="kdenlive:id">66</property>
  <property name="kdenlive:file_size">41914</property>
  <property name="kdenlive:file_hash">94470d2f30e261740ae1826a516092c3</property>
 </producer>
 <producer id="producer61" in="00:00:00.000" out="00:00:05.960">
  <property name="length">150</property>
  <property name="eof">pause</property>
  <property name="resource">/home/duangsuse/Documents/咱动苏/苏观点/素/3bc8ba186ff933745b2205982d648748.jpeg</property>
  <property name="ttl">25</property>
  <property name="aspect_ratio">1</property>
  <property name="progressive">1</property>
  <property name="seekable">1</property>
  <property name="meta.media.width">800</property>
  <property name="meta.media.height">457</property>
  <property name="mlt_service">qimage</property>
  <property name="kdenlive:clipname"/>
  <property name="kdenlive:duration">00:00:05.000</property>
  <property name="kdenlive:file_size">32523</property>
  <property name="kdenlive:folderid">28</property>
  <property name="kdenlive:id">67</property>
  <property name="kdenlive:file_hash">b187419998ec96853a09a0c98e13c5a1</property>
 </producer>
 <producer id="producer62" in="00:00:00.000" out="00:00:04.960">
  <property name="length">00:00:05.000</property>
  <property name="eof">pause</property>
  <property name="resource">/home/duangsuse/Documents/咱动苏/苏观点/素/9b12a28ac7991aaf91ae18b33abbaa75.jpg</property>
  <property name="ttl">25</property>
  <property name="aspect_ratio">1</property>
  <property name="progressive">1</property>
  <property name="seekable">1</property>
  <property name="meta.media.width">450</property>
  <property name="meta.media.height">375</property>
  <property name="mlt_service">qimage</property>
  <property name="kdenlive:clipname"/>
  <property name="kdenlive:duration">00:00:05.000</property>
  <property name="kdenlive:folderid">28</property>
  <property name="kdenlive:id">68</property>
  <property name="kdenlive:file_size">29656</property>
  <property name="kdenlive:file_hash">fbca79c87680cb78140f25125604b8b0</property>
 </producer>
 <producer id="producer63" in="00:00:00.000" out="00:00:04.960">
  <property name="length">00:00:05.000</property>
  <property name="eof">pause</property>
  <property name="resource">/home/duangsuse/Documents/咱动苏/苏观点/素/beginners-css-edit1.msft.png</property>
  <property name="ttl">25</property>
  <property name="aspect_ratio">1</property>
  <property name="progressive">1</property>
  <property name="seekable">1</property>
  <property name="meta.media.width">2256</property>
  <property name="meta.media.height">1434</property>
  <property name="mlt_service">qimage</property>
  <property name="kdenlive:clipname"/>
  <property name="kdenlive:duration">00:00:05.000</property>
  <property name="kdenlive:folderid">28</property>
  <property name="kdenlive:id">69</property>
  <property name="kdenlive:file_size">270888</property>
  <property name="kdenlive:file_hash">cd9116b72ddec329d89212a034782ad2</property>
 </producer>
 <producer id="producer64" in="00:00:00.000" out="00:00:04.960">
  <property name="length">00:00:05.000</property>
  <property name="eof">pause</property>
  <property name="resource">/home/duangsuse/Documents/咱动苏/苏观点/素/304b7ec2ea8b60ad926750517e180162.jpeg</property>
  <property name="ttl">25</property>
  <property name="aspect_ratio">1</property>
  <property name="progressive">1</property>
  <property name="seekable">1</property>
  <property name="meta.media.width">448</property>
  <property name="meta.media.height">178</property>
  <property name="mlt_service">qimage</property>
  <property name="kdenlive:clipname"/>
  <property name="kdenlive:duration">00:00:05.000</property>
  <property name="kdenlive:folderid">28</property>
  <property name="kdenlive:id">70</property>
  <property name="kdenlive:file_size">6707</property>
  <property name="kdenlive:file_hash">c9f9f61d4656292fa1e3672b869fac0d</property>
 </producer>
 <producer id="producer65" in="00:00:00.000" out="00:00:04.960">
  <property name="length">00:00:05.000</property>
  <property name="eof">pause</property>
  <property name="resource">/home/duangsuse/Documents/咱动苏/苏观点/素/timg-6-1.jpg</property>
  <property name="ttl">25</property>
  <property name="aspect_ratio">1</property>
  <property name="progressive">1</property>
  <property name="seekable">1</property>
  <property name="meta.media.width">800</property>
  <property name="meta.media.height">450</property>
  <property name="mlt_service">qimage</property>
  <property name="kdenlive:clipname"/>
  <property name="kdenlive:duration">00:00:05.000</property>
  <property name="kdenlive:folderid">28</property>
  <property name="kdenlive:id">71</property>
  <property name="kdenlive:file_size">22623</property>
  <property name="kdenlive:file_hash">3dc0a0536a3b203600d27fc5b323ebea</property>
 </producer>
 <producer id="producer66" in="00:00:00.000" out="00:00:04.960">
  <property name="length">00:00:05.000</property>
  <property name="eof">pause</property>
  <property name="resource">/home/duangsuse/Documents/咱动苏/苏观点/素/歪.webp</property>
  <property name="ttl">25</property>
  <property name="aspect_ratio">1</property>
  <property name="progressive">1</property>
  <property name="seekable">1</property>
  <property name="meta.media.width">128</property>
  <property name="meta.media.height">128</property>
  <property name="mlt_service">qimage</property>
  <property name="kdenlive:clipname"/>
  <property name="kdenlive:duration">00:00:05.000</property>
  <property name="kdenlive:folderid">28</property>
  <property name="kdenlive:id">72</property>
  <property name="kdenlive:file_size">1540</property>
  <property name="kdenlive:file_hash">dbb50c3928ccf82364c80f44e9c8862d</property>
 </producer>
 <producer id="producer67" in="00:00:00.000" out="00:00:04.960">
  <property name="length">00:00:05.000</property>
  <property name="eof">pause</property>
  <property name="resource">/home/duangsuse/Documents/咱动苏/苏观点/素/五.jpeg</property>
  <property name="ttl">25</property>
  <property name="aspect_ratio">1</property>
  <property name="progressive">1</property>
  <property name="seekable">1</property>
  <property name="meta.media.width">80</property>
  <property name="meta.media.height">80</property>
  <property name="mlt_service">qimage</property>
  <property name="kdenlive:clipname"/>
  <property name="kdenlive:duration">00:00:05.000</property>
  <property name="kdenlive:folderid">28</property>
  <property name="kdenlive:id">73</property>
  <property name="kdenlive:file_size">2576</property>
  <property name="kdenlive:file_hash">f70a2be9036e75fd4f995f01004d9b22</property>
 </producer>
 <producer id="producer68" in="00:00:00.000" out="00:00:04.960">
  <property name="length">00:00:05.000</property>
  <property name="eof">pause</property>
  <property name="resource">/home/duangsuse/Documents/咱动苏/苏观点/素/f018cdf1a1c1cc201bec5db0bce5a64b.jpeg</property>
  <property name="ttl">25</property>
  <property name="aspect_ratio">1</property>
  <property name="progressive">1</property>
  <property name="seekable">1</property>
  <property name="meta.media.width">501</property>
  <property name="meta.media.height">382</property>
  <property name="mlt_service">qimage</property>
  <property name="kdenlive:clipname"/>
  <property name="kdenlive:duration">00:00:05.000</property>
  <property name="kdenlive:folderid">28</property>
  <property name="kdenlive:id">74</property>
  <property name="kdenlive:file_size">24497</property>
  <property name="kdenlive:file_hash">c69570b4b9c726cbc33b1389d2e849de</property>
 </producer>
 <producer id="producer69" in="00:00:00.000" out="00:00:04.960">
  <property name="length">00:00:05.000</property>
  <property name="eof">pause</property>
  <property name="resource">/home/duangsuse/Documents/咱动苏/苏观点/素/e2271a12ae299f2c8d028baa926d1b96.jpeg</property>
  <property name="ttl">25</property>
  <property name="aspect_ratio">1</property>
  <property name="progressive">1</property>
  <property name="seekable">1</property>
  <property name="meta.media.width">434</property>
  <property name="meta.media.height">293</property>
  <property name="mlt_service">qimage</property>
  <property name="kdenlive:clipname"/>
  <property name="kdenlive:duration">00:00:05.000</property>
  <property name="kdenlive:folderid">28</property>
  <property name="kdenlive:id">75</property>
  <property name="kdenlive:file_size">19474</property>
  <property name="kdenlive:file_hash">3abc4b2ed2738bf0b7a1c3eb43d2c5b3</property>
 </producer>
 <producer id="producer70" in="00:00:00.000" out="00:00:04.960">
  <property name="length">00:00:05.000</property>
  <property name="eof">pause</property>
  <property name="resource">/home/duangsuse/Documents/咱动苏/苏观点/素/baf4ea0e742da5cc9062f31bf50048b1.jpeg</property>
  <property name="ttl">25</property>
  <property name="aspect_ratio">1</property>
  <property name="progressive">1</property>
  <property name="seekable">1</property>
  <property name="meta.media.width">940</property>
  <property name="meta.media.height">400</property>
  <property name="mlt_service">qimage</property>
  <property name="kdenlive:clipname"/>
  <property name="kdenlive:duration">00:00:05.000</property>
  <property name="kdenlive:folderid">28</property>
  <property name="kdenlive:id">76</property>
  <property name="kdenlive:file_size">23507</property>
  <property name="kdenlive:file_hash">3d52d9ab924e8a5255cbb4d78830ed0a</property>
 </producer>
 <producer id="producer71" in="00:00:00.000" out="00:00:04.960">
  <property name="length">00:00:05.000</property>
  <property name="eof">pause</property>
  <property name="resource">/home/duangsuse/Documents/咱动苏/苏观点/素/2868408c9bfc0286c85b58b39148a185.jpeg</property>
  <property name="ttl">25</property>
  <property name="aspect_ratio">1</property>
  <property name="progressive">1</property>
  <property name="seekable">1</property>
  <property name="meta.media.width">1080</property>
  <property name="meta.media.height">810</property>
  <property name="mlt_service">qimage</property>
  <property name="kdenlive:clipname"/>
  <property name="kdenlive:duration">00:00:05.000</property>
  <property name="kdenlive:folderid">28</property>
  <property name="kdenlive:id">77</property>
  <property name="kdenlive:file_size">171495</property>
  <property name="kdenlive:file_hash">c21f3b83f298d8a1d640d0455f8eae28</property>
 </producer>
 <producer id="producer72" in="00:00:00.000" out="00:00:04.960">
  <property name="length">00:00:05.000</property>
  <property name="eof">pause</property>
  <property name="resource">/home/duangsuse/Documents/咱动苏/苏观点/素/15b82acf0cc3634c130d2901ff89478e.jpeg</property>
  <property name="ttl">25</property>
  <property name="aspect_ratio">1</property>
  <property name="progressive">1</property>
  <property name="seekable">1</property>
  <property name="meta.media.width">550</property>
  <property name="meta.media.height">273</property>
  <property name="mlt_service">qimage</property>
  <property name="kdenlive:clipname"/>
  <property name="kdenlive:duration">00:00:05.000</property>
  <property name="kdenlive:folderid">28</property>
  <property name="kdenlive:id">78</property>
  <property name="kdenlive:file_size">27468</property>
  <property name="kdenlive:file_hash">46dd3bedf79b3ce65921498752d1e3cb</property>
 </producer>
 <producer id="producer73" in="00:00:00.000" out="00:00:04.960">
  <property name="length">00:00:05.000</property>
  <property name="eof">pause</property>
  <property name="resource">/home/duangsuse/Documents/咱动苏/苏观点/素/22a5ddfb831a4c9c58b050c35dd18a76cf776cc1.jpg</property>
  <property name="ttl">25</property>
  <property name="aspect_ratio">1</property>
  <property name="progressive">1</property>
  <property name="seekable">1</property>
  <property name="meta.media.width">1728</property>
  <property name="meta.media.height">1080</property>
  <property name="mlt_service">qimage</property>
  <property name="kdenlive:clipname"/>
  <property name="kdenlive:duration">00:00:05.000</property>
  <property name="kdenlive:folderid">28</property>
  <property name="kdenlive:id">79</property>
  <property name="kdenlive:file_size">217888</property>
  <property name="kdenlive:file_hash">f67754eb9430673693c5059e35e37e9c</property>
 </producer>
 <producer id="producer74" in="00:00:00.000" out="00:00:04.960">
  <property name="length">00:00:05.000</property>
  <property name="eof">pause</property>
  <property name="resource">/home/duangsuse/Documents/咱动苏/苏观点/素/细菌.jpg</property>
  <property name="ttl">25</property>
  <property name="aspect_ratio">1</property>
  <property name="progressive">1</property>
  <property name="seekable">1</property>
  <property name="meta.media.width">1728</property>
  <property name="meta.media.height">1080</property>
  <property name="mlt_service">qimage</property>
  <property name="kdenlive:clipname"/>
  <property name="kdenlive:duration">00:00:05.000</property>
  <property name="kdenlive:folderid">28</property>
  <property name="kdenlive:id">80</property>
  <property name="kdenlive:file_size">251986</property>
  <property name="kdenlive:file_hash">a8389a060ba07752a73b4c910d4b531a</property>
 </producer>
 <producer id="producer75" in="00:00:00.000" out="00:00:04.960">
  <property name="length">00:00:05.000</property>
  <property name="eof">pause</property>
  <property name="resource">/home/duangsuse/Downloads/ee5f2c1ca112f189c72ac522656750ec.jpeg</property>
  <property name="ttl">25</property>
  <property name="aspect_ratio">1</property>
  <property name="progressive">1</property>
  <property name="seekable">1</property>
  <property name="meta.media.width">3264</property>
  <property name="meta.media.height">2448</property>
  <property name="mlt_service">qimage</property>
  <property name="kdenlive:clipname"/>
  <property name="kdenlive:duration">00:00:05.000</property>
  <property name="kdenlive:file_size">2708360</property>
  <property name="kdenlive:folderid">27</property>
  <property name="kdenlive:id">81</property>
  <property name="kdenlive:file_hash">316077ceb7cd3da2c8885f83cabc9262</property>
 </producer>
 <producer id="producer76" in="00:00:00.000" out="00:00:04.960">
  <property name="length">00:00:05.000</property>
  <property name="eof">pause</property>
  <property name="resource">/home/duangsuse/Downloads/d5b6fb76a60a6b01054d1ae01175d889.jpeg</property>
  <property name="ttl">25</property>
  <property name="aspect_ratio">1</property>
  <property name="progressive">1</property>
  <property name="seekable">1</property>
  <property name="meta.media.width">1024</property>
  <property name="meta.media.height">768</property>
  <property name="mlt_service">qimage</property>
  <property name="kdenlive:clipname"/>
  <property name="kdenlive:duration">00:00:05.000</property>
  <property name="kdenlive:file_size">189019</property>
  <property name="kdenlive:folderid">27</property>
  <property name="kdenlive:id">82</property>
  <property name="kdenlive:file_hash">3295b92f092c8f35caed94ac16c0930c</property>
 </producer>
 <producer id="producer77" in="00:00:00.000" out="00:00:07.480">
  <property name="length">188</property>
  <property name="eof">pause</property>
  <property name="resource">/home/duangsuse/Downloads/a408dfe4b7c5da0ce18337c2c39d35d6.jpeg</property>
  <property name="ttl">25</property>
  <property name="aspect_ratio">1</property>
  <property name="progressive">1</property>
  <property name="seekable">1</property>
  <property name="meta.media.width">4256</property>
  <property name="meta.media.height">2832</property>
  <property name="mlt_service">qimage</property>
  <property name="kdenlive:clipname"/>
  <property name="kdenlive:duration">00:00:05.000</property>
  <property name="kdenlive:folderid">27</property>
  <property name="kdenlive:id">83</property>
  <property name="kdenlive:file_size">6473190</property>
  <property name="kdenlive:file_hash">901af3303d6a16f2b0e43e77e6a1f7fc</property>
 </producer>
 <producer id="producer78" in="00:00:00.000" out="00:00:04.960">
  <property name="length">00:00:05.000</property>
  <property name="eof">pause</property>
  <property name="resource">/home/duangsuse/Downloads/cn.bing.com_search_q=%E8%80%81%E5%B9%B2%E5%A6%88+%E6%B3%A1%E9%9D%A2&amp;PC=U316&amp;FORM=CHROMN.png</property>
  <property name="ttl">25</property>
  <property name="aspect_ratio">1</property>
  <property name="progressive">1</property>
  <property name="seekable">1</property>
  <property name="meta.media.width">1342</property>
  <property name="meta.media.height">2952</property>
  <property name="mlt_service">qimage</property>
  <property name="kdenlive:clipname"/>
  <property name="kdenlive:duration">00:00:05.000</property>
  <property name="kdenlive:folderid">27</property>
  <property name="kdenlive:file_size">0</property>
  <property name="kdenlive:id">84</property>
  <property name="kdenlive:file_hash">12c7e2d0b320d87ed454df0bb59d3e80</property>
 </producer>
 <producer id="producer79" in="00:00:00.000" out="00:00:04.960">
  <property name="length">125</property>
  <property name="eof">pause</property>
  <property name="resource"/>
  <property name="progressive">1</property>
  <property name="aspect_ratio">1</property>
  <property name="seekable">1</property>
  <property name="mlt_service">kdenlivetitle</property>
  <property name="kdenlive:duration">125</property>
  <property name="kdenlive:clipname">噢，不好意思我在问他 没...</property>
  <property name="xmldata">&lt;kdenlivetitle duration="125" LC_NUMERIC="C" width="1920" height="1080" out="124">
 &lt;item type="QGraphicsTextItem" z-index="0">
  &lt;position x="12" y="34">
   &lt;transform>1,0,0,0,1,0,0,0,1&lt;/transform>
  &lt;/position>
  &lt;content line-spacing="0" shadow="0;#64000000;3;3;3" font-underline="0" box-height="330" font="文泉驿等宽微米黑" letter-spacing="0" font-pixel-size="94" font-italic="0" typewriter="0;2;1;0;0" alignment="2" font-weight="87" box-width="752" font-color="224,27,36,255">噢，不好意思
我在问他
没问你能不能原谅&lt;/content>
 &lt;/item>
 &lt;startviewport rect="0,0,1920,1080"/>
 &lt;endviewport rect="0,0,1920,1080"/>
 &lt;background color="0,0,0,0"/>
&lt;/kdenlivetitle>
</property>
  <property name="kdenlive:file_hash">097017b8ad0fff70f98154b442d461f4</property>
  <property name="kdenlive:folderid">28</property>
  <property name="kdenlive:id">85</property>
  <property name="force_reload">0</property>
  <property name="meta.media.width">1920</property>
  <property name="meta.media.height">1080</property>
 </producer>
 <producer id="producer80" in="00:00:00.000" out="00:00:05.440">
  <property name="length">137</property>
  <property name="eof">pause</property>
  <property name="resource"/>
  <property name="progressive">1</property>
  <property name="aspect_ratio">1</property>
  <property name="seekable">1</property>
  <property name="mlt_service">kdenlivetitle</property>
  <property name="kdenlive:duration">125</property>
  <property name="kdenlive:clipname">mo~</property>
  <property name="xmldata">&lt;kdenlivetitle duration="125" LC_NUMERIC="C" width="1920" height="1080" out="124">
 &lt;item type="QGraphicsTextItem" z-index="0">
  &lt;position x="618" y="417">
   &lt;transform>1,0,0,0,1,0,0,0,1&lt;/transform>
  &lt;/position>
  &lt;content line-spacing="0" shadow="0;#64000000;3;3;3" font-underline="0" box-height="243" font-outline-color="255,255,255,255" font="文泉驿等宽微米黑" letter-spacing="0" font-pixel-size="207" font-italic="0" typewriter="0;2;1;0;0" alignment="2" font-weight="87" font-outline="0" box-width="372.656" font-color="255,255,255,255">mo~&lt;/content>
 &lt;/item>
 &lt;startviewport rect="0,0,1920,1080"/>
 &lt;endviewport rect="0,0,1920,1080"/>
 &lt;background color="0,0,0,0"/>
&lt;/kdenlivetitle>
</property>
  <property name="kdenlive:file_hash">64598d68953bfb6ca593568b5e48d837</property>
  <property name="kdenlive:folderid">28</property>
  <property name="kdenlive:id">86</property>
  <property name="force_reload">0</property>
  <property name="meta.media.width">1920</property>
  <property name="meta.media.height">1080</property>
 </producer>
 <producer id="producer81" in="00:00:00.000" out="00:00:04.960">
  <property name="length">125</property>
  <property name="eof">pause</property>
  <property name="resource"/>
  <property name="progressive">1</property>
  <property name="aspect_ratio">1</property>
  <property name="seekable">1</property>
  <property name="mlt_service">kdenlivetitle</property>
  <property name="kdenlive:duration">125</property>
  <property name="kdenlive:clipname">《不利》</property>
  <property name="xmldata">&lt;kdenlivetitle duration="125" LC_NUMERIC="C" width="1920" height="1080" out="124">
 &lt;item type="QGraphicsTextItem" z-index="0">
  &lt;position x="567" y="391">
   &lt;transform>1,0,0,0,1,0,0,0,1&lt;/transform>
  &lt;/position>
  &lt;content line-spacing="0" shadow="1;#ff33d17a;3;3;3" font-underline="0" box-height="243" font-outline-color="255,255,255,255" font="文泉驿等宽微米黑" letter-spacing="0" font-pixel-size="207" font-italic="0" typewriter="0;2;1;0;0" alignment="2" font-weight="87" font-outline="0" box-width="831" font-color="255,255,255,255">《不利》&lt;/content>
 &lt;/item>
 &lt;startviewport rect="0,0,1920,1080"/>
 &lt;endviewport rect="0,0,1920,1080"/>
 &lt;background color="0,0,0,0"/>
&lt;/kdenlivetitle>
</property>
  <property name="kdenlive:folderid">28</property>
  <property name="kdenlive:id">87</property>
  <property name="kdenlive:file_hash">c07ed23a8afb74295858d15cd3ca8da6</property>
  <property name="force_reload">0</property>
  <property name="meta.media.width">1920</property>
  <property name="meta.media.height">1080</property>
 </producer>
 <producer id="producer82" in="00:00:00.000" out="00:00:07.000">
  <property name="length">176</property>
  <property name="eof">pause</property>
  <property name="resource"/>
  <property name="progressive">1</property>
  <property name="aspect_ratio">1</property>
  <property name="seekable">1</property>
  <property name="mlt_service">kdenlivetitle</property>
  <property name="kdenlive:duration">125</property>
  <property name="kdenlive:clipname">「优质」</property>
  <property name="xmldata">&lt;kdenlivetitle duration="125" LC_NUMERIC="C" width="1920" height="1080" out="124">
 &lt;item type="QGraphicsTextItem" z-index="1">
  &lt;position x="210" y="567">
   &lt;transform>1,0,0,0,1,0,0,0,1&lt;/transform>
  &lt;/position>
  &lt;content line-spacing="0" shadow="0;#64000000;3;3;3" font-underline="0" box-height="243" font-outline-color="255,255,255,255" font="文泉驿等宽微米黑" letter-spacing="0" font-pixel-size="207" font-italic="0" typewriter="0;2;1;0;0" alignment="2" font-weight="87" gradient="#ff0935b7;#ffe01b24;23;100;58" font-outline="0" box-width="1449" font-color="0,0,0,255">是单个的数字吗&lt;/content>
 &lt;/item>
 &lt;item type="QGraphicsTextItem" z-index="0">
  &lt;position x="532" y="207">
   &lt;transform>1,0,0,0,1,0,0,0,1&lt;/transform>
  &lt;/position>
  &lt;content line-spacing="0" shadow="1;#ffffffff;11;3;3" font-underline="0" box-height="243" font-outline-color="255,255,255,255" font="文泉驿等宽微米黑" letter-spacing="0" font-pixel-size="207" font-italic="0" typewriter="0;2;1;0;0" alignment="2" font-weight="87" gradient="#fff8e45c;#ffe01b24;36;100;112" font-outline="0" box-width="828" font-color="0,0,0,255">「优质」&lt;/content>
 &lt;/item>
 &lt;startviewport rect="0,0,1920,1080"/>
 &lt;endviewport rect="0,0,1920,1080"/>
 &lt;background color="0,0,0,0"/>
&lt;/kdenlivetitle>
</property>
  <property name="kdenlive:file_hash">90026e59f6ee5b086b14719af02adaaa</property>
  <property name="kdenlive:folderid">28</property>
  <property name="kdenlive:id">88</property>
  <property name="force_reload">0</property>
  <property name="meta.media.width">1920</property>
  <property name="meta.media.height">1080</property>
 </producer>
 <producer id="producer83" in="00:00:00.000" out="00:00:06.920">
  <property name="length">174</property>
  <property name="eof">pause</property>
  <property name="resource"/>
  <property name="progressive">1</property>
  <property name="aspect_ratio">1</property>
  <property name="seekable">1</property>
  <property name="mlt_service">kdenlivetitle</property>
  <property name="kdenlive:duration">125</property>
  <property name="kdenlive:clipname">每人都有自己眼里的校花 ...</property>
  <property name="xmldata">&lt;kdenlivetitle duration="125" LC_NUMERIC="C" width="1920" height="1080" out="124">
 &lt;item type="QGraphicsTextItem" z-index="0">
  &lt;position x="97" y="185">
   &lt;transform>1,0,0,0,1,0,0,0,1&lt;/transform>
  &lt;/position>
  &lt;content line-spacing="0" shadow="0;#64000000;3;3;3" font-underline="0" box-height="768" font-outline-color="255,255,255,255" font="文泉驿等宽微米黑" letter-spacing="0" font-pixel-size="164" font-italic="0" typewriter="0;2;1;0;0" alignment="2" font-weight="87" gradient="#ff00e006;#ff613583;30;100;112" font-outline="0" box-width="1804" font-color="0,0,0,255">每人都有自己眼里的校花
可以有最共同的
但没有「正确」的
更没有可笑的&lt;/content>
 &lt;/item>
 &lt;startviewport rect="0,0,1920,1080"/>
 &lt;endviewport rect="0,0,1920,1080"/>
 &lt;background color="0,0,0,0"/>
&lt;/kdenlivetitle>
</property>
  <property name="kdenlive:folderid">28</property>
  <property name="kdenlive:file_hash">b5cbbf3323fb6fdf69669349582ff119</property>
  <property name="kdenlive:id">89</property>
  <property name="force_reload">0</property>
  <property name="meta.media.width">1920</property>
  <property name="meta.media.height">1080</property>
 </producer>
 <producer id="producer84" in="00:00:00.000" out="00:00:09.640">
  <property name="length">242</property>
  <property name="eof">pause</property>
  <property name="resource"/>
  <property name="progressive">1</property>
  <property name="aspect_ratio">1</property>
  <property name="seekable">1</property>
  <property name="mlt_service">kdenlivetitle</property>
  <property name="kdenlive:duration">125</property>
  <property name="kdenlive:clipname">华为海外部</property>
  <property name="xmldata">&lt;kdenlivetitle duration="125" LC_NUMERIC="C" width="1920" height="1080" out="124">
 &lt;item type="QGraphicsTextItem" z-index="0">
  &lt;position x="551" y="388">
   &lt;transform>1,0,0,0,1,0,0,0,1&lt;/transform>
  &lt;/position>
  &lt;content line-spacing="0" shadow="0;#64000000;3;3;3" font-underline="0" box-height="193" font-outline-color="255,255,255,255" font="文泉驿等宽微米黑" letter-spacing="0" font-pixel-size="164" font-italic="0" typewriter="0;2;1;0;0" alignment="2" font-weight="87" gradient="#fff8e45c;#ffe01b24;36;100;112" font-outline="0" box-width="820" font-color="0,0,0,255">华为海外部&lt;/content>
 &lt;/item>
 &lt;startviewport rect="0,0,1920,1080"/>
 &lt;endviewport rect="0,0,1920,1080"/>
 &lt;background color="0,0,0,0"/>
&lt;/kdenlivetitle>
</property>
  <property name="kdenlive:folderid">28</property>
  <property name="kdenlive:id">90</property>
  <property name="kdenlive:file_hash">7e947875d4a9340fb241cf521a7cb052</property>
  <property name="force_reload">0</property>
  <property name="meta.media.width">1920</property>
  <property name="meta.media.height">1080</property>
 </producer>
 <producer id="producer85" in="00:00:00.000" out="00:00:04.960">
  <property name="length">00:00:05.000</property>
  <property name="eof">pause</property>
  <property name="resource">/home/duangsuse/Documents/咱动苏/排序1/tit.png</property>
  <property name="ttl">25</property>
  <property name="aspect_ratio">1</property>
  <property name="progressive">1</property>
  <property name="seekable">1</property>
  <property name="meta.media.width">1920</property>
  <property name="meta.media.height">1080</property>
  <property name="mlt_service">qimage</property>
  <property name="kdenlive:clipname"/>
  <property name="kdenlive:duration">00:00:05.000</property>
  <property name="kdenlive:folderid">-1</property>
  <property name="kdenlive:id">91</property>
  <property name="kdenlive:file_size">1311486</property>
  <property name="kdenlive:file_hash">10b266f2cf32be03b52e46c70a35d8d1</property>
 </producer>
 <producer id="producer86" in="00:00:00.000" out="00:00:58.000">
  <property name="length">1451</property>
  <property name="eof">pause</property>
  <property name="resource">/home/duangsuse/Documents/咱动苏/排序1/快排.mkv</property>
  <property name="audio_index">1</property>
  <property name="video_index">0</property>
  <property name="mute_on_pause">0</property>
  <property name="mlt_service">avformat-novalidate</property>
  <property name="meta.media.nb_streams">2</property>
  <property name="meta.media.0.stream.type">video</property>
  <property name="meta.media.0.stream.frame_rate">30</property>
  <property name="meta.media.0.stream.sample_aspect_ratio">0</property>
  <property name="meta.media.0.codec.width">620</property>
  <property name="meta.media.0.codec.height">268</property>
  <property name="meta.media.0.codec.rotate">0</property>
  <property name="meta.media.0.codec.frame_rate">30</property>
  <property name="meta.media.0.codec.pix_fmt">yuv420p</property>
  <property name="meta.media.0.codec.sample_aspect_ratio">1</property>
  <property name="meta.media.0.codec.colorspace">709</property>
  <property name="meta.media.0.codec.color_trc">1</property>
  <property name="meta.media.0.codec.name">h264</property>
  <property name="meta.media.0.codec.long_name">H.264 / AVC / MPEG-4 AVC / MPEG-4 part 10</property>
  <property name="meta.media.0.codec.bit_rate">0</property>
  <property name="meta.attr.0.stream.DURATION.markup">00:00:58.033000000</property>
  <property name="meta.media.1.stream.type">audio</property>
  <property name="meta.media.1.codec.sample_fmt">fltp</property>
  <property name="meta.media.1.codec.sample_rate">48000</property>
  <property name="meta.media.1.codec.channels">2</property>
  <property name="meta.media.1.codec.name">aac</property>
  <property name="meta.media.1.codec.long_name">AAC (Advanced Audio Coding)</property>
  <property name="meta.media.1.codec.bit_rate">0</property>
  <property name="meta.attr.1.stream.title.markup">simple_aac_recording</property>
  <property name="meta.attr.1.stream.DURATION.markup">00:00:57.899000000</property>
  <property name="meta.attr.ENCODER.markup">Lavf58.76.100</property>
  <property name="seekable">1</property>
  <property name="meta.media.sample_aspect_num">1</property>
  <property name="meta.media.sample_aspect_den">1</property>
  <property name="aspect_ratio">1</property>
  <property name="kdenlive:clipname"/>
  <property name="kdenlive:folderid">-1</property>
  <property name="meta.media.frame_rate_num">30</property>
  <property name="meta.media.frame_rate_den">1</property>
  <property name="meta.media.colorspace">709</property>
  <property name="meta.media.color_trc">1</property>
  <property name="meta.media.has_b_frames">2</property>
  <property name="meta.media.width">620</property>
  <property name="meta.media.height">268</property>
  <property name="meta.media.color_range">mpeg</property>
  <property name="kdenlive:id">92</property>
  <property name="kdenlive:file_size">1525168</property>
  <property name="kdenlive:file_hash">69e72448e95b8f9fb0007a8b921e6d3b</property>
  <property name="meta.media.top_field_first">0</property>
  <property name="meta.media.progressive">1</property>
  <property name="kdenlive:audio_max1">240</property>
 </producer>
 <producer id="producer87" in="00:00:00.000" out="00:00:04.960">
  <property name="length">00:00:05.000</property>
  <property name="eof">pause</property>
  <property name="resource">杂/截图_2021-09-02_21-50-56.jpg</property>
  <property name="ttl">25</property>
  <property name="aspect_ratio">1</property>
  <property name="progressive">1</property>
  <property name="seekable">1</property>
  <property name="meta.media.width">1366</property>
  <property name="meta.media.height">768</property>
  <property name="mlt_service">qimage</property>
  <property name="kdenlive:clipname"/>
  <property name="kdenlive:duration">00:00:05.000</property>
  <property name="kdenlive:file_size">213870</property>
  <property name="kdenlive:folderid">-1</property>
  <property name="kdenlive:id">93</property>
  <property name="kdenlive:file_hash">0e7678570e4eb6bd44ffb6cd0f3ddc83</property>
 </producer>
 <producer id="producer88" in="00:00:00.000" out="00:00:05.560">
  <property name="length">140</property>
  <property name="eof">pause</property>
  <property name="resource"/>
  <property name="progressive">1</property>
  <property name="aspect_ratio">1</property>
  <property name="seekable">1</property>
  <property name="mlt_service">kdenlivetitle</property>
  <property name="kdenlive:duration">125</property>
  <property name="kdenlive:clipname">Dr. STONE</property>
  <property name="xmldata">&lt;kdenlivetitle duration="125" LC_NUMERIC="C" width="1920" height="1080" out="124">
 &lt;item type="QGraphicsTextItem" z-index="1">
  &lt;position x="324" y="561">
   &lt;transform>1,0,0,0,1,0,0,0,1&lt;/transform>
  &lt;/position>
  &lt;content line-spacing="0" shadow="0;#64000000;3;3;3" font-underline="0" box-height="384" font-outline-color="255,255,255,255" font="文泉驿等宽微米黑" letter-spacing="0" font-pixel-size="164" font-italic="0" typewriter="0;2;1;0;0" alignment="2" font-weight="87" gradient="#ff613583;#ffe01b24;70;100;61" font-outline="0" box-width="1312" font-color="0,0,0,255">旧世界科学家如何
振兴忧虑村庄&lt;/content>
 &lt;/item>
 &lt;item type="QGraphicsTextItem" z-index="0">
  &lt;position x="408" y="212">
   &lt;transform>1,0,0,0,1,0,0,0,1&lt;/transform>
  &lt;/position>
  &lt;content line-spacing="0" shadow="0;#64000000;3;3;3" font-underline="0" box-height="193" font-outline-color="255,255,255,255" font="文泉驿等宽微米黑" letter-spacing="0" font-pixel-size="164" font-italic="0" typewriter="0;2;1;0;0" alignment="2" font-weight="87" font-outline="0" box-width="885.656" font-color="255,255,255,255">Dr. STONE&lt;/content>
 &lt;/item>
 &lt;startviewport rect="0,0,1920,1080"/>
 &lt;endviewport rect="0,0,1920,1080"/>
 &lt;background color="0,0,0,0"/>
&lt;/kdenlivetitle>
</property>
  <property name="kdenlive:file_hash">b180fa49bd0ae6b6c3728a757e7c4126</property>
  <property name="kdenlive:folderid">28</property>
  <property name="kdenlive:id">94</property>
  <property name="force_reload">0</property>
  <property name="meta.media.width">1920</property>
  <property name="meta.media.height">1080</property>
 </producer>
 <producer id="producer89" in="00:00:00.000" out="00:00:04.960">
  <property name="length">125</property>
  <property name="eof">pause</property>
  <property name="resource"/>
  <property name="progressive">1</property>
  <property name="aspect_ratio">1</property>
  <property name="seekable">1</property>
  <property name="mlt_service">kdenlivetitle</property>
  <property name="kdenlive:duration">125</property>
  <property name="kdenlive:clipname">黑人擡棺 你想到了 别人...</property>
  <property name="xmldata">&lt;kdenlivetitle duration="125" LC_NUMERIC="C" width="1920" height="1080" out="124">
 &lt;item type="QGraphicsTextItem" z-index="0">
  &lt;position x="608" y="114">
   &lt;transform>1,0,0,0,1,0,0,0,1&lt;/transform>
  &lt;/position>
  &lt;content shadow="0;#64000000;3;3;3" font-underline="0" box-height="960" font-outline-color="255,255,255,255" font="文泉驿等宽微米黑" letter-spacing="0" font-pixel-size="164" font-italic="0" typewriter="0;2;1;0;0" alignment="2" font-weight="87" font-outline="0" box-width="656" font-color="255,255,255,255">黑人擡棺
你想到了
别人后发
就是抄的
？&lt;/content>
 &lt;/item>
 &lt;startviewport rect="0,0,1920,1080"/>
 &lt;endviewport rect="0,0,1920,1080"/>
 &lt;background color="0,0,0,0"/>
&lt;/kdenlivetitle>
</property>
  <property name="kdenlive:file_hash">938284f92cb2b04a629ef76b82fd65d2</property>
  <property name="kdenlive:folderid">28</property>
  <property name="kdenlive:id">95</property>
  <property name="force_reload">0</property>
  <property name="meta.media.width">1920</property>
  <property name="meta.media.height">1080</property>
 </producer>
 <producer id="producer90" in="00:00:00.000" out="00:00:04.960">
  <property name="length">125</property>
  <property name="eof">pause</property>
  <property name="resource"/>
  <property name="progressive">1</property>
  <property name="aspect_ratio">1</property>
  <property name="seekable">1</property>
  <property name="mlt_service">kdenlivetitle</property>
  <property name="kdenlive:duration">125</property>
  <property name="kdenlive:clipname">“听到相似就抄袭</property>
  <property name="xmldata">&lt;kdenlivetitle duration="125" LC_NUMERIC="C" width="1920" height="1080" out="124">
 &lt;item type="QGraphicsTextItem" z-index="0">
  &lt;position x="359" y="328">
   &lt;transform>1,0,0,0,1,0,0,0,1&lt;/transform>
  &lt;/position>
  &lt;content line-spacing="0" shadow="0;#64000000;3;3;3" font-underline="0" box-height="576" font-outline-color="255,255,255,255" font="文泉驿等宽微米黑" letter-spacing="0" font-pixel-size="164" font-italic="0" typewriter="0;2;1;0;0" alignment="2" font-weight="87" font-outline="0" box-width="1246.41" font-color="217,46,160,255">“听到相似就抄袭

&lt;/content>
 &lt;/item>
 &lt;startviewport rect="0,0,1920,1080"/>
 &lt;endviewport rect="0,0,1920,1080"/>
 &lt;background color="0,0,0,0"/>
&lt;/kdenlivetitle>
</property>
  <property name="kdenlive:file_hash">5f681323c80a1057bd601a80b10d9cdc</property>
  <property name="kdenlive:folderid">28</property>
  <property name="kdenlive:id">96</property>
  <property name="force_reload">0</property>
  <property name="meta.media.width">1920</property>
  <property name="meta.media.height">1080</property>
 </producer>
 <producer id="producer91" in="00:00:00.000" out="00:00:04.960">
  <property name="length">125</property>
  <property name="eof">pause</property>
  <property name="resource"/>
  <property name="progressive">1</property>
  <property name="aspect_ratio">1</property>
  <property name="seekable">1</property>
  <property name="mlt_service">kdenlivetitle</property>
  <property name="kdenlive:duration">125</property>
  <property name="kdenlive:clipname">可我不是这种程序员 程序...</property>
  <property name="xmldata">&lt;kdenlivetitle duration="125" LC_NUMERIC="C" width="1920" height="1080" out="124">
 &lt;item type="QGraphicsTextItem" z-index="0">
  &lt;position x="170" y="82">
   &lt;transform>1,0,0,0,1,0,0,0,1&lt;/transform>
  &lt;/position>
  &lt;content line-spacing="0" shadow="0;#64000000;3;3;3" font-underline="0" box-height="960" font-outline-color="255,255,255,255" font="文泉驿等宽微米黑" letter-spacing="0" font-pixel-size="164" font-italic="0" typewriter="1;7;3;0;0" alignment="2" font-weight="87" gradient="#ff613583;#ff204a87;70;100;90" font-outline="0" box-width="1640" font-color="0,0,0,255">可我不是这种程序员

程序员有很多种
有人更艺术有人更思考
我更爱表达&lt;/content>
 &lt;/item>
 &lt;startviewport rect="0,0,1920,1080"/>
 &lt;endviewport rect="0,0,1920,1080"/>
 &lt;background color="0,0,0,0"/>
&lt;/kdenlivetitle>
</property>
  <property name="kdenlive:folderid">28</property>
  <property name="kdenlive:id">97</property>
  <property name="kdenlive:file_hash">4723564630962fd57732ab0f6c8f7813</property>
  <property name="force_reload">0</property>
  <property name="meta.media.width">1920</property>
  <property name="meta.media.height">1080</property>
 </producer>
 <producer id="producer92" in="00:00:00.000" out="00:00:16.240">
  <property name="length">407</property>
  <property name="eof">pause</property>
  <property name="resource"/>
  <property name="progressive">1</property>
  <property name="aspect_ratio">1</property>
  <property name="seekable">1</property>
  <property name="mlt_service">kdenlivetitle</property>
  <property name="kdenlive:duration">125</property>
  <property name="kdenlive:clipname">“关于好奇五先生刚刚发布...</property>
  <property name="xmldata">&lt;kdenlivetitle duration="125" LC_NUMERIC="C" width="1920" height="1080" out="124">
 &lt;item type="QGraphicsTextItem" z-index="0">
  &lt;position x="22" y="9">
   &lt;transform>1,0,0,0,1,0,0,0,1&lt;/transform>
  &lt;/position>
  &lt;content line-spacing="0" shadow="0;#64000000;3;3;3" font-underline="0" box-height="975" font-outline-color="255,255,255,255" font="文泉驿等宽微米黑" letter-spacing="0" font-pixel-size="64" font-italic="0" typewriter="0;2;1;0;0" alignment="1" font-weight="50" font-outline="0" box-width="1920" font-color="255,255,255,255">“关于好奇五先生刚刚发布的视频，说我抄袭他的视频和淘宝店，
首先我要说的是视频方面，早期确实有模仿，
但近两年来，我几乎没有看过他的视频，风格相同你就说我是抄袭？
说我是营销号？
第二点，关于店铺的抄袭，这个确实我要道歉，
店铺现在不是我在运用，因为了解我的人也知道，
去年我受伤了，所以店铺现在交给朋友在运营，
可能平时把关不严，
确实有抄袭好奇五先生店铺图片和简介的现象，我也给朋友通知了，
必须马上整顿，否则终止合作，不开这个店也罢。
最后我想对好奇五先生说的是，
何必呢，动了你的蛋糕，就这样致人于死地，
我也实在是想不明白，为什么不能和睦相处呢？​”&lt;/content>
 &lt;/item>
 &lt;startviewport rect="0,0,1920,1080"/>
 &lt;endviewport rect="0,0,1920,1080"/>
 &lt;background color="0,0,0,0"/>
&lt;/kdenlivetitle>
</property>
  <property name="kdenlive:folderid">12</property>
  <property name="kdenlive:id">98</property>
  <property name="kdenlive:file_hash">e556b47a0c681a601b5176c152d3a03c</property>
  <property name="force_reload">0</property>
  <property name="meta.media.width">1920</property>
  <property name="meta.media.height">1080</property>
 </producer>
 <producer id="producer93" in="00:00:00.000" out="00:00:09.400">
  <property name="length">236</property>
  <property name="eof">pause</property>
  <property name="resource"/>
  <property name="progressive">1</property>
  <property name="aspect_ratio">1</property>
  <property name="seekable">1</property>
  <property name="mlt_service">kdenlivetitle</property>
  <property name="kdenlive:duration">125</property>
  <property name="kdenlive:clipname">???</property>
  <property name="xmldata">&lt;kdenlivetitle duration="125" LC_NUMERIC="C" width="1920" height="1080" out="124">
 &lt;item type="QGraphicsTextItem" z-index="1">
  &lt;position x="1493" y="880">
   &lt;transform>1,0,0,0,1,0,0,0,1&lt;/transform>
  &lt;/position>
  &lt;content shadow="0;#64000000;3;3;3" font-underline="0" box-height="64" font-outline-color="255,255,255,255" font="文泉驿等宽微米黑" letter-spacing="0" font-pixel-size="54" font-italic="0" typewriter="0;2;1;0;0" alignment="2" font-weight="50" font-outline="0" box-width="259.172" font-color="255,255,255,255">*一条.5元&lt;/content>
 &lt;/item>
 &lt;item type="QGraphicsTextItem" z-index="0">
  &lt;position x="762" y="386">
   &lt;transform>1,0,0,0,1,0,0,0,1&lt;/transform>
  &lt;/position>
  &lt;content shadow="0;#64000000;3;3;3" font-underline="0" box-height="256" font="文泉驿等宽微米黑" letter-spacing="0" font-pixel-size="217" font-italic="0" typewriter="0;2;1;0;0" alignment="2" font-weight="87" box-width="390.656" font-color="255,255,255,255">???&lt;/content>
 &lt;/item>
 &lt;startviewport rect="0,0,1920,1080"/>
 &lt;endviewport rect="0,0,1920,1080"/>
 &lt;background color="0,0,0,0"/>
&lt;/kdenlivetitle>
</property>
  <property name="kdenlive:folderid">12</property>
  <property name="kdenlive:id">99</property>
  <property name="force_reload">0</property>
  <property name="kdenlive:file_hash">11fc872e86039112285007811d2aba17</property>
  <property name="meta.media.width">1920</property>
  <property name="meta.media.height">1080</property>
 </producer>
 <producer id="producer94" in="00:00:00.000" out="00:00:04.960">
  <property name="length">125</property>
  <property name="eof">pause</property>
  <property name="resource"/>
  <property name="progressive">1</property>
  <property name="aspect_ratio">1</property>
  <property name="seekable">1</property>
  <property name="mlt_service">kdenlivetitle</property>
  <property name="kdenlive:duration">125</property>
  <property name="kdenlive:clipname">不学法 不懂规 吃大亏</property>
  <property name="xmldata">&lt;kdenlivetitle duration="125" LC_NUMERIC="C" width="1920" height="1080" out="124">
 &lt;item type="QGraphicsTextItem" z-index="0">
  &lt;position x="397" y="300">
   &lt;transform>1,0,0,0,1,0,0,0,1&lt;/transform>
  &lt;/position>
  &lt;content line-spacing="0" shadow="0;#64000000;3;3;3" font-underline="0" box-height="552" font-outline-color="255,255,255,255" font="文泉驿等宽微米黑" letter-spacing="0" font-pixel-size="157" font-italic="0" typewriter="1;20;3;0;0" alignment="2" font-weight="50" font-outline="0" box-width="471" font-color="255,255,255,255">不学法
不懂规
吃大亏&lt;/content>
 &lt;/item>
 &lt;startviewport rect="0,0,1920,1080"/>
 &lt;endviewport rect="0,0,1920,1080"/>
 &lt;background color="0,0,0,0"/>
&lt;/kdenlivetitle>
</property>
  <property name="kdenlive:folderid">28</property>
  <property name="kdenlive:id">100</property>
  <property name="kdenlive:file_hash">27e386e935301dcb4ab1f256f6a4389c</property>
  <property name="force_reload">0</property>
  <property name="meta.media.width">1920</property>
  <property name="meta.media.height">1080</property>
 </producer>
 <producer id="producer95" in="00:00:00.000" out="00:00:04.960">
  <property name="length">125</property>
  <property name="eof">pause</property>
  <property name="resource"/>
  <property name="progressive">1</property>
  <property name="aspect_ratio">1</property>
  <property name="seekable">1</property>
  <property name="mlt_service">kdenlivetitle</property>
  <property name="kdenlive:duration">125</property>
  <property name="kdenlive:clipname">计算机科学 SP信号处理...</property>
  <property name="xmldata">&lt;kdenlivetitle duration="125" LC_NUMERIC="C" width="1920" height="1080" out="124">
 &lt;item type="QGraphicsTextItem" z-index="0">
  &lt;position x="-28" y="-13">
   &lt;transform>1,0,0,0,1,0,0,0,1&lt;/transform>
  &lt;/position>
  &lt;content line-spacing="0" shadow="0;#64000000;3;3;3" font-underline="0" box-height="1246" font-outline-color="255,255,255,255" font="文泉驿等宽微米黑" letter-spacing="0" font-pixel-size="152" font-italic="0" typewriter="0;2;1;0;0" alignment="2" font-weight="50" font-outline="0" box-width="1945.63" font-color="255,255,255,255">计算机科学
SP信号处理,CV视觉,ML机学
OS,嵌入式,net传输层
的人都还在学习
为何有人觉得移植几个算法
做个图形小应用就成大佬了
&lt;/content>
 &lt;/item>
 &lt;startviewport rect="0,0,1920,1080"/>
 &lt;endviewport rect="0,0,1920,1080"/>
 &lt;background color="0,0,0,0"/>
&lt;/kdenlivetitle>
</property>
  <property name="kdenlive:folderid">28</property>
  <property name="kdenlive:id">101</property>
  <property name="kdenlive:file_hash">03f5376580c8b8031556e2a2aae9ad33</property>
  <property name="force_reload">0</property>
  <property name="meta.media.width">1920</property>
  <property name="meta.media.height">1080</property>
 </producer>
 <producer id="producer96" in="00:00:00.000" out="00:00:05.000">
  <property name="length">126</property>
  <property name="eof">pause</property>
  <property name="resource"/>
  <property name="progressive">1</property>
  <property name="aspect_ratio">1</property>
  <property name="seekable">1</property>
  <property name="mlt_service">kdenlivetitle</property>
  <property name="kdenlive:duration">125</property>
  <property name="kdenlive:clipname">你写出来 有底气告诉大家...</property>
  <property name="xmldata">&lt;kdenlivetitle duration="125" LC_NUMERIC="C" width="1920" height="1080" out="124">
 &lt;item type="QGraphicsTextItem" z-index="0">
  &lt;position x="232" y="229">
   &lt;transform>1,0,0,0,1,0,0,0,1&lt;/transform>
  &lt;/position>
  &lt;content shadow="0;#64000000;3;3;3" font-underline="0" box-height="712" font-outline-color="255,255,255,255" font="文泉驿等宽微米黑" letter-spacing="0" font-pixel-size="152" font-italic="0" typewriter="0;2;1;0;0" alignment="2" font-weight="50" font-outline="0" box-width="1520" font-color="255,255,255,255">你写出来
有底气告诉大家
算法名字以外的事情吗
？&lt;/content>
 &lt;/item>
 &lt;startviewport rect="0,0,1920,1080"/>
 &lt;endviewport rect="0,0,1920,1080"/>
 &lt;background color="0,0,0,0"/>
&lt;/kdenlivetitle>
</property>
  <property name="kdenlive:folderid">28</property>
  <property name="kdenlive:id">102</property>
  <property name="kdenlive:file_hash">38be29a8143b908ebfa04a4b330c930c</property>
  <property name="force_reload">0</property>
  <property name="meta.media.width">1920</property>
  <property name="meta.media.height">1080</property>
 </producer>
 <producer id="producer97" in="00:00:00.000" out="00:00:05.000">
  <property name="length">126</property>
  <property name="eof">pause</property>
  <property name="resource"/>
  <property name="progressive">1</property>
  <property name="aspect_ratio">1</property>
  <property name="seekable">1</property>
  <property name="mlt_service">kdenlivetitle</property>
  <property name="kdenlive:duration">125</property>
  <property name="kdenlive:clipname">我敢保证 只要我能拿出来...</property>
  <property name="xmldata">&lt;kdenlivetitle duration="125" LC_NUMERIC="C" width="1920" height="1080" out="124">
 &lt;item type="QGraphicsTextItem" z-index="0">
  &lt;position x="174" y="10">
   &lt;transform>1,0,0,0,1,0,0,0,1&lt;/transform>
  &lt;/position>
  &lt;content shadow="0;#64000000;3;3;3" font-underline="0" box-height="1068" font="文泉驿等宽微米黑" letter-spacing="0" font-pixel-size="152" font-italic="0" typewriter="0;2;1;0;0" alignment="2" font-weight="50" box-width="1672" font-color="255,255,255,255">我敢保证
只要我能拿出来的技术
我都清楚它的每一个步骤
为何是必要的
删掉一部分功能怎样影响
这思想无关任何编程语言&lt;/content>
 &lt;/item>
 &lt;startviewport rect="0,0,1920,1080"/>
 &lt;endviewport rect="0,0,1920,1080"/>
 &lt;background color="0,0,0,0"/>
&lt;/kdenlivetitle>
</property>
  <property name="kdenlive:folderid">28</property>
  <property name="kdenlive:id">103</property>
  <property name="force_reload">0</property>
  <property name="kdenlive:file_hash">31c171ebcfbd8ae947fc040493dc5ecf</property>
  <property name="meta.media.width">1920</property>
  <property name="meta.media.height">1080</property>
 </producer>
 <producer id="producer98" in="00:00:00.000" out="00:00:06.920">
  <property name="length">174</property>
  <property name="eof">pause</property>
  <property name="resource"/>
  <property name="progressive">1</property>
  <property name="aspect_ratio">1</property>
  <property name="seekable">1</property>
  <property name="mlt_service">kdenlivetitle</property>
  <property name="kdenlive:duration">125</property>
  <property name="kdenlive:clipname">每人都有自己眼里的优质 ...</property>
  <property name="xmldata">&lt;kdenlivetitle duration="125" LC_NUMERIC="C" width="1920" height="1080" out="124">
 &lt;item type="QGraphicsTextItem" z-index="0">
  &lt;position x="73" y="66">
   &lt;transform>1,0,0,0,1,0,0,0,1&lt;/transform>
  &lt;/position>
  &lt;content line-spacing="0" shadow="0;#64000000;3;3;3" font-underline="0" box-height="960" font-outline-color="255,255,255,255" font="文泉驿等宽微米黑" letter-spacing="0" font-pixel-size="164" font-italic="0" typewriter="0;2;1;0;0" alignment="2" font-weight="87" gradient="#ff613583;#ffe01b24;70;100;61" font-outline="0" box-width="1804" font-color="0,0,0,255">每人都有自己眼里的优质
可以有最共同的
但没有最「正确」的
更不该拉帮结派
捧一踩一&lt;/content>
 &lt;/item>
 &lt;startviewport rect="0,0,1920,1080"/>
 &lt;endviewport rect="0,0,1920,1080"/>
 &lt;background color="0,0,0,0"/>
&lt;/kdenlivetitle>
</property>
  <property name="kdenlive:folderid">28</property>
  <property name="kdenlive:id">104</property>
  <property name="force_reload">0</property>
  <property name="kdenlive:file_hash">5050a6eb3697adb3100dcc6898fc8b24</property>
  <property name="meta.media.width">1920</property>
  <property name="meta.media.height">1080</property>
 </producer>
 <producer id="producer99" in="00:00:00.000" out="00:00:05.000">
  <property name="length">126</property>
  <property name="eof">pause</property>
  <property name="resource"/>
  <property name="progressive">1</property>
  <property name="aspect_ratio">1</property>
  <property name="seekable">1</property>
  <property name="mlt_service">kdenlivetitle</property>
  <property name="kdenlive:duration">125</property>
  <property name="kdenlive:clipname">看到了吗，全GH 说只有...</property>
  <property name="xmldata">&lt;kdenlivetitle duration="125" LC_NUMERIC="C" width="1920" height="1080" out="124">
 &lt;item type="QGraphicsTextItem" z-index="0">
  &lt;position x="578" y="472">
   &lt;transform>1,0,0,0,1,0,0,0,1&lt;/transform>
  &lt;/position>
  &lt;content line-spacing="0" shadow="0;#64000000;3;3;3" font-underline="0" box-height="576" font="文泉驿等宽微米黑" letter-spacing="0" font-pixel-size="164" font-italic="0" typewriter="1;7;2;0;0" alignment="2" font-weight="87" box-width="1180.81" font-color="255,255,255,255">看到了吗，全GH
说只有我一个
不过分吧&lt;/content>
 &lt;/item>
 &lt;startviewport rect="0,0,1920,1080"/>
 &lt;endviewport rect="0,0,1920,1080"/>
 &lt;background color="0,0,0,0"/>
&lt;/kdenlivetitle>
</property>
  <property name="kdenlive:file_hash">dfcc247f88e26e57e29dc7fa56546adb</property>
  <property name="kdenlive:folderid">28</property>
  <property name="kdenlive:id">105</property>
  <property name="force_reload">0</property>
  <property name="meta.media.width">1920</property>
  <property name="meta.media.height">1080</property>
 </producer>
 <producer id="producer100" in="00:00:00.000" out="00:00:04.960">
  <property name="length">00:00:05.000</property>
  <property name="eof">pause</property>
  <property name="resource">/home/duangsuse/Downloads/github.com_duangsuse-valid-projects_extract-subtitles.png</property>
  <property name="ttl">25</property>
  <property name="aspect_ratio">1</property>
  <property name="progressive">1</property>
  <property name="seekable">1</property>
  <property name="meta.media.width">1342</property>
  <property name="meta.media.height">1667</property>
  <property name="mlt_service">qimage</property>
  <property name="kdenlive:clipname"/>
  <property name="kdenlive:duration">00:00:05.000</property>
  <property name="kdenlive:folderid">-1</property>
  <property name="kdenlive:id">106</property>
  <property name="kdenlive:file_size">329590</property>
  <property name="kdenlive:file_hash">f037373317e02d8a11c572fb25d9541f</property>
 </producer>
 <producer id="producer101" in="00:00:00.000" out="00:00:04.960">
  <property name="length">00:00:05.000</property>
  <property name="eof">pause</property>
  <property name="resource">/home/duangsuse/Downloads/github.com_apm1467_videocr.png</property>
  <property name="ttl">25</property>
  <property name="aspect_ratio">1</property>
  <property name="progressive">1</property>
  <property name="seekable">1</property>
  <property name="meta.media.width">1342</property>
  <property name="meta.media.height">3583</property>
  <property name="mlt_service">qimage</property>
  <property name="kdenlive:clipname"/>
  <property name="kdenlive:duration">00:00:05.000</property>
  <property name="kdenlive:folderid">-1</property>
  <property name="kdenlive:id">107</property>
  <property name="kdenlive:file_size">817288</property>
  <property name="kdenlive:file_hash">54b94e365a6f4d9246602a6888d23c74</property>
 </producer>
 <producer id="producer102" in="00:00:00.000" out="00:00:04.960">
  <property name="length">00:00:05.000</property>
  <property name="eof">pause</property>
  <property name="resource">/home/duangsuse/Downloads/github.com_shenbo_video-subtitles-ocr.png</property>
  <property name="ttl">25</property>
  <property name="aspect_ratio">1</property>
  <property name="progressive">1</property>
  <property name="seekable">1</property>
  <property name="meta.media.width">1342</property>
  <property name="meta.media.height">5138</property>
  <property name="mlt_service">qimage</property>
  <property name="kdenlive:clipname"/>
  <property name="kdenlive:duration">00:00:05.000</property>
  <property name="kdenlive:folderid">-1</property>
  <property name="kdenlive:id">108</property>
  <property name="kdenlive:file_size">889498</property>
  <property name="kdenlive:file_hash">6ea29aa83f8e4c893ee28e5bb9453c78</property>
 </producer>
 <producer id="producer103" in="00:00:00.000" out="00:00:07.480">
  <property name="length">188</property>
  <property name="eof">pause</property>
  <property name="resource"/>
  <property name="progressive">1</property>
  <property name="aspect_ratio">1</property>
  <property name="seekable">1</property>
  <property name="mlt_service">kdenlivetitle</property>
  <property name="kdenlive:duration">125</property>
  <property name="kdenlive:clipname">网页元素 就是一个标签名...</property>
  <property name="xmldata">&lt;kdenlivetitle duration="125" LC_NUMERIC="C" width="1920" height="1080" out="124">
 &lt;item type="QGraphicsTextItem" z-index="0">
  &lt;position x="12" y="31">
   &lt;transform>1,0,0,0,1,0,0,0,1&lt;/transform>
  &lt;/position>
  &lt;content line-spacing="0" shadow="0;#64000000;3;3;3" font-underline="0" box-height="1127" font="文泉驿等宽微米黑" letter-spacing="0" font-pixel-size="137" font-italic="0" typewriter="0;2;1;0;0" alignment="1" font-weight="50" box-width="1918.05" font-color="255,255,255,255">网页元素
就是一个标签名里有几个内容
这内容是文本或另一元素

都有纵横位置,宽高,内容/边框
的内外边距(padding,margin
&lt;/content>
 &lt;/item>
 &lt;startviewport rect="0,0,1920,1080"/>
 &lt;endviewport rect="0,0,1920,1080"/>
 &lt;background color="0,0,0,0"/>
&lt;/kdenlivetitle>
</property>
  <property name="kdenlive:folderid">28</property>
  <property name="kdenlive:id">109</property>
  <property name="kdenlive:file_hash">a13ad7d860b04a480694f3c8abea810e</property>
  <property name="force_reload">0</property>
  <property name="meta.media.width">1920</property>
  <property name="meta.media.height">1080</property>
 </producer>
 <producer id="producer104" in="00:00:00.000" out="00:00:08.960">
  <property name="length">225</property>
  <property name="eof">pause</property>
  <property name="resource"/>
  <property name="progressive">1</property>
  <property name="aspect_ratio">1</property>
  <property name="seekable">1</property>
  <property name="mlt_service">kdenlivetitle</property>
  <property name="kdenlive:duration">125</property>
  <property name="kdenlive:clipname">框在2D设计常用， 因此...</property>
  <property name="xmldata">&lt;kdenlivetitle duration="125" LC_NUMERIC="C" width="1920" height="1080" out="124">
 &lt;item type="QGraphicsTextItem" z-index="0">
  &lt;position x="40" y="5">
   &lt;transform>1,0,0,0,1,0,0,0,1&lt;/transform>
  &lt;/position>
  &lt;content line-spacing="0" shadow="0;#64000000;3;3;3" font-underline="0" box-height="1078" font-outline-color="255,255,255,255" font="文泉驿等宽微米黑" letter-spacing="0" font-pixel-size="131" font-italic="0" typewriter="0;2;1;0;0" alignment="2" font-weight="50" font-outline="0" box-width="1834" font-color="255,255,255,255">框在2D设计常用，
因此元素亦称盒子。
红框以 border:5px red
宽色(按像素计) 指定

若内容红背景，在内部加个盒子
外部透明背景&lt;/content>
 &lt;/item>
 &lt;startviewport rect="0,0,1920,1080"/>
 &lt;endviewport rect="0,0,1920,1080"/>
 &lt;background color="0,0,0,0"/>
&lt;/kdenlivetitle>
</property>
  <property name="kdenlive:file_hash">6338d74a470d1932bfb548a1094f4e5c</property>
  <property name="kdenlive:folderid">28</property>
  <property name="kdenlive:id">110</property>
  <property name="force_reload">0</property>
  <property name="meta.media.width">1920</property>
  <property name="meta.media.height">1080</property>
 </producer>
 <producer id="producer105" in="00:00:00.000" out="00:00:04.960">
  <property name="length">125</property>
  <property name="eof">pause</property>
  <property name="resource"/>
  <property name="progressive">1</property>
  <property name="aspect_ratio">1</property>
  <property name="seekable">1</property>
  <property name="mlt_service">kdenlivetitle</property>
  <property name="kdenlive:duration">125</property>
  <property name="kdenlive:clipname">*=些许, |=或 CS...</property>
  <property name="xmldata">&lt;kdenlivetitle duration="125" LC_NUMERIC="C" width="1920" height="1080" out="124">
 &lt;item type="QGraphicsTextItem" z-index="0">
  &lt;position x="28" y="12">
   &lt;transform>1,0,0,0,1,0,0,0,1&lt;/transform>
  &lt;/position>
  &lt;content line-spacing="0" shadow="0;#64000000;3;3;3" font-underline="0" box-height="1164" font-outline-color="255,255,255,255" font="文泉驿等宽微米黑" letter-spacing="0" font-pixel-size="83" font-italic="0" typewriter="0;2;1;0;0" alignment="1" font-weight="50" font-outline="0" box-width="1875.75" font-color="255,255,255,255">*=些许, |=或
CSS文件 规则*

规则 选择器{ 切分以';' 属性* } |@规则
属性 名:值 ;值 小数+单位|括号调用calc attr
名 字 (字|数字)*

单位 px|pt|cm|in|pc=12pt|deg|相对单位
相对单位 %|em=2pt|rem=root 2pt|ch|vw
选择器 标签|.类|*=全|#ID|[H属性]
并列以' >,' 连缀以 :not(), nth(1),:odd,
&lt;/content>
 &lt;/item>
 &lt;startviewport rect="0,0,1920,1080"/>
 &lt;endviewport rect="0,0,1920,1080"/>
 &lt;background color="0,0,0,0"/>
&lt;/kdenlivetitle>
</property>
  <property name="kdenlive:folderid">-1</property>
  <property name="kdenlive:id">111</property>
  <property name="kdenlive:file_hash">16fb2bae51e73b550c8e733513d22f2c</property>
  <property name="force_reload">0</property>
  <property name="meta.media.width">1920</property>
  <property name="meta.media.height">1080</property>
 </producer>
 <producer id="producer106" in="00:00:00.000" out="00:00:04.960">
  <property name="length">125</property>
  <property name="eof">pause</property>
  <property name="resource"/>
  <property name="progressive">1</property>
  <property name="aspect_ratio">1</property>
  <property name="seekable">1</property>
  <property name="mlt_service">kdenlivetitle</property>
  <property name="kdenlive:duration">125</property>
  <property name="kdenlive:clipname">Gitee 是国内的gi...</property>
  <property name="xmldata">&lt;kdenlivetitle duration="125" LC_NUMERIC="C" width="1920" height="1080" out="124">
 &lt;item type="QGraphicsTextItem" z-index="0">
  &lt;position x="21" y="2">
   &lt;transform>1,0,0,0,1,0,0,0,1&lt;/transform>
  &lt;/position>
  &lt;content line-spacing="0" shadow="0;#64000000;3;3;3" font-underline="0" box-height="1040" font-outline-color="255,255,255,255" font="文泉驿等宽微米黑" letter-spacing="0" font-pixel-size="89" font-italic="0" typewriter="0;2;1;0;0" alignment="2" font-weight="50" font-outline="0" box-width="1869.06" font-color="255,255,255,255">Gitee 是国内的git代码库托管站
这样既保证不易丢与安全、同步
又能检查版本间作的编辑

Jekyll 是 Ruby语言 的一款模板网页生成器
它支持固定链接、分页,眉尾复用，可以用类似
{%for name in people%}
&amp;lt;li>{{name|itself}}&amp;lt;/li>{%endfor%}
的语法和 people 样列表数据生成(渲染)元素
受大量一键式支持，非常适合轻快的博客站&lt;/content>
 &lt;/item>
 &lt;startviewport rect="0,0,1920,1080"/>
 &lt;endviewport rect="0,0,1920,1080"/>
 &lt;background color="0,0,0,0"/>
&lt;/kdenlivetitle>
</property>
  <property name="kdenlive:folderid">-1</property>
  <property name="kdenlive:id">112</property>
  <property name="kdenlive:file_hash">fc356f5c1d8c8d2c9dc5adf1fae4051f</property>
  <property name="force_reload">0</property>
  <property name="meta.media.width">1920</property>
  <property name="meta.media.height">1080</property>
 </producer>
 <producer id="producer107" in="00:00:00.000" out="00:00:04.960">
  <property name="length">125</property>
  <property name="eof">pause</property>
  <property name="resource"/>
  <property name="progressive">1</property>
  <property name="aspect_ratio">1</property>
  <property name="seekable">1</property>
  <property name="mlt_service">kdenlivetitle</property>
  <property name="kdenlive:duration">125</property>
  <property name="kdenlive:clipname">CKEditor.com...</property>
  <property name="xmldata">&lt;kdenlivetitle duration="125" LC_NUMERIC="C" width="1920" height="1080" out="124">
 &lt;item type="QGraphicsTextItem" z-index="1">
  &lt;position x="285" y="56">
   &lt;transform>1,0,0,0,1,0,0,0,1&lt;/transform>
  &lt;/position>
  &lt;content line-spacing="0" shadow="0;#64000000;3;3;3" font-underline="0" box-height="254" font="文泉驿等宽微米黑" letter-spacing="0" font-pixel-size="108" font-italic="0" typewriter="0;2;1;0;0" alignment="2" font-weight="50" gradient="#ff0935b7;#ffe01b24;23;100;58" box-width="1339.19" font-color="0,0,0,255">很好展现了HTML的排版结构
便于测试和选用&lt;/content>
 &lt;/item>
 &lt;item type="QGraphicsTextItem" z-index="0">
  &lt;position x="39" y="319">
   &lt;transform>1,0,0,0,1,0,0,0,1&lt;/transform>
  &lt;/position>
  &lt;content line-spacing="0" shadow="0;#64000000;3;3;3" font-underline="0" box-height="635" font="文泉驿等宽微米黑" letter-spacing="0" font-pixel-size="108" font-italic="0" typewriter="0;2;1;0;0" alignment="2" font-weight="50" box-width="1814.31" font-color="255,255,255,255">CKEditor.com/ckeditor-5/demo

Markdown.com.cn/editor

pandao.github.io/editor.md&lt;/content>
 &lt;/item>
 &lt;startviewport rect="0,0,1920,1080"/>
 &lt;endviewport rect="0,0,1920,1080"/>
 &lt;background color="0,0,0,0"/>
&lt;/kdenlivetitle>
</property>
  <property name="kdenlive:folderid">-1</property>
  <property name="kdenlive:id">113</property>
  <property name="kdenlive:file_hash">906ec6ddb9f396dc157b65011702b102</property>
  <property name="force_reload">0</property>
  <property name="meta.media.width">1920</property>
  <property name="meta.media.height">1080</property>
 </producer>
 <producer id="producer108" in="00:00:00.000" out="00:00:10.480">
  <property name="length">263</property>
  <property name="eof">pause</property>
  <property name="resource"/>
  <property name="progressive">1</property>
  <property name="aspect_ratio">1</property>
  <property name="seekable">1</property>
  <property name="mlt_service">kdenlivetitle</property>
  <property name="kdenlive:duration">125</property>
  <property name="kdenlive:clipname">做自己的！ 总有人喜欢 ...</property>
  <property name="xmldata">&lt;kdenlivetitle duration="125" LC_NUMERIC="C" width="1920" height="1080" out="124">
 &lt;item type="QGraphicsTextItem" z-index="0">
  &lt;position x="1057" y="38">
   &lt;transform>1,0,0,0,1,0,0,0,1&lt;/transform>
  &lt;/position>
  &lt;content line-spacing="0" shadow="0;#64000000;3;3;3" font-underline="0" box-height="889" font="文泉驿等宽微米黑" letter-spacing="0" font-pixel-size="108" font-italic="0" typewriter="0;2;1;0;0" alignment="2" font-weight="50" box-width="756" font-color="255,255,255,255">做自己的！
总有人喜欢
总有人讨厌

恶评又怎样？
被侮辱又怎样？
总有支持你的人&lt;/content>
 &lt;/item>
 &lt;startviewport rect="0,0,1920,1080"/>
 &lt;endviewport rect="0,0,1920,1080"/>
 &lt;background color="0,0,0,0"/>
&lt;/kdenlivetitle>
</property>
  <property name="kdenlive:file_hash">8732e3c919760c1a28ccbecf33aa3387</property>
  <property name="kdenlive:folderid">28</property>
  <property name="kdenlive:id">114</property>
  <property name="force_reload">0</property>
  <property name="meta.media.width">1920</property>
  <property name="meta.media.height">1080</property>
 </producer>
 <producer id="producer109" in="00:00:00.000" out="00:00:04.960">
  <property name="length">00:00:05.000</property>
  <property name="eof">pause</property>
  <property name="resource">/home/duangsuse/Documents/咱动苏/排序1/VID_20210902_072750-f000100.png</property>
  <property name="ttl">25</property>
  <property name="aspect_ratio">1</property>
  <property name="progressive">1</property>
  <property name="seekable">1</property>
  <property name="meta.media.width">1280</property>
  <property name="meta.media.height">720</property>
  <property name="mlt_service">qimage</property>
  <property name="kdenlive:clipname"/>
  <property name="kdenlive:duration">00:00:05.000</property>
  <property name="kdenlive:folderid">-1</property>
  <property name="kdenlive:id">115</property>
  <property name="kdenlive:file_size">733335</property>
  <property name="kdenlive:file_hash">ab686d344c602cfc54fb4bc62c35a9bd</property>
 </producer>
 <producer id="producer110" in="00:00:00.000" out="00:00:04.960">
  <property name="length">125</property>
  <property name="eof">pause</property>
  <property name="resource"/>
  <property name="progressive">1</property>
  <property name="aspect_ratio">1</property>
  <property name="seekable">1</property>
  <property name="mlt_service">kdenlivetitle</property>
  <property name="kdenlive:duration">125</property>
  <property name="kdenlive:clipname">Feel FREE to...</property>
  <property name="xmldata">&lt;kdenlivetitle duration="125" LC_NUMERIC="C" width="1920" height="1080" out="124">
 &lt;item type="QGraphicsTextItem" z-index="0">
  &lt;position x="313" y="208">
   &lt;transform>1,0,0,0,1,0,0,0,1&lt;/transform>
  &lt;/position>
  &lt;content shadow="0;#64000000;3;3;3" font-underline="0" box-height="508" font-outline-color="255,255,255,255" font="文泉驿等宽微米黑" letter-spacing="0" font-pixel-size="108" font-italic="0" typewriter="0;2;1;0;0" alignment="2" font-weight="50" font-outline="0" box-width="259.188" font-color="255,255,255,255">Feel
FREE
to 
emmm&lt;/content>
 &lt;/item>
 &lt;startviewport rect="0,0,1920,1080"/>
 &lt;endviewport rect="0,0,1920,1080"/>
 &lt;background color="0,0,0,0"/>
&lt;/kdenlivetitle>
</property>
  <property name="kdenlive:folderid">28</property>
  <property name="kdenlive:id">116</property>
  <property name="kdenlive:file_hash">15a0880c3ab28f08462c75e3041356ff</property>
  <property name="force_reload">0</property>
  <property name="meta.media.width">1920</property>
  <property name="meta.media.height">1080</property>
 </producer>
 <playlist id="main_bin">
  <property name="kdenlive:folder.-1.12">素</property>
  <property name="kdenlive:folder.-1.25">杂</property>
  <property name="kdenlive:folder.-1.27">美</property>
  <property name="kdenlive:folder.12.28">rea</property>
  <property name="kdenlive:docproperties.activeTrack">2</property>
  <property name="kdenlive:docproperties.audioChannels">2</property>
  <property name="kdenlive:docproperties.audioTarget">-1</property>
  <property name="kdenlive:docproperties.dirtypreviewchunks">0,25,50,75</property>
  <property name="kdenlive:docproperties.disablepreview">0</property>
  <property name="kdenlive:docproperties.documentid">1630571404622</property>
  <property name="kdenlive:docproperties.enableTimelineZone">0</property>
  <property name="kdenlive:docproperties.enableexternalproxy">0</property>
  <property name="kdenlive:docproperties.enableproxy">0</property>
  <property name="kdenlive:docproperties.externalproxyparams">../Sub;;S03.MP4;../Clip;;.MXF</property>
  <property name="kdenlive:docproperties.generateimageproxy">0</property>
  <property name="kdenlive:docproperties.generateproxy">0</property>
  <property name="kdenlive:docproperties.groups">[
    {
        "children": [
            {
                "data": "2:0",
                "leaf": "clip",
                "type": "Leaf"
            },
            {
                "data": "1:0",
                "leaf": "clip",
                "type": "Leaf"
            }
        ],
        "type": "AVSplit"
    },
    {
        "children": [
            {
                "data": "3:6114",
                "leaf": "clip",
                "type": "Leaf"
            },
            {
                "data": "0:6114",
                "leaf": "clip",
                "type": "Leaf"
            }
        ],
        "type": "AVSplit"
    }
]
</property>
  <property name="kdenlive:docproperties.kdenliveversion">21.08.0</property>
  <property name="kdenlive:docproperties.position">27382</property>
  <property name="kdenlive:docproperties.previewchunks"/>
  <property name="kdenlive:docproperties.previewextension">mov</property>
  <property name="kdenlive:docproperties.previewparameters">r=25 s=1920x1080 vb=36M threads=0 vcodec=dnxhd progressive=1</property>
  <property name="kdenlive:docproperties.profile">atsc_1080p_25</property>
  <property name="kdenlive:docproperties.proxyextension"/>
  <property name="kdenlive:docproperties.proxyimageminsize">2000</property>
  <property name="kdenlive:docproperties.proxyimagesize">800</property>
  <property name="kdenlive:docproperties.proxyminsize">1000</property>
  <property name="kdenlive:docproperties.proxyparams"/>
  <property name="kdenlive:docproperties.proxyresize">640</property>
  <property name="kdenlive:docproperties.scrollPos">86818</property>
  <property name="kdenlive:docproperties.seekOffset">30000</property>
  <property name="kdenlive:docproperties.version">1.01</property>
  <property name="kdenlive:docproperties.verticalzoom">1</property>
  <property name="kdenlive:docproperties.videoTarget">2</property>
  <property name="kdenlive:docproperties.zonein">0</property>
  <property name="kdenlive:docproperties.zoneout">75</property>
  <property name="kdenlive:docproperties.zoom">4</property>
  <property name="kdenlive:expandedFolders">12;25;27;28</property>
  <property name="kdenlive:documentnotes"/>
  <property name="xml_retain">1</property>
  <entry producer="producer0" in="00:00:00.000" out="00:00:04.560"/>
  <entry producer="producer1" in="00:00:00.000" out="00:18:10.640"/>
  <entry producer="producer2" in="00:00:00.000" out="00:00:04.960"/>
  <entry producer="producer3" in="00:00:00.000" out="00:00:04.960"/>
  <entry producer="producer4" in="00:00:00.000" out="00:00:05.200"/>
  <entry producer="producer5" in="00:00:00.000" out="00:00:04.960"/>
  <entry producer="producer6" in="00:00:00.000" out="00:00:04.960"/>
  <entry producer="producer7" in="00:00:00.000" out="00:00:12.320"/>
  <entry producer="producer8" in="00:00:00.000" out="00:00:04.960"/>
  <entry producer="producer9" in="00:00:00.000" out="00:00:04.960"/>
  <entry producer="producer10" in="00:00:00.000" out="00:00:08.960"/>
  <entry producer="producer11" in="00:00:00.000" out="00:00:04.960"/>
  <entry producer="producer12" in="00:00:00.000" out="00:00:04.960"/>
  <entry producer="producer13" in="00:00:00.000" out="00:00:09.400"/>
  <entry producer="producer14" in="00:00:00.000" out="00:00:05.120"/>
  <entry producer="producer15" in="00:00:00.000" out="00:00:05.080"/>
  <entry producer="producer16" in="00:00:00.000" out="00:00:06.440"/>
  <entry producer="producer17" in="00:00:00.000" out="00:36:53.880"/>
  <entry producer="producer18" in="00:00:00.000" out="00:00:04.960"/>
  <entry producer="producer19" in="00:00:00.000" out="00:00:04.960"/>
  <entry producer="producer20" in="00:00:00.000" out="00:00:04.960"/>
  <entry producer="producer21" in="00:00:00.000" out="00:00:06.560"/>
  <entry producer="producer22" in="00:00:00.000" out="00:00:04.960"/>
  <entry producer="producer23" in="00:00:00.000" out="00:00:05.200"/>
  <entry producer="producer24" in="00:00:00.000" out="00:00:05.920"/>
  <entry producer="producer25" in="00:00:00.000" out="00:00:04.960"/>
  <entry producer="producer26" in="00:00:00.000" out="00:00:04.960"/>
  <entry producer="producer27" in="00:00:00.000" out="00:00:04.960"/>
  <entry producer="producer28" in="00:00:00.000" out="00:00:05.000"/>
  <entry producer="producer29" in="00:00:00.000" out="00:00:04.960"/>
  <entry producer="producer30" in="00:00:00.000" out="00:00:04.960"/>
  <entry producer="producer31" in="00:00:00.000" out="00:00:11.560"/>
  <entry producer="producer32" in="00:00:00.000" out="00:00:04.960"/>
  <entry producer="producer33" in="00:00:00.000" out="00:00:04.960"/>
  <entry producer="producer34" in="00:00:00.000" out="00:00:04.960"/>
  <entry producer="producer35" in="00:00:00.000" out="00:00:04.960"/>
  <entry producer="producer36" in="00:00:00.000" out="00:00:04.960"/>
  <entry producer="producer37" in="00:00:00.000" out="00:00:05.480"/>
  <entry producer="producer38" in="00:00:00.000" out="00:00:04.960"/>
  <entry producer="producer39" in="00:00:00.000" out="00:00:04.960"/>
  <entry producer="producer40" in="00:00:00.000" out="00:00:04.960"/>
  <entry producer="producer41" in="00:00:00.000" out="00:00:04.960"/>
  <entry producer="producer42" in="00:00:00.000" out="00:00:10.080"/>
  <entry producer="producer43" in="00:00:00.000" out="00:00:04.960"/>
  <entry producer="producer44" in="00:00:00.000" out="00:00:19.720"/>
  <entry producer="producer45" in="00:00:00.000" out="00:00:08.360"/>
  <entry producer="producer46" in="00:00:00.000" out="00:00:04.960"/>
  <entry producer="producer47" in="00:00:00.000" out="00:00:04.960"/>
  <entry producer="producer48" in="00:00:00.000" out="00:00:06.200"/>
  <entry producer="producer49" in="00:00:00.000" out="00:00:05.240"/>
  <entry producer="producer50" in="00:00:00.000" out="00:00:05.240"/>
  <entry producer="producer51" in="00:00:00.000" out="00:00:04.960"/>
  <entry producer="producer52" in="00:00:00.000" out="00:00:04.960"/>
  <entry producer="producer53" in="00:00:00.000" out="00:00:04.960"/>
  <entry producer="producer54" in="00:00:00.000" out="00:00:04.960"/>
  <entry producer="producer55" in="00:00:00.000" out="00:00:04.960"/>
  <entry producer="producer56" in="00:00:00.000" out="00:00:05.280"/>
  <entry producer="producer57" in="00:00:00.000" out="00:00:04.960"/>
  <entry producer="producer58" in="00:00:00.000" out="00:00:06.840"/>
  <entry producer="producer59" in="00:00:00.000" out="00:00:04.960"/>
  <entry producer="producer60" in="00:00:00.000" out="00:00:05.960"/>
  <entry producer="producer61" in="00:00:00.000" out="00:00:05.960"/>
  <entry producer="producer62" in="00:00:00.000" out="00:00:04.960"/>
  <entry producer="producer63" in="00:00:00.000" out="00:00:04.960"/>
  <entry producer="producer64" in="00:00:00.000" out="00:00:04.960"/>
  <entry producer="producer65" in="00:00:00.000" out="00:00:04.960"/>
  <entry producer="producer66" in="00:00:00.000" out="00:00:04.960"/>
  <entry producer="producer67" in="00:00:00.000" out="00:00:04.960"/>
  <entry producer="producer68" in="00:00:00.000" out="00:00:04.960"/>
  <entry producer="producer69" in="00:00:00.000" out="00:00:04.960"/>
  <entry producer="producer70" in="00:00:00.000" out="00:00:04.960"/>
  <entry producer="producer71" in="00:00:00.000" out="00:00:04.960"/>
  <entry producer="producer72" in="00:00:00.000" out="00:00:04.960"/>
  <entry producer="producer73" in="00:00:00.000" out="00:00:04.960"/>
  <entry producer="producer74" in="00:00:00.000" out="00:00:04.960"/>
  <entry producer="producer75" in="00:00:00.000" out="00:00:04.960"/>
  <entry producer="producer76" in="00:00:00.000" out="00:00:04.960"/>
  <entry producer="producer77" in="00:00:00.000" out="00:00:07.480"/>
  <entry producer="producer78" in="00:00:00.000" out="00:00:04.960"/>
  <entry producer="producer79" in="00:00:00.000" out="00:00:04.960"/>
  <entry producer="producer80" in="00:00:00.000" out="00:00:05.440"/>
  <entry producer="producer81" in="00:00:00.000" out="00:00:04.960"/>
  <entry producer="producer82" in="00:00:00.000" out="00:00:07.000"/>
  <entry producer="producer83" in="00:00:00.000" out="00:00:06.920"/>
  <entry producer="producer84" in="00:00:00.000" out="00:00:09.640"/>
  <entry producer="producer85" in="00:00:00.000" out="00:00:04.960"/>
  <entry producer="producer86" in="00:00:00.000" out="00:00:58.000"/>
  <entry producer="producer87" in="00:00:00.000" out="00:00:04.960"/>
  <entry producer="producer88" in="00:00:00.000" out="00:00:05.560"/>
  <entry producer="producer89" in="00:00:00.000" out="00:00:04.960"/>
  <entry producer="producer90" in="00:00:00.000" out="00:00:04.960"/>
  <entry producer="producer91" in="00:00:00.000" out="00:00:04.960"/>
  <entry producer="producer92" in="00:00:00.000" out="00:00:16.240"/>
  <entry producer="producer93" in="00:00:00.000" out="00:00:09.400"/>
  <entry producer="producer94" in="00:00:00.000" out="00:00:04.960"/>
  <entry producer="producer95" in="00:00:00.000" out="00:00:04.960"/>
  <entry producer="producer96" in="00:00:00.000" out="00:00:05.000"/>
  <entry producer="producer97" in="00:00:00.000" out="00:00:05.000"/>
  <entry producer="producer98" in="00:00:00.000" out="00:00:06.920"/>
  <entry producer="producer99" in="00:00:00.000" out="00:00:05.000"/>
  <entry producer="producer100" in="00:00:00.000" out="00:00:04.960"/>
  <entry producer="producer101" in="00:00:00.000" out="00:00:04.960"/>
  <entry producer="producer102" in="00:00:00.000" out="00:00:04.960"/>
  <entry producer="producer103" in="00:00:00.000" out="00:00:07.480"/>
  <entry producer="producer104" in="00:00:00.000" out="00:00:08.960"/>
  <entry producer="producer105" in="00:00:00.000" out="00:00:04.960"/>
  <entry producer="producer106" in="00:00:00.000" out="00:00:04.960"/>
  <entry producer="producer107" in="00:00:00.000" out="00:00:04.960"/>
  <entry producer="producer108" in="00:00:00.000" out="00:00:10.480"/>
  <entry producer="producer109" in="00:00:00.000" out="00:00:04.960"/>
  <entry producer="producer110" in="00:00:00.000" out="00:00:04.960"/>
 </playlist>
 <producer id="black_track" in="00:00:00.000" out="00:38:15.280">
  <property name="length">2147483647</property>
  <property name="eof">continue</property>
  <property name="resource">black</property>
  <property name="aspect_ratio">1</property>
  <property name="mlt_service">color</property>
  <property name="mlt_image_format">rgb24a</property>
  <property name="set.test_audio">0</property>
 </producer>
 <producer id="producer111" in="00:00:00.000" out="00:00:10.880">
  <property name="length">273</property>
  <property name="eof">pause</property>
  <property name="resource">5.315018:/home/duangsuse/Documents/咱动苏/排序1/快排.mkv</property>
  <property name="aspect_ratio">1</property>
  <property name="meta.media.nb_streams">2</property>
  <property name="meta.media.0.stream.type">video</property>
  <property name="meta.media.0.stream.frame_rate">30</property>
  <property name="meta.media.0.stream.sample_aspect_ratio">0</property>
  <property name="meta.media.0.codec.width">620</property>
  <property name="meta.media.0.codec.height">268</property>
  <property name="meta.media.0.codec.rotate">0</property>
  <property name="meta.media.0.codec.frame_rate">30</property>
  <property name="meta.media.0.codec.pix_fmt">yuv420p</property>
  <property name="meta.media.0.codec.sample_aspect_ratio">1</property>
  <property name="meta.media.0.codec.colorspace">709</property>
  <property name="meta.media.0.codec.color_trc">1</property>
  <property name="meta.media.0.codec.name">h264</property>
  <property name="meta.media.0.codec.long_name">H.264 / AVC / MPEG-4 AVC / MPEG-4 part 10</property>
  <property name="meta.media.0.codec.bit_rate">0</property>
  <property name="meta.attr.0.stream.DURATION.markup">00:00:58.033000000</property>
  <property name="meta.media.1.stream.type">audio</property>
  <property name="meta.media.1.codec.sample_fmt">fltp</property>
  <property name="meta.media.1.codec.sample_rate">48000</property>
  <property name="meta.media.1.codec.channels">2</property>
  <property name="meta.media.1.codec.name">aac</property>
  <property name="meta.media.1.codec.long_name">AAC (Advanced Audio Coding)</property>
  <property name="meta.media.1.codec.bit_rate">0</property>
  <property name="meta.attr.1.stream.title.markup">simple_aac_recording</property>
  <property name="meta.attr.1.stream.DURATION.markup">00:00:57.899000000</property>
  <property name="meta.attr.ENCODER.markup">Lavf58.76.100</property>
  <property name="seekable">1</property>
  <property name="meta.media.sample_aspect_num">1</property>
  <property name="meta.media.sample_aspect_den">1</property>
  <property name="audio_index">1</property>
  <property name="video_index">0</property>
  <property name="mute_on_pause">1</property>
  <property name="warp_speed">5.31502</property>
  <property name="warp_resource">/home/duangsuse/Documents/咱动苏/排序1/快排.mkv</property>
  <property name="mlt_service">timewarp</property>
  <property name="set.test_audio">0</property>
  <property name="set.test_image">1</property>
  <property name="kdenlive:id">92</property>
  <property name="warp_pitch">0</property>
  <property name="meta.media.frame_rate_num">30</property>
  <property name="meta.media.frame_rate_den">1</property>
  <property name="meta.media.colorspace">709</property>
  <property name="meta.media.color_trc">1</property>
  <property name="meta.media.has_b_frames">2</property>
  <property name="meta.media.width">620</property>
  <property name="meta.media.height">268</property>
  <property name="meta.media.color_range">mpeg</property>
 </producer>
 <producer id="producer112" in="00:00:00.000" out="00:18:10.640">
  <property name="length">27267</property>
  <property name="eof">pause</property>
  <property name="resource">ls/aud.ogg</property>
  <property name="audio_index">0</property>
  <property name="video_index">-1</property>
  <property name="mute_on_pause">0</property>
  <property name="mlt_service">avformat-novalidate</property>
  <property name="meta.media.nb_streams">1</property>
  <property name="meta.media.0.stream.type">audio</property>
  <property name="meta.media.0.codec.sample_fmt">fltp</property>
  <property name="meta.media.0.codec.sample_rate">48000</property>
  <property name="meta.media.0.codec.channels">2</property>
  <property name="meta.media.0.codec.name">vorbis</property>
  <property name="meta.media.0.codec.long_name">Vorbis</property>
  <property name="meta.media.0.codec.bit_rate">499821</property>
  <property name="seekable">1</property>
  <property name="kdenlive:clipname"/>
  <property name="kdenlive:folderid">-1</property>
  <property name="kdenlive:id">3</property>
  <property name="kdenlive:file_size">60415870</property>
  <property name="kdenlive:file_hash">345e8e94e642288e60277df802c7a672</property>
  <property name="kdenlive:audio_max0">229</property>
  <property name="xml">was here</property>
  <property name="set.test_audio">0</property>
  <property name="set.test_image">1</property>
 </producer>
 <playlist id="playlist0">
  <property name="kdenlive:audio_track">1</property>
  <blank length="00:04:04.560"/>
  <entry producer="producer111" in="00:00:00.000" out="00:00:10.880">
   <property name="kdenlive:id">92</property>
   <property name="kdenlive:activeeffect">2</property>
   <filter id="filter1">
    <property name="window">75</property>
    <property name="max_gain">20dB</property>
    <property name="mlt_service">volume</property>
    <property name="kdenlive_id">mute</property>
    <property name="gain">0</property>
   </filter>
   <filter id="filter2">
    <property name="window">75</property>
    <property name="max_gain">20dB</property>
    <property name="mlt_service">volume</property>
    <property name="kdenlive_id">mute</property>
    <property name="gain">0</property>
   </filter>
   <filter id="filter3">
    <property name="window">75</property>
    <property name="max_gain">20dB</property>
    <property name="mlt_service">volume</property>
    <property name="kdenlive_id">mute</property>
    <property name="gain">0</property>
   </filter>
  </entry>
  <blank length="00:11:38.760"/>
  <entry producer="producer112" in="00:15:49.640" out="00:18:10.640">
   <property name="kdenlive:id">3</property>
  </entry>
 </playlist>
 <playlist id="playlist1">
  <property name="kdenlive:audio_track">1</property>
 </playlist>
 <tractor id="tractor0" in="00:00:00.000" out="00:18:15.240">
  <property name="kdenlive:audio_track">1</property>
  <property name="kdenlive:trackheight">69</property>
  <property name="kdenlive:timeline_active">1</property>
  <property name="kdenlive:collapsed">0</property>
  <property name="kdenlive:thumbs_format"/>
  <property name="kdenlive:audio_rec"/>
  <track hide="video" producer="playlist0"/>
  <track hide="video" producer="playlist1"/>
  <filter id="filter4">
   <property name="window">75</property>
   <property name="max_gain">20dB</property>
   <property name="level">-5.29819</property>
   <property name="mlt_service">volume</property>
   <property name="internal_added">237</property>
   <property name="disable">0</property>
  </filter>
  <filter id="filter5">
   <property name="channel">-1</property>
   <property name="mlt_service">panner</property>
   <property name="internal_added">237</property>
   <property name="start">0.5</property>
   <property name="disable">1</property>
  </filter>
  <filter id="filter6">
   <property name="iec_scale">0</property>
   <property name="mlt_service">audiolevel</property>
   <property name="disable">1</property>
  </filter>
 </tractor>
 <producer id="producer113" in="00:00:00.000" out="00:00:04.560">
  <property name="length">115</property>
  <property name="eof">pause</property>
  <property name="resource">ls/VID_20210902_072750.mp4</property>
  <property name="audio_index">1</property>
  <property name="video_index">0</property>
  <property name="mute_on_pause">0</property>
  <property name="mlt_service">avformat-novalidate</property>
  <property name="seekable">1</property>
  <property name="aspect_ratio">1</property>
  <property name="kdenlive:clipname"/>
  <property name="kdenlive:folderid">-1</property>
  <property name="kdenlive:id">2</property>
  <property name="kdenlive:file_size">7606675</property>
  <property name="kdenlive:file_hash">33bdb4a7b33021a96d1077d9044613ec</property>
  <property name="kdenlive:audio_max1">91</property>
  <property name="xml">was here</property>
  <property name="meta.media.nb_streams">2</property>
  <property name="meta.media.0.stream.type">video</property>
  <property name="meta.media.0.stream.frame_rate">29.9463</property>
  <property name="meta.media.0.stream.sample_aspect_ratio">1</property>
  <property name="meta.media.0.codec.width">1280</property>
  <property name="meta.media.0.codec.height">720</property>
  <property name="meta.media.0.codec.rotate">180</property>
  <property name="meta.media.0.codec.frame_rate">30</property>
  <property name="meta.media.0.codec.pix_fmt">yuv420p</property>
  <property name="meta.media.0.codec.sample_aspect_ratio">0</property>
  <property name="meta.media.0.codec.colorspace">709</property>
  <property name="meta.media.0.codec.color_trc">1</property>
  <property name="meta.media.0.codec.name">h264</property>
  <property name="meta.media.0.codec.long_name">H.264 / AVC / MPEG-4 AVC / MPEG-4 part 10</property>
  <property name="meta.media.0.codec.bit_rate">12059039</property>
  <property name="meta.attr.0.stream.rotate.markup">180</property>
  <property name="meta.attr.0.stream.creation_time.markup">2021-09-01T23:27:49.000000Z</property>
  <property name="meta.attr.0.stream.language.markup">eng</property>
  <property name="meta.attr.0.stream.handler_name.markup">VideoHandle</property>
  <property name="meta.attr.0.stream.vendor_id.markup">[0][0][0][0]</property>
  <property name="meta.media.1.stream.type">audio</property>
  <property name="meta.media.1.codec.sample_fmt">fltp</property>
  <property name="meta.media.1.codec.sample_rate">48000</property>
  <property name="meta.media.1.codec.channels">2</property>
  <property name="meta.media.1.codec.name">aac</property>
  <property name="meta.media.1.codec.long_name">AAC (Advanced Audio Coding)</property>
  <property name="meta.media.1.codec.bit_rate">192432</property>
  <property name="meta.attr.1.stream.creation_time.markup">2021-09-01T23:27:49.000000Z</property>
  <property name="meta.attr.1.stream.language.markup">eng</property>
  <property name="meta.attr.1.stream.handler_name.markup">SoundHandle</property>
  <property name="meta.attr.1.stream.vendor_id.markup">[0][0][0][0]</property>
  <property name="meta.attr.major_brand.markup">mp42</property>
  <property name="meta.attr.minor_version.markup">0</property>
  <property name="meta.attr.compatible_brands.markup">isommp42</property>
  <property name="meta.attr.creation_time.markup">2021-09-01T23:27:49.000000Z</property>
  <property name="meta.attr.com.android.version.markup">8.0.0</property>
  <property name="meta.media.sample_aspect_num">1</property>
  <property name="meta.media.sample_aspect_den">1</property>
  <property name="meta.media.frame_rate_num">2394000</property>
  <property name="meta.media.frame_rate_den">79943</property>
  <property name="meta.media.colorspace">709</property>
  <property name="meta.media.color_trc">1</property>
  <property name="meta.media.has_b_frames">0</property>
  <property name="meta.media.width">1280</property>
  <property name="meta.media.height">720</property>
  <property name="meta.media.color_range">mpeg</property>
  <property name="meta.media.variable_frame_rate">1</property>
  <property name="meta.media.top_field_first">0</property>
  <property name="meta.media.progressive">1</property>
  <property name="set.test_audio">0</property>
  <property name="set.test_image">1</property>
 </producer>
 <producer id="producer114" in="00:00:00.000" out="00:18:10.640">
  <property name="length">27267</property>
  <property name="eof">pause</property>
  <property name="resource">ls/aud.ogg</property>
  <property name="audio_index">0</property>
  <property name="video_index">-1</property>
  <property name="mute_on_pause">0</property>
  <property name="mlt_service">avformat-novalidate</property>
  <property name="meta.media.nb_streams">1</property>
  <property name="meta.media.0.stream.type">audio</property>
  <property name="meta.media.0.codec.sample_fmt">fltp</property>
  <property name="meta.media.0.codec.sample_rate">48000</property>
  <property name="meta.media.0.codec.channels">2</property>
  <property name="meta.media.0.codec.name">vorbis</property>
  <property name="meta.media.0.codec.long_name">Vorbis</property>
  <property name="meta.media.0.codec.bit_rate">499821</property>
  <property name="seekable">1</property>
  <property name="kdenlive:clipname"/>
  <property name="kdenlive:folderid">-1</property>
  <property name="kdenlive:id">3</property>
  <property name="kdenlive:file_size">60415870</property>
  <property name="kdenlive:file_hash">345e8e94e642288e60277df802c7a672</property>
  <property name="kdenlive:audio_max0">229</property>
  <property name="xml">was here</property>
  <property name="set.test_audio">0</property>
  <property name="set.test_image">1</property>
 </producer>
 <playlist id="playlist2">
  <property name="kdenlive:audio_track">1</property>
  <entry producer="producer113" in="00:00:00.000" out="00:00:04.560">
   <property name="kdenlive:id">2</property>
  </entry>
  <entry producer="producer114" in="00:00:00.000" out="00:15:49.600">
   <property name="kdenlive:id">3</property>
   <filter id="filter7" out="00:00:02.720">
    <property name="window">75</property>
    <property name="max_gain">20dB</property>
    <property name="mlt_service">volume</property>
    <property name="kdenlive_id">fadein</property>
    <property name="gain">0</property>
    <property name="end">1</property>
    <property name="kdenlive:collapsed">0</property>
   </filter>
  </entry>
 </playlist>
 <playlist id="playlist3">
  <property name="kdenlive:audio_track">1</property>
 </playlist>
 <tractor id="tractor1" in="00:00:00.000" out="00:15:54.200">
  <property name="kdenlive:audio_track">1</property>
  <property name="kdenlive:trackheight">69</property>
  <property name="kdenlive:timeline_active">1</property>
  <property name="kdenlive:collapsed">0</property>
  <property name="kdenlive:thumbs_format"/>
  <property name="kdenlive:audio_rec"/>
  <track hide="video" producer="playlist2"/>
  <track hide="video" producer="playlist3"/>
  <filter id="filter8">
   <property name="window">75</property>
   <property name="max_gain">20dB</property>
   <property name="level">4.29154</property>
   <property name="mlt_service">volume</property>
   <property name="internal_added">237</property>
   <property name="disable">0</property>
  </filter>
  <filter id="filter9">
   <property name="channel">-1</property>
   <property name="mlt_service">panner</property>
   <property name="internal_added">237</property>
   <property name="start">0.5</property>
   <property name="disable">1</property>
  </filter>
  <filter id="filter10">
   <property name="iec_scale">0</property>
   <property name="mlt_service">audiolevel</property>
   <property name="disable">1</property>
  </filter>
 </tractor>
 <producer id="producer115" in="00:00:00.000" out="00:00:04.560">
  <property name="length">115</property>
  <property name="eof">pause</property>
  <property name="resource">ls/VID_20210902_072750.mp4</property>
  <property name="audio_index">1</property>
  <property name="video_index">0</property>
  <property name="mute_on_pause">0</property>
  <property name="mlt_service">avformat-novalidate</property>
  <property name="seekable">1</property>
  <property name="aspect_ratio">1</property>
  <property name="kdenlive:clipname"/>
  <property name="kdenlive:folderid">-1</property>
  <property name="kdenlive:id">2</property>
  <property name="kdenlive:file_size">7606675</property>
  <property name="kdenlive:file_hash">33bdb4a7b33021a96d1077d9044613ec</property>
  <property name="kdenlive:audio_max1">91</property>
  <property name="xml">was here</property>
  <property name="meta.media.nb_streams">2</property>
  <property name="meta.media.0.stream.type">video</property>
  <property name="meta.media.0.stream.frame_rate">29.9463</property>
  <property name="meta.media.0.stream.sample_aspect_ratio">1</property>
  <property name="meta.media.0.codec.width">1280</property>
  <property name="meta.media.0.codec.height">720</property>
  <property name="meta.media.0.codec.rotate">180</property>
  <property name="meta.media.0.codec.frame_rate">30</property>
  <property name="meta.media.0.codec.pix_fmt">yuv420p</property>
  <property name="meta.media.0.codec.sample_aspect_ratio">0</property>
  <property name="meta.media.0.codec.colorspace">709</property>
  <property name="meta.media.0.codec.color_trc">1</property>
  <property name="meta.media.0.codec.name">h264</property>
  <property name="meta.media.0.codec.long_name">H.264 / AVC / MPEG-4 AVC / MPEG-4 part 10</property>
  <property name="meta.media.0.codec.bit_rate">12059039</property>
  <property name="meta.attr.0.stream.rotate.markup">180</property>
  <property name="meta.attr.0.stream.creation_time.markup">2021-09-01T23:27:49.000000Z</property>
  <property name="meta.attr.0.stream.language.markup">eng</property>
  <property name="meta.attr.0.stream.handler_name.markup">VideoHandle</property>
  <property name="meta.attr.0.stream.vendor_id.markup">[0][0][0][0]</property>
  <property name="meta.media.1.stream.type">audio</property>
  <property name="meta.media.1.codec.sample_fmt">fltp</property>
  <property name="meta.media.1.codec.sample_rate">48000</property>
  <property name="meta.media.1.codec.channels">2</property>
  <property name="meta.media.1.codec.name">aac</property>
  <property name="meta.media.1.codec.long_name">AAC (Advanced Audio Coding)</property>
  <property name="meta.media.1.codec.bit_rate">192432</property>
  <property name="meta.attr.1.stream.creation_time.markup">2021-09-01T23:27:49.000000Z</property>
  <property name="meta.attr.1.stream.language.markup">eng</property>
  <property name="meta.attr.1.stream.handler_name.markup">SoundHandle</property>
  <property name="meta.attr.1.stream.vendor_id.markup">[0][0][0][0]</property>
  <property name="meta.attr.major_brand.markup">mp42</property>
  <property name="meta.attr.minor_version.markup">0</property>
  <property name="meta.attr.compatible_brands.markup">isommp42</property>
  <property name="meta.attr.creation_time.markup">2021-09-01T23:27:49.000000Z</property>
  <property name="meta.attr.com.android.version.markup">8.0.0</property>
  <property name="meta.media.sample_aspect_num">1</property>
  <property name="meta.media.sample_aspect_den">1</property>
  <property name="meta.media.frame_rate_num">2394000</property>
  <property name="meta.media.frame_rate_den">79943</property>
  <property name="meta.media.colorspace">709</property>
  <property name="meta.media.color_trc">1</property>
  <property name="meta.media.has_b_frames">0</property>
  <property name="meta.media.width">1280</property>
  <property name="meta.media.height">720</property>
  <property name="meta.media.color_range">mpeg</property>
  <property name="meta.media.variable_frame_rate">1</property>
  <property name="meta.media.top_field_first">0</property>
  <property name="meta.media.progressive">1</property>
  <property name="set.test_audio">1</property>
  <property name="set.test_image">0</property>
 </producer>
 <producer id="producer116" in="00:00:00.000" out="00:36:53.880">
  <property name="length">55348</property>
  <property name="eof">pause</property>
  <property name="resource">/home/duangsuse/RemoteProjects/extract-subtitles/歪点子实验室，山寨抄袭能不能别老是盯着我？-675175410.flv</property>
  <property name="audio_index">1</property>
  <property name="video_index">0</property>
  <property name="mute_on_pause">0</property>
  <property name="mlt_service">avformat-novalidate</property>
  <property name="seekable">1</property>
  <property name="aspect_ratio">1</property>
  <property name="kdenlive:clipname"/>
  <property name="kdenlive:folderid">12</property>
  <property name="kdenlive:id">20</property>
  <property name="kdenlive:file_size">386031063</property>
  <property name="kdenlive:file_hash">2d13fee7da9734e535645388345c1022</property>
  <property name="kdenlive:audio_max1">227</property>
  <property name="xml">was here</property>
  <property name="meta.media.nb_streams">2</property>
  <property name="meta.media.0.stream.type">video</property>
  <property name="meta.media.0.stream.frame_rate">25</property>
  <property name="meta.media.0.stream.sample_aspect_ratio">0</property>
  <property name="meta.media.0.codec.width">1920</property>
  <property name="meta.media.0.codec.height">1080</property>
  <property name="meta.media.0.codec.rotate">0</property>
  <property name="meta.media.0.codec.frame_rate">25</property>
  <property name="meta.media.0.codec.pix_fmt">yuv420p</property>
  <property name="meta.media.0.codec.sample_aspect_ratio">1</property>
  <property name="meta.media.0.codec.colorspace">709</property>
  <property name="meta.media.0.codec.color_trc">1</property>
  <property name="meta.media.0.codec.name">h264</property>
  <property name="meta.media.0.codec.long_name">H.264 / AVC / MPEG-4 AVC / MPEG-4 part 10</property>
  <property name="meta.media.0.codec.bit_rate">1068252</property>
  <property name="meta.media.1.stream.type">audio</property>
  <property name="meta.media.1.codec.sample_fmt">fltp</property>
  <property name="meta.media.1.codec.sample_rate">48000</property>
  <property name="meta.media.1.codec.channels">2</property>
  <property name="meta.media.1.codec.name">aac</property>
  <property name="meta.media.1.codec.long_name">AAC (Advanced Audio Coding)</property>
  <property name="meta.media.1.codec.bit_rate">318110</property>
  <property name="meta.attr.description.markup">Bilibili VXCode Swarm Transcoder v0.5.7</property>
  <property name="meta.attr.metadatacreator.markup">Version 1.9</property>
  <property name="meta.attr.hasKeyframes.markup">true</property>
  <property name="meta.attr.hasVideo.markup">true</property>
  <property name="meta.attr.hasAudio.markup">true</property>
  <property name="meta.attr.hasMetadata.markup">true</property>
  <property name="meta.attr.canSeekToEnd.markup">true</property>
  <property name="meta.attr.datasize.markup">386022407</property>
  <property name="meta.attr.videosize.markup">296210313</property>
  <property name="meta.attr.audiosize.markup">89175614</property>
  <property name="meta.attr.lasttimestamp.markup">2214</property>
  <property name="meta.attr.lastkeyframetimestamp.markup">2214</property>
  <property name="meta.attr.lastkeyframelocation.markup">386031043</property>
  <property name="meta.media.sample_aspect_num">1</property>
  <property name="meta.media.sample_aspect_den">1</property>
  <property name="meta.media.frame_rate_num">25</property>
  <property name="meta.media.frame_rate_den">1</property>
  <property name="meta.media.colorspace">709</property>
  <property name="meta.media.color_trc">1</property>
  <property name="meta.media.has_b_frames">4</property>
  <property name="meta.media.width">1920</property>
  <property name="meta.media.height">1080</property>
  <property name="meta.media.color_range">mpeg</property>
  <property name="meta.media.top_field_first">0</property>
  <property name="meta.media.progressive">1</property>
  <property name="set.test_audio">1</property>
  <property name="set.test_image">0</property>
 </producer>
 <producer id="producer117" in="00:00:00.000" out="00:24:16.000">
  <property name="length">36401</property>
  <property name="eof">pause</property>
  <property name="resource">1.520492:/home/duangsuse/RemoteProjects/extract-subtitles/歪点子实验室，山寨抄袭能不能别老是盯着我？-675175410.flv</property>
  <property name="aspect_ratio">1</property>
  <property name="meta.media.nb_streams">2</property>
  <property name="meta.media.0.stream.type">video</property>
  <property name="meta.media.0.stream.frame_rate">25</property>
  <property name="meta.media.0.stream.sample_aspect_ratio">0</property>
  <property name="meta.media.0.codec.width">1920</property>
  <property name="meta.media.0.codec.height">1080</property>
  <property name="meta.media.0.codec.rotate">0</property>
  <property name="meta.media.0.codec.frame_rate">25</property>
  <property name="meta.media.0.codec.pix_fmt">yuv420p</property>
  <property name="meta.media.0.codec.sample_aspect_ratio">1</property>
  <property name="meta.media.0.codec.colorspace">709</property>
  <property name="meta.media.0.codec.color_trc">1</property>
  <property name="meta.media.0.codec.name">h264</property>
  <property name="meta.media.0.codec.long_name">H.264 / AVC / MPEG-4 AVC / MPEG-4 part 10</property>
  <property name="meta.media.0.codec.bit_rate">1068252</property>
  <property name="meta.media.1.stream.type">audio</property>
  <property name="meta.media.1.codec.sample_fmt">fltp</property>
  <property name="meta.media.1.codec.sample_rate">48000</property>
  <property name="meta.media.1.codec.channels">2</property>
  <property name="meta.media.1.codec.name">aac</property>
  <property name="meta.media.1.codec.long_name">AAC (Advanced Audio Coding)</property>
  <property name="meta.media.1.codec.bit_rate">318110</property>
  <property name="meta.attr.description.markup">Bilibili VXCode Swarm Transcoder v0.5.7</property>
  <property name="meta.attr.metadatacreator.markup">Version 1.9</property>
  <property name="meta.attr.hasKeyframes.markup">true</property>
  <property name="meta.attr.hasVideo.markup">true</property>
  <property name="meta.attr.hasAudio.markup">true</property>
  <property name="meta.attr.hasMetadata.markup">true</property>
  <property name="meta.attr.canSeekToEnd.markup">true</property>
  <property name="meta.attr.datasize.markup">386022407</property>
  <property name="meta.attr.videosize.markup">296210313</property>
  <property name="meta.attr.audiosize.markup">89175614</property>
  <property name="meta.attr.lasttimestamp.markup">2214</property>
  <property name="meta.attr.lastkeyframetimestamp.markup">2214</property>
  <property name="meta.attr.lastkeyframelocation.markup">386031043</property>
  <property name="seekable">1</property>
  <property name="meta.media.sample_aspect_num">1</property>
  <property name="meta.media.sample_aspect_den">1</property>
  <property name="audio_index">1</property>
  <property name="video_index">0</property>
  <property name="mute_on_pause">1</property>
  <property name="warp_speed">1.52049</property>
  <property name="warp_resource">/home/duangsuse/RemoteProjects/extract-subtitles/歪点子实验室，山寨抄袭能不能别老是盯着我？-675175410.flv</property>
  <property name="mlt_service">timewarp</property>
  <property name="set.test_audio">1</property>
  <property name="set.test_image">0</property>
  <property name="kdenlive:id">20</property>
  <property name="warp_pitch">0</property>
  <property name="meta.media.frame_rate_num">25</property>
  <property name="meta.media.frame_rate_den">1</property>
  <property name="meta.media.colorspace">709</property>
  <property name="meta.media.color_trc">1</property>
  <property name="meta.media.has_b_frames">4</property>
  <property name="meta.media.width">1920</property>
  <property name="meta.media.height">1080</property>
  <property name="meta.media.color_range">mpeg</property>
  <property name="meta.media.top_field_first">0</property>
  <property name="meta.media.progressive">1</property>
 </producer>
 <producer id="producer118" in="00:00:00.000" out="00:13:01.280">
  <property name="length">19534</property>
  <property name="eof">pause</property>
  <property name="resource">2.833461:/home/duangsuse/RemoteProjects/extract-subtitles/歪点子实验室，山寨抄袭能不能别老是盯着我？-675175410.flv</property>
  <property name="aspect_ratio">1</property>
  <property name="meta.media.nb_streams">2</property>
  <property name="meta.media.0.stream.type">video</property>
  <property name="meta.media.0.stream.frame_rate">25</property>
  <property name="meta.media.0.stream.sample_aspect_ratio">0</property>
  <property name="meta.media.0.codec.width">1920</property>
  <property name="meta.media.0.codec.height">1080</property>
  <property name="meta.media.0.codec.rotate">0</property>
  <property name="meta.media.0.codec.frame_rate">25</property>
  <property name="meta.media.0.codec.pix_fmt">yuv420p</property>
  <property name="meta.media.0.codec.sample_aspect_ratio">1</property>
  <property name="meta.media.0.codec.colorspace">709</property>
  <property name="meta.media.0.codec.color_trc">1</property>
  <property name="meta.media.0.codec.name">h264</property>
  <property name="meta.media.0.codec.long_name">H.264 / AVC / MPEG-4 AVC / MPEG-4 part 10</property>
  <property name="meta.media.0.codec.bit_rate">1068252</property>
  <property name="meta.media.1.stream.type">audio</property>
  <property name="meta.media.1.codec.sample_fmt">fltp</property>
  <property name="meta.media.1.codec.sample_rate">48000</property>
  <property name="meta.media.1.codec.channels">2</property>
  <property name="meta.media.1.codec.name">aac</property>
  <property name="meta.media.1.codec.long_name">AAC (Advanced Audio Coding)</property>
  <property name="meta.media.1.codec.bit_rate">318110</property>
  <property name="meta.attr.description.markup">Bilibili VXCode Swarm Transcoder v0.5.7</property>
  <property name="meta.attr.metadatacreator.markup">Version 1.9</property>
  <property name="meta.attr.hasKeyframes.markup">true</property>
  <property name="meta.attr.hasVideo.markup">true</property>
  <property name="meta.attr.hasAudio.markup">true</property>
  <property name="meta.attr.hasMetadata.markup">true</property>
  <property name="meta.attr.canSeekToEnd.markup">true</property>
  <property name="meta.attr.datasize.markup">386022407</property>
  <property name="meta.attr.videosize.markup">296210313</property>
  <property name="meta.attr.audiosize.markup">89175614</property>
  <property name="meta.attr.lasttimestamp.markup">2214</property>
  <property name="meta.attr.lastkeyframetimestamp.markup">2214</property>
  <property name="meta.attr.lastkeyframelocation.markup">386031043</property>
  <property name="seekable">1</property>
  <property name="meta.media.sample_aspect_num">1</property>
  <property name="meta.media.sample_aspect_den">1</property>
  <property name="audio_index">1</property>
  <property name="video_index">0</property>
  <property name="mute_on_pause">1</property>
  <property name="warp_speed">2.83346</property>
  <property name="warp_resource">/home/duangsuse/RemoteProjects/extract-subtitles/歪点子实验室，山寨抄袭能不能别老是盯着我？-675175410.flv</property>
  <property name="mlt_service">timewarp</property>
  <property name="set.test_audio">1</property>
  <property name="set.test_image">0</property>
  <property name="kdenlive:id">20</property>
  <property name="warp_pitch">0</property>
  <property name="meta.media.frame_rate_num">25</property>
  <property name="meta.media.frame_rate_den">1</property>
  <property name="meta.media.colorspace">709</property>
  <property name="meta.media.color_trc">1</property>
  <property name="meta.media.has_b_frames">4</property>
  <property name="meta.media.width">1920</property>
  <property name="meta.media.height">1080</property>
  <property name="meta.media.color_range">mpeg</property>
  <property name="meta.media.top_field_first">0</property>
  <property name="meta.media.progressive">1</property>
 </producer>
 <producer id="producer119" in="00:00:00.000" out="00:19:18.200">
  <property name="length">28958</property>
  <property name="eof">pause</property>
  <property name="resource">1.911330:/home/duangsuse/RemoteProjects/extract-subtitles/歪点子实验室，山寨抄袭能不能别老是盯着我？-675175410.flv</property>
  <property name="aspect_ratio">1</property>
  <property name="meta.media.nb_streams">2</property>
  <property name="meta.media.0.stream.type">video</property>
  <property name="meta.media.0.stream.frame_rate">25</property>
  <property name="meta.media.0.stream.sample_aspect_ratio">0</property>
  <property name="meta.media.0.codec.width">1920</property>
  <property name="meta.media.0.codec.height">1080</property>
  <property name="meta.media.0.codec.rotate">0</property>
  <property name="meta.media.0.codec.frame_rate">25</property>
  <property name="meta.media.0.codec.pix_fmt">yuv420p</property>
  <property name="meta.media.0.codec.sample_aspect_ratio">1</property>
  <property name="meta.media.0.codec.colorspace">709</property>
  <property name="meta.media.0.codec.color_trc">1</property>
  <property name="meta.media.0.codec.name">h264</property>
  <property name="meta.media.0.codec.long_name">H.264 / AVC / MPEG-4 AVC / MPEG-4 part 10</property>
  <property name="meta.media.0.codec.bit_rate">1068252</property>
  <property name="meta.media.1.stream.type">audio</property>
  <property name="meta.media.1.codec.sample_fmt">fltp</property>
  <property name="meta.media.1.codec.sample_rate">48000</property>
  <property name="meta.media.1.codec.channels">2</property>
  <property name="meta.media.1.codec.name">aac</property>
  <property name="meta.media.1.codec.long_name">AAC (Advanced Audio Coding)</property>
  <property name="meta.media.1.codec.bit_rate">318110</property>
  <property name="meta.attr.description.markup">Bilibili VXCode Swarm Transcoder v0.5.7</property>
  <property name="meta.attr.metadatacreator.markup">Version 1.9</property>
  <property name="meta.attr.hasKeyframes.markup">true</property>
  <property name="meta.attr.hasVideo.markup">true</property>
  <property name="meta.attr.hasAudio.markup">true</property>
  <property name="meta.attr.hasMetadata.markup">true</property>
  <property name="meta.attr.canSeekToEnd.markup">true</property>
  <property name="meta.attr.datasize.markup">386022407</property>
  <property name="meta.attr.videosize.markup">296210313</property>
  <property name="meta.attr.audiosize.markup">89175614</property>
  <property name="meta.attr.lasttimestamp.markup">2214</property>
  <property name="meta.attr.lastkeyframetimestamp.markup">2214</property>
  <property name="meta.attr.lastkeyframelocation.markup">386031043</property>
  <property name="seekable">1</property>
  <property name="meta.media.sample_aspect_num">1</property>
  <property name="meta.media.sample_aspect_den">1</property>
  <property name="audio_index">1</property>
  <property name="video_index">0</property>
  <property name="mute_on_pause">1</property>
  <property name="warp_speed">1.91133</property>
  <property name="warp_resource">/home/duangsuse/RemoteProjects/extract-subtitles/歪点子实验室，山寨抄袭能不能别老是盯着我？-675175410.flv</property>
  <property name="mlt_service">timewarp</property>
  <property name="set.test_audio">1</property>
  <property name="set.test_image">0</property>
  <property name="kdenlive:id">20</property>
  <property name="warp_pitch">0</property>
  <property name="meta.media.frame_rate_num">25</property>
  <property name="meta.media.frame_rate_den">1</property>
  <property name="meta.media.colorspace">709</property>
  <property name="meta.media.color_trc">1</property>
  <property name="meta.media.has_b_frames">4</property>
  <property name="meta.media.width">1920</property>
  <property name="meta.media.height">1080</property>
  <property name="meta.media.color_range">mpeg</property>
  <property name="meta.media.top_field_first">0</property>
  <property name="meta.media.progressive">1</property>
 </producer>
 <playlist id="playlist4">
  <entry producer="producer115" in="00:00:00.000" out="00:00:04.560">
   <property name="kdenlive:id">2</property>
   <filter id="filter11" in="00:00:03.720" out="00:00:04.560">
    <property name="start">1</property>
    <property name="mlt_service">brightness</property>
    <property name="kdenlive_id">fade_to_black</property>
    <property name="end">0</property>
    <property name="alpha">-1</property>
   </filter>
  </entry>
  <blank length="00:00:01.960"/>
  <entry producer="producer11" in="00:00:00.000" out="00:00:04.960">
   <property name="kdenlive:id">14</property>
   <filter id="filter12" in="00:00:03.960" out="00:00:04.960">
    <property name="start">1</property>
    <property name="mlt_service">brightness</property>
    <property name="kdenlive_id">fade_to_black</property>
    <property name="end">0</property>
    <property name="alpha">-1</property>
    <property name="kdenlive:collapsed">0</property>
   </filter>
  </entry>
  <blank length="00:00:04.280"/>
  <entry producer="producer12" in="00:00:00.000" out="00:00:01.640">
   <property name="kdenlive:id">15</property>
  </entry>
  <entry producer="producer13" in="00:00:00.000" out="00:00:08.040">
   <property name="kdenlive:id">16</property>
  </entry>
  <entry producer="producer15" in="00:00:00.000" out="00:00:03.560">
   <property name="kdenlive:id">18</property>
  </entry>
  <blank length="00:00:07.040"/>
  <entry producer="producer116" in="00:01:12.880" out="00:01:23.480">
   <property name="kdenlive:id">20</property>
   <filter id="filter13">
    <property name="rotate_center">1</property>
    <property name="mlt_service">qtblend</property>
    <property name="kdenlive_id">qtblend</property>
    <property name="rect">00:01:12.880=0 0 1920 976 1.000000</property>
    <property name="rotation">00:01:12.880=0</property>
    <property name="compositing">0</property>
    <property name="distort">0</property>
    <property name="kdenlive:collapsed">0</property>
   </filter>
  </entry>
  <blank length="00:00:17.160"/>
  <entry producer="producer116" in="00:01:23.520" out="00:01:32.080">
   <property name="kdenlive:id">20</property>
   <filter id="filter14">
    <property name="rotate_center">1</property>
    <property name="mlt_service">qtblend</property>
    <property name="kdenlive_id">qtblend</property>
    <property name="rect">00:01:23.520=0 0 1920 952 1.000000</property>
    <property name="rotation">00:01:23.520=0</property>
    <property name="compositing">0</property>
    <property name="distort">0</property>
    <property name="kdenlive:collapsed">0</property>
   </filter>
  </entry>
  <blank length="00:00:09.840"/>
  <entry producer="producer47" in="00:00:00.000" out="00:00:02.000">
   <property name="kdenlive:id">53</property>
   <filter id="filter15">
    <property name="rotate_center">1</property>
    <property name="mlt_service">qtblend</property>
    <property name="kdenlive_id">qtblend</property>
    <property name="rect">00:00:00.000=-1144 28 4204 2364 1.000000;00:00:00.360=-1144 28 4204 2364 1.000000;00:00:02.000=-1144 -1372 4204 2364 1.000000</property>
    <property name="rotation">00:00:00.000=0;00:00:00.360=0;00:00:02.000=0</property>
    <property name="compositing">0</property>
    <property name="distort">0</property>
    <property name="kdenlive:collapsed">0</property>
   </filter>
  </entry>
  <entry producer="producer45" in="00:00:00.000" out="00:00:02.160">
   <property name="kdenlive:id">51</property>
   <filter id="filter16">
    <property name="rotate_center">1</property>
    <property name="mlt_service">qtblend</property>
    <property name="kdenlive_id">qtblend</property>
    <property name="rect">00:00:00.000=-1144 28 4204 2364 1.000000;00:00:00.520=-1144 28 4204 2364 1.000000;00:00:02.160=-1144 -1372 4204 2364 1.000000</property>
    <property name="rotation">00:00:00.000=0;00:00:00.520=0;00:00:02.160=0</property>
    <property name="compositing">0</property>
    <property name="distort">0</property>
    <property name="kdenlive:collapsed">0</property>
   </filter>
  </entry>
  <blank length="00:00:00.040"/>
  <entry producer="producer46" in="00:00:00.000" out="00:00:01.600">
   <property name="kdenlive:id">52</property>
   <filter id="filter17">
    <property name="rotate_center">1</property>
    <property name="mlt_service">qtblend</property>
    <property name="kdenlive_id">qtblend</property>
    <property name="rect">00:00:00.000=-1144 28 4204 2364 1.000000;00:00:00.360=-1144 28 4204 2364 1.000000;00:00:01.600=-1144 -1372 4204 2364 1.000000</property>
    <property name="rotation">00:00:00.000=0;00:00:00.360=0;00:00:01.600=0</property>
    <property name="compositing">0</property>
    <property name="distort">0</property>
    <property name="kdenlive:collapsed">0</property>
   </filter>
  </entry>
  <blank length="00:00:02.720"/>
  <entry producer="producer41" in="00:00:00.000" out="00:00:04.960">
   <property name="kdenlive:id">47</property>
   <filter id="filter18">
    <property name="rotate_center">1</property>
    <property name="mlt_service">qtblend</property>
    <property name="kdenlive_id">qtblend</property>
    <property name="rect">00:00:00.000=-1144 28 4204 2364 1.000000;00:00:00.360=-1144 28 4204 2364 1.000000;00:00:01.600=-1144 -1372 4204 2364 1.000000</property>
    <property name="rotation">00:00:00.000=0;00:00:00.360=0;00:00:01.600=0</property>
    <property name="compositing">0</property>
    <property name="distort">0</property>
    <property name="kdenlive:collapsed">0</property>
   </filter>
  </entry>
  <blank length="00:00:27.840"/>
  <entry producer="producer116" in="00:20:41.280" out="00:21:03.120">
   <property name="kdenlive:id">20</property>
   <filter id="filter19">
    <property name="rotate_center">1</property>
    <property name="mlt_service">qtblend</property>
    <property name="kdenlive_id">qtblend</property>
    <property name="rect">00:20:41.280=0 0 1920 984 1.000000</property>
    <property name="rotation">00:20:41.280=0</property>
    <property name="compositing">0</property>
    <property name="distort">0</property>
    <property name="kdenlive:collapsed">0</property>
   </filter>
  </entry>
  <blank length="00:00:01.000"/>
  <entry producer="producer117" in="00:12:51.080" out="00:13:00.800">
   <property name="kdenlive:id">20</property>
   <filter id="filter20">
    <property name="rotate_center">1</property>
    <property name="mlt_service">qtblend</property>
    <property name="kdenlive_id">qtblend</property>
    <property name="rect">00:12:51.080=0 0 1920 984 1.000000;00:13:00.800=0 0 1920 984 1.000000</property>
    <property name="rotation">00:12:51.080=0;00:13:00.800=0</property>
    <property name="compositing">0</property>
    <property name="distort">0</property>
    <property name="kdenlive:collapsed">0</property>
   </filter>
   <filter id="filter21" in="00:12:51.080" out="00:12:51.840">
    <property name="start">0</property>
    <property name="mlt_service">brightness</property>
    <property name="kdenlive_id">fade_from_black</property>
    <property name="end">1</property>
    <property name="alpha">-1</property>
    <property name="kdenlive:collapsed">0</property>
   </filter>
  </entry>
  <blank length="00:00:01.480"/>
  <entry producer="producer118" in="00:06:01.640" out="00:06:20.000">
   <property name="kdenlive:id">20</property>
   <filter id="filter22">
    <property name="rotate_center">1</property>
    <property name="mlt_service">qtblend</property>
    <property name="kdenlive_id">qtblend</property>
    <property name="rect">00:06:01.640=0 0 1920 984 1.000000</property>
    <property name="rotation">00:06:01.640=0</property>
    <property name="compositing">0</property>
    <property name="distort">0</property>
    <property name="kdenlive:collapsed">0</property>
   </filter>
  </entry>
  <blank length="00:00:01.000"/>
  <entry producer="producer73" in="00:00:00.000" out="00:00:01.800">
   <property name="kdenlive:id">79</property>
  </entry>
  <entry producer="producer74" in="00:00:00.000" out="00:00:02.480">
   <property name="kdenlive:id">80</property>
  </entry>
  <blank length="00:00:24.120"/>
  <entry producer="producer44" in="00:00:00.000" out="00:00:19.720">
   <property name="kdenlive:id">50</property>
   <filter id="filter23">
    <property name="rotate_center">1</property>
    <property name="mlt_service">qtblend</property>
    <property name="kdenlive_id">qtblend</property>
    <property name="rect">00:00:00.000=-7286 -194 17280 9720 1.000000;00:00:01.520=-7286 -194 17280 9720 1.000000;00:00:19.720=-7286 -8602 17280 9720 1.000000</property>
    <property name="rotation">00:00:00.000=0;00:00:01.520=0;00:00:19.720=0</property>
    <property name="compositing">0</property>
    <property name="distort">0</property>
    <property name="kdenlive:collapsed">0</property>
   </filter>
   <filter id="filter24" in="00:00:19.280" out="00:00:19.720">
    <property name="start">1</property>
    <property name="mlt_service">brightness</property>
    <property name="kdenlive_id">fade_to_black</property>
    <property name="end">0</property>
    <property name="alpha">-1</property>
   </filter>
  </entry>
  <blank length="00:00:00.280"/>
  <entry producer="producer84" in="00:00:00.000" out="00:00:09.080">
   <property name="kdenlive:id">90</property>
  </entry>
  <blank length="00:00:07.160"/>
  <entry producer="producer85" in="00:00:00.000" out="00:00:03.320">
   <property name="kdenlive:id">91</property>
  </entry>
  <blank length="00:00:14.960"/>
  <entry producer="producer52" in="00:00:00.000" out="00:00:01.520">
   <property name="kdenlive:id">58</property>
  </entry>
  <entry producer="producer51" in="00:00:00.000" out="00:00:03.560">
   <property name="kdenlive:id">57</property>
  </entry>
  <entry producer="producer6" in="00:00:00.000" out="00:00:01.720">
   <property name="kdenlive:id">8</property>
  </entry>
  <blank length="00:00:01.360"/>
  <entry producer="producer5" in="00:00:00.000" out="00:00:01.880">
   <property name="kdenlive:id">7</property>
  </entry>
  <blank length="00:00:06.640"/>
  <entry producer="producer9" in="00:00:00.000" out="00:00:03.960">
   <property name="kdenlive:id">11</property>
  </entry>
  <blank length="00:00:31.120"/>
  <entry producer="producer116" in="00:19:47.320" out="00:20:17.840">
   <property name="kdenlive:id">20</property>
   <filter id="filter25">
    <property name="rotate_center">1</property>
    <property name="mlt_service">qtblend</property>
    <property name="kdenlive_id">qtblend</property>
    <property name="rect">00:19:47.320=0 0 1920 984 1.000000</property>
    <property name="rotation">00:19:47.320=0</property>
    <property name="compositing">0</property>
    <property name="distort">0</property>
    <property name="kdenlive:collapsed">0</property>
   </filter>
  </entry>
  <blank length="00:01:29.960"/>
  <entry producer="producer72" in="00:00:00.000" out="00:00:03.480">
   <property name="kdenlive:id">78</property>
  </entry>
  <entry producer="producer71" in="00:00:00.000" out="00:00:04.960">
   <property name="kdenlive:id">77</property>
   <filter id="filter26" in="00:00:04.120" out="00:00:04.960">
    <property name="start">1</property>
    <property name="mlt_service">brightness</property>
    <property name="kdenlive_id">fade_to_black</property>
    <property name="end">0</property>
    <property name="alpha">-1</property>
   </filter>
  </entry>
  <blank length="00:00:02.240"/>
  <entry producer="producer58" in="00:00:00.000" out="00:00:01.920">
   <property name="kdenlive:id">64</property>
  </entry>
  <blank length="00:00:05.520"/>
  <entry producer="producer91" in="00:00:00.000" out="00:00:03.360">
   <property name="kdenlive:id">97</property>
  </entry>
  <blank length="00:00:01.320"/>
  <entry producer="producer45" in="00:00:00.000" out="00:00:08.120">
   <property name="kdenlive:id">51</property>
   <filter id="filter27">
    <property name="rotate_center">1</property>
    <property name="mlt_service">qtblend</property>
    <property name="kdenlive_id">qtblend</property>
    <property name="rect">00:00:00.000=-1144 28 4204 2364 1.000000;00:00:00.360=-1144 28 4204 2364 1.000000;00:00:08.120=-1144 -1372 4204 2364 1.000000</property>
    <property name="rotation">00:00:00.000=0;00:00:00.360=0;00:00:08.120=0</property>
    <property name="compositing">0</property>
    <property name="distort">0</property>
    <property name="kdenlive:collapsed">0</property>
   </filter>
  </entry>
  <blank length="00:00:16.280"/>
  <entry producer="producer92" in="00:00:00.000" out="00:00:14.040">
   <property name="kdenlive:id">98</property>
  </entry>
  <blank length="00:00:11.320"/>
  <entry producer="producer80" in="00:00:00.000" out="00:00:01.440">
   <property name="kdenlive:id">86</property>
  </entry>
  <blank length="00:00:12.480"/>
  <entry producer="producer57" in="00:00:00.000" out="00:00:04.960">
   <property name="kdenlive:id">63</property>
  </entry>
  <blank length="00:01:10.320"/>
  <entry producer="producer65" in="00:00:00.000" out="00:00:04.960">
   <property name="kdenlive:id">71</property>
  </entry>
  <blank length="00:00:03.960"/>
  <entry producer="producer95" in="00:00:00.000" out="00:00:04.960">
   <property name="kdenlive:id">101</property>
  </entry>
  <blank length="00:00:00.520"/>
  <entry producer="producer38" in="00:00:00.000" out="00:00:02.120">
   <property name="kdenlive:id">44</property>
  </entry>
  <entry producer="producer37" in="00:00:00.000" out="00:00:02.800">
   <property name="kdenlive:id">43</property>
  </entry>
  <entry producer="producer36" in="00:00:00.000" out="00:00:02.640">
   <property name="kdenlive:id">42</property>
  </entry>
  <blank length="00:00:09.280"/>
  <entry producer="producer96" in="00:00:00.000" out="00:00:02.360">
   <property name="kdenlive:id">102</property>
  </entry>
  <entry producer="producer97" in="00:00:00.000" out="00:00:04.960">
   <property name="kdenlive:id">103</property>
  </entry>
  <entry producer="producer64" in="00:00:00.000" out="00:00:04.960">
   <property name="kdenlive:id">70</property>
   <filter id="filter28" in="00:00:02.720" out="00:00:04.960">
    <property name="start">1</property>
    <property name="mlt_service">brightness</property>
    <property name="kdenlive_id">fade_to_black</property>
    <property name="end">0</property>
    <property name="alpha">-1</property>
   </filter>
  </entry>
  <blank length="00:00:02.160"/>
  <entry producer="producer62" in="00:00:00.000" out="00:00:04.960">
   <property name="kdenlive:id">68</property>
  </entry>
  <blank length="00:00:24.840"/>
  <entry producer="producer70" in="00:00:00.000" out="00:00:04.960">
   <property name="kdenlive:id">76</property>
  </entry>
  <blank length="00:00:01.880"/>
  <entry producer="producer63" in="00:00:00.000" out="00:00:04.960">
   <property name="kdenlive:id">69</property>
   <filter id="filter29" out="00:00:01.280">
    <property name="start">0</property>
    <property name="mlt_service">brightness</property>
    <property name="kdenlive_id">fade_from_black</property>
    <property name="end">1</property>
    <property name="alpha">-1</property>
   </filter>
  </entry>
  <blank length="00:00:10.880"/>
  <entry producer="producer80" in="00:00:00.000" out="00:00:04.960">
   <property name="kdenlive:id">86</property>
  </entry>
  <blank length="00:00:04.240"/>
  <entry producer="producer58" in="00:00:00.000" out="00:00:02.920">
   <property name="kdenlive:id">64</property>
  </entry>
  <blank length="00:00:02.680"/>
  <entry producer="producer39" in="00:00:00.000" out="00:00:04.960">
   <property name="kdenlive:id">45</property>
  </entry>
  <entry producer="producer61" in="00:00:00.000" out="00:00:03.000">
   <property name="kdenlive:id">67</property>
  </entry>
  <blank length="00:00:02.960"/>
  <entry producer="producer116" in="00:02:41.440" out="00:02:56.840">
   <property name="kdenlive:id">20</property>
   <filter id="filter30">
    <property name="rotate_center">1</property>
    <property name="mlt_service">qtblend</property>
    <property name="kdenlive_id">qtblend</property>
    <property name="rect">00:02:41.440=0 0 1920 984 1.000000</property>
    <property name="rotation">00:02:41.440=0</property>
    <property name="compositing">0</property>
    <property name="distort">0</property>
    <property name="kdenlive:collapsed">0</property>
   </filter>
  </entry>
  <blank length="00:00:02.640"/>
  <entry producer="producer59" in="00:00:00.000" out="00:00:04.960">
   <property name="kdenlive:id">65</property>
  </entry>
  <blank length="00:00:16.600"/>
  <entry producer="producer119" in="00:03:24.200" out="00:03:40.400">
   <property name="kdenlive:id">20</property>
   <filter id="filter31">
    <property name="rotate_center">1</property>
    <property name="mlt_service">qtblend</property>
    <property name="kdenlive_id">qtblend</property>
    <property name="rect">00:03:24.200=0 0 1920 984 1.000000;00:03:40.400=0 0 1920 984 1.000000</property>
    <property name="rotation">00:03:24.200=0;00:03:40.400=0</property>
    <property name="compositing">0</property>
    <property name="distort">0</property>
    <property name="kdenlive:collapsed">0</property>
   </filter>
  </entry>
  <blank length="00:02:05.440"/>
  <entry producer="producer76" in="00:00:00.000" out="00:00:04.960">
   <property name="kdenlive:id">82</property>
   <filter id="filter32">
    <property name="rotate_center">1</property>
    <property name="mlt_service">qtblend</property>
    <property name="kdenlive_id">qtblend</property>
    <property name="rect">00:00:00.000=-295 -169 2503 1407 1.000000</property>
    <property name="rotation">00:00:00.000=0</property>
    <property name="compositing">0</property>
    <property name="distort">0</property>
    <property name="kdenlive:collapsed">0</property>
   </filter>
  </entry>
  <blank length="00:00:03.320"/>
  <entry producer="producer77" in="00:00:00.000" out="00:00:07.480">
   <property name="kdenlive:id">83</property>
   <property name="kdenlive:activeeffect">1</property>
   <filter id="filter33" in="00:00:06.200" out="00:00:07.480">
    <property name="start">1</property>
    <property name="mlt_service">brightness</property>
    <property name="kdenlive_id">fade_to_black</property>
    <property name="end">0</property>
    <property name="alpha">-1</property>
    <property name="kdenlive:collapsed">0</property>
   </filter>
   <filter id="filter34">
    <property name="rotate_center">1</property>
    <property name="mlt_service">qtblend</property>
    <property name="kdenlive_id">qtblend</property>
    <property name="rect">00:00:00.000=-295 -169 2503 1407 1.000000</property>
    <property name="rotation">00:00:00.000=0</property>
    <property name="compositing">0</property>
    <property name="distort">0</property>
    <property name="kdenlive:collapsed">0</property>
   </filter>
  </entry>
  <blank length="00:00:03.000"/>
  <entry producer="producer34" in="00:00:00.000" out="00:00:04.960">
   <property name="kdenlive:id">40</property>
  </entry>
  <entry producer="producer32" in="00:00:00.000" out="00:00:02.800">
   <property name="kdenlive:id">38</property>
  </entry>
  <blank length="00:00:03.880"/>
  <entry producer="producer43" in="00:00:00.000" out="00:00:03.160">
   <property name="kdenlive:id">49</property>
  </entry>
  <blank length="00:00:00.560"/>
  <entry producer="producer27" in="00:00:00.000" out="00:00:04.960">
   <property name="kdenlive:id">33</property>
  </entry>
  <blank length="00:00:07.160"/>
  <entry producer="producer104" in="00:00:00.000" out="00:00:06.520">
   <property name="kdenlive:id">110</property>
  </entry>
  <blank length="00:00:00.720"/>
  <entry producer="producer31" in="00:00:00.000" out="00:00:05.200">
   <property name="kdenlive:id">37</property>
  </entry>
  <blank length="00:00:06.880"/>
  <entry producer="producer26" in="00:00:00.000" out="00:00:04.960">
   <property name="kdenlive:id">32</property>
  </entry>
  <blank length="00:00:00.040"/>
  <entry producer="producer30" in="00:00:00.000" out="00:00:00.840">
   <property name="kdenlive:id">36</property>
  </entry>
  <entry producer="producer29" in="00:00:00.000" out="00:00:00.880">
   <property name="kdenlive:id">35</property>
  </entry>
  <entry producer="producer28" in="00:00:00.000" out="00:00:01.400">
   <property name="kdenlive:id">34</property>
  </entry>
  <entry producer="producer27" in="00:00:00.000" out="00:00:01.560">
   <property name="kdenlive:id">33</property>
  </entry>
  <blank length="00:00:05.880"/>
  <entry producer="producer26" in="00:00:00.000" out="00:00:03.320">
   <property name="kdenlive:id">32</property>
  </entry>
  <blank length="00:00:00.200"/>
  <entry producer="producer25" in="00:00:00.000" out="00:00:04.960">
   <property name="kdenlive:id">31</property>
  </entry>
  <blank length="00:00:00.920"/>
  <entry producer="producer24" in="00:00:00.000" out="00:00:05.920">
   <property name="kdenlive:id">30</property>
  </entry>
  <entry producer="producer23" in="00:00:00.000" out="00:00:05.200">
   <property name="kdenlive:id">29</property>
  </entry>
  <blank length="00:00:58.680"/>
  <entry producer="producer50" in="00:00:00.000" out="00:00:03.240">
   <property name="kdenlive:id">56</property>
  </entry>
  <blank length="00:00:05.440"/>
  <entry producer="producer109" in="00:00:00.000" out="00:00:01.520">
   <property name="kdenlive:id">115</property>
   <filter id="filter35" in="00:00:01.120" out="00:00:01.520">
    <property name="start">1</property>
    <property name="mlt_service">brightness</property>
    <property name="kdenlive_id">fade_to_black</property>
    <property name="end">0</property>
    <property name="alpha">-1</property>
    <property name="kdenlive:collapsed">0</property>
   </filter>
  </entry>
  <blank length="00:00:18.920"/>
  <entry producer="producer54" in="00:00:00.000" out="00:00:04.040">
   <property name="kdenlive:id">60</property>
   <filter id="filter36" out="00:00:01.400">
    <property name="start">0</property>
    <property name="mlt_service">brightness</property>
    <property name="kdenlive_id">fade_from_black</property>
    <property name="end">1</property>
    <property name="alpha">-1</property>
    <property name="kdenlive:collapsed">0</property>
   </filter>
  </entry>
 </playlist>
 <playlist id="playlist5"/>
 <tractor id="tractor2" in="00:00:00.000" out="00:18:15.240">
  <property name="kdenlive:trackheight">69</property>
  <property name="kdenlive:timeline_active">1</property>
  <property name="kdenlive:collapsed">0</property>
  <property name="kdenlive:thumbs_format"/>
  <property name="kdenlive:audio_rec"/>
  <track hide="audio" producer="playlist4"/>
  <track hide="audio" producer="playlist5"/>
 </tractor>
 <producer id="producer120" in="00:00:00.000" out="00:00:10.880">
  <property name="length">273</property>
  <property name="eof">pause</property>
  <property name="resource">5.315018:/home/duangsuse/Documents/咱动苏/排序1/快排.mkv</property>
  <property name="aspect_ratio">1</property>
  <property name="meta.media.nb_streams">2</property>
  <property name="meta.media.0.stream.type">video</property>
  <property name="meta.media.0.stream.frame_rate">30</property>
  <property name="meta.media.0.stream.sample_aspect_ratio">0</property>
  <property name="meta.media.0.codec.width">620</property>
  <property name="meta.media.0.codec.height">268</property>
  <property name="meta.media.0.codec.rotate">0</property>
  <property name="meta.media.0.codec.frame_rate">30</property>
  <property name="meta.media.0.codec.pix_fmt">yuv420p</property>
  <property name="meta.media.0.codec.sample_aspect_ratio">1</property>
  <property name="meta.media.0.codec.colorspace">709</property>
  <property name="meta.media.0.codec.color_trc">1</property>
  <property name="meta.media.0.codec.name">h264</property>
  <property name="meta.media.0.codec.long_name">H.264 / AVC / MPEG-4 AVC / MPEG-4 part 10</property>
  <property name="meta.media.0.codec.bit_rate">0</property>
  <property name="meta.attr.0.stream.DURATION.markup">00:00:58.033000000</property>
  <property name="meta.media.1.stream.type">audio</property>
  <property name="meta.media.1.codec.sample_fmt">fltp</property>
  <property name="meta.media.1.codec.sample_rate">48000</property>
  <property name="meta.media.1.codec.channels">2</property>
  <property name="meta.media.1.codec.name">aac</property>
  <property name="meta.media.1.codec.long_name">AAC (Advanced Audio Coding)</property>
  <property name="meta.media.1.codec.bit_rate">0</property>
  <property name="meta.attr.1.stream.title.markup">simple_aac_recording</property>
  <property name="meta.attr.1.stream.DURATION.markup">00:00:57.899000000</property>
  <property name="meta.attr.ENCODER.markup">Lavf58.76.100</property>
  <property name="seekable">1</property>
  <property name="meta.media.sample_aspect_num">1</property>
  <property name="meta.media.sample_aspect_den">1</property>
  <property name="audio_index">1</property>
  <property name="video_index">0</property>
  <property name="mute_on_pause">1</property>
  <property name="warp_speed">5.31502</property>
  <property name="warp_resource">/home/duangsuse/Documents/咱动苏/排序1/快排.mkv</property>
  <property name="mlt_service">timewarp</property>
  <property name="set.test_audio">1</property>
  <property name="set.test_image">0</property>
  <property name="kdenlive:id">92</property>
  <property name="warp_pitch">0</property>
  <property name="meta.media.frame_rate_num">30</property>
  <property name="meta.media.frame_rate_den">1</property>
  <property name="meta.media.colorspace">709</property>
  <property name="meta.media.color_trc">1</property>
  <property name="meta.media.has_b_frames">2</property>
  <property name="meta.media.width">620</property>
  <property name="meta.media.height">268</property>
  <property name="meta.media.color_range">mpeg</property>
  <property name="meta.media.top_field_first">0</property>
  <property name="meta.media.progressive">1</property>
 </producer>
 <producer id="producer121" in="00:00:00.000" out="00:00:04.960">
  <property name="length">00:00:05.000</property>
  <property name="eof">pause</property>
  <property name="resource">/home/duangsuse/Downloads/cn.bing.com_search_q=%E8%80%81%E5%B9%B2%E5%A6%88+%E6%B3%A1%E9%9D%A2&amp;PC=U316&amp;FORM=CHROMN.png</property>
  <property name="ttl">25</property>
  <property name="aspect_ratio">1</property>
  <property name="progressive">1</property>
  <property name="seekable">1</property>
  <property name="meta.media.width">1342</property>
  <property name="meta.media.height">2952</property>
  <property name="mlt_service">qimage</property>
  <property name="kdenlive:clipname"/>
  <property name="kdenlive:duration">00:00:05.000</property>
  <property name="kdenlive:folderid">27</property>
  <property name="kdenlive:file_size">0</property>
  <property name="kdenlive:id">84</property>
  <property name="kdenlive:file_hash">01455caa28b6ae32e65f05fb33b92109</property>
  <property name="xml">was here</property>
  <property name="set.test_audio">1</property>
  <property name="set.test_image">0</property>
 </producer>
 <producer id="producer122" in="00:00:00.000" out="00:36:53.880">
  <property name="length">55348</property>
  <property name="eof">pause</property>
  <property name="resource">/home/duangsuse/RemoteProjects/extract-subtitles/歪点子实验室，山寨抄袭能不能别老是盯着我？-675175410.flv</property>
  <property name="audio_index">1</property>
  <property name="video_index">0</property>
  <property name="mute_on_pause">0</property>
  <property name="mlt_service">avformat-novalidate</property>
  <property name="seekable">1</property>
  <property name="aspect_ratio">1</property>
  <property name="kdenlive:clipname"/>
  <property name="kdenlive:folderid">12</property>
  <property name="kdenlive:id">20</property>
  <property name="kdenlive:file_size">386031063</property>
  <property name="kdenlive:file_hash">2d13fee7da9734e535645388345c1022</property>
  <property name="kdenlive:audio_max1">227</property>
  <property name="xml">was here</property>
  <property name="meta.media.nb_streams">2</property>
  <property name="meta.media.0.stream.type">video</property>
  <property name="meta.media.0.stream.frame_rate">25</property>
  <property name="meta.media.0.stream.sample_aspect_ratio">0</property>
  <property name="meta.media.0.codec.width">1920</property>
  <property name="meta.media.0.codec.height">1080</property>
  <property name="meta.media.0.codec.rotate">0</property>
  <property name="meta.media.0.codec.frame_rate">25</property>
  <property name="meta.media.0.codec.pix_fmt">yuv420p</property>
  <property name="meta.media.0.codec.sample_aspect_ratio">1</property>
  <property name="meta.media.0.codec.colorspace">709</property>
  <property name="meta.media.0.codec.color_trc">1</property>
  <property name="meta.media.0.codec.name">h264</property>
  <property name="meta.media.0.codec.long_name">H.264 / AVC / MPEG-4 AVC / MPEG-4 part 10</property>
  <property name="meta.media.0.codec.bit_rate">1068252</property>
  <property name="meta.media.1.stream.type">audio</property>
  <property name="meta.media.1.codec.sample_fmt">fltp</property>
  <property name="meta.media.1.codec.sample_rate">48000</property>
  <property name="meta.media.1.codec.channels">2</property>
  <property name="meta.media.1.codec.name">aac</property>
  <property name="meta.media.1.codec.long_name">AAC (Advanced Audio Coding)</property>
  <property name="meta.media.1.codec.bit_rate">318110</property>
  <property name="meta.attr.description.markup">Bilibili VXCode Swarm Transcoder v0.5.7</property>
  <property name="meta.attr.metadatacreator.markup">Version 1.9</property>
  <property name="meta.attr.hasKeyframes.markup">true</property>
  <property name="meta.attr.hasVideo.markup">true</property>
  <property name="meta.attr.hasAudio.markup">true</property>
  <property name="meta.attr.hasMetadata.markup">true</property>
  <property name="meta.attr.canSeekToEnd.markup">true</property>
  <property name="meta.attr.datasize.markup">386022407</property>
  <property name="meta.attr.videosize.markup">296210313</property>
  <property name="meta.attr.audiosize.markup">89175614</property>
  <property name="meta.attr.lasttimestamp.markup">2214</property>
  <property name="meta.attr.lastkeyframetimestamp.markup">2214</property>
  <property name="meta.attr.lastkeyframelocation.markup">386031043</property>
  <property name="meta.media.sample_aspect_num">1</property>
  <property name="meta.media.sample_aspect_den">1</property>
  <property name="meta.media.frame_rate_num">25</property>
  <property name="meta.media.frame_rate_den">1</property>
  <property name="meta.media.colorspace">709</property>
  <property name="meta.media.color_trc">1</property>
  <property name="meta.media.has_b_frames">4</property>
  <property name="meta.media.width">1920</property>
  <property name="meta.media.height">1080</property>
  <property name="meta.media.color_range">mpeg</property>
  <property name="meta.media.top_field_first">0</property>
  <property name="meta.media.progressive">1</property>
  <property name="set.test_audio">1</property>
  <property name="set.test_image">0</property>
 </producer>
 <producer id="producer123" in="00:00:00.000" out="00:13:01.280">
  <property name="length">19534</property>
  <property name="eof">pause</property>
  <property name="resource">2.833460:/home/duangsuse/RemoteProjects/extract-subtitles/歪点子实验室，山寨抄袭能不能别老是盯着我？-675175410.flv</property>
  <property name="aspect_ratio">1</property>
  <property name="meta.media.nb_streams">2</property>
  <property name="meta.media.0.stream.type">video</property>
  <property name="meta.media.0.stream.frame_rate">25</property>
  <property name="meta.media.0.stream.sample_aspect_ratio">0</property>
  <property name="meta.media.0.codec.width">1920</property>
  <property name="meta.media.0.codec.height">1080</property>
  <property name="meta.media.0.codec.rotate">0</property>
  <property name="meta.media.0.codec.frame_rate">25</property>
  <property name="meta.media.0.codec.pix_fmt">yuv420p</property>
  <property name="meta.media.0.codec.sample_aspect_ratio">1</property>
  <property name="meta.media.0.codec.colorspace">709</property>
  <property name="meta.media.0.codec.color_trc">1</property>
  <property name="meta.media.0.codec.name">h264</property>
  <property name="meta.media.0.codec.long_name">H.264 / AVC / MPEG-4 AVC / MPEG-4 part 10</property>
  <property name="meta.media.0.codec.bit_rate">1068252</property>
  <property name="meta.media.1.stream.type">audio</property>
  <property name="meta.media.1.codec.sample_fmt">fltp</property>
  <property name="meta.media.1.codec.sample_rate">48000</property>
  <property name="meta.media.1.codec.channels">2</property>
  <property name="meta.media.1.codec.name">aac</property>
  <property name="meta.media.1.codec.long_name">AAC (Advanced Audio Coding)</property>
  <property name="meta.media.1.codec.bit_rate">318110</property>
  <property name="meta.attr.description.markup">Bilibili VXCode Swarm Transcoder v0.5.7</property>
  <property name="meta.attr.metadatacreator.markup">Version 1.9</property>
  <property name="meta.attr.hasKeyframes.markup">true</property>
  <property name="meta.attr.hasVideo.markup">true</property>
  <property name="meta.attr.hasAudio.markup">true</property>
  <property name="meta.attr.hasMetadata.markup">true</property>
  <property name="meta.attr.canSeekToEnd.markup">true</property>
  <property name="meta.attr.datasize.markup">386022407</property>
  <property name="meta.attr.videosize.markup">296210313</property>
  <property name="meta.attr.audiosize.markup">89175614</property>
  <property name="meta.attr.lasttimestamp.markup">2214</property>
  <property name="meta.attr.lastkeyframetimestamp.markup">2214</property>
  <property name="meta.attr.lastkeyframelocation.markup">386031043</property>
  <property name="seekable">1</property>
  <property name="meta.media.sample_aspect_num">1</property>
  <property name="meta.media.sample_aspect_den">1</property>
  <property name="audio_index">1</property>
  <property name="video_index">0</property>
  <property name="mute_on_pause">1</property>
  <property name="warp_speed">2.83346</property>
  <property name="warp_resource">/home/duangsuse/RemoteProjects/extract-subtitles/歪点子实验室，山寨抄袭能不能别老是盯着我？-675175410.flv</property>
  <property name="mlt_service">timewarp</property>
  <property name="set.test_audio">1</property>
  <property name="set.test_image">0</property>
  <property name="kdenlive:id">20</property>
  <property name="warp_pitch">0</property>
  <property name="meta.media.frame_rate_num">25</property>
  <property name="meta.media.frame_rate_den">1</property>
  <property name="meta.media.colorspace">709</property>
  <property name="meta.media.color_trc">1</property>
  <property name="meta.media.has_b_frames">4</property>
  <property name="meta.media.width">1920</property>
  <property name="meta.media.height">1080</property>
  <property name="meta.media.color_range">mpeg</property>
  <property name="meta.media.top_field_first">0</property>
  <property name="meta.media.progressive">1</property>
 </producer>
 <playlist id="playlist6">
  <entry producer="producer2" in="00:00:00.000" out="00:00:04.960">
   <property name="kdenlive:id">4</property>
  </entry>
  <blank length="00:00:01.560"/>
  <entry producer="producer10" in="00:00:00.000" out="00:00:08.960">
   <property name="kdenlive:id">13</property>
  </entry>
  <blank length="00:00:09.160"/>
  <entry producer="producer14" in="00:00:00.000" out="00:00:02.200">
   <property name="kdenlive:id">17</property>
  </entry>
  <blank length="00:00:02.360"/>
  <entry producer="producer16" in="00:00:00.000" out="00:00:06.440">
   <property name="kdenlive:id">19</property>
  </entry>
  <blank length="00:00:09.640"/>
  <entry producer="producer22" in="00:00:00.000" out="00:00:01.400">
   <property name="kdenlive:id">26</property>
  </entry>
  <blank length="00:00:00.280"/>
  <entry producer="producer20" in="00:00:00.000" out="00:00:01.400">
   <property name="kdenlive:id">23</property>
  </entry>
  <entry producer="producer19" in="00:00:00.000" out="00:00:02.520">
   <property name="kdenlive:id">22</property>
  </entry>
  <entry producer="producer18" in="00:00:00.000" out="00:00:04.960">
   <property name="kdenlive:id">21</property>
  </entry>
  <blank length="00:00:15.040"/>
  <entry producer="producer79" in="00:00:00.000" out="00:00:01.400">
   <property name="kdenlive:id">85</property>
  </entry>
  <entry producer="producer80" in="00:00:00.000" out="00:00:03.480">
   <property name="kdenlive:id">86</property>
  </entry>
  <blank length="00:00:00.040"/>
  <entry producer="producer21" in="00:00:00.000" out="00:00:06.280">
   <property name="kdenlive:id">24</property>
  </entry>
  <blank length="00:00:18.880"/>
  <entry producer="producer58" in="00:00:00.000" out="00:00:02.680">
   <property name="kdenlive:id">64</property>
  </entry>
  <blank length="00:00:00.320"/>
  <entry producer="producer81" in="00:00:00.000" out="00:00:04.000">
   <property name="kdenlive:id">87</property>
  </entry>
  <blank length="00:00:05.400"/>
  <entry producer="producer39" in="00:00:00.000" out="00:00:03.760">
   <property name="kdenlive:id">45</property>
  </entry>
  <blank length="00:00:00.920"/>
  <entry producer="producer40" in="00:00:00.000" out="00:00:04.960">
   <property name="kdenlive:id">46</property>
   <filter id="filter37">
    <property name="rotate_center">1</property>
    <property name="mlt_service">qtblend</property>
    <property name="kdenlive_id">qtblend</property>
    <property name="rect">00:00:00.000=-799 219 3513 1976 1.000000;00:00:00.360=-798 222 3512 1975 1.000000;00:00:01.600=-798 -1178 3512 1975 1.000000</property>
    <property name="rotation">00:00:00.000=0;00:00:00.360=0;00:00:01.600=0</property>
    <property name="compositing">0</property>
    <property name="distort">0</property>
    <property name="kdenlive:collapsed">0</property>
   </filter>
  </entry>
  <blank length="00:01:08.560"/>
  <entry producer="producer82" in="00:00:00.000" out="00:00:06.800">
   <property name="kdenlive:id">88</property>
  </entry>
  <blank length="00:00:00.200"/>
  <entry producer="producer83" in="00:00:00.000" out="00:00:06.720">
   <property name="kdenlive:id">89</property>
  </entry>
  <blank length="00:00:38.600"/>
  <entry producer="producer120" in="00:00:00.000" out="00:00:10.880">
   <property name="kdenlive:id">92</property>
  </entry>
  <blank length="00:00:00.320"/>
  <entry producer="producer2" in="00:00:00.000" out="00:00:04.760">
   <property name="kdenlive:id">4</property>
  </entry>
  <blank length="00:00:05.960"/>
  <entry producer="producer4" in="00:00:00.000" out="00:00:02.280">
   <property name="kdenlive:id">6</property>
  </entry>
  <blank length="00:00:01.440"/>
  <entry producer="producer3" in="00:00:00.000" out="00:00:02.400">
   <property name="kdenlive:id">5</property>
  </entry>
  <blank length="00:00:00.320"/>
  <entry producer="producer53" in="00:00:00.000" out="00:00:01.880">
   <property name="kdenlive:id">59</property>
  </entry>
  <entry producer="producer49" in="00:00:00.000" out="00:00:02.120">
   <property name="kdenlive:id">55</property>
  </entry>
  <blank length="00:00:03.760"/>
  <entry producer="producer8" in="00:00:00.000" out="00:00:03.520">
   <property name="kdenlive:id">10</property>
  </entry>
  <entry producer="producer87" in="00:00:00.000" out="00:00:03.440">
   <property name="kdenlive:id">93</property>
  </entry>
  <blank length="00:00:01.000"/>
  <entry producer="producer88" in="00:00:00.000" out="00:00:05.560">
   <property name="kdenlive:id">94</property>
  </entry>
  <entry producer="producer42" in="00:00:00.000" out="00:00:10.080">
   <property name="kdenlive:id">48</property>
  </entry>
  <blank length="00:00:00.320"/>
  <entry producer="producer13" in="00:00:00.000" out="00:00:07.320">
   <property name="kdenlive:id">16</property>
   <filter id="filter38" in="00:00:05.720" out="00:00:07.320">
    <property name="start">1</property>
    <property name="mlt_service">brightness</property>
    <property name="kdenlive_id">fade_to_black</property>
    <property name="end">0</property>
    <property name="alpha">-1</property>
    <property name="kdenlive:collapsed">0</property>
   </filter>
  </entry>
  <blank length="00:00:37.200"/>
  <entry producer="producer89" in="00:00:00.000" out="00:00:04.960">
   <property name="kdenlive:id">95</property>
  </entry>
  <blank length="00:00:07.880"/>
  <entry producer="producer14" in="00:00:00.000" out="00:00:04.960">
   <property name="kdenlive:id">17</property>
  </entry>
  <blank length="00:00:03.200"/>
  <entry producer="producer68" in="00:00:00.000" out="00:00:04.960">
   <property name="kdenlive:id">74</property>
  </entry>
  <entry producer="producer12" in="00:00:00.000" out="00:00:04.400">
   <property name="kdenlive:id">15</property>
  </entry>
  <blank length="00:00:03.920"/>
  <entry producer="producer69" in="00:00:00.000" out="00:00:03.480">
   <property name="kdenlive:id">75</property>
   <filter id="filter39">
    <property name="version">1.2</property>
    <property name="mlt_service">frei0r.vertigo</property>
    <property name="kdenlive_id">frei0r.vertigo</property>
    <property name="PhaseIncrement">00:00:00.000=0.02</property>
    <property name="Zoomrate">00:00:00.000=0.202</property>
    <property name="kdenlive:collapsed">0</property>
   </filter>
  </entry>
  <blank length="00:00:00.680"/>
  <entry producer="producer121" in="00:00:00.000" out="00:00:04.440">
   <property name="kdenlive:id">84</property>
   <filter id="filter40">
    <property name="rotate_center">1</property>
    <property name="mlt_service">qtblend</property>
    <property name="kdenlive_id">qtblend</property>
    <property name="rect">00:00:00.000=-4342 -635 10608 5967 1.000000;00:00:00.360=-4345 -1770 10608 5967 1.000000;00:00:01.600=-4346 -3173 10608 5967 1.000000</property>
    <property name="rotation">00:00:00.000=0;00:00:00.360=0;00:00:01.600=0</property>
    <property name="compositing">0</property>
    <property name="distort">0</property>
    <property name="kdenlive:collapsed">0</property>
   </filter>
  </entry>
  <entry producer="producer122" in="00:01:32.120" out="00:02:03.680">
   <property name="kdenlive:id">20</property>
   <filter id="filter41">
    <property name="rotate_center">1</property>
    <property name="mlt_service">qtblend</property>
    <property name="kdenlive_id">qtblend</property>
    <property name="rect">00:01:32.120=0 0 1920 984 1.000000</property>
    <property name="rotation">00:01:32.120=0</property>
    <property name="compositing">0</property>
    <property name="distort">0</property>
    <property name="kdenlive:collapsed">0</property>
   </filter>
  </entry>
  <blank length="00:00:02.760"/>
  <entry producer="producer90" in="00:00:00.000" out="00:00:04.960">
   <property name="kdenlive:id">96</property>
  </entry>
  <blank length="00:00:41.040"/>
  <entry producer="producer58" in="00:00:00.000" out="00:00:06.840">
   <property name="kdenlive:id">64</property>
  </entry>
  <blank length="00:00:47.160"/>
  <entry producer="producer93" in="00:00:00.000" out="00:00:04.960">
   <property name="kdenlive:id">99</property>
  </entry>
  <blank length="00:00:11.200"/>
  <entry producer="producer123" in="00:06:40.160" out="00:06:53.720">
   <property name="kdenlive:id">20</property>
   <filter id="filter42">
    <property name="rotate_center">1</property>
    <property name="mlt_service">qtblend</property>
    <property name="kdenlive_id">qtblend</property>
    <property name="rect">00:06:40.160=0 0 1920 984 1.000000</property>
    <property name="rotation">00:06:40.160=0</property>
    <property name="compositing">0</property>
    <property name="distort">0</property>
    <property name="kdenlive:collapsed">0</property>
   </filter>
  </entry>
  <blank length="00:00:10.040"/>
  <entry producer="producer93" in="00:00:00.000" out="00:00:04.960">
   <property name="kdenlive:id">99</property>
  </entry>
  <blank length="00:00:11.760"/>
  <entry producer="producer94" in="00:00:00.000" out="00:00:04.960">
   <property name="kdenlive:id">100</property>
  </entry>
  <blank length="00:00:01.200"/>
  <entry producer="producer66" in="00:00:00.000" out="00:00:04.960">
   <property name="kdenlive:id">72</property>
   <filter id="filter43">
    <property name="rotate_center">1</property>
    <property name="mlt_service">qtblend</property>
    <property name="kdenlive_id">qtblend</property>
    <property name="rect">00:00:00.000=573 322 771 433 1.000000;00:00:00.280~=573 322 771 433 1.000000;00:00:04.960=1149 322 771 433 1.000000</property>
    <property name="rotation">00:00:00.000=0;00:00:00.280~=0;00:00:04.960=305</property>
    <property name="compositing">0</property>
    <property name="distort">0</property>
    <property name="kdenlive:collapsed">0</property>
   </filter>
  </entry>
  <blank length="00:01:00.960"/>
  <entry producer="producer55" in="00:00:00.000" out="00:00:02.120">
   <property name="kdenlive:id">61</property>
  </entry>
  <entry producer="producer122" in="00:02:08.760" out="00:02:17.040">
   <property name="kdenlive:id">20</property>
   <filter id="filter44">
    <property name="rotate_center">1</property>
    <property name="mlt_service">qtblend</property>
    <property name="kdenlive_id">qtblend</property>
    <property name="rect">00:02:08.760=0 0 1920 984 1.000000</property>
    <property name="rotation">00:02:08.760=0</property>
    <property name="compositing">0</property>
    <property name="distort">0</property>
    <property name="kdenlive:collapsed">0</property>
   </filter>
  </entry>
  <blank length="00:00:49.400"/>
  <entry producer="producer60" in="00:00:00.000" out="00:00:03.840">
   <property name="kdenlive:id">66</property>
   <filter id="filter45" in="00:00:02.560" out="00:00:03.840">
    <property name="start">1</property>
    <property name="mlt_service">brightness</property>
    <property name="kdenlive_id">fade_to_black</property>
    <property name="end">0</property>
    <property name="alpha">-1</property>
   </filter>
  </entry>
  <blank length="00:01:10.960"/>
  <entry producer="producer50" in="00:00:00.000" out="00:00:04.960">
   <property name="kdenlive:id">56</property>
  </entry>
  <entry producer="producer49" in="00:00:00.000" out="00:00:04.960">
   <property name="kdenlive:id">55</property>
  </entry>
  <entry producer="producer48" in="00:00:00.000" out="00:00:06.200">
   <property name="kdenlive:id">54</property>
  </entry>
  <blank length="00:00:03.560"/>
  <entry producer="producer7" in="00:00:00.000" out="00:00:09.720">
   <property name="kdenlive:id">9</property>
  </entry>
  <blank length="00:00:03.280"/>
  <entry producer="producer67" in="00:00:00.000" out="00:00:02.800">
   <property name="kdenlive:id">73</property>
   <property name="kdenlive:activeeffect">2</property>
   <filter id="filter46">
    <property name="rotate_center">1</property>
    <property name="mlt_service">qtblend</property>
    <property name="kdenlive_id">qtblend</property>
    <property name="rect">00:00:00.000=435 244 1047 588 1.000000</property>
    <property name="rotation">00:00:00.000=0</property>
    <property name="compositing">0</property>
    <property name="distort">0</property>
    <property name="kdenlive:collapsed">0</property>
   </filter>
   <filter id="filter47">
    <property name="version">0.9</property>
    <property name="mlt_service">frei0r.sigmoidaltransfer</property>
    <property name="kdenlive_id">frei0r.sigmoidaltransfer</property>
    <property name="brightness">00:00:00.000=0.96</property>
    <property name="sharpness">00:00:00.000=0.51</property>
    <property name="kdenlive:collapsed">0</property>
   </filter>
   <filter id="filter48">
    <property name="version">0.1</property>
    <property name="mlt_service">frei0r.colorize</property>
    <property name="kdenlive_id">frei0r.colorize</property>
    <property name="hue">00:00:00.000=1;00:00:01.400=0.313889</property>
    <property name="saturation">00:00:00.000=0.672222;00:00:01.400=0.672222</property>
    <property name="lightness">00:00:00.000=0.677778;00:00:01.400=0.677778</property>
    <property name="kdenlive:collapsed">0</property>
   </filter>
  </entry>
  <blank length="00:00:07.880"/>
  <entry producer="producer13" in="00:00:00.000" out="00:00:02.800">
   <property name="kdenlive:id">16</property>
  </entry>
  <blank length="00:00:03.760"/>
  <entry producer="producer98" in="00:00:00.000" out="00:00:05.480">
   <property name="kdenlive:id">104</property>
  </entry>
  <blank length="00:00:08.520"/>
  <entry producer="producer35" in="00:00:00.000" out="00:00:04.960">
   <property name="kdenlive:id">41</property>
  </entry>
  <blank length="00:00:04.960"/>
  <entry producer="producer100" in="00:00:00.000" out="00:00:04.960">
   <property name="kdenlive:id">106</property>
   <filter id="filter49">
    <property name="rotate_center">1</property>
    <property name="mlt_service">qtblend</property>
    <property name="kdenlive_id">qtblend</property>
    <property name="rect">00:00:00.000=-1144 28 4204 2364 1.000000;00:00:00.360=-1144 28 4204 2364 1.000000;00:00:01.600=-1144 -1372 4204 2364 1.000000</property>
    <property name="rotation">00:00:00.000=0;00:00:00.360=0;00:00:01.600=0</property>
    <property name="compositing">0</property>
    <property name="distort">0</property>
    <property name="kdenlive:collapsed">0</property>
   </filter>
  </entry>
  <entry producer="producer101" in="00:00:00.000" out="00:00:04.960">
   <property name="kdenlive:id">107</property>
   <filter id="filter50">
    <property name="rotate_center">1</property>
    <property name="mlt_service">qtblend</property>
    <property name="kdenlive_id">qtblend</property>
    <property name="rect">00:00:00.000=-3917 9 9751 5484 1.000000;00:00:01.560=-3917 -1528 9752 5485 1.000000;00:00:04.680=-3917 -2932 9751 5484 1.000000</property>
    <property name="rotation">00:00:00.000=0;00:00:01.560=0;00:00:04.680=0</property>
    <property name="compositing">0</property>
    <property name="distort">0</property>
    <property name="kdenlive:collapsed">0</property>
   </filter>
  </entry>
  <entry producer="producer102" in="00:00:00.000" out="00:00:04.960">
   <property name="kdenlive:id">108</property>
   <filter id="filter51">
    <property name="rotate_center">1</property>
    <property name="mlt_service">qtblend</property>
    <property name="kdenlive_id">qtblend</property>
    <property name="rect">00:00:00.000=-3917 9 9751 5484 1.000000;00:00:01.560=-3917 -1528 9752 5485 1.000000;00:00:04.680=-3917 -2932 9751 5484 1.000000</property>
    <property name="rotation">00:00:00.000=0;00:00:01.560=0;00:00:04.680=0</property>
    <property name="compositing">0</property>
    <property name="distort">0</property>
    <property name="kdenlive:collapsed">0</property>
   </filter>
  </entry>
  <entry producer="producer99" in="00:00:00.000" out="00:00:02.040">
   <property name="kdenlive:id">105</property>
  </entry>
  <blank length="00:00:04.280"/>
  <entry producer="producer54" in="00:00:00.000" out="00:00:04.440">
   <property name="kdenlive:id">60</property>
  </entry>
  <blank length="00:00:05.920"/>
  <entry producer="producer56" in="00:00:00.000" out="00:00:05.280">
   <property name="kdenlive:id">62</property>
   <filter id="filter52">
    <property name="rotate_center">1</property>
    <property name="mlt_service">qtblend</property>
    <property name="kdenlive_id">qtblend</property>
    <property name="rect">00:00:00.000=-295 -169 2503 1407 1.000000</property>
    <property name="rotation">00:00:00.000=0</property>
    <property name="compositing">0</property>
    <property name="distort">0</property>
    <property name="kdenlive:collapsed">0</property>
   </filter>
   <filter id="filter53" out="00:00:01.120">
    <property name="start">0</property>
    <property name="mlt_service">brightness</property>
    <property name="kdenlive_id">fade_from_black</property>
    <property name="end">1</property>
    <property name="alpha">-1</property>
   </filter>
  </entry>
  <blank length="00:00:03.480"/>
  <entry producer="producer75" in="00:00:00.000" out="00:00:04.960">
   <property name="kdenlive:id">81</property>
   <filter id="filter54">
    <property name="rotate_center">1</property>
    <property name="mlt_service">qtblend</property>
    <property name="kdenlive_id">qtblend</property>
    <property name="rect">00:00:00.000=-295 -169 2503 1407 1.000000</property>
    <property name="rotation">00:00:00.000=0</property>
    <property name="compositing">0</property>
    <property name="distort">0</property>
    <property name="kdenlive:collapsed">0</property>
   </filter>
  </entry>
  <blank length="00:00:16.320"/>
  <entry producer="producer33" in="00:00:00.000" out="00:00:04.960">
   <property name="kdenlive:id">39</property>
  </entry>
  <blank length="00:00:09.560"/>
  <entry producer="producer103" in="00:00:00.000" out="00:00:07.480">
   <property name="kdenlive:id">109</property>
  </entry>
  <blank length="00:00:28.800"/>
  <entry producer="producer105" in="00:00:00.000" out="00:00:01.200">
   <property name="kdenlive:id">111</property>
  </entry>
  <blank length="00:00:31.640"/>
  <entry producer="producer106" in="00:00:00.000" out="00:00:04.960">
   <property name="kdenlive:id">112</property>
  </entry>
  <blank length="00:00:22.200"/>
  <entry producer="producer108" in="00:00:00.000" out="00:00:10.480">
   <property name="kdenlive:id">114</property>
  </entry>
  <blank length="00:00:16.480"/>
  <entry producer="producer48" in="00:00:00.000" out="00:00:02.640">
   <property name="kdenlive:id">54</property>
  </entry>
  <blank length="00:00:03.440"/>
  <entry producer="producer110" in="00:00:00.000" out="00:00:01.520">
   <property name="kdenlive:id">116</property>
  </entry>
 </playlist>
 <playlist id="playlist7"/>
 <tractor id="tractor3" in="00:00:00.000" out="00:17:52.240">
  <property name="kdenlive:trackheight">69</property>
  <property name="kdenlive:timeline_active">1</property>
  <property name="kdenlive:collapsed">0</property>
  <property name="kdenlive:thumbs_format"/>
  <property name="kdenlive:audio_rec"/>
  <track hide="audio" producer="playlist6"/>
  <track hide="audio" producer="playlist7"/>
 </tractor>
 <playlist id="timeline_preview"/>
 <tractor id="tractor4" in="00:00:00.000" out="00:38:15.280">
  <track producer="black_track"/>
  <track producer="tractor0"/>
  <track producer="tractor1"/>
  <track producer="tractor2"/>
  <track producer="tractor3"/>
  <track hide="both" producer="timeline_preview"/>
  <transition id="transition0">
   <property name="a_track">0</property>
   <property name="b_track">1</property>
   <property name="mlt_service">mix</property>
   <property name="kdenlive_id">mix</property>
   <property name="internal_added">237</property>
   <property name="always_active">1</property>
   <property name="accepts_blanks">1</property>
   <property name="sum">1</property>
  </transition>
  <transition id="transition1">
   <property name="a_track">0</property>
   <property name="b_track">2</property>
   <property name="mlt_service">mix</property>
   <property name="kdenlive_id">mix</property>
   <property name="internal_added">237</property>
   <property name="always_active">1</property>
   <property name="accepts_blanks">1</property>
   <property name="sum">1</property>
  </transition>
  <transition id="transition2" in="00:17:44.600" out="00:17:45.240">
   <property name="a_track">3</property>
   <property name="b_track">4</property>
   <property name="geometry">00:00:00.000=0% 0% 100% 100% 0%;00:00:00.640=0% 0% 100% 100% 100%</property>
   <property name="factory">loader</property>
   <property name="aligned">0</property>
   <property name="progressive">1</property>
   <property name="mlt_service">composite</property>
   <property name="kdenlive_id">wipe</property>
   <property name="softness">0.36</property>
   <property name="luma">/usr/share/kdenlive/lumas/HD/curtain.pgm</property>
   <property name="luma_invert">1</property>
   <property name="fill">1</property>
  </transition>
  <transition id="transition3" in="00:15:47.480" out="00:15:48.680">
   <property name="a_track">3</property>
   <property name="b_track">4</property>
   <property name="geometry">00:00:00.000=0% 0% 100% 100% 100%;00:00:01.040=0% 0% 100% 100% 0%</property>
   <property name="factory">loader</property>
   <property name="aligned">0</property>
   <property name="progressive">1</property>
   <property name="mlt_service">composite</property>
   <property name="kdenlive_id">wipe</property>
   <property name="softness">0</property>
   <property name="luma"/>
   <property name="luma_invert">0</property>
   <property name="fill">1</property>
  </transition>
  <transition id="transition4" in="00:15:09.320" out="00:15:10.280">
   <property name="a_track">3</property>
   <property name="b_track">4</property>
   <property name="geometry">00:00:00.000=0% 0% 100% 100% 100%;00:00:00.960=0% 0% 100% 100% 0%</property>
   <property name="factory">loader</property>
   <property name="aligned">0</property>
   <property name="progressive">1</property>
   <property name="mlt_service">composite</property>
   <property name="kdenlive_id">wipe</property>
   <property name="softness">0.74</property>
   <property name="luma">/usr/share/kdenlive/lumas/HD/spiral.pgm</property>
   <property name="luma_invert">0</property>
   <property name="fill">1</property>
  </transition>
  <transition id="transition5" in="00:11:55.760" out="00:11:56.640">
   <property name="a_track">3</property>
   <property name="b_track">4</property>
   <property name="geometry">00:00:00.000=0% 0% 100% 100% 0%;00:00:00.880=0% 0% 100% 100% 100%</property>
   <property name="factory">loader</property>
   <property name="aligned">0</property>
   <property name="progressive">1</property>
   <property name="mlt_service">composite</property>
   <property name="kdenlive_id">wipe</property>
   <property name="softness">0</property>
   <property name="luma">/usr/share/kdenlive/lumas/HD/radial-bars.pgm</property>
   <property name="luma_invert">0</property>
   <property name="fill">1</property>
  </transition>
  <transition id="transition6" in="00:04:26.560" out="00:04:27.480">
   <property name="a_track">3</property>
   <property name="b_track">4</property>
   <property name="geometry">00:00:00.000=0% 0% 100% 100% 0%;00:00:00.920=0% 0% 100% 100% 100%</property>
   <property name="factory">loader</property>
   <property name="aligned">0</property>
   <property name="progressive">1</property>
   <property name="mlt_service">composite</property>
   <property name="kdenlive_id">wipe</property>
   <property name="softness">0</property>
   <property name="luma"/>
   <property name="luma_invert">0</property>
   <property name="fill">1</property>
  </transition>
  <transition id="transition7" in="00:17:50.720" out="00:17:52.240">
   <property name="a_track">3</property>
   <property name="b_track">4</property>
   <property name="version">0.9</property>
   <property name="mlt_service">frei0r.cairoblend</property>
   <property name="kdenlive_id">frei0r.cairoblend</property>
   <property name="0">00:00:00.000=100;00:00:01.040=1</property>
   <property name="1">difference</property>
   <property name="force_track">1</property>
  </transition>
  <transition id="transition8" in="00:15:01.000" out="00:15:01.800">
   <property name="a_track">3</property>
   <property name="b_track">4</property>
   <property name="geometry">00:00:00.000=0% 0% 100% 100% 100%;00:00:00.800=0% 0% 100% 100% 0%</property>
   <property name="factory">loader</property>
   <property name="aligned">0</property>
   <property name="progressive">1</property>
   <property name="mlt_service">composite</property>
   <property name="kdenlive_id">wipe</property>
   <property name="softness">0</property>
   <property name="luma"/>
   <property name="luma_invert">0</property>
   <property name="fill">1</property>
  </transition>
  <transition id="transition9" in="00:04:30.320" out="00:04:30.760">
   <property name="a_track">3</property>
   <property name="b_track">4</property>
   <property name="geometry">00:00:00.000=0% 0% 100% 100% 0%;00:00:00.440=0% 0% 100% 100% 100%</property>
   <property name="factory">loader</property>
   <property name="aligned">0</property>
   <property name="progressive">1</property>
   <property name="mlt_service">composite</property>
   <property name="kdenlive_id">wipe</property>
   <property name="softness">0</property>
   <property name="luma"/>
   <property name="luma_invert">0</property>
   <property name="fill">1</property>
  </transition>
  <transition id="transition10" in="00:15:26.640" out="00:15:27.640">
   <property name="a_track">3</property>
   <property name="b_track">4</property>
   <property name="geometry">00:00:00.000=0% 0% 100% 100% 0%;00:00:01.000=0% 0% 100% 100% 100%</property>
   <property name="factory">loader</property>
   <property name="aligned">0</property>
   <property name="progressive">1</property>
   <property name="mlt_service">composite</property>
   <property name="kdenlive_id">wipe</property>
   <property name="softness">0</property>
   <property name="luma"/>
   <property name="luma_invert">0</property>
   <property name="fill">1</property>
  </transition>
  <transition id="transition11" in="00:15:05.320" out="00:15:05.960">
   <property name="a_track">3</property>
   <property name="b_track">4</property>
   <property name="factory">loader</property>
   <property name="resource">/usr/share/kdenlive/lumas/HD/square2-bars.pgm</property>
   <property name="mlt_service">luma</property>
   <property name="kdenlive_id">dissolve</property>
   <property name="softness">0.43</property>
   <property name="reverse">0</property>
  </transition>
  <transition id="transition12" in="00:04:40.920" out="00:04:41.400">
   <property name="a_track">3</property>
   <property name="b_track">4</property>
   <property name="geometry">00:00:00.000=0% 0% 100% 100% 0%;00:00:00.480=0% 0% 100% 100% 100%</property>
   <property name="factory">loader</property>
   <property name="aligned">0</property>
   <property name="progressive">1</property>
   <property name="mlt_service">composite</property>
   <property name="kdenlive_id">wipe</property>
   <property name="softness">0</property>
   <property name="luma"/>
   <property name="luma_invert">0</property>
   <property name="fill">1</property>
  </transition>
  <transition id="transition13" in="00:04:04.560" out="00:04:05.600">
   <property name="a_track">3</property>
   <property name="b_track">4</property>
   <property name="geometry">00:00:00.000=0% 0% 100% 100% 0%;00:00:01.040=0% 0% 100% 100% 100%</property>
   <property name="factory">loader</property>
   <property name="aligned">0</property>
   <property name="progressive">1</property>
   <property name="mlt_service">composite</property>
   <property name="kdenlive_id">wipe</property>
   <property name="softness">0</property>
   <property name="luma"/>
   <property name="luma_invert">0</property>
   <property name="fill">1</property>
  </transition>
  <transition id="transition14" in="00:00:24.720" out="00:00:25.680">
   <property name="a_track">3</property>
   <property name="b_track">4</property>
   <property name="factory">loader</property>
   <property name="resource">/usr/share/kdenlive/lumas/HD/curtain.pgm</property>
   <property name="mlt_service">luma</property>
   <property name="kdenlive_id">dissolve</property>
   <property name="softness">0.41</property>
   <property name="reverse">0</property>
  </transition>
  <transition id="transition15">
   <property name="a_track">0</property>
   <property name="b_track">3</property>
   <property name="compositing">0</property>
   <property name="distort">0</property>
   <property name="rotate_center">0</property>
   <property name="mlt_service">qtblend</property>
   <property name="kdenlive_id">qtblend</property>
   <property name="internal_added">237</property>
   <property name="always_active">1</property>
  </transition>
  <transition id="transition16">
   <property name="a_track">0</property>
   <property name="b_track">4</property>
   <property name="compositing">0</property>
   <property name="distort">0</property>
   <property name="rotate_center">0</property>
   <property name="mlt_service">qtblend</property>
   <property name="kdenlive_id">qtblend</property>
   <property name="internal_added">237</property>
   <property name="always_active">1</property>
  </transition>
  <filter id="filter55">
   <property name="window">75</property>
   <property name="max_gain">20dB</property>
   <property name="mlt_service">volume</property>
   <property name="internal_added">237</property>
   <property name="disable">1</property>
  </filter>
  <filter id="filter56">
   <property name="channel">-1</property>
   <property name="mlt_service">panner</property>
   <property name="internal_added">237</property>
   <property name="start">0.5</property>
   <property name="disable">1</property>
  </filter>
  <filter id="filter57">
   <property name="mlt_service">avfilter.subtitles</property>
   <property name="internal_added">237</property>
   <property name="av.filename">/tmp/1630571404622.srt</property>
  </filter>
  <filter id="filter58">
   <property name="iec_scale">0</property>
   <property name="mlt_service">audiolevel</property>
   <property name="disable">1</property>
  </filter>
 </tractor>
</mlt>
