<?xml version="1.0" encoding="UTF-8" standalone="no"?>
<svg
   version="1.0"
   width="512pt"
   height="222.2533pt"
   viewBox="0 0 512 222.2533"
   preserveAspectRatio="xMidYMid"
   id="svg20"
   sodipodi:docname="image.svg"
   inkscape:version="1.2.1 (9c6d41e410, 2022-07-14)"
   xmlns:inkscape="http://www.inkscape.org/namespaces/inkscape"
   xmlns:sodipodi="http://sodipodi.sourceforge.net/DTD/sodipodi-0.dtd"
   xmlns="http://www.w3.org/2000/svg"
   xmlns:svg="http://www.w3.org/2000/svg">
  <defs
     id="defs24">
    <clipPath
       clipPathUnits="userSpaceOnUse"
       id="clipPath922">
      <path
         id="path924"
         style="fill:#ffffff;stroke-width:127.181;stroke-linejoin:round"
         d="M 0,3966.1916 H 5120 V 1506.6226 H 0 Z" />
    </clipPath>
  </defs>
  <sodipodi:namedview
     id="namedview22"
     pagecolor="#ffffff"
     bordercolor="#666666"
     borderopacity="1.0"
     inkscape:showpageshadow="2"
     inkscape:pageopacity="0.0"
     inkscape:pagecheckerboard="0"
     inkscape:deskcolor="#d1d1d1"
     inkscape:document-units="pt"
     showgrid="false"
     inkscape:zoom="1.1103516"
     inkscape:cx="329.62533"
     inkscape:cy="136.89358"
     inkscape:window-width="1920"
     inkscape:window-height="1019"
     inkscape:window-x="0"
     inkscape:window-y="0"
     inkscape:window-maximized="1"
     inkscape:current-layer="svg20" />
  <metadata
     id="metadata2">
Saved by Artshop
</metadata>
  <g
     transform="matrix(0.1,0,0,-0.0903627,0,358.39578)"
     fill="#000000"
     stroke="none"
     id="g18"
     clip-path="url(#clipPath922)">
    <path
       d="M 0,2560 V 0 H 2560 5120 V 2560 5120 H 2560 0 Z m 2600,1600 c 0,-5 -7,-10 -15,-10 -8,0 -15,5 -15,10 0,6 7,10 15,10 8,0 15,-4 15,-10 z M 1550,3581 c 0,-6 -10,-17 -22,-25 -12,-9 -18,-16 -12,-16 6,0 19,7 30,15 31,23 126,2 109,-25 -5,-8 -520,-398 -581,-440 -133,-92 -654,-494 -654,-505 0,-8 24,-31 54,-52 30,-21 116,-85 192,-142 377,-284 357,-274 362,-175 2,45 -1,64 -13,74 -39,32 -19,50 58,50 88,0 95,-5 56,-37 -38,-32 -43,-127 -8,-171 l 20,-26 -23,-18 c -23,-18 -23,-18 -3,-33 11,-8 56,-42 100,-76 44,-33 159,-119 255,-191 96,-71 177,-131 179,-134 8,-8 -22,-34 -40,-34 -10,0 -150,98 -311,218 -161,119 -430,319 -597,442 -368,272 -401,298 -401,309 0,5 109,92 242,193 134,102 288,220 343,262 55,43 154,118 220,169 143,109 125,95 205,159 36,29 70,58 75,63 6,6 31,27 57,46 31,22 47,42 48,56 0,12 10,29 22,37 26,18 38,20 38,7 z m 2263,-209 c 345,-258 563,-420 822,-611 260,-192 251,-162 85,-288 -409,-312 -532,-406 -629,-481 -252,-195 -334,-258 -359,-277 -15,-11 -48,-37 -73,-57 -65,-54 -149,-61 -149,-14 0,8 123,105 273,217 149,111 274,204 276,206 11,8 -11,12 -97,19 -89,7 -119,22 -76,38 12,5 13,10 6,19 -13,16 -23,90 -14,105 23,36 232,48 232,13 0,-25 -19,-31 -90,-31 -56,0 -82,-11 -59,-25 6,-4 38,-7 72,-7 67,-1 87,-10 87,-39 0,-34 35,-21 120,44 45,34 106,79 134,100 161,118 360,274 363,283 3,8 -639,501 -761,584 -44,30 -432,324 -454,344 -22,19 -22,21 -6,33 31,22 40,17 297,-175 z m -2343,148 c 0,-5 -9,-10 -21,-10 -11,0 -17,5 -14,10 3,6 13,10 21,10 8,0 14,-4 14,-10 z m -40,-24 c 0,-3 -4,-8 -10,-11 -5,-3 -10,-1 -10,4 0,6 5,11 10,11 6,0 10,-2 10,-4 z m 3370,-446 c 0,-5 -4,-10 -10,-10 -5,0 -10,5 -10,10 0,6 5,10 10,10 6,0 10,-4 10,-10 z M 260,2966 c 0,-3 -4,-8 -10,-11 -5,-3 -10,-1 -10,4 0,6 5,11 10,11 6,0 10,-2 10,-4 z m 4477,-42 c -10,-10 -48,27 -41,38 4,6 16,1 27,-11 12,-11 18,-24 14,-27 z m 183,36 c 0,-5 -4,-10 -9,-10 -6,0 -13,5 -16,10 -3,6 1,10 9,10 9,0 16,-4 16,-10 z M 454,2946 c -8,-20 -34,-29 -34,-12 0,13 13,23 32,25 4,1 5,-5 2,-13 z m 1000,-62 c 9,-8 16,-28 16,-43 0,-39 17,-51 76,-51 60,0 82,-17 64,-49 -7,-13 -21,-21 -38,-21 -79,-1 -82,-8 -52,-146 11,-50 12,-52 52,-58 56,-9 59,-12 45,-44 -16,-38 -24,-42 -93,-42 -95,0 -118,33 -139,197 -12,90 1,86 -275,89 -260,3 -274,6 -236,47 l 25,27 h 213 c 238,0 242,1 233,53 -11,57 65,85 109,41 z m 128,-1 c 25,-22 23,-52 -4,-62 -31,-11 -58,-2 -70,25 -21,45 34,73 74,37 z m 288,7 c 28,-15 60,-76 47,-89 -39,-39 -163,33 -143,84 6,17 67,20 96,5 z m 1500,-5 c 56,-18 -5,-85 -76,-85 -56,0 -58,-19 -4,-42 38,-16 39,-18 42,-70 3,-48 5,-53 28,-56 79,-11 33,-82 -53,-82 -109,0 -109,-13 1,-70 74,-38 69,-50 -22,-50 -48,0 -68,5 -108,30 -26,17 -51,30 -54,30 -3,0 -21,12 -41,27 l -35,27 -61,-33 c -34,-17 -80,-43 -102,-56 -42,-25 -202,-36 -234,-16 -34,22 25,71 84,71 30,0 66,5 82,11 45,17 9,29 -93,29 -50,0 -93,3 -97,6 -11,12 23,65 48,74 22,8 25,16 25,57 0,61 9,74 55,82 63,10 44,26 -37,31 -99,7 -119,69 -25,84 74,13 638,13 677,1 z m 241,5 c 23,-13 25,-43 4,-60 -13,-11 -13,-15 0,-33 11,-16 15,-53 15,-149 0,-144 16,-170 57,-90 18,33 25,37 63,40 65,5 74,-1 55,-37 -21,-41 -19,-51 9,-51 17,0 27,8 33,26 6,18 20,30 43,38 84,27 47,51 -85,54 -194,4 -185,62 11,62 56,0 105,4 108,9 10,16 -23,21 -125,21 -104,0 -135,20 -79,50 29,15 497,15 516,-1 34,-28 -1,-48 -94,-51 -120,-4 -107,-22 22,-28 115,-6 128,-10 101,-40 -15,-16 -33,-20 -114,-22 l -96,-3 -7,-35 c -15,-79 -17,-75 36,-78 71,-5 80,1 61,38 -21,41 -13,50 45,50 57,0 80,-28 80,-95 0,-80 13,-78 -495,-75 -254,1 -395,210 -250,370 14,15 14,18 0,30 -50,41 24,93 86,60 z m 572,-12 c 14,-10 37,-18 50,-18 35,0 52,-23 32,-44 -21,-21 -122,-22 -172,-1 -47,20 -208,20 -243,0 -35,-20 -144,-20 -165,1 -21,21 -3,44 34,44 15,0 31,4 37,9 36,35 376,42 427,9 z m -2899,4 c 24,-40 -22,-52 -194,-52 -176,0 -189,3 -164,38 16,23 345,35 358,14 z m 1197,-13 c 25,-25 18,-39 -86,-154 -38,-42 -73,-83 -77,-89 -4,-8 28,-43 88,-95 106,-92 108,-101 24,-101 -55,0 -61,3 -118,50 -33,28 -66,50 -73,50 -7,0 -33,-22 -59,-50 l -47,-50 h -86 c -113,0 -121,3 -102,41 19,35 43,49 88,49 33,0 117,71 117,98 0,5 -41,44 -90,87 -71,61 -89,82 -84,97 3,10 0,25 -6,33 -47,56 455,90 511,34 z m -588,-140 c 49,-91 -60,-107 -116,-17 -32,51 -21,63 58,67 27,1 34,-5 58,-50 z m -690,-49 c 17,-14 40,-20 74,-20 95,0 93,-72 -2,-83 -89,-10 -91,-57 -2,-57 143,0 98,-77 -48,-82 -341,-11 -398,1 -341,70 19,22 26,42 28,88 l 3,59 52,3 c 59,3 60,1 65,-88 3,-43 5,-45 32,-45 h 30 l -1,70 c -1,101 44,136 110,85 z m 713,-65 c 6,-14 -40,-149 -59,-172 -10,-14 -85,-17 -105,-5 -9,6 -6,23 13,72 14,35 25,69 25,76 0,39 113,65 126,29 z m 282,-297 c 2,-9 -5,-21 -16,-27 -25,-14 -58,9 -49,33 9,23 61,18 65,-6 z m 1300,0 c 4,-19 -30,-41 -52,-32 -17,7 -29,32 -20,45 10,17 68,6 72,-13 z m -1843,-6 c 6,-4 15,-16 21,-27 6,-11 25,-22 43,-25 41,-7 44,-23 5,-30 -45,-10 -54,-18 -54,-50 0,-31 22,-60 47,-60 38,0 1,-25 -41,-28 -59,-4 -76,9 -76,58 0,47 -8,70 -24,70 -38,0 -51,29 -18,40 17,7 32,16 32,20 0,26 44,48 65,32 z m 736,-2 c 10,-6 19,-17 19,-24 0,-16 22,-26 57,-26 36,0 23,-23 -19,-33 -59,-14 -63,-74 -6,-103 40,-21 26,-34 -36,-34 -64,0 -76,11 -76,73 0,46 -2,49 -35,63 -41,17 -39,29 5,37 16,4 30,12 30,20 0,31 29,44 61,27 z M 460,2240 c 0,-18 -22,-22 -37,-7 -21,21 -8,40 18,27 10,-6 19,-15 19,-20 z m 1724,17 c 14,-10 16,-25 14,-87 l -3,-75 h -30 -30 l -3,73 c -4,92 12,118 52,89 z m 1300,0 c 14,-10 16,-25 14,-87 l -3,-75 h -35 -35 l -3,75 c -3,72 8,100 38,100 3,0 14,-6 24,-13 z m 1266,0 c 0,-19 -21,-37 -42,-37 -26,0 -22,29 5,40 31,12 37,12 37,-3 z m -3454,-6 c 5,-6 7,-43 4,-83 l -5,-73 -37,-3 c -21,-2 -38,0 -39,5 -10,143 22,208 77,154 z m 163,-5 c 7,-9 11,-41 9,-83 l -3,-68 h -35 -35 l -3,58 c -3,57 -4,59 -39,74 -28,11 -33,17 -22,24 23,14 115,11 128,-5 z m 431,-46 c 10,-111 91,-116 100,-7 l 5,62 h 35 35 v -80 -80 l -40,2 c -22,1 -44,2 -50,2 -5,-1 -41,-1 -80,-2 l -70,-2 -3,69 c -5,118 58,151 68,36 z m 730,35 c 12,-31 15,-31 57,1 45,34 79,30 76,-10 -3,-42 -17,-51 -76,-51 h -52 l -5,-40 c -5,-37 -7,-40 -35,-40 h -30 l -3,69 c -4,97 40,144 68,71 z m 249,16 c 10,-6 12,-19 7,-45 -12,-62 40,-105 93,-76 48,25 19,100 -39,100 -54,0 -9,25 49,28 92,4 132,-78 69,-145 -25,-27 -202,-35 -226,-11 -46,46 -4,181 47,149 z m 316,-76 v -80 h -35 -35 l 2,72 c 2,85 6,95 41,91 27,-3 27,-4 27,-83 z m 163,76 c 9,-5 12,-29 10,-82 l -3,-74 h -30 c -30,0 -30,1 -33,58 -3,55 -4,58 -38,72 -20,8 -33,19 -29,25 7,12 104,13 123,1 z m 426,3 c 23,-9 20,-51 -3,-59 -11,-3 -35,3 -56,14 -40,21 -71,18 -85,-10 -15,-27 4,-69 32,-71 13,-1 30,-2 38,-4 8,-1 30,-2 48,-3 22,-1 32,-6 32,-16 0,-13 -16,-15 -107,-13 l -108,3 -3,74 c -2,53 1,77 10,82 15,10 179,12 202,3 z M 450,2070 c 0,-5 -4,-10 -10,-10 -5,0 -10,5 -10,10 0,6 5,10 10,10 6,0 10,-4 10,-10 z m 3230,-436 c 0,-8 -43,-43 -54,-44 -4,0 2,11 15,25 23,24 39,32 39,19 z"
       id="path4" />
    <path
       d="m 4006,2155 c -3,-10 -19,-15 -46,-15 -24,0 -39,-4 -35,-10 14,-23 114,6 115,33 0,13 -28,7 -34,-8 z"
       id="path6" />
    <path
       d="m 2900,2786 c 0,-11 25,-13 120,-13 95,0 120,2 120,13 0,11 -25,14 -120,14 -95,0 -120,-3 -120,-14 z"
       id="path8" />
    <path
       d="m 2823,2773 c -16,-6 -17,-29 -3,-38 11,-7 40,12 40,25 0,11 -22,18 -37,13 z"
       id="path10" />
    <path
       d="m 2824,2675 c -13,-34 3,-45 66,-45 64,0 85,15 60,45 -17,21 -118,21 -126,0 z"
       id="path12" />
    <path
       d="m 3082,2681 c -8,-5 -12,-17 -10,-27 5,-26 125,-34 134,-9 14,37 -80,64 -124,36 z"
       id="path14" />
    <path
       d="m 2105,2810 c -12,-20 107,-116 128,-103 29,17 79,84 73,98 -6,18 -190,22 -201,5 z"
       id="path16" />
  </g>
</svg>
