<?xml version='1.0' encoding='utf-8'?>
<mlt LC_NUMERIC="C" producer="main_bin" version="7.4.0" root="/home/duangsuse/Proj/tv/参动之画/嘉宾">
 <profile frame_rate_num="10" sample_aspect_num="1" display_aspect_den="466" colorspace="709" progressive="1" description="1582x932 10.00fps" display_aspect_num="791" frame_rate_den="1" width="1582" height="932" sample_aspect_den="1"/>
 <producer id="producer0" in="00:00:00.000" out="00:00:13.700">
  <property name="length">138</property>
  <property name="eof">pause</property>
  <property name="resource">/home/duangsuse/Proj/tv/参动之画/粒子/ls/Peek 2022-03-06 00-49.mp4</property>
  <property name="audio_index">-1</property>
  <property name="video_index">0</property>
  <property name="mute_on_pause">0</property>
  <property name="mlt_service">avformat-novalidate</property>
  <property name="seekable">1</property>
  <property name="aspect_ratio">1</property>
  <property name="kdenlive:clipname"/>
  <property name="kdenlive:folderid">-1</property>
  <property name="kdenlive:id">2</property>
  <property name="kdenlive:file_size">4337907</property>
  <property name="kdenlive:file_hash">b9c29431fe76f47464a1e81e36b649c2</property>
  <property name="meta.media.nb_streams">1</property>
  <property name="meta.media.0.stream.type">video</property>
  <property name="meta.media.0.stream.frame_rate">10</property>
  <property name="meta.media.0.stream.sample_aspect_ratio">0</property>
  <property name="meta.media.0.codec.width">1582</property>
  <property name="meta.media.0.codec.height">932</property>
  <property name="meta.media.0.codec.rotate">0</property>
  <property name="meta.media.0.codec.pix_fmt">yuv420p</property>
  <property name="meta.media.0.codec.sample_aspect_ratio">0</property>
  <property name="meta.media.0.codec.colorspace">709</property>
  <property name="meta.media.0.codec.name">h264</property>
  <property name="meta.media.0.codec.long_name">H.264 / AVC / MPEG-4 AVC / MPEG-4 part 10</property>
  <property name="meta.media.0.codec.bit_rate">2513288</property>
  <property name="meta.attr.0.stream.handler_name.markup">VideoHandler</property>
  <property name="meta.attr.0.stream.vendor_id.markup">[0][0][0][0]</property>
  <property name="meta.attr.major_brand.markup">isom</property>
  <property name="meta.attr.minor_version.markup">512</property>
  <property name="meta.attr.compatible_brands.markup">isomiso2avc1mp41</property>
  <property name="meta.attr.encoder.markup">Lavf58.76.100</property>
  <property name="meta.media.sample_aspect_num">1</property>
  <property name="meta.media.sample_aspect_den">1</property>
  <property name="meta.media.frame_rate_num">10</property>
  <property name="meta.media.frame_rate_den">1</property>
  <property name="meta.media.colorspace">709</property>
  <property name="meta.media.color_trc">2</property>
  <property name="meta.media.has_b_frames">2</property>
  <property name="meta.media.width">1582</property>
  <property name="meta.media.height">932</property>
  <property name="meta.media.color_range">mpeg</property>
  <property name="meta.media.top_field_first">0</property>
  <property name="meta.media.progressive">1</property>
 </producer>
 <producer id="producer1" in="00:00:00.000" out="00:00:15.300">
  <property name="length">154</property>
  <property name="eof">pause</property>
  <property name="resource">/home/duangsuse/Proj/tv/参动之画/粒子/ls/Peek 2022-03-06 00-48.mp4</property>
  <property name="audio_index">-1</property>
  <property name="video_index">0</property>
  <property name="mute_on_pause">0</property>
  <property name="mlt_service">avformat-novalidate</property>
  <property name="seekable">1</property>
  <property name="aspect_ratio">1</property>
  <property name="kdenlive:clipname"/>
  <property name="kdenlive:folderid">-1</property>
  <property name="kdenlive:id">3</property>
  <property name="kdenlive:file_size">84606</property>
  <property name="kdenlive:file_hash">6573e6817f7e3073d66fd68a3601dfbb</property>
  <property name="meta.media.nb_streams">1</property>
  <property name="meta.media.0.stream.type">video</property>
  <property name="meta.media.0.stream.frame_rate">10</property>
  <property name="meta.media.0.stream.sample_aspect_ratio">0</property>
  <property name="meta.media.0.codec.width">1582</property>
  <property name="meta.media.0.codec.height">932</property>
  <property name="meta.media.0.codec.rotate">0</property>
  <property name="meta.media.0.codec.pix_fmt">yuv420p</property>
  <property name="meta.media.0.codec.sample_aspect_ratio">0</property>
  <property name="meta.media.0.codec.colorspace">709</property>
  <property name="meta.media.0.codec.name">h264</property>
  <property name="meta.media.0.codec.long_name">H.264 / AVC / MPEG-4 AVC / MPEG-4 part 10</property>
  <property name="meta.media.0.codec.bit_rate">42565</property>
  <property name="meta.attr.0.stream.handler_name.markup">VideoHandler</property>
  <property name="meta.attr.0.stream.vendor_id.markup">[0][0][0][0]</property>
  <property name="meta.attr.major_brand.markup">isom</property>
  <property name="meta.attr.minor_version.markup">512</property>
  <property name="meta.attr.compatible_brands.markup">isomiso2avc1mp41</property>
  <property name="meta.attr.encoder.markup">Lavf58.76.100</property>
  <property name="meta.media.sample_aspect_num">1</property>
  <property name="meta.media.sample_aspect_den">1</property>
  <property name="meta.media.frame_rate_num">10</property>
  <property name="meta.media.frame_rate_den">1</property>
  <property name="meta.media.colorspace">709</property>
  <property name="meta.media.color_trc">2</property>
  <property name="meta.media.has_b_frames">2</property>
  <property name="meta.media.width">1582</property>
  <property name="meta.media.height">932</property>
  <property name="meta.media.color_range">mpeg</property>
  <property name="meta.media.top_field_first">0</property>
  <property name="meta.media.progressive">1</property>
 </producer>
 <producer id="producer2" in="00:00:00.000" out="00:00:13.900">
  <property name="length">140</property>
  <property name="eof">pause</property>
  <property name="resource">/home/duangsuse/Proj/tv/参动之画/粒子/ls/Peek 2022-03-06 00-47.mp4</property>
  <property name="audio_index">-1</property>
  <property name="video_index">0</property>
  <property name="mute_on_pause">0</property>
  <property name="mlt_service">avformat-novalidate</property>
  <property name="seekable">1</property>
  <property name="aspect_ratio">1</property>
  <property name="kdenlive:clipname"/>
  <property name="kdenlive:folderid">-1</property>
  <property name="kdenlive:id">4</property>
  <property name="kdenlive:file_size">70252</property>
  <property name="kdenlive:file_hash">be6d0498f2f98f3ffe110b0b6f4d0c78</property>
  <property name="meta.media.nb_streams">1</property>
  <property name="meta.media.0.stream.type">video</property>
  <property name="meta.media.0.stream.frame_rate">10</property>
  <property name="meta.media.0.stream.sample_aspect_ratio">0</property>
  <property name="meta.media.0.codec.width">1582</property>
  <property name="meta.media.0.codec.height">932</property>
  <property name="meta.media.0.codec.rotate">0</property>
  <property name="meta.media.0.codec.pix_fmt">yuv420p</property>
  <property name="meta.media.0.codec.sample_aspect_ratio">0</property>
  <property name="meta.media.0.codec.colorspace">709</property>
  <property name="meta.media.0.codec.name">h264</property>
  <property name="meta.media.0.codec.long_name">H.264 / AVC / MPEG-4 AVC / MPEG-4 part 10</property>
  <property name="meta.media.0.codec.bit_rate">38884</property>
  <property name="meta.attr.0.stream.handler_name.markup">VideoHandler</property>
  <property name="meta.attr.0.stream.vendor_id.markup">[0][0][0][0]</property>
  <property name="meta.attr.major_brand.markup">isom</property>
  <property name="meta.attr.minor_version.markup">512</property>
  <property name="meta.attr.compatible_brands.markup">isomiso2avc1mp41</property>
  <property name="meta.attr.encoder.markup">Lavf58.76.100</property>
  <property name="meta.media.sample_aspect_num">1</property>
  <property name="meta.media.sample_aspect_den">1</property>
  <property name="meta.media.frame_rate_num">10</property>
  <property name="meta.media.frame_rate_den">1</property>
  <property name="meta.media.colorspace">709</property>
  <property name="meta.media.color_trc">2</property>
  <property name="meta.media.has_b_frames">2</property>
  <property name="meta.media.width">1582</property>
  <property name="meta.media.height">932</property>
  <property name="meta.media.color_range">mpeg</property>
  <property name="meta.media.top_field_first">0</property>
  <property name="meta.media.progressive">1</property>
 </producer>
 <producer id="producer3" in="00:00:00.000" out="00:00:11.000">
  <property name="length">111</property>
  <property name="eof">pause</property>
  <property name="resource">/home/duangsuse/Proj/tv/参动之画/粒子/ls/Peek 2022-03-06 00-45.mp4</property>
  <property name="audio_index">-1</property>
  <property name="video_index">0</property>
  <property name="mute_on_pause">0</property>
  <property name="mlt_service">avformat-novalidate</property>
  <property name="seekable">1</property>
  <property name="aspect_ratio">1</property>
  <property name="kdenlive:clipname"/>
  <property name="kdenlive:folderid">-1</property>
  <property name="kdenlive:id">5</property>
  <property name="kdenlive:file_size">42083</property>
  <property name="kdenlive:file_hash">8731497bd491667689895e01ef6f96cf</property>
  <property name="meta.media.nb_streams">1</property>
  <property name="meta.media.0.stream.type">video</property>
  <property name="meta.media.0.stream.frame_rate">10</property>
  <property name="meta.media.0.stream.sample_aspect_ratio">0</property>
  <property name="meta.media.0.codec.width">1582</property>
  <property name="meta.media.0.codec.height">932</property>
  <property name="meta.media.0.codec.rotate">0</property>
  <property name="meta.media.0.codec.pix_fmt">yuv420p</property>
  <property name="meta.media.0.codec.sample_aspect_ratio">0</property>
  <property name="meta.media.0.codec.colorspace">709</property>
  <property name="meta.media.0.codec.name">h264</property>
  <property name="meta.media.0.codec.long_name">H.264 / AVC / MPEG-4 AVC / MPEG-4 part 10</property>
  <property name="meta.media.0.codec.bit_rate">28859</property>
  <property name="meta.attr.0.stream.handler_name.markup">VideoHandler</property>
  <property name="meta.attr.0.stream.vendor_id.markup">[0][0][0][0]</property>
  <property name="meta.attr.major_brand.markup">isom</property>
  <property name="meta.attr.minor_version.markup">512</property>
  <property name="meta.attr.compatible_brands.markup">isomiso2avc1mp41</property>
  <property name="meta.attr.encoder.markup">Lavf58.76.100</property>
  <property name="meta.media.sample_aspect_num">1</property>
  <property name="meta.media.sample_aspect_den">1</property>
  <property name="meta.media.frame_rate_num">10</property>
  <property name="meta.media.frame_rate_den">1</property>
  <property name="meta.media.colorspace">709</property>
  <property name="meta.media.color_trc">2</property>
  <property name="meta.media.has_b_frames">2</property>
  <property name="meta.media.width">1582</property>
  <property name="meta.media.height">932</property>
  <property name="meta.media.color_range">mpeg</property>
  <property name="meta.media.top_field_first">0</property>
  <property name="meta.media.progressive">1</property>
 </producer>
 <producer id="producer4" in="00:00:00.000" out="00:00:13.500">
  <property name="length">136</property>
  <property name="eof">pause</property>
  <property name="resource">/home/duangsuse/Proj/tv/参动之画/粒子/ls/Peek 2022-03-06 00-44.mp4</property>
  <property name="audio_index">-1</property>
  <property name="video_index">0</property>
  <property name="mute_on_pause">0</property>
  <property name="mlt_service">avformat-novalidate</property>
  <property name="seekable">1</property>
  <property name="aspect_ratio">1</property>
  <property name="kdenlive:clipname"/>
  <property name="kdenlive:folderid">-1</property>
  <property name="kdenlive:id">6</property>
  <property name="kdenlive:file_size">903270</property>
  <property name="kdenlive:file_hash">cc3fb4058d70522d078d6d104b03d72d</property>
  <property name="meta.media.nb_streams">1</property>
  <property name="meta.media.0.stream.type">video</property>
  <property name="meta.media.0.stream.frame_rate">10</property>
  <property name="meta.media.0.stream.sample_aspect_ratio">0</property>
  <property name="meta.media.0.codec.width">1582</property>
  <property name="meta.media.0.codec.height">932</property>
  <property name="meta.media.0.codec.rotate">0</property>
  <property name="meta.media.0.codec.pix_fmt">yuv420p</property>
  <property name="meta.media.0.codec.sample_aspect_ratio">0</property>
  <property name="meta.media.0.codec.colorspace">709</property>
  <property name="meta.media.0.codec.name">h264</property>
  <property name="meta.media.0.codec.long_name">H.264 / AVC / MPEG-4 AVC / MPEG-4 part 10</property>
  <property name="meta.media.0.codec.bit_rate">530005</property>
  <property name="meta.attr.0.stream.handler_name.markup">VideoHandler</property>
  <property name="meta.attr.0.stream.vendor_id.markup">[0][0][0][0]</property>
  <property name="meta.attr.major_brand.markup">isom</property>
  <property name="meta.attr.minor_version.markup">512</property>
  <property name="meta.attr.compatible_brands.markup">isomiso2avc1mp41</property>
  <property name="meta.attr.encoder.markup">Lavf58.76.100</property>
  <property name="meta.media.sample_aspect_num">1</property>
  <property name="meta.media.sample_aspect_den">1</property>
  <property name="meta.media.frame_rate_num">10</property>
  <property name="meta.media.frame_rate_den">1</property>
  <property name="meta.media.colorspace">709</property>
  <property name="meta.media.color_trc">2</property>
  <property name="meta.media.has_b_frames">2</property>
  <property name="meta.media.width">1582</property>
  <property name="meta.media.height">932</property>
  <property name="meta.media.color_range">mpeg</property>
  <property name="meta.media.top_field_first">0</property>
  <property name="meta.media.progressive">1</property>
 </producer>
 <producer id="producer5" in="00:00:00.000" out="00:00:12.800">
  <property name="length">129</property>
  <property name="eof">pause</property>
  <property name="resource">/home/duangsuse/Proj/tv/参动之画/粒子/ls/Peek 2022-03-06 00-43.mp4</property>
  <property name="audio_index">-1</property>
  <property name="video_index">0</property>
  <property name="mute_on_pause">0</property>
  <property name="mlt_service">avformat-novalidate</property>
  <property name="seekable">1</property>
  <property name="aspect_ratio">1</property>
  <property name="kdenlive:clipname"/>
  <property name="kdenlive:folderid">-1</property>
  <property name="kdenlive:id">7</property>
  <property name="kdenlive:file_size">17179034</property>
  <property name="kdenlive:file_hash">5917348a92797e9711ffcc7ca379f268</property>
  <property name="meta.media.nb_streams">1</property>
  <property name="meta.media.0.stream.type">video</property>
  <property name="meta.media.0.stream.frame_rate">10</property>
  <property name="meta.media.0.stream.sample_aspect_ratio">0</property>
  <property name="meta.media.0.codec.width">1582</property>
  <property name="meta.media.0.codec.height">932</property>
  <property name="meta.media.0.codec.rotate">0</property>
  <property name="meta.media.0.codec.pix_fmt">yuv420p</property>
  <property name="meta.media.0.codec.sample_aspect_ratio">0</property>
  <property name="meta.media.0.codec.colorspace">709</property>
  <property name="meta.media.0.codec.name">h264</property>
  <property name="meta.media.0.codec.long_name">H.264 / AVC / MPEG-4 AVC / MPEG-4 part 10</property>
  <property name="meta.media.0.codec.bit_rate">10652017</property>
  <property name="meta.attr.0.stream.handler_name.markup">VideoHandler</property>
  <property name="meta.attr.0.stream.vendor_id.markup">[0][0][0][0]</property>
  <property name="meta.attr.major_brand.markup">isom</property>
  <property name="meta.attr.minor_version.markup">512</property>
  <property name="meta.attr.compatible_brands.markup">isomiso2avc1mp41</property>
  <property name="meta.attr.encoder.markup">Lavf58.76.100</property>
  <property name="meta.media.sample_aspect_num">1</property>
  <property name="meta.media.sample_aspect_den">1</property>
  <property name="meta.media.frame_rate_num">10</property>
  <property name="meta.media.frame_rate_den">1</property>
  <property name="meta.media.colorspace">709</property>
  <property name="meta.media.color_trc">2</property>
  <property name="meta.media.has_b_frames">2</property>
  <property name="meta.media.width">1582</property>
  <property name="meta.media.height">932</property>
  <property name="meta.media.color_range">mpeg</property>
  <property name="meta.media.top_field_first">0</property>
  <property name="meta.media.progressive">1</property>
  <property name="kdenlive:activeeffect">0</property>
 </producer>
 <producer id="producer6" in="00:00:00.000" out="00:00:20.900">
  <property name="length">210</property>
  <property name="eof">pause</property>
  <property name="resource">/home/duangsuse/Proj/tv/参动之画/粒子/ls/Peek 2022-03-06 00-42.mp4</property>
  <property name="audio_index">-1</property>
  <property name="video_index">0</property>
  <property name="mute_on_pause">0</property>
  <property name="mlt_service">avformat-novalidate</property>
  <property name="seekable">1</property>
  <property name="aspect_ratio">1</property>
  <property name="kdenlive:clipname"/>
  <property name="kdenlive:folderid">-1</property>
  <property name="kdenlive:id">8</property>
  <property name="kdenlive:file_size">56437123</property>
  <property name="kdenlive:file_hash">ace481381eb7c80b89c5036f313cbf56</property>
  <property name="meta.media.nb_streams">1</property>
  <property name="meta.media.0.stream.type">video</property>
  <property name="meta.media.0.stream.frame_rate">10</property>
  <property name="meta.media.0.stream.sample_aspect_ratio">0</property>
  <property name="meta.media.0.codec.width">1582</property>
  <property name="meta.media.0.codec.height">932</property>
  <property name="meta.media.0.codec.rotate">0</property>
  <property name="meta.media.0.codec.pix_fmt">yuv420p</property>
  <property name="meta.media.0.codec.sample_aspect_ratio">0</property>
  <property name="meta.media.0.codec.colorspace">709</property>
  <property name="meta.media.0.codec.name">h264</property>
  <property name="meta.media.0.codec.long_name">H.264 / AVC / MPEG-4 AVC / MPEG-4 part 10</property>
  <property name="meta.media.0.codec.bit_rate">21498538</property>
  <property name="meta.attr.0.stream.handler_name.markup">VideoHandler</property>
  <property name="meta.attr.0.stream.vendor_id.markup">[0][0][0][0]</property>
  <property name="meta.attr.major_brand.markup">isom</property>
  <property name="meta.attr.minor_version.markup">512</property>
  <property name="meta.attr.compatible_brands.markup">isomiso2avc1mp41</property>
  <property name="meta.attr.encoder.markup">Lavf58.76.100</property>
  <property name="meta.media.sample_aspect_num">1</property>
  <property name="meta.media.sample_aspect_den">1</property>
  <property name="meta.media.frame_rate_num">10</property>
  <property name="meta.media.frame_rate_den">1</property>
  <property name="meta.media.colorspace">709</property>
  <property name="meta.media.color_trc">2</property>
  <property name="meta.media.has_b_frames">2</property>
  <property name="meta.media.width">1582</property>
  <property name="meta.media.height">932</property>
  <property name="meta.media.color_range">mpeg</property>
  <property name="meta.media.top_field_first">0</property>
  <property name="meta.media.progressive">1</property>
 </producer>
 <producer id="producer7" in="00:00:00.000" out="00:04:07.900">
  <property name="length">2480</property>
  <property name="eof">pause</property>
  <property name="resource">/home/duangsuse/Proj/tv/参动之画/粒子/ls/Peek 2022-03-06 00-39.mp4</property>
  <property name="audio_index">-1</property>
  <property name="video_index">0</property>
  <property name="mute_on_pause">0</property>
  <property name="mlt_service">avformat-novalidate</property>
  <property name="seekable">1</property>
  <property name="aspect_ratio">1</property>
  <property name="kdenlive:clipname"/>
  <property name="kdenlive:folderid">-1</property>
  <property name="kdenlive:id">9</property>
  <property name="kdenlive:file_size">3873469</property>
  <property name="kdenlive:file_hash">6952c7074c9845a025b60dda7fe4ab1c</property>
  <property name="meta.media.nb_streams">1</property>
  <property name="meta.media.0.stream.type">video</property>
  <property name="meta.media.0.stream.frame_rate">10</property>
  <property name="meta.media.0.stream.sample_aspect_ratio">0</property>
  <property name="meta.media.0.codec.width">1582</property>
  <property name="meta.media.0.codec.height">932</property>
  <property name="meta.media.0.codec.rotate">0</property>
  <property name="meta.media.0.codec.pix_fmt">yuv420p</property>
  <property name="meta.media.0.codec.sample_aspect_ratio">0</property>
  <property name="meta.media.0.codec.colorspace">709</property>
  <property name="meta.media.0.codec.name">h264</property>
  <property name="meta.media.0.codec.long_name">H.264 / AVC / MPEG-4 AVC / MPEG-4 part 10</property>
  <property name="meta.media.0.codec.bit_rate">123998</property>
  <property name="meta.attr.0.stream.handler_name.markup">VideoHandler</property>
  <property name="meta.attr.0.stream.vendor_id.markup">[0][0][0][0]</property>
  <property name="meta.attr.major_brand.markup">isom</property>
  <property name="meta.attr.minor_version.markup">512</property>
  <property name="meta.attr.compatible_brands.markup">isomiso2avc1mp41</property>
  <property name="meta.attr.encoder.markup">Lavf58.76.100</property>
  <property name="meta.media.sample_aspect_num">1</property>
  <property name="meta.media.sample_aspect_den">1</property>
  <property name="meta.media.frame_rate_num">10</property>
  <property name="meta.media.frame_rate_den">1</property>
  <property name="meta.media.colorspace">709</property>
  <property name="meta.media.color_trc">2</property>
  <property name="meta.media.has_b_frames">2</property>
  <property name="meta.media.width">1582</property>
  <property name="meta.media.height">932</property>
  <property name="meta.media.color_range">mpeg</property>
  <property name="meta.media.top_field_first">0</property>
  <property name="meta.media.progressive">1</property>
 </producer>
 <producer id="producer8" in="00:00:00.000" out="00:05:20.100">
  <property name="length">3202</property>
  <property name="eof">pause</property>
  <property name="resource">ls/0. 刻在我心底的名字.mp3</property>
  <property name="meta.media.nb_streams">1</property>
  <property name="meta.media.0.stream.type">audio</property>
  <property name="meta.media.0.codec.sample_fmt">fltp</property>
  <property name="meta.media.0.codec.sample_rate">48000</property>
  <property name="meta.media.0.codec.channels">2</property>
  <property name="meta.media.0.codec.name">mp3float</property>
  <property name="meta.media.0.codec.long_name">MP3 (MPEG audio layer 3)</property>
  <property name="meta.media.0.codec.bit_rate">128000</property>
  <property name="meta.attr.0.stream.encoder.markup">Lavc57.10</property>
  <property name="meta.attr.encoder.markup">Lavf57.83.100</property>
  <property name="seekable">1</property>
  <property name="audio_index">0</property>
  <property name="video_index">-1</property>
  <property name="mute_on_pause">1</property>
  <property name="mlt_service">avformat</property>
  <property name="kdenlive:clipname"/>
  <property name="kdenlive:folderid">-1</property>
  <property name="kdenlive:id">10</property>
  <property name="kdenlive:file_size">5123757</property>
  <property name="kdenlive:file_hash">fda74760175c5f1519f0f343dbd07e09</property>
  <property name="kdenlive:audio_max0">240</property>
 </producer>
 <producer id="producer9" in="00:00:00.000" out="00:05:28.100">
  <property name="length">3282</property>
  <property name="eof">pause</property>
  <property name="resource">ls/jb2.mp3</property>
  <property name="meta.media.nb_streams">1</property>
  <property name="meta.media.0.stream.type">audio</property>
  <property name="meta.media.0.codec.sample_fmt">fltp</property>
  <property name="meta.media.0.codec.sample_rate">48000</property>
  <property name="meta.media.0.codec.channels">2</property>
  <property name="meta.media.0.codec.name">mp3float</property>
  <property name="meta.media.0.codec.long_name">MP3 (MPEG audio layer 3)</property>
  <property name="meta.media.0.codec.bit_rate">179640</property>
  <property name="meta.attr.0.stream.encoder.markup">LAME3.100</property>
  <property name="meta.attr.ID.markup">8871441414</property>
  <property name="meta.attr.Part of a set.markup">0</property>
  <property name="meta.attr.Software.markup">Lavf58.17.101</property>
  <property name="meta.attr.genre.markup">Blues</property>
  <property name="meta.attr.track.markup">2</property>
  <property name="meta.attr.album.markup">嘉宾</property>
  <property name="seekable">1</property>
  <property name="audio_index">0</property>
  <property name="video_index">-1</property>
  <property name="mute_on_pause">1</property>
  <property name="mlt_service">avformat</property>
  <property name="kdenlive:clipname"/>
  <property name="kdenlive:folderid">-1</property>
  <property name="kdenlive:id">11</property>
  <property name="kdenlive:file_size">7370406</property>
  <property name="kdenlive:file_hash">3aaba4f865a6cf6ed3b683f64963e151</property>
  <property name="kdenlive:audio_max0">245</property>
 </producer>
 <producer id="producer10" in="00:00:00.000" out="00:00:04.900">
  <property name="length">50</property>
  <property name="eof">pause</property>
  <property name="resource"/>
  <property name="progressive">1</property>
  <property name="aspect_ratio">1</property>
  <property name="seekable">1</property>
  <property name="mlt_service">kdenlivetitle</property>
  <property name="kdenlive:duration">50</property>
  <property name="kdenlive:clipname">这两个人之间能有什么过去...</property>
  <property name="xmldata">&lt;kdenlivetitle duration="50" LC_NUMERIC="C" width="1582" height="932" out="49">
 &lt;item type="QGraphicsTextItem" z-index="0">
  &lt;position x="193" y="390">
   &lt;transform>1,0,0,0,1,0,0,0,1&lt;/transform>
  &lt;/position>
  &lt;content line-spacing="0" shadow="0;#64000000;3;3;3" font-underline="0" box-height="124" font-outline-color="152,106,68,255" font="文泉驿正黑" letter-spacing="0" font-pixel-size="92" font-italic="0" typewriter="0;2;1;0;0" alignment="2" font-weight="50" font-outline="0.5" box-width="1288" font-color="192,191,188,255">这两个人之间能有什么过去呢。&lt;/content>
 &lt;/item>
 &lt;startviewport rect="0,0,1582,932"/>
 &lt;endviewport rect="0,0,1582,932"/>
 &lt;background color="0,0,0,10"/>
&lt;/kdenlivetitle>
</property>
  <property name="kdenlive:folderid">-1</property>
  <property name="kdenlive:id">12</property>
  <property name="kdenlive:file_hash">cff9df34ab65d849ae7fd17d6dcbfbad</property>
  <property name="force_reload">0</property>
  <property name="meta.media.width">1582</property>
  <property name="meta.media.height">932</property>
 </producer>
 <producer id="producer11" in="00:00:00.000" out="00:00:04.900">
  <property name="length">50</property>
  <property name="eof">pause</property>
  <property name="progressive">1</property>
  <property name="aspect_ratio">1</property>
  <property name="seekable">1</property>
  <property name="mlt_service">kdenlivetitle</property>
  <property name="kdenlive:duration">50</property>
  <property name="kdenlive:clipname">我也不记得了，反正要毕业...</property>
  <property name="xmldata">&lt;kdenlivetitle duration="50" LC_NUMERIC="C" width="1582" height="932" out="49">
 &lt;item type="QGraphicsTextItem" z-index="0">
  &lt;position x="193" y="390">
   &lt;transform>1,0,0,0,1,0,0,0,1&lt;/transform>
  &lt;/position>
  &lt;content line-spacing="0" shadow="0;#64000000;3;3;3" font-underline="0" box-height="124" font-outline-color="152,106,68,255" font="文泉驿正黑" letter-spacing="0" font-pixel-size="92" font-italic="0" typewriter="0;2;1;0;0" alignment="2" font-weight="50" font-outline="0.5" box-width="1196" font-color="192,191,188,255">我也不记得了，反正要毕业了&lt;/content>
 &lt;/item>
 &lt;startviewport rect="0,0,1582,932"/>
 &lt;endviewport rect="0,0,1582,932"/>
 &lt;background color="0,0,0,10"/>
&lt;/kdenlivetitle>
</property>
  <property name="kdenlive:folderid">-1</property>
  <property name="kdenlive:id">13</property>
  <property name="kdenlive:file_hash">0917ff25f7838e8ebeb9df522a55a3f5</property>
  <property name="force_reload">0</property>
  <property name="meta.media.width">1582</property>
  <property name="meta.media.height">932</property>
 </producer>
 <producer id="producer12" in="00:00:00.000" out="00:00:04.900">
  <property name="length">50</property>
  <property name="eof">pause</property>
  <property name="progressive">1</property>
  <property name="aspect_ratio">1</property>
  <property name="seekable">1</property>
  <property name="mlt_service">kdenlivetitle</property>
  <property name="kdenlive:duration">50</property>
  <property name="kdenlive:clipname">那就这样吧？</property>
  <property name="xmldata">&lt;kdenlivetitle duration="50" LC_NUMERIC="C" width="1582" height="932" out="49">
 &lt;item type="QGraphicsTextItem" z-index="0">
  &lt;position x="193" y="390">
   &lt;transform>1,0,0,0,1,0,0,0,1&lt;/transform>
  &lt;/position>
  &lt;content line-spacing="0" shadow="0;#64000000;3;3;3" font-underline="0" box-height="124" font-outline-color="152,106,68,255" font="文泉驿正黑" letter-spacing="0" font-pixel-size="92" font-italic="0" typewriter="0;2;1;0;0" alignment="2" font-weight="50" font-outline="0.5" box-width="552" font-color="246,245,244,255">那就这样吧？&lt;/content>
 &lt;/item>
 &lt;startviewport rect="0,0,1582,932"/>
 &lt;endviewport rect="0,0,1582,932"/>
 &lt;background color="0,0,0,10"/>
&lt;/kdenlivetitle>
</property>
  <property name="kdenlive:folderid">-1</property>
  <property name="kdenlive:id">14</property>
  <property name="kdenlive:file_hash">e9dfed1ba1d7416ea22ebaff708e67b6</property>
  <property name="force_reload">0</property>
  <property name="meta.media.width">1582</property>
  <property name="meta.media.height">932</property>
 </producer>
 <producer id="producer13" in="00:00:00.000" out="00:00:04.900">
  <property name="length">50</property>
  <property name="eof">pause</property>
  <property name="resource"/>
  <property name="progressive">1</property>
  <property name="aspect_ratio">1</property>
  <property name="seekable">1</property>
  <property name="mlt_service">kdenlivetitle</property>
  <property name="kdenlive:duration">50</property>
  <property name="kdenlive:clipname">言不由衷吧</property>
  <property name="xmldata">&lt;kdenlivetitle duration="50" LC_NUMERIC="C" width="1582" height="932" out="49">
 &lt;item type="QGraphicsTextItem" z-index="0">
  &lt;position x="788" y="660">
   &lt;transform>1,0,0,0,1,0,0,0,1&lt;/transform>
  &lt;/position>
  &lt;content shadow="0;#64000000;3;3;3" font-underline="0" box-height="124" font-outline-color="152,106,68,255" font="文泉驿正黑" letter-spacing="0" font-pixel-size="92" font-italic="0" typewriter="0;2;1;0;0" alignment="2" font-weight="50" font-outline="0.5" box-width="460" font-color="246,245,244,255">言不由衷吧&lt;/content>
 &lt;/item>
 &lt;startviewport rect="0,0,1582,932"/>
 &lt;endviewport rect="0,0,1582,932"/>
 &lt;background color="0,0,0,10"/>
&lt;/kdenlivetitle>
</property>
  <property name="kdenlive:folderid">-1</property>
  <property name="kdenlive:id">15</property>
  <property name="kdenlive:file_hash">aaa5239956e7aea58a111b10ca8f7af8</property>
  <property name="force_reload">0</property>
  <property name="meta.media.width">1582</property>
  <property name="meta.media.height">932</property>
 </producer>
 <producer id="producer14" in="00:00:00.000" out="00:00:09.400">
  <property name="length">95</property>
  <property name="eof">pause</property>
  <property name="resource"/>
  <property name="progressive">1</property>
  <property name="aspect_ratio">1</property>
  <property name="seekable">1</property>
  <property name="mlt_service">kdenlivetitle</property>
  <property name="kdenlive:duration">50</property>
  <property name="kdenlive:clipname">至少我还能成为 见证你们...</property>
  <property name="xmldata">&lt;kdenlivetitle duration="50" LC_NUMERIC="C" width="1582" height="932" out="49">
 &lt;item type="QGraphicsTextItem" z-index="0">
  &lt;position x="362" y="367">
   &lt;transform>1,0,0,0,1,0,0,0,1&lt;/transform>
  &lt;/position>
  &lt;content shadow="0;#64000000;3;3;3" font-underline="0" box-height="372" font-outline-color="152,106,68,255" font="文泉驿正黑" letter-spacing="0" font-pixel-size="92" font-italic="0" typewriter="1;38;3;0;0" alignment="2" font-weight="50" font-outline="0.5" box-width="644" font-color="246,245,244,255">至少我还能成为
见证你们婚姻的
嘉宾&lt;/content>
 &lt;/item>
 &lt;startviewport rect="0,0,1582,932"/>
 &lt;endviewport rect="0,0,1582,932"/>
 &lt;background color="0,0,0,10"/>
&lt;/kdenlivetitle>
</property>
  <property name="kdenlive:folderid">-1</property>
  <property name="kdenlive:id">16</property>
  <property name="kdenlive:file_hash">1c2da81c08164d33be03a55bf3aeb2e8</property>
  <property name="force_reload">0</property>
  <property name="meta.media.width">1582</property>
  <property name="meta.media.height">932</property>
 </producer>
 <producer id="producer15" in="00:00:00.000" out="00:00:04.900">
  <property name="length">50</property>
  <property name="eof">pause</property>
  <property name="resource"/>
  <property name="progressive">1</property>
  <property name="aspect_ratio">1</property>
  <property name="seekable">1</property>
  <property name="mlt_service">kdenlivetitle</property>
  <property name="kdenlive:duration">50</property>
  <property name="kdenlive:clipname">对不起，本来打算在2.2...</property>
  <property name="xmldata">&lt;kdenlivetitle duration="50" LC_NUMERIC="C" width="1582" height="932" out="49">
 &lt;item type="QGraphicsTextItem" z-index="0">
  &lt;position x="75" y="186">
   &lt;transform>1,0,0,0,1,0,0,0,1&lt;/transform>
  &lt;/position>
  &lt;content shadow="0;#64000000;3;3;3" font-underline="0" box-height="744" font-outline-color="152,106,68,255" font="文泉驿正黑" letter-spacing="0" font-pixel-size="92" font-italic="0" typewriter="0;2;1;0;0" alignment="2" font-weight="50" font-outline="0.5" box-width="1481.05" font-color="246,245,244,255">对不起，本来打算在2.23号送给你的
我太贪玩了

但其实这个PPT设计了3个月
我太蠢就没有做到理想的那样子
&lt;/content>
 &lt;/item>
 &lt;startviewport rect="0,0,1582,932"/>
 &lt;endviewport rect="0,0,1582,932"/>
 &lt;background color="0,0,0,10"/>
&lt;/kdenlivetitle>
</property>
  <property name="kdenlive:folderid">17</property>
  <property name="kdenlive:id">19</property>
  <property name="kdenlive:file_hash">62e9551ea875450405d3f84fe1fbfd0a</property>
  <property name="force_reload">0</property>
  <property name="meta.media.width">1582</property>
  <property name="meta.media.height">932</property>
 </producer>
 <producer id="producer16" in="00:00:00.000" out="00:00:06.300">
  <property name="length">64</property>
  <property name="eof">pause</property>
  <property name="progressive">1</property>
  <property name="aspect_ratio">1</property>
  <property name="seekable">1</property>
  <property name="mlt_service">kdenlivetitle</property>
  <property name="kdenlive:duration">50</property>
  <property name="kdenlive:clipname">今年你几岁了 是结婚的年...</property>
  <property name="xmldata">&lt;kdenlivetitle duration="50" LC_NUMERIC="C" width="1582" height="932" out="49">
 &lt;item type="QGraphicsTextItem" z-index="0">
  &lt;position x="108" y="116">
   &lt;transform>1,0,0,0,1,0,0,0,1&lt;/transform>
  &lt;/position>
  &lt;content shadow="0;#64000000;3;3;3" font-underline="0" box-height="744" font-outline-color="152,106,68,255" font="文泉驿正黑" letter-spacing="0" font-pixel-size="92" font-italic="0" typewriter="1;13;3;0;0" alignment="2" font-weight="50" font-outline="0.5" box-width="1380" font-color="246,245,244,255">今年你几岁了
是结婚的年龄了

因为不结婚的人生不完整
可是按世俗的目标「完成」一生，
会有人发你奖励吗。&lt;/content>
 &lt;/item>
 &lt;startviewport rect="0,0,1582,932"/>
 &lt;endviewport rect="0,0,1582,932"/>
 &lt;background color="0,0,0,10"/>
&lt;/kdenlivetitle>
</property>
  <property name="kdenlive:folderid">17</property>
  <property name="kdenlive:id">20</property>
  <property name="kdenlive:file_hash">fcee7ea73005d10f1e90633cc37fd0ec</property>
  <property name="force_reload">0</property>
  <property name="meta.media.width">1582</property>
  <property name="meta.media.height">932</property>
 </producer>
 <producer id="producer17" in="00:00:00.000" out="00:00:06.300">
  <property name="length">64</property>
  <property name="eof">pause</property>
  <property name="progressive">1</property>
  <property name="aspect_ratio">1</property>
  <property name="seekable">1</property>
  <property name="mlt_service">kdenlivetitle</property>
  <property name="kdenlive:duration">50</property>
  <property name="kdenlive:clipname">再次相见，毕业前这1年还...</property>
  <property name="xmldata">&lt;kdenlivetitle duration="50" LC_NUMERIC="C" width="1582" height="932" out="49">
 &lt;item type="QGraphicsTextItem" z-index="0">
  &lt;position x="-168" y="161">
   &lt;transform>1,0,0,0,1,0,0,0,1&lt;/transform>
  &lt;/position>
  &lt;content line-spacing="0" shadow="0;#64000000;3;3;3" font-underline="0" box-height="672" font-outline-color="152,106,68,255" font="文泉驿正黑" letter-spacing="0" font-pixel-size="83" font-italic="0" typewriter="1;8;3;0;0" alignment="2" font-weight="50" font-outline="0.5" box-width="1743" font-color="246,245,244,255">再次相见，毕业前这1年还是永远，
你决定

自由恋爱是新中国以来所有人的自由
爱是一个过程，不是决定和见证者所花的两三天
爱和平庸或痛苦没有充分-必要关系&lt;/content>
 &lt;/item>
 &lt;startviewport rect="0,0,1582,932"/>
 &lt;endviewport rect="0,0,1582,932"/>
 &lt;background color="0,0,0,10"/>
&lt;/kdenlivetitle>
</property>
  <property name="kdenlive:folderid">17</property>
  <property name="kdenlive:id">21</property>
  <property name="kdenlive:file_hash">a75192564fd95f6b7ce95843e4e0a10a</property>
  <property name="force_reload">0</property>
  <property name="meta.media.width">1582</property>
  <property name="meta.media.height">932</property>
 </producer>
 <producer id="producer18" in="00:00:00.000" out="00:00:06.300">
  <property name="length">64</property>
  <property name="eof">pause</property>
  <property name="progressive">1</property>
  <property name="aspect_ratio">1</property>
  <property name="seekable">1</property>
  <property name="mlt_service">kdenlivetitle</property>
  <property name="kdenlive:duration">50</property>
  <property name="kdenlive:clipname">爱情是各种各样的， 没有...</property>
  <property name="xmldata">&lt;kdenlivetitle duration="50" LC_NUMERIC="C" width="1582" height="932" out="49">
 &lt;item type="QGraphicsTextItem" z-index="0">
  &lt;position x="213" y="63">
   &lt;transform>1,0,0,0,1,0,0,0,1&lt;/transform>
  &lt;/position>
  &lt;content line-spacing="0" shadow="0;#64000000;3;3;3" font-underline="0" box-height="784" font-outline-color="152,106,68,255" font="文泉驿正黑" letter-spacing="0" font-pixel-size="83" font-italic="0" typewriter="1;8;3;0;0" alignment="2" font-weight="50" font-outline="0.5" box-width="1328" font-color="246,245,244,255">爱情是各种各样的，
没有哪种爱一定堕落。

一纸婚约能断言的何其单薄
因为包办婚姻往往是没有感情的合作

我不管许多别人，只想要自己的爱&lt;/content>
 &lt;/item>
 &lt;startviewport rect="0,0,1582,932"/>
 &lt;endviewport rect="0,0,1582,932"/>
 &lt;background color="0,0,0,10"/>
&lt;/kdenlivetitle>
</property>
  <property name="kdenlive:folderid">17</property>
  <property name="kdenlive:id">22</property>
  <property name="kdenlive:file_hash">58e6306a5d552996eefd99f4f492f3da</property>
  <property name="force_reload">0</property>
  <property name="meta.media.width">1582</property>
  <property name="meta.media.height">932</property>
 </producer>
 <producer id="producer19" in="00:00:00.000" out="00:00:06.300">
  <property name="length">64</property>
  <property name="eof">pause</property>
  <property name="progressive">1</property>
  <property name="aspect_ratio">1</property>
  <property name="seekable">1</property>
  <property name="mlt_service">kdenlivetitle</property>
  <property name="kdenlive:duration">50</property>
  <property name="kdenlive:clipname">再以后 当你独自面对这冰...</property>
  <property name="xmldata">&lt;kdenlivetitle duration="50" LC_NUMERIC="C" width="1582" height="932" out="49">
 &lt;item type="QGraphicsTextItem" z-index="0">
  &lt;position x="26" y="115">
   &lt;transform>1,0,0,0,1,0,0,0,1&lt;/transform>
  &lt;/position>
  &lt;content line-spacing="0" shadow="0;#64000000;3;3;3" font-underline="0" box-height="784" font-outline-color="152,106,68,255" font="文泉驿正黑" letter-spacing="0" font-pixel-size="83" font-italic="0" typewriter="1;6;3;0;0" alignment="4" font-weight="50" font-outline="0.5" box-width="1518.88" font-color="246,245,244,255">再以后 当你独自面对这冰山下真正的厚度
会不会想起最开始，你说你也是孤独的人
最后你爱她，与她秀恩爱
『爱』像是自己套在戏本里表演。
没有行程的恩爱、或没说这词的被爱

严谨得像这《嘉宾》&lt;/content>
 &lt;/item>
 &lt;startviewport rect="0,0,1582,932"/>
 &lt;endviewport rect="0,0,1582,932"/>
 &lt;background color="0,0,0,10"/>
&lt;/kdenlivetitle>
</property>
  <property name="kdenlive:folderid">17</property>
  <property name="kdenlive:id">23</property>
  <property name="kdenlive:file_hash">1fa83772b709235c726b578139eade22</property>
  <property name="force_reload">0</property>
  <property name="meta.media.width">1582</property>
  <property name="meta.media.height">932</property>
 </producer>
 <producer id="producer20" in="00:00:00.000" out="00:00:06.300">
  <property name="length">64</property>
  <property name="eof">pause</property>
  <property name="progressive">1</property>
  <property name="aspect_ratio">1</property>
  <property name="seekable">1</property>
  <property name="mlt_service">kdenlivetitle</property>
  <property name="kdenlive:duration">50</property>
  <property name="kdenlive:clipname">由代码定义、机器规则， ...</property>
  <property name="xmldata">&lt;kdenlivetitle duration="50" LC_NUMERIC="C" width="1582" height="932" out="49">
 &lt;item type="QGraphicsTextItem" z-index="0">
  &lt;position x="202" y="143">
   &lt;transform>1,0,0,0,1,0,0,0,1&lt;/transform>
  &lt;/position>
  &lt;content line-spacing="0" shadow="0;#64000000;3;3;3" font-underline="0" box-height="672" font-outline-color="152,106,68,255" font="文泉驿正黑" letter-spacing="0" font-pixel-size="83" font-italic="0" typewriter="1;8;3;0;0" alignment="2" font-weight="50" font-outline="0.5" box-width="1162" font-color="246,245,244,255">由代码定义、机器规则，
只有画布顺滑，不代表现实意义

其实机器比人懂爱，
因为看指标配对两人，
像推荐视频一样，太容易了&lt;/content>
 &lt;/item>
 &lt;startviewport rect="0,0,1582,932"/>
 &lt;endviewport rect="0,0,1582,932"/>
 &lt;background color="0,0,0,10"/>
&lt;/kdenlivetitle>
</property>
  <property name="kdenlive:folderid">17</property>
  <property name="kdenlive:id">24</property>
  <property name="kdenlive:file_hash">0d67aca10de6376975d4a43a522be211</property>
  <property name="force_reload">0</property>
  <property name="meta.media.width">1582</property>
  <property name="meta.media.height">932</property>
 </producer>
 <producer id="producer21" in="00:00:00.000" out="00:00:06.300">
  <property name="length">64</property>
  <property name="eof">pause</property>
  <property name="progressive">1</property>
  <property name="aspect_ratio">1</property>
  <property name="seekable">1</property>
  <property name="mlt_service">kdenlivetitle</property>
  <property name="kdenlive:duration">50</property>
  <property name="kdenlive:clipname">朗才女貌的爱， 和双方都...</property>
  <property name="xmldata">&lt;kdenlivetitle duration="50" LC_NUMERIC="C" width="1582" height="932" out="49">
 &lt;item type="QGraphicsTextItem" z-index="0">
  &lt;position x="398" y="613">
   &lt;transform>1,0,0,0,1,0,0,0,1&lt;/transform>
  &lt;/position>
  &lt;content line-spacing="0" shadow="0;#64000000;3;3;3" font-underline="0" box-height="224" font-outline-color="152,106,68,255" font="文泉驿正黑" letter-spacing="0" font-pixel-size="83" font-italic="0" typewriter="1;8;3;0;0" alignment="2" font-weight="50" font-outline="0.5" box-width="1020.88" font-color="246,245,244,255">朗才女貌的爱，
和双方都不承认的爱 我最终&lt;/content>
 &lt;/item>
 &lt;startviewport rect="0,0,1582,932"/>
 &lt;endviewport rect="0,0,1582,932"/>
 &lt;background color="0,0,0,10"/>
&lt;/kdenlivetitle>
</property>
  <property name="kdenlive:folderid">17</property>
  <property name="kdenlive:id">25</property>
  <property name="kdenlive:file_hash">8352f1bf8321a74f372b1d957b97b7d0</property>
  <property name="force_reload">0</property>
  <property name="meta.media.width">1582</property>
  <property name="meta.media.height">932</property>
 </producer>
 <producer id="producer22" in="00:00:00.000" out="00:00:06.300">
  <property name="length">64</property>
  <property name="eof">pause</property>
  <property name="progressive">1</property>
  <property name="aspect_ratio">1</property>
  <property name="seekable">1</property>
  <property name="mlt_service">kdenlivetitle</property>
  <property name="kdenlive:duration">50</property>
  <property name="kdenlive:clipname">爱是为某人停止熬夜、 爱...</property>
  <property name="xmldata">&lt;kdenlivetitle duration="50" LC_NUMERIC="C" width="1582" height="932" out="49">
 &lt;item type="QGraphicsTextItem" z-index="0">
  &lt;position x="327" y="163">
   &lt;transform>1,0,0,0,1,0,0,0,1&lt;/transform>
  &lt;/position>
  &lt;content line-spacing="0" shadow="0;#64000000;3;3;3" font-underline="0" box-height="672" font-outline-color="152,106,68,255" font="文泉驿正黑" letter-spacing="0" font-pixel-size="83" font-italic="0" typewriter="1;9;3;2;0" alignment="2" font-weight="50" font-outline="0.5" box-width="1079" font-color="246,245,244,255">爱是为某人停止熬夜、
爱是为别人的喜好戒烟
爱是雨中为你送伞，
爱是愤怒中自止
爱是装作偶然的擦肩和碰面，
不是礼貌般的微笑和约会&lt;/content>
 &lt;/item>
 &lt;startviewport rect="0,0,1582,932"/>
 &lt;endviewport rect="0,0,1582,932"/>
 &lt;background color="0,0,0,10"/>
&lt;/kdenlivetitle>
</property>
  <property name="kdenlive:folderid">17</property>
  <property name="kdenlive:id">26</property>
  <property name="kdenlive:file_hash">8d93b2e4dd9269b23a0959b77ae1db8c</property>
  <property name="force_reload">0</property>
  <property name="meta.media.width">1582</property>
  <property name="meta.media.height">932</property>
 </producer>
 <producer id="producer23" in="00:00:00.000" out="00:00:06.300">
  <property name="length">64</property>
  <property name="eof">pause</property>
  <property name="progressive">1</property>
  <property name="aspect_ratio">1</property>
  <property name="seekable">1</property>
  <property name="mlt_service">kdenlivetitle</property>
  <property name="kdenlive:duration">50</property>
  <property name="kdenlive:clipname">爱是终日在你身旁、 愿把...</property>
  <property name="xmldata">&lt;kdenlivetitle duration="50" LC_NUMERIC="C" width="1582" height="932" out="49">
 &lt;item type="QGraphicsTextItem" z-index="0">
  &lt;position x="-8" y="105">
   &lt;transform>1,0,0,0,1,0,0,0,1&lt;/transform>
  &lt;/position>
  &lt;content line-spacing="0" shadow="0;#64000000;3;3;3" font-underline="0" box-height="784" font-outline-color="152,106,68,255" font="文泉驿正黑" letter-spacing="0" font-pixel-size="83" font-italic="0" typewriter="1;5;3;2;0" alignment="2" font-weight="50" font-outline="0.5" box-width="1577" font-color="246,245,244,255">爱是终日在你身旁、
愿把手机给对方玩，
不是成为手机壁纸或头像
爱是你明明很气很决绝却还是会回头，
故事线无法复制的升力

爱确实曾让我变得更好，我不在乎什么浪漫&lt;/content>
 &lt;/item>
 &lt;startviewport rect="0,0,1582,932"/>
 &lt;endviewport rect="0,0,1582,932"/>
 &lt;background color="0,0,0,10"/>
&lt;/kdenlivetitle>
</property>
  <property name="kdenlive:folderid">17</property>
  <property name="kdenlive:id">27</property>
  <property name="kdenlive:file_hash">91c57f7e0851f7a825231b6195f61e38</property>
  <property name="force_reload">0</property>
  <property name="meta.media.width">1582</property>
  <property name="meta.media.height">932</property>
 </producer>
 <producer id="producer24" in="00:00:00.000" out="00:00:06.300">
  <property name="length">64</property>
  <property name="eof">pause</property>
  <property name="progressive">1</property>
  <property name="aspect_ratio">1</property>
  <property name="seekable">1</property>
  <property name="mlt_service">kdenlivetitle</property>
  <property name="kdenlive:duration">50</property>
  <property name="kdenlive:clipname">爱不是过家家， 痛苦的『...</property>
  <property name="xmldata">&lt;kdenlivetitle duration="50" LC_NUMERIC="C" width="1582" height="932" out="49">
 &lt;item type="QGraphicsTextItem" z-index="0">
  &lt;position x="97" y="103">
   &lt;transform>1,0,0,0,1,0,0,0,1&lt;/transform>
  &lt;/position>
  &lt;content line-spacing="0" shadow="0;#64000000;3;3;3" font-underline="0" box-height="784" font-outline-color="152,106,68,255" font="文泉驿正黑" letter-spacing="0" font-pixel-size="83" font-italic="0" typewriter="1;5;3;2;0" alignment="2" font-weight="50" font-outline="0.5" box-width="1328" font-color="246,245,244,255">爱不是过家家，
痛苦的『爱情』终会让更多人痛苦。
可以从实际开始，像以前一样。

爱是我们曾经的相遇。 
你说我们有缘，最终却只能分开
&lt;/content>
 &lt;/item>
 &lt;startviewport rect="0,0,1582,932"/>
 &lt;endviewport rect="0,0,1582,932"/>
 &lt;background color="0,0,0,10"/>
&lt;/kdenlivetitle>
</property>
  <property name="kdenlive:folderid">17</property>
  <property name="kdenlive:id">28</property>
  <property name="kdenlive:file_hash">40ddd8b5b25222e57639615db2778750</property>
  <property name="force_reload">0</property>
  <property name="meta.media.width">1582</property>
  <property name="meta.media.height">932</property>
 </producer>
 <producer id="producer25" in="00:00:00.000" out="00:00:06.300">
  <property name="length">64</property>
  <property name="eof">pause</property>
  <property name="progressive">1</property>
  <property name="aspect_ratio">1</property>
  <property name="seekable">1</property>
  <property name="mlt_service">kdenlivetitle</property>
  <property name="kdenlive:duration">50</property>
  <property name="kdenlive:clipname">不要再害怕了，你每天都是...</property>
  <property name="xmldata">&lt;kdenlivetitle duration="50" LC_NUMERIC="C" width="1582" height="932" out="49">
 &lt;item type="QGraphicsTextItem" z-index="0">
  &lt;position x="97" y="103">
   &lt;transform>1,0,0,0,1,0,0,0,1&lt;/transform>
  &lt;/position>
  &lt;content line-spacing="0" shadow="0;#64000000;3;3;3" font-underline="0" box-height="336" font-outline-color="152,106,68,255" font="文泉驿正黑" letter-spacing="0" font-pixel-size="83" font-italic="0" typewriter="1;5;3;2;0" alignment="2" font-weight="50" font-outline="0.5" box-width="1411" font-color="246,245,244,255">不要再害怕了，你每天都是自己。

不会因为诚实，反而变成不可捉摸的人&lt;/content>
 &lt;/item>
 &lt;startviewport rect="0,0,1582,932"/>
 &lt;endviewport rect="0,0,1582,932"/>
 &lt;background color="0,0,0,10"/>
&lt;/kdenlivetitle>
</property>
  <property name="kdenlive:folderid">17</property>
  <property name="kdenlive:id">29</property>
  <property name="kdenlive:file_hash">18ea3d080545a252bcc9013d6a288d07</property>
  <property name="force_reload">0</property>
  <property name="meta.media.width">1582</property>
  <property name="meta.media.height">932</property>
 </producer>
 <producer id="producer26" in="00:00:00.000" out="00:00:06.600">
  <property name="length">67</property>
  <property name="eof">pause</property>
  <property name="progressive">1</property>
  <property name="aspect_ratio">1</property>
  <property name="seekable">1</property>
  <property name="mlt_service">kdenlivetitle</property>
  <property name="kdenlive:duration">50</property>
  <property name="kdenlive:clipname">“爱是愿为爱人的自由，放...</property>
  <property name="xmldata">&lt;kdenlivetitle duration="50" LC_NUMERIC="C" width="1582" height="932" out="49">
 &lt;item type="QGraphicsTextItem" z-index="0">
  &lt;position x="143" y="157">
   &lt;transform>1,0,0,0,1,0,0,0,1&lt;/transform>
  &lt;/position>
  &lt;content line-spacing="0" shadow="0;#64000000;3;3;3" font-underline="0" box-height="707" font-outline-color="152,106,68,255" font="文泉驿正黑" letter-spacing="0" font-pixel-size="75" font-italic="0" typewriter="1;5;3;2;0" alignment="2" font-weight="50" font-outline="0.5" box-width="1324.78" font-color="246,245,244,255">“爱是愿为爱人的自由，放弃自己的自由”
其实我们都放弃过，
最后却不能放弃“自己的安全”

作为一个有名字的人，而非『同性恋』
活着的自由，保留安稳生活的自由
活得自在的自由&lt;/content>
 &lt;/item>
 &lt;startviewport rect="0,0,1582,932"/>
 &lt;endviewport rect="0,0,1582,932"/>
 &lt;background color="0,0,0,10"/>
&lt;/kdenlivetitle>
</property>
  <property name="kdenlive:folderid">17</property>
  <property name="kdenlive:id">30</property>
  <property name="kdenlive:file_hash">2c9d797a1b9dd02b77a7661fe909a09b</property>
  <property name="force_reload">0</property>
  <property name="meta.media.width">1582</property>
  <property name="meta.media.height">932</property>
 </producer>
 <producer id="producer27" in="00:00:00.000" out="00:00:13.700">
  <property name="length">138</property>
  <property name="eof">pause</property>
  <property name="progressive">1</property>
  <property name="aspect_ratio">1</property>
  <property name="seekable">1</property>
  <property name="mlt_service">kdenlivetitle</property>
  <property name="kdenlive:duration">50</property>
  <property name="kdenlive:clipname">现在我自愿放弃，我是同，...</property>
  <property name="xmldata">&lt;kdenlivetitle duration="50" LC_NUMERIC="C" width="1582" height="932" out="49">
 &lt;item type="QGraphicsTextItem" z-index="0">
  &lt;position x="117" y="26">
   &lt;transform>1,0,0,0,1,0,0,0,1&lt;/transform>
  &lt;/position>
  &lt;content line-spacing="0" shadow="0;#64000000;3;3;3" font-underline="0" box-height="909" font-outline-color="152,106,68,255" font="文泉驿正黑" letter-spacing="0" font-pixel-size="75" font-italic="0" typewriter="0;5;3;2;0" alignment="2" font-weight="50" font-outline="0.5" box-width="1425" font-color="246,245,244,255">现在我自愿放弃，我是同，这不怨你。

我改不过来，就像有迫害史记以来所有人。

你是不是随意。
也只能随意
现在这样尴尬
只有这件事是每个人最终要下决心的
任何人都不能代替别人来做&lt;/content>
 &lt;/item>
 &lt;startviewport rect="0,0,1582,932"/>
 &lt;endviewport rect="0,0,1582,932"/>
 &lt;background color="0,0,0,10"/>
&lt;/kdenlivetitle>
</property>
  <property name="kdenlive:folderid">17</property>
  <property name="kdenlive:id">31</property>
  <property name="kdenlive:file_hash">3d5b6bbff5b6bc85cbb297afc5012469</property>
  <property name="force_reload">0</property>
  <property name="meta.media.width">1582</property>
  <property name="meta.media.height">932</property>
 </producer>
 <producer id="producer28" in="00:00:00.000" out="00:00:07.500">
  <property name="length">76</property>
  <property name="eof">pause</property>
  <property name="progressive">1</property>
  <property name="aspect_ratio">1</property>
  <property name="seekable">1</property>
  <property name="mlt_service">kdenlivetitle</property>
  <property name="kdenlive:duration">50</property>
  <property name="kdenlive:clipname">曾经我是为了一点应用 而...</property>
  <property name="xmldata">&lt;kdenlivetitle duration="50" LC_NUMERIC="C" width="1582" height="932" out="49">
 &lt;item type="QGraphicsTextItem" z-index="0">
  &lt;position x="278" y="21">
   &lt;transform>1,0,0,0,1,0,0,0,1&lt;/transform>
  &lt;/position>
  &lt;content line-spacing="0" shadow="0;#64000000;3;3;3" font-underline="0" box-height="909" font-outline-color="152,106,68,255" font="文泉驿正黑" letter-spacing="0" font-pixel-size="75" font-italic="0" typewriter="0;5;3;2;0" alignment="2" font-weight="50" font-outline="0.5" box-width="1200" font-color="246,245,244,255">曾经我是为了一点应用
而熬夜肝代码的人
如今我选择把更多精力放在动笔前的
思考模拟，在散步时编程

我深知明了和模糊的异同。
好东西不是累或哭出来的，
也需要付出和等待
以及一点小小的取巧&lt;/content>
 &lt;/item>
 &lt;startviewport rect="0,0,1582,932"/>
 &lt;endviewport rect="0,0,1582,932"/>
 &lt;background color="0,0,0,10"/>
&lt;/kdenlivetitle>
</property>
  <property name="kdenlive:folderid">17</property>
  <property name="kdenlive:id">32</property>
  <property name="kdenlive:file_hash">a010be0499980329b04f5e52698b0940</property>
  <property name="force_reload">0</property>
  <property name="meta.media.width">1582</property>
  <property name="meta.media.height">932</property>
 </producer>
 <producer id="producer29" in="00:00:00.000" out="00:00:06.300">
  <property name="length">64</property>
  <property name="eof">pause</property>
  <property name="progressive">1</property>
  <property name="aspect_ratio">1</property>
  <property name="seekable">1</property>
  <property name="mlt_service">kdenlivetitle</property>
  <property name="kdenlive:duration">50</property>
  <property name="kdenlive:clipname">已不想再使自己劳累、痛苦...</property>
  <property name="xmldata">&lt;kdenlivetitle duration="50" LC_NUMERIC="C" width="1582" height="932" out="49">
 &lt;item type="QGraphicsTextItem" z-index="0">
  &lt;position x="127" y="173">
   &lt;transform>1,0,0,0,1,0,0,0,1&lt;/transform>
  &lt;/position>
  &lt;content line-spacing="0" shadow="0;#64000000;3;3;3" font-underline="0" box-height="560" font-outline-color="152,106,68,255" font="文泉驿正黑" letter-spacing="0" font-pixel-size="83" font-italic="0" typewriter="1;8;3;0;0" alignment="2" font-weight="50" font-outline="0.5" box-width="1328" font-color="246,245,244,255">已不想再使自己劳累、痛苦，
更在代码发布后使更多人为之烧脑，
一起痛苦；

我宁可慢慢来，或者干脆不。&lt;/content>
 &lt;/item>
 &lt;startviewport rect="0,0,1582,932"/>
 &lt;endviewport rect="0,0,1582,932"/>
 &lt;background color="0,0,0,10"/>
&lt;/kdenlivetitle>
</property>
  <property name="kdenlive:folderid">17</property>
  <property name="kdenlive:id">33</property>
  <property name="kdenlive:file_hash">08d191268a9ed7e4c0aee4378651ad0f</property>
  <property name="force_reload">0</property>
  <property name="meta.media.width">1582</property>
  <property name="meta.media.height">932</property>
 </producer>
 <producer id="producer30" in="00:00:00.000" out="00:00:06.300">
  <property name="length">64</property>
  <property name="eof">pause</property>
  <property name="progressive">1</property>
  <property name="aspect_ratio">1</property>
  <property name="seekable">1</property>
  <property name="mlt_service">kdenlivetitle</property>
  <property name="kdenlive:duration">50</property>
  <property name="kdenlive:clipname">其实我已经忘了你， 就算...</property>
  <property name="xmldata">&lt;kdenlivetitle duration="50" LC_NUMERIC="C" width="1582" height="932" out="49">
 &lt;item type="QGraphicsTextItem" z-index="0">
  &lt;position x="147" y="153">
   &lt;transform>1,0,0,0,1,0,0,0,1&lt;/transform>
  &lt;/position>
  &lt;content line-spacing="0" shadow="0;#64000000;3;3;3" font-underline="0" box-height="784" font-outline-color="152,106,68,255" font="文泉驿正黑" letter-spacing="0" font-pixel-size="83" font-italic="0" typewriter="1;8;3;0;0" alignment="2" font-weight="50" font-outline="0.5" box-width="1411" font-color="246,245,244,255">其实我已经忘了你，
就算现在再也不见也不会觉得可惜吧。

只是记得以前我真的很爱你，
我就把心情做成视频。和代码不一样，

可能不会有下次了&lt;/content>
 &lt;/item>
 &lt;startviewport rect="0,0,1582,932"/>
 &lt;endviewport rect="0,0,1582,932"/>
 &lt;background color="0,0,0,10"/>
&lt;/kdenlivetitle>
</property>
  <property name="kdenlive:folderid">17</property>
  <property name="kdenlive:id">34</property>
  <property name="kdenlive:file_hash">ff3a9039ee1389bf1237cb4e354cdbdc</property>
  <property name="force_reload">0</property>
  <property name="meta.media.width">1582</property>
  <property name="meta.media.height">932</property>
 </producer>
 <producer id="producer31" in="00:00:00.000" out="00:00:06.300">
  <property name="length">64</property>
  <property name="eof">pause</property>
  <property name="progressive">1</property>
  <property name="aspect_ratio">1</property>
  <property name="seekable">1</property>
  <property name="mlt_service">kdenlivetitle</property>
  <property name="kdenlive:duration">50</property>
  <property name="kdenlive:clipname">像那次晚会，你没有任何躲...</property>
  <property name="xmldata">&lt;kdenlivetitle duration="50" LC_NUMERIC="C" width="1582" height="932" out="49">
 &lt;item type="QGraphicsTextItem" z-index="0">
  &lt;position x="-43" y="106">
   &lt;transform>1,0,0,0,1,0,0,0,1&lt;/transform>
  &lt;/position>
  &lt;content line-spacing="0" shadow="0;#64000000;3;3;3" font-underline="0" box-height="784" font-outline-color="152,106,68,255" font="文泉驿正黑" letter-spacing="0" font-pixel-size="83" font-italic="0" typewriter="1;8;3;0;0" alignment="2" font-weight="50" font-outline="0.5" box-width="1626.77" font-color="246,245,244,255">像那次晚会，你没有任何躲闪的眼神
我才敢稍微靠近你，本来我已经释然。

打算在生日送你，看来是迟了，对不起。
可能你的生日也不在QQ资料那天吧
我对不起你女朋友，虽然我们一直只是朋友
我想5月过去后那段时间，没法搞懂你的意思&lt;/content>
 &lt;/item>
 &lt;startviewport rect="0,0,1582,932"/>
 &lt;endviewport rect="0,0,1582,932"/>
 &lt;background color="0,0,0,10"/>
&lt;/kdenlivetitle>
</property>
  <property name="kdenlive:folderid">17</property>
  <property name="kdenlive:id">35</property>
  <property name="kdenlive:file_hash">9565cecd98cbab2a96d059297068161f</property>
  <property name="force_reload">0</property>
  <property name="meta.media.width">1582</property>
  <property name="meta.media.height">932</property>
 </producer>
 <producer id="producer32" in="00:00:00.000" out="00:00:09.900">
  <property name="length">100</property>
  <property name="eof">pause</property>
  <property name="progressive">1</property>
  <property name="aspect_ratio">1</property>
  <property name="seekable">1</property>
  <property name="mlt_service">kdenlivetitle</property>
  <property name="kdenlive:duration">50</property>
  <property name="kdenlive:clipname">其实从入学时你就一直是我...</property>
  <property name="xmldata">&lt;kdenlivetitle duration="50" LC_NUMERIC="C" width="1582" height="932" out="49">
 &lt;item type="QGraphicsTextItem" z-index="0">
  &lt;position x="173" y="208">
   &lt;transform>1,0,0,0,1,0,0,0,1&lt;/transform>
  &lt;/position>
  &lt;content line-spacing="0" shadow="0;#64000000;3;3;3" font-underline="0" box-height="648" font-outline-color="152,106,68,255" font="文泉驿正黑" letter-spacing="0" font-pixel-size="60" font-italic="0" typewriter="1;11;3;0;0" alignment="4" font-weight="50" font-outline="0.5" box-width="1320" font-color="246,245,244,255">其实从入学时你就一直是我的光
没想到最后能碰上，甚至
甚至发现你也这样看着我
现在想起来也不觉得可惜

然而当你刻意排斥我，我就不知道你到底想要什么
是不是我一直在伤害你，一切是不是我自导自演
我赌一次不是。就一次&lt;/content>
 &lt;/item>
 &lt;startviewport rect="0,0,1582,932"/>
 &lt;endviewport rect="0,0,1582,932"/>
 &lt;background color="0,0,0,10"/>
&lt;/kdenlivetitle>
</property>
  <property name="kdenlive:folderid">17</property>
  <property name="kdenlive:id">36</property>
  <property name="kdenlive:file_hash">a5f236c1ddfb9c89a605c63c6b84d8d5</property>
  <property name="force_reload">0</property>
  <property name="meta.media.width">1582</property>
  <property name="meta.media.height">932</property>
 </producer>
 <producer id="producer33" in="00:00:00.000" out="00:00:04.900">
  <property name="length">50</property>
  <property name="eof">pause</property>
  <property name="resource"/>
  <property name="progressive">1</property>
  <property name="aspect_ratio">1</property>
  <property name="seekable">1</property>
  <property name="mlt_service">kdenlivetitle</property>
  <property name="kdenlive:duration">50</property>
  <property name="kdenlive:clipname">送给某人的</property>
  <property name="xmldata">&lt;kdenlivetitle duration="50" LC_NUMERIC="C" width="1582" height="932" out="49">
 &lt;item type="QGraphicsTextItem" z-index="3">
  &lt;position x="893" y="661">
   &lt;transform>1,0,0,0,1,0,0,0,1&lt;/transform>
  &lt;/position>
  &lt;content shadow="0;#64000000;3;3;3" font-underline="0" box-height="81" font-outline-color="152,106,68,255" font="文泉驿正黑" letter-spacing="0" font-pixel-size="60" font-italic="0" typewriter="0;2;1;0;0" alignment="2" font-weight="50" font-outline="0.5" box-width="420" font-color="246,245,244,255">都当不成的自己&lt;/content>
 &lt;/item>
 &lt;item type="QGraphicsTextItem" z-index="2">
  &lt;position x="385" y="339">
   &lt;transform>1,0,0,0,1,0,0,0,1&lt;/transform>
  &lt;/position>
  &lt;content shadow="0;#64000000;3;3;3" font-underline="0" box-height="81" font-outline-color="152,106,68,255" font="文泉驿正黑" letter-spacing="0" font-pixel-size="60" font-italic="0" typewriter="0;2;1;0;0" alignment="2" font-weight="50" font-outline="0.5" box-width="240" font-color="246,245,244,255">也送给连&lt;/content>
 &lt;/item>
 &lt;item type="QGraphicsTextItem" z-index="1">
  &lt;position x="627" y="423">
   &lt;transform>1,0,0,0,1,0,0,0,1&lt;/transform>
  &lt;/position>
  &lt;content line-spacing="0" shadow="0;#64000000;3;3;3" font-underline="0" box-height="192" font-outline-color="152,106,68,255" font="文泉驿正黑" letter-spacing="0" font-pixel-size="142" font-italic="0" typewriter="0;2;1;0;0" alignment="2" font-weight="50" gradient="#ffe66100;#ff2ec27e;2;100;90" font-outline="0.5" box-width="568" font-color="0,0,0,255">《嘉宾》&lt;/content>
 &lt;/item>
 &lt;item type="QGraphicsTextItem" z-index="0">
  &lt;position x="388" y="250">
   &lt;transform>1,0,0,0,1,0,0,0,1&lt;/transform>
  &lt;/position>
  &lt;content shadow="0;#64000000;3;3;3" font-underline="0" box-height="81" font-outline-color="152,106,68,255" font="文泉驿正黑" letter-spacing="0" font-pixel-size="60" font-italic="0" typewriter="0;2;1;0;0" alignment="2" font-weight="50" font-outline="0.5" box-width="360" font-color="246,245,244,255">送给某人的，&lt;/content>
 &lt;/item>
 &lt;startviewport rect="0,0,1582,932"/>
 &lt;endviewport rect="0,0,1582,932"/>
 &lt;background color="0,0,0,10"/>
&lt;/kdenlivetitle>
</property>
  <property name="kdenlive:folderid">-1</property>
  <property name="kdenlive:id">37</property>
  <property name="kdenlive:file_hash">64261bd2361c9c9247e9a03ad709b3dd</property>
  <property name="force_reload">0</property>
  <property name="meta.media.width">1582</property>
  <property name="meta.media.height">932</property>
 </producer>
 <playlist id="main_bin">
  <property name="kdenlive:docproperties.activeTrack">2</property>
  <property name="kdenlive:docproperties.audioChannels">2</property>
  <property name="kdenlive:docproperties.audioTarget">-1</property>
  <property name="kdenlive:docproperties.disablepreview">0</property>
  <property name="kdenlive:docproperties.documentid">1646499087879</property>
  <property name="kdenlive:docproperties.enableTimelineZone">0</property>
  <property name="kdenlive:docproperties.enableexternalproxy">0</property>
  <property name="kdenlive:docproperties.enableproxy">0</property>
  <property name="kdenlive:docproperties.externalproxyparams">../Sub;;S03.MP4;../Clip;;.MXF</property>
  <property name="kdenlive:docproperties.generateimageproxy">0</property>
  <property name="kdenlive:docproperties.generateproxy">0</property>
  <property name="kdenlive:docproperties.kdenliveversion">21.12.0</property>
  <property name="kdenlive:docproperties.position">4815</property>
  <property name="kdenlive:docproperties.previewextension"/>
  <property name="kdenlive:docproperties.previewparameters"/>
  <property name="kdenlive:docproperties.profile">/home/duangsuse/.local/share/kdenlive/profiles/customprofile2</property>
  <property name="kdenlive:docproperties.proxyextension"/>
  <property name="kdenlive:docproperties.proxyimageminsize">2000</property>
  <property name="kdenlive:docproperties.proxyimagesize">800</property>
  <property name="kdenlive:docproperties.proxyminsize">1000</property>
  <property name="kdenlive:docproperties.proxyparams"/>
  <property name="kdenlive:docproperties.proxyresize">640</property>
  <property name="kdenlive:docproperties.scrollPos">32890</property>
  <property name="kdenlive:docproperties.seekOffset">30000</property>
  <property name="kdenlive:docproperties.version">1.04</property>
  <property name="kdenlive:docproperties.verticalzoom">1</property>
  <property name="kdenlive:docproperties.videoTarget">2</property>
  <property name="kdenlive:docproperties.zonein">0</property>
  <property name="kdenlive:docproperties.zoneout">75</property>
  <property name="kdenlive:docproperties.zoom">3</property>
  <property name="kdenlive:expandedFolders"/>
  <property name="kdenlive:documentnotes"/>
  <property name="kdenlive:docproperties.groups">[
]
</property>
  <property name="kdenlive:folder.-1.17">a</property>
  <property name="kdenlive:folder.17.18">文件夹</property>
  <property name="kdenlive:docproperties.renderaudioquality">192</property>
  <property name="kdenlive:docproperties.rendercategory">Generic (HD for web, mobile devices...)</property>
  <property name="kdenlive:docproperties.renderendguide">-1</property>
  <property name="kdenlive:docproperties.renderexportaudio">0</property>
  <property name="kdenlive:docproperties.renderfield">0</property>
  <property name="kdenlive:docproperties.renderguide">0</property>
  <property name="kdenlive:docproperties.renderplay">0</property>
  <property name="kdenlive:docproperties.renderprofile">MP4-H264/AAC</property>
  <property name="kdenlive:docproperties.renderquality">23</property>
  <property name="kdenlive:docproperties.renderratio">1</property>
  <property name="kdenlive:docproperties.renderrescale">0</property>
  <property name="kdenlive:docproperties.renderrescaleheight">466</property>
  <property name="kdenlive:docproperties.renderrescalewidth">791</property>
  <property name="kdenlive:docproperties.renderscanning">0</property>
  <property name="kdenlive:docproperties.renderspeed">2</property>
  <property name="kdenlive:docproperties.renderstartguide">-1</property>
  <property name="kdenlive:docproperties.rendertcoverlay">0</property>
  <property name="kdenlive:docproperties.rendertctype">0</property>
  <property name="kdenlive:docproperties.rendertwopass">0</property>
  <property name="kdenlive:docproperties.renderurl">/home/duangsuse/视频/vid.mp4</property>
  <property name="kdenlive:docproperties.renderzone">0</property>
  <property name="xml_retain">1</property>
  <entry producer="producer0" in="00:00:00.000" out="00:00:13.700"/>
  <entry producer="producer1" in="00:00:00.000" out="00:00:15.300"/>
  <entry producer="producer2" in="00:00:00.000" out="00:00:13.900"/>
  <entry producer="producer3" in="00:00:00.000" out="00:00:11.000"/>
  <entry producer="producer4" in="00:00:00.000" out="00:00:13.500"/>
  <entry producer="producer5" in="00:00:00.000" out="00:00:12.800"/>
  <entry producer="producer6" in="00:00:00.000" out="00:00:20.900"/>
  <entry producer="producer7" in="00:00:00.000" out="00:04:07.900"/>
  <entry producer="producer8" in="00:00:00.000" out="00:05:20.100"/>
  <entry producer="producer9" in="00:00:00.000" out="00:05:28.100"/>
  <entry producer="producer10" in="00:00:00.000" out="00:00:04.900"/>
  <entry producer="producer11" in="00:00:00.000" out="00:00:04.900"/>
  <entry producer="producer12" in="00:00:00.000" out="00:00:04.900"/>
  <entry producer="producer13" in="00:00:00.000" out="00:00:04.900"/>
  <entry producer="producer14" in="00:00:00.000" out="00:00:04.900"/>
  <entry producer="producer15" in="00:00:00.000" out="00:00:04.900"/>
  <entry producer="producer16" in="00:00:00.000" out="00:00:04.900"/>
  <entry producer="producer17" in="00:00:00.000" out="00:00:06.300"/>
  <entry producer="producer18" in="00:00:00.000" out="00:00:06.300"/>
  <entry producer="producer19" in="00:00:00.000" out="00:00:06.300"/>
  <entry producer="producer20" in="00:00:00.000" out="00:00:06.300"/>
  <entry producer="producer21" in="00:00:00.000" out="00:00:06.300"/>
  <entry producer="producer22" in="00:00:00.000" out="00:00:06.300"/>
  <entry producer="producer23" in="00:00:00.000" out="00:00:06.300"/>
  <entry producer="producer24" in="00:00:00.000" out="00:00:06.300"/>
  <entry producer="producer25" in="00:00:00.000" out="00:00:06.300"/>
  <entry producer="producer26" in="00:00:00.000" out="00:00:06.300"/>
  <entry producer="producer27" in="00:00:00.000" out="00:00:06.600"/>
  <entry producer="producer28" in="00:00:00.000" out="00:00:06.300"/>
  <entry producer="producer29" in="00:00:00.000" out="00:00:06.300"/>
  <entry producer="producer30" in="00:00:00.000" out="00:00:06.300"/>
  <entry producer="producer31" in="00:00:00.000" out="00:00:06.300"/>
  <entry producer="producer32" in="00:00:00.000" out="00:00:06.300"/>
  <entry producer="producer33" in="00:00:00.000" out="00:00:04.900"/>
 </playlist>
 <producer id="black_track" in="00:00:00.000" out="00:58:01.500">
  <property name="length">2147483647</property>
  <property name="eof">continue</property>
  <property name="resource">black</property>
  <property name="aspect_ratio">1</property>
  <property name="mlt_service">color</property>
  <property name="mlt_image_format">rgb24a</property>
  <property name="set.test_audio">0</property>
 </producer>
 <playlist id="playlist0">
  <property name="kdenlive:audio_track">1</property>
 </playlist>
 <playlist id="playlist1">
  <property name="kdenlive:audio_track">1</property>
 </playlist>
 <tractor id="tractor0" in="00:00:00.000">
  <property name="kdenlive:audio_track">1</property>
  <property name="kdenlive:trackheight">69</property>
  <property name="kdenlive:timeline_active">1</property>
  <property name="kdenlive:collapsed">0</property>
  <property name="kdenlive:thumbs_format"/>
  <property name="kdenlive:audio_rec"/>
  <track hide="video" producer="playlist0"/>
  <track hide="video" producer="playlist1"/>
  <filter id="filter0">
   <property name="window">75</property>
   <property name="max_gain">20dB</property>
   <property name="level">-5.29819</property>
   <property name="mlt_service">volume</property>
   <property name="internal_added">237</property>
   <property name="disable">0</property>
  </filter>
  <filter id="filter1">
   <property name="channel">-1</property>
   <property name="mlt_service">panner</property>
   <property name="internal_added">237</property>
   <property name="start">0.5</property>
   <property name="disable">1</property>
  </filter>
  <filter id="filter2">
   <property name="iec_scale">0</property>
   <property name="mlt_service">audiolevel</property>
   <property name="disable">1</property>
  </filter>
 </tractor>
 <producer id="producer34" in="00:00:00.000" out="00:05:28.100">
  <property name="length">3282</property>
  <property name="eof">pause</property>
  <property name="resource">ls/jb2.mp3</property>
  <property name="meta.media.nb_streams">1</property>
  <property name="meta.media.0.stream.type">audio</property>
  <property name="meta.media.0.codec.sample_fmt">fltp</property>
  <property name="meta.media.0.codec.sample_rate">48000</property>
  <property name="meta.media.0.codec.channels">2</property>
  <property name="meta.media.0.codec.name">mp3float</property>
  <property name="meta.media.0.codec.long_name">MP3 (MPEG audio layer 3)</property>
  <property name="meta.media.0.codec.bit_rate">179640</property>
  <property name="meta.attr.0.stream.encoder.markup">LAME3.100</property>
  <property name="meta.attr.ID.markup">8871441414</property>
  <property name="meta.attr.Part of a set.markup">0</property>
  <property name="meta.attr.Software.markup">Lavf58.17.101</property>
  <property name="meta.attr.genre.markup">Blues</property>
  <property name="meta.attr.track.markup">2</property>
  <property name="meta.attr.album.markup">嘉宾</property>
  <property name="seekable">1</property>
  <property name="audio_index">0</property>
  <property name="video_index">-1</property>
  <property name="mute_on_pause">0</property>
  <property name="mlt_service">avformat-novalidate</property>
  <property name="kdenlive:clipname"/>
  <property name="kdenlive:folderid">-1</property>
  <property name="kdenlive:id">11</property>
  <property name="kdenlive:file_size">7370406</property>
  <property name="kdenlive:file_hash">3aaba4f865a6cf6ed3b683f64963e151</property>
  <property name="xml">was here</property>
  <property name="set.test_audio">0</property>
  <property name="set.test_image">1</property>
 </producer>
 <producer id="producer35" in="00:00:00.000" out="00:05:20.100">
  <property name="length">3202</property>
  <property name="eof">pause</property>
  <property name="resource">ls/0. 刻在我心底的名字.mp3</property>
  <property name="meta.media.nb_streams">1</property>
  <property name="meta.media.0.stream.type">audio</property>
  <property name="meta.media.0.codec.sample_fmt">fltp</property>
  <property name="meta.media.0.codec.sample_rate">48000</property>
  <property name="meta.media.0.codec.channels">2</property>
  <property name="meta.media.0.codec.name">mp3float</property>
  <property name="meta.media.0.codec.long_name">MP3 (MPEG audio layer 3)</property>
  <property name="meta.media.0.codec.bit_rate">128000</property>
  <property name="meta.attr.0.stream.encoder.markup">Lavc57.10</property>
  <property name="meta.attr.encoder.markup">Lavf57.83.100</property>
  <property name="seekable">1</property>
  <property name="audio_index">0</property>
  <property name="video_index">-1</property>
  <property name="mute_on_pause">0</property>
  <property name="mlt_service">avformat-novalidate</property>
  <property name="kdenlive:clipname"/>
  <property name="kdenlive:folderid">-1</property>
  <property name="kdenlive:id">10</property>
  <property name="kdenlive:file_size">5123757</property>
  <property name="kdenlive:file_hash">fda74760175c5f1519f0f343dbd07e09</property>
  <property name="kdenlive:audio_max0">240</property>
  <property name="xml">was here</property>
  <property name="set.test_audio">0</property>
  <property name="set.test_image">1</property>
 </producer>
 <playlist id="playlist2">
  <property name="kdenlive:audio_track">1</property>
  <entry producer="producer34" in="00:00:00.000" out="00:05:28.100">
   <property name="kdenlive:id">11</property>
  </entry>
  <blank length="00:00:00.200"/>
  <entry producer="producer35" in="00:00:00.000" out="00:02:33.000">
   <property name="kdenlive:id">10</property>
   <filter id="filter3" out="00:00:03.700">
    <property name="window">75</property>
    <property name="max_gain">20dB</property>
    <property name="mlt_service">volume</property>
    <property name="kdenlive_id">fadein</property>
    <property name="gain">0</property>
    <property name="end">1</property>
    <property name="kdenlive:collapsed">0</property>
   </filter>
   <filter id="filter4" in="00:02:32.200" out="00:02:33.000">
    <property name="window">75</property>
    <property name="max_gain">20dB</property>
    <property name="mlt_service">volume</property>
    <property name="kdenlive_id">fadeout</property>
    <property name="gain">1</property>
    <property name="end">0</property>
   </filter>
  </entry>
 </playlist>
 <playlist id="playlist3">
  <property name="kdenlive:audio_track">1</property>
 </playlist>
 <tractor id="tractor1" in="00:00:00.000" out="00:08:01.400">
  <property name="kdenlive:audio_track">1</property>
  <property name="kdenlive:trackheight">69</property>
  <property name="kdenlive:timeline_active">1</property>
  <property name="kdenlive:collapsed">0</property>
  <property name="kdenlive:thumbs_format"/>
  <property name="kdenlive:audio_rec"/>
  <track hide="video" producer="playlist2"/>
  <track hide="video" producer="playlist3"/>
  <filter id="filter5">
   <property name="window">75</property>
   <property name="max_gain">20dB</property>
   <property name="level">-2.34961</property>
   <property name="mlt_service">volume</property>
   <property name="internal_added">237</property>
   <property name="disable">0</property>
  </filter>
  <filter id="filter6">
   <property name="channel">-1</property>
   <property name="mlt_service">panner</property>
   <property name="internal_added">237</property>
   <property name="start">0.5</property>
   <property name="disable">1</property>
  </filter>
  <filter id="filter7">
   <property name="iec_scale">0</property>
   <property name="mlt_service">audiolevel</property>
   <property name="disable">1</property>
  </filter>
 </tractor>
 <producer id="producer36" in="00:00:00.000" out="00:00:13.200">
  <property name="length">133</property>
  <property name="eof">pause</property>
  <property name="resource">1.578947:/home/duangsuse/Proj/tv/参动之画/粒子/ls/Peek 2022-03-06 00-42.mp4</property>
  <property name="aspect_ratio">1</property>
  <property name="meta.media.nb_streams">1</property>
  <property name="meta.media.0.stream.type">video</property>
  <property name="meta.media.0.stream.frame_rate">10</property>
  <property name="meta.media.0.stream.sample_aspect_ratio">0</property>
  <property name="meta.media.0.codec.width">1582</property>
  <property name="meta.media.0.codec.height">932</property>
  <property name="meta.media.0.codec.rotate">0</property>
  <property name="meta.media.0.codec.pix_fmt">yuv420p</property>
  <property name="meta.media.0.codec.sample_aspect_ratio">0</property>
  <property name="meta.media.0.codec.colorspace">709</property>
  <property name="meta.media.0.codec.name">h264</property>
  <property name="meta.media.0.codec.long_name">H.264 / AVC / MPEG-4 AVC / MPEG-4 part 10</property>
  <property name="meta.media.0.codec.bit_rate">21498538</property>
  <property name="meta.attr.0.stream.handler_name.markup">VideoHandler</property>
  <property name="meta.attr.0.stream.vendor_id.markup">[0][0][0][0]</property>
  <property name="meta.attr.major_brand.markup">isom</property>
  <property name="meta.attr.minor_version.markup">512</property>
  <property name="meta.attr.compatible_brands.markup">isomiso2avc1mp41</property>
  <property name="meta.attr.encoder.markup">Lavf58.76.100</property>
  <property name="seekable">1</property>
  <property name="meta.media.sample_aspect_num">1</property>
  <property name="meta.media.sample_aspect_den">1</property>
  <property name="audio_index">-1</property>
  <property name="video_index">0</property>
  <property name="mute_on_pause">1</property>
  <property name="warp_speed">1.57895</property>
  <property name="warp_resource">/home/duangsuse/Proj/tv/参动之画/粒子/ls/Peek 2022-03-06 00-42.mp4</property>
  <property name="mlt_service">timewarp</property>
  <property name="set.test_audio">1</property>
  <property name="set.test_image">0</property>
  <property name="kdenlive:id">8</property>
  <property name="warp_pitch">0</property>
  <property name="meta.media.frame_rate_num">10</property>
  <property name="meta.media.frame_rate_den">1</property>
  <property name="meta.media.colorspace">709</property>
  <property name="meta.media.color_trc">2</property>
  <property name="meta.media.has_b_frames">2</property>
  <property name="meta.media.width">1582</property>
  <property name="meta.media.height">932</property>
  <property name="meta.media.color_range">mpeg</property>
  <property name="meta.media.top_field_first">0</property>
  <property name="meta.media.progressive">1</property>
 </producer>
 <producer id="producer37" in="00:00:00.000" out="00:00:01.200">
  <property name="length">13</property>
  <property name="eof">pause</property>
  <property name="resource">8.538462:/home/duangsuse/Proj/tv/参动之画/粒子/ls/Peek 2022-03-06 00-45.mp4</property>
  <property name="aspect_ratio">1</property>
  <property name="meta.media.nb_streams">1</property>
  <property name="meta.media.0.stream.type">video</property>
  <property name="meta.media.0.stream.frame_rate">10</property>
  <property name="meta.media.0.stream.sample_aspect_ratio">0</property>
  <property name="meta.media.0.codec.width">1582</property>
  <property name="meta.media.0.codec.height">932</property>
  <property name="meta.media.0.codec.rotate">0</property>
  <property name="meta.media.0.codec.pix_fmt">yuv420p</property>
  <property name="meta.media.0.codec.sample_aspect_ratio">0</property>
  <property name="meta.media.0.codec.colorspace">709</property>
  <property name="meta.media.0.codec.name">h264</property>
  <property name="meta.media.0.codec.long_name">H.264 / AVC / MPEG-4 AVC / MPEG-4 part 10</property>
  <property name="meta.media.0.codec.bit_rate">28859</property>
  <property name="meta.attr.0.stream.handler_name.markup">VideoHandler</property>
  <property name="meta.attr.0.stream.vendor_id.markup">[0][0][0][0]</property>
  <property name="meta.attr.major_brand.markup">isom</property>
  <property name="meta.attr.minor_version.markup">512</property>
  <property name="meta.attr.compatible_brands.markup">isomiso2avc1mp41</property>
  <property name="meta.attr.encoder.markup">Lavf58.76.100</property>
  <property name="seekable">1</property>
  <property name="meta.media.sample_aspect_num">1</property>
  <property name="meta.media.sample_aspect_den">1</property>
  <property name="audio_index">-1</property>
  <property name="video_index">0</property>
  <property name="mute_on_pause">1</property>
  <property name="warp_speed">8.53846</property>
  <property name="warp_resource">/home/duangsuse/Proj/tv/参动之画/粒子/ls/Peek 2022-03-06 00-45.mp4</property>
  <property name="mlt_service">timewarp</property>
  <property name="set.test_audio">1</property>
  <property name="set.test_image">0</property>
  <property name="kdenlive:id">5</property>
  <property name="warp_pitch">0</property>
  <property name="meta.media.frame_rate_num">10</property>
  <property name="meta.media.frame_rate_den">1</property>
  <property name="meta.media.colorspace">709</property>
  <property name="meta.media.color_trc">2</property>
  <property name="meta.media.has_b_frames">2</property>
  <property name="meta.media.width">1582</property>
  <property name="meta.media.height">932</property>
  <property name="meta.media.color_range">mpeg</property>
  <property name="meta.media.top_field_first">0</property>
  <property name="meta.media.progressive">1</property>
 </producer>
 <producer id="producer38" in="00:00:00.000" out="00:00:01.300">
  <property name="length">14</property>
  <property name="eof">pause</property>
  <property name="resource">10.000000:/home/duangsuse/Proj/tv/参动之画/粒子/ls/Peek 2022-03-06 00-47.mp4</property>
  <property name="aspect_ratio">1</property>
  <property name="meta.media.nb_streams">1</property>
  <property name="meta.media.0.stream.type">video</property>
  <property name="meta.media.0.stream.frame_rate">10</property>
  <property name="meta.media.0.stream.sample_aspect_ratio">0</property>
  <property name="meta.media.0.codec.width">1582</property>
  <property name="meta.media.0.codec.height">932</property>
  <property name="meta.media.0.codec.rotate">0</property>
  <property name="meta.media.0.codec.pix_fmt">yuv420p</property>
  <property name="meta.media.0.codec.sample_aspect_ratio">0</property>
  <property name="meta.media.0.codec.colorspace">709</property>
  <property name="meta.media.0.codec.name">h264</property>
  <property name="meta.media.0.codec.long_name">H.264 / AVC / MPEG-4 AVC / MPEG-4 part 10</property>
  <property name="meta.media.0.codec.bit_rate">38884</property>
  <property name="meta.attr.0.stream.handler_name.markup">VideoHandler</property>
  <property name="meta.attr.0.stream.vendor_id.markup">[0][0][0][0]</property>
  <property name="meta.attr.major_brand.markup">isom</property>
  <property name="meta.attr.minor_version.markup">512</property>
  <property name="meta.attr.compatible_brands.markup">isomiso2avc1mp41</property>
  <property name="meta.attr.encoder.markup">Lavf58.76.100</property>
  <property name="seekable">1</property>
  <property name="meta.media.sample_aspect_num">1</property>
  <property name="meta.media.sample_aspect_den">1</property>
  <property name="audio_index">-1</property>
  <property name="video_index">0</property>
  <property name="mute_on_pause">1</property>
  <property name="warp_speed">10</property>
  <property name="warp_resource">/home/duangsuse/Proj/tv/参动之画/粒子/ls/Peek 2022-03-06 00-47.mp4</property>
  <property name="mlt_service">timewarp</property>
  <property name="set.test_audio">1</property>
  <property name="set.test_image">0</property>
  <property name="kdenlive:id">4</property>
  <property name="warp_pitch">0</property>
  <property name="meta.media.frame_rate_num">10</property>
  <property name="meta.media.frame_rate_den">1</property>
  <property name="meta.media.colorspace">709</property>
  <property name="meta.media.color_trc">2</property>
  <property name="meta.media.has_b_frames">2</property>
  <property name="meta.media.width">1582</property>
  <property name="meta.media.height">932</property>
  <property name="meta.media.color_range">mpeg</property>
  <property name="meta.media.top_field_first">0</property>
  <property name="meta.media.progressive">1</property>
 </producer>
 <producer id="producer39" in="00:00:00.000" out="00:05:16.500">
  <property name="length">3166</property>
  <property name="eof">pause</property>
  <property name="resource">0.783323:/home/duangsuse/Proj/tv/参动之画/粒子/ls/Peek 2022-03-06 00-39.mp4</property>
  <property name="aspect_ratio">1</property>
  <property name="meta.media.nb_streams">1</property>
  <property name="meta.media.0.stream.type">video</property>
  <property name="meta.media.0.stream.frame_rate">10</property>
  <property name="meta.media.0.stream.sample_aspect_ratio">0</property>
  <property name="meta.media.0.codec.width">1582</property>
  <property name="meta.media.0.codec.height">932</property>
  <property name="meta.media.0.codec.rotate">0</property>
  <property name="meta.media.0.codec.pix_fmt">yuv420p</property>
  <property name="meta.media.0.codec.sample_aspect_ratio">0</property>
  <property name="meta.media.0.codec.colorspace">709</property>
  <property name="meta.media.0.codec.name">h264</property>
  <property name="meta.media.0.codec.long_name">H.264 / AVC / MPEG-4 AVC / MPEG-4 part 10</property>
  <property name="meta.media.0.codec.bit_rate">123998</property>
  <property name="meta.attr.0.stream.handler_name.markup">VideoHandler</property>
  <property name="meta.attr.0.stream.vendor_id.markup">[0][0][0][0]</property>
  <property name="meta.attr.major_brand.markup">isom</property>
  <property name="meta.attr.minor_version.markup">512</property>
  <property name="meta.attr.compatible_brands.markup">isomiso2avc1mp41</property>
  <property name="meta.attr.encoder.markup">Lavf58.76.100</property>
  <property name="seekable">1</property>
  <property name="meta.media.sample_aspect_num">1</property>
  <property name="meta.media.sample_aspect_den">1</property>
  <property name="audio_index">-1</property>
  <property name="video_index">0</property>
  <property name="mute_on_pause">1</property>
  <property name="warp_speed">0.783323</property>
  <property name="warp_resource">/home/duangsuse/Proj/tv/参动之画/粒子/ls/Peek 2022-03-06 00-39.mp4</property>
  <property name="mlt_service">timewarp</property>
  <property name="set.test_audio">1</property>
  <property name="set.test_image">0</property>
  <property name="kdenlive:id">9</property>
  <property name="warp_pitch">0</property>
  <property name="meta.media.frame_rate_num">10</property>
  <property name="meta.media.frame_rate_den">1</property>
  <property name="meta.media.colorspace">709</property>
  <property name="meta.media.color_trc">2</property>
  <property name="meta.media.has_b_frames">2</property>
  <property name="meta.media.width">1582</property>
  <property name="meta.media.height">932</property>
  <property name="meta.media.color_range">mpeg</property>
  <property name="meta.media.top_field_first">0</property>
  <property name="meta.media.progressive">1</property>
 </producer>
 <producer id="producer40" in="00:00:00.000" out="00:05:16.500">
  <property name="length">3166</property>
  <property name="eof">pause</property>
  <property name="resource">0.783323:/home/duangsuse/Proj/tv/参动之画/粒子/ls/Peek 2022-03-06 00-39.mp4</property>
  <property name="aspect_ratio">1</property>
  <property name="meta.media.nb_streams">1</property>
  <property name="meta.media.0.stream.type">video</property>
  <property name="meta.media.0.stream.frame_rate">10</property>
  <property name="meta.media.0.stream.sample_aspect_ratio">0</property>
  <property name="meta.media.0.codec.width">1582</property>
  <property name="meta.media.0.codec.height">932</property>
  <property name="meta.media.0.codec.rotate">0</property>
  <property name="meta.media.0.codec.pix_fmt">yuv420p</property>
  <property name="meta.media.0.codec.sample_aspect_ratio">0</property>
  <property name="meta.media.0.codec.colorspace">709</property>
  <property name="meta.media.0.codec.name">h264</property>
  <property name="meta.media.0.codec.long_name">H.264 / AVC / MPEG-4 AVC / MPEG-4 part 10</property>
  <property name="meta.media.0.codec.bit_rate">123998</property>
  <property name="meta.attr.0.stream.handler_name.markup">VideoHandler</property>
  <property name="meta.attr.0.stream.vendor_id.markup">[0][0][0][0]</property>
  <property name="meta.attr.major_brand.markup">isom</property>
  <property name="meta.attr.minor_version.markup">512</property>
  <property name="meta.attr.compatible_brands.markup">isomiso2avc1mp41</property>
  <property name="meta.attr.encoder.markup">Lavf58.76.100</property>
  <property name="seekable">1</property>
  <property name="meta.media.sample_aspect_num">1</property>
  <property name="meta.media.sample_aspect_den">1</property>
  <property name="audio_index">-1</property>
  <property name="video_index">0</property>
  <property name="mute_on_pause">1</property>
  <property name="warp_speed">0.783323</property>
  <property name="warp_resource">/home/duangsuse/Proj/tv/参动之画/粒子/ls/Peek 2022-03-06 00-39.mp4</property>
  <property name="mlt_service">timewarp</property>
  <property name="set.test_audio">1</property>
  <property name="set.test_image">0</property>
  <property name="kdenlive:id">9</property>
  <property name="warp_pitch">0</property>
  <property name="meta.media.frame_rate_num">10</property>
  <property name="meta.media.frame_rate_den">1</property>
  <property name="meta.media.colorspace">709</property>
  <property name="meta.media.color_trc">2</property>
  <property name="meta.media.has_b_frames">2</property>
  <property name="meta.media.width">1582</property>
  <property name="meta.media.height">932</property>
  <property name="meta.media.color_range">mpeg</property>
  <property name="meta.media.top_field_first">0</property>
  <property name="meta.media.progressive">1</property>
 </producer>
 <producer id="producer41" in="00:00:00.000" out="00:05:16.500">
  <property name="length">3166</property>
  <property name="eof">pause</property>
  <property name="resource">0.783323:/home/duangsuse/Proj/tv/参动之画/粒子/ls/Peek 2022-03-06 00-39.mp4</property>
  <property name="aspect_ratio">1</property>
  <property name="meta.media.nb_streams">1</property>
  <property name="meta.media.0.stream.type">video</property>
  <property name="meta.media.0.stream.frame_rate">10</property>
  <property name="meta.media.0.stream.sample_aspect_ratio">0</property>
  <property name="meta.media.0.codec.width">1582</property>
  <property name="meta.media.0.codec.height">932</property>
  <property name="meta.media.0.codec.rotate">0</property>
  <property name="meta.media.0.codec.pix_fmt">yuv420p</property>
  <property name="meta.media.0.codec.sample_aspect_ratio">0</property>
  <property name="meta.media.0.codec.colorspace">709</property>
  <property name="meta.media.0.codec.name">h264</property>
  <property name="meta.media.0.codec.long_name">H.264 / AVC / MPEG-4 AVC / MPEG-4 part 10</property>
  <property name="meta.media.0.codec.bit_rate">123998</property>
  <property name="meta.attr.0.stream.handler_name.markup">VideoHandler</property>
  <property name="meta.attr.0.stream.vendor_id.markup">[0][0][0][0]</property>
  <property name="meta.attr.major_brand.markup">isom</property>
  <property name="meta.attr.minor_version.markup">512</property>
  <property name="meta.attr.compatible_brands.markup">isomiso2avc1mp41</property>
  <property name="meta.attr.encoder.markup">Lavf58.76.100</property>
  <property name="seekable">1</property>
  <property name="meta.media.sample_aspect_num">1</property>
  <property name="meta.media.sample_aspect_den">1</property>
  <property name="audio_index">-1</property>
  <property name="video_index">0</property>
  <property name="mute_on_pause">1</property>
  <property name="warp_speed">0.783323</property>
  <property name="warp_resource">/home/duangsuse/Proj/tv/参动之画/粒子/ls/Peek 2022-03-06 00-39.mp4</property>
  <property name="mlt_service">timewarp</property>
  <property name="set.test_audio">1</property>
  <property name="set.test_image">0</property>
  <property name="kdenlive:id">9</property>
  <property name="warp_pitch">0</property>
  <property name="meta.media.frame_rate_num">10</property>
  <property name="meta.media.frame_rate_den">1</property>
  <property name="meta.media.colorspace">709</property>
  <property name="meta.media.color_trc">2</property>
  <property name="meta.media.has_b_frames">2</property>
  <property name="meta.media.width">1582</property>
  <property name="meta.media.height">932</property>
  <property name="meta.media.color_range">mpeg</property>
  <property name="meta.media.top_field_first">0</property>
  <property name="meta.media.progressive">1</property>
 </producer>
 <producer id="producer42" in="00:00:00.000" out="00:06:36.900">
  <property name="length">3970</property>
  <property name="eof">pause</property>
  <property name="resource">0.624641:/home/duangsuse/Proj/tv/参动之画/粒子/ls/Peek 2022-03-06 00-39.mp4</property>
  <property name="aspect_ratio">1</property>
  <property name="meta.media.nb_streams">1</property>
  <property name="meta.media.0.stream.type">video</property>
  <property name="meta.media.0.stream.frame_rate">10</property>
  <property name="meta.media.0.stream.sample_aspect_ratio">0</property>
  <property name="meta.media.0.codec.width">1582</property>
  <property name="meta.media.0.codec.height">932</property>
  <property name="meta.media.0.codec.rotate">0</property>
  <property name="meta.media.0.codec.pix_fmt">yuv420p</property>
  <property name="meta.media.0.codec.sample_aspect_ratio">0</property>
  <property name="meta.media.0.codec.colorspace">709</property>
  <property name="meta.media.0.codec.name">h264</property>
  <property name="meta.media.0.codec.long_name">H.264 / AVC / MPEG-4 AVC / MPEG-4 part 10</property>
  <property name="meta.media.0.codec.bit_rate">123998</property>
  <property name="meta.attr.0.stream.handler_name.markup">VideoHandler</property>
  <property name="meta.attr.0.stream.vendor_id.markup">[0][0][0][0]</property>
  <property name="meta.attr.major_brand.markup">isom</property>
  <property name="meta.attr.minor_version.markup">512</property>
  <property name="meta.attr.compatible_brands.markup">isomiso2avc1mp41</property>
  <property name="meta.attr.encoder.markup">Lavf58.76.100</property>
  <property name="seekable">1</property>
  <property name="meta.media.sample_aspect_num">1</property>
  <property name="meta.media.sample_aspect_den">1</property>
  <property name="audio_index">-1</property>
  <property name="video_index">0</property>
  <property name="mute_on_pause">1</property>
  <property name="warp_speed">0.624641</property>
  <property name="warp_resource">/home/duangsuse/Proj/tv/参动之画/粒子/ls/Peek 2022-03-06 00-39.mp4</property>
  <property name="mlt_service">timewarp</property>
  <property name="set.test_audio">1</property>
  <property name="set.test_image">0</property>
  <property name="kdenlive:id">9</property>
  <property name="warp_pitch">0</property>
  <property name="meta.media.frame_rate_num">10</property>
  <property name="meta.media.frame_rate_den">1</property>
  <property name="meta.media.colorspace">709</property>
  <property name="meta.media.color_trc">2</property>
  <property name="meta.media.has_b_frames">2</property>
  <property name="meta.media.width">1582</property>
  <property name="meta.media.height">932</property>
  <property name="meta.media.color_range">mpeg</property>
  <property name="meta.media.top_field_first">0</property>
  <property name="meta.media.progressive">1</property>
 </producer>
 <producer id="producer43" in="00:00:00.000" out="00:04:11.900">
  <property name="length">2521</property>
  <property name="eof">pause</property>
  <property name="resource">0.983867:/home/duangsuse/Proj/tv/参动之画/粒子/ls/Peek 2022-03-06 00-39.mp4</property>
  <property name="aspect_ratio">1</property>
  <property name="meta.media.nb_streams">1</property>
  <property name="meta.media.0.stream.type">video</property>
  <property name="meta.media.0.stream.frame_rate">10</property>
  <property name="meta.media.0.stream.sample_aspect_ratio">0</property>
  <property name="meta.media.0.codec.width">1582</property>
  <property name="meta.media.0.codec.height">932</property>
  <property name="meta.media.0.codec.rotate">0</property>
  <property name="meta.media.0.codec.pix_fmt">yuv420p</property>
  <property name="meta.media.0.codec.sample_aspect_ratio">0</property>
  <property name="meta.media.0.codec.colorspace">709</property>
  <property name="meta.media.0.codec.name">h264</property>
  <property name="meta.media.0.codec.long_name">H.264 / AVC / MPEG-4 AVC / MPEG-4 part 10</property>
  <property name="meta.media.0.codec.bit_rate">123998</property>
  <property name="meta.attr.0.stream.handler_name.markup">VideoHandler</property>
  <property name="meta.attr.0.stream.vendor_id.markup">[0][0][0][0]</property>
  <property name="meta.attr.major_brand.markup">isom</property>
  <property name="meta.attr.minor_version.markup">512</property>
  <property name="meta.attr.compatible_brands.markup">isomiso2avc1mp41</property>
  <property name="meta.attr.encoder.markup">Lavf58.76.100</property>
  <property name="seekable">1</property>
  <property name="meta.media.sample_aspect_num">1</property>
  <property name="meta.media.sample_aspect_den">1</property>
  <property name="audio_index">-1</property>
  <property name="video_index">0</property>
  <property name="mute_on_pause">1</property>
  <property name="warp_speed">0.983867</property>
  <property name="warp_resource">/home/duangsuse/Proj/tv/参动之画/粒子/ls/Peek 2022-03-06 00-39.mp4</property>
  <property name="mlt_service">timewarp</property>
  <property name="set.test_audio">1</property>
  <property name="set.test_image">0</property>
  <property name="kdenlive:id">9</property>
  <property name="warp_pitch">0</property>
  <property name="meta.media.frame_rate_num">10</property>
  <property name="meta.media.frame_rate_den">1</property>
  <property name="meta.media.colorspace">709</property>
  <property name="meta.media.color_trc">2</property>
  <property name="meta.media.has_b_frames">2</property>
  <property name="meta.media.width">1582</property>
  <property name="meta.media.height">932</property>
  <property name="meta.media.color_range">mpeg</property>
  <property name="meta.media.top_field_first">0</property>
  <property name="meta.media.progressive">1</property>
 </producer>
 <producer id="producer44" in="00:00:00.000" out="00:04:11.900">
  <property name="length">2521</property>
  <property name="eof">pause</property>
  <property name="resource">0.983867:/home/duangsuse/Proj/tv/参动之画/粒子/ls/Peek 2022-03-06 00-39.mp4</property>
  <property name="aspect_ratio">1</property>
  <property name="meta.media.nb_streams">1</property>
  <property name="meta.media.0.stream.type">video</property>
  <property name="meta.media.0.stream.frame_rate">10</property>
  <property name="meta.media.0.stream.sample_aspect_ratio">0</property>
  <property name="meta.media.0.codec.width">1582</property>
  <property name="meta.media.0.codec.height">932</property>
  <property name="meta.media.0.codec.rotate">0</property>
  <property name="meta.media.0.codec.pix_fmt">yuv420p</property>
  <property name="meta.media.0.codec.sample_aspect_ratio">0</property>
  <property name="meta.media.0.codec.colorspace">709</property>
  <property name="meta.media.0.codec.name">h264</property>
  <property name="meta.media.0.codec.long_name">H.264 / AVC / MPEG-4 AVC / MPEG-4 part 10</property>
  <property name="meta.media.0.codec.bit_rate">123998</property>
  <property name="meta.attr.0.stream.handler_name.markup">VideoHandler</property>
  <property name="meta.attr.0.stream.vendor_id.markup">[0][0][0][0]</property>
  <property name="meta.attr.major_brand.markup">isom</property>
  <property name="meta.attr.minor_version.markup">512</property>
  <property name="meta.attr.compatible_brands.markup">isomiso2avc1mp41</property>
  <property name="meta.attr.encoder.markup">Lavf58.76.100</property>
  <property name="seekable">1</property>
  <property name="meta.media.sample_aspect_num">1</property>
  <property name="meta.media.sample_aspect_den">1</property>
  <property name="audio_index">-1</property>
  <property name="video_index">0</property>
  <property name="mute_on_pause">1</property>
  <property name="warp_speed">0.983867</property>
  <property name="warp_resource">/home/duangsuse/Proj/tv/参动之画/粒子/ls/Peek 2022-03-06 00-39.mp4</property>
  <property name="mlt_service">timewarp</property>
  <property name="set.test_audio">1</property>
  <property name="set.test_image">0</property>
  <property name="kdenlive:id">9</property>
  <property name="warp_pitch">0</property>
  <property name="meta.media.frame_rate_num">10</property>
  <property name="meta.media.frame_rate_den">1</property>
  <property name="meta.media.colorspace">709</property>
  <property name="meta.media.color_trc">2</property>
  <property name="meta.media.has_b_frames">2</property>
  <property name="meta.media.width">1582</property>
  <property name="meta.media.height">932</property>
  <property name="meta.media.color_range">mpeg</property>
  <property name="meta.media.top_field_first">0</property>
  <property name="meta.media.progressive">1</property>
 </producer>
 <producer id="producer45" in="00:00:00.000" out="00:09:14.400">
  <property name="length">5545</property>
  <property name="eof">pause</property>
  <property name="resource">0.447212:/home/duangsuse/Proj/tv/参动之画/粒子/ls/Peek 2022-03-06 00-39.mp4</property>
  <property name="aspect_ratio">1</property>
  <property name="meta.media.nb_streams">1</property>
  <property name="meta.media.0.stream.type">video</property>
  <property name="meta.media.0.stream.frame_rate">10</property>
  <property name="meta.media.0.stream.sample_aspect_ratio">0</property>
  <property name="meta.media.0.codec.width">1582</property>
  <property name="meta.media.0.codec.height">932</property>
  <property name="meta.media.0.codec.rotate">0</property>
  <property name="meta.media.0.codec.pix_fmt">yuv420p</property>
  <property name="meta.media.0.codec.sample_aspect_ratio">0</property>
  <property name="meta.media.0.codec.colorspace">709</property>
  <property name="meta.media.0.codec.name">h264</property>
  <property name="meta.media.0.codec.long_name">H.264 / AVC / MPEG-4 AVC / MPEG-4 part 10</property>
  <property name="meta.media.0.codec.bit_rate">123998</property>
  <property name="meta.attr.0.stream.handler_name.markup">VideoHandler</property>
  <property name="meta.attr.0.stream.vendor_id.markup">[0][0][0][0]</property>
  <property name="meta.attr.major_brand.markup">isom</property>
  <property name="meta.attr.minor_version.markup">512</property>
  <property name="meta.attr.compatible_brands.markup">isomiso2avc1mp41</property>
  <property name="meta.attr.encoder.markup">Lavf58.76.100</property>
  <property name="seekable">1</property>
  <property name="meta.media.sample_aspect_num">1</property>
  <property name="meta.media.sample_aspect_den">1</property>
  <property name="audio_index">-1</property>
  <property name="video_index">0</property>
  <property name="mute_on_pause">1</property>
  <property name="warp_speed">0.447212</property>
  <property name="warp_resource">/home/duangsuse/Proj/tv/参动之画/粒子/ls/Peek 2022-03-06 00-39.mp4</property>
  <property name="mlt_service">timewarp</property>
  <property name="set.test_audio">1</property>
  <property name="set.test_image">0</property>
  <property name="kdenlive:id">9</property>
  <property name="warp_pitch">0</property>
  <property name="meta.media.frame_rate_num">10</property>
  <property name="meta.media.frame_rate_den">1</property>
  <property name="meta.media.colorspace">709</property>
  <property name="meta.media.color_trc">2</property>
  <property name="meta.media.has_b_frames">2</property>
  <property name="meta.media.width">1582</property>
  <property name="meta.media.height">932</property>
  <property name="meta.media.color_range">mpeg</property>
  <property name="meta.media.top_field_first">0</property>
  <property name="meta.media.progressive">1</property>
 </producer>
 <producer id="producer46" in="00:00:00.000" out="00:04:17.800">
  <property name="length">2579</property>
  <property name="eof">pause</property>
  <property name="resource">0.961703:/home/duangsuse/Proj/tv/参动之画/粒子/ls/Peek 2022-03-06 00-39.mp4</property>
  <property name="aspect_ratio">1</property>
  <property name="meta.media.nb_streams">1</property>
  <property name="meta.media.0.stream.type">video</property>
  <property name="meta.media.0.stream.frame_rate">10</property>
  <property name="meta.media.0.stream.sample_aspect_ratio">0</property>
  <property name="meta.media.0.codec.width">1582</property>
  <property name="meta.media.0.codec.height">932</property>
  <property name="meta.media.0.codec.rotate">0</property>
  <property name="meta.media.0.codec.pix_fmt">yuv420p</property>
  <property name="meta.media.0.codec.sample_aspect_ratio">0</property>
  <property name="meta.media.0.codec.colorspace">709</property>
  <property name="meta.media.0.codec.name">h264</property>
  <property name="meta.media.0.codec.long_name">H.264 / AVC / MPEG-4 AVC / MPEG-4 part 10</property>
  <property name="meta.media.0.codec.bit_rate">123998</property>
  <property name="meta.attr.0.stream.handler_name.markup">VideoHandler</property>
  <property name="meta.attr.0.stream.vendor_id.markup">[0][0][0][0]</property>
  <property name="meta.attr.major_brand.markup">isom</property>
  <property name="meta.attr.minor_version.markup">512</property>
  <property name="meta.attr.compatible_brands.markup">isomiso2avc1mp41</property>
  <property name="meta.attr.encoder.markup">Lavf58.76.100</property>
  <property name="seekable">1</property>
  <property name="meta.media.sample_aspect_num">1</property>
  <property name="meta.media.sample_aspect_den">1</property>
  <property name="audio_index">-1</property>
  <property name="video_index">0</property>
  <property name="mute_on_pause">1</property>
  <property name="warp_speed">0.961703</property>
  <property name="warp_resource">/home/duangsuse/Proj/tv/参动之画/粒子/ls/Peek 2022-03-06 00-39.mp4</property>
  <property name="mlt_service">timewarp</property>
  <property name="set.test_audio">1</property>
  <property name="set.test_image">0</property>
  <property name="kdenlive:id">9</property>
  <property name="warp_pitch">0</property>
  <property name="meta.media.frame_rate_num">10</property>
  <property name="meta.media.frame_rate_den">1</property>
  <property name="meta.media.colorspace">709</property>
  <property name="meta.media.color_trc">2</property>
  <property name="meta.media.has_b_frames">2</property>
  <property name="meta.media.width">1582</property>
  <property name="meta.media.height">932</property>
  <property name="meta.media.color_range">mpeg</property>
  <property name="meta.media.top_field_first">0</property>
  <property name="meta.media.progressive">1</property>
 </producer>
 <producer id="producer47" in="00:00:00.000" out="00:05:16.500">
  <property name="length">3166</property>
  <property name="eof">pause</property>
  <property name="resource">0.783323:/home/duangsuse/Proj/tv/参动之画/粒子/ls/Peek 2022-03-06 00-39.mp4</property>
  <property name="aspect_ratio">1</property>
  <property name="meta.media.nb_streams">1</property>
  <property name="meta.media.0.stream.type">video</property>
  <property name="meta.media.0.stream.frame_rate">10</property>
  <property name="meta.media.0.stream.sample_aspect_ratio">0</property>
  <property name="meta.media.0.codec.width">1582</property>
  <property name="meta.media.0.codec.height">932</property>
  <property name="meta.media.0.codec.rotate">0</property>
  <property name="meta.media.0.codec.pix_fmt">yuv420p</property>
  <property name="meta.media.0.codec.sample_aspect_ratio">0</property>
  <property name="meta.media.0.codec.colorspace">709</property>
  <property name="meta.media.0.codec.name">h264</property>
  <property name="meta.media.0.codec.long_name">H.264 / AVC / MPEG-4 AVC / MPEG-4 part 10</property>
  <property name="meta.media.0.codec.bit_rate">123998</property>
  <property name="meta.attr.0.stream.handler_name.markup">VideoHandler</property>
  <property name="meta.attr.0.stream.vendor_id.markup">[0][0][0][0]</property>
  <property name="meta.attr.major_brand.markup">isom</property>
  <property name="meta.attr.minor_version.markup">512</property>
  <property name="meta.attr.compatible_brands.markup">isomiso2avc1mp41</property>
  <property name="meta.attr.encoder.markup">Lavf58.76.100</property>
  <property name="seekable">1</property>
  <property name="meta.media.sample_aspect_num">1</property>
  <property name="meta.media.sample_aspect_den">1</property>
  <property name="audio_index">-1</property>
  <property name="video_index">0</property>
  <property name="mute_on_pause">1</property>
  <property name="warp_speed">0.783323</property>
  <property name="warp_resource">/home/duangsuse/Proj/tv/参动之画/粒子/ls/Peek 2022-03-06 00-39.mp4</property>
  <property name="mlt_service">timewarp</property>
  <property name="set.test_audio">1</property>
  <property name="set.test_image">0</property>
  <property name="kdenlive:id">9</property>
  <property name="warp_pitch">0</property>
  <property name="meta.media.frame_rate_num">10</property>
  <property name="meta.media.frame_rate_den">1</property>
  <property name="meta.media.colorspace">709</property>
  <property name="meta.media.color_trc">2</property>
  <property name="meta.media.has_b_frames">2</property>
  <property name="meta.media.width">1582</property>
  <property name="meta.media.height">932</property>
  <property name="meta.media.color_range">mpeg</property>
  <property name="meta.media.top_field_first">0</property>
  <property name="meta.media.progressive">1</property>
 </producer>
 <producer id="producer48" in="00:00:00.000" out="00:05:16.500">
  <property name="length">3166</property>
  <property name="eof">pause</property>
  <property name="resource">0.783323:/home/duangsuse/Proj/tv/参动之画/粒子/ls/Peek 2022-03-06 00-39.mp4</property>
  <property name="aspect_ratio">1</property>
  <property name="meta.media.nb_streams">1</property>
  <property name="meta.media.0.stream.type">video</property>
  <property name="meta.media.0.stream.frame_rate">10</property>
  <property name="meta.media.0.stream.sample_aspect_ratio">0</property>
  <property name="meta.media.0.codec.width">1582</property>
  <property name="meta.media.0.codec.height">932</property>
  <property name="meta.media.0.codec.rotate">0</property>
  <property name="meta.media.0.codec.pix_fmt">yuv420p</property>
  <property name="meta.media.0.codec.sample_aspect_ratio">0</property>
  <property name="meta.media.0.codec.colorspace">709</property>
  <property name="meta.media.0.codec.name">h264</property>
  <property name="meta.media.0.codec.long_name">H.264 / AVC / MPEG-4 AVC / MPEG-4 part 10</property>
  <property name="meta.media.0.codec.bit_rate">123998</property>
  <property name="meta.attr.0.stream.handler_name.markup">VideoHandler</property>
  <property name="meta.attr.0.stream.vendor_id.markup">[0][0][0][0]</property>
  <property name="meta.attr.major_brand.markup">isom</property>
  <property name="meta.attr.minor_version.markup">512</property>
  <property name="meta.attr.compatible_brands.markup">isomiso2avc1mp41</property>
  <property name="meta.attr.encoder.markup">Lavf58.76.100</property>
  <property name="seekable">1</property>
  <property name="meta.media.sample_aspect_num">1</property>
  <property name="meta.media.sample_aspect_den">1</property>
  <property name="audio_index">-1</property>
  <property name="video_index">0</property>
  <property name="mute_on_pause">1</property>
  <property name="warp_speed">0.783323</property>
  <property name="warp_resource">/home/duangsuse/Proj/tv/参动之画/粒子/ls/Peek 2022-03-06 00-39.mp4</property>
  <property name="mlt_service">timewarp</property>
  <property name="set.test_audio">1</property>
  <property name="set.test_image">0</property>
  <property name="kdenlive:id">9</property>
  <property name="warp_pitch">0</property>
  <property name="meta.media.frame_rate_num">10</property>
  <property name="meta.media.frame_rate_den">1</property>
  <property name="meta.media.colorspace">709</property>
  <property name="meta.media.color_trc">2</property>
  <property name="meta.media.has_b_frames">2</property>
  <property name="meta.media.width">1582</property>
  <property name="meta.media.height">932</property>
  <property name="meta.media.color_range">mpeg</property>
  <property name="meta.media.top_field_first">0</property>
  <property name="meta.media.progressive">1</property>
 </producer>
 <producer id="producer49" in="00:00:00.000" out="00:04:28.800">
  <property name="length">2689</property>
  <property name="eof">pause</property>
  <property name="resource">0.922400:/home/duangsuse/Proj/tv/参动之画/粒子/ls/Peek 2022-03-06 00-39.mp4</property>
  <property name="aspect_ratio">1</property>
  <property name="meta.media.nb_streams">1</property>
  <property name="meta.media.0.stream.type">video</property>
  <property name="meta.media.0.stream.frame_rate">10</property>
  <property name="meta.media.0.stream.sample_aspect_ratio">0</property>
  <property name="meta.media.0.codec.width">1582</property>
  <property name="meta.media.0.codec.height">932</property>
  <property name="meta.media.0.codec.rotate">0</property>
  <property name="meta.media.0.codec.pix_fmt">yuv420p</property>
  <property name="meta.media.0.codec.sample_aspect_ratio">0</property>
  <property name="meta.media.0.codec.colorspace">709</property>
  <property name="meta.media.0.codec.name">h264</property>
  <property name="meta.media.0.codec.long_name">H.264 / AVC / MPEG-4 AVC / MPEG-4 part 10</property>
  <property name="meta.media.0.codec.bit_rate">123998</property>
  <property name="meta.attr.0.stream.handler_name.markup">VideoHandler</property>
  <property name="meta.attr.0.stream.vendor_id.markup">[0][0][0][0]</property>
  <property name="meta.attr.major_brand.markup">isom</property>
  <property name="meta.attr.minor_version.markup">512</property>
  <property name="meta.attr.compatible_brands.markup">isomiso2avc1mp41</property>
  <property name="meta.attr.encoder.markup">Lavf58.76.100</property>
  <property name="seekable">1</property>
  <property name="meta.media.sample_aspect_num">1</property>
  <property name="meta.media.sample_aspect_den">1</property>
  <property name="audio_index">-1</property>
  <property name="video_index">0</property>
  <property name="mute_on_pause">1</property>
  <property name="warp_speed">0.9224</property>
  <property name="warp_resource">/home/duangsuse/Proj/tv/参动之画/粒子/ls/Peek 2022-03-06 00-39.mp4</property>
  <property name="mlt_service">timewarp</property>
  <property name="set.test_audio">1</property>
  <property name="set.test_image">0</property>
  <property name="kdenlive:id">9</property>
  <property name="warp_pitch">0</property>
  <property name="meta.media.frame_rate_num">10</property>
  <property name="meta.media.frame_rate_den">1</property>
  <property name="meta.media.colorspace">709</property>
  <property name="meta.media.color_trc">2</property>
  <property name="meta.media.has_b_frames">2</property>
  <property name="meta.media.width">1582</property>
  <property name="meta.media.height">932</property>
  <property name="meta.media.color_range">mpeg</property>
  <property name="meta.media.top_field_first">0</property>
  <property name="meta.media.progressive">1</property>
 </producer>
 <producer id="producer50" in="00:00:00.000" out="00:04:28.800">
  <property name="length">2689</property>
  <property name="eof">pause</property>
  <property name="resource">0.922400:/home/duangsuse/Proj/tv/参动之画/粒子/ls/Peek 2022-03-06 00-39.mp4</property>
  <property name="aspect_ratio">1</property>
  <property name="meta.media.nb_streams">1</property>
  <property name="meta.media.0.stream.type">video</property>
  <property name="meta.media.0.stream.frame_rate">10</property>
  <property name="meta.media.0.stream.sample_aspect_ratio">0</property>
  <property name="meta.media.0.codec.width">1582</property>
  <property name="meta.media.0.codec.height">932</property>
  <property name="meta.media.0.codec.rotate">0</property>
  <property name="meta.media.0.codec.pix_fmt">yuv420p</property>
  <property name="meta.media.0.codec.sample_aspect_ratio">0</property>
  <property name="meta.media.0.codec.colorspace">709</property>
  <property name="meta.media.0.codec.name">h264</property>
  <property name="meta.media.0.codec.long_name">H.264 / AVC / MPEG-4 AVC / MPEG-4 part 10</property>
  <property name="meta.media.0.codec.bit_rate">123998</property>
  <property name="meta.attr.0.stream.handler_name.markup">VideoHandler</property>
  <property name="meta.attr.0.stream.vendor_id.markup">[0][0][0][0]</property>
  <property name="meta.attr.major_brand.markup">isom</property>
  <property name="meta.attr.minor_version.markup">512</property>
  <property name="meta.attr.compatible_brands.markup">isomiso2avc1mp41</property>
  <property name="meta.attr.encoder.markup">Lavf58.76.100</property>
  <property name="seekable">1</property>
  <property name="meta.media.sample_aspect_num">1</property>
  <property name="meta.media.sample_aspect_den">1</property>
  <property name="audio_index">-1</property>
  <property name="video_index">0</property>
  <property name="mute_on_pause">1</property>
  <property name="warp_speed">0.9224</property>
  <property name="warp_resource">/home/duangsuse/Proj/tv/参动之画/粒子/ls/Peek 2022-03-06 00-39.mp4</property>
  <property name="mlt_service">timewarp</property>
  <property name="set.test_audio">1</property>
  <property name="set.test_image">0</property>
  <property name="kdenlive:id">9</property>
  <property name="warp_pitch">0</property>
  <property name="meta.media.frame_rate_num">10</property>
  <property name="meta.media.frame_rate_den">1</property>
  <property name="meta.media.colorspace">709</property>
  <property name="meta.media.color_trc">2</property>
  <property name="meta.media.has_b_frames">2</property>
  <property name="meta.media.width">1582</property>
  <property name="meta.media.height">932</property>
  <property name="meta.media.color_range">mpeg</property>
  <property name="meta.media.top_field_first">0</property>
  <property name="meta.media.progressive">1</property>
 </producer>
 <producer id="producer51" in="00:00:00.000" out="00:04:28.800">
  <property name="length">2689</property>
  <property name="eof">pause</property>
  <property name="resource">0.922400:/home/duangsuse/Proj/tv/参动之画/粒子/ls/Peek 2022-03-06 00-39.mp4</property>
  <property name="aspect_ratio">1</property>
  <property name="meta.media.nb_streams">1</property>
  <property name="meta.media.0.stream.type">video</property>
  <property name="meta.media.0.stream.frame_rate">10</property>
  <property name="meta.media.0.stream.sample_aspect_ratio">0</property>
  <property name="meta.media.0.codec.width">1582</property>
  <property name="meta.media.0.codec.height">932</property>
  <property name="meta.media.0.codec.rotate">0</property>
  <property name="meta.media.0.codec.pix_fmt">yuv420p</property>
  <property name="meta.media.0.codec.sample_aspect_ratio">0</property>
  <property name="meta.media.0.codec.colorspace">709</property>
  <property name="meta.media.0.codec.name">h264</property>
  <property name="meta.media.0.codec.long_name">H.264 / AVC / MPEG-4 AVC / MPEG-4 part 10</property>
  <property name="meta.media.0.codec.bit_rate">123998</property>
  <property name="meta.attr.0.stream.handler_name.markup">VideoHandler</property>
  <property name="meta.attr.0.stream.vendor_id.markup">[0][0][0][0]</property>
  <property name="meta.attr.major_brand.markup">isom</property>
  <property name="meta.attr.minor_version.markup">512</property>
  <property name="meta.attr.compatible_brands.markup">isomiso2avc1mp41</property>
  <property name="meta.attr.encoder.markup">Lavf58.76.100</property>
  <property name="seekable">1</property>
  <property name="meta.media.sample_aspect_num">1</property>
  <property name="meta.media.sample_aspect_den">1</property>
  <property name="audio_index">-1</property>
  <property name="video_index">0</property>
  <property name="mute_on_pause">1</property>
  <property name="warp_speed">0.9224</property>
  <property name="warp_resource">/home/duangsuse/Proj/tv/参动之画/粒子/ls/Peek 2022-03-06 00-39.mp4</property>
  <property name="mlt_service">timewarp</property>
  <property name="set.test_audio">1</property>
  <property name="set.test_image">0</property>
  <property name="kdenlive:id">9</property>
  <property name="warp_pitch">0</property>
  <property name="meta.media.frame_rate_num">10</property>
  <property name="meta.media.frame_rate_den">1</property>
  <property name="meta.media.colorspace">709</property>
  <property name="meta.media.color_trc">2</property>
  <property name="meta.media.has_b_frames">2</property>
  <property name="meta.media.width">1582</property>
  <property name="meta.media.height">932</property>
  <property name="meta.media.color_range">mpeg</property>
  <property name="meta.media.top_field_first">0</property>
  <property name="meta.media.progressive">1</property>
 </producer>
 <producer id="producer52" in="00:00:00.000" out="00:04:28.800">
  <property name="length">2689</property>
  <property name="eof">pause</property>
  <property name="resource">0.922400:/home/duangsuse/Proj/tv/参动之画/粒子/ls/Peek 2022-03-06 00-39.mp4</property>
  <property name="aspect_ratio">1</property>
  <property name="meta.media.nb_streams">1</property>
  <property name="meta.media.0.stream.type">video</property>
  <property name="meta.media.0.stream.frame_rate">10</property>
  <property name="meta.media.0.stream.sample_aspect_ratio">0</property>
  <property name="meta.media.0.codec.width">1582</property>
  <property name="meta.media.0.codec.height">932</property>
  <property name="meta.media.0.codec.rotate">0</property>
  <property name="meta.media.0.codec.pix_fmt">yuv420p</property>
  <property name="meta.media.0.codec.sample_aspect_ratio">0</property>
  <property name="meta.media.0.codec.colorspace">709</property>
  <property name="meta.media.0.codec.name">h264</property>
  <property name="meta.media.0.codec.long_name">H.264 / AVC / MPEG-4 AVC / MPEG-4 part 10</property>
  <property name="meta.media.0.codec.bit_rate">123998</property>
  <property name="meta.attr.0.stream.handler_name.markup">VideoHandler</property>
  <property name="meta.attr.0.stream.vendor_id.markup">[0][0][0][0]</property>
  <property name="meta.attr.major_brand.markup">isom</property>
  <property name="meta.attr.minor_version.markup">512</property>
  <property name="meta.attr.compatible_brands.markup">isomiso2avc1mp41</property>
  <property name="meta.attr.encoder.markup">Lavf58.76.100</property>
  <property name="seekable">1</property>
  <property name="meta.media.sample_aspect_num">1</property>
  <property name="meta.media.sample_aspect_den">1</property>
  <property name="audio_index">-1</property>
  <property name="video_index">0</property>
  <property name="mute_on_pause">1</property>
  <property name="warp_speed">0.9224</property>
  <property name="warp_resource">/home/duangsuse/Proj/tv/参动之画/粒子/ls/Peek 2022-03-06 00-39.mp4</property>
  <property name="mlt_service">timewarp</property>
  <property name="set.test_audio">1</property>
  <property name="set.test_image">0</property>
  <property name="kdenlive:id">9</property>
  <property name="warp_pitch">0</property>
  <property name="meta.media.frame_rate_num">10</property>
  <property name="meta.media.frame_rate_den">1</property>
  <property name="meta.media.colorspace">709</property>
  <property name="meta.media.color_trc">2</property>
  <property name="meta.media.has_b_frames">2</property>
  <property name="meta.media.width">1582</property>
  <property name="meta.media.height">932</property>
  <property name="meta.media.color_range">mpeg</property>
  <property name="meta.media.top_field_first">0</property>
  <property name="meta.media.progressive">1</property>
 </producer>
 <producer id="producer53" in="00:00:00.000" out="00:04:28.800">
  <property name="length">2689</property>
  <property name="eof">pause</property>
  <property name="resource">0.922400:/home/duangsuse/Proj/tv/参动之画/粒子/ls/Peek 2022-03-06 00-39.mp4</property>
  <property name="aspect_ratio">1</property>
  <property name="meta.media.nb_streams">1</property>
  <property name="meta.media.0.stream.type">video</property>
  <property name="meta.media.0.stream.frame_rate">10</property>
  <property name="meta.media.0.stream.sample_aspect_ratio">0</property>
  <property name="meta.media.0.codec.width">1582</property>
  <property name="meta.media.0.codec.height">932</property>
  <property name="meta.media.0.codec.rotate">0</property>
  <property name="meta.media.0.codec.pix_fmt">yuv420p</property>
  <property name="meta.media.0.codec.sample_aspect_ratio">0</property>
  <property name="meta.media.0.codec.colorspace">709</property>
  <property name="meta.media.0.codec.name">h264</property>
  <property name="meta.media.0.codec.long_name">H.264 / AVC / MPEG-4 AVC / MPEG-4 part 10</property>
  <property name="meta.media.0.codec.bit_rate">123998</property>
  <property name="meta.attr.0.stream.handler_name.markup">VideoHandler</property>
  <property name="meta.attr.0.stream.vendor_id.markup">[0][0][0][0]</property>
  <property name="meta.attr.major_brand.markup">isom</property>
  <property name="meta.attr.minor_version.markup">512</property>
  <property name="meta.attr.compatible_brands.markup">isomiso2avc1mp41</property>
  <property name="meta.attr.encoder.markup">Lavf58.76.100</property>
  <property name="seekable">1</property>
  <property name="meta.media.sample_aspect_num">1</property>
  <property name="meta.media.sample_aspect_den">1</property>
  <property name="audio_index">-1</property>
  <property name="video_index">0</property>
  <property name="mute_on_pause">1</property>
  <property name="warp_speed">0.9224</property>
  <property name="warp_resource">/home/duangsuse/Proj/tv/参动之画/粒子/ls/Peek 2022-03-06 00-39.mp4</property>
  <property name="mlt_service">timewarp</property>
  <property name="set.test_audio">1</property>
  <property name="set.test_image">0</property>
  <property name="kdenlive:id">9</property>
  <property name="warp_pitch">0</property>
  <property name="meta.media.frame_rate_num">10</property>
  <property name="meta.media.frame_rate_den">1</property>
  <property name="meta.media.colorspace">709</property>
  <property name="meta.media.color_trc">2</property>
  <property name="meta.media.has_b_frames">2</property>
  <property name="meta.media.width">1582</property>
  <property name="meta.media.height">932</property>
  <property name="meta.media.color_range">mpeg</property>
  <property name="meta.media.top_field_first">0</property>
  <property name="meta.media.progressive">1</property>
 </producer>
 <producer id="producer54" in="00:00:00.000" out="00:04:28.800">
  <property name="length">2689</property>
  <property name="eof">pause</property>
  <property name="resource">0.922400:/home/duangsuse/Proj/tv/参动之画/粒子/ls/Peek 2022-03-06 00-39.mp4</property>
  <property name="aspect_ratio">1</property>
  <property name="meta.media.nb_streams">1</property>
  <property name="meta.media.0.stream.type">video</property>
  <property name="meta.media.0.stream.frame_rate">10</property>
  <property name="meta.media.0.stream.sample_aspect_ratio">0</property>
  <property name="meta.media.0.codec.width">1582</property>
  <property name="meta.media.0.codec.height">932</property>
  <property name="meta.media.0.codec.rotate">0</property>
  <property name="meta.media.0.codec.pix_fmt">yuv420p</property>
  <property name="meta.media.0.codec.sample_aspect_ratio">0</property>
  <property name="meta.media.0.codec.colorspace">709</property>
  <property name="meta.media.0.codec.name">h264</property>
  <property name="meta.media.0.codec.long_name">H.264 / AVC / MPEG-4 AVC / MPEG-4 part 10</property>
  <property name="meta.media.0.codec.bit_rate">123998</property>
  <property name="meta.attr.0.stream.handler_name.markup">VideoHandler</property>
  <property name="meta.attr.0.stream.vendor_id.markup">[0][0][0][0]</property>
  <property name="meta.attr.major_brand.markup">isom</property>
  <property name="meta.attr.minor_version.markup">512</property>
  <property name="meta.attr.compatible_brands.markup">isomiso2avc1mp41</property>
  <property name="meta.attr.encoder.markup">Lavf58.76.100</property>
  <property name="seekable">1</property>
  <property name="meta.media.sample_aspect_num">1</property>
  <property name="meta.media.sample_aspect_den">1</property>
  <property name="audio_index">-1</property>
  <property name="video_index">0</property>
  <property name="mute_on_pause">1</property>
  <property name="warp_speed">0.9224</property>
  <property name="warp_resource">/home/duangsuse/Proj/tv/参动之画/粒子/ls/Peek 2022-03-06 00-39.mp4</property>
  <property name="mlt_service">timewarp</property>
  <property name="set.test_audio">1</property>
  <property name="set.test_image">0</property>
  <property name="kdenlive:id">9</property>
  <property name="warp_pitch">0</property>
  <property name="meta.media.frame_rate_num">10</property>
  <property name="meta.media.frame_rate_den">1</property>
  <property name="meta.media.colorspace">709</property>
  <property name="meta.media.color_trc">2</property>
  <property name="meta.media.has_b_frames">2</property>
  <property name="meta.media.width">1582</property>
  <property name="meta.media.height">932</property>
  <property name="meta.media.color_range">mpeg</property>
  <property name="meta.media.top_field_first">0</property>
  <property name="meta.media.progressive">1</property>
 </producer>
 <playlist id="playlist4">
  <entry producer="producer36" in="00:00:00.000" out="00:00:13.200">
   <property name="kdenlive:id">8</property>
   <filter id="filter8" in="00:00:13.000" out="00:00:13.200">
    <property name="start">1</property>
    <property name="level">1</property>
    <property name="mlt_service">brightness</property>
    <property name="kdenlive_id">fade_to_black</property>
    <property name="alpha">00:00:00.000=1;00:00:00.200=0</property>
   </filter>
  </entry>
  <blank length="00:00:02.900"/>
  <entry producer="producer37" in="00:00:00.000" out="00:00:01.200">
   <property name="kdenlive:id">5</property>
  </entry>
  <entry producer="producer38" in="00:00:00.000" out="00:00:01.300">
   <property name="kdenlive:id">4</property>
  </entry>
  <blank length="00:00:02.400"/>
  <entry producer="producer39" in="00:00:05.000" out="00:00:15.700">
   <property name="kdenlive:id">9</property>
   <filter id="filter9" in="00:00:15.400" out="00:00:15.700">
    <property name="start">1</property>
    <property name="level">1</property>
    <property name="mlt_service">brightness</property>
    <property name="kdenlive_id">fade_to_black</property>
    <property name="alpha">00:00:00.000=1;00:00:00.300=0</property>
   </filter>
  </entry>
  <blank length="00:00:01.500"/>
  <entry producer="producer40" in="00:00:15.800" out="00:00:26.200">
   <property name="kdenlive:id">9</property>
  </entry>
  <entry producer="producer41" in="00:00:26.300" out="00:00:26.600">
   <property name="kdenlive:id">9</property>
  </entry>
  <blank length="00:00:02.200"/>
  <entry producer="producer42" in="00:00:33.400" out="00:00:35.900">
   <property name="kdenlive:id">9</property>
  </entry>
  <blank length="00:00:01.200"/>
  <entry producer="producer43" in="00:00:22.700" out="00:00:35.600">
   <property name="kdenlive:id">9</property>
   <filter id="filter10" in="00:00:35.300" out="00:00:35.600">
    <property name="start">1</property>
    <property name="level">1</property>
    <property name="mlt_service">brightness</property>
    <property name="kdenlive_id">fade_to_black</property>
    <property name="alpha">00:00:00.000=1;00:00:00.300=0</property>
   </filter>
  </entry>
  <blank length="00:00:00.900"/>
  <entry producer="producer44" in="00:00:35.700" out="00:00:38.500">
   <property name="kdenlive:id">9</property>
  </entry>
  <entry producer="producer45" in="00:01:24.900" out="00:01:27.000">
   <property name="kdenlive:id">9</property>
  </entry>
  <blank length="00:00:01.300"/>
  <entry producer="producer46" in="00:00:41.800" out="00:01:22.100">
   <property name="kdenlive:id">9</property>
   <filter id="filter11" in="00:00:41.800" out="00:00:42.300">
    <property name="start">1</property>
    <property name="level">1</property>
    <property name="mlt_service">brightness</property>
    <property name="kdenlive_id">fade_from_black</property>
    <property name="alpha">00:00:00.000=0;00:00:00.500=1</property>
   </filter>
  </entry>
  <blank length="00:00:02.200"/>
  <entry producer="producer10" in="00:00:00.000" out="00:00:04.900">
   <property name="kdenlive:id">12</property>
  </entry>
  <blank length="00:00:01.800"/>
  <entry producer="producer11" in="00:00:00.000" out="00:00:04.900">
   <property name="kdenlive:id">13</property>
  </entry>
  <blank length="00:00:05.300"/>
  <entry producer="producer12" in="00:00:00.000" out="00:00:03.100">
   <property name="kdenlive:id">14</property>
  </entry>
  <blank length="00:00:01.200"/>
  <entry producer="producer47" in="00:01:41.500" out="00:01:52.400">
   <property name="kdenlive:id">9</property>
  </entry>
  <blank length="00:00:01.600"/>
  <entry producer="producer48" in="00:01:52.500" out="00:02:03.500">
   <property name="kdenlive:id">9</property>
  </entry>
  <blank length="00:00:04.900"/>
  <entry producer="producer49" in="00:01:44.900" out="00:02:46.800">
   <property name="kdenlive:id">9</property>
  </entry>
  <blank length="00:00:02.100"/>
  <entry producer="producer50" in="00:02:46.900" out="00:03:00.000">
   <property name="kdenlive:id">9</property>
  </entry>
  <blank length="00:00:01.200"/>
  <entry producer="producer51" in="00:03:00.100" out="00:03:11.100">
   <property name="kdenlive:id">9</property>
  </entry>
  <entry producer="producer52" in="00:03:11.200" out="00:03:12.300">
   <property name="kdenlive:id">9</property>
   <property name="kdenlive:activeeffect">0</property>
   <filter id="filter12">
    <property name="version">0.1</property>
    <property name="mlt_service">frei0r.distort0r</property>
    <property name="kdenlive_id">frei0r.distort0r</property>
    <property name="Amplitude">00:03:11.200=0.23</property>
    <property name="Frequency">00:03:11.200=-0.022</property>
    <property name="kdenlive:collapsed">0</property>
   </filter>
  </entry>
  <entry producer="producer53" in="00:03:12.400" out="00:04:24.000">
   <property name="kdenlive:id">9</property>
  </entry>
  <entry producer="producer54" in="00:04:26.400" out="00:04:28.700">
   <property name="kdenlive:id">9</property>
   <filter id="filter13" in="00:04:27.500" out="00:04:28.700">
    <property name="start">1</property>
    <property name="level">1</property>
    <property name="mlt_service">brightness</property>
    <property name="kdenlive_id">fade_to_black</property>
    <property name="alpha">00:00:00.000=1;00:00:01.200=0</property>
    <property name="kdenlive:collapsed">0</property>
   </filter>
  </entry>
  <blank length="00:00:00.900"/>
  <entry producer="producer15" in="00:00:00.000" out="00:00:04.900">
   <property name="kdenlive:id">19</property>
  </entry>
  <blank length="00:00:00.500"/>
  <entry producer="producer16" in="00:00:00.000" out="00:00:06.300">
   <property name="kdenlive:id">20</property>
  </entry>
  <blank length="00:00:01.100"/>
  <entry producer="producer17" in="00:00:00.000" out="00:00:04.900">
   <property name="kdenlive:id">21</property>
  </entry>
  <blank length="00:00:00.600"/>
  <entry producer="producer18" in="00:00:00.000" out="00:00:04.900">
   <property name="kdenlive:id">22</property>
  </entry>
  <blank length="00:00:01.800"/>
  <entry producer="producer19" in="00:00:00.000" out="00:00:04.900">
   <property name="kdenlive:id">23</property>
  </entry>
  <blank length="00:00:03.100"/>
  <entry producer="producer20" in="00:00:00.000" out="00:00:05.300">
   <property name="kdenlive:id">24</property>
  </entry>
  <blank length="00:00:01.100"/>
  <entry producer="producer21" in="00:00:00.000" out="00:00:02.600">
   <property name="kdenlive:id">25</property>
  </entry>
  <blank length="00:00:00.400"/>
  <entry producer="producer22" in="00:00:00.000" out="00:00:06.300">
   <property name="kdenlive:id">26</property>
   <filter id="filter14" in="00:00:05.800" out="00:00:06.300">
    <property name="start">1</property>
    <property name="level">1</property>
    <property name="mlt_service">brightness</property>
    <property name="kdenlive_id">fade_to_black</property>
    <property name="alpha">00:00:00.000=1;00:00:00.500=0</property>
   </filter>
  </entry>
  <blank length="00:00:00.700"/>
  <entry producer="producer23" in="00:00:00.000" out="00:00:04.900">
   <property name="kdenlive:id">27</property>
  </entry>
  <blank length="00:00:01.500"/>
  <entry producer="producer24" in="00:00:00.000" out="00:00:04.900">
   <property name="kdenlive:id">28</property>
  </entry>
  <blank length="00:00:00.800"/>
  <entry producer="producer25" in="00:00:00.000" out="00:00:03.000">
   <property name="kdenlive:id">29</property>
  </entry>
  <blank length="00:00:12.300"/>
  <entry producer="producer26" in="00:00:00.000" out="00:00:06.600">
   <property name="kdenlive:id">30</property>
  </entry>
  <blank length="00:00:04.600"/>
  <entry producer="producer27" in="00:00:00.000" out="00:00:13.700">
   <property name="kdenlive:id">31</property>
  </entry>
  <blank length="00:00:00.400"/>
  <entry producer="producer28" in="00:00:00.000" out="00:00:07.500">
   <property name="kdenlive:id">32</property>
  </entry>
  <blank length="00:00:00.500"/>
  <entry producer="producer29" in="00:00:00.000" out="00:00:04.900">
   <property name="kdenlive:id">33</property>
  </entry>
  <blank length="00:00:01.000"/>
  <entry producer="producer30" in="00:00:00.000" out="00:00:04.900">
   <property name="kdenlive:id">34</property>
  </entry>
  <blank length="00:00:00.300"/>
  <entry producer="producer31" in="00:00:00.000" out="00:00:06.000">
   <property name="kdenlive:id">35</property>
  </entry>
  <blank length="00:00:02.900"/>
  <entry producer="producer32" in="00:00:00.000" out="00:00:09.900">
   <property name="kdenlive:id">36</property>
   <filter id="filter15" in="00:00:09.500" out="00:00:09.900">
    <property name="start">1</property>
    <property name="level">1</property>
    <property name="mlt_service">brightness</property>
    <property name="kdenlive_id">fade_to_black</property>
    <property name="alpha">00:00:00.000=1;00:00:00.400=0</property>
    <property name="kdenlive:collapsed">0</property>
   </filter>
  </entry>
 </playlist>
 <playlist id="playlist5"/>
 <tractor id="tractor2" in="00:00:00.000" out="00:07:51.000">
  <property name="kdenlive:trackheight">69</property>
  <property name="kdenlive:timeline_active">1</property>
  <property name="kdenlive:collapsed">0</property>
  <property name="kdenlive:thumbs_format"/>
  <property name="kdenlive:audio_rec"/>
  <track hide="audio" producer="playlist4"/>
  <track hide="audio" producer="playlist5"/>
 </tractor>
 <producer id="producer55" in="00:00:00.000" out="00:00:02.400">
  <property name="length">25</property>
  <property name="eof">pause</property>
  <property name="resource">5.440000:/home/duangsuse/Proj/tv/参动之画/粒子/ls/Peek 2022-03-06 00-44.mp4</property>
  <property name="aspect_ratio">1</property>
  <property name="meta.media.nb_streams">1</property>
  <property name="meta.media.0.stream.type">video</property>
  <property name="meta.media.0.stream.frame_rate">10</property>
  <property name="meta.media.0.stream.sample_aspect_ratio">0</property>
  <property name="meta.media.0.codec.width">1582</property>
  <property name="meta.media.0.codec.height">932</property>
  <property name="meta.media.0.codec.rotate">0</property>
  <property name="meta.media.0.codec.pix_fmt">yuv420p</property>
  <property name="meta.media.0.codec.sample_aspect_ratio">0</property>
  <property name="meta.media.0.codec.colorspace">709</property>
  <property name="meta.media.0.codec.name">h264</property>
  <property name="meta.media.0.codec.long_name">H.264 / AVC / MPEG-4 AVC / MPEG-4 part 10</property>
  <property name="meta.media.0.codec.bit_rate">530005</property>
  <property name="meta.attr.0.stream.handler_name.markup">VideoHandler</property>
  <property name="meta.attr.0.stream.vendor_id.markup">[0][0][0][0]</property>
  <property name="meta.attr.major_brand.markup">isom</property>
  <property name="meta.attr.minor_version.markup">512</property>
  <property name="meta.attr.compatible_brands.markup">isomiso2avc1mp41</property>
  <property name="meta.attr.encoder.markup">Lavf58.76.100</property>
  <property name="seekable">1</property>
  <property name="meta.media.sample_aspect_num">1</property>
  <property name="meta.media.sample_aspect_den">1</property>
  <property name="audio_index">-1</property>
  <property name="video_index">0</property>
  <property name="mute_on_pause">1</property>
  <property name="warp_speed">5.44</property>
  <property name="warp_resource">/home/duangsuse/Proj/tv/参动之画/粒子/ls/Peek 2022-03-06 00-44.mp4</property>
  <property name="mlt_service">timewarp</property>
  <property name="set.test_audio">1</property>
  <property name="set.test_image">0</property>
  <property name="kdenlive:id">6</property>
  <property name="warp_pitch">0</property>
  <property name="meta.media.frame_rate_num">10</property>
  <property name="meta.media.frame_rate_den">1</property>
  <property name="meta.media.colorspace">709</property>
  <property name="meta.media.color_trc">2</property>
  <property name="meta.media.has_b_frames">2</property>
  <property name="meta.media.width">1582</property>
  <property name="meta.media.height">932</property>
  <property name="meta.media.color_range">mpeg</property>
  <property name="meta.media.top_field_first">0</property>
  <property name="meta.media.progressive">1</property>
 </producer>
 <producer id="producer56" in="00:00:00.000" out="00:00:09.400">
  <property name="length">95</property>
  <property name="eof">pause</property>
  <property name="resource">1.621053:/home/duangsuse/Proj/tv/参动之画/粒子/ls/Peek 2022-03-06 00-48.mp4</property>
  <property name="aspect_ratio">1</property>
  <property name="meta.media.nb_streams">1</property>
  <property name="meta.media.0.stream.type">video</property>
  <property name="meta.media.0.stream.frame_rate">10</property>
  <property name="meta.media.0.stream.sample_aspect_ratio">0</property>
  <property name="meta.media.0.codec.width">1582</property>
  <property name="meta.media.0.codec.height">932</property>
  <property name="meta.media.0.codec.rotate">0</property>
  <property name="meta.media.0.codec.pix_fmt">yuv420p</property>
  <property name="meta.media.0.codec.sample_aspect_ratio">0</property>
  <property name="meta.media.0.codec.colorspace">709</property>
  <property name="meta.media.0.codec.name">h264</property>
  <property name="meta.media.0.codec.long_name">H.264 / AVC / MPEG-4 AVC / MPEG-4 part 10</property>
  <property name="meta.media.0.codec.bit_rate">42565</property>
  <property name="meta.attr.0.stream.handler_name.markup">VideoHandler</property>
  <property name="meta.attr.0.stream.vendor_id.markup">[0][0][0][0]</property>
  <property name="meta.attr.major_brand.markup">isom</property>
  <property name="meta.attr.minor_version.markup">512</property>
  <property name="meta.attr.compatible_brands.markup">isomiso2avc1mp41</property>
  <property name="meta.attr.encoder.markup">Lavf58.76.100</property>
  <property name="seekable">1</property>
  <property name="meta.media.sample_aspect_num">1</property>
  <property name="meta.media.sample_aspect_den">1</property>
  <property name="audio_index">-1</property>
  <property name="video_index">0</property>
  <property name="mute_on_pause">1</property>
  <property name="warp_speed">1.62105</property>
  <property name="warp_resource">/home/duangsuse/Proj/tv/参动之画/粒子/ls/Peek 2022-03-06 00-48.mp4</property>
  <property name="mlt_service">timewarp</property>
  <property name="set.test_audio">1</property>
  <property name="set.test_image">0</property>
  <property name="kdenlive:id">3</property>
  <property name="warp_pitch">0</property>
  <property name="meta.media.frame_rate_num">10</property>
  <property name="meta.media.frame_rate_den">1</property>
  <property name="meta.media.colorspace">709</property>
  <property name="meta.media.color_trc">2</property>
  <property name="meta.media.has_b_frames">2</property>
  <property name="meta.media.width">1582</property>
  <property name="meta.media.height">932</property>
  <property name="meta.media.color_range">mpeg</property>
  <property name="meta.media.top_field_first">0</property>
  <property name="meta.media.progressive">1</property>
 </producer>
 <producer id="producer57" in="00:00:00.000" out="00:00:10.500">
  <property name="length">106</property>
  <property name="eof">pause</property>
  <property name="resource">1.216981:/home/duangsuse/Proj/tv/参动之画/粒子/ls/Peek 2022-03-06 00-43.mp4</property>
  <property name="aspect_ratio">1</property>
  <property name="meta.media.nb_streams">1</property>
  <property name="meta.media.0.stream.type">video</property>
  <property name="meta.media.0.stream.frame_rate">10</property>
  <property name="meta.media.0.stream.sample_aspect_ratio">0</property>
  <property name="meta.media.0.codec.width">1582</property>
  <property name="meta.media.0.codec.height">932</property>
  <property name="meta.media.0.codec.rotate">0</property>
  <property name="meta.media.0.codec.pix_fmt">yuv420p</property>
  <property name="meta.media.0.codec.sample_aspect_ratio">0</property>
  <property name="meta.media.0.codec.colorspace">709</property>
  <property name="meta.media.0.codec.name">h264</property>
  <property name="meta.media.0.codec.long_name">H.264 / AVC / MPEG-4 AVC / MPEG-4 part 10</property>
  <property name="meta.media.0.codec.bit_rate">10652017</property>
  <property name="meta.attr.0.stream.handler_name.markup">VideoHandler</property>
  <property name="meta.attr.0.stream.vendor_id.markup">[0][0][0][0]</property>
  <property name="meta.attr.major_brand.markup">isom</property>
  <property name="meta.attr.minor_version.markup">512</property>
  <property name="meta.attr.compatible_brands.markup">isomiso2avc1mp41</property>
  <property name="meta.attr.encoder.markup">Lavf58.76.100</property>
  <property name="seekable">1</property>
  <property name="meta.media.sample_aspect_num">1</property>
  <property name="meta.media.sample_aspect_den">1</property>
  <property name="audio_index">-1</property>
  <property name="video_index">0</property>
  <property name="mute_on_pause">1</property>
  <property name="warp_speed">1.21698</property>
  <property name="warp_resource">/home/duangsuse/Proj/tv/参动之画/粒子/ls/Peek 2022-03-06 00-43.mp4</property>
  <property name="mlt_service">timewarp</property>
  <property name="set.test_audio">1</property>
  <property name="set.test_image">0</property>
  <property name="kdenlive:id">7</property>
  <property name="warp_pitch">0</property>
  <property name="meta.media.frame_rate_num">10</property>
  <property name="meta.media.frame_rate_den">1</property>
  <property name="meta.media.colorspace">709</property>
  <property name="meta.media.color_trc">2</property>
  <property name="meta.media.has_b_frames">2</property>
  <property name="meta.media.width">1582</property>
  <property name="meta.media.height">932</property>
  <property name="meta.media.color_range">mpeg</property>
  <property name="meta.media.top_field_first">0</property>
  <property name="meta.media.progressive">1</property>
 </producer>
 <playlist id="playlist6">
  <blank length="00:00:11.200"/>
  <entry producer="producer33" in="00:00:00.000" out="00:00:04.900">
   <property name="kdenlive:id">37</property>
   <filter id="filter16" out="00:00:00.900">
    <property name="start">1</property>
    <property name="level">1</property>
    <property name="mlt_service">brightness</property>
    <property name="kdenlive_id">fade_from_black</property>
    <property name="alpha">00:00:00.000=0;00:00:00.900=1</property>
    <property name="kdenlive:collapsed">0</property>
   </filter>
  </entry>
  <blank length="00:00:02.600"/>
  <entry producer="producer55" in="00:00:00.000" out="00:00:02.400">
   <property name="kdenlive:id">6</property>
  </entry>
  <blank length="00:01:53.600"/>
  <entry producer="producer56" in="00:00:00.000" out="00:00:09.400">
   <property name="kdenlive:id">3</property>
   <property name="kdenlive:activeeffect">0</property>
   <filter id="filter17">
    <property name="version">0.3</property>
    <property name="mlt_service">frei0r.bluescreen0r</property>
    <property name="kdenlive_id">frei0r.bluescreen0r</property>
    <property name="0">0x0b360eff</property>
    <property name="1">0.016892</property>
    <property name="kdenlive:collapsed">0</property>
    <property name="disable">0</property>
   </filter>
  </entry>
  <blank length="00:01:09.100"/>
  <entry producer="producer13" in="00:00:00.000" out="00:00:02.100">
   <property name="kdenlive:id">15</property>
  </entry>
  <blank length="00:00:34.900"/>
  <entry producer="producer57" in="00:00:00.000" out="00:00:10.500">
   <property name="kdenlive:id">7</property>
   <property name="kdenlive:activeeffect">2</property>
   <filter id="filter18">
    <property name="version">0.3</property>
    <property name="mlt_service">frei0r.bluescreen0r</property>
    <property name="kdenlive_id">frei0r.bluescreen0r</property>
    <property name="0">0x162526ff</property>
    <property name="1">0.288</property>
    <property name="kdenlive:collapsed">0</property>
    <property name="disable">0</property>
   </filter>
   <filter id="filter19">
    <property name="mlt_service">avfilter.vflip</property>
    <property name="kdenlive_id">avfilter.vflip</property>
    <property name="kdenlive:collapsed">0</property>
   </filter>
   <filter id="filter20">
    <property name="rotate_center">1</property>
    <property name="mlt_service">qtblend</property>
    <property name="kdenlive_id">qtblend</property>
    <property name="rect">00:00:00.000=0 0 1582 932 0.000000;00:00:01.000=0 0 1582 932 0.307692;00:00:01.500~=0 0 1582 932 1.000000</property>
    <property name="rotation">00:00:00.000=0;00:00:01.000=0;00:00:01.500~=0</property>
    <property name="compositing">0</property>
    <property name="distort">0</property>
    <property name="kdenlive:collapsed">0</property>
   </filter>
   <filter id="filter21" in="00:00:08.900" out="00:00:10.500">
    <property name="start">1</property>
    <property name="level">1</property>
    <property name="mlt_service">brightness</property>
    <property name="kdenlive_id">fade_to_black</property>
    <property name="alpha">00:00:00.000=1;00:00:01.600=0</property>
   </filter>
  </entry>
  <blank length="00:00:29.400"/>
  <entry producer="producer14" in="00:00:00.000" out="00:00:09.400">
   <property name="kdenlive:id">16</property>
  </entry>
 </playlist>
 <playlist id="playlist7"/>
 <tractor id="tractor3" in="00:00:00.000" out="00:05:00.000">
  <property name="kdenlive:trackheight">69</property>
  <property name="kdenlive:timeline_active">1</property>
  <property name="kdenlive:collapsed">0</property>
  <property name="kdenlive:thumbs_format"/>
  <property name="kdenlive:audio_rec"/>
  <track hide="audio" producer="playlist6"/>
  <track hide="audio" producer="playlist7"/>
 </tractor>
 <tractor id="tractor4" in="00:00:00.000" out="00:58:01.500">
  <track producer="black_track"/>
  <track producer="tractor0"/>
  <track producer="tractor1"/>
  <track producer="tractor2"/>
  <track producer="tractor3"/>
  <transition id="transition0">
   <property name="a_track">0</property>
   <property name="b_track">1</property>
   <property name="mlt_service">mix</property>
   <property name="kdenlive_id">mix</property>
   <property name="internal_added">237</property>
   <property name="always_active">1</property>
   <property name="accepts_blanks">1</property>
   <property name="sum">1</property>
  </transition>
  <transition id="transition1">
   <property name="a_track">0</property>
   <property name="b_track">2</property>
   <property name="mlt_service">mix</property>
   <property name="kdenlive_id">mix</property>
   <property name="internal_added">237</property>
   <property name="always_active">1</property>
   <property name="accepts_blanks">1</property>
   <property name="sum">1</property>
  </transition>
  <transition id="transition2">
   <property name="a_track">0</property>
   <property name="b_track">3</property>
   <property name="version">0.9</property>
   <property name="mlt_service">frei0r.cairoblend</property>
   <property name="kdenlive_id">frei0r.cairoblend</property>
   <property name="internal_added">237</property>
   <property name="always_active">1</property>
  </transition>
  <transition id="transition3">
   <property name="a_track">0</property>
   <property name="b_track">4</property>
   <property name="version">0.9</property>
   <property name="mlt_service">frei0r.cairoblend</property>
   <property name="kdenlive_id">frei0r.cairoblend</property>
   <property name="internal_added">237</property>
   <property name="always_active">1</property>
  </transition>
  <filter id="filter22">
   <property name="window">75</property>
   <property name="max_gain">20dB</property>
   <property name="mlt_service">volume</property>
   <property name="internal_added">237</property>
   <property name="disable">1</property>
  </filter>
  <filter id="filter23">
   <property name="channel">-1</property>
   <property name="mlt_service">panner</property>
   <property name="internal_added">237</property>
   <property name="start">0.5</property>
   <property name="disable">1</property>
  </filter>
  <filter id="filter24">
   <property name="iec_scale">0</property>
   <property name="mlt_service">audiolevel</property>
   <property name="disable">1</property>
  </filter>
 </tractor>
</mlt>
