<?xml version='1.0' encoding='utf-8'?>
<mlt LC_NUMERIC="C" producer="main_bin" version="7.0.0" root="/home/duangsuse/Documents/咱动苏/游戏时间/贪吃蛇">
 <profile frame_rate_num="10" sample_aspect_num="1" display_aspect_den="295" colorspace="601" progressive="1" description="648x590 10.00fps" display_aspect_num="324" frame_rate_den="1" width="648" height="590" sample_aspect_den="1"/>
 <producer id="producer0" in="00:00:00.000" out="00:00:34.100">
  <property name="length">342</property>
  <property name="eof">pause</property>
  <property name="resource">ls/Peek 2021-09-28 00-48.mp4</property>
  <property name="audio_index">-1</property>
  <property name="video_index">0</property>
  <property name="mute_on_pause">0</property>
  <property name="mlt_service">avformat-novalidate</property>
  <property name="seekable">1</property>
  <property name="aspect_ratio">1</property>
  <property name="kdenlive:clipname"/>
  <property name="kdenlive:folderid">-1</property>
  <property name="kdenlive:id">2</property>
  <property name="kdenlive:file_size">1361778</property>
  <property name="kdenlive:file_hash">95b7d015b4fbbf7aca94545224e306ae</property>
  <property name="meta.media.nb_streams">1</property>
  <property name="meta.media.0.stream.type">video</property>
  <property name="meta.media.0.stream.frame_rate">10</property>
  <property name="meta.media.0.stream.sample_aspect_ratio">0</property>
  <property name="meta.media.0.codec.width">648</property>
  <property name="meta.media.0.codec.height">590</property>
  <property name="meta.media.0.codec.rotate">0</property>
  <property name="meta.media.0.codec.frame_rate">10</property>
  <property name="meta.media.0.codec.pix_fmt">yuv420p</property>
  <property name="meta.media.0.codec.sample_aspect_ratio">0</property>
  <property name="meta.media.0.codec.colorspace">601</property>
  <property name="meta.media.0.codec.name">h264</property>
  <property name="meta.media.0.codec.long_name">H.264 / AVC / MPEG-4 AVC / MPEG-4 part 10</property>
  <property name="meta.media.0.codec.bit_rate">317384</property>
  <property name="meta.attr.0.stream.handler_name.markup">VideoHandler</property>
  <property name="meta.attr.0.stream.vendor_id.markup">[0][0][0][0]</property>
  <property name="meta.attr.major_brand.markup">isom</property>
  <property name="meta.attr.minor_version.markup">512</property>
  <property name="meta.attr.compatible_brands.markup">isomiso2avc1mp41</property>
  <property name="meta.attr.encoder.markup">Lavf58.76.100</property>
  <property name="meta.media.sample_aspect_num">1</property>
  <property name="meta.media.sample_aspect_den">1</property>
  <property name="meta.media.frame_rate_num">10</property>
  <property name="meta.media.frame_rate_den">1</property>
  <property name="meta.media.colorspace">601</property>
  <property name="meta.media.color_trc">2</property>
  <property name="meta.media.has_b_frames">2</property>
  <property name="meta.media.width">648</property>
  <property name="meta.media.height">590</property>
  <property name="meta.media.color_range">mpeg</property>
  <property name="meta.media.top_field_first">0</property>
  <property name="meta.media.progressive">1</property>
 </producer>
 <producer id="producer1" in="00:00:00.000" out="00:00:36.300">
  <property name="length">364</property>
  <property name="eof">pause</property>
  <property name="resource">ls/Peek-hj.mp4</property>
  <property name="audio_index">-1</property>
  <property name="video_index">0</property>
  <property name="mute_on_pause">0</property>
  <property name="mlt_service">avformat-novalidate</property>
  <property name="seekable">1</property>
  <property name="aspect_ratio">1</property>
  <property name="kdenlive:clipname"/>
  <property name="kdenlive:file_size">1422121</property>
  <property name="kdenlive:folderid">-1</property>
  <property name="kdenlive:id">3</property>
  <property name="kdenlive:file_hash">8966c5e1e312b6d2975233ab175ed1ff</property>
  <property name="meta.media.nb_streams">1</property>
  <property name="meta.media.0.stream.type">video</property>
  <property name="meta.media.0.stream.frame_rate">10</property>
  <property name="meta.media.0.stream.sample_aspect_ratio">0</property>
  <property name="meta.media.0.codec.width">648</property>
  <property name="meta.media.0.codec.height">590</property>
  <property name="meta.media.0.codec.rotate">0</property>
  <property name="meta.media.0.codec.frame_rate">10</property>
  <property name="meta.media.0.codec.pix_fmt">yuv420p</property>
  <property name="meta.media.0.codec.sample_aspect_ratio">0</property>
  <property name="meta.media.0.codec.colorspace">601</property>
  <property name="meta.media.0.codec.name">h264</property>
  <property name="meta.media.0.codec.long_name">H.264 / AVC / MPEG-4 AVC / MPEG-4 part 10</property>
  <property name="meta.media.0.codec.bit_rate">311409</property>
  <property name="meta.attr.0.stream.handler_name.markup">VideoHandler</property>
  <property name="meta.attr.0.stream.vendor_id.markup">[0][0][0][0]</property>
  <property name="meta.attr.major_brand.markup">isom</property>
  <property name="meta.attr.minor_version.markup">512</property>
  <property name="meta.attr.compatible_brands.markup">isomiso2avc1mp41</property>
  <property name="meta.attr.encoder.markup">Lavf58.76.100</property>
  <property name="meta.media.sample_aspect_num">1</property>
  <property name="meta.media.sample_aspect_den">1</property>
  <property name="meta.media.frame_rate_num">10</property>
  <property name="meta.media.frame_rate_den">1</property>
  <property name="meta.media.colorspace">601</property>
  <property name="meta.media.color_trc">2</property>
  <property name="meta.media.has_b_frames">2</property>
  <property name="meta.media.width">648</property>
  <property name="meta.media.height">590</property>
  <property name="meta.media.color_range">mpeg</property>
  <property name="meta.media.top_field_first">0</property>
  <property name="meta.media.progressive">1</property>
 </producer>
 <producer id="producer2" in="00:00:00.000" out="00:01:08.200">
  <property name="length">683</property>
  <property name="eof">pause</property>
  <property name="resource">ls/Peek 2021-09-28 00-37.mp4</property>
  <property name="audio_index">-1</property>
  <property name="video_index">0</property>
  <property name="mute_on_pause">0</property>
  <property name="mlt_service">avformat-novalidate</property>
  <property name="seekable">1</property>
  <property name="aspect_ratio">1</property>
  <property name="kdenlive:clipname"/>
  <property name="kdenlive:folderid">-1</property>
  <property name="kdenlive:id">4</property>
  <property name="kdenlive:file_size">1710941</property>
  <property name="kdenlive:file_hash">dad95ab4bb3963e1daf7e94505b00589</property>
  <property name="meta.media.nb_streams">1</property>
  <property name="meta.media.0.stream.type">video</property>
  <property name="meta.media.0.stream.frame_rate">10</property>
  <property name="meta.media.0.stream.sample_aspect_ratio">0</property>
  <property name="meta.media.0.codec.width">648</property>
  <property name="meta.media.0.codec.height">590</property>
  <property name="meta.media.0.codec.rotate">0</property>
  <property name="meta.media.0.codec.frame_rate">10</property>
  <property name="meta.media.0.codec.pix_fmt">yuv420p</property>
  <property name="meta.media.0.codec.sample_aspect_ratio">0</property>
  <property name="meta.media.0.codec.colorspace">601</property>
  <property name="meta.media.0.codec.name">h264</property>
  <property name="meta.media.0.codec.long_name">H.264 / AVC / MPEG-4 AVC / MPEG-4 part 10</property>
  <property name="meta.media.0.codec.bit_rate">199346</property>
  <property name="meta.attr.0.stream.handler_name.markup">VideoHandler</property>
  <property name="meta.attr.0.stream.vendor_id.markup">[0][0][0][0]</property>
  <property name="meta.attr.major_brand.markup">isom</property>
  <property name="meta.attr.minor_version.markup">512</property>
  <property name="meta.attr.compatible_brands.markup">isomiso2avc1mp41</property>
  <property name="meta.attr.encoder.markup">Lavf58.76.100</property>
  <property name="meta.media.sample_aspect_num">1</property>
  <property name="meta.media.sample_aspect_den">1</property>
  <property name="meta.media.frame_rate_num">10</property>
  <property name="meta.media.frame_rate_den">1</property>
  <property name="meta.media.colorspace">601</property>
  <property name="meta.media.color_trc">2</property>
  <property name="meta.media.has_b_frames">2</property>
  <property name="meta.media.width">648</property>
  <property name="meta.media.height">590</property>
  <property name="meta.media.color_range">mpeg</property>
  <property name="meta.media.top_field_first">0</property>
  <property name="meta.media.progressive">1</property>
 </producer>
 <producer id="producer3" in="00:00:00.000" out="00:00:50.200">
  <property name="length">503</property>
  <property name="eof">pause</property>
  <property name="resource">ls/Peek-ttt.mp4</property>
  <property name="audio_index">-1</property>
  <property name="video_index">0</property>
  <property name="mute_on_pause">0</property>
  <property name="mlt_service">avformat-novalidate</property>
  <property name="seekable">1</property>
  <property name="aspect_ratio">1</property>
  <property name="kdenlive:clipname"/>
  <property name="kdenlive:folderid">-1</property>
  <property name="kdenlive:id">5</property>
  <property name="kdenlive:file_size">1504476</property>
  <property name="kdenlive:file_hash">ae7dfa8103b343a5c9975bf4b03501f6</property>
  <property name="meta.media.nb_streams">1</property>
  <property name="meta.media.0.stream.type">video</property>
  <property name="meta.media.0.stream.frame_rate">10</property>
  <property name="meta.media.0.stream.sample_aspect_ratio">0</property>
  <property name="meta.media.0.codec.width">648</property>
  <property name="meta.media.0.codec.height">590</property>
  <property name="meta.media.0.codec.rotate">0</property>
  <property name="meta.media.0.codec.frame_rate">10</property>
  <property name="meta.media.0.codec.pix_fmt">yuv420p</property>
  <property name="meta.media.0.codec.sample_aspect_ratio">0</property>
  <property name="meta.media.0.codec.colorspace">601</property>
  <property name="meta.media.0.codec.name">h264</property>
  <property name="meta.media.0.codec.long_name">H.264 / AVC / MPEG-4 AVC / MPEG-4 part 10</property>
  <property name="meta.media.0.codec.bit_rate">238187</property>
  <property name="meta.attr.0.stream.handler_name.markup">VideoHandler</property>
  <property name="meta.attr.0.stream.vendor_id.markup">[0][0][0][0]</property>
  <property name="meta.attr.major_brand.markup">isom</property>
  <property name="meta.attr.minor_version.markup">512</property>
  <property name="meta.attr.compatible_brands.markup">isomiso2avc1mp41</property>
  <property name="meta.attr.encoder.markup">Lavf58.76.100</property>
  <property name="meta.media.sample_aspect_num">1</property>
  <property name="meta.media.sample_aspect_den">1</property>
  <property name="meta.media.frame_rate_num">10</property>
  <property name="meta.media.frame_rate_den">1</property>
  <property name="meta.media.colorspace">601</property>
  <property name="meta.media.color_trc">2</property>
  <property name="meta.media.has_b_frames">2</property>
  <property name="meta.media.width">648</property>
  <property name="meta.media.height">590</property>
  <property name="meta.media.color_range">mpeg</property>
  <property name="meta.media.top_field_first">0</property>
  <property name="meta.media.progressive">1</property>
 </producer>
 <producer id="producer4" in="00:00:00.000" out="00:01:00.100">
  <property name="length">602</property>
  <property name="eof">pause</property>
  <property name="resource">ls/Peek-lm.mp4</property>
  <property name="audio_index">-1</property>
  <property name="video_index">0</property>
  <property name="mute_on_pause">0</property>
  <property name="mlt_service">avformat-novalidate</property>
  <property name="seekable">1</property>
  <property name="aspect_ratio">1</property>
  <property name="kdenlive:clipname"/>
  <property name="kdenlive:folderid">-1</property>
  <property name="kdenlive:id">6</property>
  <property name="kdenlive:file_size">1787481</property>
  <property name="kdenlive:file_hash">6e5dd0ebe0f4d83029aade8c8b0edc4c</property>
  <property name="meta.media.nb_streams">1</property>
  <property name="meta.media.0.stream.type">video</property>
  <property name="meta.media.0.stream.frame_rate">10</property>
  <property name="meta.media.0.stream.sample_aspect_ratio">0</property>
  <property name="meta.media.0.codec.width">648</property>
  <property name="meta.media.0.codec.height">590</property>
  <property name="meta.media.0.codec.rotate">0</property>
  <property name="meta.media.0.codec.frame_rate">10</property>
  <property name="meta.media.0.codec.pix_fmt">yuv420p</property>
  <property name="meta.media.0.codec.sample_aspect_ratio">0</property>
  <property name="meta.media.0.codec.colorspace">601</property>
  <property name="meta.media.0.codec.name">h264</property>
  <property name="meta.media.0.codec.long_name">H.264 / AVC / MPEG-4 AVC / MPEG-4 part 10</property>
  <property name="meta.media.0.codec.bit_rate">236465</property>
  <property name="meta.attr.0.stream.handler_name.markup">VideoHandler</property>
  <property name="meta.attr.0.stream.vendor_id.markup">[0][0][0][0]</property>
  <property name="meta.attr.major_brand.markup">isom</property>
  <property name="meta.attr.minor_version.markup">512</property>
  <property name="meta.attr.compatible_brands.markup">isomiso2avc1mp41</property>
  <property name="meta.attr.encoder.markup">Lavf58.76.100</property>
  <property name="meta.media.sample_aspect_num">1</property>
  <property name="meta.media.sample_aspect_den">1</property>
  <property name="meta.media.frame_rate_num">10</property>
  <property name="meta.media.frame_rate_den">1</property>
  <property name="meta.media.colorspace">601</property>
  <property name="meta.media.color_trc">2</property>
  <property name="meta.media.has_b_frames">2</property>
  <property name="meta.media.width">648</property>
  <property name="meta.media.height">590</property>
  <property name="meta.media.color_range">mpeg</property>
  <property name="meta.media.top_field_first">0</property>
  <property name="meta.media.progressive">1</property>
 </producer>
 <producer id="producer5" in="00:00:00.000" out="00:00:53.600">
  <property name="length">537</property>
  <property name="eof">pause</property>
  <property name="resource">ls/Peek-xg.mp4</property>
  <property name="audio_index">-1</property>
  <property name="video_index">0</property>
  <property name="mute_on_pause">0</property>
  <property name="mlt_service">avformat-novalidate</property>
  <property name="seekable">1</property>
  <property name="aspect_ratio">1</property>
  <property name="kdenlive:clipname"/>
  <property name="kdenlive:folderid">-1</property>
  <property name="kdenlive:id">7</property>
  <property name="kdenlive:file_size">1386423</property>
  <property name="kdenlive:file_hash">486b358c5ef55a9599469216c74d549a</property>
  <property name="meta.media.nb_streams">1</property>
  <property name="meta.media.0.stream.type">video</property>
  <property name="meta.media.0.stream.frame_rate">10</property>
  <property name="meta.media.0.stream.sample_aspect_ratio">0</property>
  <property name="meta.media.0.codec.width">648</property>
  <property name="meta.media.0.codec.height">590</property>
  <property name="meta.media.0.codec.rotate">0</property>
  <property name="meta.media.0.codec.frame_rate">10</property>
  <property name="meta.media.0.codec.pix_fmt">yuv420p</property>
  <property name="meta.media.0.codec.sample_aspect_ratio">0</property>
  <property name="meta.media.0.codec.colorspace">601</property>
  <property name="meta.media.0.codec.name">h264</property>
  <property name="meta.media.0.codec.long_name">H.264 / AVC / MPEG-4 AVC / MPEG-4 part 10</property>
  <property name="meta.media.0.codec.bit_rate">205459</property>
  <property name="meta.attr.0.stream.handler_name.markup">VideoHandler</property>
  <property name="meta.attr.0.stream.vendor_id.markup">[0][0][0][0]</property>
  <property name="meta.attr.major_brand.markup">isom</property>
  <property name="meta.attr.minor_version.markup">512</property>
  <property name="meta.attr.compatible_brands.markup">isomiso2avc1mp41</property>
  <property name="meta.attr.encoder.markup">Lavf58.76.100</property>
  <property name="meta.media.sample_aspect_num">1</property>
  <property name="meta.media.sample_aspect_den">1</property>
  <property name="meta.media.frame_rate_num">10</property>
  <property name="meta.media.frame_rate_den">1</property>
  <property name="meta.media.colorspace">601</property>
  <property name="meta.media.color_trc">2</property>
  <property name="meta.media.has_b_frames">2</property>
  <property name="meta.media.width">648</property>
  <property name="meta.media.height">590</property>
  <property name="meta.media.color_range">mpeg</property>
  <property name="meta.media.top_field_first">0</property>
  <property name="meta.media.progressive">1</property>
 </producer>
 <producer id="producer6" in="00:00:00.000" out="00:00:47.400">
  <property name="length">475</property>
  <property name="eof">pause</property>
  <property name="resource">ls/Peek 2021-09-27 23-56.mp4</property>
  <property name="audio_index">-1</property>
  <property name="video_index">0</property>
  <property name="mute_on_pause">0</property>
  <property name="mlt_service">avformat-novalidate</property>
  <property name="seekable">1</property>
  <property name="aspect_ratio">1</property>
  <property name="kdenlive:clipname"/>
  <property name="kdenlive:folderid">-1</property>
  <property name="kdenlive:id">8</property>
  <property name="kdenlive:file_size">1268644</property>
  <property name="kdenlive:file_hash">ef66ad302b6fa643dad06c5b02f94039</property>
  <property name="meta.media.nb_streams">1</property>
  <property name="meta.media.0.stream.type">video</property>
  <property name="meta.media.0.stream.frame_rate">10</property>
  <property name="meta.media.0.stream.sample_aspect_ratio">0</property>
  <property name="meta.media.0.codec.width">666</property>
  <property name="meta.media.0.codec.height">590</property>
  <property name="meta.media.0.codec.rotate">0</property>
  <property name="meta.media.0.codec.frame_rate">10</property>
  <property name="meta.media.0.codec.pix_fmt">yuv420p</property>
  <property name="meta.media.0.codec.sample_aspect_ratio">0</property>
  <property name="meta.media.0.codec.colorspace">601</property>
  <property name="meta.media.0.codec.name">h264</property>
  <property name="meta.media.0.codec.long_name">H.264 / AVC / MPEG-4 AVC / MPEG-4 part 10</property>
  <property name="meta.media.0.codec.bit_rate">212572</property>
  <property name="meta.attr.0.stream.handler_name.markup">VideoHandler</property>
  <property name="meta.attr.0.stream.vendor_id.markup">[0][0][0][0]</property>
  <property name="meta.attr.major_brand.markup">isom</property>
  <property name="meta.attr.minor_version.markup">512</property>
  <property name="meta.attr.compatible_brands.markup">isomiso2avc1mp41</property>
  <property name="meta.attr.encoder.markup">Lavf58.76.100</property>
  <property name="meta.media.sample_aspect_num">1</property>
  <property name="meta.media.sample_aspect_den">1</property>
  <property name="meta.media.frame_rate_num">10</property>
  <property name="meta.media.frame_rate_den">1</property>
  <property name="meta.media.colorspace">601</property>
  <property name="meta.media.color_trc">2</property>
  <property name="meta.media.has_b_frames">2</property>
  <property name="meta.media.width">666</property>
  <property name="meta.media.height">590</property>
  <property name="meta.media.color_range">mpeg</property>
  <property name="meta.media.top_field_first">0</property>
  <property name="meta.media.progressive">1</property>
 </producer>
 <producer id="producer7" in="00:00:00.000" out="00:00:44.100">
  <property name="length">442</property>
  <property name="eof">pause</property>
  <property name="resource">ls/Peek 2021-09-27 23-47.mp4</property>
  <property name="audio_index">-1</property>
  <property name="video_index">0</property>
  <property name="mute_on_pause">0</property>
  <property name="mlt_service">avformat-novalidate</property>
  <property name="seekable">1</property>
  <property name="aspect_ratio">1</property>
  <property name="kdenlive:clipname"/>
  <property name="kdenlive:folderid">-1</property>
  <property name="kdenlive:id">9</property>
  <property name="kdenlive:file_size">1216755</property>
  <property name="kdenlive:file_hash">e156f251fb32832ab648d14aa88381e3</property>
  <property name="meta.media.nb_streams">1</property>
  <property name="meta.media.0.stream.type">video</property>
  <property name="meta.media.0.stream.frame_rate">10</property>
  <property name="meta.media.0.stream.sample_aspect_ratio">0</property>
  <property name="meta.media.0.codec.width">666</property>
  <property name="meta.media.0.codec.height">590</property>
  <property name="meta.media.0.codec.rotate">0</property>
  <property name="meta.media.0.codec.frame_rate">10</property>
  <property name="meta.media.0.codec.pix_fmt">yuv420p</property>
  <property name="meta.media.0.codec.sample_aspect_ratio">0</property>
  <property name="meta.media.0.codec.colorspace">601</property>
  <property name="meta.media.0.codec.name">h264</property>
  <property name="meta.media.0.codec.long_name">H.264 / AVC / MPEG-4 AVC / MPEG-4 part 10</property>
  <property name="meta.media.0.codec.bit_rate">219122</property>
  <property name="meta.attr.0.stream.handler_name.markup">VideoHandler</property>
  <property name="meta.attr.0.stream.vendor_id.markup">[0][0][0][0]</property>
  <property name="meta.attr.major_brand.markup">isom</property>
  <property name="meta.attr.minor_version.markup">512</property>
  <property name="meta.attr.compatible_brands.markup">isomiso2avc1mp41</property>
  <property name="meta.attr.encoder.markup">Lavf58.76.100</property>
  <property name="meta.media.sample_aspect_num">1</property>
  <property name="meta.media.sample_aspect_den">1</property>
  <property name="meta.media.frame_rate_num">10</property>
  <property name="meta.media.frame_rate_den">1</property>
  <property name="meta.media.colorspace">601</property>
  <property name="meta.media.color_trc">2</property>
  <property name="meta.media.has_b_frames">2</property>
  <property name="meta.media.width">666</property>
  <property name="meta.media.height">590</property>
  <property name="meta.media.color_range">mpeg</property>
  <property name="meta.media.top_field_first">0</property>
  <property name="meta.media.progressive">1</property>
 </producer>
 <producer id="producer8" in="00:00:00.000" out="00:00:24.000">
  <property name="length">241</property>
  <property name="eof">pause</property>
  <property name="resource">ls/吃个桃桃-1MP4y1s7Xn.flv</property>
  <property name="audio_index">1</property>
  <property name="video_index">0</property>
  <property name="mute_on_pause">0</property>
  <property name="mlt_service">avformat-novalidate</property>
  <property name="meta.media.nb_streams">2</property>
  <property name="meta.media.0.stream.type">video</property>
  <property name="meta.media.0.stream.frame_rate">30.125</property>
  <property name="meta.media.0.stream.sample_aspect_ratio">0</property>
  <property name="meta.media.0.codec.width">720</property>
  <property name="meta.media.0.codec.height">720</property>
  <property name="meta.media.0.codec.rotate">0</property>
  <property name="meta.media.0.codec.frame_rate">30</property>
  <property name="meta.media.0.codec.pix_fmt">yuv420p</property>
  <property name="meta.media.0.codec.sample_aspect_ratio">1</property>
  <property name="meta.media.0.codec.colorspace">709</property>
  <property name="meta.media.0.codec.color_trc">1</property>
  <property name="meta.media.0.codec.name">h264</property>
  <property name="meta.media.0.codec.long_name">H.264 / AVC / MPEG-4 AVC / MPEG-4 part 10</property>
  <property name="meta.media.0.codec.bit_rate">545519</property>
  <property name="meta.media.1.stream.type">audio</property>
  <property name="meta.media.1.codec.sample_fmt">fltp</property>
  <property name="meta.media.1.codec.sample_rate">44100</property>
  <property name="meta.media.1.codec.channels">2</property>
  <property name="meta.media.1.codec.name">aac</property>
  <property name="meta.media.1.codec.long_name">AAC (Advanced Audio Coding)</property>
  <property name="meta.media.1.codec.bit_rate">65051</property>
  <property name="meta.attr.description.markup">Bilibili VXCode Swarm Transcoder v0.5.6</property>
  <property name="meta.attr.metadatacreator.markup">Version 1.9</property>
  <property name="meta.attr.hasKeyframes.markup">true</property>
  <property name="meta.attr.hasVideo.markup">true</property>
  <property name="meta.attr.hasAudio.markup">true</property>
  <property name="meta.attr.hasMetadata.markup">true</property>
  <property name="meta.attr.canSeekToEnd.markup">true</property>
  <property name="meta.attr.datasize.markup">1854418</property>
  <property name="meta.attr.videosize.markup">1639922</property>
  <property name="meta.attr.audiosize.markup">207460</property>
  <property name="meta.attr.lasttimestamp.markup">24</property>
  <property name="meta.attr.lastkeyframetimestamp.markup">24</property>
  <property name="meta.attr.lastkeyframelocation.markup">1855170</property>
  <property name="seekable">1</property>
  <property name="meta.media.sample_aspect_num">1</property>
  <property name="meta.media.sample_aspect_den">1</property>
  <property name="aspect_ratio">1</property>
  <property name="kdenlive:clipname"/>
  <property name="kdenlive:folderid">-1</property>
  <property name="meta.media.frame_rate_num">241</property>
  <property name="meta.media.frame_rate_den">8</property>
  <property name="meta.media.colorspace">709</property>
  <property name="meta.media.color_trc">1</property>
  <property name="meta.media.has_b_frames">4</property>
  <property name="meta.media.width">720</property>
  <property name="meta.media.height">720</property>
  <property name="meta.media.color_range">mpeg</property>
  <property name="kdenlive:id">10</property>
  <property name="kdenlive:file_size">1855190</property>
  <property name="kdenlive:file_hash">4b60bdebaaba3e2dc4e08a0678dc6206</property>
  <property name="meta.media.top_field_first">0</property>
  <property name="meta.media.progressive">1</property>
  <property name="kdenlive:audio_max1">239</property>
 </producer>
 <producer id="producer9" in="00:00:00.000" out="00:00:24.000">
  <property name="length">241</property>
  <property name="eof">pause</property>
  <property name="resource">ls/吃个桃桃-1MP4y1s7Xn0001.wav</property>
  <property name="meta.media.nb_streams">1</property>
  <property name="meta.media.0.stream.type">audio</property>
  <property name="meta.media.0.codec.sample_fmt">s16</property>
  <property name="meta.media.0.codec.sample_rate">48000</property>
  <property name="meta.media.0.codec.channels">2</property>
  <property name="meta.media.0.codec.name">pcm_s16le</property>
  <property name="meta.media.0.codec.long_name">PCM signed 16-bit little-endian</property>
  <property name="meta.media.0.codec.bit_rate">1536000</property>
  <property name="meta.attr.encoder.markup">Lavf58.76.100</property>
  <property name="seekable">1</property>
  <property name="audio_index">0</property>
  <property name="video_index">-1</property>
  <property name="mute_on_pause">1</property>
  <property name="mlt_service">avformat</property>
  <property name="kdenlive:clipname"/>
  <property name="kdenlive:folderid">-1</property>
  <property name="kdenlive:id">11</property>
  <property name="kdenlive:file_size">4623266</property>
  <property name="kdenlive:file_hash">d8aa595ff0972612ceab14850360011e</property>
  <property name="kdenlive:audio_max0">242</property>
 </producer>
 <producer id="producer10" in="00:00:00.000" out="00:00:47.400">
  <property name="length">475</property>
  <property name="eof">pause</property>
  <property name="resource">ls/吃个桃桃原版-1gU4y177fW.flv</property>
  <property name="audio_index">1</property>
  <property name="video_index">0</property>
  <property name="mute_on_pause">0</property>
  <property name="mlt_service">avformat-novalidate</property>
  <property name="meta.media.nb_streams">2</property>
  <property name="meta.media.0.stream.type">video</property>
  <property name="meta.media.0.stream.frame_rate">30.0625</property>
  <property name="meta.media.0.stream.sample_aspect_ratio">0</property>
  <property name="meta.media.0.codec.width">1440</property>
  <property name="meta.media.0.codec.height">1080</property>
  <property name="meta.media.0.codec.rotate">0</property>
  <property name="meta.media.0.codec.frame_rate">30</property>
  <property name="meta.media.0.codec.pix_fmt">yuv420p</property>
  <property name="meta.media.0.codec.sample_aspect_ratio">0</property>
  <property name="meta.media.0.codec.colorspace">709</property>
  <property name="meta.media.0.codec.color_trc">1</property>
  <property name="meta.media.0.codec.name">h264</property>
  <property name="meta.media.0.codec.long_name">H.264 / AVC / MPEG-4 AVC / MPEG-4 part 10</property>
  <property name="meta.media.0.codec.bit_rate">1245863</property>
  <property name="meta.media.1.stream.type">audio</property>
  <property name="meta.media.1.codec.sample_fmt">fltp</property>
  <property name="meta.media.1.codec.sample_rate">48000</property>
  <property name="meta.media.1.codec.channels">2</property>
  <property name="meta.media.1.codec.name">aac</property>
  <property name="meta.media.1.codec.long_name">AAC (Advanced Audio Coding)</property>
  <property name="meta.media.1.codec.bit_rate">285152</property>
  <property name="meta.attr.description.markup">Bilibili VXCode Swarm Transcoder v0.5.7</property>
  <property name="meta.attr.metadatacreator.markup">Version 1.9</property>
  <property name="meta.attr.hasKeyframes.markup">true</property>
  <property name="meta.attr.hasVideo.markup">true</property>
  <property name="meta.attr.hasAudio.markup">true</property>
  <property name="meta.attr.hasMetadata.markup">true</property>
  <property name="meta.attr.canSeekToEnd.markup">true</property>
  <property name="meta.attr.datasize.markup">9113288</property>
  <property name="meta.attr.videosize.markup">7381810</property>
  <property name="meta.attr.audiosize.markup">1716890</property>
  <property name="meta.attr.lasttimestamp.markup">47</property>
  <property name="meta.attr.lastkeyframetimestamp.markup">47</property>
  <property name="meta.attr.lastkeyframelocation.markup">9114130</property>
  <property name="seekable">1</property>
  <property name="meta.media.sample_aspect_num">1</property>
  <property name="meta.media.sample_aspect_den">1</property>
  <property name="aspect_ratio">1</property>
  <property name="kdenlive:clipname"/>
  <property name="kdenlive:folderid">-1</property>
  <property name="meta.media.frame_rate_num">481</property>
  <property name="meta.media.frame_rate_den">16</property>
  <property name="meta.media.colorspace">709</property>
  <property name="meta.media.color_trc">1</property>
  <property name="meta.media.has_b_frames">4</property>
  <property name="meta.media.width">1440</property>
  <property name="meta.media.height">1080</property>
  <property name="meta.media.color_range">mpeg</property>
  <property name="kdenlive:id">12</property>
  <property name="kdenlive:file_size">9114150</property>
  <property name="kdenlive:file_hash">7ab96df54f5bdeb9aa6f374ace959b1a</property>
  <property name="meta.media.top_field_first">0</property>
  <property name="meta.media.progressive">1</property>
  <property name="kdenlive:audio_max1">224</property>
 </producer>
 <producer id="producer11" in="00:00:00.000" out="00:00:47.300">
  <property name="length">474</property>
  <property name="eof">pause</property>
  <property name="resource">ls/吃个桃桃原版-1gU4y177fW0001.wav</property>
  <property name="meta.media.nb_streams">1</property>
  <property name="meta.media.0.stream.type">audio</property>
  <property name="meta.media.0.codec.sample_fmt">s16</property>
  <property name="meta.media.0.codec.sample_rate">48000</property>
  <property name="meta.media.0.codec.channels">2</property>
  <property name="meta.media.0.codec.name">pcm_s16le</property>
  <property name="meta.media.0.codec.long_name">PCM signed 16-bit little-endian</property>
  <property name="meta.media.0.codec.bit_rate">1536000</property>
  <property name="meta.attr.encoder.markup">Lavf58.76.100</property>
  <property name="seekable">1</property>
  <property name="audio_index">0</property>
  <property name="video_index">-1</property>
  <property name="mute_on_pause">1</property>
  <property name="mlt_service">avformat</property>
  <property name="kdenlive:clipname"/>
  <property name="kdenlive:folderid">-1</property>
  <property name="kdenlive:id">13</property>
  <property name="kdenlive:file_size">9109582</property>
  <property name="kdenlive:file_hash">3cd9a7ee2b6fa604102a981a161f5d0f</property>
  <property name="kdenlive:audio_max0">224</property>
 </producer>
 <producer id="producer12" in="00:00:00.000" out="00:00:04.900">
  <property name="length">50</property>
  <property name="eof">pause</property>
  <property name="resource"/>
  <property name="progressive">1</property>
  <property name="aspect_ratio">1</property>
  <property name="seekable">1</property>
  <property name="mlt_service">kdenlivetitle</property>
  <property name="kdenlive:duration">50</property>
  <property name="kdenlive:clipname">吃个 桃桃</property>
  <property name="xmldata">&lt;kdenlivetitle duration="50" LC_NUMERIC="C" width="648" height="590" out="49">
 &lt;item type="QGraphicsTextItem" z-index="0">
  &lt;position x="188" y="124">
   &lt;transform>1,0,0,0,1,0,0,0,1&lt;/transform>
  &lt;/position>
  &lt;content shadow="0;#64000000;3;3;3" font-underline="0" box-height="270" font-outline-color="255,255,255,255" font="DejaVu Sans" letter-spacing="0" font-pixel-size="116" font-italic="0" typewriter="0;2;1;0;0" alignment="2" font-weight="50" font-outline="0" box-width="232" font-color="255,120,0,255">吃个
桃桃&lt;/content>
 &lt;/item>
 &lt;startviewport rect="0,0,648,590"/>
 &lt;endviewport rect="0,0,648,590"/>
 &lt;background color="0,0,0,0"/>
&lt;/kdenlivetitle>
</property>
  <property name="kdenlive:file_hash">c319ed9951c3640acc7a3366591d99ec</property>
  <property name="kdenlive:folderid">-1</property>
  <property name="kdenlive:id">14</property>
  <property name="force_reload">0</property>
  <property name="meta.media.width">648</property>
  <property name="meta.media.height">590</property>
 </producer>
 <producer id="producer13" in="00:00:00.000" out="00:00:04.900">
  <property name="length">50</property>
  <property name="eof">pause</property>
  <property name="resource"/>
  <property name="progressive">1</property>
  <property name="aspect_ratio">1</property>
  <property name="seekable">1</property>
  <property name="mlt_service">kdenlivetitle</property>
  <property name="kdenlive:duration">50</property>
  <property name="kdenlive:clipname">fu~</property>
  <property name="xmldata">&lt;kdenlivetitle duration="50" LC_NUMERIC="C" width="648" height="590" out="49">
 &lt;item type="QGraphicsTextItem" z-index="0">
  &lt;position x="366" y="413">
   &lt;transform>1,0,0,0,1,0,0,0,1&lt;/transform>
  &lt;/position>
  &lt;content line-spacing="0" shadow="0;#64000000;3;3;3" font-underline="0" box-height="136" font="DejaVu Sans" letter-spacing="0" font-pixel-size="116" font-italic="0" typewriter="0;2;1;0;0" alignment="2" font-weight="50" gradient="#ff33d17a;#ff204a87;70;100;90" box-width="211.531" font-color="0,0,0,255">fu~&lt;/content>
 &lt;/item>
 &lt;startviewport rect="0,0,648,590"/>
 &lt;endviewport rect="0,0,648,590"/>
 &lt;background color="0,0,0,0"/>
&lt;/kdenlivetitle>
</property>
  <property name="kdenlive:file_hash">14085c192d7f4f80447f0ee734542227</property>
  <property name="kdenlive:folderid">-1</property>
  <property name="kdenlive:id">15</property>
  <property name="force_reload">0</property>
  <property name="meta.media.width">648</property>
  <property name="meta.media.height">590</property>
 </producer>
 <producer id="producer14" in="00:00:00.000" out="00:00:04.900">
  <property name="length">50</property>
  <property name="eof">pause</property>
  <property name="resource"/>
  <property name="progressive">1</property>
  <property name="aspect_ratio">1</property>
  <property name="seekable">1</property>
  <property name="mlt_service">kdenlivetitle</property>
  <property name="kdenlive:duration">50</property>
  <property name="kdenlive:clipname">ge~</property>
  <property name="xmldata">&lt;kdenlivetitle duration="50" LC_NUMERIC="C" width="648" height="590" out="49">
 &lt;item type="QGraphicsTextItem" z-index="0">
  &lt;position x="366" y="413">
   &lt;transform>1,0,0,0,1,0,0,0,1&lt;/transform>
  &lt;/position>
  &lt;content line-spacing="0" shadow="0;#64000000;3;3;3" font-underline="0" box-height="136" font="DejaVu Sans" letter-spacing="0" font-pixel-size="116" font-italic="0" typewriter="0;2;1;0;0" alignment="2" font-weight="50" gradient="#ff33d17a;#ff204a87;70;100;90" box-width="242.172" font-color="0,0,0,255">ge~&lt;/content>
 &lt;/item>
 &lt;startviewport rect="0,0,648,590"/>
 &lt;endviewport rect="0,0,648,590"/>
 &lt;background color="0,0,0,0"/>
&lt;/kdenlivetitle>
</property>
  <property name="kdenlive:folderid">-1</property>
  <property name="kdenlive:id">16</property>
  <property name="force_reload">0</property>
  <property name="kdenlive:file_hash">a69d5dbffa65934114c37e5979c13770</property>
  <property name="meta.media.width">648</property>
  <property name="meta.media.height">590</property>
 </producer>
 <producer id="producer15" in="00:00:00.000" out="00:00:04.900">
  <property name="length">50</property>
  <property name="eof">pause</property>
  <property name="resource"/>
  <property name="progressive">1</property>
  <property name="aspect_ratio">1</property>
  <property name="seekable">1</property>
  <property name="mlt_service">kdenlivetitle</property>
  <property name="kdenlive:duration">50</property>
  <property name="kdenlive:clipname">嗯~！</property>
  <property name="xmldata">&lt;kdenlivetitle duration="50" LC_NUMERIC="C" width="648" height="590" out="49">
 &lt;item type="QGraphicsTextItem" z-index="0">
  &lt;position x="366" y="413">
   &lt;transform>1,0,0,0,1,0,0,0,1&lt;/transform>
  &lt;/position>
  &lt;content line-spacing="0" shadow="0;#64000000;3;3;3" font-underline="0" box-height="137" font="DejaVu Sans" letter-spacing="0" font-pixel-size="116" font-italic="0" typewriter="0;2;1;0;0" alignment="2" font-weight="50" gradient="#ff33d17a;#ff204a87;70;100;90" box-width="329.188" font-color="0,0,0,255">嗯~！&lt;/content>
 &lt;/item>
 &lt;startviewport rect="0,0,648,590"/>
 &lt;endviewport rect="0,0,648,590"/>
 &lt;background color="0,0,0,0"/>
&lt;/kdenlivetitle>
</property>
  <property name="kdenlive:folderid">-1</property>
  <property name="kdenlive:id">17</property>
  <property name="force_reload">0</property>
  <property name="kdenlive:file_hash">0a1c71f951d237d2952320985391192e</property>
  <property name="meta.media.width">648</property>
  <property name="meta.media.height">590</property>
 </producer>
 <producer id="producer16" in="00:00:00.000" out="00:00:04.900">
  <property name="length">50</property>
  <property name="eof">pause</property>
  <property name="resource"/>
  <property name="progressive">1</property>
  <property name="aspect_ratio">1</property>
  <property name="seekable">1</property>
  <property name="mlt_service">kdenlivetitle</property>
  <property name="kdenlive:duration">50</property>
  <property name="kdenlive:clipname">好凉凉</property>
  <property name="xmldata">&lt;kdenlivetitle duration="50" LC_NUMERIC="C" width="648" height="590" out="49">
 &lt;item type="QGraphicsTextItem" z-index="0">
  &lt;position x="293" y="390">
   &lt;transform>1,0,0,0,1,0,0,0,1&lt;/transform>
  &lt;/position>
  &lt;content line-spacing="0" shadow="0;#64000000;3;3;3" font-underline="0" box-height="137" font="DejaVu Sans" letter-spacing="0" font-pixel-size="116" font-italic="0" typewriter="1;1;1;0;0" alignment="2" font-weight="50" gradient="#ff33d17a;#ff204a87;70;100;90" box-width="348" font-color="0,0,0,255">好凉凉&lt;/content>
 &lt;/item>
 &lt;startviewport rect="0,0,648,590"/>
 &lt;endviewport rect="0,0,648,590"/>
 &lt;background color="0,0,0,0"/>
&lt;/kdenlivetitle>
</property>
  <property name="kdenlive:folderid">-1</property>
  <property name="kdenlive:id">18</property>
  <property name="force_reload">0</property>
  <property name="kdenlive:file_hash">25c9543aca0f310169fa3aa1eae0e4f9</property>
  <property name="meta.media.width">648</property>
  <property name="meta.media.height">590</property>
 </producer>
 <producer id="producer17" in="00:00:00.000" out="00:00:04.900">
  <property name="length">50</property>
  <property name="eof">pause</property>
  <property name="resource"/>
  <property name="progressive">1</property>
  <property name="aspect_ratio">1</property>
  <property name="seekable">1</property>
  <property name="mlt_service">kdenlivetitle</property>
  <property name="kdenlive:duration">50</property>
  <property name="kdenlive:clipname">有点凉凉！</property>
  <property name="xmldata">&lt;kdenlivetitle duration="50" LC_NUMERIC="C" width="648" height="590" out="49">
 &lt;item type="QGraphicsTextItem" z-index="0">
  &lt;position x="70" y="387">
   &lt;transform>1,0,0,0,1,0,0,0,1&lt;/transform>
  &lt;/position>
  &lt;content line-spacing="0" shadow="0;#64000000;3;3;3" font-underline="0" box-height="137" font="DejaVu Sans" letter-spacing="0" font-pixel-size="116" font-italic="0" typewriter="1;1;1;0;0" alignment="2" font-weight="50" gradient="#ff33d17a;#ff204a87;70;100;90" box-width="580" font-color="0,0,0,255">有点凉凉！&lt;/content>
 &lt;/item>
 &lt;startviewport rect="0,0,648,590"/>
 &lt;endviewport rect="0,0,648,590"/>
 &lt;background color="0,0,0,0"/>
&lt;/kdenlivetitle>
</property>
  <property name="kdenlive:folderid">-1</property>
  <property name="kdenlive:id">19</property>
  <property name="force_reload">0</property>
  <property name="kdenlive:file_hash">6fa3262b2d62a029e39937e1fcf27c2f</property>
  <property name="meta.media.width">648</property>
  <property name="meta.media.height">590</property>
 </producer>
 <producer id="producer18" in="00:00:00.000" out="00:00:04.900">
  <property name="length">50</property>
  <property name="eof">pause</property>
  <property name="resource"/>
  <property name="progressive">1</property>
  <property name="aspect_ratio">1</property>
  <property name="seekable">1</property>
  <property name="mlt_service">kdenlivetitle</property>
  <property name="kdenlive:duration">50</property>
  <property name="kdenlive:clipname">刚 从冰箱里 拿出来的</property>
  <property name="xmldata">&lt;kdenlivetitle duration="50" LC_NUMERIC="C" width="648" height="590" out="49">
 &lt;item type="QGraphicsTextItem" z-index="0">
  &lt;position x="31" y="325">
   &lt;transform>1,0,0,0,1,0,0,0,1&lt;/transform>
  &lt;/position>
  &lt;content line-spacing="0" shadow="0;#64000000;3;3;3" font-underline="0" box-height="270" font="DejaVu Sans" letter-spacing="0" font-pixel-size="116" font-italic="0" typewriter="1;3;2;0;0" alignment="2" font-weight="50" gradient="#ff33d17a;#ff204a87;70;100;90" box-width="676" font-color="0,0,0,255">刚 从冰	箱	里
拿	出		来	的&lt;/content>
 &lt;/item>
 &lt;startviewport rect="0,0,648,590"/>
 &lt;endviewport rect="0,0,648,590"/>
 &lt;background color="0,0,0,0"/>
&lt;/kdenlivetitle>
</property>
  <property name="kdenlive:folderid">-1</property>
  <property name="kdenlive:id">20</property>
  <property name="force_reload">0</property>
  <property name="kdenlive:file_hash">c35117bf19f9edad53401f228c1e5433</property>
  <property name="meta.media.width">648</property>
  <property name="meta.media.height">590</property>
 </producer>
 <producer id="producer19" in="00:00:00.000" out="00:00:04.900">
  <property name="length">50</property>
  <property name="eof">pause</property>
  <property name="resource"/>
  <property name="progressive">1</property>
  <property name="aspect_ratio">1</property>
  <property name="seekable">1</property>
  <property name="mlt_service">kdenlivetitle</property>
  <property name="kdenlive:duration">50</property>
  <property name="kdenlive:clipname">吧 唧 吧 唧</property>
  <property name="xmldata">&lt;kdenlivetitle duration="50" LC_NUMERIC="C" width="648" height="590" out="49">
 &lt;item type="QGraphicsTextItem" z-index="0">
  &lt;position x="171" y="400">
   &lt;transform>1,0,0,0,1,0,0,0,1&lt;/transform>
  &lt;/position>
  &lt;content line-spacing="0" shadow="0;#64000000;3;3;3" font-underline="0" box-height="137" font="DejaVu Sans" letter-spacing="0" font-pixel-size="116" font-italic="0" typewriter="1;1;2;0;0" alignment="2" font-weight="50" gradient="#ff33d17a;#ff204a87;70;100;90" box-width="596" font-color="0,0,0,255">吧	唧	吧	唧&lt;/content>
 &lt;/item>
 &lt;startviewport rect="0,0,648,590"/>
 &lt;endviewport rect="0,0,648,590"/>
 &lt;background color="0,0,0,0"/>
&lt;/kdenlivetitle>
</property>
  <property name="kdenlive:folderid">-1</property>
  <property name="kdenlive:id">21</property>
  <property name="force_reload">0</property>
  <property name="kdenlive:file_hash">0f0d53dd897452a5dc2979c216f9c207</property>
  <property name="meta.media.width">648</property>
  <property name="meta.media.height">590</property>
 </producer>
 <producer id="producer20" in="00:00:00.000" out="00:00:04.900">
  <property name="length">50</property>
  <property name="eof">pause</property>
  <property name="resource"/>
  <property name="progressive">1</property>
  <property name="aspect_ratio">1</property>
  <property name="seekable">1</property>
  <property name="mlt_service">kdenlivetitle</property>
  <property name="kdenlive:duration">50</property>
  <property name="xmldata">&lt;kdenlivetitle duration="50" LC_NUMERIC="C" width="648" height="590" out="49">
 &lt;item type="QGraphicsTextItem" z-index="0">
  &lt;position x="292" y="420">
   &lt;transform>1,0,0,0,1,0,0,0,1&lt;/transform>
  &lt;/position>
  &lt;content line-spacing="0" shadow="0;#64000000;3;3;3" font-underline="0" box-height="137" font="DejaVu Sans" letter-spacing="0" font-pixel-size="116" font-italic="0" typewriter="0;2;1;0;0" alignment="2" font-weight="50" gradient="#ff33d17a;#ff204a87;70;100;90" box-width="357.781" font-color="0,0,0,255">司~ha&lt;/content>
 &lt;/item>
 &lt;startviewport rect="0,0,648,590"/>
 &lt;endviewport rect="0,0,648,590"/>
 &lt;background color="0,0,0,0"/>
&lt;/kdenlivetitle>
</property>
  <property name="kdenlive:folderid">-1</property>
  <property name="kdenlive:id">22</property>
  <property name="force_reload">0</property>
  <property name="kdenlive:clipname"/>
  <property name="kdenlive:file_hash">d1e63d06e3a2358141f6a6b025ee01ea</property>
  <property name="meta.media.width">648</property>
  <property name="meta.media.height">590</property>
 </producer>
 <producer id="producer21" in="00:00:00.000" out="00:01:31.900">
  <property name="length">920</property>
  <property name="eof">pause</property>
  <property name="resource">ls/Peek 2021-09-27 23-54.mp4</property>
  <property name="audio_index">-1</property>
  <property name="video_index">0</property>
  <property name="mute_on_pause">0</property>
  <property name="mlt_service">avformat-novalidate</property>
  <property name="meta.media.nb_streams">1</property>
  <property name="meta.media.0.stream.type">video</property>
  <property name="meta.media.0.stream.frame_rate">10</property>
  <property name="meta.media.0.stream.sample_aspect_ratio">0</property>
  <property name="meta.media.0.codec.width">666</property>
  <property name="meta.media.0.codec.height">590</property>
  <property name="meta.media.0.codec.rotate">0</property>
  <property name="meta.media.0.codec.frame_rate">10</property>
  <property name="meta.media.0.codec.pix_fmt">yuv420p</property>
  <property name="meta.media.0.codec.sample_aspect_ratio">0</property>
  <property name="meta.media.0.codec.colorspace">601</property>
  <property name="meta.media.0.codec.name">h264</property>
  <property name="meta.media.0.codec.long_name">H.264 / AVC / MPEG-4 AVC / MPEG-4 part 10</property>
  <property name="meta.media.0.codec.bit_rate">178994</property>
  <property name="meta.attr.0.stream.handler_name.markup">VideoHandler</property>
  <property name="meta.attr.0.stream.vendor_id.markup">[0][0][0][0]</property>
  <property name="meta.attr.major_brand.markup">isom</property>
  <property name="meta.attr.minor_version.markup">512</property>
  <property name="meta.attr.compatible_brands.markup">isomiso2avc1mp41</property>
  <property name="meta.attr.encoder.markup">Lavf58.76.100</property>
  <property name="seekable">1</property>
  <property name="meta.media.sample_aspect_num">1</property>
  <property name="meta.media.sample_aspect_den">1</property>
  <property name="aspect_ratio">1</property>
  <property name="kdenlive:clipname"/>
  <property name="kdenlive:folderid">-1</property>
  <property name="meta.media.frame_rate_num">10</property>
  <property name="meta.media.frame_rate_den">1</property>
  <property name="meta.media.colorspace">601</property>
  <property name="meta.media.color_trc">2</property>
  <property name="meta.media.has_b_frames">2</property>
  <property name="meta.media.width">666</property>
  <property name="meta.media.height">590</property>
  <property name="meta.media.color_range">mpeg</property>
  <property name="kdenlive:id">23</property>
  <property name="kdenlive:file_size">2070186</property>
  <property name="kdenlive:file_hash">86a0feaef15531cc0f874037dcf126a3</property>
  <property name="meta.media.top_field_first">0</property>
  <property name="meta.media.progressive">1</property>
 </producer>
 <producer id="producer22" in="00:00:00.000" out="00:03:53.300">
  <property name="length">2334</property>
  <property name="eof">pause</property>
  <property name="resource">ls/活动作品（风小逸合集）自古男儿当自强 吃个桃桃好凉凉-1W3411B7ZL0001.wav</property>
  <property name="meta.media.nb_streams">1</property>
  <property name="meta.media.0.stream.type">audio</property>
  <property name="meta.media.0.codec.sample_fmt">s16</property>
  <property name="meta.media.0.codec.sample_rate">48000</property>
  <property name="meta.media.0.codec.channels">2</property>
  <property name="meta.media.0.codec.name">pcm_s16le</property>
  <property name="meta.media.0.codec.long_name">PCM signed 16-bit little-endian</property>
  <property name="meta.media.0.codec.bit_rate">1536000</property>
  <property name="meta.attr.encoder.markup">Lavf58.76.100</property>
  <property name="seekable">1</property>
  <property name="audio_index">0</property>
  <property name="video_index">-1</property>
  <property name="mute_on_pause">1</property>
  <property name="mlt_service">avformat</property>
  <property name="kdenlive:clipname"/>
  <property name="kdenlive:folderid">-1</property>
  <property name="kdenlive:id">24</property>
  <property name="kdenlive:file_size">44818678</property>
  <property name="kdenlive:file_hash">c98a345aff6f1345bf0a14bbe104260f</property>
  <property name="kdenlive:audio_max0">216</property>
 </producer>
 <producer id="producer23" in="00:00:00.000" out="00:00:04.900">
  <property name="length">50</property>
  <property name="eof">pause</property>
  <property name="resource"/>
  <property name="progressive">1</property>
  <property name="aspect_ratio">1</property>
  <property name="seekable">1</property>
  <property name="mlt_service">kdenlivetitle</property>
  <property name="kdenlive:duration">50</property>
  <property name="kdenlive:clipname">电脑太凉 已被冻住</property>
  <property name="xmldata">&lt;kdenlivetitle duration="50" LC_NUMERIC="C" width="648" height="590" out="49">
 &lt;item type="QGraphicsTextItem" z-index="0">
  &lt;position x="191" y="266">
   &lt;transform>1,0,0,0,1,0,0,0,1&lt;/transform>
  &lt;/position>
  &lt;content line-spacing="0" shadow="0;#64000000;3;3;3" font-underline="0" box-height="270" font-outline-color="255,255,255,255" font="DejaVu Sans" letter-spacing="0" font-pixel-size="116" font-italic="0" typewriter="0;2;1;0;0" alignment="2" font-weight="50" gradient="#ff00e006;#ff613583;30;100;112" font-outline="0" box-width="464" font-color="0,0,0,255">电脑太凉
已被冻住&lt;/content>
 &lt;/item>
 &lt;startviewport rect="0,0,648,590"/>
 &lt;endviewport rect="0,0,648,590"/>
 &lt;background color="0,0,0,0"/>
&lt;/kdenlivetitle>
</property>
  <property name="kdenlive:folderid">-1</property>
  <property name="kdenlive:id">25</property>
  <property name="kdenlive:file_hash">53451a0d8d5ad097f758ec2d4b2bd785</property>
  <property name="force_reload">0</property>
  <property name="meta.media.width">648</property>
  <property name="meta.media.height">590</property>
 </producer>
 <producer id="producer24" in="00:00:00.000" out="00:00:04.900">
  <property name="length">50</property>
  <property name="eof">pause</property>
  <property name="resource"/>
  <property name="progressive">1</property>
  <property name="aspect_ratio">1</property>
  <property name="seekable">1</property>
  <property name="mlt_service">kdenlivetitle</property>
  <property name="kdenlive:duration">50</property>
  <property name="kdenlive:clipname">我一头 撞死</property>
  <property name="xmldata">&lt;kdenlivetitle duration="50" LC_NUMERIC="C" width="648" height="590" out="49">
 &lt;item type="QGraphicsTextItem" z-index="0">
  &lt;position x="153" y="95">
   &lt;transform>1,0,0,0,1,0,0,0,1&lt;/transform>
  &lt;/position>
  &lt;content line-spacing="0" shadow="0;#64000000;3;3;3" font-underline="0" box-height="270" font-outline-color="255,255,255,255" font="DejaVu Sans" letter-spacing="0" font-pixel-size="116" font-italic="0" typewriter="0;2;1;0;0" alignment="2" font-weight="50" gradient="#fff8e45c;#ffe01b24;36;100;112" font-outline="0" box-width="348" font-color="0,0,0,255">我一头
撞死&lt;/content>
 &lt;/item>
 &lt;startviewport rect="0,0,648,590"/>
 &lt;endviewport rect="0,0,648,590"/>
 &lt;background color="0,0,0,0"/>
&lt;/kdenlivetitle>
</property>
  <property name="kdenlive:file_hash">a4cbf1dee93e8dda786f7d9041d154a5</property>
  <property name="kdenlive:folderid">-1</property>
  <property name="kdenlive:id">26</property>
  <property name="force_reload">0</property>
  <property name="meta.media.width">648</property>
  <property name="meta.media.height">590</property>
 </producer>
 <producer id="producer25" in="00:00:00.000" out="00:00:04.900">
  <property name="length">50</property>
  <property name="eof">pause</property>
  <property name="resource"/>
  <property name="progressive">1</property>
  <property name="aspect_ratio">1</property>
  <property name="seekable">1</property>
  <property name="mlt_service">kdenlivetitle</property>
  <property name="kdenlive:duration">50</property>
  <property name="kdenlive:clipname">程序为你 优雅吃相 驻足</property>
  <property name="xmldata">&lt;kdenlivetitle duration="50" LC_NUMERIC="C" width="648" height="590" out="49">
 &lt;item type="QGraphicsTextItem" z-index="0">
  &lt;position x="110" y="147">
   &lt;transform>1,0,0,0,1,0,0,0,1&lt;/transform>
  &lt;/position>
  &lt;content line-spacing="0" shadow="0;#64000000;3;3;3" font-underline="0" box-height="405" font-outline-color="255,255,255,255" font="DejaVu Sans" letter-spacing="0" font-pixel-size="116" font-italic="0" typewriter="0;2;1;0;0" alignment="2" font-weight="50" gradient="#ff0935b7;#ffe01b24;23;100;58" font-outline="0" box-width="464" font-color="0,0,0,255">程序为你
优雅吃相
驻足&lt;/content>
 &lt;/item>
 &lt;startviewport rect="0,0,648,590"/>
 &lt;endviewport rect="0,0,648,590"/>
 &lt;background color="0,0,0,0"/>
&lt;/kdenlivetitle>
</property>
  <property name="kdenlive:file_hash">69ff79b1dc7d7f6330e24c137f3fbf4f</property>
  <property name="kdenlive:folderid">-1</property>
  <property name="kdenlive:id">27</property>
  <property name="force_reload">0</property>
  <property name="meta.media.width">648</property>
  <property name="meta.media.height">590</property>
 </producer>
 <producer id="producer26" in="00:00:00.000" out="00:00:04.900">
  <property name="length">50</property>
  <property name="eof">pause</property>
  <property name="resource"/>
  <property name="progressive">1</property>
  <property name="aspect_ratio">1</property>
  <property name="seekable">1</property>
  <property name="mlt_service">kdenlivetitle</property>
  <property name="kdenlive:duration">50</property>
  <property name="kdenlive:clipname">字幕剪辑</property>
  <property name="xmldata">&lt;kdenlivetitle duration="50" LC_NUMERIC="C" width="648" height="590" out="49">
 &lt;item type="QGraphicsTextItem" z-index="0">
  &lt;position x="192" y="230">
   &lt;transform>1,0,0,0,1,0,0,0,1&lt;/transform>
  &lt;/position>
  &lt;content line-spacing="0" shadow="0;#64000000;3;3;3" font-underline="0" box-height="137" font-outline-color="255,255,255,255" font="DejaVu Sans" letter-spacing="0" font-pixel-size="116" font-italic="0" typewriter="0;2;1;0;0" alignment="2" font-weight="50" gradient="#ff613583;#ff204a87;70;100;90" font-outline="0" box-width="116" font-color="0,0,0,255">太&lt;/content>
 &lt;/item>
 &lt;startviewport rect="0,0,648,590"/>
 &lt;endviewport rect="0,0,648,590"/>
 &lt;background color="0,0,0,0"/>
&lt;/kdenlivetitle>
</property>
  <property name="kdenlive:file_hash">98eda062cab20ebb9a388abf3f069a18</property>
  <property name="kdenlive:folderid">-1</property>
  <property name="kdenlive:id">28</property>
  <property name="force_reload">0</property>
  <property name="meta.media.width">648</property>
  <property name="meta.media.height">590</property>
 </producer>
 <producer id="producer27" in="00:00:00.000" out="00:00:04.900">
  <property name="length">50</property>
  <property name="eof">pause</property>
  <property name="resource"/>
  <property name="progressive">1</property>
  <property name="aspect_ratio">1</property>
  <property name="seekable">1</property>
  <property name="mlt_service">kdenlivetitle</property>
  <property name="kdenlive:duration">50</property>
  <property name="kdenlive:clipname">鱼子酱</property>
  <property name="xmldata">&lt;kdenlivetitle duration="50" LC_NUMERIC="C" width="648" height="590" out="49">
 &lt;item type="QGraphicsTextItem" z-index="0">
  &lt;position x="108" y="211">
   &lt;transform>1,0,0,0,1,0,0,0,1&lt;/transform>
  &lt;/position>
  &lt;content line-spacing="0" shadow="0;#64000000;3;3;3" font-underline="0" box-height="137" font-outline-color="255,255,255,255" font="DejaVu Sans" letter-spacing="0" font-pixel-size="116" font-italic="0" typewriter="0;2;1;0;0" alignment="2" font-weight="50" gradient="#ff3584e4;#ff26a269;28;100;58" font-outline="0" box-width="348" font-color="0,0,0,255">鱼子酱&lt;/content>
 &lt;/item>
 &lt;startviewport rect="0,0,648,590"/>
 &lt;endviewport rect="0,0,648,590"/>
 &lt;background color="0,0,0,0"/>
&lt;/kdenlivetitle>
</property>
  <property name="kdenlive:folderid">-1</property>
  <property name="kdenlive:id">29</property>
  <property name="kdenlive:file_hash">a7b84cf46ff021189646c6e7fa0d9cac</property>
  <property name="force_reload">0</property>
  <property name="meta.media.width">648</property>
  <property name="meta.media.height">590</property>
 </producer>
 <producer id="producer28" in="00:00:00.000" out="00:00:04.900">
  <property name="length">50</property>
  <property name="eof">pause</property>
  <property name="resource"/>
  <property name="progressive">1</property>
  <property name="aspect_ratio">1</property>
  <property name="seekable">1</property>
  <property name="mlt_service">kdenlivetitle</property>
  <property name="kdenlive:duration">50</property>
  <property name="kdenlive:clipname">好酸酸！</property>
  <property name="xmldata">&lt;kdenlivetitle duration="50" LC_NUMERIC="C" width="648" height="590" out="49">
 &lt;item type="QGraphicsTextItem" z-index="0">
  &lt;position x="108" y="211">
   &lt;transform>1,0,0,0,1,0,0,0,1&lt;/transform>
  &lt;/position>
  &lt;content line-spacing="0" shadow="0;#64000000;3;3;3" font-underline="0" box-height="137" font="DejaVu Sans" letter-spacing="0" font-pixel-size="116" font-italic="0" typewriter="0;2;1;0;0" alignment="2" font-weight="50" gradient="#ff3584e4;#ff26a269;28;100;58" box-width="464" font-color="0,0,0,255">好酸酸！&lt;/content>
 &lt;/item>
 &lt;startviewport rect="0,0,648,590"/>
 &lt;endviewport rect="0,0,648,590"/>
 &lt;background color="0,0,0,0"/>
&lt;/kdenlivetitle>
</property>
  <property name="kdenlive:folderid">-1</property>
  <property name="kdenlive:id">30</property>
  <property name="force_reload">0</property>
  <property name="kdenlive:file_hash">70cb235e9d1f8e131448494b4f0a8ef8</property>
  <property name="meta.media.width">648</property>
  <property name="meta.media.height">590</property>
 </producer>
 <producer id="producer29" in="00:00:00.000" out="00:00:04.900">
  <property name="length">50</property>
  <property name="eof">pause</property>
  <property name="resource"/>
  <property name="progressive">1</property>
  <property name="aspect_ratio">1</property>
  <property name="seekable">1</property>
  <property name="mlt_service">kdenlivetitle</property>
  <property name="kdenlive:duration">50</property>
  <property name="kdenlive:clipname">字幕剪辑</property>
  <property name="xmldata">&lt;kdenlivetitle duration="50" LC_NUMERIC="C" width="648" height="590" out="49">
 &lt;item type="QGraphicsTextItem" z-index="0">
  &lt;position x="131" y="242">
   &lt;transform>1,0,0,0,1,0,0,0,1&lt;/transform>
  &lt;/position>
  &lt;content line-spacing="0" shadow="0;#64000000;3;3;3" font-underline="0" box-height="137" font-outline-color="255,255,255,255" font="DejaVu Sans" letter-spacing="0" font-pixel-size="116" font-italic="0" typewriter="0;2;1;0;0" alignment="2" font-weight="50" gradient="#ff0935b7;#ffe01b24;23;100;58" font-outline="0" box-width="116" font-color="0,0,0,255">呕&lt;/content>
 &lt;/item>
 &lt;startviewport rect="0,0,648,590"/>
 &lt;endviewport rect="0,0,648,590"/>
 &lt;background color="0,0,0,0"/>
&lt;/kdenlivetitle>
</property>
  <property name="kdenlive:file_hash">f343079dc67e65d4e7a133e715c0e0d5</property>
  <property name="kdenlive:folderid">-1</property>
  <property name="kdenlive:id">31</property>
  <property name="force_reload">0</property>
  <property name="meta.media.width">648</property>
  <property name="meta.media.height">590</property>
 </producer>
 <producer id="producer30" in="00:00:00.000" out="00:00:04.900">
  <property name="length">50</property>
  <property name="eof">pause</property>
  <property name="resource"/>
  <property name="progressive">1</property>
  <property name="aspect_ratio">1</property>
  <property name="seekable">1</property>
  <property name="mlt_service">kdenlivetitle</property>
  <property name="kdenlive:duration">50</property>
  <property name="kdenlive:clipname">吃个 糖糖</property>
  <property name="xmldata">&lt;kdenlivetitle duration="50" LC_NUMERIC="C" width="648" height="590" out="49">
 &lt;item type="QGraphicsTextItem" z-index="0">
  &lt;position x="243" y="225">
   &lt;transform>1,0,0,0,1,0,0,0,1&lt;/transform>
  &lt;/position>
  &lt;content line-spacing="0" shadow="0;#64000000;3;3;3" font-underline="0" box-height="270" font-outline-color="255,255,255,255" font="DejaVu Sans" letter-spacing="0" font-pixel-size="116" font-italic="0" typewriter="0;2;1;0;0" alignment="2" font-weight="50" gradient="#ff613583;#ff865e3c;28;100;58" font-outline="0" box-width="232" font-color="0,0,0,255">吃个
糖糖&lt;/content>
 &lt;/item>
 &lt;startviewport rect="0,0,648,590"/>
 &lt;endviewport rect="0,0,648,590"/>
 &lt;background color="0,0,0,0"/>
&lt;/kdenlivetitle>
</property>
  <property name="kdenlive:folderid">-1</property>
  <property name="kdenlive:id">32</property>
  <property name="kdenlive:file_hash">dc682443634e586005237995e9519233</property>
  <property name="force_reload">0</property>
  <property name="meta.media.width">648</property>
  <property name="meta.media.height">590</property>
 </producer>
 <producer id="producer31" in="00:00:00.000" out="00:00:04.900">
  <property name="length">50</property>
  <property name="eof">pause</property>
  <property name="resource"/>
  <property name="progressive">1</property>
  <property name="aspect_ratio">1</property>
  <property name="seekable">1</property>
  <property name="mlt_service">kdenlivetitle</property>
  <property name="kdenlive:duration">50</property>
  <property name="kdenlive:clipname">字幕剪辑</property>
  <property name="xmldata">&lt;kdenlivetitle duration="50" LC_NUMERIC="C" width="648" height="590" out="49">
 &lt;item type="QGraphicsTextItem" z-index="0">
  &lt;position x="175" y="282">
   &lt;transform>1,0,0,0,1,0,0,0,1&lt;/transform>
  &lt;/position>
  &lt;content line-spacing="0" shadow="0;#64000000;3;3;3" font-underline="0" box-height="137" font-outline-color="255,255,255,255" font="DejaVu Sans" letter-spacing="0" font-pixel-size="116" font-italic="0" typewriter="0;2;1;0;0" alignment="2" font-weight="50" gradient="#ff3584e4;#ff26a269;28;100;58" font-outline="0" box-width="213.188" font-color="0,0,0,255">沙~&lt;/content>
 &lt;/item>
 &lt;startviewport rect="0,0,648,590"/>
 &lt;endviewport rect="0,0,648,590"/>
 &lt;background color="0,0,0,0"/>
&lt;/kdenlivetitle>
</property>
  <property name="kdenlive:folderid">-1</property>
  <property name="kdenlive:id">33</property>
  <property name="kdenlive:file_hash">254606611cc4947ff21565e609f9930c</property>
  <property name="force_reload">0</property>
  <property name="meta.media.width">648</property>
  <property name="meta.media.height">590</property>
 </producer>
 <producer id="producer32" in="00:00:00.000" out="00:00:04.900">
  <property name="length">50</property>
  <property name="eof">pause</property>
  <property name="resource"/>
  <property name="progressive">1</property>
  <property name="aspect_ratio">1</property>
  <property name="seekable">1</property>
  <property name="mlt_service">kdenlivetitle</property>
  <property name="kdenlive:duration">50</property>
  <property name="kdenlive:clipname">不萃呀？</property>
  <property name="xmldata">&lt;kdenlivetitle duration="50" LC_NUMERIC="C" width="648" height="590" out="49">
 &lt;item type="QGraphicsTextItem" z-index="0">
  &lt;position x="205" y="212">
   &lt;transform>1,0,0,0,1,0,0,0,1&lt;/transform>
  &lt;/position>
  &lt;content line-spacing="0" shadow="0;#64000000;3;3;3" font-underline="0" box-height="137" font-outline-color="255,255,255,255" font="DejaVu Sans" letter-spacing="0" font-pixel-size="116" font-italic="0" typewriter="0;2;1;0;0" alignment="2" font-weight="50" gradient="#ff613583;#ff865e3c;28;100;58" font-outline="0" box-width="464" font-color="0,0,0,255">不萃呀？&lt;/content>
 &lt;/item>
 &lt;startviewport rect="0,0,648,590"/>
 &lt;endviewport rect="0,0,648,590"/>
 &lt;background color="0,0,0,0"/>
&lt;/kdenlivetitle>
</property>
  <property name="kdenlive:file_hash">56c6b1430bcadb22608368f0ea377ae8</property>
  <property name="kdenlive:folderid">-1</property>
  <property name="kdenlive:id">34</property>
  <property name="force_reload">0</property>
  <property name="meta.media.width">648</property>
  <property name="meta.media.height">590</property>
 </producer>
 <producer id="producer33" in="00:00:00.000" out="00:00:04.900">
  <property name="length">50</property>
  <property name="eof">pause</property>
  <property name="resource"/>
  <property name="progressive">1</property>
  <property name="aspect_ratio">1</property>
  <property name="seekable">1</property>
  <property name="mlt_service">kdenlivetitle</property>
  <property name="kdenlive:duration">50</property>
  <property name="kdenlive:clipname">糊了吗》</property>
  <property name="xmldata">&lt;kdenlivetitle duration="50" LC_NUMERIC="C" width="648" height="590" out="49">
 &lt;item type="QGraphicsTextItem" z-index="0">
  &lt;position x="161" y="240">
   &lt;transform>1,0,0,0,1,0,0,0,1&lt;/transform>
  &lt;/position>
  &lt;content line-spacing="0" shadow="0;#64000000;3;3;3" font-underline="0" box-height="137" font-outline-color="255,255,255,255" font="DejaVu Sans" letter-spacing="0" font-pixel-size="116" font-italic="0" typewriter="0;2;1;0;0" alignment="2" font-weight="50" gradient="#ffffbe6f;#ff865e3c;28;100;130" font-outline="0" box-width="464" font-color="0,0,0,255">糊了吗》&lt;/content>
 &lt;/item>
 &lt;startviewport rect="0,0,648,590"/>
 &lt;endviewport rect="0,0,648,590"/>
 &lt;background color="0,0,0,0"/>
&lt;/kdenlivetitle>
</property>
  <property name="kdenlive:file_hash">5d363c2ba9d32a1e575c05733b952c16</property>
  <property name="kdenlive:folderid">-1</property>
  <property name="kdenlive:id">35</property>
  <property name="force_reload">0</property>
  <property name="meta.media.width">648</property>
  <property name="meta.media.height">590</property>
 </producer>
 <producer id="producer34" in="00:00:00.000" out="00:00:05.700">
  <property name="length">58</property>
  <property name="eof">pause</property>
  <property name="resource"/>
  <property name="progressive">1</property>
  <property name="aspect_ratio">1</property>
  <property name="seekable">1</property>
  <property name="mlt_service">kdenlivetitle</property>
  <property name="kdenlive:duration">50</property>
  <property name="kdenlive:clipname">AAAA!</property>
  <property name="xmldata">&lt;kdenlivetitle duration="50" LC_NUMERIC="C" width="648" height="590" out="49">
 &lt;item type="QGraphicsTextItem" z-index="0">
  &lt;position x="182" y="237">
   &lt;transform>1,0,0,0,1,0,0,0,1&lt;/transform>
  &lt;/position>
  &lt;content line-spacing="0" shadow="0;#64000000;3;3;3" font-underline="0" box-height="139" font="URW Gothic" letter-spacing="0" font-pixel-size="116" font-italic="0" typewriter="1;2;1;0;0" alignment="2" font-weight="50" gradient="#ff33d17a;#ff204a87;70;100;90" box-width="388.313" font-color="0,0,0,255">AAAA!&lt;/content>
 &lt;/item>
 &lt;startviewport rect="289.108,322.542,648,590"/>
 &lt;endviewport rect="0,0,648,590"/>
 &lt;background color="0,0,0,0"/>
&lt;/kdenlivetitle>
</property>
  <property name="kdenlive:file_hash">025775c31a421543ba0fc84de93ec0ac</property>
  <property name="kdenlive:folderid">-1</property>
  <property name="kdenlive:id">36</property>
  <property name="force_reload">0</property>
  <property name="meta.media.width">648</property>
  <property name="meta.media.height">590</property>
 </producer>
 <producer id="producer35" in="00:00:00.000" out="00:00:04.900">
  <property name="length">50</property>
  <property name="eof">pause</property>
  <property name="resource"/>
  <property name="progressive">1</property>
  <property name="aspect_ratio">1</property>
  <property name="seekable">1</property>
  <property name="mlt_service">kdenlivetitle</property>
  <property name="kdenlive:duration">50</property>
  <property name="kdenlive:clipname">只有 疯小逸 能治疗 疯...</property>
  <property name="xmldata">&lt;kdenlivetitle duration="50" LC_NUMERIC="C" width="648" height="590" out="49">
 &lt;item type="QGraphicsTextItem" z-index="0">
  &lt;position x="162" y="44">
   &lt;transform>1,0,0,0,1,0,0,0,1&lt;/transform>
  &lt;/position>
  &lt;content line-spacing="0" shadow="0;#64000000;3;3;3" font-underline="0" box-height="544" font-outline-color="255,255,255,255" font="文泉驿等宽微米黑" letter-spacing="0" font-pixel-size="116" font-italic="0" typewriter="1;3;3;0;0" alignment="2" font-weight="63" gradient="#ff3584e4;#ff26a269;28;100;58" font-outline="0" box-width="348" font-color="0,0,0,255">只有
疯小逸
能治疗
疯小逸&lt;/content>
 &lt;/item>
 &lt;startviewport rect="0,0,648,590"/>
 &lt;endviewport rect="0,0,648,590"/>
 &lt;background color="0,0,0,0"/>
&lt;/kdenlivetitle>
</property>
  <property name="kdenlive:file_hash">9c1256632928f9dd29b0d7a31bdb31f8</property>
  <property name="kdenlive:folderid">-1</property>
  <property name="kdenlive:id">37</property>
  <property name="force_reload">0</property>
  <property name="meta.media.width">648</property>
  <property name="meta.media.height">590</property>
 </producer>
 <producer id="producer36" in="00:00:00.000" out="00:00:27.600">
  <property name="length">277</property>
  <property name="eof">pause</property>
  <property name="resource">ls/牛“油”果2.0-1dM4y1V7hY.flv</property>
  <property name="audio_index">1</property>
  <property name="video_index">0</property>
  <property name="mute_on_pause">0</property>
  <property name="mlt_service">avformat-novalidate</property>
  <property name="meta.media.nb_streams">2</property>
  <property name="meta.media.0.stream.type">video</property>
  <property name="meta.media.0.stream.frame_rate">30.1071</property>
  <property name="meta.media.0.stream.sample_aspect_ratio">0</property>
  <property name="meta.media.0.codec.width">720</property>
  <property name="meta.media.0.codec.height">720</property>
  <property name="meta.media.0.codec.rotate">0</property>
  <property name="meta.media.0.codec.frame_rate">30</property>
  <property name="meta.media.0.codec.pix_fmt">yuv420p</property>
  <property name="meta.media.0.codec.sample_aspect_ratio">1</property>
  <property name="meta.media.0.codec.colorspace">709</property>
  <property name="meta.media.0.codec.color_trc">1</property>
  <property name="meta.media.0.codec.name">h264</property>
  <property name="meta.media.0.codec.long_name">H.264 / AVC / MPEG-4 AVC / MPEG-4 part 10</property>
  <property name="meta.media.0.codec.bit_rate">949003</property>
  <property name="meta.media.1.stream.type">audio</property>
  <property name="meta.media.1.codec.sample_fmt">fltp</property>
  <property name="meta.media.1.codec.sample_rate">44100</property>
  <property name="meta.media.1.codec.channels">2</property>
  <property name="meta.media.1.codec.name">aac</property>
  <property name="meta.media.1.codec.long_name">AAC (Advanced Audio Coding)</property>
  <property name="meta.media.1.codec.bit_rate">319801</property>
  <property name="meta.attr.description.markup">Bilibili VXCode Swarm Transcoder v0.5.6</property>
  <property name="meta.attr.metadatacreator.markup">Version 1.9</property>
  <property name="meta.attr.hasKeyframes.markup">true</property>
  <property name="meta.attr.hasVideo.markup">true</property>
  <property name="meta.attr.hasAudio.markup">true</property>
  <property name="meta.attr.hasMetadata.markup">true</property>
  <property name="meta.attr.canSeekToEnd.markup">true</property>
  <property name="meta.attr.datasize.markup">4398248</property>
  <property name="meta.attr.videosize.markup">3271308</property>
  <property name="meta.attr.audiosize.markup">1118872</property>
  <property name="meta.attr.lasttimestamp.markup">28</property>
  <property name="meta.attr.lastkeyframetimestamp.markup">28</property>
  <property name="meta.attr.lastkeyframelocation.markup">4399018</property>
  <property name="seekable">1</property>
  <property name="meta.media.sample_aspect_num">1</property>
  <property name="meta.media.sample_aspect_den">1</property>
  <property name="aspect_ratio">1</property>
  <property name="kdenlive:clipname"/>
  <property name="kdenlive:folderid">-1</property>
  <property name="meta.media.frame_rate_num">843</property>
  <property name="meta.media.frame_rate_den">28</property>
  <property name="meta.media.colorspace">709</property>
  <property name="meta.media.color_trc">1</property>
  <property name="meta.media.has_b_frames">4</property>
  <property name="meta.media.width">720</property>
  <property name="meta.media.height">720</property>
  <property name="meta.media.color_range">mpeg</property>
  <property name="kdenlive:id">38</property>
  <property name="kdenlive:file_size">4399038</property>
  <property name="kdenlive:file_hash">e950d207a84eb1a4c27b2b4621c4102c</property>
  <property name="meta.media.top_field_first">0</property>
  <property name="meta.media.progressive">1</property>
  <property name="kdenlive:audio_max1">238</property>
 </producer>
 <producer id="producer37" in="00:00:00.000" out="00:00:27.500">
  <property name="length">276</property>
  <property name="eof">pause</property>
  <property name="resource">ls/牛“油”果2.0-1dM4y1V7hY0001.wav</property>
  <property name="meta.media.nb_streams">1</property>
  <property name="meta.media.0.stream.type">audio</property>
  <property name="meta.media.0.codec.sample_fmt">s16</property>
  <property name="meta.media.0.codec.sample_rate">48000</property>
  <property name="meta.media.0.codec.channels">2</property>
  <property name="meta.media.0.codec.name">pcm_s16le</property>
  <property name="meta.media.0.codec.long_name">PCM signed 16-bit little-endian</property>
  <property name="meta.media.0.codec.bit_rate">1536000</property>
  <property name="meta.attr.encoder.markup">Lavf58.76.100</property>
  <property name="seekable">1</property>
  <property name="audio_index">0</property>
  <property name="video_index">-1</property>
  <property name="mute_on_pause">1</property>
  <property name="mlt_service">avformat</property>
  <property name="kdenlive:clipname"/>
  <property name="kdenlive:folderid">-1</property>
  <property name="kdenlive:id">39</property>
  <property name="kdenlive:file_size">5296458</property>
  <property name="kdenlive:file_hash">7011bc9a82588ef1b71675097d872daa</property>
  <property name="kdenlive:audio_max0">239</property>
 </producer>
 <producer id="producer38" in="00:00:00.000" out="00:00:04.900">
  <property name="length">50</property>
  <property name="eof">pause</property>
  <property name="resource"/>
  <property name="progressive">1</property>
  <property name="aspect_ratio">1</property>
  <property name="seekable">1</property>
  <property name="mlt_service">kdenlivetitle</property>
  <property name="kdenlive:duration">50</property>
  <property name="kdenlive:clipname">bgm:chip-pla...</property>
  <property name="xmldata">&lt;kdenlivetitle duration="50" LC_NUMERIC="C" width="648" height="590" out="49">
 &lt;item type="QGraphicsTextItem" z-index="1">
  &lt;position x="227" y="469">
   &lt;transform>1,0,0,0,1,0,0,0,1&lt;/transform>
  &lt;/position>
  &lt;content line-spacing="0" shadow="0;#64000000;3;3;3" font-underline="0" box-height="104" font-outline-color="255,255,255,255" font="文泉驿等宽微米黑" letter-spacing="0" font-pixel-size="44" font-italic="0" typewriter="0;2;1;0;0" alignment="2" font-weight="63" gradient="#ff3584e4;#ff26a269;28;100;58" font-outline="0" box-width="395.859" font-color="0,0,0,255">bgm:chip-player
海龟音响demo&lt;/content>
 &lt;/item>
 &lt;item type="QGraphicsTextItem" z-index="0">
  &lt;position x="261" y="224">
   &lt;transform>1,0,0,0,1,0,0,0,1&lt;/transform>
  &lt;/position>
  &lt;content line-spacing="0" shadow="0;#64000000;3;3;3" font-underline="0" box-height="137" font-outline-color="255,255,255,255" font="文泉驿等宽微米黑" letter-spacing="0" font-pixel-size="116" font-italic="0" typewriter="0;2;1;0;0" alignment="2" font-weight="63" font-outline="0" box-width="116" font-color="224,27,36,255">完&lt;/content>
 &lt;/item>
 &lt;startviewport rect="0,0,648,590"/>
 &lt;endviewport rect="0,0,648,590"/>
 &lt;background color="0,0,0,0"/>
&lt;/kdenlivetitle>
</property>
  <property name="kdenlive:file_hash">3f4b42c35159a293e40fd157747ff149</property>
  <property name="kdenlive:folderid">-1</property>
  <property name="kdenlive:id">40</property>
  <property name="force_reload">0</property>
  <property name="meta.media.width">648</property>
  <property name="meta.media.height">590</property>
 </producer>
 <producer id="producer39" in="00:00:00.000" out="00:00:53.800">
  <property name="length">539</property>
  <property name="eof">pause</property>
  <property name="resource">ls/we.wav</property>
  <property name="meta.media.nb_streams">1</property>
  <property name="meta.media.0.stream.type">audio</property>
  <property name="meta.media.0.codec.sample_fmt">s16</property>
  <property name="meta.media.0.codec.sample_rate">48000</property>
  <property name="meta.media.0.codec.channels">2</property>
  <property name="meta.media.0.codec.name">pcm_s16le</property>
  <property name="meta.media.0.codec.long_name">PCM signed 16-bit little-endian</property>
  <property name="meta.media.0.codec.bit_rate">1536000</property>
  <property name="meta.attr.encoder.markup">Lavf58.76.100</property>
  <property name="seekable">1</property>
  <property name="audio_index">0</property>
  <property name="video_index">-1</property>
  <property name="mute_on_pause">1</property>
  <property name="mlt_service">avformat</property>
  <property name="kdenlive:clipname"/>
  <property name="kdenlive:folderid">-1</property>
  <property name="kdenlive:id">41</property>
  <property name="kdenlive:file_size">10356062</property>
  <property name="kdenlive:file_hash">753ad281d6b5914ce71a528d4c645a00</property>
  <property name="kdenlive:audio_max0">218</property>
 </producer>
 <producer id="producer40" in="00:00:00.000" out="00:00:17.600">
  <property name="length">177</property>
  <property name="eof">pause</property>
  <property name="resource">/home/duangsuse/Peek 2021-09-28 04-02.mp4</property>
  <property name="meta.media.nb_streams">1</property>
  <property name="meta.media.0.stream.type">video</property>
  <property name="meta.media.0.stream.frame_rate">10</property>
  <property name="meta.media.0.stream.sample_aspect_ratio">0</property>
  <property name="meta.media.0.codec.width">874</property>
  <property name="meta.media.0.codec.height">590</property>
  <property name="meta.media.0.codec.rotate">0</property>
  <property name="meta.media.0.codec.frame_rate">10</property>
  <property name="meta.media.0.codec.pix_fmt">yuv420p</property>
  <property name="meta.media.0.codec.sample_aspect_ratio">0</property>
  <property name="meta.media.0.codec.colorspace">601</property>
  <property name="meta.media.0.codec.name">h264</property>
  <property name="meta.media.0.codec.long_name">H.264 / AVC / MPEG-4 AVC / MPEG-4 part 10</property>
  <property name="meta.media.0.codec.bit_rate">57385</property>
  <property name="meta.attr.0.stream.handler_name.markup">VideoHandler</property>
  <property name="meta.attr.0.stream.vendor_id.markup">[0][0][0][0]</property>
  <property name="meta.attr.major_brand.markup">isom</property>
  <property name="meta.attr.minor_version.markup">512</property>
  <property name="meta.attr.compatible_brands.markup">isomiso2avc1mp41</property>
  <property name="meta.attr.encoder.markup">Lavf58.76.100</property>
  <property name="seekable">1</property>
  <property name="meta.media.sample_aspect_num">1</property>
  <property name="meta.media.sample_aspect_den">1</property>
  <property name="aspect_ratio">1</property>
  <property name="audio_index">-1</property>
  <property name="video_index">0</property>
  <property name="mute_on_pause">0</property>
  <property name="mlt_service">avformat-novalidate</property>
  <property name="kdenlive:clipname"/>
  <property name="kdenlive:folderid">-1</property>
  <property name="meta.media.frame_rate_num">10</property>
  <property name="meta.media.frame_rate_den">1</property>
  <property name="meta.media.colorspace">601</property>
  <property name="meta.media.color_trc">2</property>
  <property name="meta.media.has_b_frames">2</property>
  <property name="meta.media.width">874</property>
  <property name="meta.media.height">590</property>
  <property name="meta.media.color_range">mpeg</property>
  <property name="kdenlive:id">42</property>
  <property name="kdenlive:file_size">129949</property>
  <property name="kdenlive:file_hash">922b81117a92a70a955e106c480e41be</property>
  <property name="meta.media.top_field_first">0</property>
  <property name="meta.media.progressive">1</property>
 </producer>
 <producer id="producer41" in="00:00:00.000" out="00:00:04.900">
  <property name="length">50</property>
  <property name="eof">pause</property>
  <property name="resource"/>
  <property name="progressive">1</property>
  <property name="aspect_ratio">1</property>
  <property name="seekable">1</property>
  <property name="mlt_service">kdenlivetitle</property>
  <property name="kdenlive:duration">50</property>
  <property name="kdenlive:clipname">破50赞 下期做多玩家 ...</property>
  <property name="xmldata">&lt;kdenlivetitle duration="50" LC_NUMERIC="C" width="648" height="590" out="49">
 &lt;item type="QGraphicsTextItem" z-index="3">
  &lt;position x="456" y="394">
   &lt;transform>1,0,0,0,1,0,0,0,1&lt;/transform>
  &lt;/position>
  &lt;content line-spacing="0" shadow="0;#64000000;3;3;3" font-underline="0" box-height="138" font-outline-color="255,255,255,255" font="文泉驿等宽微米黑" letter-spacing="0" font-pixel-size="20" font-italic="0" typewriter="0;2;1;0;0" alignment="2" font-weight="63" gradient="#ff3584e4;#ff26a269;28;100;58" font-outline="0" box-width="120" font-color="0,0,0,255">否则等我开心
不然
方块游戏系列

制作细节分享
就此拖更&lt;/content>
 &lt;/item>
 &lt;item type="QGraphicsEllipseItem" z-index="2">
  &lt;position x="415" y="14">
   &lt;transform zoom="100">1,0,0,0,1,0,0,0,1&lt;/transform>
  &lt;/position>
  &lt;content brushcolor="0,0,0,255" pencolor="134,94,60,255" penwidth="3" rect="0,0,61.3069,82.802" gradient="#fff8e45c;#ffe01b24;36;100;112"/>
 &lt;/item>
 &lt;item type="QGraphicsTextItem" z-index="1">
  &lt;position x="201" y="9">
   &lt;transform>1,0,0,0,1,0,0,0,1&lt;/transform>
  &lt;/position>
  &lt;content line-spacing="0" shadow="0;#64000000;3;3;3" font-underline="0" box-height="112" font-outline-color="255,255,255,255" font="文泉驿等宽微米黑" letter-spacing="0" font-pixel-size="94" font-italic="0" typewriter="0;2;1;0;0" alignment="2" font-weight="63" font-outline="0" box-width="188" font-color="248,228,92,255">彩蛋&lt;/content>
 &lt;/item>
 &lt;item type="QGraphicsTextItem" z-index="0">
  &lt;position x="31" y="134">
   &lt;transform>1,0,0,0,1,0,0,0,1&lt;/transform>
  &lt;/position>
  &lt;content line-spacing="0" shadow="0;#64000000;3;3;3" font-underline="0" box-height="440" font-outline-color="255,255,255,255" font="文泉驿等宽微米黑" letter-spacing="0" font-pixel-size="94" font-italic="0" typewriter="0;2;1;0;0" alignment="1" font-weight="63" gradient="#ff0935b7;#ffe01b24;23;100;58" font-outline="0" box-width="564" font-color="0,0,0,255">破50赞
下期做多玩家
主题贴图
特殊食物&lt;/content>
 &lt;/item>
 &lt;startviewport rect="0,0,648,590"/>
 &lt;endviewport rect="0,0,648,590"/>
 &lt;background color="0,0,0,0"/>
&lt;/kdenlivetitle>
</property>
  <property name="kdenlive:file_hash">bed3127c1819f885ff422fcf92b7bcd5</property>
  <property name="kdenlive:folderid">-1</property>
  <property name="kdenlive:id">43</property>
  <property name="force_reload">0</property>
  <property name="meta.media.width">648</property>
  <property name="meta.media.height">590</property>
 </producer>
 <playlist id="main_bin">
  <property name="kdenlive:docproperties.activeTrack">3</property>
  <property name="kdenlive:docproperties.audioChannels">2</property>
  <property name="kdenlive:docproperties.audioTarget">-1</property>
  <property name="kdenlive:docproperties.disablepreview">0</property>
  <property name="kdenlive:docproperties.documentid">1632761516527</property>
  <property name="kdenlive:docproperties.enableTimelineZone">0</property>
  <property name="kdenlive:docproperties.enableexternalproxy">0</property>
  <property name="kdenlive:docproperties.enableproxy">0</property>
  <property name="kdenlive:docproperties.externalproxyparams">../Sub;;S03.MP4;../Clip;;.MXF</property>
  <property name="kdenlive:docproperties.generateimageproxy">0</property>
  <property name="kdenlive:docproperties.generateproxy">0</property>
  <property name="kdenlive:docproperties.groups">[
]
</property>
  <property name="kdenlive:docproperties.kdenliveversion">21.08.0</property>
  <property name="kdenlive:docproperties.position">19</property>
  <property name="kdenlive:docproperties.previewextension"/>
  <property name="kdenlive:docproperties.previewparameters"/>
  <property name="kdenlive:docproperties.profile">/home/duangsuse/.local/share/kdenlive/profiles/customprofile5</property>
  <property name="kdenlive:docproperties.proxyextension"/>
  <property name="kdenlive:docproperties.proxyimageminsize">2000</property>
  <property name="kdenlive:docproperties.proxyimagesize">800</property>
  <property name="kdenlive:docproperties.proxyminsize">1000</property>
  <property name="kdenlive:docproperties.proxyparams"/>
  <property name="kdenlive:docproperties.proxyresize">640</property>
  <property name="kdenlive:docproperties.scrollPos">0</property>
  <property name="kdenlive:docproperties.seekOffset">30000</property>
  <property name="kdenlive:docproperties.version">1.01</property>
  <property name="kdenlive:docproperties.verticalzoom">1</property>
  <property name="kdenlive:docproperties.videoTarget">2</property>
  <property name="kdenlive:docproperties.zonein">0</property>
  <property name="kdenlive:docproperties.zoneout">75</property>
  <property name="kdenlive:docproperties.zoom">4</property>
  <property name="kdenlive:expandedFolders"/>
  <property name="kdenlive:documentnotes"/>
  <property name="kdenlive:docproperties.renderaudioquality">192</property>
  <property name="kdenlive:docproperties.rendercategory">Generic (HD for web, mobile devices...)</property>
  <property name="kdenlive:docproperties.renderendguide">-1</property>
  <property name="kdenlive:docproperties.renderexportaudio">0</property>
  <property name="kdenlive:docproperties.renderfield">0</property>
  <property name="kdenlive:docproperties.renderguide">0</property>
  <property name="kdenlive:docproperties.renderplay">0</property>
  <property name="kdenlive:docproperties.renderprofile">MP4-H264/AAC</property>
  <property name="kdenlive:docproperties.renderquality">23</property>
  <property name="kdenlive:docproperties.renderratio">1</property>
  <property name="kdenlive:docproperties.renderrescale">0</property>
  <property name="kdenlive:docproperties.renderrescaleheight">295</property>
  <property name="kdenlive:docproperties.renderrescalewidth">324</property>
  <property name="kdenlive:docproperties.renderscanning">0</property>
  <property name="kdenlive:docproperties.renderspeed">2</property>
  <property name="kdenlive:docproperties.renderstartguide">-1</property>
  <property name="kdenlive:docproperties.rendertcoverlay">0</property>
  <property name="kdenlive:docproperties.rendertctype">0</property>
  <property name="kdenlive:docproperties.rendertwopass">0</property>
  <property name="kdenlive:docproperties.renderurl">/home/duangsuse/Videos/gam.mp4</property>
  <property name="kdenlive:docproperties.renderzone">0</property>
  <property name="xml_retain">1</property>
  <entry producer="producer0" in="00:00:00.000" out="00:00:34.100"/>
  <entry producer="producer1" in="00:00:00.000" out="00:00:36.300"/>
  <entry producer="producer2" in="00:00:00.000" out="00:01:08.200"/>
  <entry producer="producer3" in="00:00:00.000" out="00:00:50.200"/>
  <entry producer="producer4" in="00:00:00.000" out="00:01:00.100"/>
  <entry producer="producer5" in="00:00:00.000" out="00:00:53.600"/>
  <entry producer="producer6" in="00:00:00.000" out="00:00:47.400"/>
  <entry producer="producer7" in="00:00:00.000" out="00:00:44.100"/>
  <entry producer="producer8" in="00:00:00.000" out="00:00:24.000"/>
  <entry producer="producer9" in="00:00:00.000" out="00:00:24.000"/>
  <entry producer="producer10" in="00:00:00.000" out="00:00:47.400"/>
  <entry producer="producer11" in="00:00:00.000" out="00:00:47.300"/>
  <entry producer="producer12" in="00:00:00.000" out="00:00:04.900"/>
  <entry producer="producer13" in="00:00:00.000" out="00:00:04.900"/>
  <entry producer="producer14" in="00:00:00.000" out="00:00:04.900"/>
  <entry producer="producer15" in="00:00:00.000" out="00:00:04.900"/>
  <entry producer="producer16" in="00:00:00.000" out="00:00:04.900"/>
  <entry producer="producer17" in="00:00:00.000" out="00:00:04.900"/>
  <entry producer="producer18" in="00:00:00.000" out="00:00:04.900"/>
  <entry producer="producer19" in="00:00:00.000" out="00:00:04.900"/>
  <entry producer="producer20" in="00:00:00.000" out="00:00:04.900"/>
  <entry producer="producer21" in="00:00:00.000" out="00:01:31.900"/>
  <entry producer="producer22" in="00:00:00.000" out="00:03:53.300"/>
  <entry producer="producer23" in="00:00:00.000" out="00:00:04.900"/>
  <entry producer="producer24" in="00:00:00.000" out="00:00:04.900"/>
  <entry producer="producer25" in="00:00:00.000" out="00:00:04.900"/>
  <entry producer="producer26" in="00:00:00.000" out="00:00:04.900"/>
  <entry producer="producer27" in="00:00:00.000" out="00:00:04.900"/>
  <entry producer="producer28" in="00:00:00.000" out="00:00:04.900"/>
  <entry producer="producer29" in="00:00:00.000" out="00:00:04.900"/>
  <entry producer="producer30" in="00:00:00.000" out="00:00:04.900"/>
  <entry producer="producer31" in="00:00:00.000" out="00:00:04.900"/>
  <entry producer="producer32" in="00:00:00.000" out="00:00:04.900"/>
  <entry producer="producer33" in="00:00:00.000" out="00:00:04.900"/>
  <entry producer="producer34" in="00:00:00.000" out="00:00:05.700"/>
  <entry producer="producer35" in="00:00:00.000" out="00:00:04.900"/>
  <entry producer="producer36" in="00:00:00.000" out="00:00:27.600"/>
  <entry producer="producer37" in="00:00:00.000" out="00:00:27.500"/>
  <entry producer="producer38" in="00:00:00.000" out="00:00:04.900"/>
  <entry producer="producer39" in="00:00:00.000" out="00:00:53.800"/>
  <entry producer="producer40" in="00:00:00.000" out="00:00:17.600"/>
  <entry producer="producer41" in="00:00:00.000" out="00:00:04.900"/>
 </playlist>
 <producer id="black_track" in="00:00:00.000" out="00:54:50.400">
  <property name="length">2147483647</property>
  <property name="eof">continue</property>
  <property name="resource">black</property>
  <property name="aspect_ratio">1</property>
  <property name="mlt_service">color</property>
  <property name="mlt_image_format">rgb24a</property>
  <property name="set.test_audio">0</property>
 </producer>
 <producer id="producer42" in="00:00:00.000" out="00:00:53.800">
  <property name="length">539</property>
  <property name="eof">pause</property>
  <property name="resource">ls/we.wav</property>
  <property name="meta.media.nb_streams">1</property>
  <property name="meta.media.0.stream.type">audio</property>
  <property name="meta.media.0.codec.sample_fmt">s16</property>
  <property name="meta.media.0.codec.sample_rate">48000</property>
  <property name="meta.media.0.codec.channels">2</property>
  <property name="meta.media.0.codec.name">pcm_s16le</property>
  <property name="meta.media.0.codec.long_name">PCM signed 16-bit little-endian</property>
  <property name="meta.media.0.codec.bit_rate">1536000</property>
  <property name="meta.attr.encoder.markup">Lavf58.76.100</property>
  <property name="seekable">1</property>
  <property name="audio_index">0</property>
  <property name="video_index">-1</property>
  <property name="mute_on_pause">0</property>
  <property name="mlt_service">avformat-novalidate</property>
  <property name="kdenlive:clipname"/>
  <property name="kdenlive:folderid">-1</property>
  <property name="kdenlive:id">41</property>
  <property name="kdenlive:file_size">10356062</property>
  <property name="kdenlive:file_hash">753ad281d6b5914ce71a528d4c645a00</property>
  <property name="kdenlive:audio_max0">218</property>
  <property name="xml">was here</property>
  <property name="set.test_audio">0</property>
  <property name="set.test_image">1</property>
 </producer>
 <playlist id="playlist0">
  <property name="kdenlive:audio_track">1</property>
  <blank length="00:00:06.900"/>
  <entry producer="producer42" in="00:00:04.100" out="00:00:53.800">
   <property name="kdenlive:id">41</property>
   <filter id="filter0" in="00:00:04.100" out="00:00:04.800">
    <property name="window">75</property>
    <property name="max_gain">20dB</property>
    <property name="mlt_service">volume</property>
    <property name="kdenlive_id">fadein</property>
    <property name="gain">0</property>
    <property name="end">1</property>
   </filter>
  </entry>
 </playlist>
 <playlist id="playlist1">
  <property name="kdenlive:audio_track">1</property>
 </playlist>
 <tractor id="tractor0" in="00:00:00.000" out="00:00:56.600">
  <property name="kdenlive:audio_track">1</property>
  <property name="kdenlive:trackheight">69</property>
  <property name="kdenlive:timeline_active">1</property>
  <property name="kdenlive:collapsed">0</property>
  <property name="kdenlive:thumbs_format"/>
  <property name="kdenlive:audio_rec"/>
  <track hide="video" producer="playlist0"/>
  <track hide="video" producer="playlist1"/>
  <filter id="filter1">
   <property name="window">75</property>
   <property name="max_gain">20dB</property>
   <property name="mlt_service">volume</property>
   <property name="internal_added">237</property>
   <property name="disable">1</property>
  </filter>
  <filter id="filter2">
   <property name="channel">-1</property>
   <property name="mlt_service">panner</property>
   <property name="internal_added">237</property>
   <property name="start">0.5</property>
   <property name="disable">1</property>
  </filter>
  <filter id="filter3">
   <property name="iec_scale">0</property>
   <property name="mlt_service">audiolevel</property>
   <property name="disable">1</property>
  </filter>
 </tractor>
 <producer id="producer43" in="00:00:00.000" out="00:00:47.300">
  <property name="length">474</property>
  <property name="eof">pause</property>
  <property name="resource">ls/吃个桃桃原版-1gU4y177fW0001.wav</property>
  <property name="audio_index">0</property>
  <property name="video_index">-1</property>
  <property name="mute_on_pause">0</property>
  <property name="mlt_service">avformat-novalidate</property>
  <property name="meta.media.nb_streams">1</property>
  <property name="meta.media.0.stream.type">audio</property>
  <property name="meta.media.0.codec.sample_fmt">s16</property>
  <property name="meta.media.0.codec.sample_rate">48000</property>
  <property name="meta.media.0.codec.channels">2</property>
  <property name="meta.media.0.codec.name">pcm_s16le</property>
  <property name="meta.media.0.codec.long_name">PCM signed 16-bit little-endian</property>
  <property name="meta.media.0.codec.bit_rate">1536000</property>
  <property name="meta.attr.encoder.markup">Lavf58.76.100</property>
  <property name="seekable">1</property>
  <property name="kdenlive:clipname"/>
  <property name="kdenlive:folderid">-1</property>
  <property name="kdenlive:id">13</property>
  <property name="kdenlive:file_size">9109582</property>
  <property name="kdenlive:file_hash">3cd9a7ee2b6fa604102a981a161f5d0f</property>
  <property name="kdenlive:audio_max0">224</property>
  <property name="xml">was here</property>
  <property name="set.test_audio">0</property>
  <property name="set.test_image">1</property>
 </producer>
 <producer id="producer44" in="00:00:00.000" out="00:03:53.300">
  <property name="length">2334</property>
  <property name="eof">pause</property>
  <property name="resource">ls/活动作品（风小逸合集）自古男儿当自强 吃个桃桃好凉凉-1W3411B7ZL0001.wav</property>
  <property name="audio_index">0</property>
  <property name="video_index">-1</property>
  <property name="mute_on_pause">0</property>
  <property name="mlt_service">avformat-novalidate</property>
  <property name="meta.media.nb_streams">1</property>
  <property name="meta.media.0.stream.type">audio</property>
  <property name="meta.media.0.codec.sample_fmt">s16</property>
  <property name="meta.media.0.codec.sample_rate">48000</property>
  <property name="meta.media.0.codec.channels">2</property>
  <property name="meta.media.0.codec.name">pcm_s16le</property>
  <property name="meta.media.0.codec.long_name">PCM signed 16-bit little-endian</property>
  <property name="meta.media.0.codec.bit_rate">1536000</property>
  <property name="meta.attr.encoder.markup">Lavf58.76.100</property>
  <property name="seekable">1</property>
  <property name="kdenlive:clipname"/>
  <property name="kdenlive:folderid">-1</property>
  <property name="kdenlive:id">24</property>
  <property name="kdenlive:file_size">44818678</property>
  <property name="kdenlive:file_hash">c98a345aff6f1345bf0a14bbe104260f</property>
  <property name="kdenlive:audio_max0">216</property>
  <property name="xml">was here</property>
  <property name="set.test_audio">0</property>
  <property name="set.test_image">1</property>
 </producer>
 <producer id="producer45" in="00:00:00.000" out="00:00:24.000">
  <property name="length">241</property>
  <property name="eof">pause</property>
  <property name="resource">ls/吃个桃桃-1MP4y1s7Xn0001.wav</property>
  <property name="audio_index">0</property>
  <property name="video_index">-1</property>
  <property name="mute_on_pause">0</property>
  <property name="mlt_service">avformat-novalidate</property>
  <property name="meta.media.nb_streams">1</property>
  <property name="meta.media.0.stream.type">audio</property>
  <property name="meta.media.0.codec.sample_fmt">s16</property>
  <property name="meta.media.0.codec.sample_rate">48000</property>
  <property name="meta.media.0.codec.channels">2</property>
  <property name="meta.media.0.codec.name">pcm_s16le</property>
  <property name="meta.media.0.codec.long_name">PCM signed 16-bit little-endian</property>
  <property name="meta.media.0.codec.bit_rate">1536000</property>
  <property name="meta.attr.encoder.markup">Lavf58.76.100</property>
  <property name="seekable">1</property>
  <property name="kdenlive:clipname"/>
  <property name="kdenlive:folderid">-1</property>
  <property name="kdenlive:id">11</property>
  <property name="kdenlive:file_size">4623266</property>
  <property name="kdenlive:file_hash">d8aa595ff0972612ceab14850360011e</property>
  <property name="kdenlive:audio_max0">242</property>
  <property name="xml">was here</property>
  <property name="set.test_audio">0</property>
  <property name="set.test_image">1</property>
 </producer>
 <producer id="producer46" in="00:00:00.000" out="00:00:34.900">
  <property name="length">351</property>
  <property name="eof">pause</property>
  <property name="resource">0.687500:ls/吃个桃桃-1MP4y1s7Xn0001.wav</property>
  <property name="aspect_ratio">1</property>
  <property name="meta.media.nb_streams">1</property>
  <property name="meta.media.0.stream.type">audio</property>
  <property name="meta.media.0.codec.sample_fmt">s16</property>
  <property name="meta.media.0.codec.sample_rate">48000</property>
  <property name="meta.media.0.codec.channels">2</property>
  <property name="meta.media.0.codec.name">pcm_s16le</property>
  <property name="meta.media.0.codec.long_name">PCM signed 16-bit little-endian</property>
  <property name="meta.media.0.codec.bit_rate">1536000</property>
  <property name="meta.attr.encoder.markup">Lavf58.76.100</property>
  <property name="seekable">1</property>
  <property name="audio_index">0</property>
  <property name="video_index">-1</property>
  <property name="mute_on_pause">1</property>
  <property name="warp_speed">0.6875</property>
  <property name="warp_resource">ls/吃个桃桃-1MP4y1s7Xn0001.wav</property>
  <property name="mlt_service">timewarp</property>
  <property name="set.test_audio">0</property>
  <property name="set.test_image">1</property>
  <property name="kdenlive:id">11</property>
  <property name="warp_pitch">0</property>
 </producer>
 <producer id="producer47" in="00:00:00.000" out="00:00:27.500">
  <property name="length">276</property>
  <property name="eof">pause</property>
  <property name="resource">ls/牛“油”果2.0-1dM4y1V7hY0001.wav</property>
  <property name="audio_index">0</property>
  <property name="video_index">-1</property>
  <property name="mute_on_pause">0</property>
  <property name="mlt_service">avformat-novalidate</property>
  <property name="meta.media.nb_streams">1</property>
  <property name="meta.media.0.stream.type">audio</property>
  <property name="meta.media.0.codec.sample_fmt">s16</property>
  <property name="meta.media.0.codec.sample_rate">48000</property>
  <property name="meta.media.0.codec.channels">2</property>
  <property name="meta.media.0.codec.name">pcm_s16le</property>
  <property name="meta.media.0.codec.long_name">PCM signed 16-bit little-endian</property>
  <property name="meta.media.0.codec.bit_rate">1536000</property>
  <property name="meta.attr.encoder.markup">Lavf58.76.100</property>
  <property name="seekable">1</property>
  <property name="kdenlive:clipname"/>
  <property name="kdenlive:folderid">-1</property>
  <property name="kdenlive:id">39</property>
  <property name="kdenlive:file_size">5296458</property>
  <property name="kdenlive:file_hash">7011bc9a82588ef1b71675097d872daa</property>
  <property name="kdenlive:audio_max0">239</property>
  <property name="xml">was here</property>
  <property name="set.test_audio">0</property>
  <property name="set.test_image">1</property>
 </producer>
 <playlist id="playlist2">
  <property name="kdenlive:audio_track">1</property>
  <blank length="00:00:00.100"/>
  <entry producer="producer43" in="00:00:00.000" out="00:00:45.100">
   <property name="kdenlive:id">13</property>
  </entry>
  <entry producer="producer44" in="00:02:48.100" out="00:03:45.200">
   <property name="kdenlive:id">24</property>
  </entry>
  <entry producer="producer44" in="00:01:17.400" out="00:02:08.400">
   <property name="kdenlive:id">24</property>
  </entry>
  <blank length="00:00:02.300"/>
  <entry producer="producer44" in="00:02:08.500" out="00:02:48.000">
   <property name="kdenlive:id">24</property>
  </entry>
  <blank length="00:00:04.100"/>
  <entry producer="producer45" in="00:00:00.000" out="00:00:16.300">
   <property name="kdenlive:id">11</property>
  </entry>
  <entry producer="producer45" in="00:00:16.400" out="00:00:24.000">
   <property name="kdenlive:id">11</property>
  </entry>
  <blank length="00:00:01.100"/>
  <entry producer="producer46" in="00:00:23.800" out="00:00:34.900">
   <property name="kdenlive:id">11</property>
  </entry>
  <blank length="00:00:02.400"/>
  <entry producer="producer47" in="00:00:00.000" out="00:00:27.500">
   <property name="kdenlive:id">39</property>
  </entry>
 </playlist>
 <playlist id="playlist3">
  <property name="kdenlive:audio_track">1</property>
 </playlist>
 <tractor id="tractor1" in="00:00:00.000" out="00:04:25.900">
  <property name="kdenlive:audio_track">1</property>
  <property name="kdenlive:trackheight">69</property>
  <property name="kdenlive:timeline_active">1</property>
  <property name="kdenlive:collapsed">0</property>
  <property name="kdenlive:thumbs_format"/>
  <property name="kdenlive:audio_rec"/>
  <track hide="video" producer="playlist2"/>
  <track hide="video" producer="playlist3"/>
  <filter id="filter4">
   <property name="window">75</property>
   <property name="max_gain">20dB</property>
   <property name="mlt_service">volume</property>
   <property name="internal_added">237</property>
   <property name="disable">1</property>
  </filter>
  <filter id="filter5">
   <property name="channel">-1</property>
   <property name="mlt_service">panner</property>
   <property name="internal_added">237</property>
   <property name="start">0.5</property>
   <property name="disable">1</property>
  </filter>
  <filter id="filter6">
   <property name="iec_scale">0</property>
   <property name="mlt_service">audiolevel</property>
   <property name="disable">1</property>
  </filter>
 </tractor>
 <producer id="producer48" in="00:00:00.000" out="00:00:47.400">
  <property name="length">475</property>
  <property name="eof">pause</property>
  <property name="resource">ls/Peek 2021-09-27 23-56.mp4</property>
  <property name="audio_index">-1</property>
  <property name="video_index">0</property>
  <property name="mute_on_pause">0</property>
  <property name="mlt_service">avformat-novalidate</property>
  <property name="seekable">1</property>
  <property name="aspect_ratio">1</property>
  <property name="kdenlive:clipname"/>
  <property name="kdenlive:folderid">-1</property>
  <property name="kdenlive:id">8</property>
  <property name="kdenlive:file_size">1268644</property>
  <property name="kdenlive:file_hash">ef66ad302b6fa643dad06c5b02f94039</property>
  <property name="xml">was here</property>
  <property name="meta.media.nb_streams">1</property>
  <property name="meta.media.0.stream.type">video</property>
  <property name="meta.media.0.stream.frame_rate">10</property>
  <property name="meta.media.0.stream.sample_aspect_ratio">0</property>
  <property name="meta.media.0.codec.width">666</property>
  <property name="meta.media.0.codec.height">590</property>
  <property name="meta.media.0.codec.rotate">0</property>
  <property name="meta.media.0.codec.frame_rate">10</property>
  <property name="meta.media.0.codec.pix_fmt">yuv420p</property>
  <property name="meta.media.0.codec.sample_aspect_ratio">0</property>
  <property name="meta.media.0.codec.colorspace">601</property>
  <property name="meta.media.0.codec.name">h264</property>
  <property name="meta.media.0.codec.long_name">H.264 / AVC / MPEG-4 AVC / MPEG-4 part 10</property>
  <property name="meta.media.0.codec.bit_rate">212572</property>
  <property name="meta.attr.0.stream.handler_name.markup">VideoHandler</property>
  <property name="meta.attr.0.stream.vendor_id.markup">[0][0][0][0]</property>
  <property name="meta.attr.major_brand.markup">isom</property>
  <property name="meta.attr.minor_version.markup">512</property>
  <property name="meta.attr.compatible_brands.markup">isomiso2avc1mp41</property>
  <property name="meta.attr.encoder.markup">Lavf58.76.100</property>
  <property name="meta.media.sample_aspect_num">1</property>
  <property name="meta.media.sample_aspect_den">1</property>
  <property name="meta.media.frame_rate_num">10</property>
  <property name="meta.media.frame_rate_den">1</property>
  <property name="meta.media.colorspace">601</property>
  <property name="meta.media.color_trc">2</property>
  <property name="meta.media.has_b_frames">2</property>
  <property name="meta.media.width">666</property>
  <property name="meta.media.height">590</property>
  <property name="meta.media.color_range">mpeg</property>
  <property name="meta.media.top_field_first">0</property>
  <property name="meta.media.progressive">1</property>
  <property name="set.test_audio">1</property>
  <property name="set.test_image">0</property>
 </producer>
 <producer id="producer49" in="00:00:00.000" out="00:00:53.600">
  <property name="length">537</property>
  <property name="eof">pause</property>
  <property name="resource">ls/Peek-xg.mp4</property>
  <property name="audio_index">-1</property>
  <property name="video_index">0</property>
  <property name="mute_on_pause">0</property>
  <property name="mlt_service">avformat-novalidate</property>
  <property name="seekable">1</property>
  <property name="aspect_ratio">1</property>
  <property name="kdenlive:clipname"/>
  <property name="kdenlive:folderid">-1</property>
  <property name="kdenlive:id">7</property>
  <property name="kdenlive:file_size">1386423</property>
  <property name="kdenlive:file_hash">486b358c5ef55a9599469216c74d549a</property>
  <property name="xml">was here</property>
  <property name="meta.media.nb_streams">1</property>
  <property name="meta.media.0.stream.type">video</property>
  <property name="meta.media.0.stream.frame_rate">10</property>
  <property name="meta.media.0.stream.sample_aspect_ratio">0</property>
  <property name="meta.media.0.codec.width">648</property>
  <property name="meta.media.0.codec.height">590</property>
  <property name="meta.media.0.codec.rotate">0</property>
  <property name="meta.media.0.codec.frame_rate">10</property>
  <property name="meta.media.0.codec.pix_fmt">yuv420p</property>
  <property name="meta.media.0.codec.sample_aspect_ratio">0</property>
  <property name="meta.media.0.codec.colorspace">601</property>
  <property name="meta.media.0.codec.name">h264</property>
  <property name="meta.media.0.codec.long_name">H.264 / AVC / MPEG-4 AVC / MPEG-4 part 10</property>
  <property name="meta.media.0.codec.bit_rate">205459</property>
  <property name="meta.attr.0.stream.handler_name.markup">VideoHandler</property>
  <property name="meta.attr.0.stream.vendor_id.markup">[0][0][0][0]</property>
  <property name="meta.attr.major_brand.markup">isom</property>
  <property name="meta.attr.minor_version.markup">512</property>
  <property name="meta.attr.compatible_brands.markup">isomiso2avc1mp41</property>
  <property name="meta.attr.encoder.markup">Lavf58.76.100</property>
  <property name="meta.media.sample_aspect_num">1</property>
  <property name="meta.media.sample_aspect_den">1</property>
  <property name="meta.media.frame_rate_num">10</property>
  <property name="meta.media.frame_rate_den">1</property>
  <property name="meta.media.colorspace">601</property>
  <property name="meta.media.color_trc">2</property>
  <property name="meta.media.has_b_frames">2</property>
  <property name="meta.media.width">648</property>
  <property name="meta.media.height">590</property>
  <property name="meta.media.color_range">mpeg</property>
  <property name="meta.media.top_field_first">0</property>
  <property name="meta.media.progressive">1</property>
  <property name="set.test_audio">1</property>
  <property name="set.test_image">0</property>
 </producer>
 <producer id="producer50" in="00:00:00.000" out="00:00:50.200">
  <property name="length">503</property>
  <property name="eof">pause</property>
  <property name="resource">ls/Peek-ttt.mp4</property>
  <property name="audio_index">-1</property>
  <property name="video_index">0</property>
  <property name="mute_on_pause">0</property>
  <property name="mlt_service">avformat-novalidate</property>
  <property name="seekable">1</property>
  <property name="aspect_ratio">1</property>
  <property name="kdenlive:clipname"/>
  <property name="kdenlive:folderid">-1</property>
  <property name="kdenlive:id">5</property>
  <property name="kdenlive:file_size">1504476</property>
  <property name="kdenlive:file_hash">ae7dfa8103b343a5c9975bf4b03501f6</property>
  <property name="xml">was here</property>
  <property name="meta.media.nb_streams">1</property>
  <property name="meta.media.0.stream.type">video</property>
  <property name="meta.media.0.stream.frame_rate">10</property>
  <property name="meta.media.0.stream.sample_aspect_ratio">0</property>
  <property name="meta.media.0.codec.width">648</property>
  <property name="meta.media.0.codec.height">590</property>
  <property name="meta.media.0.codec.rotate">0</property>
  <property name="meta.media.0.codec.frame_rate">10</property>
  <property name="meta.media.0.codec.pix_fmt">yuv420p</property>
  <property name="meta.media.0.codec.sample_aspect_ratio">0</property>
  <property name="meta.media.0.codec.colorspace">601</property>
  <property name="meta.media.0.codec.name">h264</property>
  <property name="meta.media.0.codec.long_name">H.264 / AVC / MPEG-4 AVC / MPEG-4 part 10</property>
  <property name="meta.media.0.codec.bit_rate">238187</property>
  <property name="meta.attr.0.stream.handler_name.markup">VideoHandler</property>
  <property name="meta.attr.0.stream.vendor_id.markup">[0][0][0][0]</property>
  <property name="meta.attr.major_brand.markup">isom</property>
  <property name="meta.attr.minor_version.markup">512</property>
  <property name="meta.attr.compatible_brands.markup">isomiso2avc1mp41</property>
  <property name="meta.attr.encoder.markup">Lavf58.76.100</property>
  <property name="meta.media.sample_aspect_num">1</property>
  <property name="meta.media.sample_aspect_den">1</property>
  <property name="meta.media.frame_rate_num">10</property>
  <property name="meta.media.frame_rate_den">1</property>
  <property name="meta.media.colorspace">601</property>
  <property name="meta.media.color_trc">2</property>
  <property name="meta.media.has_b_frames">2</property>
  <property name="meta.media.width">648</property>
  <property name="meta.media.height">590</property>
  <property name="meta.media.color_range">mpeg</property>
  <property name="meta.media.top_field_first">0</property>
  <property name="meta.media.progressive">1</property>
  <property name="set.test_audio">1</property>
  <property name="set.test_image">0</property>
 </producer>
 <producer id="producer51" in="00:00:00.000" out="00:00:36.300">
  <property name="length">364</property>
  <property name="eof">pause</property>
  <property name="resource">ls/Peek-hj.mp4</property>
  <property name="audio_index">-1</property>
  <property name="video_index">0</property>
  <property name="mute_on_pause">0</property>
  <property name="mlt_service">avformat-novalidate</property>
  <property name="seekable">1</property>
  <property name="aspect_ratio">1</property>
  <property name="kdenlive:clipname"/>
  <property name="kdenlive:file_size">1422121</property>
  <property name="kdenlive:folderid">-1</property>
  <property name="kdenlive:id">3</property>
  <property name="kdenlive:file_hash">8966c5e1e312b6d2975233ab175ed1ff</property>
  <property name="xml">was here</property>
  <property name="meta.media.nb_streams">1</property>
  <property name="meta.media.0.stream.type">video</property>
  <property name="meta.media.0.stream.frame_rate">10</property>
  <property name="meta.media.0.stream.sample_aspect_ratio">0</property>
  <property name="meta.media.0.codec.width">648</property>
  <property name="meta.media.0.codec.height">590</property>
  <property name="meta.media.0.codec.rotate">0</property>
  <property name="meta.media.0.codec.frame_rate">10</property>
  <property name="meta.media.0.codec.pix_fmt">yuv420p</property>
  <property name="meta.media.0.codec.sample_aspect_ratio">0</property>
  <property name="meta.media.0.codec.colorspace">601</property>
  <property name="meta.media.0.codec.name">h264</property>
  <property name="meta.media.0.codec.long_name">H.264 / AVC / MPEG-4 AVC / MPEG-4 part 10</property>
  <property name="meta.media.0.codec.bit_rate">311409</property>
  <property name="meta.attr.0.stream.handler_name.markup">VideoHandler</property>
  <property name="meta.attr.0.stream.vendor_id.markup">[0][0][0][0]</property>
  <property name="meta.attr.major_brand.markup">isom</property>
  <property name="meta.attr.minor_version.markup">512</property>
  <property name="meta.attr.compatible_brands.markup">isomiso2avc1mp41</property>
  <property name="meta.attr.encoder.markup">Lavf58.76.100</property>
  <property name="meta.media.sample_aspect_num">1</property>
  <property name="meta.media.sample_aspect_den">1</property>
  <property name="meta.media.frame_rate_num">10</property>
  <property name="meta.media.frame_rate_den">1</property>
  <property name="meta.media.colorspace">601</property>
  <property name="meta.media.color_trc">2</property>
  <property name="meta.media.has_b_frames">2</property>
  <property name="meta.media.width">648</property>
  <property name="meta.media.height">590</property>
  <property name="meta.media.color_range">mpeg</property>
  <property name="meta.media.top_field_first">0</property>
  <property name="meta.media.progressive">1</property>
  <property name="set.test_audio">1</property>
  <property name="set.test_image">0</property>
 </producer>
 <producer id="producer52" in="00:00:00.000" out="00:00:34.100">
  <property name="length">342</property>
  <property name="eof">pause</property>
  <property name="resource">ls/Peek 2021-09-28 00-48.mp4</property>
  <property name="audio_index">-1</property>
  <property name="video_index">0</property>
  <property name="mute_on_pause">0</property>
  <property name="mlt_service">avformat-novalidate</property>
  <property name="seekable">1</property>
  <property name="aspect_ratio">1</property>
  <property name="kdenlive:clipname"/>
  <property name="kdenlive:folderid">-1</property>
  <property name="kdenlive:id">2</property>
  <property name="kdenlive:file_size">1361778</property>
  <property name="kdenlive:file_hash">95b7d015b4fbbf7aca94545224e306ae</property>
  <property name="xml">was here</property>
  <property name="meta.media.nb_streams">1</property>
  <property name="meta.media.0.stream.type">video</property>
  <property name="meta.media.0.stream.frame_rate">10</property>
  <property name="meta.media.0.stream.sample_aspect_ratio">0</property>
  <property name="meta.media.0.codec.width">648</property>
  <property name="meta.media.0.codec.height">590</property>
  <property name="meta.media.0.codec.rotate">0</property>
  <property name="meta.media.0.codec.frame_rate">10</property>
  <property name="meta.media.0.codec.pix_fmt">yuv420p</property>
  <property name="meta.media.0.codec.sample_aspect_ratio">0</property>
  <property name="meta.media.0.codec.colorspace">601</property>
  <property name="meta.media.0.codec.name">h264</property>
  <property name="meta.media.0.codec.long_name">H.264 / AVC / MPEG-4 AVC / MPEG-4 part 10</property>
  <property name="meta.media.0.codec.bit_rate">317384</property>
  <property name="meta.attr.0.stream.handler_name.markup">VideoHandler</property>
  <property name="meta.attr.0.stream.vendor_id.markup">[0][0][0][0]</property>
  <property name="meta.attr.major_brand.markup">isom</property>
  <property name="meta.attr.minor_version.markup">512</property>
  <property name="meta.attr.compatible_brands.markup">isomiso2avc1mp41</property>
  <property name="meta.attr.encoder.markup">Lavf58.76.100</property>
  <property name="meta.media.sample_aspect_num">1</property>
  <property name="meta.media.sample_aspect_den">1</property>
  <property name="meta.media.frame_rate_num">10</property>
  <property name="meta.media.frame_rate_den">1</property>
  <property name="meta.media.colorspace">601</property>
  <property name="meta.media.color_trc">2</property>
  <property name="meta.media.has_b_frames">2</property>
  <property name="meta.media.width">648</property>
  <property name="meta.media.height">590</property>
  <property name="meta.media.color_range">mpeg</property>
  <property name="meta.media.top_field_first">0</property>
  <property name="meta.media.progressive">1</property>
  <property name="set.test_audio">1</property>
  <property name="set.test_image">0</property>
 </producer>
 <playlist id="playlist4">
  <entry producer="producer48" in="00:00:00.000" out="00:00:44.000">
   <property name="kdenlive:id">8</property>
  </entry>
  <blank length="00:00:04.100"/>
  <entry producer="producer49" in="00:00:01.300" out="00:00:53.600">
   <property name="kdenlive:id">7</property>
  </entry>
  <blank length="00:00:55.300"/>
  <entry producer="producer50" in="00:00:07.600" out="00:00:50.200">
   <property name="kdenlive:id">5</property>
  </entry>
  <blank length="00:00:01.000"/>
  <entry producer="producer51" in="00:00:00.000" out="00:00:25.100">
   <property name="kdenlive:id">3</property>
  </entry>
  <entry producer="producer51" in="00:00:25.200" out="00:00:36.300">
   <property name="kdenlive:id">3</property>
   <filter id="filter7">
    <property name="version">0.1</property>
    <property name="mlt_service">frei0r.distort0r</property>
    <property name="kdenlive_id">frei0r.distort0r</property>
    <property name="Amplitude">00:00:25.200=0.011;00:00:27.400=0.178;00:00:29.700=0.011;00:00:36.300=0.168</property>
    <property name="Frequency">00:00:25.200=-0.105;00:00:27.400=-0.105;00:00:29.700=-0.105;00:00:36.300=0.694</property>
    <property name="kdenlive:collapsed">0</property>
   </filter>
  </entry>
  <blank length="00:00:02.400"/>
  <entry producer="producer52" in="00:00:00.000" out="00:00:28.100">
   <property name="kdenlive:id">2</property>
  </entry>
  <entry producer="producer52" in="00:00:28.200" out="00:00:34.100">
   <property name="kdenlive:id">2</property>
   <filter id="filter8">
    <property name="version">0.2</property>
    <property name="mlt_service">frei0r.c0rners</property>
    <property name="kdenlive_id">frei0r.c0rners</property>
    <property name="0">00:00:28.200=0.333333;00:00:29.300=0.3845;00:00:30.700=0.282;00:00:31.700=0.282;00:00:33.300=0.282</property>
    <property name="1">00:00:28.200=0.333333;00:00:29.300=0.333333;00:00:30.700=0.333333;00:00:31.700=0.333333;00:00:33.300=0.333333</property>
    <property name="2">00:00:28.200=0.666667;00:00:29.300=0.666667;00:00:30.700=0.666667;00:00:31.700=0.666667;00:00:33.300=0.666667</property>
    <property name="3">00:00:28.200=0.333333;00:00:29.300=0.333333;00:00:30.700=0.333333;00:00:31.700=0.333333;00:00:33.300=0.333333</property>
    <property name="4">00:00:28.200=0.666667;00:00:29.300=0.666667;00:00:30.700=0.7025;00:00:31.700=0.7025;00:00:33.300=0.7025</property>
    <property name="5">00:00:28.200=0.666667;00:00:29.300=0.666667;00:00:30.700=0.666667;00:00:31.700=0.666667;00:00:33.300=0.666667</property>
    <property name="6">00:00:28.200=0.333333;00:00:29.300=0.333333;00:00:30.700=0.333333;00:00:31.700=0.333333;00:00:33.300=0.333333</property>
    <property name="7">00:00:28.200=0.666667;00:00:29.300=0.666667;00:00:30.700=0.666667;00:00:31.700=0.748667;00:00:33.300=0.707667</property>
    <property name="9">00:00:28.200=0.687;00:00:29.300=0.687;00:00:30.700=0.687;00:00:31.700=0.687;00:00:33.300=0.687</property>
    <property name="10">00:00:28.200=0.682;00:00:29.300=0.682;00:00:30.700=0.682;00:00:31.700=0.682;00:00:33.300=0.7535</property>
    <property name="13">00:00:28.200=0.42;00:00:29.300=0.42;00:00:30.700=0.42;00:00:31.700=0.42;00:00:33.300=0.78</property>
    <property name="8">0</property>
    <property name="11">0.333</property>
    <property name="12">1</property>
    <property name="14">0</property>
    <property name="kdenlive:collapsed">0</property>
   </filter>
  </entry>
 </playlist>
 <playlist id="playlist5"/>
 <tractor id="tractor2" in="00:00:00.000" out="00:04:32.500">
  <property name="kdenlive:trackheight">69</property>
  <property name="kdenlive:timeline_active">1</property>
  <property name="kdenlive:collapsed">0</property>
  <property name="kdenlive:thumbs_format"/>
  <property name="kdenlive:audio_rec"/>
  <track hide="audio" producer="playlist4"/>
  <track hide="audio" producer="playlist5"/>
 </tractor>
 <producer id="producer53" in="00:00:00.000" out="00:01:31.900">
  <property name="length">920</property>
  <property name="eof">pause</property>
  <property name="resource">ls/Peek 2021-09-27 23-54.mp4</property>
  <property name="audio_index">-1</property>
  <property name="video_index">0</property>
  <property name="mute_on_pause">0</property>
  <property name="mlt_service">avformat-novalidate</property>
  <property name="seekable">1</property>
  <property name="aspect_ratio">1</property>
  <property name="kdenlive:clipname"/>
  <property name="kdenlive:folderid">-1</property>
  <property name="kdenlive:id">23</property>
  <property name="kdenlive:file_size">2070186</property>
  <property name="kdenlive:file_hash">86a0feaef15531cc0f874037dcf126a3</property>
  <property name="xml">was here</property>
  <property name="meta.media.nb_streams">1</property>
  <property name="meta.media.0.stream.type">video</property>
  <property name="meta.media.0.stream.frame_rate">10</property>
  <property name="meta.media.0.stream.sample_aspect_ratio">0</property>
  <property name="meta.media.0.codec.width">666</property>
  <property name="meta.media.0.codec.height">590</property>
  <property name="meta.media.0.codec.rotate">0</property>
  <property name="meta.media.0.codec.frame_rate">10</property>
  <property name="meta.media.0.codec.pix_fmt">yuv420p</property>
  <property name="meta.media.0.codec.sample_aspect_ratio">0</property>
  <property name="meta.media.0.codec.colorspace">601</property>
  <property name="meta.media.0.codec.name">h264</property>
  <property name="meta.media.0.codec.long_name">H.264 / AVC / MPEG-4 AVC / MPEG-4 part 10</property>
  <property name="meta.media.0.codec.bit_rate">178994</property>
  <property name="meta.attr.0.stream.handler_name.markup">VideoHandler</property>
  <property name="meta.attr.0.stream.vendor_id.markup">[0][0][0][0]</property>
  <property name="meta.attr.major_brand.markup">isom</property>
  <property name="meta.attr.minor_version.markup">512</property>
  <property name="meta.attr.compatible_brands.markup">isomiso2avc1mp41</property>
  <property name="meta.attr.encoder.markup">Lavf58.76.100</property>
  <property name="meta.media.sample_aspect_num">1</property>
  <property name="meta.media.sample_aspect_den">1</property>
  <property name="meta.media.frame_rate_num">10</property>
  <property name="meta.media.frame_rate_den">1</property>
  <property name="meta.media.colorspace">601</property>
  <property name="meta.media.color_trc">2</property>
  <property name="meta.media.has_b_frames">2</property>
  <property name="meta.media.width">666</property>
  <property name="meta.media.height">590</property>
  <property name="meta.media.color_range">mpeg</property>
  <property name="meta.media.top_field_first">0</property>
  <property name="meta.media.progressive">1</property>
  <property name="set.test_audio">1</property>
  <property name="set.test_image">0</property>
 </producer>
 <producer id="producer54" in="00:00:00.000" out="00:01:00.100">
  <property name="length">602</property>
  <property name="eof">pause</property>
  <property name="resource">ls/Peek-lm.mp4</property>
  <property name="audio_index">-1</property>
  <property name="video_index">0</property>
  <property name="mute_on_pause">0</property>
  <property name="mlt_service">avformat-novalidate</property>
  <property name="seekable">1</property>
  <property name="aspect_ratio">1</property>
  <property name="kdenlive:clipname"/>
  <property name="kdenlive:folderid">-1</property>
  <property name="kdenlive:id">6</property>
  <property name="kdenlive:file_size">1787481</property>
  <property name="kdenlive:file_hash">6e5dd0ebe0f4d83029aade8c8b0edc4c</property>
  <property name="xml">was here</property>
  <property name="meta.media.nb_streams">1</property>
  <property name="meta.media.0.stream.type">video</property>
  <property name="meta.media.0.stream.frame_rate">10</property>
  <property name="meta.media.0.stream.sample_aspect_ratio">0</property>
  <property name="meta.media.0.codec.width">648</property>
  <property name="meta.media.0.codec.height">590</property>
  <property name="meta.media.0.codec.rotate">0</property>
  <property name="meta.media.0.codec.frame_rate">10</property>
  <property name="meta.media.0.codec.pix_fmt">yuv420p</property>
  <property name="meta.media.0.codec.sample_aspect_ratio">0</property>
  <property name="meta.media.0.codec.colorspace">601</property>
  <property name="meta.media.0.codec.name">h264</property>
  <property name="meta.media.0.codec.long_name">H.264 / AVC / MPEG-4 AVC / MPEG-4 part 10</property>
  <property name="meta.media.0.codec.bit_rate">236465</property>
  <property name="meta.attr.0.stream.handler_name.markup">VideoHandler</property>
  <property name="meta.attr.0.stream.vendor_id.markup">[0][0][0][0]</property>
  <property name="meta.attr.major_brand.markup">isom</property>
  <property name="meta.attr.minor_version.markup">512</property>
  <property name="meta.attr.compatible_brands.markup">isomiso2avc1mp41</property>
  <property name="meta.attr.encoder.markup">Lavf58.76.100</property>
  <property name="meta.media.sample_aspect_num">1</property>
  <property name="meta.media.sample_aspect_den">1</property>
  <property name="meta.media.frame_rate_num">10</property>
  <property name="meta.media.frame_rate_den">1</property>
  <property name="meta.media.colorspace">601</property>
  <property name="meta.media.color_trc">2</property>
  <property name="meta.media.has_b_frames">2</property>
  <property name="meta.media.width">648</property>
  <property name="meta.media.height">590</property>
  <property name="meta.media.color_range">mpeg</property>
  <property name="meta.media.top_field_first">0</property>
  <property name="meta.media.progressive">1</property>
  <property name="set.test_audio">1</property>
  <property name="set.test_image">0</property>
 </producer>
 <producer id="producer55" in="00:00:00.000" out="00:00:20.000">
  <property name="length">202</property>
  <property name="eof">pause</property>
  <property name="resource">0.878412:/home/duangsuse/Peek 2021-09-28 04-02.mp4</property>
  <property name="aspect_ratio">1</property>
  <property name="meta.media.nb_streams">1</property>
  <property name="meta.media.0.stream.type">video</property>
  <property name="meta.media.0.stream.frame_rate">10</property>
  <property name="meta.media.0.stream.sample_aspect_ratio">0</property>
  <property name="meta.media.0.codec.width">874</property>
  <property name="meta.media.0.codec.height">590</property>
  <property name="meta.media.0.codec.rotate">0</property>
  <property name="meta.media.0.codec.frame_rate">10</property>
  <property name="meta.media.0.codec.pix_fmt">yuv420p</property>
  <property name="meta.media.0.codec.sample_aspect_ratio">0</property>
  <property name="meta.media.0.codec.colorspace">601</property>
  <property name="meta.media.0.codec.name">h264</property>
  <property name="meta.media.0.codec.long_name">H.264 / AVC / MPEG-4 AVC / MPEG-4 part 10</property>
  <property name="meta.media.0.codec.bit_rate">57385</property>
  <property name="meta.attr.0.stream.handler_name.markup">VideoHandler</property>
  <property name="meta.attr.0.stream.vendor_id.markup">[0][0][0][0]</property>
  <property name="meta.attr.major_brand.markup">isom</property>
  <property name="meta.attr.minor_version.markup">512</property>
  <property name="meta.attr.compatible_brands.markup">isomiso2avc1mp41</property>
  <property name="meta.attr.encoder.markup">Lavf58.76.100</property>
  <property name="seekable">1</property>
  <property name="meta.media.sample_aspect_num">1</property>
  <property name="meta.media.sample_aspect_den">1</property>
  <property name="audio_index">-1</property>
  <property name="video_index">0</property>
  <property name="mute_on_pause">1</property>
  <property name="warp_speed">0.878412</property>
  <property name="warp_resource">/home/duangsuse/Peek 2021-09-28 04-02.mp4</property>
  <property name="mlt_service">timewarp</property>
  <property name="set.test_audio">1</property>
  <property name="set.test_image">0</property>
  <property name="kdenlive:id">42</property>
  <property name="warp_pitch">0</property>
  <property name="meta.media.frame_rate_num">10</property>
  <property name="meta.media.frame_rate_den">1</property>
  <property name="meta.media.colorspace">601</property>
  <property name="meta.media.color_trc">2</property>
  <property name="meta.media.has_b_frames">2</property>
  <property name="meta.media.width">874</property>
  <property name="meta.media.height">590</property>
  <property name="meta.media.color_range">mpeg</property>
  <property name="meta.media.top_field_first">0</property>
  <property name="meta.media.progressive">1</property>
 </producer>
 <producer id="producer56" in="00:00:00.000" out="00:00:07.700">
  <property name="length">78</property>
  <property name="eof">pause</property>
  <property name="resource">2.269231:/home/duangsuse/Peek 2021-09-28 04-02.mp4</property>
  <property name="aspect_ratio">1</property>
  <property name="meta.media.nb_streams">1</property>
  <property name="meta.media.0.stream.type">video</property>
  <property name="meta.media.0.stream.frame_rate">10</property>
  <property name="meta.media.0.stream.sample_aspect_ratio">0</property>
  <property name="meta.media.0.codec.width">874</property>
  <property name="meta.media.0.codec.height">590</property>
  <property name="meta.media.0.codec.rotate">0</property>
  <property name="meta.media.0.codec.frame_rate">10</property>
  <property name="meta.media.0.codec.pix_fmt">yuv420p</property>
  <property name="meta.media.0.codec.sample_aspect_ratio">0</property>
  <property name="meta.media.0.codec.colorspace">601</property>
  <property name="meta.media.0.codec.name">h264</property>
  <property name="meta.media.0.codec.long_name">H.264 / AVC / MPEG-4 AVC / MPEG-4 part 10</property>
  <property name="meta.media.0.codec.bit_rate">57385</property>
  <property name="meta.attr.0.stream.handler_name.markup">VideoHandler</property>
  <property name="meta.attr.0.stream.vendor_id.markup">[0][0][0][0]</property>
  <property name="meta.attr.major_brand.markup">isom</property>
  <property name="meta.attr.minor_version.markup">512</property>
  <property name="meta.attr.compatible_brands.markup">isomiso2avc1mp41</property>
  <property name="meta.attr.encoder.markup">Lavf58.76.100</property>
  <property name="seekable">1</property>
  <property name="meta.media.sample_aspect_num">1</property>
  <property name="meta.media.sample_aspect_den">1</property>
  <property name="audio_index">-1</property>
  <property name="video_index">0</property>
  <property name="mute_on_pause">1</property>
  <property name="warp_speed">2.26923</property>
  <property name="warp_resource">/home/duangsuse/Peek 2021-09-28 04-02.mp4</property>
  <property name="mlt_service">timewarp</property>
  <property name="set.test_audio">1</property>
  <property name="set.test_image">0</property>
  <property name="kdenlive:id">42</property>
  <property name="warp_pitch">0</property>
  <property name="meta.media.frame_rate_num">10</property>
  <property name="meta.media.frame_rate_den">1</property>
  <property name="meta.media.colorspace">601</property>
  <property name="meta.media.color_trc">2</property>
  <property name="meta.media.has_b_frames">2</property>
  <property name="meta.media.width">874</property>
  <property name="meta.media.height">590</property>
  <property name="meta.media.color_range">mpeg</property>
  <property name="meta.media.top_field_first">0</property>
  <property name="meta.media.progressive">1</property>
 </producer>
 <playlist id="playlist6">
  <entry producer="producer53" in="00:00:00.000" out="00:00:15.400">
   <property name="kdenlive:id">23</property>
  </entry>
  <blank length="00:01:27.000"/>
  <entry producer="producer54" in="00:00:04.200" out="00:00:55.800">
   <property name="kdenlive:id">6</property>
   <filter id="filter9" in="00:00:52.800" out="00:00:55.800">
    <property name="start">1</property>
    <property name="mlt_service">brightness</property>
    <property name="kdenlive_id">fade_to_black</property>
    <property name="end">0</property>
    <property name="alpha">-1</property>
   </filter>
  </entry>
  <blank length="00:00:01.700"/>
  <entry producer="producer30" in="00:00:00.000" out="00:00:04.900">
   <property name="kdenlive:id">32</property>
   <filter id="filter10" in="00:00:03.500" out="00:00:04.900">
    <property name="start">1</property>
    <property name="mlt_service">brightness</property>
    <property name="kdenlive_id">fade_to_black</property>
    <property name="end">0</property>
    <property name="alpha">-1</property>
   </filter>
  </entry>
  <entry producer="producer31" in="00:00:00.000" out="00:00:04.900">
   <property name="kdenlive:id">33</property>
  </entry>
  <blank length="00:00:15.100"/>
  <entry producer="producer32" in="00:00:00.000" out="00:00:04.900">
   <property name="kdenlive:id">34</property>
  </entry>
  <blank length="00:00:18.400"/>
  <entry producer="producer33" in="00:00:00.000" out="00:00:04.900">
   <property name="kdenlive:id">35</property>
  </entry>
  <blank length="00:00:07.600"/>
  <entry producer="producer34" in="00:00:00.000" out="00:00:05.700">
   <property name="kdenlive:id">36</property>
  </entry>
  <blank length="00:00:13.200"/>
  <entry producer="producer35" in="00:00:00.000" out="00:00:04.900">
   <property name="kdenlive:id">37</property>
  </entry>
  <blank length="00:00:31.600"/>
  <entry producer="producer38" in="00:00:00.000" out="00:00:04.900">
   <property name="kdenlive:id">40</property>
  </entry>
  <blank length="00:00:03.100"/>
  <entry producer="producer55" in="00:00:00.000" out="00:00:03.000">
   <property name="kdenlive:id">42</property>
  </entry>
  <entry producer="producer56" in="00:00:01.200" out="00:00:07.700">
   <property name="kdenlive:id">42</property>
  </entry>
 </playlist>
 <playlist id="playlist7"/>
 <tractor id="tractor3" in="00:00:00.000" out="00:04:50.300">
  <property name="kdenlive:trackheight">69</property>
  <property name="kdenlive:timeline_active">1</property>
  <property name="kdenlive:collapsed">0</property>
  <property name="kdenlive:thumbs_format"/>
  <property name="kdenlive:audio_rec"/>
  <track hide="audio" producer="playlist6"/>
  <track hide="audio" producer="playlist7"/>
 </tractor>
 <playlist id="playlist8">
  <blank length="00:00:00.100"/>
  <entry producer="producer12" in="00:00:00.000" out="00:00:04.900">
   <property name="kdenlive:id">14</property>
  </entry>
  <blank length="00:00:04.900"/>
  <entry producer="producer13" in="00:00:00.000" out="00:00:01.300">
   <property name="kdenlive:id">15</property>
  </entry>
  <blank length="00:00:01.100"/>
  <entry producer="producer14" in="00:00:00.000" out="00:00:01.400">
   <property name="kdenlive:id">16</property>
  </entry>
  <entry producer="producer15" in="00:00:00.000" out="00:00:01.100">
   <property name="kdenlive:id">17</property>
  </entry>
  <entry producer="producer16" in="00:00:00.000" out="00:00:04.900">
   <property name="kdenlive:id">18</property>
   <filter id="filter11" in="00:00:04.000" out="00:00:04.900">
    <property name="start">1</property>
    <property name="mlt_service">brightness</property>
    <property name="kdenlive_id">fade_to_black</property>
    <property name="end">0</property>
    <property name="alpha">-1</property>
    <property name="kdenlive:collapsed">0</property>
   </filter>
  </entry>
  <blank length="00:00:00.500"/>
  <entry producer="producer13" in="00:00:00.000" out="00:00:01.200">
   <property name="kdenlive:id">15</property>
  </entry>
  <entry producer="producer19" in="00:00:00.000" out="00:00:02.000">
   <property name="kdenlive:id">21</property>
  </entry>
  <blank length="00:00:00.100"/>
  <entry producer="producer17" in="00:00:00.000" out="00:00:02.400">
   <property name="kdenlive:id">19</property>
  </entry>
  <entry producer="producer18" in="00:00:00.000" out="00:00:03.400">
   <property name="kdenlive:id">20</property>
  </entry>
  <entry producer="producer15" in="00:00:00.000" out="00:00:02.200">
   <property name="kdenlive:id">17</property>
  </entry>
  <blank length="00:00:00.500"/>
  <entry producer="producer13" in="00:00:00.000" out="00:00:01.300">
   <property name="kdenlive:id">15</property>
  </entry>
  <entry producer="producer19" in="00:00:00.000" out="00:00:03.600">
   <property name="kdenlive:id">21</property>
   <filter id="filter12" out="00:00:00.500">
    <property name="start">0</property>
    <property name="mlt_service">brightness</property>
    <property name="kdenlive_id">fade_from_black</property>
    <property name="end">1</property>
    <property name="alpha">-1</property>
    <property name="kdenlive:collapsed">0</property>
   </filter>
  </entry>
  <entry producer="producer20" in="00:00:00.000" out="00:00:04.400">
   <property name="kdenlive:id">22</property>
   <filter id="filter13" in="00:00:01.600" out="00:00:04.400">
    <property name="start">1</property>
    <property name="mlt_service">brightness</property>
    <property name="kdenlive_id">fade_to_black</property>
    <property name="end">0</property>
    <property name="alpha">-1</property>
    <property name="kdenlive:collapsed">0</property>
   </filter>
  </entry>
  <entry producer="producer24" in="00:00:00.000" out="00:00:02.600">
   <property name="kdenlive:id">26</property>
  </entry>
  <blank length="00:00:25.200"/>
  <entry producer="producer23" in="00:00:00.000" out="00:00:04.900">
   <property name="kdenlive:id">25</property>
  </entry>
  <entry producer="producer25" in="00:00:00.000" out="00:00:04.900">
   <property name="kdenlive:id">27</property>
  </entry>
  <blank length="00:00:05.400"/>
  <entry producer="producer26" in="00:00:00.000" out="00:00:04.900">
   <property name="kdenlive:id">28</property>
  </entry>
  <blank length="00:00:05.800"/>
  <entry producer="producer24" in="00:00:00.000" out="00:00:02.300">
   <property name="kdenlive:id">26</property>
  </entry>
  <blank length="00:00:21.500"/>
  <entry producer="producer27" in="00:00:00.000" out="00:00:04.900">
   <property name="kdenlive:id">29</property>
  </entry>
  <blank length="00:00:05.700"/>
  <entry producer="producer28" in="00:00:00.000" out="00:00:04.900">
   <property name="kdenlive:id">30</property>
  </entry>
  <blank length="00:00:14.600"/>
  <entry producer="producer29" in="00:00:00.000" out="00:00:04.900">
   <property name="kdenlive:id">31</property>
  </entry>
  <blank length="00:01:02.200"/>
  <entry producer="producer34" in="00:00:00.000" out="00:00:05.700">
   <property name="kdenlive:id">36</property>
  </entry>
  <blank length="00:00:53.700"/>
  <entry producer="producer41" in="00:00:00.000" out="00:00:04.900">
   <property name="kdenlive:id">43</property>
  </entry>
 </playlist>
 <playlist id="playlist9"/>
 <tractor id="tractor4" in="00:00:00.000" out="00:04:42.500">
  <property name="kdenlive:trackheight">69</property>
  <property name="kdenlive:timeline_active">1</property>
  <property name="kdenlive:collapsed">0</property>
  <property name="kdenlive:thumbs_format"/>
  <property name="kdenlive:audio_rec"/>
  <track hide="audio" producer="playlist8"/>
  <track hide="audio" producer="playlist9"/>
 </tractor>
 <tractor id="tractor5" in="00:00:00.000" out="00:54:50.400">
  <track producer="black_track"/>
  <track producer="tractor0"/>
  <track producer="tractor1"/>
  <track producer="tractor2"/>
  <track producer="tractor3"/>
  <track producer="tractor4"/>
  <transition id="transition0" in="00:02:00.600" out="00:02:27.800">
   <property name="a_track">4</property>
   <property name="b_track">5</property>
   <property name="version">0.9</property>
   <property name="mlt_service">frei0r.cairoblend</property>
   <property name="kdenlive_id">frei0r.cairoblend</property>
   <property name="0">00:00:00.000=100</property>
   <property name="1">colordodge</property>
  </transition>
  <transition id="transition1" in="00:00:00.100" out="00:00:04.000">
   <property name="a_track">4</property>
   <property name="b_track">5</property>
   <property name="geometry">00:00:00.000=0% 0% 100% 100% 0%;00:00:02.900=0% 0% 100% 100% 100%</property>
   <property name="factory">loader</property>
   <property name="aligned">0</property>
   <property name="progressive">1</property>
   <property name="mlt_service">composite</property>
   <property name="kdenlive_id">wipe</property>
   <property name="force_track">0</property>
   <property name="softness">0</property>
   <property name="luma">/usr/share/kdenlive/lumas/PAL/radial-bars.pgm</property>
   <property name="luma_invert">0</property>
   <property name="fill">1</property>
  </transition>
  <transition id="transition2" in="00:00:04.100" out="00:00:05.000">
   <property name="a_track">4</property>
   <property name="b_track">5</property>
   <property name="geometry">00:00:00.000=0% 0% 100% 100% 100%;00:00:00.900=0% 0% 100% 100% 0%</property>
   <property name="factory">loader</property>
   <property name="aligned">0</property>
   <property name="progressive">1</property>
   <property name="mlt_service">composite</property>
   <property name="kdenlive_id">wipe</property>
   <property name="softness">0.32</property>
   <property name="luma">/usr/share/kdenlive/lumas/PAL/checkerboard_small.pgm</property>
   <property name="luma_invert">0</property>
   <property name="fill">1</property>
  </transition>
  <transition id="transition3" in="00:03:58.400" out="00:04:01.300">
   <property name="a_track">3</property>
   <property name="b_track">4</property>
   <property name="version">0.9</property>
   <property name="mlt_service">frei0r.cairoblend</property>
   <property name="kdenlive_id">frei0r.cairoblend</property>
   <property name="0">00:00:00.000=0.87</property>
   <property name="1">exclusion</property>
  </transition>
  <transition id="transition4" in="00:02:40.900" out="00:02:45.800">
   <property name="a_track">3</property>
   <property name="b_track">4</property>
   <property name="version">0.9</property>
   <property name="mlt_service">frei0r.cairoblend</property>
   <property name="kdenlive_id">frei0r.cairoblend</property>
   <property name="0">00:00:00.000=1</property>
   <property name="1">lighten</property>
  </transition>
  <transition id="transition5" in="00:02:35.900" out="00:02:40.800">
   <property name="a_track">3</property>
   <property name="b_track">4</property>
   <property name="factory">loader</property>
   <property name="resource">/usr/share/kdenlive/lumas/PAL/horizontal_blinds.pgm</property>
   <property name="mlt_service">luma</property>
   <property name="kdenlive_id">luma</property>
   <property name="softness">0.7</property>
   <property name="reverse">0</property>
  </transition>
  <transition id="transition6" in="00:00:12.500" out="00:00:15.400">
   <property name="a_track">3</property>
   <property name="b_track">4</property>
   <property name="geometry">00:00:00.000=0% 0% 100% 100% 100%;00:00:02.900=0% 0% 100% 100% 0%</property>
   <property name="factory">loader</property>
   <property name="aligned">0</property>
   <property name="progressive">1</property>
   <property name="mlt_service">composite</property>
   <property name="kdenlive_id">wipe</property>
   <property name="softness">0</property>
   <property name="luma"/>
   <property name="luma_invert">0</property>
   <property name="fill">1</property>
  </transition>
  <transition id="transition7" in="00:03:01.000" out="00:03:05.900">
   <property name="a_track">3</property>
   <property name="b_track">4</property>
   <property name="version">0.9</property>
   <property name="mlt_service">frei0r.cairoblend</property>
   <property name="kdenlive_id">frei0r.cairoblend</property>
   <property name="0">00:00:00.000=100</property>
   <property name="1">difference</property>
  </transition>
  <transition id="transition8" in="00:01:09.300" out="00:01:39.000">
   <property name="a_track">3</property>
   <property name="b_track">5</property>
   <property name="version">0.9</property>
   <property name="mlt_service">frei0r.cairoblend</property>
   <property name="kdenlive_id">frei0r.cairoblend</property>
   <property name="force_track">1</property>
   <property name="0">00:00:00.000=1;00:00:05.600=0.159091;00:00:09.600=0.795455;00:00:29.700=1</property>
   <property name="1">difference</property>
  </transition>
  <transition id="transition9" in="00:00:15.500" out="00:00:45.200">
   <property name="a_track">3</property>
   <property name="b_track">5</property>
   <property name="version">0.9</property>
   <property name="mlt_service">frei0r.cairoblend</property>
   <property name="kdenlive_id">frei0r.cairoblend</property>
   <property name="force_track">1</property>
   <property name="0">00:00:00.000=100</property>
   <property name="1">colordodge</property>
  </transition>
  <transition id="transition10">
   <property name="a_track">0</property>
   <property name="b_track">1</property>
   <property name="mlt_service">mix</property>
   <property name="kdenlive_id">mix</property>
   <property name="internal_added">237</property>
   <property name="always_active">1</property>
   <property name="accepts_blanks">1</property>
   <property name="sum">1</property>
  </transition>
  <transition id="transition11">
   <property name="a_track">0</property>
   <property name="b_track">2</property>
   <property name="mlt_service">mix</property>
   <property name="kdenlive_id">mix</property>
   <property name="internal_added">237</property>
   <property name="always_active">1</property>
   <property name="accepts_blanks">1</property>
   <property name="sum">1</property>
  </transition>
  <transition id="transition12">
   <property name="a_track">0</property>
   <property name="b_track">3</property>
   <property name="compositing">0</property>
   <property name="distort">0</property>
   <property name="rotate_center">0</property>
   <property name="mlt_service">qtblend</property>
   <property name="kdenlive_id">qtblend</property>
   <property name="internal_added">237</property>
   <property name="always_active">1</property>
  </transition>
  <transition id="transition13">
   <property name="a_track">0</property>
   <property name="b_track">4</property>
   <property name="compositing">0</property>
   <property name="distort">0</property>
   <property name="rotate_center">0</property>
   <property name="mlt_service">qtblend</property>
   <property name="kdenlive_id">qtblend</property>
   <property name="internal_added">237</property>
   <property name="always_active">1</property>
  </transition>
  <transition id="transition14">
   <property name="a_track">0</property>
   <property name="b_track">5</property>
   <property name="compositing">0</property>
   <property name="distort">0</property>
   <property name="rotate_center">0</property>
   <property name="mlt_service">qtblend</property>
   <property name="kdenlive_id">qtblend</property>
   <property name="internal_added">237</property>
   <property name="always_active">1</property>
  </transition>
  <filter id="filter14">
   <property name="window">75</property>
   <property name="max_gain">20dB</property>
   <property name="mlt_service">volume</property>
   <property name="internal_added">237</property>
   <property name="disable">1</property>
  </filter>
  <filter id="filter15">
   <property name="channel">-1</property>
   <property name="mlt_service">panner</property>
   <property name="internal_added">237</property>
   <property name="start">0.5</property>
   <property name="disable">1</property>
  </filter>
  <filter id="filter16">
   <property name="iec_scale">0</property>
   <property name="mlt_service">audiolevel</property>
   <property name="disable">1</property>
  </filter>
 </tractor>
</mlt>
